<svg width="50" height="55" viewBox="0 0 50 55" fill="none" xmlns="http://www.w3.org/2000/svg">
<g clip-path="url(#clip0_614_2850)">
<path d="M21.4408 3.20114C21.0111 1.71872 22.1498 0.0214557 23.7182 0.0214557C25.8666 -0.0215131 28.0365 0.0214557 30.185 -2.87225e-05C31.0228 -0.0215131 31.9037 0.322237 32.3549 1.03122C32.8275 1.74021 32.7631 2.62107 32.7631 3.43747C32.7416 5.37107 32.806 7.32614 32.7416 9.25974C32.6127 10.8496 30.7435 11.9238 29.3041 11.2578C28.1439 10.7851 27.8432 9.41013 27.8002 8.29294C25.8881 10.1836 23.933 12.0312 21.9994 13.9004C21.3119 14.6738 20.3021 15.3398 19.2279 15.0605C18.0678 14.6953 17.058 13.9648 15.9408 13.4922C12.1596 17.3379 8.37832 21.1191 4.59707 24.9218C4.16738 25.3515 3.71621 25.8027 3.13613 25.9531C1.82558 26.3398 0.300191 25.3945 0.0423783 24.041C-0.150981 23.2031 0.171285 22.3222 0.772847 21.7207C5.06972 17.4238 9.34511 13.1054 13.642 8.78708C14.3295 8.03513 15.4682 7.75583 16.4135 8.18552C17.4018 8.63669 18.3256 9.19528 19.3139 9.64646C20.9037 8.0781 22.515 6.53122 24.1478 5.00583C22.9877 5.00583 21.6771 4.42575 21.4408 3.20114ZM23.3529 1.78317C22.7514 2.14841 22.9232 3.17966 23.6322 3.30856C24.5346 3.41599 25.4369 3.28708 26.3178 3.37302C26.9623 3.48044 27.1342 4.40427 26.64 4.79099C24.5346 6.832 22.3861 8.87302 20.2807 10.9355C20.0014 11.1933 19.6791 11.5586 19.2494 11.4082C17.9818 10.8925 16.8432 10.0976 15.5541 9.60349C15.2318 9.47458 14.9955 9.77536 14.7807 9.94724C10.5268 14.2011 6.27285 18.498 2.01894 22.7734C1.73964 23.0312 1.48183 23.4394 1.65371 23.8261C1.82558 24.4707 2.74941 24.6425 3.13613 24.1054C7.11074 20.1093 11.0639 16.1133 15.0385 12.1172C15.2748 11.8593 15.64 11.58 16.0053 11.7304C17.1869 12.2246 18.2826 12.9336 19.4643 13.4492C19.851 13.6425 20.2377 13.3633 20.517 13.084C22.8158 10.8711 25.1146 8.65817 27.4135 6.44528C27.7143 6.16599 27.9935 5.84372 28.3373 5.65036C28.767 5.457 29.3256 5.7363 29.4115 6.20896C29.5189 7.21872 29.3256 8.27146 29.4975 9.28122C29.7768 10.1406 31.1947 9.90427 31.1518 8.98044C31.1732 6.78903 31.1732 4.57614 31.1518 2.38474C31.1732 1.95505 30.8295 1.56833 30.3998 1.6113C28.1869 1.58982 25.9525 1.56833 23.7396 1.63278C23.6322 1.67575 23.4603 1.74021 23.3529 1.78317Z" fill="#4DF189"/>
<path d="M36.3936 6.40229C37.3819 5.88666 38.5635 5.99409 39.6377 6.01557C41.3779 6.03706 42.9463 7.49799 43.0752 9.23823C43.1182 10.2265 43.1397 11.2363 43.0752 12.2246C42.9463 12.9121 41.9151 13.0195 41.5928 12.3964C41.2276 11.0644 41.958 9.43159 40.9912 8.27143C40.2393 7.36909 38.9717 7.60541 37.919 7.60541C36.8662 7.60541 35.9639 8.5937 36.0069 9.64643C35.9854 17.5742 36.0069 25.5234 36.0069 33.4511C37.9834 32.4199 39.7022 31.0019 41.4854 29.7128C41.5283 24.9648 41.4854 15.8984 41.5069 11.1503C41.4209 10.5488 42.0654 10.0117 42.624 10.291C43.0752 10.4414 43.1397 10.9785 43.1182 11.3867C43.1182 15.6835 43.1182 24.2558 43.1182 28.5527C44.2139 27.8007 45.6104 27.3066 46.9424 27.7148C48.9404 28.2949 50.208 30.6581 49.542 32.6347C49.2627 33.4296 48.6826 34.0956 48.0381 34.6328C45.2881 36.8886 42.5381 39.1445 39.7881 41.4003C38.542 42.4316 37.0596 43.1621 35.4912 43.5488C29.669 44.9667 23.8252 46.4062 18.003 47.8242C18.4971 50.2089 17.0791 52.8085 14.7373 53.539C12.6748 54.1191 10.5908 54.6777 8.48537 54.957C6.251 55.2148 3.99514 53.7324 3.32912 51.5839C2.92092 50.1445 0.944356 42.496 0.579122 41.0351C0.321309 40.1757 1.67482 39.6816 2.04006 40.4765C2.55568 41.9589 4.40334 49.7578 4.91897 51.2617C5.45607 52.7441 7.15334 53.6464 8.67873 53.3027C10.333 52.9589 11.9873 52.5507 13.6416 52.1855C15.5967 51.7558 16.9072 49.5429 16.2412 47.6308C14.5869 43.1406 12.8897 38.6503 11.2139 34.1601C8.93654 34.8261 6.6592 35.4492 4.38186 36.1152C2.98537 36.5234 1.95412 37.8769 1.93264 39.3164C1.97561 40.8417 2.70607 42.2812 2.87795 43.7851C2.8135 44.4511 1.8467 44.7089 1.45998 44.1718C1.18068 43.6562 1.11623 43.0761 0.96584 42.5175C0.643575 41.1855 0.12795 39.832 0.428731 38.457C0.750997 36.6308 2.16897 35.0624 3.93068 34.5468C6.35842 33.8164 8.82912 33.1503 11.2783 32.4199C12.2237 32.0117 13.1045 31.4531 14.0283 31.0234C14.0498 28.5527 14.0069 26.1035 14.0498 23.6328C14.0498 22.2578 14.9951 20.9472 16.3272 20.539C17.3369 20.2597 18.4112 20.3886 19.4424 20.3886C20.9033 20.3456 22.2783 21.3984 22.6436 22.8164C22.8799 23.998 22.708 25.2011 22.7725 26.4042C23.2666 26.1464 23.7608 25.8886 24.2549 25.6093C24.2549 22.8808 24.2549 20.1523 24.2549 17.4023C24.2549 16.0917 25.0069 14.8242 26.167 14.2011C27.1983 13.621 28.4444 13.7499 29.583 13.7929C31.4307 13.8574 32.999 15.5546 32.9561 17.4023C32.9776 23.0742 32.9561 28.7246 32.9776 34.3964C33.4717 34.3105 33.9658 34.2246 34.46 34.1171C34.46 25.9746 34.46 17.8105 34.46 9.66791C34.3955 8.3144 35.1904 7.00385 36.3936 6.40229ZM25.8447 17.4238C25.8233 19.873 25.8447 22.3007 25.8447 24.7499C26.5322 24.5351 27.2627 24.4062 27.9502 24.621C29.3682 24.9863 30.4424 26.4257 30.292 27.9081C30.0557 29.8203 29.1104 31.6679 27.6065 32.8925C27.0479 33.4082 26.3604 33.7519 25.9307 34.3964C27.7139 34.4824 29.5186 34.4179 31.3233 34.4394C31.3233 28.7675 31.3447 23.0956 31.3233 17.4238C31.3447 16.4355 30.5498 15.4902 29.5401 15.4042C28.8955 15.3613 28.251 15.3613 27.6065 15.4042C26.6182 15.4902 25.8018 16.4355 25.8447 17.4238ZM15.6397 23.6542C15.6182 25.8242 15.6397 27.9941 15.6397 30.164C17.4658 29.1972 19.3135 28.2089 21.1397 27.2421C21.1397 26.039 21.1612 24.8144 21.1397 23.6113C21.1397 22.8164 20.4737 22.0859 19.6787 22.0214C18.8194 21.9785 17.96 21.9785 17.1006 22.0214C16.2842 22.1074 15.6397 22.8378 15.6397 23.6542ZM25.6944 26.6621C21.376 28.9609 17.0362 31.2597 12.7178 33.5585C14.3076 37.8124 15.8975 42.0664 17.5088 46.3203C23.3955 44.8808 29.2822 43.4414 35.169 42.0019C36.458 41.7011 37.6612 41.0996 38.6924 40.2831C41.4424 38.0273 44.1924 35.7499 46.9424 33.4941C47.5225 33.0214 48.0381 32.3769 48.1026 31.582C48.1885 30.3574 47.1143 29.1972 45.8897 29.1757C45.3526 29.1328 44.8155 29.3476 44.3858 29.6699C42.2373 31.1738 40.1104 32.6777 37.9619 34.1816C36.2647 35.3847 34.2022 36.0292 32.1397 36.0292C30.1631 36.0292 28.1651 36.0507 26.1885 36.0078C24.9854 36.0292 24.1045 34.6113 24.6201 33.5156C25.0069 32.7206 25.8662 32.3124 26.4893 31.7324C27.7139 30.7441 28.5303 29.2617 28.7237 27.6933C28.7666 26.791 27.8858 25.996 27.0049 26.1249C26.4893 26.1894 26.1026 26.4472 25.6944 26.6621Z" fill="#4DF189"/>
<path d="M9.17331 45.16C10.8491 44.6444 12.7827 45.8046 13.1264 47.5233C13.5346 49.1346 12.4389 50.8964 10.8491 51.2831C9.1948 51.7557 7.32566 50.6385 6.96042 48.9628C6.50925 47.3729 7.56198 45.5682 9.17331 45.16ZM9.45261 46.7714C8.42136 47.1366 8.14206 48.662 8.97995 49.371C9.79636 50.1874 11.3647 49.6932 11.5581 48.5546C11.8589 47.3944 10.5483 46.2557 9.45261 46.7714Z" fill="#4DF189"/>
</g>
<defs>
<clipPath id="clip0_614_2850">
<rect width="49.7148" height="55" fill="white"/>
</clipPath>
</defs>
</svg>
