<svg width="34" height="42" viewBox="0 0 34 42" fill="none" xmlns="http://www.w3.org/2000/svg">
<g clip-path="url(#clip0_653_3849)">
<path d="M6.70823 0H29.0418C30.1983 0.0410156 31.3469 0.492188 32.2084 1.28789C33.0937 2.0918 33.6999 3.22383 33.8594 4.42969C33.9312 4.92188 33.9153 5.41406 33.9153 5.90625C33.9153 15.9715 33.9153 26.0367 33.9153 36.0938C33.9153 36.7172 33.9312 37.357 33.7877 37.9723C33.4846 39.375 32.5832 40.6219 31.3629 41.3273C30.653 41.7457 29.8474 41.9672 29.0338 42H6.70025C5.48786 41.9426 4.29939 41.434 3.422 40.5645C2.47283 39.6211 1.89853 38.2758 1.89056 36.9141C1.88258 36.0281 1.88258 35.134 1.89056 34.248C2.87164 34.2398 3.85272 34.2645 4.8338 34.2398C5.85476 34.207 6.81989 33.5426 7.25061 32.5992C7.73716 31.5902 7.56966 30.2941 6.84382 29.4574C6.32536 28.834 5.55167 28.4648 4.75404 28.4484C3.79689 28.432 2.83973 28.4484 1.88258 28.4402C1.88258 26.9309 1.88258 25.4215 1.88258 23.9121C2.7839 23.9121 3.69319 23.9121 4.59451 23.9121C5.15285 23.9121 5.71917 23.7809 6.18977 23.4691C7.00335 22.9523 7.52978 21.9926 7.5218 21.0082C7.53776 19.9336 6.90763 18.9 5.98238 18.4242C5.53571 18.1781 5.01726 18.0961 4.51475 18.1043C3.63736 18.1043 2.75997 18.1043 1.88258 18.1043C1.88258 16.5949 1.88258 15.0855 1.88258 13.5762C2.81581 13.5762 3.74105 13.5844 4.67428 13.5762C5.28047 13.568 5.89465 13.3793 6.3812 13.002C7.11502 12.4523 7.55371 11.5254 7.5218 10.5902C7.50585 9.54844 6.89168 8.55586 5.99036 8.08828C5.54369 7.84219 5.02523 7.76016 4.52273 7.76016C3.64534 7.76016 2.76795 7.76016 1.89056 7.76016C1.87461 6.87422 1.88258 5.98008 1.89056 5.08594C1.89853 3.69961 2.49675 2.33789 3.48581 1.39453C4.34725 0.549609 5.51976 0.0574219 6.70823 0ZM18.3376 10.3688C16.4473 10.5492 14.7563 11.9848 14.2139 13.8551C13.8789 14.9789 13.9347 16.2258 14.3973 17.3086C14.9158 18.5555 15.9527 19.5562 17.197 20.0074C18.1701 20.3684 19.2469 20.4012 20.236 20.0895C21.3287 19.7531 22.3018 19.0066 22.916 18.0141C23.6099 16.923 23.8492 15.5449 23.578 14.2734C23.2989 12.8871 22.4055 11.6566 21.2011 10.9676C20.3397 10.4754 19.3267 10.2621 18.3376 10.3688ZM13.9587 22.7391C12.842 23.4117 11.9726 24.5191 11.5817 25.7824C11.167 27.0457 11.3504 28.4074 11.3105 29.7117C16.3356 29.7117 21.3606 29.7117 26.3857 29.7117C26.3697 28.7684 26.4256 27.8332 26.3538 26.8898C26.1623 24.8883 24.8064 23.0672 22.9798 22.3453C22.3098 22.0664 21.5919 21.9516 20.8741 21.9598C19.4942 21.9598 18.1063 21.9598 16.7264 21.9598C15.7533 21.968 14.7882 22.2305 13.9587 22.7391Z" fill="white"/>
<path d="M1.49981 9.05611C2.40113 9.0397 3.29448 9.05611 4.19579 9.04791C4.53877 9.04791 4.89771 9.0233 5.23271 9.14634C5.79105 9.34322 6.20581 9.89283 6.26165 10.4917C6.33343 11.1397 5.98248 11.8042 5.42414 12.0913C5.09711 12.2717 4.71425 12.2799 4.35532 12.2717C3.39019 12.2635 2.42506 12.2881 1.45196 12.2635C0.662306 12.2307 -0.0156766 11.4842 0.000275934 10.6639C-0.0156766 9.8272 0.686235 9.06431 1.49981 9.05611Z" fill="white"/>
<path d="M1.50788 19.3923C2.56075 19.3759 3.6216 19.3841 4.67446 19.3923C5.16102 19.3841 5.64757 19.6138 5.94269 20.0239C6.34948 20.5489 6.38139 21.3446 6.01448 21.8942C5.72733 22.3536 5.2009 22.6325 4.67446 22.6243C3.63755 22.6243 2.60063 22.6325 1.5717 22.6243C1.1011 22.6243 0.638471 22.4028 0.351326 22.0255C-0.0235589 21.5497 -0.103322 20.8524 0.167872 20.311C0.40716 19.7614 0.94157 19.4087 1.50788 19.3923Z" fill="white"/>
<path d="M1.50789 29.728C2.56873 29.7116 3.6216 29.7198 4.68244 29.7198C5.16899 29.7116 5.65555 29.9413 5.95067 30.3433C6.34151 30.8519 6.38936 31.6147 6.04638 32.1644C5.76721 32.6483 5.22483 32.9519 4.68244 32.9437C3.64553 32.9437 2.60861 32.9519 1.56372 32.9437C1.07717 32.9437 0.598591 32.6976 0.311445 32.2956C-0.0474873 31.8116 -0.103321 31.1062 0.191801 30.573C0.439065 30.0808 0.965499 29.7444 1.50789 29.728Z" fill="white"/>
</g>
<defs>
<clipPath id="clip0_653_3849">
<rect width="33.9231" height="42" fill="white"/>
</clipPath>
</defs>
</svg>
