<svg width="1920" height="321" viewBox="0 0 1920 321" fill="none" xmlns="http://www.w3.org/2000/svg">
<rect width="1920" height="321" fill="#4DF189"/>
<path fill-rule="evenodd" clip-rule="evenodd" d="M1717 199.225C1719.15 200.353 1722.58 200.795 1724.19 201.4C1723.86 202.005 1719.79 204.114 1718.94 204.605C1717.8 205.243 1717.18 205.374 1717.18 205.75C1717.17 206.306 1719.05 208.66 1719.79 208.922C1720.81 208.055 1725.51 203.493 1725.68 203.477C1725.83 204.18 1725.4 205.913 1725.21 206.698C1724.65 209.151 1724.33 209.756 1724.58 210.05C1724.71 210.23 1728.2 212.094 1728.64 211.996C1728.8 211.931 1728.72 212.094 1728.75 211.718L1728.35 208.987C1728.23 208.415 1727.6 203.542 1727.67 203.297C1728.8 203.902 1731.67 207.565 1732.94 208.546C1733.49 208.17 1734.64 207.27 1734.88 206.486C1733.86 205.799 1728.53 202.496 1728.18 202.054C1729.1 201.384 1734.81 201.564 1737 201.073C1737.08 199.961 1734.23 195.955 1733.91 195.857C1732.22 195.906 1728.27 199.945 1726.93 200.321C1726.33 199.601 1728.1 195.252 1728.5 193.567L1724.29 191C1723.43 192.701 1725.71 198.669 1725.18 199.748C1723.03 198.865 1720.21 196.642 1718.02 195.35C1717.58 196.609 1717.5 197.263 1717 199.225Z" fill="#1C2436"/>
<path fill-rule="evenodd" clip-rule="evenodd" d="M1171 236.478C1170.81 235.596 1167.98 230.159 1167.64 230.018C1167.1 229.798 1162.31 231.643 1162 232.366C1163.11 233.469 1163.97 236.799 1165.02 237C1166.09 236.96 1170.35 237 1171 236.478Z" fill="#1C2436"/>
<path fill-rule="evenodd" clip-rule="evenodd" d="M336.705 46.5565C336.888 48.7524 336.003 51.7304 335.942 53.2946C336.583 53.2344 339.864 50.6475 340.612 50.1211C341.573 49.4142 341.909 48.963 342.229 49.0833C342.718 49.2788 344.03 51.7003 343.999 52.4072C342.886 52.9336 337.255 55.1446 337.194 55.2799C337.743 55.671 339.391 55.9417 340.108 56.0771C342.412 56.4982 343.038 56.4681 343.206 56.784C343.313 56.9644 343.633 60.529 343.389 60.8449C343.267 60.9652 343.435 60.9501 343.099 60.8449L340.917 59.5063C340.459 59.2055 336.537 56.8892 336.293 56.8592C336.4 58.0173 338.491 61.7322 338.872 63.146C338.338 63.4619 337.163 64.0936 336.4 63.9883C336.186 62.8904 335.301 57.2803 335.042 56.8291C334.126 57.3405 332.204 62.1233 330.983 63.7627C330.006 63.4318 327.61 59.5965 327.641 59.2957C328.297 57.927 333.195 56.1372 334.004 55.1746C333.608 54.4076 329.243 54.2873 327.656 54.0015L327 49.5947C328.77 49.4894 333.043 53.5804 334.172 53.5352C334.203 51.4296 333.333 48.2861 333.012 46C334.264 46.0902 334.859 46.2557 336.705 46.5565Z" fill="#1C2436"/>
<g clip-path="url(#clip0_2163_16267)">
<path fill-rule="evenodd" clip-rule="evenodd" d="M1366.81 65.4444L1369 59.2222H1367.8C1367.36 59.3333 1367.25 59 1367.14 58.3333L1366.38 55.3333L1364.19 57.3333C1363.86 57.4444 1363.64 57.4444 1363.54 57.3333L1362.55 56.3333L1361.9 59.8889C1361.79 60.4444 1361.24 60.7778 1360.91 59.7778L1358.95 54.5556L1358.18 55.8889C1357.96 56.2222 1357.42 56.1111 1357.42 56.1111L1354.03 54L1354.25 58C1354.25 58.4444 1353.92 58.5556 1353.48 58.6667H1351.95L1355.56 63C1356.21 63.7778 1355.56 64.1111 1355.12 63.8889L1351.73 62.7778L1352.06 64.1111C1352.17 64.2222 1352.06 64.5556 1351.73 64.6667L1349 65.6667L1351.08 67.7778C1351.62 68.2222 1351.73 68.4444 1351.51 68.7778L1350.86 69.7778L1357.31 70.8889C1357.52 70.8889 1357.85 71.1111 1357.85 71.4444L1358.18 73C1359.6 72 1360.8 71 1362.22 70C1362.33 70 1362.55 69.8889 1362.66 70L1365.28 75L1365.94 74.5556L1363.21 69.7778C1363.21 69.6667 1363.21 69.4444 1363.43 69.3333C1365.07 68.5556 1366.38 68 1368.02 67.2222L1366.92 66.1111C1366.7 66 1366.6 65.6667 1366.81 65.4444Z" fill="#1C2436"/>
</g>
<g clip-path="url(#clip1_2163_16267)">
<path fill-rule="evenodd" clip-rule="evenodd" d="M663.814 264.444L666 258.222H664.798C664.361 258.333 664.251 258 664.142 257.333L663.377 254.333L661.191 256.333C660.863 256.444 660.645 256.444 660.536 256.333L659.552 255.333L658.896 258.889C658.787 259.444 658.24 259.778 657.913 258.778L655.945 253.556L655.18 254.889C654.962 255.222 654.415 255.111 654.415 255.111L651.027 253L651.246 257C651.246 257.444 650.918 257.556 650.481 257.667H648.951L652.557 262C653.213 262.778 652.557 263.111 652.12 262.889L648.732 261.778L649.06 263.111C649.169 263.222 649.06 263.556 648.732 263.667L646 264.667L648.077 266.778C648.623 267.222 648.732 267.444 648.514 267.778L647.858 268.778L654.306 269.889C654.525 269.889 654.852 270.111 654.852 270.444L655.18 272C656.601 271 657.803 270 659.224 269C659.333 269 659.552 268.889 659.661 269L662.284 274L662.94 273.556L660.208 268.778C660.208 268.667 660.208 268.444 660.426 268.333C662.066 267.556 663.377 267 665.016 266.222L663.923 265.111C663.705 265 663.596 264.667 663.814 264.444Z" fill="#1C2436"/>
</g>
<path fill-rule="evenodd" clip-rule="evenodd" d="M228.497 208.596C228.497 208.96 228.497 209.35 228.497 209.766C228.523 213.56 231.409 222.917 235.724 223.229C236.4 218.732 235.412 214.262 239.39 210.727C242.042 208.388 247.58 208.986 249.01 212.417C250.491 215.977 249.4 219.824 247.398 222.579C244.564 227.049 240.534 227.283 239.806 227.725C239.806 228.738 241.158 230.09 241.782 230.688C242.51 231.311 244.018 232.507 244.954 232.923C248.646 234.664 252.337 232.663 255.015 230.818C258.785 228.219 260.059 223.93 261.567 220.656C261.853 220.24 261.801 219.85 262.217 219.85C262.867 219.824 266.272 221.435 266.87 221.981C266.584 223.566 262.841 228.868 261.645 230.09C258.629 233.183 257.485 233.962 253.689 235.782C253.221 236.016 251.713 236.458 251.271 236.587C249.244 237.133 246.332 236.795 244.538 235.912C237.96 232.715 238.038 228.686 236.764 227.491C236.296 227.075 235.542 227.075 234.633 226.763C228.679 224.788 226.001 216.627 226.001 210.675C225.975 208.752 226.391 207.063 228.497 208.596ZM244.46 212.157C243.238 211.637 241.262 211.949 240.482 212.858C238.87 214.73 238.038 217.745 238.09 220.24C238.194 222.683 238.376 223.229 238.74 223.462C240.482 224.632 243.134 221.903 243.992 220.578C245.63 218.083 247.502 213.456 244.46 212.157Z" fill="#1C2436"/>
<defs>
<clipPath id="clip0_2163_16267">
<rect width="20" height="21" fill="white" transform="translate(1349 54)"/>
</clipPath>
<clipPath id="clip1_2163_16267">
<rect width="20" height="21" fill="white" transform="translate(646 253)"/>
</clipPath>
</defs>
</svg>
