<svg width="80" height="80" viewBox="0 0 80 80" fill="none" xmlns="http://www.w3.org/2000/svg">
<rect width="80" height="80" rx="4" fill="#D6FFD8"/>
<g clip-path="url(#clip0_2110_16559)">
<path d="M23.0664 15H23.9258C25.5176 15.1074 27.0801 15.6348 28.3789 16.5625C30.2734 17.8906 31.5918 20.0195 31.9043 22.3145C32.2852 24.9219 31.3477 27.666 29.4727 29.5215C29.9023 29.8145 30.4199 29.9902 30.7715 30.3809C31.25 30.9668 30.8008 31.9727 30.0391 31.9727C28.3105 31.9922 26.5918 31.9727 24.8633 31.9824C24.0137 31.9727 23.1641 32.0215 22.3242 31.8945C20.5566 31.6504 18.8867 30.8008 17.6074 29.5605C16.0742 28.0957 15.1367 26.0449 15 23.9258V23.0664C15.127 20.8984 16.084 18.7793 17.6855 17.3047C19.1309 15.9277 21.0742 15.1172 23.0664 15ZM19.6484 17.6074C18.5352 18.3398 17.6367 19.3848 17.0898 20.5957C16.4062 22.0996 16.2793 23.8574 16.748 25.4492C17.168 26.8945 18.0664 28.1934 19.2676 29.1016C20.3906 29.9609 21.7871 30.4687 23.2031 30.5176C24.8926 30.5469 26.582 30.498 28.2715 30.5176C27.6562 30.1758 27.5684 29.2383 28.1152 28.7891C29.6777 27.4316 30.5957 25.3711 30.5176 23.3008C30.4883 21.5234 29.7168 19.7852 28.457 18.5449C27.3633 17.4414 25.8984 16.7188 24.3652 16.5234C22.7344 16.2988 21.0254 16.6992 19.6484 17.6074Z" fill="#1C2436"/>
<path d="M44.4336 15H45.1465C47.9395 15.0781 50.6836 16.2109 52.6953 18.1445C54.873 20.1758 56.2012 23.0859 56.2988 26.0645C56.3281 27.4219 56.2988 28.7793 56.3086 30.1465C56.3379 31.8848 56.9824 33.5938 58.0957 34.9219C58.8184 35.7812 59.3066 36.8457 59.4434 37.959C59.6875 39.7949 58.9844 41.7187 57.6562 43.0078C57.0215 43.6328 56.2207 44.0918 55.3809 44.375C56.543 44.8633 57.7051 45.3711 58.8672 45.8594C59.5801 46.1523 60.2637 46.5234 60.8594 47.0117C62.5293 48.3496 63.5449 50.459 63.5449 52.6074C63.5449 56.25 63.5449 59.9023 63.5449 63.5449C63.8672 63.5449 64.1895 63.5156 64.5117 63.5645C64.7461 63.623 64.8828 63.8477 65.0098 64.0332V64.4922C64.9023 64.7168 64.7266 64.8926 64.502 65H15.5078C15.293 64.8926 15.1172 64.7168 15 64.502V64.0332C15.1367 63.7793 15.3613 63.5059 15.6836 63.5352C19.3457 63.5254 23.0078 63.5352 26.6602 63.5352C28.6328 63.5352 30.6055 63.5352 32.5781 63.5352C32.1973 59.9609 31.8164 56.3867 31.4355 52.8125C31.3965 52.3535 31.2988 51.8848 31.4062 51.4355C31.6016 50.498 32.4902 49.7461 33.457 49.7363C34.2285 49.7266 34.9902 49.7363 35.7617 49.7363C35.7617 48.2715 35.7617 46.7969 35.7617 45.332C34.1504 46.0352 32.5293 46.7383 30.918 47.4414C28.877 48.291 27.4414 50.4004 27.4316 52.6172C27.4219 55.5176 27.4316 60.8594 27.4219 63.75C27.4609 64.1895 27.0801 64.5215 26.6602 64.5508C26.2695 64.4922 25.9277 64.1699 25.957 63.7598C25.9473 61.3184 25.957 56.4355 25.957 53.9844C25.9668 53.0762 25.9082 52.1582 26.1133 51.2598C26.4844 49.4141 27.627 47.7344 29.209 46.6992C29.6973 46.3672 30.2344 46.1328 30.7715 45.8984C31.9238 45.4004 33.0762 44.8926 34.2188 44.3945C33.6426 44.1992 33.0859 43.9551 32.5977 43.6035C31.123 42.5977 30.166 40.8984 30.0391 39.1211C29.9414 37.8711 30.2734 36.5918 30.957 35.5371C31.2305 35.1074 31.582 34.7266 31.8652 34.2969C32.5293 33.3301 33.0078 32.2266 33.2031 31.0645C33.3496 30.1758 33.2812 29.2676 33.3008 28.3691C33.3105 27.168 33.2422 25.9668 33.4277 24.7754C33.8281 22.0703 35.2441 19.541 37.3242 17.7637C39.2773 16.0742 41.8359 15.0879 44.4336 15ZM36.9922 20.1855C35.5273 21.9727 34.7266 24.2871 34.7461 26.6113C35.8203 26.582 36.9043 26.709 37.959 26.4844C39.7266 26.1719 41.4355 25.6055 43.0371 24.7852C46.0156 23.291 48.5352 20.9277 50.293 18.1055C48.3398 16.8262 45.9375 16.2598 43.6133 16.5332C41.0449 16.8262 38.623 18.1738 36.9922 20.1855ZM46.9531 24.0137C44.3164 26.0938 41.1328 27.4707 37.8125 27.9883C37.8125 29.873 37.8125 31.7676 37.8125 33.6523C37.8027 35.2637 38.5254 36.8555 39.7266 37.9297C40.8301 38.9258 42.3242 39.4531 43.8086 39.3945C45.0098 39.3555 46.2305 39.5117 47.4023 39.1992C49.502 38.6621 51.1816 36.8457 51.5723 34.7168C50.7617 35.3418 49.9512 35.9961 49.0039 36.416C48.8281 36.9824 48.4473 37.5 47.9102 37.7734C47.1582 38.1738 46.2793 37.9688 45.4688 38.0273C44.7461 38.0762 43.9941 37.8125 43.5449 37.2363C43.0078 36.6016 42.9102 35.6445 43.291 34.9023C43.6426 34.209 44.3945 33.7305 45.1758 33.7305C45.791 33.7305 46.4062 33.7207 47.0215 33.7402C47.7832 33.7598 48.4766 34.248 48.8379 34.9023C50.0977 34.2871 51.2012 33.2324 51.6699 31.8848C51.6797 30.5762 51.6699 29.2578 51.6797 27.9492C50.459 27.6855 49.2871 27.1875 48.2812 26.4551C48.0957 26.3184 47.8906 26.1719 47.832 25.9375C47.7441 25.7031 47.8516 25.459 47.959 25.2441C48.125 25.127 48.291 24.9805 48.5059 24.9902C48.8574 24.9707 49.1113 25.2637 49.3945 25.4297C50.9863 26.4648 52.959 26.8457 54.834 26.6309C54.8926 23.7598 53.6133 20.9082 51.4746 19.0039C50.2441 20.9082 48.7305 22.627 46.9531 24.0137ZM34.7461 28.0762C34.7363 28.8281 34.7559 29.5801 34.7363 30.332C34.6387 32.373 33.7793 34.3359 32.4805 35.8984C31.6211 36.9434 31.2695 38.3887 31.5918 39.707C31.9238 41.1621 33.0176 42.4316 34.4434 42.9102C35.2539 43.2129 36.1328 43.1836 36.9824 43.1543C37.4805 42.9785 37.9688 42.7539 38.4375 42.5195C39.375 42.0215 40.0293 41.0449 40.1562 39.9902C38.3691 39.0332 37.0215 37.3047 36.5527 35.3223C36.2988 34.3262 36.3574 33.291 36.3477 32.2754C36.3477 30.8691 36.3477 29.4727 36.3477 28.0664C35.8203 28.0664 35.2832 28.0762 34.7461 28.0762ZM53.1445 28.1445C53.1445 29.8828 53.1445 31.6211 53.1445 33.3594C53.1641 34.3164 53.0273 35.2832 52.6855 36.1816C52.0801 37.8027 50.8594 39.1699 49.3457 40C49.4531 40.7129 49.7754 41.4062 50.293 41.9141C50.918 42.5586 51.7969 42.8223 52.5977 43.1543C53.4473 43.1934 54.3262 43.1934 55.127 42.8809C56.377 42.4219 57.373 41.3574 57.7832 40.0879C58.1641 38.9648 58.0762 37.6953 57.5098 36.6504C57.2461 36.123 56.8262 35.7031 56.4844 35.2148C55.7227 34.1309 55.1953 32.8809 54.9707 31.5723C54.7559 30.4297 54.8535 29.2578 54.834 28.0957C54.2676 28.1641 53.7109 28.1738 53.1445 28.1445ZM44.9219 35.2637C44.8242 35.3613 44.7266 35.4492 44.6289 35.5469C44.6289 35.7715 44.6094 35.9863 44.6387 36.2109C44.7852 36.4551 45.0879 36.543 45.3613 36.5332C45.8203 36.5332 46.2793 36.5234 46.7383 36.5332C46.8555 36.5234 46.9922 36.5527 47.0996 36.4746C47.4121 36.4355 47.5977 36.0938 47.5684 35.8105C47.5684 35.5664 47.334 35.4199 47.1875 35.2637C46.4355 35.2539 45.6738 35.2441 44.9219 35.2637ZM41.5527 40.5762C41.25 41.9824 40.3027 43.2422 39.0039 43.8867C38.418 44.1699 37.8223 44.4043 37.2266 44.668C37.2266 45.2539 37.2266 45.8301 37.2266 46.416C42.1191 47.7734 47.3926 47.7246 52.2559 46.2695C52.2656 45.7227 52.2559 45.166 52.2559 44.6191C51.6504 44.3457 51.0352 44.1113 50.4395 43.8184C49.1797 43.1738 48.2422 41.9531 47.9492 40.5664C47.207 40.7617 46.4355 40.8691 45.6641 40.8398C44.2871 40.8301 42.8809 40.9766 41.5527 40.5762ZM53.7305 45.2539C53.7305 46.748 53.7305 48.2324 53.7305 49.7168C54.5215 49.7168 55.3223 49.7168 56.1133 49.7168C56.543 49.7168 56.9922 49.6875 57.4121 49.8438C58.1445 50.0977 58.7012 50.7617 58.8379 51.5234C58.916 51.9531 58.8281 52.3828 58.7891 52.8027C58.4082 56.377 58.0273 59.9609 57.6562 63.5352C59.1309 63.5352 60.6055 63.5352 62.0801 63.5352C62.0801 59.8535 62.0898 56.1719 62.0801 52.5C62.0508 50.3125 60.6543 48.2129 58.6426 47.3535C56.9922 46.6504 55.3613 45.9473 53.7305 45.2539ZM37.2266 47.9297C37.2266 48.5254 37.2266 49.1211 37.2266 49.7168C42.2363 49.7168 47.2559 49.7168 52.2656 49.7168C52.2656 49.0723 52.2656 48.4277 52.2656 47.7832C47.3828 49.1699 42.1387 49.2188 37.2266 47.9297ZM32.832 52.002C33.2324 55.8496 33.6426 59.6875 34.0527 63.5254C41.4258 63.5254 48.7988 63.5352 56.1816 63.5254C56.582 59.6875 57.002 55.8398 57.4023 52.002C57.4805 51.5527 57.0508 51.123 56.6016 51.1816C48.9258 51.1816 41.2402 51.1816 33.5645 51.1816C33.125 51.1621 32.7637 51.582 32.832 52.002Z" fill="#1C2436"/>
<path d="M20.2066 22.8516C20.6656 22.5684 21.3199 22.959 21.2906 23.4961C21.3101 24.0528 20.5972 24.4239 20.148 24.0918C19.7086 23.8282 19.7379 23.086 20.2066 22.8516Z" fill="#1C2436"/>
<path d="M23.1357 22.8516C23.5947 22.5684 24.249 22.959 24.2197 23.4961C24.2393 24.0332 23.585 24.4141 23.1357 24.1309C22.6475 23.8868 22.6475 23.0957 23.1357 22.8516Z" fill="#1C2436"/>
<path d="M26.0719 22.8516C26.5309 22.5684 27.1754 22.959 27.1559 23.4961C27.1754 24.0528 26.4723 24.4336 26.0231 24.1016C25.5641 23.8282 25.5934 23.086 26.0719 22.8516Z" fill="#1C2436"/>
<path d="M44.6393 54.6191C46.1334 54.3164 47.6959 55.4687 47.8619 56.9824C48.0963 58.4179 47.0123 59.8925 45.5768 60.1074C44.1022 60.4004 42.5592 59.2871 42.3639 57.8027C42.1002 56.3476 43.1842 54.8339 44.6393 54.6191ZM44.8346 56.0742C44.2486 56.2011 43.7701 56.7675 43.819 57.3828C43.7897 58.0664 44.4147 58.6523 45.0787 58.6718C45.8209 58.7109 46.485 58.0175 46.4166 57.2851C46.3971 56.5039 45.5865 55.8886 44.8346 56.0742Z" fill="#1C2436"/>
<path d="M19.6502 17.6074C21.0271 16.6992 22.7361 16.2988 24.367 16.5234C25.9002 16.7089 27.365 17.4414 28.449 18.5351C29.7088 19.7851 30.4802 21.5234 30.5095 23.3007C30.5877 25.3711 29.6697 27.4316 28.1072 28.789C27.5603 29.2382 27.6482 30.1855 28.2634 30.5175C26.574 30.498 24.8845 30.5468 23.1951 30.5175C21.7791 30.4589 20.3826 29.9609 19.2595 29.1015C18.0584 28.1933 17.1599 26.8945 16.74 25.4492C16.2713 23.8574 16.3982 22.1093 17.0818 20.5957C17.6384 19.3847 18.5369 18.3398 19.6502 17.6074ZM20.2068 22.8515C19.738 23.0859 19.7088 23.8183 20.1482 24.0918C20.5974 24.4238 21.3103 24.0527 21.2908 23.4961C21.3298 22.9589 20.6658 22.5683 20.2068 22.8515ZM23.1365 22.8515C22.6482 23.0957 22.6482 23.8867 23.1365 24.1308C23.5955 24.414 24.24 24.0332 24.2205 23.4961C24.2498 22.9589 23.5955 22.5683 23.1365 22.8515ZM26.0759 22.8515C25.6072 23.0859 25.5681 23.8281 26.0173 24.1015C26.4666 24.4336 27.1795 24.0527 27.1502 23.4961C27.1795 22.9589 26.5349 22.5781 26.0759 22.8515Z" fill="#4DF189"/>
<path d="M36.9964 20.1856C38.6175 18.1738 41.0492 16.8164 43.6175 16.5332C45.9418 16.2598 48.3441 16.8164 50.2972 18.1055C48.5394 20.9277 46.0199 23.2813 43.0414 24.7852C41.4496 25.5957 39.7308 26.1719 37.9632 26.4844C36.9086 26.709 35.8246 26.582 34.7503 26.6113C34.7308 24.2969 35.5316 21.9824 36.9964 20.1856Z" fill="#E7D6FF"/>
<path d="M46.9531 24.0137C48.7402 22.627 50.2441 20.9082 51.4648 19.0039C53.6133 20.9082 54.8828 23.7598 54.8242 26.6309C52.9492 26.8555 50.9766 26.4648 49.3848 25.4297C49.1016 25.2637 48.8574 24.9707 48.4961 24.9902C48.2812 24.9805 48.1055 25.127 47.9492 25.2441C47.5781 24.8633 47.2461 24.4531 46.9531 24.0137Z" fill="#E7D6FF"/>
<path d="M34.7488 28.0762C35.2859 28.0762 35.8133 28.0664 36.3504 28.0859C36.3406 29.4922 36.3504 30.8887 36.3504 32.2949C36.3602 33.3105 36.2918 34.3457 36.5555 35.3418C37.0242 37.3145 38.3719 39.043 40.159 40.0098C40.0223 41.0645 39.3777 42.041 38.4402 42.5391C37.9617 42.7734 37.4832 42.998 36.9852 43.1738C36.1356 43.1934 35.2566 43.2227 34.4461 42.9297C33.0301 42.4414 31.9266 41.1816 31.5945 39.7266C31.2723 38.4082 31.6238 36.9629 32.4832 35.918C33.782 34.3555 34.6414 32.3926 34.7391 30.3516C34.7684 29.5801 34.7488 28.8281 34.7488 28.0762Z" fill="#E7D6FF"/>
<path d="M53.1484 28.1445C53.7148 28.1738 54.2813 28.1641 54.8477 28.1055C54.8672 29.2676 54.7695 30.4297 54.9844 31.582C55.209 32.8906 55.7363 34.1406 56.498 35.2246C56.8301 35.7031 57.25 36.1328 57.5234 36.6602C58.0898 37.7051 58.1777 38.9746 57.7969 40.0977C57.3867 41.3672 56.4004 42.4316 55.1406 42.8906C54.3398 43.2031 53.4609 43.2031 52.6113 43.1641C51.8105 42.832 50.9219 42.5684 50.3066 41.9238C49.7891 41.416 49.4668 40.7227 49.3594 40.0098C50.873 39.1797 52.0938 37.8125 52.6992 36.1914C53.041 35.293 53.1777 34.3262 53.1582 33.3691C53.1484 31.6211 53.1387 29.8828 53.1484 28.1445Z" fill="#E7D6FF"/>
<path d="M44.9246 35.2637C45.6766 35.2441 46.4383 35.2637 47.1902 35.2539C47.3367 35.4102 47.5809 35.5566 47.5711 35.8008C47.6004 36.0938 47.4148 36.4355 47.1023 36.4648C46.9949 36.543 46.868 36.5137 46.741 36.5234C46.282 36.5137 45.823 36.5234 45.3641 36.5234C45.0906 36.5332 44.7879 36.4453 44.6414 36.2012C44.6023 35.9863 44.6316 35.7617 44.6316 35.5371C44.7293 35.4492 44.827 35.3516 44.9246 35.2637Z" fill="#E7D6FF"/>
<path d="M37.8106 27.9883C41.131 27.4707 44.3146 26.0938 46.9513 24.0137C47.2442 24.4531 47.5763 24.873 47.9474 25.2441C47.8399 25.459 47.7423 25.6934 47.8204 25.9375C47.879 26.1719 48.0841 26.3184 48.2696 26.4551C49.2853 27.1875 50.4571 27.6758 51.6681 27.9492C51.6681 29.2578 51.6778 30.5762 51.6583 31.8848C51.1896 33.2227 50.0958 34.2871 48.8263 34.9023C48.4649 34.2383 47.7716 33.7598 47.0099 33.7402C46.3946 33.7207 45.7794 33.7305 45.1642 33.7305C44.3829 33.7305 43.631 34.209 43.2794 34.9023C42.8888 35.6348 42.9962 36.5918 43.5333 37.2363C43.9825 37.8125 44.7345 38.0762 45.4571 38.0273C46.2677 37.9785 47.1466 38.1836 47.8985 37.7734C48.4356 37.5 48.8165 36.9824 48.9923 36.416C49.9396 35.9961 50.7501 35.3418 51.5606 34.7168C51.17 36.8457 49.4903 38.6719 47.3907 39.1992C46.2188 39.5117 44.9981 39.3555 43.797 39.3945C42.3126 39.4531 40.8185 38.9258 39.7149 37.9297C38.5138 36.8652 37.7911 35.2637 37.8009 33.6523C37.8106 31.7676 37.8106 29.873 37.8106 27.9883Z" fill="#FFEFEB"/>
<path d="M41.5527 40.5762C42.8906 40.9668 44.2871 40.8203 45.6641 40.8496C46.4355 40.8691 47.207 40.7715 47.9492 40.5762C48.2422 41.9629 49.1797 43.1836 50.4395 43.8281C51.0352 44.1211 51.6602 44.3555 52.2559 44.6289C52.2559 45.1758 52.2559 45.7324 52.2559 46.2793C47.3828 47.7344 42.1191 47.7832 37.2266 46.4258C37.2266 45.8398 37.2266 45.2637 37.2266 44.6777C37.8223 44.4141 38.418 44.1699 39.0039 43.8965C40.293 43.252 41.25 41.9922 41.5527 40.5762Z" fill="#FFEFEB"/>
<path d="M44.8316 56.0742C45.5835 55.8887 46.3941 56.5039 46.4136 57.2754C46.482 58.0176 45.8179 58.7012 45.0757 58.6621C44.4019 58.6523 43.7866 58.0566 43.8159 57.373C43.7671 56.7773 44.2456 56.2012 44.8316 56.0742Z" fill="#FFEFEB"/>
<path d="M53.7324 45.2539C55.373 45.9473 56.9941 46.6504 58.6348 47.3535C60.6465 48.2129 62.0527 50.3027 62.0723 52.5C62.082 56.1816 62.0723 59.8633 62.0723 63.5352C60.5977 63.5352 59.123 63.5352 57.6484 63.5352C58.0293 59.9609 58.4102 56.3867 58.7812 52.8027C58.8203 52.373 58.9082 51.9434 58.8301 51.5234C58.6934 50.7617 58.1367 50.0977 57.4043 49.8438C56.9941 49.6875 56.5449 49.7168 56.1055 49.7168C55.3145 49.7168 54.5137 49.7168 53.7227 49.7168C53.7324 48.2324 53.7324 46.7383 53.7324 45.2539Z" fill="#FFF7D6"/>
<path d="M30.9102 47.4219C32.5215 46.7188 34.1426 46.0156 35.7539 45.3125C35.7637 46.7773 35.7539 48.252 35.7539 49.7168C34.9922 49.7168 34.2207 49.707 33.4492 49.7168C32.4824 49.7363 31.6035 50.4785 31.3984 51.416C31.291 51.875 31.3789 52.334 31.4277 52.793C31.8086 56.3672 32.1895 59.9414 32.5703 63.5156C30.5977 63.5156 29.3867 63.5156 27.4141 63.5156C27.4141 63.0371 27.4531 61.709 27.4141 61.2695C27.4238 58.3691 27.4141 55.4785 27.4238 52.5781C27.4434 50.3809 28.8691 48.2715 30.9102 47.4219Z" fill="#FFF7D6"/>
<path d="M37.2266 47.9297C42.1387 49.2188 47.3828 49.1699 52.2656 47.793C52.2656 48.4375 52.2656 49.082 52.2656 49.7266C47.2559 49.7266 42.2363 49.7266 37.2266 49.7266C37.2266 49.1211 37.2266 48.5254 37.2266 47.9297Z" fill="#EFEDEF"/>
<path d="M32.8324 52.0019C32.764 51.582 33.1351 51.1621 33.555 51.1816C41.2308 51.1816 48.9164 51.1816 56.5922 51.1816C57.0414 51.1328 57.4613 51.5527 57.3929 52.0019C56.9925 55.8398 56.5824 59.6875 56.1722 63.5254C48.7992 63.5351 41.4261 63.5254 34.0433 63.5254C33.6429 59.6875 33.2328 55.8496 32.8324 52.0019ZM44.639 54.6191C43.184 54.834 42.0902 56.3476 42.3636 57.7929C42.559 59.2773 44.1019 60.3906 45.5765 60.0976C47.0121 59.8926 48.0961 58.4082 47.8617 56.9726C47.7054 55.4687 46.1332 54.3164 44.639 54.6191Z" fill="#EFEDEF"/>
</g>
<defs>
<clipPath id="clip0_2110_16559">
<rect width="50" height="50" fill="white" transform="translate(15 15)"/>
</clipPath>
</defs>
</svg>
