<svg width="100" height="100" viewBox="0 0 100 100" fill="none" xmlns="http://www.w3.org/2000/svg">
<rect width="100" height="100" rx="4" fill="#F6F6F9"/>
<g clip-path="url(#clip0_529_5176)">
<path d="M34.6334 23.901C34.9249 23.6095 35.1899 23.2782 35.5344 23.0662C35.9584 22.9603 36.4089 23.0132 36.8462 23.0132C44.1733 23.0132 51.5137 23.0132 58.8409 23.0132C59.6756 23.0265 60.5368 22.9603 61.3318 23.2385C62.5906 23.6492 63.6108 24.7225 63.9686 26.0077C64.1143 26.5245 64.1408 27.0544 64.1276 27.5844C64.1276 32.1556 64.1276 36.7401 64.1276 41.3113C64.1276 43.2855 64.1408 45.2464 64.1276 47.2074C64.1673 47.6049 63.8228 47.8567 63.4783 47.9494C63.1338 47.8567 62.8026 47.6049 62.8423 47.2074C62.8291 44.7165 62.8423 42.2122 62.8423 39.7213C62.8423 35.8126 62.8423 31.9039 62.8423 27.9952C62.8423 27.4652 62.8688 26.9352 62.7496 26.4185C62.5111 25.4777 61.7293 24.6827 60.7886 24.431C60.2851 24.2852 59.7551 24.325 59.2384 24.325C53.1567 24.325 47.075 24.325 40.9934 24.3382C39.4299 24.325 37.8796 24.325 36.3162 24.325C36.0909 24.2852 35.9319 24.4442 35.7729 24.5767C34.3287 26.0475 32.8447 27.5049 31.3872 28.9757C29.1083 31.2414 26.8558 33.5204 24.5768 35.7861C24.4841 35.8788 24.3913 35.9716 24.2986 36.0643C24.3118 48.6914 24.2853 61.3185 24.2986 73.9456C24.2986 75.4428 25.6633 76.7413 27.1473 76.6883C38.0651 76.6883 48.9697 76.6883 59.8744 76.6883C60.7223 76.7015 61.5836 76.3438 62.1268 75.6813C62.4316 75.3368 62.5641 74.873 62.7893 74.4756C62.9086 74.2371 63.2133 74.2371 63.4386 74.1841C63.7301 74.3298 64.0216 74.6213 63.9288 74.979C63.4783 76.7148 61.7823 78 59.9936 77.9735C49.2612 77.9868 38.5289 77.9735 27.7965 77.9735C26.7763 78.0133 25.7031 77.894 24.8286 77.2978C23.7818 76.622 23.0796 75.4428 22.9868 74.1973C22.9471 73.4686 22.9736 72.7398 22.9603 72.0243C22.9603 70.2754 22.9603 68.5264 22.9603 66.7774C22.9603 56.8268 22.9603 46.8762 22.9603 36.9256C22.9736 36.4618 22.9206 35.9848 23.0133 35.5211C23.2121 35.1898 23.5168 34.9381 23.7951 34.6731C27.4388 31.0956 31.0295 27.4917 34.6334 23.901Z" fill="#1C2436"/>
<path d="M35.1368 26.2462C35.1103 25.8619 35.4813 25.6764 35.7861 25.5439C36.0776 25.6764 36.4485 25.8752 36.4088 26.2594C36.4353 28.1939 36.4088 30.1416 36.422 32.0761C36.4353 32.8843 36.2763 33.7058 35.8523 34.3948C35.1501 35.6271 33.7588 36.422 32.3411 36.422C30.3139 36.422 28.2734 36.4353 26.2462 36.4088C25.8619 36.4353 25.6764 36.0643 25.5439 35.7728C25.6764 35.4813 25.8487 35.1103 26.2329 35.1368C28.3132 35.0838 30.3934 35.1633 32.4736 35.1103C33.7853 35.0706 34.9116 33.9841 35.0971 32.6988C35.1766 30.5656 35.0838 28.4059 35.1368 26.2462Z" fill="#1C2436"/>
<path d="M50.2952 27.4122C52.4416 27.1207 54.7074 27.7302 56.4298 29.0419C58.1921 30.3669 59.411 32.3941 59.7158 34.5803C60.2988 38.118 58.2716 41.8545 55.0386 43.365C53.3294 44.2129 51.3154 44.4249 49.4472 44.0009C47.42 43.5372 45.5915 42.2785 44.4122 40.5692C43.3523 39.0323 42.809 37.1375 42.9415 35.2693C43.0475 33.3481 43.8558 31.4799 45.1675 30.0754C46.4925 28.6179 48.3342 27.6507 50.2952 27.4122ZM46.837 30.2609C45.2337 31.5594 44.24 33.5866 44.2135 35.6536C44.1605 37.323 44.77 38.9793 45.7902 40.291C47.42 38.701 49.0497 37.111 50.6662 35.5078C50.6662 33.2288 50.6662 30.9499 50.6662 28.6709C49.2749 28.8167 47.9234 29.3731 46.837 30.2609ZM52.0309 28.6577C52.0309 30.8174 52.0309 32.9638 52.0309 35.1236C54.1774 35.1236 56.3238 35.1236 58.4703 35.1236C58.3246 33.6793 57.7548 32.2881 56.8141 31.1884C55.6348 29.7574 53.8726 28.8432 52.0309 28.6577ZM51.6069 36.4618C50.0037 38.065 48.3739 39.655 46.7575 41.245C47.6584 41.9737 48.7052 42.517 49.8447 42.7555C51.9381 43.2192 54.2171 42.676 55.8601 41.3112C57.3308 40.1187 58.2848 38.33 58.4703 36.4485C56.1781 36.4485 53.8991 36.4353 51.6069 36.4618Z" fill="#1C2436"/>
<path d="M27.8893 47.2604C28.9228 47.2206 29.9695 47.2604 31.0162 47.2339C31.3342 47.2471 31.7052 47.1809 31.9305 47.4591C32.1292 47.6711 32.0895 47.9759 32.1027 48.2409C32.0895 53.8985 32.116 59.5562 32.0895 65.2139C32.1027 65.5716 31.7847 65.8764 31.427 65.8631C30.314 65.8764 29.201 65.8631 28.088 65.8631C27.7833 65.8896 27.4255 65.7174 27.3593 65.3861C27.3063 65.0549 27.3328 64.7237 27.3328 64.4057C27.3328 58.9202 27.3328 53.4481 27.3328 47.9626C27.3063 47.6314 27.5448 47.2869 27.8893 47.2604ZM28.6445 48.5589C28.6445 53.8985 28.6445 59.225 28.6445 64.5647C29.36 64.5647 30.0888 64.5647 30.8175 64.5647C30.8175 64.1937 30.8175 63.8227 30.8175 63.4384C30.8307 58.4697 30.8175 53.5143 30.8175 48.5589C30.4598 48.5589 30.0888 48.5589 29.731 48.5589C29.36 48.5456 29.0023 48.5456 28.6445 48.5589Z" fill="#1C2436"/>
<path d="M54.2565 51.0631C56.9197 49.2346 60.3249 48.5721 63.4783 49.2346C66.0091 49.7514 68.3543 51.1161 70.0635 53.0506C71.8125 55.0115 72.8857 57.5555 73.058 60.179C73.2302 62.5242 72.7002 64.8959 71.5607 66.9496C72.1305 67.5194 72.7002 68.1024 73.2832 68.6721C74.5419 69.9308 75.8007 71.1763 77.0462 72.4483C77.7352 73.1505 78.0664 74.1708 77.9339 75.1513C77.8014 76.1715 77.1654 77.1255 76.2512 77.6025C75.2839 78.1325 74.065 78.1325 73.0977 77.5892C72.5677 77.2977 72.1702 76.8472 71.7462 76.4233C70.143 74.8068 68.5265 73.2035 66.9101 71.5871C65.8368 72.1833 64.6841 72.6206 63.4783 72.859C61.0801 73.3493 58.5229 73.0975 56.2704 72.1303C53.3555 70.8981 50.9838 68.4469 49.8178 65.5186C48.7578 62.8687 48.6915 59.8477 49.6058 57.158C50.4405 54.6803 52.11 52.5206 54.2565 51.0631ZM54.601 52.4278C52.322 54.0841 50.7718 56.6943 50.3875 59.49C50.0563 61.7822 50.4803 64.1804 51.6065 66.2209C52.746 68.2746 54.5745 69.9573 56.7474 70.8981C59.3577 72.0508 62.4184 72.0906 65.0683 71.0173C66.8571 70.2886 68.4735 69.0961 69.613 67.5459L69.6528 67.5326C70.6333 66.1944 71.3487 64.6574 71.6535 63.0277C71.9847 61.1462 71.8522 59.1852 71.203 57.3965C70.2888 54.826 68.3278 52.6398 65.8898 51.4341C63.9951 50.4801 61.8354 50.1224 59.7287 50.3741C57.8737 50.6126 56.0717 51.2751 54.601 52.4278ZM70.8452 68.0626C70.4213 68.6324 69.9575 69.1756 69.454 69.6791C69.0035 70.1031 68.5265 70.5006 68.023 70.8716C69.772 72.6073 71.5077 74.3563 73.2567 76.1053C73.906 76.781 75.0189 76.887 75.7874 76.357C76.1717 76.1185 76.3837 75.721 76.5824 75.3368L76.4632 75.3235L76.5824 75.3368C76.7547 74.6213 76.6089 73.8263 76.0657 73.3095C74.33 71.5473 72.581 69.8116 70.8452 68.0626Z" fill="#1C2436"/>
<path d="M34.6202 50.7716C35.349 50.6126 36.1042 50.7451 36.8462 50.7053C37.3762 50.7186 37.9062 50.6788 38.4362 50.7186C38.7939 50.7318 39.0589 51.0763 39.0192 51.4208C39.0324 55.9655 39.0192 60.5235 39.0192 65.0682C39.0854 65.4921 38.7409 65.9029 38.3037 65.8631C37.1509 65.8631 35.9982 65.8764 34.8322 65.8499C34.448 65.8366 34.1962 65.4391 34.2492 65.0682C34.2492 60.5632 34.2492 56.0583 34.2492 51.5533C34.236 51.2618 34.3155 50.9041 34.6202 50.7716ZM35.561 64.5514C36.2897 64.5514 37.0052 64.5514 37.7339 64.5514C37.7339 64.1804 37.7339 63.8094 37.7339 63.4252C37.7472 59.6092 37.7339 55.8065 37.7339 51.9906C37.3762 51.9906 37.0184 51.9906 36.6607 51.9906C36.2897 51.9906 35.9319 51.9906 35.561 51.9906C35.561 56.1908 35.561 60.3777 35.561 64.5514Z" fill="#1C2436"/>
<path d="M41.5236 54.2563C41.7621 54.1503 42.0271 54.19 42.2656 54.1768C43.2858 54.19 44.3061 54.1635 45.3263 54.19C45.6841 54.1768 45.9623 54.5213 45.9358 54.8657C45.9491 58.271 45.9358 61.6894 45.9358 65.0946C45.9756 65.4656 45.7238 65.8631 45.3263 65.8631C44.1736 65.8896 43.0076 65.8763 41.8549 65.8631C41.4971 65.8896 41.1659 65.5849 41.1924 65.2139C41.1791 61.8087 41.1924 58.4034 41.1791 54.9982C41.1659 54.7068 41.2454 54.3888 41.5236 54.2563ZM42.4909 55.462C42.4909 58.4962 42.4909 61.5172 42.4909 64.5514C43.2196 64.5514 43.9351 64.5514 44.6638 64.5514C44.6638 64.1804 44.6638 63.7961 44.6638 63.4251C44.6771 60.7752 44.6638 58.112 44.6638 55.462C44.3061 55.462 43.9351 55.462 43.5773 55.462C43.2063 55.462 42.8486 55.462 42.4909 55.462Z" fill="#1C2436"/>
<path d="M55.8999 59.1058C55.8866 57.9265 56.8804 56.8666 58.0463 56.7738C59.1461 56.6413 60.2458 57.3833 60.5638 58.4433C60.7758 59.0793 60.6301 59.7683 60.3783 60.3645C60.9746 61.0137 61.5708 61.6497 62.1803 62.2857C62.856 61.928 63.6245 61.8485 64.3665 62.0605C64.8568 61.557 65.3602 61.0402 65.8505 60.5368C65.6252 60.0863 65.4 59.6225 65.4397 59.1058C65.4397 58.0723 66.2082 57.0918 67.2152 56.8401C67.7452 56.6811 68.3017 56.7738 68.8052 56.9461C69.3484 57.2375 69.8254 57.688 70.0374 58.271C70.3289 58.9865 70.2097 59.8213 69.7989 60.4705C69.4147 60.974 68.8714 61.3715 68.2355 61.4775C67.7717 61.5702 67.2947 61.4642 66.8442 61.345C66.354 61.8352 65.8637 62.3387 65.3867 62.829C65.771 63.4517 66.0095 64.207 65.7975 64.9224C65.5325 66.0354 64.3665 66.8304 63.227 66.6847C62.1803 66.5919 61.266 65.7174 61.1336 64.6707C61.0541 64.1937 61.1866 63.7167 61.3191 63.253C60.7096 62.5905 60.0868 61.928 59.4641 61.2655C58.8546 61.5172 58.1921 61.5835 57.5429 61.4377C57.3176 61.6762 57.0924 61.9147 56.8671 62.1532C57.0924 62.6302 57.2514 63.1337 57.2249 63.6637C57.1321 64.26 56.8671 64.8429 56.4034 65.2404C55.6879 65.8897 54.5616 66.0222 53.7137 65.5584C52.9054 65.1477 52.3887 64.2335 52.4549 63.3192C52.4814 61.875 54.0316 60.7487 55.4229 61.133C55.5819 61.186 55.7409 61.239 55.8999 61.292C56.0854 61.0932 56.2709 60.8945 56.4696 60.6825C56.1384 60.2453 55.8601 59.702 55.8999 59.1058ZM57.9536 58.1253C57.2116 58.324 56.9466 59.384 57.5031 59.9008C58.0463 60.4573 59.1196 60.2055 59.3051 59.437C59.5701 58.6553 58.7353 57.8338 57.9536 58.1253ZM67.5067 58.112C66.7117 58.2975 66.4335 59.49 67.1225 59.9538C67.6922 60.5235 68.739 60.126 68.8582 59.3575C69.0437 58.6023 68.2355 57.8735 67.5067 58.112ZM54.3894 62.4845C53.6607 62.7627 53.5149 63.8625 54.1509 64.3262C54.7206 64.8164 55.7144 64.4719 55.8601 63.73C56.1119 62.9217 55.1579 62.1135 54.3894 62.4845ZM63.0018 63.3987C62.2598 63.7167 62.2068 64.8429 62.8958 65.2404C63.5848 65.7439 64.6448 65.1079 64.552 64.26C64.5388 63.518 63.6378 63.0807 63.0018 63.3987Z" fill="#1C2436"/>
<path d="M27.8894 68.0493C33.5735 68.0096 39.2445 68.0493 44.9286 68.0361C45.2069 68.0493 45.5514 67.9963 45.7634 68.2348C46.0284 68.4866 46.0019 68.9636 45.7104 69.1888C45.5381 69.3478 45.2731 69.3346 45.0611 69.3346C39.4565 69.3346 33.8385 69.3346 28.2339 69.3346C27.9556 69.3346 27.6111 69.3081 27.4521 69.0431C27.1871 68.6721 27.4256 68.0891 27.8894 68.0493Z" fill="#1C2436"/>
<path d="M27.8896 71.4943C31.361 71.4546 34.8457 71.4811 38.3172 71.4811C38.7677 71.4281 39.1652 71.9051 38.9929 72.3423C38.8869 72.6868 38.5027 72.806 38.1714 72.7795C34.7662 72.7663 31.3743 72.7928 27.9691 72.7663C27.2138 72.806 27.1343 71.5606 27.8896 71.4943Z" fill="#1C2436"/>
<path d="M63.478 72.8458C61.0798 73.3361 58.5226 73.0843 56.2701 72.1171C53.3552 70.8849 50.9835 68.4337 49.8175 65.5054C48.7575 62.8555 48.6912 59.8345 49.6055 57.1448C50.4402 54.6803 52.1097 52.5206 54.2562 51.0631C56.9194 49.2347 60.3246 48.5722 63.478 49.2347C63.478 48.7974 63.478 48.3734 63.478 47.9362C63.1468 47.8434 62.8023 47.5917 62.842 47.1942C62.8288 44.7032 62.842 42.199 62.842 39.708C62.842 35.7993 62.842 31.8906 62.842 27.982C62.842 27.452 62.8685 26.922 62.7493 26.4052C62.5108 25.4645 61.7291 24.6695 60.7883 24.4177C60.2848 24.272 59.7548 24.3118 59.2381 24.3118C53.1564 24.3118 47.0748 24.3118 40.9931 24.325C39.4296 24.3118 37.8794 24.3118 36.3159 24.3118C36.0907 24.272 35.9317 24.431 35.7727 24.5635C35.7727 24.8947 35.7727 25.226 35.7727 25.544C36.0642 25.6765 36.4352 25.8752 36.3954 26.2462C36.4219 28.1807 36.3954 30.1284 36.4087 32.0629C36.4219 32.8711 36.2629 33.6926 35.8389 34.3816C35.1234 35.6138 33.7454 36.4088 32.3277 36.4088C30.3005 36.4088 28.26 36.4221 26.2328 36.4088C25.8486 36.4353 25.6631 36.0643 25.5306 35.7728C25.2126 35.7728 24.8946 35.7728 24.5633 35.7728C24.4706 35.8656 24.3778 35.9583 24.2851 36.0511C24.2983 48.6782 24.2718 61.3052 24.2851 73.9323C24.2851 75.4296 25.6498 76.728 27.1338 76.675C38.0516 76.675 48.9562 76.675 59.8608 76.675C60.7088 76.6883 61.5701 76.3305 62.1133 75.6681C62.4181 75.3103 62.5506 74.8598 62.7758 74.4623C62.895 74.2238 63.1998 74.2238 63.425 74.1708C63.4913 73.7336 63.478 73.2963 63.478 72.8458ZM55.0247 43.365C53.3154 44.213 51.3015 44.425 49.4332 44.001C47.406 43.5372 45.5775 42.2785 44.3983 40.5693C43.3383 39.0323 42.7951 37.1376 42.9276 35.2694C43.0336 33.3481 43.8418 31.4799 45.1535 30.0754C46.4785 28.6312 48.3335 27.664 50.2812 27.4255C52.4277 27.134 54.6934 27.7435 56.4159 29.0552C58.1781 30.3802 59.3971 32.4074 59.7018 34.5936C60.2981 38.1181 58.2576 41.8545 55.0247 43.365ZM34.2622 51.5534C34.2489 51.2486 34.3152 50.9041 34.6199 50.7716C35.3487 50.6126 36.1039 50.7451 36.8459 50.7054C37.3759 50.7186 37.9059 50.6789 38.4359 50.7186C38.7936 50.7319 39.0586 51.0764 39.0189 51.4209C39.0321 55.9656 39.0189 60.5103 39.0189 65.0682C39.0851 65.4922 38.7406 65.9029 38.3034 65.8632C37.1506 65.8632 35.9979 65.8897 34.8452 65.8499C34.4609 65.8367 34.2092 65.4392 34.2622 65.0682C34.2622 60.5633 34.2622 56.0583 34.2622 51.5534ZM27.3325 64.4057C27.3325 58.9203 27.3325 53.4481 27.3325 47.9627C27.306 47.6314 27.5313 47.2737 27.889 47.2604C28.9358 47.2207 29.9692 47.2604 31.016 47.2339C31.334 47.2472 31.705 47.1809 31.9302 47.4592C32.129 47.6712 32.0892 47.9759 32.1025 48.2409C32.0892 53.8986 32.1157 59.5563 32.0892 65.2139C32.1025 65.5717 31.7845 65.8764 31.4267 65.8632C30.3137 65.8764 29.2008 65.8632 28.0878 65.8632C27.783 65.8897 27.4253 65.7174 27.359 65.3862C27.306 65.0682 27.3325 64.737 27.3325 64.4057ZM38.9924 72.3423C38.8864 72.6868 38.5021 72.8061 38.1709 72.7796C34.7657 72.7663 31.3737 72.7928 27.9685 72.7663C27.2133 72.8061 27.1338 71.5606 27.8758 71.4944C31.3472 71.4546 34.8319 71.4811 38.3034 71.4811C38.7671 71.4281 39.1646 71.9184 38.9924 72.3423ZM45.71 69.1756C45.5378 69.3346 45.2728 69.3214 45.0608 69.3346C39.4561 69.3346 33.8382 69.3346 28.2335 69.3346C27.9553 69.3346 27.6108 69.3081 27.4518 69.0431C27.1868 68.6854 27.4385 68.0892 27.889 68.0494C33.5732 68.0097 39.2441 68.0494 44.9283 68.0229C45.2065 68.0362 45.551 67.9832 45.763 68.2217C46.028 68.4734 46.0015 68.9504 45.71 69.1756ZM45.339 65.8499C44.1863 65.8764 43.0203 65.8632 41.8676 65.8499C41.5098 65.8764 41.1786 65.5584 41.2051 65.2007C41.1918 61.7955 41.2051 58.3903 41.1918 54.9851C41.1786 54.7068 41.2581 54.3756 41.5363 54.2431C41.7748 54.1371 42.0398 54.1768 42.2783 54.1636C43.2986 54.1768 44.3188 54.1503 45.339 54.1768C45.6968 54.1636 45.975 54.5081 45.9485 54.8526C45.9618 58.2578 45.9485 61.6762 45.9485 65.0814C45.9883 65.4524 45.7365 65.8499 45.339 65.8499Z" fill="white"/>
<path d="M46.8361 30.2609C47.9226 29.3599 49.2741 28.8166 50.6786 28.6709C50.6786 30.9499 50.6786 33.2288 50.6786 35.5078C49.0621 37.111 47.4324 38.701 45.8026 40.291C44.7692 38.9793 44.1729 37.3363 44.2259 35.6536C44.2392 33.5866 45.2329 31.5594 46.8361 30.2609Z" fill="#E7D6FF"/>
<path d="M52.0303 28.6577C53.872 28.8432 55.6342 29.7574 56.8135 31.1752C57.7542 32.2749 58.3239 33.6794 58.4697 35.1104C56.3232 35.1104 54.1767 35.1104 52.0303 35.1104C52.0303 32.9639 52.0303 30.8174 52.0303 28.6577Z" fill="#D6FFD8"/>
<path d="M31.3876 28.9757C29.1086 31.2415 26.8561 33.5204 24.5771 35.7861C24.8951 35.7861 25.2131 35.7861 25.5444 35.7861C25.6769 35.4946 25.8491 35.1236 26.2334 35.1501C28.3136 35.0971 30.3938 35.1766 32.474 35.1237C33.7858 35.0839 34.912 33.9974 35.0975 32.7122C35.1638 30.5525 35.0843 28.3927 35.1373 26.233C35.1108 25.8355 35.4818 25.6633 35.7865 25.5308C35.7865 25.1995 35.7865 24.8683 35.7865 24.5503C34.329 26.0475 32.845 27.505 31.3876 28.9757Z" fill="#E7D6FF"/>
<path d="M51.6072 36.4619C50.004 38.0651 48.3743 39.6551 46.7578 41.2451C47.6588 41.9738 48.7055 42.517 49.845 42.7555C51.9385 43.2193 54.2175 42.676 55.8604 41.3113C57.3312 40.1188 58.2852 38.3301 58.4707 36.4486C56.1784 36.4486 53.8995 36.4354 51.6072 36.4619Z" fill="#EBFA9E"/>
<path d="M30.8043 48.5588C30.4465 48.5588 30.0755 48.5588 29.7178 48.5588C29.36 48.5588 29.0023 48.5588 28.6445 48.5588C28.6445 53.8985 28.6445 59.2249 28.6445 64.5646C29.3733 64.5646 30.0888 64.5646 30.8175 64.5646C30.8175 64.1936 30.8175 63.8226 30.8175 63.4384C30.8175 58.4697 30.8043 53.5143 30.8043 48.5588Z" fill="#FFEFEB"/>
<path d="M37.7208 52.0038C37.3631 52.0038 37.0053 52.0038 36.6476 52.0038C36.2766 52.0038 35.9188 52.0038 35.5479 52.0038C35.5479 56.1907 35.5479 60.3644 35.5479 64.5514C36.2766 64.5514 36.9921 64.5514 37.7208 64.5514C37.7208 64.1804 37.7208 63.8094 37.7208 63.4251C37.7341 59.6224 37.7208 55.8197 37.7208 52.0038Z" fill="#FFEFEB"/>
<path d="M44.6505 55.462C44.2928 55.462 43.9218 55.462 43.564 55.462C43.2063 55.462 42.8353 55.462 42.4775 55.462C42.4775 58.4962 42.4775 61.5172 42.4775 64.5514C43.2063 64.5514 43.9218 64.5514 44.6505 64.5514C44.6505 64.1804 44.6505 63.7962 44.6505 63.4252C44.6638 60.7752 44.6505 58.1252 44.6505 55.462Z" fill="#FFEFEB"/>
<path d="M71.1768 57.3833C70.2626 54.8128 68.3016 52.6266 65.8636 51.4076C63.9689 50.4536 61.8092 50.0959 59.7025 50.3476C57.874 50.5994 56.072 51.2751 54.6013 52.4146C52.3223 54.0708 50.7721 56.681 50.3878 59.4768C50.0566 61.769 50.4806 64.1672 51.6068 66.2077C52.7463 68.2614 54.5748 69.9441 56.7478 70.8849C59.358 72.0376 62.4187 72.0773 65.0686 71.0041C66.8574 70.2754 68.4739 69.0829 69.6133 67.5326L69.6531 67.5194C70.6336 66.1812 71.3491 64.6442 71.6538 63.0145C71.9586 61.1462 71.8261 59.1853 71.1768 57.3833ZM68.2354 61.4907C67.7716 61.5835 67.2946 61.4775 66.8441 61.3582C66.3539 61.8485 65.8769 62.352 65.3866 62.8422C65.7709 63.4517 66.0094 64.2069 65.7974 64.9357C65.5324 66.0487 64.3664 66.8437 63.2402 66.6979C62.1934 66.6052 61.2792 65.7307 61.1467 64.6839C61.0672 64.2069 61.1865 63.7299 61.3322 63.2662C60.7227 62.6037 60.1 61.9412 59.4772 61.2787C58.8677 61.5305 58.2052 61.5967 57.556 61.451C57.3308 61.6895 57.1055 61.928 56.8803 62.1665C57.1055 62.6302 57.2513 63.147 57.238 63.6637C57.1453 64.2599 56.8803 64.8429 56.4165 65.2404C55.701 65.8897 54.5748 66.0222 53.7268 65.5584C52.9186 65.1477 52.4018 64.2334 52.4681 63.3192C52.4946 61.875 54.0448 60.7487 55.436 61.133C55.595 61.186 55.754 61.239 55.913 61.292C56.0985 61.0932 56.284 60.8945 56.4828 60.6825C56.1648 60.2055 55.8998 59.6623 55.9263 59.066C55.9263 57.9 56.9068 56.8268 58.0727 56.734C59.1725 56.6015 60.2722 57.3435 60.5902 58.4035C60.8022 59.0395 60.6565 59.7285 60.4047 60.3247C61.001 60.974 61.5972 61.61 62.2067 62.246C62.8824 61.8882 63.6509 61.8087 64.3929 62.0207C64.8832 61.5172 65.3866 61.0005 65.8769 60.497C65.6516 60.0465 65.4396 59.5695 65.4661 59.066C65.4661 58.0325 66.2346 57.052 67.2416 56.8003C67.7716 56.6413 68.3281 56.734 68.8316 56.9063C69.3748 57.1978 69.8518 57.6483 70.0638 58.2313C70.3553 58.9468 70.2361 59.7815 69.8253 60.4307C69.4146 60.9872 68.8581 61.3847 68.2354 61.4907Z" fill="#4DF189"/>
<path d="M57.953 58.1254C58.7214 57.8471 59.5694 58.6554 59.3177 59.4371C59.1189 60.2056 58.059 60.4573 57.5157 59.9009C56.946 59.3709 57.211 58.3241 57.953 58.1254Z" fill="white"/>
<path d="M67.5062 58.1121C68.235 57.8603 69.0564 58.6023 68.8577 59.3575C68.7384 60.126 67.6917 60.5235 67.122 59.9538C66.433 59.49 66.7112 58.2975 67.5062 58.1121Z" fill="white"/>
<path d="M54.3891 62.4845C55.1576 62.1135 56.0984 62.9217 55.8599 63.73C55.7141 64.472 54.7204 64.8165 54.1506 64.3262C53.5147 63.8757 53.6604 62.7627 54.3891 62.4845Z" fill="white"/>
<path d="M63.0018 63.3988C63.6378 63.0808 64.5388 63.518 64.552 64.26C64.6448 65.108 63.5848 65.7307 62.8958 65.2405C62.1935 64.843 62.2598 63.7168 63.0018 63.3988Z" fill="white"/>
<path d="M76.5828 75.3235C76.7551 74.608 76.6093 73.813 76.0661 73.2963C74.3304 71.5473 72.5814 69.8116 70.8457 68.0626C70.4217 68.6324 69.9579 69.1756 69.4544 69.6791C69.0039 70.1031 68.5269 70.5006 68.0234 70.8716C69.7724 72.6073 71.5081 74.3563 73.2571 76.1053C73.9064 76.7678 75.0193 76.887 75.7878 76.357C76.1853 76.1053 76.3973 75.7078 76.5828 75.3235L76.4636 75.3103L76.5828 75.3235Z" fill="#FFF7D6"/>
</g>
<defs>
<clipPath id="clip0_529_5176">
<rect width="54.9603" height="55" fill="white" transform="translate(23 23)"/>
</clipPath>
</defs>
</svg>
