<svg width="55" height="55" viewBox="0 0 55 55" fill="none" xmlns="http://www.w3.org/2000/svg">
<g clip-path="url(#clip0_613_2698)">
<path d="M30.8378 0.321284C31.9245 0.0551545 33.0334 -0.0113778 34.1533 0.0107996C35.7834 0.0107996 37.4134 0.0107996 39.0323 0.0107996C40.3297 -0.000289065 41.6049 0.60959 42.4366 1.60757C43.3459 2.68318 43.6896 4.20233 43.3237 5.56624C42.9688 6.95233 41.8821 8.11665 40.5404 8.60455C40.1412 7.78399 39.2985 7.1852 38.3781 7.12975C37.3801 7.07431 36.3711 7.15193 35.362 7.09649C34.6967 7.05213 34.3529 6.14286 34.7965 5.65495C35.1735 5.18923 35.8388 5.36665 36.36 5.33338C36.36 4.74568 36.36 4.14689 36.36 3.55919C35.5948 3.5481 34.7632 3.50374 34.0868 3.94729C33.0223 4.56826 32.5455 5.94326 32.9557 7.09649C32.1795 7.0854 31.3922 7.26282 30.7602 7.72854C29.9174 8.31624 29.363 9.29205 29.2854 10.3122C29.241 10.8334 29.2743 11.3546 29.2632 11.8757C28.6533 12.2527 28.1211 12.7739 27.8217 13.4281C27.3559 14.4039 27.3781 15.6126 27.8993 16.5662C28.2319 17.1872 28.7753 17.6308 29.2521 18.1187C29.2632 19.3384 29.241 20.5582 29.2632 21.7779C29.241 21.7779 29.1967 21.7668 29.1634 21.7668C25.7148 20.3808 23.0646 17.1872 22.3771 13.539C21.8559 10.9221 22.2884 8.11665 23.608 5.78802C25.1382 3.06019 27.8106 1.03096 30.8378 0.321284Z" fill="#4DF189"/>
<path d="M34.0978 3.93621C34.7632 3.49266 35.5948 3.53702 36.371 3.54811C36.371 4.13581 36.371 4.7346 36.371 5.3223C35.8499 5.35557 35.1845 5.17815 34.8075 5.64387C34.3529 6.13177 34.6966 7.02996 35.373 7.0854C36.371 7.14085 37.3801 7.06323 38.3892 7.11867C39.3095 7.1852 40.1412 7.7729 40.5515 8.59347C40.9174 9.30315 40.8065 10.1126 40.8176 10.8777C40.8287 11.4211 40.7511 12.0199 41.0616 12.5078C41.4497 13.1509 41.9043 13.7497 42.2924 14.3929C42.7692 15.1912 42.6583 16.289 42.0374 16.9765C41.5273 17.5864 40.7067 17.8193 39.9305 17.7527C39.9416 18.54 39.9749 19.3606 39.62 20.0814C39.0767 21.3455 37.746 22.1771 36.3821 22.1882C36.3821 23.3415 36.3821 24.5058 36.3821 25.659C39.2874 25.3818 42.1039 24.1509 44.2551 22.1771C45.8962 20.7023 47.1382 18.8062 47.9033 16.7437C48.0142 15.9009 47.8146 15.0249 48.0364 14.1933C48.3912 12.7517 49.7329 11.6318 51.2188 11.5542C52.5162 11.4544 53.8357 12.1419 54.49 13.2729C54.9114 13.9493 55.0444 14.7588 54.989 15.535C54.8892 19.4715 52.9486 23.1862 50.2319 25.9695C49.2007 27.0118 48.0253 27.8989 46.9053 28.8304C44.743 30.5935 42.1704 31.8465 39.4426 32.4342C39.6089 33.2215 39.7753 34.0199 39.8418 34.8294C39.9527 36.1156 39.8972 37.4019 39.9083 38.6882C43.0575 41.405 45.364 45.0975 46.373 49.1449C46.872 51.0632 47.0384 53.0481 46.994 55.0219C33.3882 55.0219 19.7934 55.0219 6.18756 55.0219C6.04341 50.8969 7.10792 46.7275 9.33676 43.2457C7.98393 42.6912 7.01922 41.2719 7.09684 39.786C5.52224 39.0874 3.94764 38.411 2.37305 37.7124C4.0918 33.9201 5.82164 30.1277 7.54038 26.3354C9.17042 27.0451 10.8005 27.7548 12.4416 28.4755C13.9829 27.1005 15.6351 25.8253 17.4537 24.8384C16.0787 24.8273 14.6926 24.8384 13.3065 24.8273C13.3065 24.2396 13.3065 23.6408 13.3065 23.0531C16.0454 23.0531 18.7732 23.0531 21.5122 23.0531C22.0222 23.0531 22.488 22.8314 22.987 22.7427C25.0495 22.2326 27.1785 22.1217 29.2964 22.166C29.2743 22.0219 29.2521 21.8777 29.1855 21.7447C29.2077 21.7447 29.2521 21.7558 29.2853 21.7558C29.2743 20.536 29.2853 19.3162 29.2743 18.0965C28.7974 17.6086 28.243 17.154 27.9214 16.5441C27.4003 15.5904 27.3781 14.3929 27.8438 13.406C28.1432 12.7517 28.6755 12.2306 29.2853 11.8535C29.2853 11.3324 29.2632 10.8112 29.3075 10.29C29.3851 9.26988 29.9396 8.29407 30.7823 7.70637C31.4144 7.24065 32.2017 7.06323 32.9779 7.07432C32.5565 5.94327 33.0444 4.55718 34.0978 3.93621ZM31.0484 10.534C31.0374 11.3435 31.0484 12.164 31.0484 12.9735C30.5605 13.2396 29.9728 13.406 29.6291 13.8717C29.1745 14.4372 29.1745 15.291 29.5958 15.8677C30.0283 16.4221 30.6049 16.8546 31.0484 17.3979C31.0817 19.0945 31.0484 20.791 31.0595 22.4765C32.3347 23.0421 33.5323 23.7961 34.6079 24.6943C34.6079 23.8515 34.6079 23.0199 34.6079 22.1771C34.0202 22.1771 33.4214 22.1771 32.8337 22.1771C32.8337 21.5894 32.8337 20.9906 32.8337 20.4029C34.0202 20.4029 35.2067 20.414 36.3932 20.4029C37.2914 20.414 38.112 19.6489 38.1452 18.7507C38.1674 17.8193 38.1452 16.8989 38.1563 15.9675C38.8993 15.9564 39.6422 15.9785 40.3851 15.9564C40.6845 15.9564 40.9063 15.5904 40.7843 15.3243C40.2299 14.3152 39.3317 13.4614 39.1099 12.286C38.9658 11.41 39.0989 10.5118 39.0323 9.63581C38.988 9.17008 38.5222 8.82633 38.0565 8.87069C36.2712 8.87069 34.497 8.8596 32.7118 8.87069C31.8247 8.87069 31.0484 9.65798 31.0484 10.534ZM49.9991 14.0824C49.5111 14.781 49.744 15.6792 49.7107 16.4775C50.6644 17.154 51.74 17.6308 52.8599 17.9745C53.0928 16.9876 53.237 15.9785 53.2148 14.9695C53.1926 14.3263 52.7601 13.7386 52.1835 13.4725C51.4295 13.1066 50.4537 13.3838 49.9991 14.0824ZM45.619 23.3193C43.2904 25.5259 40.2521 26.9453 37.0696 27.3667C37.8126 28.409 38.4224 29.54 38.9103 30.7265C40.7289 30.3273 42.492 29.6509 44.0777 28.664C45.3862 27.8546 46.5283 26.8233 47.7148 25.8586C49.7329 24.2064 51.3186 22.0662 52.3277 19.6711C51.241 19.3162 50.1765 18.8727 49.2007 18.2628C48.3357 20.1479 47.1493 21.8999 45.619 23.3193ZM27.3448 23.9735C28.1654 25.4483 28.9749 26.9231 29.7954 28.3868C30.2944 28.3757 30.7934 28.3868 31.2813 28.3868C30.4275 26.9009 29.5958 25.415 28.7309 23.9402C28.2763 23.9624 27.8105 23.9513 27.3448 23.9735ZM17.5202 26.8455C16.2228 27.6106 15.0474 28.5642 13.9053 29.54C12.1089 31.1146 10.7118 33.1217 9.76922 35.3173C10.867 35.6832 11.9093 36.1489 12.9184 36.7144C14.0495 33.9977 15.99 31.6247 18.4184 29.9503C19.1946 29.407 20.0374 28.9745 20.8468 28.4977C21.1351 29.0078 21.4345 29.5289 21.7228 30.039C20.9466 30.5048 20.1372 30.9039 19.3942 31.4362C19.4053 31.4584 19.4275 31.5138 19.4275 31.536C20.7249 32.1237 22.0444 32.6781 23.3418 33.2548C23.2198 33.5098 23.1089 33.7759 22.987 34.031C28.1987 33.0662 33.7652 34.2638 38.123 37.291C38.123 37.0138 38.123 36.7477 38.123 36.4816C35.3287 35.0844 32.5343 33.6872 29.7289 32.279C30.1946 31.5693 30.6714 30.8707 31.1372 30.161C30.3277 30.161 29.5293 30.161 28.7198 30.161C27.6109 28.154 26.491 26.1358 25.371 24.1287C22.621 24.4836 19.9265 25.415 17.5202 26.8455ZM31.115 24.5058C31.9023 25.8697 32.6674 27.2669 33.4769 28.6197C34.5857 29.2739 35.7168 29.8838 36.8478 30.5048C35.6835 27.9322 33.6099 25.8031 31.115 24.5058ZM8.89321 28.8747C8.94865 29.8838 9.20369 30.8707 9.65833 31.7689C10.113 31.1035 10.6009 30.4493 11.122 29.8394C10.3791 29.5179 9.63615 29.1963 8.89321 28.8747ZM32.3458 31.5914C34.242 32.5451 36.1271 33.4876 38.0232 34.4302C37.9567 33.9755 37.8902 33.5098 37.7682 33.0662C37.6795 32.9665 37.5575 32.911 37.4466 32.8556C36.0051 32.0572 34.5525 31.2588 33.122 30.4493C32.8559 30.8263 32.6009 31.2144 32.3458 31.5914ZM7.40732 30.9261C6.50914 32.8888 5.62204 34.8515 4.73494 36.8142C5.57768 37.1802 6.42043 37.5572 7.26317 37.9231C7.48494 36.4039 7.95067 34.9292 8.64926 33.5652C8.10591 32.7447 7.70672 31.8465 7.40732 30.9261ZM14.4043 37.7789C16.3337 36.3485 18.5071 35.2396 20.8136 34.5521C20.869 34.4191 20.9355 34.2971 20.991 34.164C19.9154 33.6983 18.8509 33.2104 17.7642 32.7669C16.3116 34.1751 15.1251 35.8828 14.4043 37.7789ZM24.2732 35.6388C20.5364 36.1046 16.9547 37.7568 14.1603 40.2739C14.0162 41.6156 13.0737 42.8687 11.7652 43.2789C11.621 43.3455 11.4214 43.3566 11.3216 43.4896C9.31458 46.3394 8.15026 49.7548 7.99502 53.2366C8.59381 53.2366 9.1926 53.2366 9.79139 53.2366C9.96881 49.9433 11.122 46.7054 13.1069 44.0662C15.2138 41.2164 18.241 39.0652 21.623 38.0229C24.9164 37.0027 28.5202 37.0249 31.8025 38.1005C34.7964 39.0652 37.491 40.906 39.498 43.3233C41.8156 46.0955 43.2239 49.6217 43.4013 53.2366C44.0001 53.2588 44.6099 53.2477 45.2087 53.2477C45.0868 50.6862 44.4325 48.158 43.2904 45.8737C41.4718 42.2033 38.4114 39.165 34.7299 37.3798C31.5142 35.783 27.8327 35.1842 24.2732 35.6388ZM9.23696 37.036C9.0041 38.0229 8.85994 39.032 8.88212 40.0521C8.91538 40.9503 9.74704 41.7154 10.6452 41.7044C11.4991 41.7265 12.3085 41.0169 12.3972 40.163C12.4416 39.6308 12.4083 39.0985 12.4194 38.5662C11.4658 37.8566 10.368 37.3798 9.23696 37.036ZM21.6785 39.8858C21.9003 40.4181 22.122 40.9503 22.3438 41.4826C21.8005 41.7154 21.2571 41.9261 20.7138 42.159C20.4698 41.6378 20.2702 41.0945 20.0374 40.5622C18.7954 41.1721 17.6311 41.9372 16.6109 42.8687C17.0212 43.2679 17.4315 43.6671 17.8307 44.0773C17.4093 44.4876 16.9991 44.909 16.5777 45.3304C16.1563 44.9312 15.7682 44.5098 15.3468 44.1217C14.4486 45.164 13.6614 46.3062 13.0626 47.5481C13.5726 47.7921 14.1714 47.9362 14.6261 48.2467C14.4376 48.79 14.1825 49.3112 13.9718 49.8435C13.4396 49.6217 12.9073 49.3999 12.3751 49.1781C11.9204 50.4866 11.6543 51.8505 11.5767 53.2255C14.5374 53.2255 17.5091 53.2255 20.4698 53.2255C20.736 51.3294 21.9335 49.5995 23.6079 48.6902C24.9718 47.9251 26.6351 47.7144 28.1432 48.1136C28.8307 46.4614 29.5293 44.8092 30.2057 43.1459C30.7601 43.3566 31.3035 43.6005 31.8468 43.8223C31.1593 45.4856 30.4607 47.1378 29.7732 48.8011C31.3478 49.7437 32.4789 51.407 32.7339 53.2366C35.7057 53.2477 38.6664 53.2366 41.6271 53.2366C41.5384 51.8616 41.2722 50.4977 40.8287 49.1892C40.2964 49.411 39.7642 49.6328 39.2319 49.8546C38.9991 49.3112 38.7884 48.7679 38.5555 48.2245C39.0767 47.9806 39.62 47.781 40.1523 47.5481C39.5535 46.3062 38.7662 45.1529 37.868 44.1217C37.4577 44.5209 37.0474 44.9312 36.6482 45.3414C36.2269 44.9312 35.8166 44.5098 35.3952 44.0884C35.7944 43.6671 36.2269 43.2789 36.6039 42.8465C35.5616 41.9483 34.4194 41.161 33.1775 40.5733C32.9668 41.1056 32.7339 41.6156 32.5343 42.159C31.9688 41.9705 31.4255 41.7154 30.8821 41.4937C31.1039 40.9614 31.3257 40.4291 31.5474 39.8969C30.239 39.4423 28.8751 39.1761 27.5001 39.0874C27.5001 39.664 27.5001 40.2406 27.5001 40.8173C26.9124 40.8173 26.3136 40.8173 25.7259 40.8173C25.7259 40.2406 25.7259 39.664 25.7259 39.0874C24.3509 39.165 22.987 39.4312 21.6785 39.8858ZM24.2732 50.3535C23.242 50.9856 22.5101 52.0501 22.2551 53.2366C25.1603 53.2366 28.0545 53.2366 30.9597 53.2366C30.6714 51.8394 29.6845 50.6086 28.365 50.0541C27.0676 49.4775 25.4819 49.5884 24.2732 50.3535Z" fill="#4DF189"/>
<path d="M0 12.4189C6.79738 12.4189 13.6058 12.4189 20.4032 12.4189C20.4032 13.0066 20.4032 13.6054 20.4032 14.1931C13.6058 14.1931 6.79738 14.1931 0 14.1931C0 13.6054 0 13.0177 0 12.4189Z" fill="#4DF189"/>
<path d="M8.20508 7.9834C11.456 7.9834 14.7122 7.9834 17.9631 7.9834C17.9631 8.5711 17.9631 9.16989 17.9631 9.75759C14.7122 9.75759 11.456 9.75759 8.20508 9.75759C8.20508 9.16989 8.20508 8.58219 8.20508 7.9834Z" fill="#4DF189"/>
<path d="M0.886719 3.54785C7.09302 3.54785 13.3095 3.54785 19.5158 3.54785C19.5158 4.13555 19.5158 4.73434 19.5158 5.32205C13.3095 5.32205 7.09302 5.32205 0.886719 5.32205C0.886719 4.73434 0.886719 4.14664 0.886719 3.54785Z" fill="#4DF189"/>
<path d="M1.77344 19.5156C4.73412 19.5156 7.68372 19.5156 10.6444 19.5156C10.6444 20.1033 10.6444 20.7021 10.6444 21.2898C7.68372 21.2898 4.73412 21.2898 1.77344 21.2898C1.77344 20.7021 1.77344 20.1144 1.77344 19.5156Z" fill="#4DF189"/>
</g>
<defs>
<clipPath id="clip0_613_2698">
<rect width="55" height="55" fill="white"/>
</clipPath>
</defs>
</svg>
