<svg width="89" height="60" viewBox="0 0 89 60" fill="none" xmlns="http://www.w3.org/2000/svg">
<path d="M86.5917 5.72681C84.9148 3.06447 82.0677 1.4729 78.1268 1.00458C73.3398 0.43504 69.7524 0.213056 65.3296 0.213056C64.7751 0.213056 64.0578 0.174029 63.2381 0.128905C59.5748 -0.0674509 54.0466 -0.367455 51.5331 2.03756C50.6531 2.88151 50.2059 3.97304 50.2167 5.15362C49.8033 7.93916 49.9588 10.6626 50.1095 13.298C50.1938 14.7737 50.2806 16.2982 50.265 17.8033C50.2565 18.6289 50.2143 19.4436 50.1734 20.2522C50.0311 23.017 49.8865 25.8771 51.0738 28.7844C53.58 34.9226 59.2155 34.3213 64.1771 33.7896L65.0692 33.6919C65.925 33.6919 67.8405 33.1786 67.8984 33.1321C68.1093 33.075 68.5891 33.1761 69.357 33.4334C68.8832 37.6982 67.5464 40.8803 65.0727 43.6718C64.3121 44.5279 63.1476 45.4024 61.9158 46.3294C59.5013 48.144 56.7638 50.2002 56.1562 52.9312C55.7885 54.5871 56.4069 56.2057 57.8932 57.4876C59.6905 59.0365 62.7079 60 65.1224 60C65.9674 60 66.7401 59.8829 67.3573 59.6291C68.9919 59.217 72.0609 58.1935 74.256 55.9715C83.6585 45.8976 88.2319 33.5189 88.2319 18.1281L88.2273 15.0681C88.6031 11.1973 88.0535 8.05296 86.5914 5.72603L86.5917 5.72681Z" fill="#4DF189"/>
<path d="M36.7147 5.72681C35.0378 3.06447 32.1907 1.4729 28.2499 1.00458C23.4629 0.43504 19.8755 0.213056 15.4527 0.213056C14.8982 0.213056 14.181 0.174029 13.3611 0.128905C9.69771 -0.0674509 4.16951 -0.367455 1.656 2.03756C0.776191 2.88151 0.329035 3.97304 0.339836 5.15362C-0.0736831 7.93916 0.0818518 10.6626 0.232447 13.298C0.317002 14.7737 0.403717 16.2982 0.387979 17.8033C0.379646 18.6289 0.33737 19.4436 0.296326 20.2522C0.154064 23.017 0.00964037 25.8771 1.19681 28.7844C3.70292 34.9226 9.3385 34.3213 14.3001 33.7896L15.1923 33.6919C16.048 33.6919 17.9635 33.1786 18.0215 33.1321C18.2322 33.075 18.7121 33.1761 19.4799 33.4334C19.0062 37.6982 17.6694 40.8803 15.1957 43.6718C14.4353 44.5279 13.2706 45.4024 12.0387 46.3294C9.62426 48.144 6.8867 50.2002 6.27908 52.9312C5.91154 54.5871 6.52997 56.2057 8.01617 57.4876C9.81374 59.0365 12.8309 60 15.2453 60C16.0906 60 16.8633 59.8829 17.4805 59.6291C19.1148 59.217 22.1841 58.1935 24.3792 55.9715C33.7818 45.8976 38.3552 33.5189 38.3552 18.1281L38.3502 15.0681C38.7264 11.1973 38.1765 8.05296 36.7144 5.72603L36.7147 5.72681Z" fill="#4DF189"/>
</svg>
