<svg width="279" height="279" viewBox="0 0 279 279" fill="none" xmlns="http://www.w3.org/2000/svg">
<g clip-path="url(#clip0_1231_13189)">
<path d="M2.85745 226.601C1.54917 226.154 0.59359 224.801 0.614356 223.299L31.1029 92.6062C31.4556 91.6998 32.1 90.9556 32.8948 90.576L39.3838 87.3817C47.1975 83.5548 55.0111 79.7279 62.8248 75.901L63.4097 75.6137L63.5555 74.9886C66.6283 61.8166 69.7011 48.6446 72.774 35.4725L76.253 20.5591C76.3259 20.2466 76.3988 19.934 76.4822 19.5768C76.7217 18.5498 76.8958 17.6018 77.4644 16.9811C78.2397 16.0791 79.5123 15.6698 80.7178 15.951C80.7625 15.9614 80.8071 15.9718 80.8964 15.9927L80.9857 16.0135C83.3522 16.5656 85.6741 17.1072 88.0406 17.6593L97.4173 19.8467C99.3373 20.2946 101.213 20.7321 103.133 21.18L104.427 21.4821L104.774 20.1976C104.93 19.5278 105.097 18.8134 105.253 18.1437C105.503 17.072 105.688 16.0793 106.051 15.1282C106.532 13.875 107.956 13.2186 109.145 13.1664L110.217 13.4164C111.36 13.9656 112.37 15.2842 112.182 16.6996C112.052 17.6581 111.778 18.63 111.539 19.657C111.382 20.3268 111.226 20.9965 111.07 21.6663L110.813 22.9716C110.813 22.9716 121.216 25.3986 125.547 26.409C130.012 27.4506 134.522 28.5027 138.987 29.5443L140.282 29.8464L140.629 28.5619C140.785 27.8922 140.952 27.1777 141.108 26.508C141.368 25.3917 141.574 24.3097 141.937 23.3586C142.431 22.2497 143.732 21.5174 145.089 21.5516L146.027 21.7703C147.259 22.3403 148.091 23.6173 148.044 24.8303C147.938 25.8885 147.654 26.9051 147.393 28.0213C147.237 28.6911 147.081 29.3609 146.914 30.0753L146.623 31.3255L147.917 31.6276C152.874 32.7838 157.785 33.9296 162.742 35.0858C166.76 36.0233 170.779 36.9607 174.797 37.8982L176.092 38.2003L176.439 36.9158C176.595 36.246 176.751 35.5763 176.908 34.9065C177.137 33.9242 177.356 32.9865 177.629 32.0146C178.031 30.6959 179.573 29.7374 181.044 29.8921L181.803 30.0692C183.08 30.6495 183.877 31.8714 183.819 33.1291C183.714 34.1873 183.474 35.2143 183.169 36.3201C183.013 36.9899 182.857 37.6597 182.69 38.3741L182.433 39.6794L183.728 39.9815C188.193 41.0231 192.702 42.0751 197.167 43.1168C201.633 44.1584 206.142 45.2104 210.607 46.2521L211.858 46.5437L212.239 45.3143C212.471 44.521 212.648 43.762 212.78 42.9925C213.027 41.7319 213.264 40.5159 213.871 39.5276C214.426 38.7625 215.441 38.246 216.63 38.1939L217.702 38.4439C218.924 39.0585 219.711 40.3251 219.674 41.4934C219.548 42.6409 219.243 43.7468 218.961 44.9524C218.836 45.4882 218.701 46.0686 218.576 46.6044L218.274 47.8993L219.558 48.246C222.316 48.9365 225.298 49.6791 229.093 50.5644C230.879 50.9811 232.665 51.3977 234.451 51.8144C236.237 52.2311 238.023 52.6477 239.809 53.0644C242.399 53.6685 244.542 54.1685 246.541 54.6819C247.702 54.9527 248.641 55.9722 248.838 57.148C248.983 57.9353 248.786 58.7837 248.577 59.6767C248.494 60.0339 248.411 60.3911 248.338 60.7036L244.525 77.0459C241.567 89.7267 238.609 102.408 235.651 115.088L235.505 115.714L235.902 116.23C240.376 122.076 244.906 127.888 249.38 133.734L254.217 140.041C254.467 140.382 254.762 140.733 255.012 141.074C256.181 142.524 257.168 143.743 256.913 145.237L226.435 275.886C225.834 277.252 224.368 278.087 222.942 277.943L2.85745 226.601ZM221.464 269.547C226.419 248.104 231.547 226.325 236.463 205.25C240.536 187.791 244.609 170.333 248.681 152.874L249.296 150.24L246.788 151.302C234.548 156.545 222.308 161.787 210.068 167.03C196.315 172.908 182.042 178.995 168.058 185.054C159.595 188.636 150.967 192.32 142.649 195.888C137.468 198.116 132.287 200.344 127.107 202.573L127.051 202.607L126.996 202.641C126.246 203.031 125.325 203.146 124.477 202.948C123.852 202.802 123.313 202.488 122.905 202.016C118.463 196.837 114.067 191.668 109.615 186.534C104.323 180.356 98.8504 173.947 93.4013 167.638C77.3113 148.819 60.9163 129.693 45.0868 111.17L35.9092 100.46L35.2946 103.094C26.222 141.985 17.1494 180.876 8.07676 219.767L7.76428 221.107L34.0637 227.242L128.902 249.366C165.159 257.824 195.075 264.803 221.161 270.842L221.464 269.547ZM88.983 24.5175C87.197 24.1009 85.411 23.6842 83.6696 23.278L82.3301 22.9655L82.0176 24.305C79.2885 36.0036 76.549 47.7468 73.8199 59.4453C69.3513 78.6006 64.7161 98.4702 60.1745 117.938L60.0183 118.608L60.4604 119.135C73.0614 133.939 85.9438 148.949 98.3736 163.478C107.257 173.837 116.434 184.546 125.454 195.125L126.122 195.893L127.062 195.5C138.837 190.432 150.602 185.408 162.412 180.395C180.971 172.483 200.126 164.24 218.961 156.157L219.59 155.88L219.747 155.211C224.455 135.028 229.257 114.444 233.892 94.5747C236.465 83.5459 239.027 72.5617 241.6 61.533L241.912 60.1934L240.573 59.881C238.34 59.3601 236.152 58.8497 233.92 58.3289L223.07 55.7978C221.418 55.4123 216.953 54.3707 216.953 54.3707L216.537 55.545C216.261 56.3279 216.107 57.1867 215.964 58.0008C215.634 59.6187 215.39 61.0684 214.336 61.9525C213.624 62.5866 212.582 62.8143 211.555 62.5747C210.662 62.3664 209.897 61.8113 209.507 61.0612L209.472 61.0061C208.73 59.75 209.173 58.2527 209.624 56.5217C209.856 55.7284 210.044 54.9247 210.187 54.1106L210.378 52.8842L192.25 48.6551C188.946 47.8843 185.597 47.1031 182.293 46.3323L181.087 46.0511L180.717 47.2358C180.44 48.0187 180.297 48.8328 180.154 49.647C179.824 51.2648 179.58 52.7145 178.581 53.5644C177.869 54.1984 176.816 54.4708 175.745 54.2209C174.852 54.0125 174.131 53.4678 173.776 52.7728L173.652 52.6969C172.909 51.4408 173.308 49.933 173.814 48.1678C174.046 47.3745 174.234 46.5708 174.377 45.7567L174.568 44.5303C174.568 44.5303 164.388 42.1554 159.878 41.1033C155.413 40.0617 145.233 37.6868 145.233 37.6868L144.862 38.8715C144.585 39.6544 144.432 40.5132 144.3 41.2826C143.993 43.0002 143.705 44.4395 142.562 45.3028L142.506 45.337C141.814 45.8818 140.872 46.0857 139.89 45.8565C138.952 45.6378 138.187 45.0827 137.808 44.2879L137.773 44.2329C137.12 42.9976 137.519 41.4898 137.959 39.8035C138.191 39.0102 138.379 38.2065 138.522 37.3924L138.714 36.166L137.508 35.8847C134.517 35.1868 131.525 34.4889 128.533 33.7911L109.378 29.3225L109.008 30.5072C108.731 31.2901 108.577 32.1489 108.445 32.9183C108.104 34.5808 107.86 36.0305 106.817 36.87C106.104 37.5041 105.073 37.6872 104.09 37.458C103.153 37.2393 102.432 36.6946 102.042 35.9445L102.008 35.8894C101.31 34.6437 101.709 33.136 102.194 31.4601C102.426 30.6668 102.624 29.8184 102.767 29.0043L102.914 27.7674C102.914 27.7674 99.0741 26.8716 97.7793 26.5696L88.983 24.5175ZM233.021 126.763C231.084 135.068 229.178 143.239 227.573 150.116L226.959 152.75L234.802 149.401C238.889 147.624 243.01 145.901 247.097 144.124L248.721 143.42L247.632 142.036C246.405 140.432 245.134 138.817 243.918 137.168C241.136 133.553 238.286 129.827 235.414 126.192L233.667 123.995L233.021 126.763ZM56.9448 85.97C51.691 88.5108 46.2721 91.1544 40.9425 93.8188L39.3425 94.6226L40.4871 95.9724C43.3523 99.2303 46.1967 102.577 48.9622 105.859C50.2884 107.44 51.625 108.976 52.9512 110.556L54.7299 112.619L55.3445 109.985C57.1673 102.171 58.9798 94.4013 60.7922 86.6321L61.4484 83.8191L56.9448 85.97Z" fill="#2A5339"/>
<path d="M220.851 83.6703C220.807 83.6599 220.717 83.6391 220.673 83.6287L220.628 83.6183C220.628 83.6183 177.406 73.5353 155.84 68.5042C134.273 63.4731 91.0512 53.3901 91.0512 53.3901L91.0065 53.3797C90.9619 53.3693 90.8726 53.3484 90.8279 53.338C89.2205 52.963 88.0699 51.2351 88.3794 49.7066L88.4003 49.6173C88.61 48.1125 90.0701 46.8995 91.606 46.9753C92.0734 46.9902 92.5645 47.1047 92.9664 47.1985C93.145 47.2401 93.8594 47.4068 94.038 47.4485L94.3506 47.5214C115.604 52.4796 136.903 57.4481 158.201 62.4167C179.5 67.3853 200.798 72.3539 222.097 77.3225L222.142 77.3329L222.186 77.3433C222.231 77.3537 222.32 77.3746 222.365 77.385C223.972 77.76 225.112 79.5325 224.748 81.0953L224.727 81.1846C224.595 81.9541 224.094 82.6849 223.368 83.1746C222.587 83.6985 221.7 83.8683 220.851 83.6703Z" fill="#2A5339"/>
<path d="M150.101 92.4947C150.146 92.5052 150.28 92.5364 150.369 92.5572C151.862 99.0731 153.4 105.599 154.938 112.126C161.283 114.595 167.617 117.108 173.962 119.577C168.146 123.117 162.296 126.601 156.479 130.141C156.075 136.92 155.67 143.7 155.255 150.524C150.125 146.078 144.96 141.578 139.819 137.177C133.251 138.893 126.673 140.654 120.07 142.316C122.707 136.057 125.344 129.798 127.992 123.495C124.342 117.747 120.682 112.044 116.988 106.286C123.781 106.835 130.587 107.528 137.356 107.977C141.623 102.805 145.879 97.6774 150.101 92.4947Z" fill="#4DF189"/>
<path d="M7.76291 221.107C35.4067 203.921 66.0955 185.186 93.7288 168.045C103.585 179.478 112.41 189.681 122.211 201.149C123.617 202.795 126.145 203.055 127.976 202.07C141.63 196.215 154.313 190.888 167.957 185.078C185.142 212.722 203.909 243.277 221.095 270.921C150.903 254.546 77.9988 237.492 7.76291 221.107Z" fill="#4DF189"/>
</g>
<defs>
<clipPath id="clip0_1231_13189">
<rect width="232" height="232" fill="white" transform="translate(52.707) rotate(13.1313)"/>
</clipPath>
</defs>
</svg>
