<svg width="373" height="263" viewBox="0 0 373 263" fill="none" xmlns="http://www.w3.org/2000/svg">
<path d="M256.772 115.954L241.249 107.363L246.073 115.42L231.927 107.843L232.698 106.403L241.626 111.176L236.708 102.983L255.832 113.57L259.023 103.801L238.074 96.9932L238.571 95.4331L261.094 102.754L256.772 115.954Z" fill="#2A5339"/>
<path d="M97.4053 262.641C1.45887 262.641 0.486289 262.144 0 261.904L0.732165 260.437C0.693604 260.418 0.653346 260.404 0.611959 260.393C5.66062 261.484 246.406 260.857 373 260.355V261.991C372.071 261.991 279.518 262.357 187.773 262.537C150.87 262.608 121.206 262.641 97.4053 262.641Z" fill="#2A5339"/>
<path d="M273.523 214.856L244.805 214.671L240.461 214.643L232.91 220.938L235.522 224.991L242.019 235.083L249.75 230.119L248.209 226.9L253.476 227.724L273.523 214.856ZM245.384 224.806L247.646 229.524L242.51 232.797L236.658 223.704L235.074 221.244L241.051 216.264H243.341L267.999 216.422L253.116 225.973L245.384 224.806Z" fill="#2A5339"/>
<path d="M171.114 143.125L164.011 194.946L154.176 244.04L117.568 240.767L138.604 183.218L143.795 120.76L187.506 118.578L221.929 159.489L254.712 203.674L225.754 235.857L203.898 173.672L171.114 143.125Z" fill="#2A5339"/>
<path d="M140.116 242.785L139.149 242.13L128.462 241.356V241.721L127.916 258.288L137.1 258.599L137.647 255.08L141.51 258.751L165.453 259.586L140.116 242.785ZM136.51 251.769L135.685 256.935L129.582 256.728L130.041 243.129L138.603 243.767L159.726 257.764L142.176 257.169L136.51 251.769Z" fill="#2A5339"/>
<path d="M186.139 27.2094C186.135 24.4135 184.353 21.9287 181.702 21.0247C179.052 20.1206 176.119 20.9967 174.402 23.2055C172.887 22.2039 170.972 22.0199 169.294 22.7146C168.108 22.1134 166.695 22.1701 165.561 22.8644C164.428 23.5587 163.737 24.7909 163.737 26.1184C163.737 26.4389 163.779 26.7581 163.863 27.0676C162.001 27.8248 160.706 29.5415 160.491 31.537C160.277 33.5325 161.177 35.4845 162.835 36.619C161.726 37.4737 161.283 38.9377 161.734 40.2623C162.184 41.587 163.428 42.4793 164.83 42.483C165.158 42.4846 165.484 42.4349 165.797 42.3357L165.332 49.0506L165.218 50.687L165.021 53.4908C164.853 54.447 165.086 55.4299 165.664 56.2103C166.242 56.9907 167.116 57.5003 168.081 57.6202L176.222 58.6402C176.373 58.6482 176.524 58.6482 176.675 58.6402C177.827 58.6391 178.906 58.08 179.569 57.1409C180.233 56.2018 180.399 54.9995 180.014 53.9163L179.101 51.3198L178.489 49.607L177.719 47.425C178.525 47.2409 179.267 46.8476 179.872 46.285C183.407 43.0284 182.642 36.5754 181.97 33.3079C184.485 32.3261 186.14 29.9054 186.139 27.2094ZM178.489 54.4836C178.714 55.1074 178.597 55.8027 178.181 56.3192C177.765 56.8357 177.11 57.0992 176.451 57.0147L168.305 55.9946C167.782 55.9285 167.309 55.6498 166.999 55.2243C166.689 54.7989 166.568 54.2644 166.666 53.7472L167.458 42.4284C168.878 43.8521 172.55 47.185 176.031 47.5069L178.489 54.4836ZM180.391 33.6843C181.003 36.6735 181.68 42.412 178.752 45.0522C178.313 45.4684 177.759 45.7439 177.162 45.8431C176.913 45.8836 176.66 45.8964 176.408 45.8813C173.162 45.7286 169.305 41.9429 168.332 40.9338L168.583 36.8808C169.998 36.1075 170.998 34.7499 171.315 33.1715H171.425C172.72 33.1708 173.973 32.7107 174.96 31.8733H175.075C176.276 33.0603 177.892 33.7351 179.582 33.7552C179.845 33.7528 180.108 33.7364 180.369 33.7061L180.391 33.6843Z" fill="#2A5339"/>
<path d="M115.021 129.624L114.781 131.326L113.606 139.487L113.535 139.983L113.262 139.383L109.656 131.49L108.88 138.019L108.683 139.672L107.88 146.414L93.5317 141.434L95.9031 135.696L96.526 134.174H96.5314L100.487 124.59L101.116 123.073L101.187 122.893L102.7 123.52L102.596 123.771L101.968 125.288L98.0996 134.665L97.4712 136.187L95.7064 140.452L106.492 144.2L107.099 139.176L107.29 137.523L108.383 128.31L108.59 126.591L108.721 125.49L109.404 126.973L110.454 129.286L112.705 134.223L113.229 130.595L113.47 128.893L115.021 129.624Z" fill="#2A5339"/>
<path d="M212.158 80.5578L188.691 51.5162L188.494 51.2707L178.479 49.6343H178.353L178.08 51.2707L179.102 51.4398L187.609 52.8581L211.208 82.0578L241.434 90.7856L227.118 114.241L201.689 98.9079L189.303 85.4671C189.275 80.5305 189.39 75.7357 189.74 71.3554L188.101 71.2245C187.205 82.4779 187.849 96.3168 188.423 108.552C188.576 111.765 188.718 114.82 188.833 117.765C185.849 117.727 177.167 118.191 162.95 119.184C157.311 119.576 151.088 120.034 145.87 120.438C142.559 120.695 140.608 120.847 139.444 120.984C141.286 114.503 150.241 83.007 154.437 69.2281L159.251 60.7076L157.82 59.9003L156.071 62.9986L152.929 68.568L140.876 89.9292L119.381 131.768L115.01 129.711L113.469 128.893L109.398 126.973L108.59 126.591L102.579 123.771L101.099 123.073L100.006 122.566L123.501 87.3872L149.673 52.2635L165.19 50.7089L165.704 50.6598L165.54 49.0233H165.305L148.788 50.6598L122.211 86.4435L97.6235 123.215L100.492 124.567L101.995 125.287L108.409 128.309L110.48 129.286L113.256 130.595L114.808 131.326L120.146 133.841L142.351 90.6165L150.831 75.6048C145.996 91.9257 138.712 117.607 137.674 121.262C137.646 121.285 137.622 121.313 137.603 121.344L137.281 121.753L137.516 122.216C137.667 122.516 137.984 122.694 138.319 122.669H138.379H138.98V122.587C139.865 122.489 141.51 122.342 143.684 122.167C155.241 121.235 181.691 119.44 188.15 119.353C188.605 119.33 189.062 119.343 189.516 119.391L190.554 119.631L190.516 118.54C190.395 115.305 190.237 111.956 190.073 108.41C189.762 101.804 189.428 94.7185 189.33 87.84L200.646 100.119L227.665 116.429L232.659 108.247L233.511 106.85L239.276 97.3969L240.15 95.9568L243.947 89.7328L212.158 80.5578Z" fill="#2A5339"/>
<path d="M120.135 150.898L122.801 142.35L113.606 139.487L113.261 139.383L108.89 138.019L107.3 137.523L107.104 139.159L108.694 139.656L120.758 143.409L118.572 150.396L85.8326 140.147L88.0182 133.219L95.9299 135.679L97.4981 136.17L98.1264 134.648L96.5583 134.157L86.9472 131.168L84.2972 139.661L74.1944 136.497L61.5127 176.863L119.572 195.039L132.254 154.646L120.135 150.898ZM118.463 193.037L63.5343 175.832L75.2217 138.565L83.7618 141.238L85.3245 141.729L118.059 151.973L119.627 152.464L130.15 155.737L118.463 193.037Z" fill="#2A5339"/>
<path d="M264 261.222H313.175C313.175 261.222 325.196 247.04 314.268 248.131C303.34 249.222 290.773 252.495 295.144 244.858C299.516 237.221 321.371 220.857 307.165 221.947C292.959 223.038 283.124 232.857 282.031 238.312C280.938 243.767 274.382 235.585 267.825 236.676C261.268 237.767 262.907 243.221 267.825 248.131C272.742 253.04 251.979 251.404 264 261.222Z" fill="#2A5339"/>
<path d="M126.179 0.957545L87.0425 9.72046L95.8416 48.814L134.979 40.0511L126.179 0.957545Z" fill="#4DF189"/>
<path d="M114.239 44.5996L110.414 23.6312L91.0665 27.1441L79.6797 29.2061L85.2256 59.6986L115.993 54.1238L114.239 44.5996ZM86.5205 57.7949L81.5647 30.5207L91.3998 28.737L109.097 25.535L112.633 44.9597L114.059 52.8037L86.5205 57.7949Z" fill="#2A5339"/>
</svg>
