<svg width="22" height="22" viewBox="0 0 22 22" fill="none" xmlns="http://www.w3.org/2000/svg">
<path d="M2.8525 12.0187H8.96361C9.23374 12.0187 9.49281 11.9114 9.68381 11.7204C9.87482 11.5294 9.98213 11.2703 9.98213 11.0002V2.85201C9.98213 2.58189 9.87482 2.32282 9.68381 2.13181C9.49281 1.9408 9.23374 1.8335 8.96361 1.8335H2.8525C2.58237 1.8335 2.32331 1.9408 2.1323 2.13181C1.94129 2.32282 1.83398 2.58189 1.83398 2.85201V11.0002C1.83398 11.2703 1.94129 11.5294 2.1323 11.7204C2.32331 11.9114 2.58237 12.0187 2.8525 12.0187ZM1.83398 19.1483C1.83398 19.4184 1.94129 19.6775 2.1323 19.8685C2.32331 20.0595 2.58237 20.1668 2.8525 20.1668H8.96361C9.23374 20.1668 9.49281 20.0595 9.68381 19.8685C9.87482 19.6775 9.98213 19.4184 9.98213 19.1483V15.0742C9.98213 14.8041 9.87482 14.545 9.68381 14.354C9.49281 14.163 9.23374 14.0557 8.96361 14.0557H2.8525C2.58237 14.0557 2.32331 14.163 2.1323 14.354C1.94129 14.545 1.83398 14.8041 1.83398 15.0742V19.1483ZM12.0192 19.1483C12.0192 19.4184 12.1265 19.6775 12.3175 19.8685C12.5085 20.0595 12.7676 20.1668 13.0377 20.1668H19.1488C19.4189 20.1668 19.678 20.0595 19.869 19.8685C20.06 19.6775 20.1673 19.4184 20.1673 19.1483V12.0187C20.1673 11.7486 20.06 11.4895 19.869 11.2985C19.678 11.1075 19.4189 11.0002 19.1488 11.0002H13.0377C12.7676 11.0002 12.5085 11.1075 12.3175 11.2985C12.1265 11.4895 12.0192 11.7486 12.0192 12.0187V19.1483ZM13.0377 8.96313H19.1488C19.4189 8.96313 19.678 8.85582 19.869 8.66481C20.06 8.4738 20.1673 8.21473 20.1673 7.94461V2.85201C20.1673 2.58189 20.06 2.32282 19.869 2.13181C19.678 1.9408 19.4189 1.8335 19.1488 1.8335H13.0377C12.7676 1.8335 12.5085 1.9408 12.3175 2.13181C12.1265 2.32282 12.0192 2.58189 12.0192 2.85201V7.94461C12.0192 8.21473 12.1265 8.4738 12.3175 8.66481C12.5085 8.85582 12.7676 8.96313 13.0377 8.96313Z" fill="#4DF189"/>
</svg>
