<svg width="156" height="146" viewBox="0 0 156 146" fill="none" xmlns="http://www.w3.org/2000/svg">
<path d="M106.77 124.865L107.263 124.946L106.77 124.866L104.144 140.92C103.415 145.378 97.8635 147.072 94.7512 143.777L82.716 131.037C80.1589 128.331 75.8411 128.331 73.284 131.037L61.2488 143.777C58.1365 147.072 52.5845 145.378 51.8556 140.92L49.2304 124.866L48.737 124.946L49.2304 124.865C48.6142 121.099 44.8703 118.689 41.1725 119.67L41.3007 120.153L41.1725 119.67L24.128 124.192C19.6126 125.39 15.7708 120.775 17.7735 116.585L24.3931 102.739C26.1171 99.1322 24.1693 94.8518 20.3157 93.7614L4.48013 89.2814C-0.106659 87.9837 -0.949192 81.8788 3.11102 79.3961L16.6002 71.1491C20.0584 69.0346 20.7353 64.3082 18.0055 61.3154L7.62788 49.9379C4.45111 46.4549 6.90249 40.8638 11.637 40.8252L28.7751 40.6864C32.6946 40.6547 35.6912 37.1876 35.1316 33.318L32.8899 17.81C32.2361 13.287 37.1354 10.0123 41.0964 12.343C41.0964 12.343 41.0964 12.343 41.0964 12.3431L56.4191 21.3611L56.6727 20.9302L56.4191 21.3611C59.6532 23.2644 63.8309 22.0366 65.5081 18.6859L65.061 18.4621L65.5081 18.6859L73.0992 3.51947C75.1143 -0.506492 80.8857 -0.506491 82.9008 3.51947L90.4919 18.6859L90.939 18.4621L90.4919 18.6859C92.1691 22.0366 96.3468 23.2644 99.5809 21.3611L99.3273 20.9302L99.5809 21.3611L114.904 12.343C118.865 10.0122 123.764 13.287 123.11 17.81L120.868 33.318C120.309 37.1876 123.305 40.6547 127.225 40.6864L144.363 40.8252C149.098 40.8638 151.549 46.4549 148.372 49.9379L137.995 61.3154C135.265 64.3082 135.942 69.0346 139.4 71.1491L152.889 79.3961C156.949 81.8788 156.107 87.9837 151.52 89.2814L135.684 93.7614C131.831 94.8518 129.883 99.1322 131.607 102.738L138.227 116.585C140.229 120.775 136.387 125.39 131.872 124.192L114.827 119.67C111.13 118.689 107.386 121.099 106.77 124.865Z" fill="#FFF7D6" stroke="#2A5339"/>
</svg>
