<svg width="22" height="26" viewBox="0 0 22 26" fill="none" xmlns="http://www.w3.org/2000/svg">
<path d="M15.3944 0.962893C15.9054 0.961693 16.3095 1.35872 16.3107 1.88808L16.3119 2.79041C19.6277 3.05028 21.818 5.3097 21.8215 8.77463L21.8346 18.9168C21.8394 22.6945 19.466 25.0189 15.6618 25.0249L6.36932 25.037C2.58886 25.0418 0.185811 22.662 0.181058 18.8735L0.167977 8.85043C0.163231 5.36264 2.2763 3.10923 5.59207 2.80484L5.59088 1.90252C5.58969 1.37315 5.98188 0.974927 6.5048 0.974927C7.02772 0.973724 7.41991 1.37075 7.4211 1.90011L7.42229 2.74228L14.4817 2.73266L14.4805 1.89049C14.4793 1.36112 14.8715 0.964099 15.3944 0.962893ZM15.8793 18.0457H15.8674C15.3207 18.059 14.8822 18.5173 14.8941 19.0708C14.8953 19.6242 15.3362 20.0802 15.8829 20.0922C16.4402 20.091 16.8919 19.6326 16.8907 19.0672C16.8907 18.5017 16.4379 18.0457 15.8793 18.0457ZM6.08647 18.0469C5.53978 18.071 5.11194 18.5294 5.11312 19.0828C5.13808 19.6362 5.5897 20.0693 6.13638 20.0441C6.67237 20.02 7.09903 19.5616 7.07407 19.0082C7.06218 18.4668 6.62127 18.0457 6.08647 18.0469ZM10.9829 18.0409C10.4362 18.0662 10.0095 18.5234 10.0095 19.0768C10.0345 19.6302 10.4861 20.0621 11.0328 20.0381C11.5676 20.0128 11.9954 19.5556 11.9705 19.001C11.9586 18.4608 11.5177 18.0397 10.9829 18.0409ZM6.08053 13.7158C5.53384 13.7398 5.10718 14.1982 5.10837 14.7516C5.13214 15.3051 5.58494 15.7382 6.13163 15.7129C6.66643 15.6889 7.09308 15.2305 7.06813 14.677C7.05624 14.1357 6.61652 13.7146 6.08053 13.7158ZM10.9781 13.6737C10.4314 13.6977 10.0036 14.1561 10.0048 14.7095C10.0286 15.263 10.4814 15.6949 11.028 15.6708C11.5628 15.6455 11.9895 15.1884 11.9657 14.6349C11.9527 14.0935 11.5129 13.6725 10.9781 13.6737ZM15.8745 13.6797C15.3279 13.6917 14.9 14.1369 14.9012 14.6903V14.7035C14.9131 15.2569 15.3647 15.6768 15.9126 15.6648C16.4474 15.6516 16.874 15.1932 16.8621 14.6398C16.8372 14.1104 16.4082 13.6785 15.8745 13.6797ZM14.4841 4.58543L7.42466 4.59506L7.42585 5.56837C7.42585 6.0869 7.03485 6.49596 6.51193 6.49596C5.98901 6.49716 5.59564 6.08931 5.59564 5.57077L5.59445 4.64439C3.27697 4.87658 1.99463 6.23849 1.99819 8.84802L1.99939 9.22219L19.9925 9.19812V8.77704C19.9414 6.19037 18.6436 4.83327 16.3143 4.63115L16.3155 5.55754C16.3155 6.07487 15.9126 6.48513 15.4015 6.48513C14.8786 6.48633 14.4852 6.07728 14.4852 5.55995L14.4841 4.58543Z" fill="#1C2436"/>
</svg>
