<svg width="14" height="15" viewBox="0 0 14 15" fill="none" xmlns="http://www.w3.org/2000/svg">
<path fill-rule="evenodd" clip-rule="evenodd" d="M9.52916 0.666748C9.80516 0.666748 10.0292 0.890748 10.0292 1.16675L10.0295 1.73196C11.0029 1.79869 11.8113 2.13211 12.3835 2.70548C13.0082 3.33281 13.3368 4.23481 13.3335 5.31681V11.3988C13.3335 13.6201 11.9228 15.0001 9.65283 15.0001H4.01416C1.74416 15.0001 0.333496 13.6008 0.333496 11.3481V5.31548C0.333496 3.22028 1.59153 1.87537 3.64329 1.73218L3.6437 1.16675C3.6437 0.890748 3.8677 0.666748 4.1437 0.666748C4.4197 0.666748 4.6437 0.890748 4.6437 1.16675L4.6435 1.71941H9.02883L9.02916 1.16675C9.02916 0.890748 9.25316 0.666748 9.52916 0.666748ZM12.3335 6.60275H1.3335V11.3481C1.3335 13.0588 2.2855 14.0001 4.01416 14.0001H9.65283C11.3815 14.0001 12.3335 13.0761 12.3335 11.3988L12.3335 6.60275ZM9.80096 10.7976C10.077 10.7976 10.301 11.0216 10.301 11.2976C10.301 11.5736 10.077 11.7976 9.80096 11.7976C9.52496 11.7976 9.2983 11.5736 9.2983 11.2976C9.2983 11.0216 9.51896 10.7976 9.79496 10.7976H9.80096ZM6.84263 10.7976C7.11863 10.7976 7.34263 11.0216 7.34263 11.2976C7.34263 11.5736 7.11863 11.7976 6.84263 11.7976C6.56663 11.7976 6.33996 11.5736 6.33996 11.2976C6.33996 11.0216 6.56063 10.7976 6.83663 10.7976H6.84263ZM3.8781 10.7976C4.1541 10.7976 4.3781 11.0216 4.3781 11.2976C4.3781 11.5736 4.1541 11.7976 3.8781 11.7976C3.6021 11.7976 3.37476 11.5736 3.37476 11.2976C3.37476 11.0216 3.5961 10.7976 3.8721 10.7976H3.8781ZM9.80096 8.20648C10.077 8.20648 10.301 8.43048 10.301 8.70648C10.301 8.98248 10.077 9.20648 9.80096 9.20648C9.52496 9.20648 9.2983 8.98248 9.2983 8.70648C9.2983 8.43048 9.51896 8.20648 9.79496 8.20648H9.80096ZM6.84263 8.20648C7.11863 8.20648 7.34263 8.43048 7.34263 8.70648C7.34263 8.98248 7.11863 9.20648 6.84263 9.20648C6.56663 9.20648 6.33996 8.98248 6.33996 8.70648C6.33996 8.43048 6.56063 8.20648 6.83663 8.20648H6.84263ZM3.8781 8.20648C4.1541 8.20648 4.3781 8.43048 4.3781 8.70648C4.3781 8.98248 4.1541 9.20648 3.8781 9.20648C3.6021 9.20648 3.37476 8.98248 3.37476 8.70648C3.37476 8.43048 3.5961 8.20648 3.8721 8.20648H3.8781ZM9.02883 2.71941H4.6435L4.6437 3.36075C4.6437 3.63675 4.4197 3.86075 4.1437 3.86075C3.8677 3.86075 3.6437 3.63675 3.6437 3.36075L3.64334 2.73455C2.14985 2.86001 1.3335 3.76532 1.3335 5.31548V5.60275H12.3335L12.3335 5.31548C12.3362 4.49215 12.1148 3.85215 11.6755 3.41215C11.2898 3.02535 10.7261 2.79435 10.0297 2.73487L10.0292 3.36075C10.0292 3.63675 9.80516 3.86075 9.52916 3.86075C9.25316 3.86075 9.02916 3.63675 9.02916 3.36075L9.02883 2.71941Z" fill="#454C5F"/>
</svg>
