<svg width="21" height="24" viewBox="0 0 21 24" fill="none" xmlns="http://www.w3.org/2000/svg">
<path d="M9.91407 0H10.3406C11.1188 0.01875 11.9063 0.107813 12.6563 0.323438C13.5141 0.567187 14.3297 0.998438 14.9672 1.62656C15.8672 2.50313 16.3594 3.72656 16.5281 4.95938C16.6125 5.59219 16.6406 6.23438 16.5703 6.87188C16.9688 7.06406 17.2406 7.48125 17.25 7.92188C17.2547 8.40938 17.2547 8.89219 17.25 9.375C17.2266 9.99375 16.6547 10.5187 16.0359 10.4953C15.5578 10.4953 15.075 10.4953 14.5969 10.4953C14.4188 11.6578 13.6359 12.6234 12.75 13.3594C12.75 13.95 12.75 14.5406 12.75 15.1312C14.3391 15.5812 15.9281 16.0219 17.5125 16.4766C18.6656 16.8234 19.5609 17.8828 19.7156 19.0781C19.8984 20.5781 20.0719 22.0734 20.2453 23.5734C20.2781 23.7703 20.1281 23.9484 19.9453 23.9953H19.8188C19.6406 23.9578 19.5047 23.8031 19.4953 23.6203C19.35 22.3734 19.2 21.1219 19.0547 19.875C18.9938 19.4109 18.9797 18.9234 18.7688 18.4922C18.4594 17.8078 17.8172 17.2969 17.0906 17.1328C16.3359 16.9172 15.5813 16.7062 14.8266 16.4953C14.1188 17.5547 13.4109 18.6187 12.7031 19.6828C12.6234 19.8094 12.4781 19.8891 12.3281 19.8656C12.1875 19.8469 12.0844 19.7344 11.9766 19.65C11.4844 19.2375 10.9922 18.8297 10.5 18.4219C10.5 19.2656 10.5 20.1094 10.5 20.9531C10.5141 21.1219 10.4063 21.2906 10.2422 21.3422C10.0172 21.4266 9.75001 21.2437 9.75001 21.0047C9.74063 20.1422 9.75001 19.2844 9.74532 18.4219C9.20157 18.8766 8.65782 19.3312 8.10938 19.7812C7.94063 19.9312 7.65001 19.875 7.54219 19.6828C6.83438 18.6234 6.12657 17.5594 5.41876 16.5C4.6172 16.725 3.82032 16.95 3.01876 17.175C2.29688 17.3766 1.68282 17.9344 1.41563 18.6328C1.26563 18.9984 1.24688 19.3969 1.20001 19.7812C1.05001 21.0609 0.900008 22.3406 0.750008 23.6203C0.74532 23.8031 0.61407 23.9484 0.440633 23.9953H0.318758C0.112508 23.9578 -0.0374923 23.7469 0.00469519 23.5406C0.178133 22.0688 0.35157 20.6016 0.525008 19.1297C0.665633 17.9016 1.58438 16.8141 2.77032 16.4672C4.34532 16.0219 5.92501 15.5812 7.50001 15.1359C7.50001 14.5406 7.50001 13.95 7.50001 13.3547C6.61876 12.6234 5.83126 11.6625 5.65782 10.5C5.14688 10.4953 4.63595 10.5047 4.12501 10.4953C3.54376 10.4719 3.03282 9.96094 3.00469 9.37969C2.99532 8.89219 3.00001 8.40938 3.00469 7.92188C3.00938 7.48125 3.28126 7.06406 3.6797 6.87656C3.57657 5.72344 3.69376 4.5375 4.10626 3.45C4.39688 2.68594 4.86095 1.98281 5.4797 1.44375C6.09376 0.904687 6.84376 0.539062 7.63126 0.31875C8.37188 0.103125 9.14063 0.0234375 9.91407 0ZM7.37813 1.19062C6.44532 1.5375 5.61563 2.18906 5.11876 3.06094C4.49063 4.16719 4.3172 5.49375 4.42501 6.75C4.5422 6.75 4.65938 6.75 4.77657 6.75C4.79532 6.21562 4.8422 5.68125 4.94063 5.15156C5.13751 4.07344 5.58751 2.99531 6.42657 2.25938C7.27032 1.50469 8.41407 1.19531 9.52032 1.13906C10.6875 1.08281 11.9063 1.2 12.9422 1.78125C13.7672 2.24062 14.3906 3.01406 14.7328 3.88594C15.0984 4.79063 15.2297 5.775 15.2578 6.74531C15.45 6.75 15.6422 6.75 15.8344 6.75C15.9234 5.79375 15.8297 4.80937 15.5156 3.89531C15.2016 2.97187 14.5875 2.14219 13.7531 1.62656C12.7031 0.965625 11.4375 0.764063 10.2188 0.75C9.25782 0.745313 8.28282 0.853125 7.37813 1.19062ZM8.07657 2.17031C7.36876 2.41406 6.74063 2.89688 6.3422 3.52969C5.73751 4.48125 5.56407 5.63906 5.53126 6.75C5.56407 6.75 5.62501 6.74531 5.65782 6.74531C5.75157 6.09375 6.04219 5.41406 6.62813 5.07187C7.18126 4.74375 7.86563 4.82344 8.45626 4.99687C8.84063 5.1 9.17813 5.32969 9.5672 5.42344C9.88595 5.5125 10.2281 5.54063 10.5516 5.45625C11.0203 5.37656 11.4141 5.09062 11.8688 4.97344C12.3516 4.84687 12.8859 4.76719 13.3641 4.95C13.9078 5.14687 14.3297 5.625 14.475 6.18281C14.4188 5.45625 14.2781 4.72969 13.9828 4.05937C13.7063 3.43125 13.2563 2.87344 12.675 2.5125C11.9859 2.08125 11.1703 1.9125 10.3641 1.87969C9.59063 1.85156 8.80313 1.9125 8.07657 2.17031ZM6.81563 5.87813C6.49688 6.20625 6.39845 6.67969 6.37501 7.125C6.37501 8.12344 6.37501 9.12656 6.37501 10.125C6.38438 10.8609 6.77345 11.5266 7.2422 12.0703C7.71563 12.6094 8.28751 13.0594 8.90626 13.4156C9.23907 13.6031 9.58595 13.7812 9.96563 13.8563C10.1531 13.9078 10.3453 13.8562 10.5281 13.8C10.875 13.6875 11.1984 13.5141 11.5078 13.3266C12.1406 12.9328 12.7172 12.4453 13.1813 11.8594C13.4484 11.5125 13.6688 11.1234 13.7906 10.7016C13.3219 10.875 12.8531 11.0531 12.3844 11.2266C12.375 11.475 12.3094 11.7234 12.1594 11.9203C11.9063 12.2719 11.4422 12.4453 11.025 12.3516C10.6688 12.2766 10.3547 12.0141 10.2234 11.6766C10.0734 11.3156 10.1344 10.875 10.3828 10.5703C10.6359 10.2422 11.0813 10.0734 11.4844 10.1672C11.7328 10.2094 11.9484 10.3547 12.1172 10.5328C12.7031 10.3031 13.2938 10.0922 13.8797 9.86719C13.875 8.95312 13.8797 8.03906 13.8797 7.12969C13.8609 6.76406 13.7906 6.38438 13.5891 6.07031C13.425 5.79844 13.1203 5.61094 12.8016 5.60625C12.3656 5.60625 11.9297 5.72344 11.5406 5.91562C11.2313 6.06562 10.9031 6.17344 10.5656 6.22969C9.92813 6.34687 9.27188 6.18281 8.69532 5.90156C8.37188 5.74219 8.01563 5.64844 7.6547 5.61094C7.35001 5.56875 7.02657 5.65313 6.81563 5.87813ZM3.75001 7.96406C3.75001 8.43281 3.74532 8.90625 3.75001 9.375C3.7922 9.56719 3.96095 9.73594 4.16251 9.74531C4.65001 9.75469 5.13751 9.74531 5.62032 9.75C5.62032 9 5.62032 8.25 5.62032 7.5C5.37188 7.5 5.11876 7.5 4.87032 7.5C4.63595 7.50469 4.40157 7.49531 4.16251 7.50469C3.93751 7.50938 3.74063 7.72969 3.75001 7.96406ZM14.625 7.5C14.625 8.25 14.625 9 14.625 9.75C15.0938 9.75 15.5672 9.75 16.0359 9.75C16.2563 9.75937 16.4531 9.59063 16.4953 9.37969C16.5 8.91094 16.5 8.4375 16.4953 7.96875C16.5047 7.73906 16.3125 7.51875 16.0781 7.50937C15.8438 7.5 15.6047 7.50938 15.3703 7.50469C15.1266 7.5 14.8781 7.5 14.625 7.5ZM11.1234 10.8984C10.9453 10.9594 10.8375 11.1609 10.8891 11.3391C10.9313 11.5359 11.1516 11.6672 11.3438 11.6109C11.5406 11.5641 11.6719 11.3484 11.6109 11.1516C11.5641 10.95 11.3203 10.8188 11.1234 10.8984ZM8.25001 13.8984C8.25001 14.3391 8.25001 14.7797 8.25001 15.2203C8.87345 15.8438 9.50157 16.4719 10.125 17.0953C10.1859 17.0344 10.2469 16.9781 10.3031 16.9172C10.8656 16.35 11.4328 15.7875 11.9953 15.225C11.9953 14.7844 11.9953 14.3484 11.9953 13.9078C11.4422 14.2922 10.7953 14.5547 10.125 14.625C9.73594 14.5828 9.35626 14.4703 8.99532 14.3203C8.73751 14.2031 8.48907 14.0625 8.25001 13.8984ZM7.34063 15.9656C6.95626 16.0734 6.57188 16.1859 6.18751 16.2891C6.70782 17.0719 7.23282 17.8547 7.75313 18.6375C7.82344 18.7359 7.88907 18.8391 7.95469 18.9422C8.50782 18.5109 9.03282 18.0469 9.57657 17.6063C8.99063 17.0109 8.40001 16.4203 7.80938 15.8344C7.65001 15.8812 7.49532 15.9188 7.34063 15.9656ZM10.6828 17.6016C11.2266 18.0469 11.7516 18.5063 12.3 18.9422C12.3656 18.8391 12.4313 18.7359 12.5016 18.6375C13.0219 17.8547 13.5469 17.0719 14.0672 16.2891C13.6828 16.1766 13.2984 16.0688 12.9141 15.9656C12.7641 15.9188 12.6094 15.8812 12.4594 15.8344C11.8594 16.4156 11.2734 17.0109 10.6828 17.6016Z" fill="#1C2436"/>
<path d="M9.80157 22.3125C9.88126 22.1672 10.0594 22.0922 10.2188 22.1344C10.3781 22.1719 10.5 22.3265 10.5 22.4906C10.5047 22.8656 10.5 23.2453 10.5047 23.6203C10.5047 23.8031 10.3688 23.9484 10.1953 23.9953H10.0734C9.89532 23.9578 9.7547 23.8031 9.7547 23.6203C9.7547 23.2922 9.7547 22.964 9.7547 22.6312C9.7547 22.5281 9.74064 22.4109 9.80157 22.3125Z" fill="#1C2436"/>
<path d="M8.07656 2.17031C8.80781 1.90781 9.59531 1.85156 10.3641 1.87969C11.1656 1.9125 11.9859 2.08125 12.675 2.5125C13.2609 2.87344 13.7062 3.43594 13.9828 4.05938C14.2828 4.72969 14.4187 5.45625 14.475 6.18281C14.3297 5.625 13.9078 5.14688 13.3641 4.95C12.8813 4.76719 12.3516 4.84688 11.8687 4.97344C11.4094 5.08594 11.0203 5.37188 10.5516 5.45625C10.2281 5.53594 9.88594 5.5125 9.56719 5.42344C9.17813 5.32969 8.84062 5.1 8.45625 4.99688C7.86562 4.82344 7.18125 4.74844 6.62812 5.07188C6.0375 5.41406 5.74687 6.09375 5.65781 6.74531C5.625 6.74531 5.56406 6.74531 5.53125 6.75C5.56875 5.63906 5.7375 4.48594 6.34219 3.52969C6.74063 2.89688 7.36875 2.41875 8.07656 2.17031Z" fill="#E7D6FF"/>
<path d="M6.81567 5.87812C7.02661 5.65312 7.35005 5.56874 7.65005 5.60624C7.28911 6.06093 7.12036 6.64687 7.12505 7.22343C7.12974 8.03437 7.12505 8.84531 7.12505 9.66093C7.12505 9.98906 7.10161 10.3172 7.1813 10.6406C7.32661 11.2922 7.68755 11.8734 8.12349 12.3703C8.5688 12.8531 9.06567 13.2891 9.63286 13.6266C9.75005 13.6969 9.85317 13.7766 9.96099 13.8609C9.5813 13.7859 9.23442 13.6078 8.90161 13.4203C8.28286 13.0594 7.71099 12.6094 7.23755 12.075C6.7688 11.5359 6.37974 10.8656 6.37036 10.1297C6.37036 9.13124 6.37036 8.12812 6.37036 7.12968C6.39849 6.67968 6.49692 6.20624 6.81567 5.87812Z" fill="#FFEFEB"/>
<path d="M7.64997 5.60155C8.01091 5.63905 8.36247 5.7328 8.6906 5.89218C9.26247 6.17343 9.92341 6.33749 10.5609 6.2203C10.8984 6.16874 11.2265 6.05624 11.5359 5.90624C11.925 5.71405 12.3609 5.59686 12.7968 5.59686C13.1203 5.60155 13.4203 5.78905 13.5843 6.06093C13.7859 6.37499 13.8609 6.75467 13.875 7.1203C13.8797 8.03436 13.875 8.94843 13.875 9.8578C13.289 10.0875 12.6984 10.2937 12.1125 10.5234C11.939 10.3453 11.7234 10.2 11.4797 10.1578C11.0765 10.0687 10.6312 10.2328 10.3781 10.5609C10.1343 10.8656 10.0687 11.3062 10.2187 11.6672C10.3547 12.0094 10.664 12.2672 11.0203 12.3422C11.4422 12.4359 11.9062 12.2625 12.1547 11.9109C12.3047 11.7094 12.3703 11.4609 12.3797 11.2172C12.8484 11.0437 13.3172 10.8656 13.7859 10.6922C13.664 11.114 13.4437 11.5031 13.1765 11.85C12.7125 12.4359 12.1359 12.9281 11.5031 13.3172C11.1937 13.5047 10.8703 13.6781 10.5234 13.7906C10.3406 13.8469 10.1484 13.8984 9.96091 13.8469C9.8531 13.7625 9.74997 13.6828 9.63279 13.6125C9.0656 13.275 8.56872 12.8391 8.12341 12.3562C7.68747 11.8594 7.32654 11.2781 7.18122 10.6265C7.10622 10.3078 7.12966 9.97499 7.12497 9.64686C7.12497 8.83593 7.12966 8.0203 7.12497 7.20936C7.12029 6.64218 7.28904 6.06093 7.64997 5.60155Z" fill="#FFEFEB"/>
<path d="M3.74998 7.96405C3.73591 7.72968 3.93279 7.50936 4.16716 7.49999C4.40154 7.49061 4.63591 7.49999 4.87498 7.4953C4.87029 7.8703 4.87966 8.24999 4.87498 8.62499C4.87966 8.96249 4.62654 9.27655 4.29841 9.35155C4.12029 9.38436 3.93748 9.3703 3.75466 9.37499C3.74998 8.90624 3.74998 8.43749 3.74998 7.96405Z" fill="#4DF189"/>
<path d="M15.375 7.5C15.6094 7.50469 15.8484 7.49531 16.0828 7.50469C16.3172 7.51406 16.5094 7.73437 16.5 7.96406C16.5 8.4375 16.5047 8.90625 16.5 9.375C16.2609 9.36563 16.0031 9.40781 15.7828 9.28594C15.5391 9.15938 15.375 8.90156 15.3797 8.625C15.3703 8.25469 15.3797 7.875 15.375 7.5Z" fill="#4DF189"/>
<path d="M4.87495 7.5C5.12339 7.5 5.37651 7.5 5.62495 7.5C5.62495 8.25 5.62495 9 5.62495 9.75C5.13745 9.74531 4.64995 9.75469 4.16714 9.74531C3.96558 9.73594 3.79683 9.56719 3.75464 9.375C3.93745 9.37031 4.12026 9.38437 4.29839 9.35156C4.62651 9.28125 4.87964 8.9625 4.87495 8.625C4.87964 8.25469 4.87495 7.875 4.87495 7.5Z" fill="#4DF189"/>
<path d="M14.625 7.5C14.8734 7.5 15.1266 7.5 15.375 7.5C15.3797 7.875 15.3703 8.25469 15.375 8.62969C15.3703 8.90625 15.5391 9.16406 15.7781 9.29062C15.9984 9.4125 16.2562 9.37031 16.4953 9.37969C16.4484 9.59063 16.2563 9.76406 16.0359 9.75C15.5672 9.75469 15.0938 9.75 14.625 9.75C14.625 9 14.625 8.25 14.625 7.5Z" fill="#4DF189"/>
<path d="M11.1234 10.8984C11.3203 10.8187 11.5641 10.95 11.6109 11.1562C11.6672 11.3484 11.5359 11.5687 11.3437 11.6156C11.1516 11.6719 10.9312 11.5406 10.8891 11.3437C10.8375 11.1609 10.95 10.9594 11.1234 10.8984Z" fill="#4DF189"/>
<path d="M8.25 13.8984C8.48438 14.0625 8.7375 14.2031 9 14.3203C9.00937 14.7328 8.95312 15.1594 9.1125 15.5484C9.21562 15.825 9.40312 16.0594 9.61875 16.2562C9.84844 16.4719 10.0641 16.7109 10.3078 16.9172C10.2469 16.9781 10.1859 17.0391 10.1297 17.0953C9.50625 16.4719 8.87813 15.8438 8.25469 15.2203C8.25 14.7797 8.25 14.3391 8.25 13.8984Z" fill="#FAA68E"/>
<path d="M10.1297 14.6203C10.8 14.55 11.4469 14.2875 12 13.9031C12 14.3438 12 14.7797 12 15.2203C11.4328 15.7828 10.8703 16.35 10.3078 16.9125C10.0641 16.7063 9.84843 16.4719 9.61874 16.2516C9.40311 16.0547 9.21561 15.8203 9.11249 15.5438C8.95311 15.1547 9.00936 14.7234 8.99999 14.3156C9.36093 14.4656 9.74061 14.5781 10.1297 14.6203Z" fill="#FFBEAA"/>
<path d="M7.34058 15.9656C7.49526 15.9234 7.64526 15.8813 7.79995 15.8344C8.39526 16.4203 8.98589 17.0109 9.56714 17.6063C9.02339 18.0469 8.49839 18.5109 7.94526 18.9422C7.87964 18.8391 7.81401 18.7359 7.7437 18.6375C7.99214 18.5016 8.1937 18.3 8.39995 18.1125C8.67651 17.8547 8.69526 17.3813 8.44683 17.1047C8.09526 16.7109 7.68276 16.3734 7.34058 15.9656Z" fill="#4DF189"/>
<path d="M10.6827 17.6016C11.2734 17.0109 11.8593 16.4156 12.4546 15.8297C12.6046 15.8766 12.7593 15.9141 12.9093 15.9609C12.5624 16.3781 12.1406 16.7203 11.7796 17.1234C11.5452 17.4047 11.5781 17.8594 11.8406 18.1078C12.0515 18.2953 12.2577 18.4875 12.5015 18.6375C12.4312 18.7359 12.3656 18.8391 12.2999 18.9422C11.7515 18.5062 11.2265 18.0422 10.6827 17.6016Z" fill="#4DF189"/>
<path d="M6.1875 16.2891C6.57187 16.1859 6.95625 16.0734 7.34063 15.9656C7.68281 16.3734 8.09531 16.7109 8.45156 17.1C8.70469 17.3766 8.68125 17.8547 8.40469 18.1078C8.19844 18.2953 7.99219 18.4969 7.74844 18.6328C7.22813 17.85 6.70781 17.0719 6.1875 16.2891Z" fill="#4DF189"/>
<path d="M12.9141 15.9609C13.2985 16.0687 13.6828 16.1766 14.0672 16.2844C13.5469 17.0672 13.0219 17.85 12.5016 18.6328C12.2625 18.4828 12.0516 18.2906 11.8406 18.1031C11.5781 17.8547 11.5453 17.4 11.7797 17.1188C12.1406 16.7203 12.5672 16.3781 12.9141 15.9609Z" fill="#4DF189"/>
<path d="M3.02815 17.175C3.82971 16.95 4.62659 16.725 5.42815 16.5C6.13596 17.5594 6.84377 18.6234 7.55159 19.6828C7.6594 19.8797 7.95002 19.9359 8.11877 19.7812C8.66721 19.3312 9.20627 18.8719 9.75471 18.4219C9.7594 19.2844 9.75002 20.1422 9.7594 21.0047C9.7594 21.2437 10.0266 21.4265 10.2516 21.3422C10.4156 21.2906 10.5188 21.1219 10.5094 20.9531C10.5094 20.1094 10.5094 19.2656 10.5094 18.4219C11.0016 18.8297 11.4938 19.2422 11.986 19.65C12.0938 19.7344 12.1922 19.8469 12.3375 19.8656C12.4875 19.889 12.6328 19.8047 12.7125 19.6828C13.4203 18.6234 14.1281 17.5594 14.836 16.4953C15.5906 16.7062 16.3453 16.9219 17.1 17.1328C17.8313 17.3016 18.4688 17.8125 18.7781 18.4922C18.9891 18.9234 19.0031 19.4062 19.0641 19.875C19.2094 21.1219 19.3594 22.3734 19.5047 23.6203C16.5047 23.6203 13.5094 23.6203 10.5094 23.6203C10.5047 23.2453 10.5141 22.8656 10.5047 22.4906C10.5047 22.3265 10.3828 22.1719 10.2235 22.1344C10.0641 22.0922 9.88596 22.1672 9.80627 22.3125C9.74534 22.4109 9.75471 22.5281 9.75471 22.6359C9.75471 22.964 9.75471 23.2922 9.75471 23.625C6.75471 23.625 3.7594 23.625 0.759399 23.625C0.909399 22.3453 1.0594 21.0656 1.2094 19.7859C1.26096 19.3969 1.27502 18.9984 1.42502 18.6375C1.69221 17.9344 2.30627 17.3766 3.02815 17.175Z" fill="#D6FFD8"/>
</svg>
