<svg width="30" height="30" viewBox="0 0 30 30" fill="none" xmlns="http://www.w3.org/2000/svg">
<g clip-path="url(#clip0_972_6872)">
<path d="M16.6113 0H16.9629C17.3496 0.0644531 17.7305 0.222656 18.0176 0.503906C19.5059 1.98633 20.9824 3.47461 22.4707 4.95703C22.6055 5.09766 22.7402 5.24414 22.8691 5.38477C23.7832 5.40234 24.6973 5.38477 25.6113 5.39062C25.875 5.39648 26.1504 5.36719 26.4141 5.41406C26.6016 5.44922 26.7246 5.60742 26.8125 5.76563C27.873 7.66406 28.9512 9.55664 30.0059 11.4551V29.5723C29.9062 29.7539 29.7598 29.9004 29.5781 30H0.427734C0.246094 29.9062 0.0996094 29.7539 0 29.5723V11.4551C1.06641 9.54492 2.14453 7.64063 3.2168 5.73047C3.32813 5.50781 3.5625 5.37305 3.80859 5.39062C5.87695 5.39062 7.95117 5.39062 10.0254 5.39062C10.2363 5.38477 10.4473 5.4082 10.6582 5.37305C10.8223 5.26758 10.9395 5.10938 11.0801 4.97461C12.5566 3.49805 14.0273 2.02148 15.5039 0.550781C15.791 0.246094 16.1895 0.0527344 16.6113 0ZM16.1484 1.55859C14.0801 3.63281 12.0059 5.70117 9.9375 7.76953C9.79688 7.91016 9.65625 8.03906 9.5332 8.19727C13.0723 8.20898 16.6172 8.19727 20.1562 8.20312C20.25 8.19727 20.373 8.2207 20.4375 8.13281C20.8652 7.70508 21.293 7.27148 21.7266 6.84375C21.8672 6.70898 21.9844 6.5332 21.9609 6.33398C21.9609 6.07031 21.75 5.89453 21.5801 5.72461C20.1328 4.2832 18.6914 2.83594 17.2441 1.38867C17.1035 1.24219 16.9043 1.14258 16.6992 1.17773C16.4648 1.20703 16.3125 1.40625 16.1484 1.55859ZM4.10156 6.5625C3.25195 8.03906 2.43164 9.5332 1.58789 11.0156C10.5293 11.0215 19.4707 11.0215 28.4121 11.0156C27.5742 9.5332 26.748 8.03906 25.8984 6.5625C24.9727 6.57422 24.0469 6.54492 23.1211 6.57422C23.0801 6.92578 22.9336 7.25977 22.6934 7.52344C22.4766 7.75781 22.2422 7.96875 22.0254 8.20312C22.752 8.21484 23.4785 8.19727 24.1992 8.21484C24.5391 8.2207 24.8145 8.57813 24.7324 8.91211C24.6797 9.21094 24.375 9.41016 24.0762 9.38086C18.1934 9.38086 12.3105 9.38086 6.43359 9.38086C6.13477 9.39258 5.85352 9.1582 5.83008 8.85352C5.78906 8.53711 6.05859 8.2207 6.375 8.21484C6.86133 8.20312 7.34766 8.21484 7.83984 8.20898C8.38477 7.66406 8.93555 7.13672 9.46289 6.57422C7.68164 6.55664 5.88867 6.56836 4.10156 6.5625ZM1.17188 12.1875C1.17188 17.7363 1.17188 23.2793 1.17188 28.8281C10.3887 28.8281 19.6055 28.8281 28.8281 28.8281C28.8281 23.2852 28.8281 17.7363 28.8281 12.1875C19.6113 12.1875 10.3887 12.1875 1.17188 12.1875Z" fill="#1C2436"/>
<path d="M16.0598 3.7441C16.0598 3.43941 16.3352 3.16988 16.6399 3.18746C16.968 3.16988 17.2493 3.48043 17.2259 3.80269C17.2259 4.78121 17.2317 5.75973 17.2259 6.73824C17.2259 7.03121 16.9915 7.30074 16.6985 7.31246C16.1712 7.33004 15.6497 7.31246 15.1223 7.31832C14.9055 7.31832 14.6653 7.34176 14.4837 7.19527C14.2376 7.01363 14.179 6.63277 14.3665 6.39254C14.472 6.24605 14.6419 6.1523 14.8235 6.1523C15.2337 6.14058 15.6438 6.15816 16.054 6.14644C16.0598 5.34957 16.0481 4.54684 16.0598 3.7441Z" fill="#1C2436"/>
<path d="M4.01967 14.8593C4.16615 14.7597 4.34779 14.7656 4.51186 14.7656C5.49037 14.7714 11.7423 14.7656 12.7208 14.7714C13.0372 14.7597 13.3068 15.0468 13.3068 15.3574C13.2951 15.6679 13.0314 15.9433 12.715 15.9374C11.8771 15.9433 5.7599 15.9374 4.92201 15.9433C4.92201 18.9902 4.92201 22.0371 4.92201 25.0839C9.53334 25.0839 14.1447 25.0839 18.756 25.0839C19.0841 25.0605 19.3537 25.3476 19.3771 25.6699C19.3654 25.9921 19.0841 26.2734 18.756 26.2558C13.9689 26.2558 9.18178 26.2558 4.39467 26.2558C4.18373 26.2617 3.96107 26.1679 3.84975 25.9863C3.73256 25.8046 3.756 25.582 3.756 25.3769C3.756 22.0546 3.756 18.7324 3.756 15.4101C3.73842 15.1933 3.83217 14.9706 4.01967 14.8593Z" fill="#1C2436"/>
<path d="M9.19336 15.3515C9.21094 15.0644 9.42773 14.789 9.72656 14.7656C10.0664 14.7187 10.377 15.0176 10.377 15.3515C10.3652 15.6973 10.0313 15.9961 9.68555 15.9258C9.41016 15.8848 9.2168 15.6269 9.19336 15.3515Z" fill="#1C2436"/>
<path d="M11.5371 15.3516C11.5488 15.0176 11.8477 14.7305 12.1816 14.7656C16.6758 14.7656 21.1758 14.7598 25.6699 14.7656C26.0039 14.7539 26.2793 15.0762 26.25 15.4043C26.25 18.709 26.25 22.0078 26.25 25.3125C26.2441 25.5351 26.2793 25.7812 26.1562 25.9805C26.0449 26.168 25.8223 26.2559 25.6113 26.25C24.8848 26.25 24.1641 26.2559 23.4375 26.2441C23.127 26.2383 22.8867 25.957 22.875 25.6582C22.8984 25.3652 23.127 25.084 23.4375 25.0781C23.9824 25.0664 24.5332 25.0781 25.084 25.0723C25.084 22.0254 25.084 18.9785 25.084 15.9316C20.7656 15.9258 16.4531 15.9375 12.1348 15.9258C11.8125 15.9434 11.5605 15.6621 11.5371 15.3516Z" fill="#1C2436"/>
<path d="M6.64501 17.8477C6.88524 17.7598 7.17235 17.8536 7.31298 18.0645C7.38915 18.1758 7.42431 18.3047 7.46532 18.4278C7.73485 19.2129 8.02196 19.9922 8.27977 20.7832C8.29149 20.7832 8.32079 20.7774 8.33837 20.7774C8.62548 19.9336 8.92431 19.0957 9.21727 18.2578C9.28173 18.0293 9.48681 17.8418 9.72704 17.8243C10.0141 17.7891 10.3071 18 10.3599 18.2871C10.4009 18.4746 10.3188 18.6504 10.2602 18.8262C9.79149 20.1563 9.3286 21.4864 8.85985 22.8164C8.78368 23.045 8.55516 23.209 8.31493 23.209C8.05712 23.2149 7.81688 23.0274 7.74657 22.7813C7.26024 21.3985 6.77977 20.0098 6.29345 18.627C6.16454 18.3223 6.33446 17.9473 6.64501 17.8477Z" fill="#1C2436"/>
<path d="M12.6806 17.8476C13.536 17.6719 14.4618 18.1113 14.872 18.8789C15.1064 19.2773 15.1474 19.7578 15.1298 20.209C15.1122 20.8125 15.2118 21.4511 14.9306 22.0078C14.579 22.7754 13.7235 23.2734 12.8857 23.1855C12.1708 23.1269 11.5028 22.6582 11.204 22.0078C11.0458 21.6855 10.9989 21.3222 11.0048 20.9707C11.0107 20.5371 10.9931 20.1093 11.0165 19.6758C11.081 18.791 11.8017 18.0058 12.6806 17.8476ZM12.9091 18.9961C12.5048 19.0664 12.1767 19.4472 12.1825 19.8574C12.1825 20.291 12.1825 20.7187 12.1825 21.1465C12.1825 21.4804 12.3935 21.7968 12.6982 21.9375C13.0849 22.1367 13.6005 21.9785 13.829 21.6035C14.0458 21.2754 13.9462 20.8652 13.9696 20.5019C13.9462 20.1562 14.0341 19.7929 13.8759 19.4707C13.6942 19.1308 13.2841 18.9199 12.9091 18.9961Z" fill="#1C2436"/>
<path d="M15.8197 18.2871C15.8666 18.0176 16.1244 17.8066 16.3998 17.8125C17.3022 17.8125 18.2045 17.8125 19.1069 17.8125C19.4174 17.8066 19.6987 18.0879 19.6869 18.3984C19.6928 18.6914 19.4467 18.9609 19.1537 18.9785C18.8842 18.9902 18.6088 18.9785 18.3393 18.9844C18.3334 20.1797 18.3393 21.3691 18.3393 22.5645C18.351 22.8105 18.2162 23.0566 17.9877 23.1504C17.724 23.2793 17.3783 23.1562 17.2436 22.8984C17.1733 22.7812 17.1674 22.6348 17.1674 22.5C17.1674 21.3281 17.1674 20.1562 17.1674 18.9844C16.8744 18.9727 16.5815 19.002 16.2885 18.9668C15.9779 18.9199 15.7553 18.5918 15.8197 18.2871Z" fill="#1C2436"/>
<path d="M20.397 19.0957C20.3911 18.4395 20.9595 17.8418 21.6157 17.8125C22.0903 17.8067 22.5591 17.8067 23.0337 17.8067C23.3325 17.7891 23.6079 18.0352 23.6313 18.334C23.6665 18.6328 23.438 18.9317 23.145 18.9668C22.6294 19.0078 22.1079 18.9375 21.5923 19.002C21.5396 19.3008 21.5747 19.6114 21.5688 19.9102C21.8853 19.916 22.1958 19.9043 22.5122 19.916C22.8052 19.9278 23.0571 20.2032 23.0454 20.4961C23.0513 20.7891 22.7993 21.0586 22.5063 21.0762C22.1958 21.0938 21.8794 21.0762 21.5688 21.0821C21.5806 21.3868 21.5396 21.6914 21.5923 21.9903C22.1079 22.0606 22.6294 21.9844 23.1509 22.0313C23.4438 22.0723 23.6724 22.3711 23.6313 22.6641C23.6079 22.9629 23.3325 23.2032 23.0337 23.1914C22.5591 23.1914 22.0903 23.1973 21.6157 23.1856C20.9595 23.1563 20.3911 22.5645 20.397 21.9024C20.3911 20.9766 20.3911 20.0391 20.397 19.0957Z" fill="#1C2436"/>
<path d="M20.5254 25.664C20.543 25.3476 20.8184 25.0546 21.1465 25.0839C21.457 25.0898 21.6914 25.371 21.7148 25.664C21.7031 25.9863 21.4219 26.2734 21.0938 26.25C20.7891 26.2382 20.543 25.9628 20.5254 25.664Z" fill="#1C2436"/>
<path d="M16.1484 1.5586C16.3066 1.40626 16.4648 1.20118 16.6992 1.17774C16.9043 1.14259 17.1035 1.24219 17.2441 1.38868C18.6914 2.83009 20.1328 4.27735 21.5801 5.72462C21.75 5.89454 21.9609 6.07032 21.9609 6.33399C21.9785 6.53321 21.8613 6.71485 21.7266 6.84376C21.293 7.27149 20.8652 7.70509 20.4375 8.13282C20.373 8.22657 20.2559 8.19727 20.1563 8.20313C16.6172 8.19727 13.0723 8.20899 9.5332 8.19727C9.65625 8.04493 9.79688 7.91016 9.9375 7.76954C12.0059 5.70118 14.0801 3.63282 16.1484 1.5586ZM16.0605 3.74415C16.0488 4.54688 16.0605 5.34962 16.0547 6.15235C15.6445 6.16407 15.2344 6.14649 14.8242 6.15821C14.6426 6.15821 14.4727 6.25196 14.3672 6.39844C14.1797 6.63868 14.2383 7.01954 14.4844 7.20118C14.6602 7.34766 14.9063 7.32423 15.123 7.32423C15.6504 7.31837 16.1719 7.33594 16.6992 7.31837C16.9922 7.30079 17.2324 7.03126 17.2266 6.74415C17.2324 5.76563 17.2266 4.78712 17.2266 3.8086C17.25 3.48633 16.9688 3.17579 16.6406 3.19337C16.3359 3.17579 16.0605 3.43946 16.0605 3.74415Z" fill="#E7D6FF"/>
<path d="M4.10156 6.56246C5.88867 6.56832 7.68164 6.5566 9.46875 6.56832C8.94727 7.13082 8.39062 7.65816 7.8457 8.20308C7.35937 8.20894 6.87305 8.19723 6.38086 8.20894C6.05859 8.2148 5.78906 8.53121 5.83594 8.84762C5.85937 9.14644 6.14062 9.38668 6.43945 9.37496C12.3223 9.38082 18.2051 9.37496 24.082 9.37496C24.375 9.40426 24.6855 9.20504 24.7383 8.90621C24.8203 8.57222 24.5449 8.2148 24.2051 8.20894C23.4785 8.19137 22.752 8.2148 22.0312 8.19722C22.248 7.96871 22.4824 7.75191 22.6992 7.51754C22.9336 7.25387 23.0801 6.91988 23.127 6.56832C24.0527 6.53902 24.9785 6.56246 25.9043 6.5566C26.7539 8.03316 27.5742 9.5273 28.418 11.0097C19.4766 11.0156 10.5352 11.0156 1.59375 11.0097C2.43164 9.5273 3.25195 8.03902 4.10156 6.56246Z" fill="#4DF189"/>
<path d="M1.17188 12.1875C10.3887 12.1875 19.6055 12.1875 28.8281 12.1875C28.8281 17.7363 28.8281 23.2793 28.8281 28.8281C19.6113 28.8281 10.3945 28.8281 1.17188 28.8281C1.17188 23.2793 1.17188 17.7363 1.17188 12.1875ZM4.01953 14.8594C3.83203 14.9707 3.74414 15.1934 3.75 15.4043C3.75 18.7266 3.75 22.0488 3.75 25.3711C3.75586 25.5762 3.72656 25.7988 3.84375 25.9805C3.95508 26.168 4.17773 26.2617 4.38867 26.25C9.17578 26.25 13.9629 26.25 18.75 26.25C19.0781 26.2676 19.3594 25.9863 19.3711 25.6641C19.7578 25.6641 20.1387 25.6641 20.5254 25.6641C20.543 25.9629 20.7832 26.2441 21.0938 26.25C21.4219 26.2734 21.7031 25.9863 21.7148 25.6641C22.1016 25.6699 22.4824 25.6699 22.8691 25.6641C22.8809 25.9629 23.127 26.2383 23.4316 26.25C24.1582 26.2617 24.8789 26.25 25.6055 26.2559C25.8164 26.2617 26.0391 26.1738 26.1504 25.9863C26.2793 25.7871 26.2383 25.541 26.2441 25.3184C26.2441 22.0195 26.2441 18.7148 26.2441 15.4102C26.2734 15.082 25.998 14.7598 25.6641 14.7715C21.1699 14.7656 16.6699 14.7715 12.1758 14.7715C11.8359 14.7422 11.543 15.0293 11.5313 15.3574C11.1445 15.3516 10.7578 15.3516 10.3711 15.3574C10.3711 15.0234 10.0605 14.7246 9.7207 14.7715C9.42187 14.7949 9.19922 15.0645 9.1875 15.3574C8.80078 15.3516 8.41406 15.3516 8.02734 15.3574C8.02148 15.0469 7.75781 14.7598 7.44141 14.7715C6.46289 14.7656 5.48438 14.7715 4.50586 14.7656C4.3418 14.7656 4.16602 14.7598 4.01953 14.8594Z" fill="#4DF189"/>
<path d="M8.0332 15.3574C8.41992 15.3516 8.80664 15.3516 9.19336 15.3574C9.2168 15.627 9.41016 15.8906 9.68555 15.9316C10.0313 16.002 10.3652 15.7031 10.377 15.3574C10.7637 15.3516 11.1504 15.3516 11.5371 15.3574C11.5605 15.6621 11.8125 15.9434 12.1289 15.9375C16.4473 15.9434 20.7598 15.9375 25.0781 15.9434C25.0781 18.9902 25.0781 22.0371 25.0781 25.084C24.5273 25.0898 23.9824 25.0781 23.4316 25.0898C23.1211 25.0957 22.8926 25.377 22.8691 25.6699C22.4824 25.6758 22.1016 25.6758 21.7148 25.6699C21.6914 25.3711 21.457 25.0898 21.1465 25.0898C20.8184 25.0664 20.543 25.3535 20.5254 25.6699C20.1387 25.6758 19.7578 25.6699 19.3711 25.6699C19.3535 25.3535 19.084 25.0664 18.75 25.084C14.1387 25.0781 9.52734 25.084 4.91602 25.084C4.91602 22.0371 4.91602 18.9902 4.91602 15.9434C5.75391 15.9375 6.59766 15.9492 7.43555 15.9375C7.75781 15.9434 8.02148 15.668 8.0332 15.3574ZM6.64453 17.8477C6.33398 17.9473 6.16406 18.3223 6.29297 18.6211C6.7793 20.0039 7.25977 21.3926 7.74609 22.7754C7.81641 23.0215 8.05664 23.209 8.31445 23.2031C8.55469 23.2031 8.7832 23.0391 8.85937 22.8105C9.32812 21.4805 9.79102 20.1504 10.2598 18.8203C10.3184 18.6504 10.4004 18.4687 10.3594 18.2812C10.3066 17.9941 10.0195 17.7832 9.72656 17.8184C9.48633 17.8418 9.28125 18.0234 9.2168 18.252C8.92383 19.0898 8.625 19.9336 8.33789 20.7715C8.32617 20.7715 8.29688 20.7773 8.2793 20.7773C8.01563 19.9863 7.73437 19.207 7.46484 18.4219C7.41797 18.2988 7.38281 18.1699 7.3125 18.0586C7.16602 17.8477 6.87891 17.7598 6.64453 17.8477ZM12.6797 17.8477C11.8008 18.0059 11.0801 18.791 11.0156 19.6816C10.9922 20.1094 11.0098 20.543 11.0039 20.9766C10.998 21.334 11.0449 21.6973 11.2031 22.0137C11.5078 22.6641 12.1699 23.1328 12.8848 23.1914C13.7285 23.2793 14.584 22.7813 14.9297 22.0137C15.2109 21.457 15.1055 20.8125 15.1289 20.2148C15.1465 19.7578 15.1055 19.2832 14.8711 18.8848C14.4609 18.1113 13.5352 17.6719 12.6797 17.8477ZM15.8203 18.2871C15.7559 18.5918 15.9785 18.9199 16.2832 18.9727C16.5762 19.002 16.8691 18.9785 17.1621 18.9902C17.1621 20.1621 17.1621 21.334 17.1621 22.5059C17.1621 22.6406 17.1621 22.7871 17.2383 22.9043C17.373 23.1621 17.7188 23.2793 17.9824 23.1563C18.2109 23.0625 18.3457 22.8105 18.334 22.5703C18.3398 21.375 18.334 20.1855 18.334 18.9902C18.6035 18.9844 18.8789 18.9961 19.1484 18.9844C19.4414 18.9668 19.6875 18.6973 19.6816 18.4043C19.6934 18.0938 19.4121 17.8125 19.1016 17.8184C18.1992 17.8125 17.2969 17.8184 16.3945 17.8184C16.125 17.8066 15.873 18.0176 15.8203 18.2871ZM20.3965 19.0957C20.3906 20.0332 20.3906 20.9766 20.3965 21.9141C20.3906 22.5703 20.959 23.168 21.6152 23.1973C22.0898 23.209 22.5586 23.2031 23.0332 23.2031C23.3262 23.2148 23.6074 22.9746 23.6309 22.6758C23.6719 22.3828 23.4434 22.084 23.1504 22.043C22.6348 22.002 22.1074 22.0781 21.5918 22.002C21.5391 21.7031 21.5742 21.3984 21.5684 21.0937C21.8789 21.0879 22.1953 21.0996 22.5059 21.0879C22.7988 21.0703 23.0508 20.8008 23.0449 20.5078C23.0508 20.2148 22.8047 19.9395 22.5117 19.9277C22.1953 19.916 21.8848 19.9277 21.5684 19.9219C21.5801 19.6172 21.5391 19.3125 21.5918 19.0137C22.1074 18.9434 22.6289 19.0195 23.1445 18.9785C23.4434 18.9434 23.6719 18.6387 23.6309 18.3457C23.6074 18.0527 23.332 17.8066 23.0332 17.8184C22.5586 17.8184 22.0898 17.8125 21.6152 17.8242C20.959 17.8418 20.3906 18.4395 20.3965 19.0957Z" fill="white"/>
<path d="M12.9082 18.9961C13.2891 18.92 13.6934 19.1309 13.8633 19.4766C14.0273 19.7989 13.9395 20.168 13.957 20.5078C13.9336 20.877 14.0332 21.2871 13.8164 21.6094C13.5938 21.9785 13.0781 22.1426 12.6855 21.9434C12.3867 21.8028 12.1699 21.4864 12.1699 21.1524C12.1699 20.7246 12.1699 20.291 12.1699 19.8633C12.1758 19.4473 12.5039 19.0723 12.9082 18.9961Z" fill="white"/>
<path d="M15 14.7656H7.38867V15.9375H15V14.7656Z" fill="#1C2436"/>
<path d="M23.959 25.0781H16.3477V26.25H23.959V25.0781Z" fill="#1C2436"/>
</g>
<defs>
<clipPath id="clip0_972_6872">
<rect width="30" height="30" fill="white"/>
</clipPath>
</defs>
</svg>
