<svg width="216" height="216" viewBox="0 0 216 216" fill="none" xmlns="http://www.w3.org/2000/svg">
<rect width="216" height="216" rx="21" fill="white"/>
<circle opacity="0.05" cx="107.358" cy="119.358" r="51.7648" fill="#4D7CFE"/>
<path fill-rule="evenodd" clip-rule="evenodd" d="M54.3984 120.154C54.3984 149.842 78.4657 173.909 108.154 173.909C137.843 173.909 161.91 149.842 161.91 120.154C161.91 90.4652 137.843 66.3979 108.154 66.3979C78.4657 66.3979 54.3984 90.4652 54.3984 120.154ZM159.521 120.154C159.521 148.523 136.524 171.521 108.155 171.521C79.7859 171.521 56.7883 148.523 56.7883 120.154C56.7883 91.785 79.7859 68.7874 108.155 68.7874C136.524 68.7874 159.521 91.785 159.521 120.154Z" fill="#4D7CFE"/>
<mask id="mask0_56_1964" style="mask-type:alpha" maskUnits="userSpaceOnUse" x="54" y="66" width="108" height="108">
<path fill-rule="evenodd" clip-rule="evenodd" d="M54.3984 120.154C54.3984 149.842 78.4657 173.909 108.154 173.909C137.843 173.909 161.91 149.842 161.91 120.154C161.91 90.4652 137.843 66.3979 108.154 66.3979C78.4657 66.3979 54.3984 90.4652 54.3984 120.154ZM159.521 120.154C159.521 148.523 136.524 171.521 108.155 171.521C79.7859 171.521 56.7883 148.523 56.7883 120.154C56.7883 91.785 79.7859 68.7874 108.155 68.7874C136.524 68.7874 159.521 91.785 159.521 120.154Z" fill="white"/>
</mask>
<g mask="url(#mask0_56_1964)">
<path d="M108.481 56.6577V131.894L150.807 158.463V182.913L179.12 92.4708L108.481 56.6577Z" fill="white"/>
</g>
<path d="M88.0994 128.479C88.6655 128.479 89.1784 128.389 89.6379 128.208C90.0973 128.019 90.4912 127.765 90.8194 127.445C91.1476 127.125 91.402 126.743 91.5825 126.3C91.763 125.857 91.8532 125.377 91.8532 124.86C91.8532 124.294 91.763 123.79 91.5825 123.347C91.4102 122.895 91.164 122.514 90.844 122.202C90.5322 121.89 90.1548 121.652 89.7117 121.488C89.2686 121.324 88.7763 121.242 88.2348 121.242C87.6686 121.242 87.1599 121.34 86.7086 121.537C86.2573 121.726 85.8717 121.984 85.5517 122.313C85.2317 122.633 84.9855 123.01 84.8132 123.445C84.6409 123.88 84.5548 124.335 84.5548 124.811C84.5548 125.353 84.6327 125.849 84.7886 126.3C84.9445 126.752 85.1743 127.137 85.4779 127.457C85.7814 127.777 86.1507 128.028 86.5855 128.208C87.0286 128.389 87.5332 128.479 88.0994 128.479ZM86.9671 119.187C86.8276 119.367 86.6881 119.543 86.5486 119.716C86.4173 119.88 86.2902 120.044 86.1671 120.208C86.5609 119.954 86.9958 119.757 87.4717 119.617C87.9558 119.478 88.4768 119.408 89.0348 119.408C89.7322 119.408 90.3968 119.523 91.0286 119.753C91.6604 119.982 92.2143 120.319 92.6902 120.762C93.1743 121.205 93.5558 121.755 93.8348 122.411C94.1138 123.068 94.2532 123.822 94.2532 124.676C94.2532 125.488 94.1056 126.251 93.8102 126.965C93.5148 127.671 93.0963 128.286 92.5548 128.811C92.0215 129.328 91.3814 129.738 90.6348 130.042C89.8881 130.337 89.0594 130.485 88.1486 130.485C87.2461 130.485 86.4296 130.341 85.6994 130.054C84.9773 129.767 84.3579 129.361 83.8409 128.836C83.3322 128.302 82.9384 127.662 82.6594 126.916C82.3804 126.161 82.2409 125.324 82.2409 124.405C82.2409 123.617 82.4091 122.789 82.7455 121.919C83.0902 121.041 83.6317 120.106 84.3702 119.113L88.7886 113.193C88.9117 113.029 89.084 112.893 89.3056 112.787C89.5271 112.672 89.7814 112.614 90.0686 112.614H92.2102L86.9671 119.187ZM109.017 121.451C109.017 122.994 108.849 124.331 108.512 125.463C108.184 126.596 107.729 127.535 107.146 128.282C106.572 129.02 105.891 129.57 105.103 129.931C104.324 130.292 103.482 130.473 102.58 130.473C101.677 130.473 100.832 130.292 100.045 129.931C99.265 129.57 98.5881 129.02 98.0138 128.282C97.4394 127.535 96.9881 126.596 96.6599 125.463C96.3317 124.331 96.1676 122.994 96.1676 121.451C96.1676 119.909 96.3317 118.571 96.6599 117.439C96.9881 116.298 97.4394 115.359 98.0138 114.62C98.5881 113.874 99.265 113.32 100.045 112.959C100.832 112.598 101.677 112.417 102.58 112.417C103.482 112.417 104.324 112.598 105.103 112.959C105.891 113.32 106.572 113.874 107.146 114.62C107.729 115.359 108.184 116.298 108.512 117.439C108.849 118.571 109.017 119.909 109.017 121.451ZM106.531 121.451C106.531 120.122 106.42 119.01 106.198 118.116C105.985 117.221 105.694 116.503 105.325 115.962C104.964 115.412 104.545 115.022 104.069 114.793C103.593 114.563 103.097 114.448 102.58 114.448C102.063 114.448 101.567 114.563 101.091 114.793C100.615 115.022 100.192 115.412 99.823 115.962C99.462 116.503 99.1748 117.221 98.9614 118.116C98.7481 119.01 98.6414 120.122 98.6414 121.451C98.6414 122.78 98.7481 123.892 98.9614 124.787C99.1748 125.681 99.462 126.399 99.823 126.94C100.192 127.482 100.615 127.868 101.091 128.097C101.567 128.327 102.063 128.442 102.58 128.442C103.097 128.442 103.593 128.327 104.069 128.097C104.545 127.868 104.964 127.482 105.325 126.94C105.694 126.399 105.985 125.681 106.198 124.787C106.42 123.892 106.531 122.78 106.531 121.451ZM118.882 116.885C118.882 117.574 118.771 118.19 118.55 118.731C118.336 119.273 118.049 119.732 117.688 120.11C117.327 120.479 116.905 120.766 116.42 120.971C115.945 121.168 115.444 121.267 114.919 121.267C114.353 121.267 113.828 121.168 113.344 120.971C112.868 120.766 112.453 120.479 112.1 120.11C111.748 119.732 111.469 119.273 111.264 118.731C111.067 118.19 110.968 117.574 110.968 116.885C110.968 116.179 111.067 115.552 111.264 115.002C111.469 114.452 111.748 113.989 112.1 113.611C112.453 113.226 112.868 112.934 113.344 112.737C113.828 112.532 114.353 112.43 114.919 112.43C115.485 112.43 116.006 112.532 116.482 112.737C116.966 112.934 117.385 113.226 117.737 113.611C118.098 113.989 118.377 114.452 118.574 115.002C118.779 115.552 118.882 116.179 118.882 116.885ZM117.011 116.885C117.011 116.36 116.954 115.917 116.839 115.556C116.732 115.187 116.585 114.891 116.396 114.67C116.207 114.44 115.986 114.276 115.731 114.177C115.477 114.071 115.206 114.017 114.919 114.017C114.632 114.017 114.361 114.071 114.107 114.177C113.852 114.276 113.631 114.44 113.442 114.67C113.261 114.891 113.118 115.187 113.011 115.556C112.905 115.917 112.851 116.36 112.851 116.885C112.851 117.394 112.905 117.829 113.011 118.19C113.118 118.542 113.261 118.83 113.442 119.051C113.631 119.273 113.852 119.433 114.107 119.531C114.361 119.63 114.632 119.679 114.919 119.679C115.206 119.679 115.477 119.63 115.731 119.531C115.986 119.433 116.207 119.273 116.396 119.051C116.585 118.83 116.732 118.542 116.839 118.19C116.954 117.829 117.011 117.394 117.011 116.885ZM125.036 113.008C125.126 112.901 125.229 112.811 125.344 112.737C125.467 112.655 125.635 112.614 125.848 112.614H127.584L114.611 129.907C114.521 130.021 114.414 130.116 114.291 130.19C114.168 130.255 114.02 130.288 113.848 130.288H112.064L125.036 113.008ZM128.716 126.116C128.716 126.805 128.605 127.42 128.384 127.962C128.17 128.503 127.883 128.963 127.522 129.34C127.161 129.71 126.738 129.997 126.254 130.202C125.778 130.399 125.278 130.497 124.753 130.497C124.187 130.497 123.661 130.399 123.177 130.202C122.701 129.997 122.287 129.71 121.934 129.34C121.581 128.963 121.302 128.503 121.097 127.962C120.9 127.42 120.802 126.805 120.802 126.116C120.802 125.41 120.9 124.782 121.097 124.233C121.302 123.683 121.581 123.219 121.934 122.842C122.287 122.456 122.701 122.165 123.177 121.968C123.661 121.771 124.187 121.673 124.753 121.673C125.319 121.673 125.84 121.771 126.316 121.968C126.8 122.165 127.218 122.456 127.571 122.842C127.932 123.219 128.211 123.683 128.408 124.233C128.613 124.782 128.716 125.41 128.716 126.116ZM126.845 126.116C126.845 125.591 126.788 125.148 126.673 124.787C126.566 124.426 126.418 124.134 126.23 123.913C126.041 123.683 125.819 123.519 125.565 123.42C125.311 123.314 125.04 123.26 124.753 123.26C124.457 123.26 124.182 123.314 123.928 123.42C123.682 123.519 123.465 123.683 123.276 123.913C123.095 124.134 122.952 124.426 122.845 124.787C122.738 125.148 122.685 125.591 122.685 126.116C122.685 126.633 122.738 127.068 122.845 127.42C122.952 127.773 123.095 128.06 123.276 128.282C123.465 128.503 123.682 128.663 123.928 128.762C124.182 128.86 124.457 128.91 124.753 128.91C125.04 128.91 125.311 128.86 125.565 128.762C125.819 128.663 126.041 128.503 126.23 128.282C126.418 128.06 126.566 127.773 126.673 127.42C126.788 127.068 126.845 126.633 126.845 126.116Z" fill="#4D7CFE"/>
<path d="M49.5893 38.6455C49.6822 38.6455 49.7629 38.6821 49.8313 38.7555L50.5135 39.4963C50.0832 40.0147 49.5551 40.4156 48.9291 40.6993C48.3032 40.978 47.555 41.1174 46.6846 41.1174C45.912 41.1174 45.2127 40.9853 44.5868 40.7213C43.9658 40.4523 43.4352 40.0807 42.9951 39.6063C42.555 39.1271 42.2152 38.5574 41.9756 37.8973C41.7408 37.2371 41.6235 36.511 41.6235 35.7188C41.6235 34.9266 41.7482 34.2005 41.9976 33.5403C42.2518 32.8753 42.6064 32.3056 43.0611 31.8312C43.5208 31.352 44.0685 30.9804 44.7042 30.7163C45.3448 30.4523 46.0489 30.3202 46.8167 30.3202C47.5795 30.3202 48.2519 30.4449 48.8338 30.6943C49.4206 30.9388 49.9291 31.2665 50.3595 31.6772L49.7947 32.4767C49.7555 32.5305 49.7091 32.577 49.6553 32.6161C49.6015 32.6552 49.5282 32.6748 49.4353 32.6748C49.3375 32.6748 49.225 32.6308 49.0978 32.5427C48.9756 32.4498 48.8167 32.3496 48.6211 32.242C48.4304 32.1295 48.1883 32.0293 47.8949 31.9413C47.6064 31.8484 47.2445 31.8019 46.8093 31.8019C46.3057 31.8019 45.8435 31.8899 45.423 32.066C45.0025 32.242 44.6406 32.4987 44.3374 32.8361C44.0342 33.1736 43.7971 33.5843 43.6259 34.0684C43.4597 34.5525 43.3765 35.1027 43.3765 35.7188C43.3765 36.3398 43.4646 36.8948 43.6406 37.3838C43.8166 37.868 44.0587 38.2787 44.3668 38.6161C44.6748 38.9486 45.0367 39.2029 45.4523 39.379C45.868 39.555 46.3154 39.643 46.7947 39.643C47.0881 39.643 47.3497 39.6284 47.5795 39.599C47.8142 39.5648 48.0294 39.5134 48.225 39.445C48.4206 39.3716 48.604 39.2812 48.7751 39.1736C48.9511 39.066 49.1247 38.934 49.2959 38.7775C49.3937 38.6895 49.4915 38.6455 49.5893 38.6455ZM55.7003 37.7286C55.1379 37.7481 54.6636 37.7946 54.2773 37.868C53.891 37.9364 53.578 38.0269 53.3384 38.1393C53.0988 38.2469 52.9252 38.3765 52.8176 38.5281C52.7149 38.6797 52.6636 38.846 52.6636 39.0269C52.6636 39.2029 52.6905 39.3545 52.7443 39.4817C52.8029 39.6039 52.8812 39.7066 52.979 39.7897C53.0817 39.868 53.199 39.9266 53.3311 39.9658C53.468 40 53.6171 40.0171 53.7785 40.0171C54.1892 40.0171 54.5413 39.9413 54.8347 39.7897C55.133 39.6332 55.4215 39.4083 55.7003 39.1149V37.7286ZM51.5193 34.5599C52.3653 33.7726 53.3726 33.3789 54.5413 33.3789C54.9716 33.3789 55.3531 33.4498 55.6856 33.5917C56.023 33.7286 56.3042 33.9242 56.5291 34.1784C56.7589 34.4327 56.9325 34.7359 57.0499 35.088C57.1721 35.4352 57.2333 35.8215 57.2333 36.2469V41H56.5291C56.3775 41 56.2626 40.978 56.1844 40.934C56.1061 40.8851 56.0401 40.7897 55.9863 40.6479L55.8323 40.0391C55.6416 40.2103 55.4533 40.3643 55.2675 40.5012C55.0817 40.6332 54.8885 40.7457 54.688 40.8386C54.4924 40.9315 54.2797 41 54.0499 41.044C53.8249 41.0929 53.5756 41.1174 53.3017 41.1174C52.9985 41.1174 52.7149 41.0758 52.4509 40.9927C52.1917 40.9095 51.9667 40.7848 51.776 40.6186C51.5853 40.4474 51.4337 40.2372 51.3213 39.9878C51.2137 39.7384 51.1599 39.445 51.1599 39.1076C51.1599 38.8191 51.2357 38.5379 51.3873 38.264C51.5438 37.9902 51.798 37.7457 52.1501 37.5305C52.5071 37.3105 52.9741 37.1296 53.5511 36.9878C54.133 36.8459 54.8494 36.7653 55.7003 36.7457V36.2469C55.7003 35.709 55.5853 35.308 55.3555 35.044C55.1257 34.7799 54.7883 34.6479 54.3433 34.6479C54.0401 34.6479 53.7858 34.687 53.5804 34.7652C53.3751 34.8386 53.1966 34.9193 53.045 35.0073C52.8934 35.0953 52.7589 35.1785 52.6416 35.2567C52.5242 35.33 52.3995 35.3667 52.2675 35.3667C52.1599 35.3667 52.067 35.3398 51.9887 35.286C51.9154 35.2274 51.8543 35.1564 51.8054 35.0733L51.5193 34.5599ZM59.0807 41V33.5183H60.0342C60.2494 33.5183 60.3863 33.6185 60.445 33.819L60.5477 34.4718C60.6846 34.3154 60.8264 34.1736 60.9731 34.0464C61.1198 33.9144 61.2763 33.8019 61.4425 33.709C61.6137 33.6112 61.7946 33.5354 61.9853 33.4816C62.1809 33.4278 62.3912 33.4009 62.6161 33.4009C62.8557 33.4009 63.0758 33.4352 63.2763 33.5036C63.4768 33.5721 63.6528 33.6699 63.8044 33.797C63.9609 33.9242 64.0954 34.0782 64.2078 34.2591C64.3203 34.4401 64.4132 34.643 64.4866 34.8679C64.599 34.6088 64.7408 34.3863 64.912 34.2005C65.0831 34.0146 65.2738 33.863 65.4841 33.7457C65.6944 33.6283 65.9169 33.5427 66.1516 33.489C66.3912 33.4303 66.6333 33.4009 66.8778 33.4009C67.2787 33.4009 67.6357 33.4645 67.9487 33.5917C68.2665 33.7188 68.533 33.9046 68.7482 34.1491C68.9682 34.3887 69.1345 34.6846 69.247 35.0366C69.3594 35.3887 69.4157 35.7897 69.4157 36.2396V41H67.8386V36.2396C67.8386 35.7115 67.7237 35.3154 67.4939 35.0513C67.269 34.7824 66.934 34.6479 66.489 34.6479C66.2885 34.6479 66.1003 34.6821 65.9242 34.7506C65.7482 34.819 65.5941 34.9193 65.4621 35.0513C65.3301 35.1833 65.2249 35.3496 65.1467 35.5501C65.0734 35.7457 65.0367 35.9755 65.0367 36.2396V41H63.4597V36.2396C63.4597 35.6919 63.3496 35.2909 63.1296 35.0366C62.9095 34.7775 62.5868 34.6479 62.1614 34.6479C61.868 34.6479 61.5966 34.7237 61.3472 34.8753C61.0978 35.022 60.868 35.2249 60.6577 35.4841V41H59.0807ZM72.8349 39.1222C73.055 39.4059 73.2946 39.6063 73.5538 39.7237C73.8178 39.8362 74.1088 39.8924 74.4266 39.8924C75.0428 39.8924 75.522 39.6675 75.8643 39.2176C76.2115 38.7677 76.3851 38.0978 76.3851 37.2078C76.3851 36.7481 76.346 36.3569 76.2677 36.0342C76.1895 35.7066 76.077 35.4401 75.9303 35.2347C75.7836 35.0293 75.6051 34.8802 75.3948 34.7873C75.1846 34.6943 74.9474 34.6479 74.6834 34.6479C74.2824 34.6479 73.9352 34.7359 73.6418 34.9119C73.3533 35.0831 73.0843 35.33 72.8349 35.6528V39.1222ZM72.7542 34.6039C73.0672 34.2371 73.4217 33.9413 73.8178 33.7163C74.2188 33.4914 74.6834 33.3789 75.2115 33.3789C75.632 33.3789 76.0134 33.4645 76.3557 33.6357C76.698 33.8019 76.9914 34.0464 77.2359 34.3692C77.4804 34.6919 77.6687 35.0929 77.8007 35.5721C77.9376 36.0464 78.0061 36.5917 78.0061 37.2078C78.0061 37.7604 77.9303 38.2763 77.7787 38.7555C77.632 39.2298 77.4193 39.643 77.1406 39.9951C76.8618 40.3423 76.5244 40.6161 76.1283 40.8166C75.7323 41.0122 75.2848 41.11 74.786 41.11C74.3459 41.11 73.9719 41.0391 73.6638 40.8973C73.3606 40.7555 73.0843 40.5599 72.8349 40.3105V43.4866H71.2579V33.5183H72.2115C72.4266 33.5183 72.5635 33.6185 72.6222 33.819L72.7542 34.6039ZM83.536 37.7286C82.9737 37.7481 82.4993 37.7946 82.113 37.868C81.7267 37.9364 81.4137 38.0269 81.1741 38.1393C80.9345 38.2469 80.7609 38.3765 80.6534 38.5281C80.5507 38.6797 80.4993 38.846 80.4993 39.0269C80.4993 39.2029 80.5262 39.3545 80.58 39.4817C80.6387 39.6039 80.7169 39.7066 80.8147 39.7897C80.9174 39.868 81.0348 39.9266 81.1668 39.9658C81.3037 40 81.4529 40.0171 81.6142 40.0171C82.025 40.0171 82.3771 39.9413 82.6705 39.7897C82.9688 39.6332 83.2573 39.4083 83.536 39.1149V37.7286ZM79.3551 34.5599C80.201 33.7726 81.2084 33.3789 82.3771 33.3789C82.8074 33.3789 83.1888 33.4498 83.5213 33.5917C83.8587 33.7286 84.1399 33.9242 84.3649 34.1784C84.5947 34.4327 84.7683 34.7359 84.8856 35.088C85.0079 35.4352 85.069 35.8215 85.069 36.2469V41H84.3649C84.2133 41 84.0984 40.978 84.0201 40.934C83.9419 40.8851 83.8759 40.7897 83.8221 40.6479L83.668 40.0391C83.4773 40.2103 83.2891 40.3643 83.1032 40.5012C82.9174 40.6332 82.7243 40.7457 82.5238 40.8386C82.3282 40.9315 82.1155 41 81.8856 41.044C81.6607 41.0929 81.4113 41.1174 81.1375 41.1174C80.8343 41.1174 80.5507 41.0758 80.2866 40.9927C80.0274 40.9095 79.8025 40.7848 79.6118 40.6186C79.4211 40.4474 79.2695 40.2372 79.157 39.9878C79.0494 39.7384 78.9956 39.445 78.9956 39.1076C78.9956 38.8191 79.0714 38.5379 79.223 38.264C79.3795 37.9902 79.6338 37.7457 79.9859 37.5305C80.3428 37.3105 80.8098 37.1296 81.3869 36.9878C81.9688 36.8459 82.6851 36.7653 83.536 36.7457V36.2469C83.536 35.709 83.4211 35.308 83.1913 35.044C82.9614 34.7799 82.624 34.6479 82.179 34.6479C81.8759 34.6479 81.6216 34.687 81.4162 34.7652C81.2108 34.8386 81.0323 34.9193 80.8807 35.0073C80.7291 35.0953 80.5947 35.1785 80.4773 35.2567C80.36 35.33 80.2353 35.3667 80.1032 35.3667C79.9956 35.3667 79.9027 35.3398 79.8245 35.286C79.7511 35.2274 79.69 35.1564 79.6411 35.0733L79.3551 34.5599ZM88.5595 33.5183V41H86.9824V33.5183H88.5595ZM88.8235 31.2591C88.8235 31.4009 88.7942 31.5354 88.7355 31.6625C88.6817 31.7897 88.6059 31.9022 88.5081 32C88.4103 32.0929 88.2954 32.1687 88.1634 32.2273C88.0362 32.2811 87.8993 32.308 87.7526 32.308C87.6108 32.308 87.4763 32.2811 87.3492 32.2273C87.2269 32.1687 87.1193 32.0929 87.0264 32C86.9335 31.9022 86.8577 31.7897 86.7991 31.6625C86.7453 31.5354 86.7184 31.4009 86.7184 31.2591C86.7184 31.1124 86.7453 30.9755 86.7991 30.8484C86.8577 30.7212 86.9335 30.6112 87.0264 30.5183C87.1193 30.4205 87.2269 30.3447 87.3492 30.2909C87.4763 30.2322 87.6108 30.2029 87.7526 30.2029C87.8993 30.2029 88.0362 30.2322 88.1634 30.2909C88.2954 30.3447 88.4103 30.4205 88.5081 30.5183C88.6059 30.6112 88.6817 30.7212 88.7355 30.8484C88.7942 30.9755 88.8235 31.1124 88.8235 31.2591ZM93.2109 37.1931C93.6999 37.1931 94.0666 37.0684 94.3111 36.819C94.5556 36.5697 94.6779 36.2445 94.6779 35.8435C94.6779 35.4327 94.5556 35.1075 94.3111 34.8679C94.0666 34.6283 93.6999 34.5085 93.2109 34.5085C92.7268 34.5085 92.36 34.6283 92.1106 34.8679C91.8661 35.1075 91.7439 35.4327 91.7439 35.8435C91.7439 36.0391 91.7757 36.22 91.8392 36.3863C91.9028 36.5525 91.9957 36.6968 92.118 36.819C92.2402 36.9364 92.3918 37.0293 92.5727 37.0978C92.7585 37.1613 92.9713 37.1931 93.2109 37.1931ZM95.404 41.3668C95.404 41.2005 95.3551 41.0685 95.2573 40.9707C95.1644 40.868 95.0373 40.7897 94.8759 40.7359C94.7145 40.6773 94.5263 40.6357 94.3111 40.6112C94.096 40.5819 93.8661 40.5623 93.6216 40.5526C93.382 40.5379 93.1351 40.5257 92.8808 40.5159C92.6314 40.5012 92.3894 40.4768 92.1546 40.4425C91.9199 40.5648 91.7268 40.7115 91.5752 40.8826C91.4285 41.0538 91.3551 41.2518 91.3551 41.4768C91.3551 41.6235 91.3918 41.7604 91.4651 41.8875C91.5434 42.0147 91.6607 42.1247 91.8172 42.2176C91.9786 42.3105 92.1815 42.3839 92.426 42.4377C92.6754 42.4915 92.9737 42.5183 93.3209 42.5183C94.0153 42.5183 94.5361 42.4108 94.8833 42.1956C95.2304 41.9804 95.404 41.7042 95.404 41.3668ZM96.9884 33.7897V34.3765C96.9884 34.5721 96.871 34.6919 96.6363 34.7359L95.8881 34.8606C96.0153 35.1442 96.0789 35.4596 96.0789 35.8068C96.0789 36.1736 96.0055 36.5061 95.8588 36.8044C95.717 37.1027 95.519 37.3569 95.2647 37.5672C95.0104 37.7775 94.7072 37.9389 94.3551 38.0513C94.0031 38.1638 93.6216 38.22 93.2109 38.22C93.0544 38.22 92.9004 38.2127 92.7488 38.198C92.6021 38.1785 92.4578 38.154 92.316 38.1247C92.1742 38.2078 92.0691 38.2958 92.0006 38.3887C91.9321 38.4816 91.8979 38.577 91.8979 38.6748C91.8979 38.8362 91.9688 38.956 92.1106 39.0342C92.2524 39.1125 92.4383 39.1687 92.6681 39.2029C92.9028 39.2372 93.1693 39.2592 93.4676 39.2689C93.7659 39.2787 94.0691 39.2958 94.3771 39.3203C94.6852 39.3447 94.9884 39.3863 95.2867 39.445C95.585 39.4988 95.849 39.5917 96.0789 39.7237C96.3136 39.8508 96.5018 40.0244 96.6437 40.2445C96.7855 40.4645 96.8564 40.7506 96.8564 41.1027C96.8564 41.4254 96.7757 41.7408 96.6143 42.0489C96.4529 42.357 96.2182 42.6308 95.9102 42.8704C95.607 43.11 95.2353 43.3007 94.7952 43.4426C94.3551 43.5893 93.8539 43.6626 93.2916 43.6626C92.7341 43.6626 92.2475 43.6088 91.8319 43.5012C91.4211 43.3937 91.0764 43.247 90.7977 43.0611C90.5238 42.8802 90.3184 42.6699 90.1815 42.4303C90.0495 42.1907 89.9835 41.9413 89.9835 41.6822C89.9835 41.3301 90.0935 41.0293 90.3135 40.7799C90.5385 40.5306 90.8417 40.335 91.2231 40.1931C91.0177 40.0953 90.8514 39.9609 90.7243 39.7897C90.6021 39.6186 90.5409 39.3936 90.5409 39.1149C90.5409 38.8949 90.6216 38.665 90.783 38.4254C90.9444 38.1858 91.1864 37.9829 91.5092 37.8166C91.1375 37.6112 90.8441 37.3398 90.629 37.0024C90.4138 36.6601 90.3062 36.2616 90.3062 35.8068C90.3062 35.4352 90.3771 35.1002 90.5189 34.8019C90.6656 34.5036 90.8686 34.2494 91.1277 34.0391C91.3869 33.8288 91.6925 33.6674 92.0446 33.555C92.4016 33.4425 92.7903 33.3863 93.2109 33.3863C93.8564 33.3863 94.4187 33.5207 94.8979 33.7897H96.9884ZM99.7084 34.5085C99.8698 34.3423 100.036 34.1931 100.207 34.0611C100.383 33.9242 100.569 33.8068 100.765 33.709C100.96 33.6112 101.168 33.5354 101.388 33.4816C101.608 33.4278 101.848 33.4009 102.107 33.4009C102.518 33.4009 102.877 33.4694 103.185 33.6063C103.498 33.7432 103.76 33.9364 103.97 34.1858C104.185 34.4352 104.347 34.7359 104.454 35.088C104.562 35.4352 104.616 35.819 104.616 36.2396V41H103.046V36.2396C103.046 35.7359 102.928 35.3447 102.694 35.066C102.464 34.7873 102.112 34.6479 101.638 34.6479C101.285 34.6479 100.958 34.7286 100.655 34.8899C100.356 35.0513 100.075 35.2714 99.8111 35.5501V41H98.2341V33.5183H99.1876C99.4028 33.5183 99.5397 33.6185 99.5984 33.819L99.7084 34.5085ZM110.924 34.8753C110.885 34.9437 110.841 34.9926 110.792 35.022C110.743 35.0513 110.682 35.066 110.609 35.066C110.526 35.066 110.435 35.0415 110.338 34.9926C110.24 34.9388 110.125 34.8802 109.993 34.8166C109.861 34.753 109.704 34.6968 109.523 34.6479C109.347 34.5941 109.139 34.5672 108.9 34.5672C108.704 34.5672 108.526 34.5917 108.364 34.6406C108.208 34.6846 108.073 34.7506 107.961 34.8386C107.853 34.9217 107.77 35.022 107.712 35.1393C107.653 35.2518 107.624 35.3741 107.624 35.5061C107.624 35.6821 107.677 35.8288 107.785 35.9462C107.893 36.0635 108.034 36.1662 108.21 36.2543C108.386 36.3374 108.587 36.4132 108.812 36.4816C109.037 36.5501 109.267 36.6234 109.501 36.7017C109.736 36.7799 109.966 36.8704 110.191 36.9731C110.416 37.0758 110.616 37.2029 110.792 37.3545C110.968 37.5012 111.11 37.6821 111.218 37.8973C111.325 38.1076 111.379 38.3643 111.379 38.6675C111.379 39.0195 111.316 39.3447 111.188 39.643C111.061 39.9413 110.875 40.2005 110.631 40.4205C110.386 40.6406 110.081 40.8117 109.714 40.934C109.352 41.0562 108.937 41.1174 108.467 41.1174C108.208 41.1174 107.956 41.0929 107.712 41.044C107.472 41 107.242 40.9389 107.022 40.8606C106.807 40.7775 106.604 40.6797 106.413 40.5672C106.227 40.4548 106.061 40.3325 105.915 40.2005L106.281 39.599C106.325 39.5257 106.379 39.4694 106.443 39.4303C106.511 39.3863 106.594 39.3643 106.692 39.3643C106.795 39.3643 106.895 39.3985 106.993 39.467C107.095 39.5306 107.213 39.6015 107.345 39.6797C107.482 39.7579 107.646 39.8313 107.836 39.8997C108.027 39.9633 108.264 39.9951 108.548 39.9951C108.783 39.9951 108.985 39.9682 109.157 39.9144C109.328 39.8557 109.47 39.7775 109.582 39.6797C109.694 39.5819 109.778 39.4719 109.831 39.3496C109.885 39.2225 109.912 39.088 109.912 38.9462C109.912 38.7555 109.858 38.599 109.751 38.4768C109.643 38.3545 109.499 38.2494 109.318 38.1614C109.142 38.0733 108.939 37.9951 108.709 37.9266C108.484 37.8582 108.254 37.7848 108.02 37.7066C107.785 37.6283 107.553 37.5379 107.323 37.4352C107.098 37.3325 106.895 37.2029 106.714 37.0464C106.538 36.8851 106.396 36.6919 106.289 36.467C106.181 36.2371 106.127 35.9584 106.127 35.6308C106.127 35.3325 106.186 35.0489 106.303 34.7799C106.426 34.511 106.602 34.2738 106.831 34.0684C107.066 33.863 107.352 33.7017 107.69 33.5843C108.032 33.4621 108.426 33.4009 108.871 33.4009C109.374 33.4009 109.831 33.4816 110.242 33.643C110.653 33.8044 110.998 34.0244 111.276 34.3031L110.924 34.8753ZM121.803 34.9853C121.754 35.0489 121.707 35.0978 121.663 35.132C121.619 35.1662 121.556 35.1833 121.473 35.1833C121.39 35.1833 121.302 35.154 121.209 35.0953C121.121 35.0366 121.013 34.9731 120.886 34.9046C120.764 34.8313 120.615 34.7652 120.439 34.7066C120.262 34.6479 120.042 34.6185 119.778 34.6185C119.436 34.6185 119.135 34.6797 118.876 34.8019C118.622 34.9242 118.407 35.1002 118.231 35.33C118.06 35.555 117.93 35.8313 117.842 36.1589C117.759 36.4816 117.717 36.8459 117.717 37.2518C117.717 37.6724 117.764 38.0464 117.857 38.3741C117.949 38.7017 118.082 38.978 118.253 39.2029C118.429 39.4279 118.639 39.599 118.883 39.7164C119.133 39.8337 119.412 39.8924 119.72 39.8924C120.023 39.8924 120.27 39.8557 120.461 39.7824C120.651 39.709 120.81 39.6284 120.937 39.5403C121.064 39.4523 121.172 39.3716 121.26 39.2983C121.353 39.2249 121.451 39.1883 121.553 39.1883C121.681 39.1883 121.778 39.2372 121.847 39.335L122.294 39.9144C122.113 40.1345 121.913 40.3203 121.693 40.4719C121.473 40.6235 121.24 40.7482 120.996 40.846C120.751 40.9389 120.497 41.0049 120.233 41.044C119.969 41.088 119.703 41.11 119.434 41.11C118.969 41.11 118.534 41.0244 118.128 40.8533C117.727 40.6773 117.375 40.4254 117.072 40.0978C116.773 39.7653 116.536 39.3618 116.36 38.8875C116.189 38.4083 116.104 37.8631 116.104 37.2518C116.104 36.6992 116.182 36.1882 116.338 35.7188C116.495 35.2445 116.722 34.8362 117.02 34.4939C117.324 34.1516 117.698 33.885 118.143 33.6943C118.588 33.4987 119.101 33.4009 119.683 33.4009C120.226 33.4009 120.703 33.489 121.113 33.665C121.529 33.841 121.898 34.0904 122.221 34.4132L121.803 34.9853ZM126.669 33.4009C127.221 33.4009 127.72 33.4914 128.165 33.6723C128.615 33.8533 128.996 34.11 129.309 34.4425C129.627 34.775 129.872 35.1785 130.043 35.6528C130.214 36.1271 130.299 36.6601 130.299 37.2518C130.299 37.8435 130.214 38.3765 130.043 38.8508C129.872 39.3252 129.627 39.731 129.309 40.0685C128.996 40.401 128.615 40.6577 128.165 40.8386C127.72 41.0196 127.221 41.11 126.669 41.11C126.111 41.11 125.607 41.0196 125.158 40.8386C124.713 40.6577 124.331 40.401 124.013 40.0685C123.695 39.731 123.451 39.3252 123.28 38.8508C123.109 38.3765 123.023 37.8435 123.023 37.2518C123.023 36.6601 123.109 36.1271 123.28 35.6528C123.451 35.1785 123.695 34.775 124.013 34.4425C124.331 34.11 124.713 33.8533 125.158 33.6723C125.607 33.4914 126.111 33.4009 126.669 33.4009ZM126.669 39.8777C127.343 39.8777 127.845 39.6528 128.172 39.2029C128.505 38.7482 128.671 38.1002 128.671 37.2591C128.671 36.4181 128.505 35.7701 128.172 35.3154C127.845 34.8557 127.343 34.6259 126.669 34.6259C125.984 34.6259 125.475 34.8557 125.143 35.3154C124.81 35.7701 124.644 36.4181 124.644 37.2591C124.644 38.1002 124.81 38.7482 125.143 39.2029C125.475 39.6528 125.984 39.8777 126.669 39.8777ZM131.815 41V33.5183H132.768C132.983 33.5183 133.12 33.6185 133.179 33.819L133.282 34.4718C133.419 34.3154 133.56 34.1736 133.707 34.0464C133.854 33.9144 134.01 33.8019 134.177 33.709C134.348 33.6112 134.529 33.5354 134.719 33.4816C134.915 33.4278 135.125 33.4009 135.35 33.4009C135.59 33.4009 135.81 33.4352 136.01 33.5036C136.211 33.5721 136.387 33.6699 136.538 33.797C136.695 33.9242 136.829 34.0782 136.942 34.2591C137.054 34.4401 137.147 34.643 137.221 34.8679C137.333 34.6088 137.475 34.3863 137.646 34.2005C137.817 34.0146 138.008 33.863 138.218 33.7457C138.428 33.6283 138.651 33.5427 138.886 33.489C139.125 33.4303 139.367 33.4009 139.612 33.4009C140.013 33.4009 140.37 33.4645 140.683 33.5917C141.001 33.7188 141.267 33.9046 141.482 34.1491C141.702 34.3887 141.868 34.6846 141.981 35.0366C142.093 35.3887 142.15 35.7897 142.15 36.2396V41H140.573V36.2396C140.573 35.7115 140.458 35.3154 140.228 35.0513C140.003 34.7824 139.668 34.6479 139.223 34.6479C139.022 34.6479 138.834 34.6821 138.658 34.7506C138.482 34.819 138.328 34.9193 138.196 35.0513C138.064 35.1833 137.959 35.3496 137.881 35.5501C137.807 35.7457 137.771 35.9755 137.771 36.2396V41H136.194V36.2396C136.194 35.6919 136.084 35.2909 135.864 35.0366C135.644 34.7775 135.321 34.6479 134.895 34.6479C134.602 34.6479 134.331 34.7237 134.081 34.8753C133.832 35.022 133.602 35.2249 133.392 35.4841V41H131.815ZM145.569 39.1222C145.789 39.4059 146.029 39.6063 146.288 39.7237C146.552 39.8362 146.843 39.8924 147.161 39.8924C147.777 39.8924 148.256 39.6675 148.598 39.2176C148.945 38.7677 149.119 38.0978 149.119 37.2078C149.119 36.7481 149.08 36.3569 149.002 36.0342C148.923 35.7066 148.811 35.4401 148.664 35.2347C148.518 35.0293 148.339 34.8802 148.129 34.7873C147.919 34.6943 147.681 34.6479 147.417 34.6479C147.016 34.6479 146.669 34.7359 146.376 34.9119C146.087 35.0831 145.818 35.33 145.569 35.6528V39.1222ZM145.488 34.6039C145.801 34.2371 146.156 33.9413 146.552 33.7163C146.953 33.4914 147.417 33.3789 147.945 33.3789C148.366 33.3789 148.747 33.4645 149.09 33.6357C149.432 33.8019 149.725 34.0464 149.97 34.3692C150.214 34.6919 150.403 35.0929 150.535 35.5721C150.672 36.0464 150.74 36.5917 150.74 37.2078C150.74 37.7604 150.664 38.2763 150.513 38.7555C150.366 39.2298 150.153 39.643 149.875 39.9951C149.596 40.3423 149.258 40.6161 148.862 40.8166C148.466 41.0122 148.019 41.11 147.52 41.11C147.08 41.11 146.706 41.0391 146.398 40.8973C146.095 40.7555 145.818 40.5599 145.569 40.3105V43.4866H143.992V33.5183H144.945C145.161 33.5183 145.298 33.6185 145.356 33.819L145.488 34.6039ZM153.879 30.1442V41H152.302V30.1442H153.879ZM160.732 36.4156C160.732 36.1516 160.693 35.9071 160.615 35.6821C160.542 35.4523 160.432 35.2542 160.285 35.088C160.138 34.9168 159.955 34.7848 159.735 34.6919C159.52 34.5941 159.27 34.5452 158.987 34.5452C158.415 34.5452 157.965 34.709 157.637 35.0366C157.309 35.3643 157.102 35.8239 157.014 36.4156H160.732ZM156.97 37.3838C156.989 37.8093 157.055 38.1785 157.168 38.4914C157.28 38.7995 157.429 39.0562 157.615 39.2616C157.806 39.467 158.031 39.621 158.29 39.7237C158.554 39.8215 158.847 39.8704 159.17 39.8704C159.478 39.8704 159.745 39.8362 159.97 39.7677C160.195 39.6944 160.39 39.6161 160.556 39.533C160.723 39.445 160.864 39.3667 160.982 39.2983C161.099 39.2249 161.207 39.1883 161.305 39.1883C161.432 39.1883 161.529 39.2372 161.598 39.335L162.045 39.9144C161.86 40.1345 161.649 40.3203 161.415 40.4719C161.18 40.6235 160.93 40.7482 160.666 40.846C160.402 40.9389 160.131 41.0049 159.852 41.044C159.573 41.088 159.302 41.11 159.038 41.11C158.52 41.11 158.038 41.0244 157.593 40.8533C157.153 40.6773 156.769 40.4205 156.441 40.0831C156.119 39.7457 155.864 39.3276 155.679 38.8288C155.498 38.3301 155.407 37.7555 155.407 37.1051C155.407 36.5868 155.488 36.1027 155.649 35.6528C155.816 35.2029 156.05 34.8117 156.353 34.4792C156.661 34.1467 157.033 33.885 157.468 33.6943C157.908 33.4987 158.405 33.4009 158.957 33.4009C159.417 33.4009 159.842 33.4767 160.234 33.6283C160.625 33.775 160.962 33.9926 161.246 34.2811C161.529 34.5696 161.75 34.9242 161.906 35.3447C162.067 35.7604 162.148 36.2347 162.148 36.7677C162.148 37.0122 162.121 37.176 162.067 37.2591C162.014 37.3423 161.916 37.3838 161.774 37.3838H156.97ZM165.946 41.1174C165.325 41.1174 164.845 40.9438 164.508 40.5966C164.175 40.2445 164.009 39.7506 164.009 39.1149V34.7579H163.188C163.1 34.7579 163.024 34.731 162.96 34.6772C162.897 34.6185 162.865 34.533 162.865 34.4205V33.7824L164.075 33.6063L164.42 31.4425C164.444 31.3594 164.486 31.2933 164.545 31.2444C164.603 31.1907 164.682 31.1638 164.779 31.1638H165.586V33.621H167.662V34.7579H165.586V39.0049C165.586 39.2738 165.652 39.4792 165.784 39.621C165.916 39.7628 166.092 39.8337 166.312 39.8337C166.435 39.8337 166.54 39.8191 166.628 39.7897C166.716 39.7555 166.792 39.7213 166.855 39.687C166.919 39.6479 166.973 39.6137 167.017 39.5843C167.065 39.5501 167.112 39.533 167.156 39.533C167.244 39.533 167.315 39.5819 167.369 39.6797L167.838 40.4499C167.594 40.665 167.305 40.8313 166.973 40.9487C166.64 41.0611 166.298 41.1174 165.946 41.1174ZM173.755 36.4156C173.755 36.1516 173.716 35.9071 173.638 35.6821C173.564 35.4523 173.454 35.2542 173.307 35.088C173.161 34.9168 172.977 34.7848 172.757 34.6919C172.542 34.5941 172.293 34.5452 172.009 34.5452C171.437 34.5452 170.987 34.709 170.66 35.0366C170.332 35.3643 170.124 35.8239 170.036 36.4156H173.755ZM169.992 37.3838C170.012 37.8093 170.078 38.1785 170.19 38.4914C170.303 38.7995 170.452 39.0562 170.638 39.2616C170.828 39.467 171.053 39.621 171.312 39.7237C171.576 39.8215 171.87 39.8704 172.193 39.8704C172.501 39.8704 172.767 39.8362 172.992 39.7677C173.217 39.6944 173.413 39.6161 173.579 39.533C173.745 39.445 173.887 39.3667 174.004 39.2983C174.122 39.2249 174.229 39.1883 174.327 39.1883C174.454 39.1883 174.552 39.2372 174.62 39.335L175.068 39.9144C174.882 40.1345 174.672 40.3203 174.437 40.4719C174.202 40.6235 173.953 40.7482 173.689 40.846C173.425 40.9389 173.153 41.0049 172.875 41.044C172.596 41.088 172.325 41.11 172.061 41.11C171.542 41.11 171.061 41.0244 170.616 40.8533C170.175 40.6773 169.792 40.4205 169.464 40.0831C169.141 39.7457 168.887 39.3276 168.701 38.8288C168.52 38.3301 168.43 37.7555 168.43 37.1051C168.43 36.5868 168.51 36.1027 168.672 35.6528C168.838 35.2029 169.073 34.8117 169.376 34.4792C169.684 34.1467 170.056 33.885 170.491 33.6943C170.931 33.4987 171.427 33.4009 171.98 33.4009C172.439 33.4009 172.865 33.4767 173.256 33.6283C173.647 33.775 173.985 33.9926 174.268 34.2811C174.552 34.5696 174.772 34.9242 174.929 35.3447C175.09 35.7604 175.171 36.2347 175.171 36.7677C175.171 37.0122 175.144 37.176 175.09 37.2591C175.036 37.3423 174.938 37.3838 174.796 37.3838H169.992Z" fill="#252631"/>
</svg>
