<svg width="37" height="37" viewBox="0 0 37 37" fill="none" xmlns="http://www.w3.org/2000/svg">
<path fill-rule="evenodd" clip-rule="evenodd" d="M18.582 0.667236C23.3704 0.667236 27.8704 2.5289 31.2504 5.91057C38.237 12.8972 38.237 24.2639 31.2504 31.2506C27.8254 34.6772 23.2137 36.4906 18.542 36.4906C15.9954 36.4906 13.432 35.9522 11.0337 34.8422C10.327 34.5589 9.66536 34.2922 9.19036 34.2922C8.6437 34.2956 7.9087 34.5489 7.1987 34.7939C5.74203 35.2939 3.9287 35.9172 2.58703 34.5806C1.25036 33.2422 1.86703 31.4339 2.3637 29.9789C2.6087 29.2622 2.86036 28.5222 2.86036 27.9622C2.86036 27.5022 2.6387 26.9156 2.2987 26.0706C-0.822969 19.3289 0.620364 11.2039 5.91536 5.91224C9.29536 2.53057 13.7937 0.667236 18.582 0.667236ZM18.5837 3.16724C14.462 3.16724 10.5904 4.77057 7.68203 7.68057C3.12536 12.2339 1.88536 19.2256 4.5937 25.0806C4.9837 26.0456 5.36036 26.9856 5.36036 27.9622C5.36036 28.9372 5.02536 29.9189 4.73036 30.7856C4.48703 31.4989 4.1187 32.5756 4.35536 32.8122C4.58703 33.0522 5.67036 32.6739 6.38536 32.4289C7.2437 32.1356 8.21703 31.7989 9.18203 31.7922C10.1487 31.7922 11.0604 32.1589 12.0254 32.5472C17.937 35.2806 24.9287 34.0372 29.4837 29.4839C35.4937 23.4706 35.4937 13.6889 29.4837 7.6789C26.5737 4.7689 22.7037 3.16724 18.5837 3.16724ZM25.1619 17.6051C26.0819 17.6051 26.8285 18.3501 26.8285 19.2717C26.8285 20.1934 26.0819 20.9384 25.1619 20.9384C24.2419 20.9384 23.4885 20.1934 23.4885 19.2717C23.4885 18.3501 24.2269 17.6051 25.1469 17.6051H25.1619ZM18.4805 17.6051C19.4005 17.6051 20.1472 18.3501 20.1472 19.2717C20.1472 20.1934 19.4005 20.9384 18.4805 20.9384C17.5605 20.9384 16.8072 20.1934 16.8072 19.2717C16.8072 18.3501 17.5439 17.6051 18.4655 17.6051H18.4805ZM11.7985 17.6051C12.7185 17.6051 13.4652 18.3501 13.4652 19.2717C13.4652 20.1934 12.7185 20.9384 11.7985 20.9384C10.8785 20.9384 10.1252 20.1934 10.1252 19.2717C10.1252 18.3501 10.8635 17.6051 11.7835 17.6051H11.7985Z" fill="#009207"/>
</svg>
