<svg width="54" height="50" viewBox="0 0 54 50" fill="none" xmlns="http://www.w3.org/2000/svg">
<g clip-path="url(#clip0_2294_16369)">
<path d="M21.8295 21.1708C20.9437 21.3869 20.0256 21.4085 19.1183 21.4409C15.7698 21.4841 12.3026 20.7604 9.50498 18.8377C9.13773 18.6001 8.82449 18.2868 8.45724 18.0708C7.69034 18.0924 6.91263 18.1464 6.14573 18.1248C6.07011 19.1942 6.01611 20.2635 5.9405 21.3328C5.9405 21.7217 5.67046 22.0997 5.29241 22.1754C4.89275 22.2726 4.54711 21.9917 4.19066 21.8297C3.85581 21.6677 3.53177 21.4841 3.24013 21.2464C2.35441 21.7541 2.53803 23.1151 3.31574 23.6336C3.67219 23.9468 4.36348 23.8388 4.4823 24.3897C4.54711 25.2754 4.44989 26.1827 4.63352 27.0684C5.15199 30.136 7.60392 32.804 10.6499 33.4845C13.3503 34.2406 16.4071 33.3657 18.3622 31.3782C19.788 29.9632 20.6629 27.9865 20.7385 25.9775C20.7709 25.4482 20.7169 24.9189 20.7709 24.3897C20.8249 24.098 21.095 23.9468 21.365 23.8928C21.8727 23.774 22.3155 23.4067 22.4991 22.9099C22.7908 22.2618 22.5532 21.376 21.8295 21.1708Z" fill="#EBFA9E"/>
<path d="M25.8806 0.529265C25.9346 0.151213 26.3342 -0.0324119 26.6799 -7.44802e-06C33.1284 -7.44802e-06 39.5768 -7.44802e-06 46.0145 -7.44802e-06C46.3602 -0.0216104 46.695 0.237625 46.7058 0.583272C46.7274 1.04774 46.7058 1.523 46.7166 1.98746C47.7428 1.98746 48.7581 1.98746 49.7842 1.98746C50.2163 1.98746 50.6591 1.96586 51.0804 2.09548C51.9769 2.33311 52.7222 3.05681 53.0031 3.94253C53.1651 4.4286 53.1435 4.93626 53.1435 5.44393C53.1435 17.1851 53.1435 28.9263 53.1435 40.6675C53.1759 42.1581 51.8365 43.4975 50.3459 43.4543C42.1584 43.4543 33.9817 43.4543 25.7942 43.4543C25.7942 45.3338 25.7942 47.2132 25.7942 49.0819C25.7942 49.3087 25.805 49.5787 25.6321 49.7624C25.4701 49.9676 25.2001 49.9892 24.9625 49.9892C16.8938 49.9892 8.82506 49.9892 0.756367 49.9892C0.367514 50.0324 -0.0213391 49.7192 0.0110653 49.3087C0.000263864 47.4292 0.0110653 45.5606 0.000263864 43.6811C-0.0213391 41.6397 1.28564 39.663 3.15429 38.8529C4.80692 38.1508 6.44874 37.4487 8.10137 36.7358C8.10137 35.7853 8.11217 34.8239 8.09056 33.8734C5.96267 32.7284 4.33165 30.6978 3.62956 28.3863C3.28391 27.3061 3.1867 26.1611 3.2083 25.027C2.58181 24.757 2.02014 24.3033 1.7069 23.6984C1.18843 22.7587 1.22083 21.4949 1.93373 20.6632C2.19296 20.35 2.54941 20.1339 2.91666 19.9719C2.98147 18.2221 2.76544 16.4398 3.2191 14.7332C3.86719 12.1084 5.68184 9.78612 8.09056 8.56556C9.64598 7.74465 11.4282 7.3774 13.1889 7.50701C15.0575 7.62583 16.883 8.32793 18.3736 9.46208C18.3844 7.86346 18.3628 6.26484 18.3844 4.67703C18.406 3.27284 19.6589 2.01987 21.0631 1.99826C22.6725 1.98746 24.2712 1.99826 25.8806 1.98746C25.8806 1.5122 25.8374 1.01533 25.8806 0.529265ZM27.1984 1.32857C27.1552 2.12788 27.1552 2.92719 27.1984 3.7157C33.2688 3.7157 39.3392 3.7265 45.4096 3.7157C45.442 2.91639 45.442 2.11708 45.4096 1.31777C42.45 1.28537 39.4796 1.31777 36.52 1.30697C33.4092 1.31777 30.2984 1.27457 27.1984 1.32857ZM19.7994 4.19096C19.6265 4.54741 19.6697 4.95787 19.6589 5.34672C19.6697 7.11816 19.6481 8.8896 19.6697 10.661C20.6095 11.7952 21.3872 13.0914 21.7652 14.5388C22.2837 16.2886 22.0677 18.1249 22.1109 19.9287C22.5537 20.0691 22.975 20.2852 23.2774 20.6416C24.0335 21.4625 24.0767 22.7695 23.5475 23.7308C23.2234 24.3357 22.6725 24.8002 22.0461 25.0594C22.1757 27.5545 21.3332 30.0821 19.6589 31.9399C19.6589 33.8302 19.6589 35.7205 19.6589 37.6107C20.6311 38.0212 21.6032 38.4424 22.5753 38.8529C23.9795 39.4578 25.0921 40.6999 25.5457 42.1689C33.7765 42.1905 41.9964 42.1689 50.2271 42.1797C51.1128 42.2553 51.9121 41.456 51.8473 40.5703C51.8473 28.8723 51.8473 17.1743 51.8473 5.46554C51.8365 5.01187 51.8905 4.53661 51.6745 4.12615C51.4261 3.64009 50.886 3.30524 50.3351 3.31604C49.1361 3.30524 47.9264 3.31604 46.7274 3.31604C46.7166 3.7049 46.749 4.10455 46.7166 4.4934C46.6842 4.82825 46.3494 5.06588 46.0253 5.03348C39.5444 5.03348 33.0528 5.03348 26.5719 5.03348C26.2478 5.06588 25.913 4.81745 25.8806 4.4826C25.8482 4.09375 25.8698 3.7049 25.8698 3.31604C24.3036 3.31604 22.7266 3.30524 21.1603 3.31604C20.5879 3.29444 20.0262 3.66169 19.7994 4.19096ZM10.2509 9.10563C7.41007 9.88334 5.09856 12.3029 4.45047 15.1761C4.13723 16.4074 4.24524 17.6928 4.23444 18.9566C4.24524 19.421 4.20203 19.8855 4.25604 20.3392C4.34245 20.4904 4.54768 20.512 4.6773 20.6092C4.80692 19.5182 4.78531 18.4273 4.91493 17.3364C4.94734 16.9799 5.31459 16.8611 5.60623 16.7747C5.94107 16.8179 6.26511 16.8395 6.59996 16.8287C8.80346 16.7963 11.007 16.5478 13.1456 15.997C14.7659 15.5649 16.3537 14.9708 17.7255 13.9879C17.9847 13.8151 18.2547 13.5666 18.5896 13.6531C18.946 13.7071 19.1837 14.1175 19.0649 14.4524C18.9784 14.7008 18.7408 14.8628 18.5464 15.014C16.7209 16.2994 14.5822 17.0339 12.422 17.5092C11.7739 17.6604 11.115 17.7144 10.4777 17.8764C11.9251 18.881 13.6425 19.4534 15.3492 19.8099C17.153 20.1447 19.0108 20.2419 20.8363 20.0151C20.8471 19.0754 20.8363 18.1465 20.8471 17.2175C20.8579 15.943 20.5987 14.6576 20.037 13.5126C19.1837 11.7304 17.6715 10.2614 15.8568 9.47288C14.107 8.71678 12.0763 8.56556 10.2509 9.10563ZM6.1463 18.1249C6.07069 19.1942 6.01668 20.2635 5.94107 21.3329C5.94107 21.7217 5.67103 22.0998 5.29298 22.1754C4.89333 22.2726 4.53688 21.9918 4.19123 21.8298C3.85639 21.6677 3.53234 21.4841 3.2407 21.2465C2.35498 21.7542 2.53861 23.1151 3.31631 23.6336C3.67276 23.936 4.36406 23.8388 4.48287 24.3897C4.54768 25.2754 4.45047 26.1828 4.63409 27.0685C5.15256 30.1361 7.6045 32.8041 10.6505 33.4846C13.3509 34.2407 16.4077 33.3657 18.3628 31.3783C19.7886 29.9633 20.6635 27.9866 20.7391 25.9775C20.7715 25.4483 20.7175 24.919 20.7715 24.3897C20.8255 24.0981 21.1063 23.9468 21.3656 23.8928C21.8732 23.774 22.3161 23.4068 22.4997 22.9099C22.7806 22.2726 22.5429 21.3761 21.8192 21.1709C20.9335 21.3869 20.0154 21.4085 19.1081 21.4409C15.7596 21.4841 12.2923 20.7604 9.49475 18.8378C9.1275 18.6109 8.81426 18.2869 8.44701 18.0709C7.69091 18.0817 6.9132 18.1357 6.1463 18.1249ZM17.6931 33.6142C17.7039 34.6619 17.6931 35.7097 17.6931 36.7574C17.9199 36.8546 18.1359 36.9518 18.3628 37.0382C18.3628 35.7313 18.3628 34.4351 18.3628 33.1281C18.1467 33.2901 17.9199 33.4521 17.6931 33.6142ZM10.8989 34.9211C10.3913 34.8131 9.88361 34.6727 9.39754 34.4999C9.39754 35.2128 9.38674 35.9149 9.40834 36.6278C9.89441 36.8114 10.4021 36.9734 10.9097 37.0922C12.7352 37.4919 14.6687 37.3191 16.3969 36.6278C16.3969 35.8501 16.3969 35.0832 16.3969 34.3055C14.6795 35.0292 12.746 35.256 10.8989 34.9211ZM8.70625 37.9024C7.04282 38.6152 5.37939 39.3281 3.70517 40.041C2.24697 40.6567 1.24243 42.2121 1.29644 43.8C1.30724 45.431 1.29644 47.0728 1.29644 48.7038C2.16056 48.7038 3.02467 48.7038 3.88879 48.7038C10.7477 48.7038 17.6175 48.693 24.4764 48.7146C24.5088 47.0728 24.4764 45.4418 24.4872 43.8C24.5412 42.1905 23.5043 40.6243 22.0245 40.0194C20.307 39.2957 18.5896 38.5396 16.8722 37.8267C14.6146 38.7665 12.0223 38.8529 9.69998 38.1184C9.37594 38.032 9.04109 37.7403 8.70625 37.9024Z" fill="#1C2436"/>
<path d="M28.8936 8.87886C30.6651 8.58722 32.5337 8.99767 34.0027 10.013C35.2665 10.8555 36.2386 12.1193 36.7355 13.5559C37.2972 15.1329 37.2756 16.8935 36.6707 18.4598C36.0658 20.0692 34.8344 21.441 33.3114 22.2403C31.8856 22.9856 30.2006 23.234 28.6236 22.91C27.1006 22.6075 25.6964 21.7974 24.6811 20.6309C23.6441 19.4535 22.996 17.9305 22.9096 16.3535C22.8016 14.7225 23.2769 13.0698 24.2382 11.752C25.3183 10.229 27.0358 9.1705 28.8936 8.87886ZM29.088 10.175C26.9386 10.4775 25.0591 12.1301 24.4434 14.2148C23.9898 15.6622 24.141 17.2932 24.8539 18.6326C25.61 20.0908 27.0142 21.2033 28.6128 21.5814C30.9891 22.2187 33.6787 21.1169 34.9532 19.0214C35.839 17.6172 36.0766 15.8242 35.5905 14.2364C35.1909 12.8754 34.262 11.6872 33.0522 10.9527C31.8856 10.229 30.449 9.9266 29.088 10.175Z" fill="#1C2436"/>
<path d="M39.0368 10.4558C39.4473 10.3153 40.0738 10.2721 40.3114 10.7258C40.5166 11.0931 40.2682 11.6115 39.8469 11.6547C39.5337 11.6763 39.1448 11.7303 38.8964 11.4819C38.594 11.2011 38.6696 10.6502 39.0368 10.4558Z" fill="#1C2436"/>
<path d="M42.2565 10.4342C42.4509 10.3586 42.6777 10.3802 42.883 10.3694C44.3196 10.3802 45.7561 10.3586 47.1927 10.3802C47.5816 10.3802 47.884 10.8014 47.7868 11.1687C47.722 11.4819 47.4088 11.6872 47.0955 11.6656C45.6589 11.6764 44.2223 11.6656 42.7749 11.6656C42.5157 11.6656 42.2241 11.6656 42.0404 11.4495C41.7596 11.1579 41.8676 10.5962 42.2565 10.4342Z" fill="#1C2436"/>
<path d="M32.8363 13.113C33.1387 12.7565 33.776 12.8861 33.9164 13.3398C34.0352 13.6422 33.8624 13.9447 33.6464 14.1391C32.145 15.6297 30.6544 17.1203 29.1638 18.6217C29.0125 18.7621 28.8505 18.9241 28.6345 18.9349C28.2888 18.9781 28.0512 18.6757 27.8244 18.4597C27.3167 17.9304 26.7766 17.4227 26.269 16.8827C25.9881 16.6234 26.0205 16.1266 26.3446 15.9105C26.593 15.7269 26.9603 15.7593 27.1763 15.9753C27.6623 16.429 28.1052 16.9259 28.6021 17.3579C29.9955 15.9429 31.4105 14.5279 32.8363 13.113Z" fill="#1C2436"/>
<path d="M39.0371 15.8673C39.2531 15.7485 39.5232 15.7917 39.7608 15.7809C41.165 15.7917 42.5692 15.7701 43.9734 15.7917C44.4054 15.7809 44.7295 16.2669 44.5674 16.6558C44.4702 16.9474 44.157 17.1095 43.8654 17.0771C42.3315 17.0663 40.7977 17.0987 39.2639 17.0663C38.6698 17.0123 38.5078 16.1265 39.0371 15.8673Z" fill="#1C2436"/>
<path d="M46.4683 15.8349C46.868 15.7377 47.4404 15.6729 47.7105 16.0726C47.9697 16.4398 47.7213 17.0015 47.2784 17.0555C46.9436 17.0771 46.5223 17.1419 46.2739 16.8611C45.9714 16.5586 46.0794 15.997 46.4683 15.8349Z" fill="#1C2436"/>
<path d="M37.7403 21.3653C38.1723 21.2141 38.6584 21.3221 39.1121 21.2897C39.4685 21.3005 39.933 21.2141 40.1706 21.5705C40.473 21.9594 40.149 22.5967 39.6629 22.5751C39.0689 22.5751 38.464 22.6183 37.8699 22.5535C37.3082 22.4347 37.2326 21.603 37.7403 21.3653Z" fill="#1C2436"/>
<path d="M42.1469 21.3545C42.3089 21.2897 42.4925 21.3005 42.6653 21.2897C44.0695 21.2897 45.4737 21.2897 46.8779 21.2897C47.1263 21.3005 47.418 21.2789 47.6016 21.4733C47.8824 21.7217 47.8608 22.2186 47.5584 22.4454C47.364 22.6075 47.1047 22.5858 46.8779 22.5966C45.3657 22.5858 43.8535 22.6075 42.3413 22.5858C41.7148 22.5534 41.5636 21.5813 42.1469 21.3545Z" fill="#1C2436"/>
<path d="M25.0918 28.3863C25.2754 28.2783 25.5022 28.3107 25.7075 28.2999C26.8308 28.3107 27.9434 28.2999 29.0559 28.3107C29.4232 28.2783 29.758 28.6347 29.7256 29.002C29.704 29.3368 29.3908 29.6176 29.0559 29.596C27.8138 29.596 26.5608 29.6176 25.3186 29.5852C24.7245 29.5528 24.5625 28.6455 25.0918 28.3863Z" fill="#1C2436"/>
<path d="M31.5734 28.3755C31.9407 28.2567 32.3511 28.2675 32.7184 28.3647C33.2152 28.5591 33.2152 29.3368 32.7292 29.542C32.3835 29.65 31.9839 29.6392 31.6382 29.5528C31.1306 29.38 31.0982 28.6023 31.5734 28.3755Z" fill="#1C2436"/>
<path d="M34.3929 28.3971C34.5765 28.2891 34.7926 28.3107 34.9978 28.2999C37.7738 28.3107 40.5498 28.2999 43.3149 28.3107C43.7146 28.2891 44.0386 28.7103 43.9414 29.0992C43.8766 29.4232 43.5418 29.6284 43.2177 29.6068C40.4417 29.6068 37.6658 29.6068 34.8898 29.6068C34.6414 29.6176 34.3713 29.5636 34.2201 29.3476C33.9717 29.056 34.0689 28.5807 34.3929 28.3971Z" fill="#1C2436"/>
<path d="M45.2802 28.3646C45.9066 28.2458 46.5655 28.3214 47.2028 28.3106C47.7105 28.3106 48.0021 28.9803 47.6673 29.3476C47.3432 29.7364 46.7816 29.5528 46.3387 29.596C45.9174 29.5528 45.4098 29.7148 45.0749 29.38C44.7725 29.0883 44.8913 28.5267 45.2802 28.3646Z" fill="#1C2436"/>
<path d="M25.1029 34.8671C25.2866 34.7699 25.5134 34.7915 25.7186 34.7807C27.9545 34.7915 30.1796 34.7807 32.4155 34.7915C32.7936 34.7591 33.15 35.1047 33.1068 35.4936C33.0852 35.8392 32.7612 36.1201 32.4155 36.0877C30.104 36.0877 27.7925 36.0877 25.4918 36.0877C25.2542 36.0985 24.9949 36.0013 24.8653 35.796C24.6601 35.4828 24.7789 35.0291 25.1029 34.8671Z" fill="#1C2436"/>
<path d="M35.0186 34.8563C35.2454 34.7591 35.5046 34.7915 35.7531 34.7807C36.8008 34.7915 37.8377 34.7699 38.8855 34.7915C39.2743 34.8023 39.5768 35.2236 39.4688 35.5908C39.404 35.8933 39.0907 36.0985 38.7883 36.0769C37.6001 36.0769 36.4228 36.0877 35.2346 36.0661C34.6189 36.0337 34.4569 35.0939 35.0186 34.8563Z" fill="#1C2436"/>
<path d="M40.3324 34.8671C40.6132 34.7267 40.9589 34.7699 41.2613 34.8023C41.6934 34.8671 41.9202 35.418 41.6718 35.7745C41.4233 36.1741 40.8833 36.0985 40.4836 36.0553C39.9435 35.9365 39.8463 35.1156 40.3324 34.8671Z" fill="#1C2436"/>
<path d="M43.1407 34.8671C43.3568 34.7591 43.616 34.7915 43.8536 34.7807C44.9662 34.7915 46.0895 34.7699 47.2021 34.7915C47.5909 34.7915 47.8934 35.2128 47.7854 35.58C47.7206 35.8933 47.4073 36.0985 47.1049 36.0769C45.8519 36.0661 44.5881 36.0985 43.3244 36.0661C42.7519 35.9905 42.6115 35.1155 43.1407 34.8671Z" fill="#1C2436"/>
<path d="M27.198 1.32862C30.298 1.28541 33.4088 1.31782 36.5088 1.30702C39.4684 1.31782 42.4388 1.28541 45.3984 1.31782C45.4308 2.11713 45.4308 2.91644 45.3984 3.71575C39.328 3.73735 33.2576 3.72655 27.1872 3.71575C27.1548 2.91644 27.1548 2.12793 27.198 1.32862Z" fill="#E7D6FF"/>
<path d="M19.7995 4.19094C20.0263 3.66166 20.588 3.29441 21.1605 3.30522C22.7267 3.29441 24.2929 3.30522 25.8699 3.30522C25.8699 3.69407 25.8483 4.08292 25.8807 4.47177C25.9131 4.80662 26.2372 5.04425 26.572 5.02265C33.0529 5.02265 39.5446 5.02265 46.0255 5.02265C46.3495 5.05505 46.6844 4.80662 46.7168 4.48258C46.7492 4.09372 46.7276 3.69407 46.7276 3.30522C47.9265 3.30522 49.1363 3.29441 50.3353 3.30522C50.8861 3.30522 51.4154 3.62926 51.6746 4.11533C51.9015 4.52578 51.8475 5.00105 51.8475 5.45471C51.8475 17.1527 51.8475 28.8615 51.8475 40.5595C51.9123 41.4452 51.113 42.2337 50.2273 42.1689C42.0073 42.1581 33.7766 42.1797 25.5459 42.1581C25.0922 40.6999 23.9797 39.4469 22.5755 38.842C21.6034 38.4316 20.6312 38.0103 19.6591 37.5999C19.6483 35.7096 19.6591 33.8194 19.6591 31.9291C21.3333 30.0713 22.1758 27.5437 22.0462 25.0486C22.6727 24.7785 23.2236 24.3249 23.5476 23.72C24.0769 22.7587 24.0337 21.4625 23.2776 20.6308C22.9751 20.2743 22.5431 20.0583 22.111 19.9179C22.0678 18.1248 22.2839 16.2778 21.7654 14.5279C21.3873 13.0913 20.6096 11.7952 19.6699 10.6502C19.6375 8.87877 19.6699 7.10733 19.6591 5.33589C19.6699 4.95784 19.6375 4.54738 19.7995 4.19094ZM28.8944 8.87877C27.0473 9.17041 25.3191 10.229 24.2389 11.752C23.2776 13.0697 22.8023 14.7332 22.9103 16.3534C22.9968 17.9196 23.634 19.4534 24.6818 20.6308C25.7079 21.7865 27.1121 22.6074 28.6243 22.9099C30.2013 23.2339 31.8864 22.9855 33.3122 22.2402C34.846 21.4517 36.0665 20.0799 36.6714 18.4597C37.2655 16.9043 37.2979 15.1328 36.7362 13.5558C36.2394 12.1192 35.2672 10.8662 34.0034 10.0129C32.5344 9.00839 30.655 8.59793 28.8944 8.87877ZM39.0369 10.4558C38.6697 10.6502 38.5941 11.2011 38.8965 11.4819C39.1449 11.7304 39.523 11.6764 39.847 11.6548C40.2683 11.6007 40.5167 11.0931 40.3115 10.7258C40.0739 10.2722 39.4474 10.3154 39.0369 10.4558ZM42.2558 10.4342C41.8669 10.5962 41.7589 11.1579 42.0505 11.4603C42.2342 11.6764 42.5258 11.6764 42.785 11.6764C44.2216 11.6656 45.6582 11.6764 47.1056 11.6764C47.4189 11.698 47.7321 11.4927 47.7969 11.1795C47.8941 10.8122 47.5917 10.391 47.2028 10.391C45.7662 10.3694 44.3297 10.391 42.8931 10.3802C42.677 10.3802 42.4502 10.3586 42.2558 10.4342ZM39.0369 15.8673C38.5185 16.1266 38.6697 17.0123 39.2638 17.0663C40.7976 17.0987 42.3314 17.0663 43.8652 17.0771C44.1568 17.0987 44.4701 16.9367 44.5673 16.6558C44.7293 16.267 44.4053 15.7809 43.9732 15.7917C42.569 15.7701 41.1648 15.7917 39.7606 15.7809C39.5122 15.7809 39.253 15.7485 39.0369 15.8673ZM46.4683 15.8349C46.0795 15.9969 45.9715 16.5586 46.2631 16.8611C46.5223 17.1419 46.9328 17.0879 47.2677 17.0555C47.7105 17.0015 47.9589 16.4398 47.6997 16.0726C47.4405 15.6729 46.868 15.7377 46.4683 15.8349ZM37.7408 21.3653C37.2331 21.6029 37.3087 22.4238 37.8596 22.5534C38.4537 22.6182 39.0585 22.575 39.6526 22.575C40.1495 22.5966 40.4627 21.9594 40.1603 21.5705C39.9335 21.214 39.469 21.2897 39.1017 21.2897C38.6589 21.3221 38.1728 21.2141 37.7408 21.3653ZM42.1478 21.3545C41.5645 21.5813 41.7157 22.5642 42.353 22.575C43.8652 22.5966 45.3774 22.575 46.8896 22.5858C47.1164 22.5858 47.3865 22.6074 47.5701 22.4346C47.8725 22.2078 47.8833 21.7109 47.6133 21.4625C47.4297 21.2681 47.138 21.2789 46.8896 21.2789C45.4854 21.2789 44.0812 21.2789 42.677 21.2789C42.4934 21.3005 42.3098 21.2897 42.1478 21.3545ZM25.0922 28.3862C24.563 28.6455 24.725 29.5528 25.3191 29.5852C26.5612 29.6176 27.8142 29.596 29.0564 29.596C29.3912 29.6068 29.7045 29.3368 29.7261 29.0019C29.7585 28.6347 29.4344 28.2782 29.0564 28.3106C27.933 28.2998 26.8205 28.3106 25.7079 28.2998C25.5027 28.3106 25.2759 28.289 25.0922 28.3862ZM31.5731 28.3754C31.087 28.6023 31.1303 29.38 31.6379 29.5528C31.9944 29.6284 32.3832 29.65 32.7289 29.542C33.2149 29.3368 33.2149 28.559 32.7181 28.3646C32.3508 28.2674 31.9404 28.2566 31.5731 28.3754ZM34.3923 28.397C34.0683 28.5807 33.971 29.0559 34.2087 29.3476C34.3599 29.5636 34.6407 29.6068 34.8784 29.6068C37.6543 29.6068 40.4303 29.6068 43.2063 29.6068C43.5303 29.6392 43.8652 29.434 43.93 29.0991C44.0272 28.7211 43.7032 28.289 43.3035 28.3106C40.5275 28.2998 37.7624 28.3106 34.9864 28.2998C34.792 28.3106 34.5759 28.289 34.3923 28.397ZM45.2802 28.3646C44.8913 28.5266 44.7725 29.0991 45.075 29.3908C45.4098 29.7256 45.9175 29.5636 46.3387 29.6068C46.7708 29.5636 47.3433 29.7472 47.6673 29.3584C48.0021 28.9803 47.7105 28.3106 47.2028 28.3214C46.5656 28.3214 45.9067 28.2458 45.2802 28.3646ZM25.103 34.8671C24.779 35.0291 24.6602 35.4828 24.8654 35.7852C24.995 36.0013 25.2435 36.0985 25.4919 36.0769C27.8034 36.0769 30.1041 36.0769 32.4156 36.0769C32.7613 36.0985 33.0853 35.8284 33.1069 35.4828C33.1501 35.0939 32.7937 34.7483 32.4156 34.7807C30.1797 34.7699 27.9546 34.7807 25.7187 34.7699C25.5027 34.7807 25.2867 34.7591 25.103 34.8671ZM35.0188 34.8563C34.4571 35.0939 34.6083 36.0337 35.224 36.0661C36.4122 36.0877 37.5895 36.0661 38.7777 36.0769C39.0909 36.0985 39.3934 35.8932 39.4582 35.5908C39.5662 35.2236 39.2638 34.8023 38.8749 34.7915C37.8272 34.7591 36.7902 34.7915 35.7425 34.7807C35.5049 34.7807 35.2456 34.7483 35.0188 34.8563ZM40.3331 34.8671C39.847 35.1155 39.9443 35.9365 40.4843 36.0445C40.884 36.0877 41.4241 36.1633 41.6725 35.7636C41.9209 35.4072 41.6833 34.8563 41.262 34.7915C40.9596 34.7699 40.6139 34.7375 40.3331 34.8671ZM43.1415 34.8671C42.623 35.1155 42.7526 35.9905 43.3251 36.0661C44.5781 36.0985 45.8419 36.0769 47.1056 36.0769C47.4189 36.0985 47.7213 35.8932 47.7861 35.58C47.8833 35.2128 47.5917 34.7915 47.2028 34.7915C46.0903 34.7591 44.9669 34.7915 43.8544 34.7807C43.6168 34.7915 43.3575 34.7483 43.1415 34.8671Z" fill="#FFEFEB"/>
<path d="M20.8243 17.2175C20.8243 15.9429 20.5651 14.6575 20.0142 13.5126C19.1609 11.7303 17.6487 10.2613 15.834 9.47284C14.095 8.70594 12.0643 8.55472 10.2389 9.09479C7.39807 9.87249 5.08655 12.292 4.43846 15.1652C4.12522 16.3966 4.23323 17.682 4.22243 18.9457C4.23323 19.4102 4.19003 19.8747 4.24404 20.3283C4.33045 20.4795 4.53568 20.5011 4.66529 20.5984C4.79491 19.5074 4.77331 18.4165 4.90293 17.3255C4.93533 16.9691 5.30258 16.8502 5.59422 16.7638C5.92906 16.807 6.26391 16.8286 6.58795 16.8178C8.79145 16.7854 11.0058 16.537 13.1336 15.9861C14.7539 15.5541 16.3417 14.96 17.7135 13.9771C17.9727 13.8042 18.2427 13.5558 18.5776 13.6422C18.934 13.6962 19.1717 14.1067 19.0528 14.4415C18.9664 14.69 18.7288 14.852 18.5344 15.0032C16.7089 16.2886 14.5702 17.0231 12.3991 17.4983C11.7511 17.6496 11.0922 17.7036 10.4549 17.8656C11.9023 18.8701 13.6197 19.4426 15.3263 19.799C17.1302 20.1231 18.988 20.2311 20.8135 20.0043C20.8351 19.0861 20.8243 18.1464 20.8243 17.2175Z" fill="#FFF7D6"/>
<path d="M35.6019 14.2363C35.2022 12.8753 34.2733 11.6872 33.0635 10.9527C31.897 10.2398 30.4496 9.93732 29.0994 10.1749C26.9499 10.4774 25.0705 12.13 24.4548 14.2147C24.0011 15.6621 24.1523 17.2931 24.8652 18.6325C25.6213 20.0907 27.0255 21.2032 28.6241 21.5813C31.0005 22.2186 33.69 21.1168 34.9646 19.0214C35.8503 17.6064 36.088 15.8241 35.6019 14.2363ZM33.6468 14.1391C32.1562 15.6297 30.6548 17.1203 29.1642 18.6217C29.013 18.7621 28.851 18.9241 28.6349 18.9349C28.2893 18.9781 28.0517 18.6757 27.8248 18.4597C27.3172 17.9304 26.7771 17.4227 26.2694 16.8827C25.9886 16.6234 26.021 16.1266 26.345 15.9105C26.5935 15.7269 26.9607 15.7485 27.1767 15.9753C27.6628 16.429 28.0949 16.9259 28.6025 17.3579C30.0175 15.9429 31.4217 14.5171 32.8475 13.1129C33.15 12.7565 33.7872 12.8861 33.9277 13.329C34.0357 13.6314 33.8629 13.9339 33.6468 14.1391Z" fill="#4DF189"/>
<path d="M10.8986 34.9212C10.391 34.8131 9.8833 34.6727 9.39723 34.4999C9.39723 35.2128 9.38643 35.9149 9.40803 36.6278C9.8941 36.8114 10.4018 36.9734 10.9094 37.0923C12.7349 37.4919 14.6683 37.3191 16.3966 36.6278C16.3966 35.8501 16.3966 35.0832 16.3966 34.3055C14.6792 35.0292 12.7457 35.256 10.8986 34.9212Z" fill="#FFEFEB"/>
<path d="M22.0358 40.0086C20.3184 39.2849 18.601 38.5288 16.8835 37.8159C14.626 38.7556 12.0337 38.8421 9.71134 38.1076C9.3873 38.0319 9.05245 37.7403 8.70681 37.9023C7.04338 38.6152 5.37995 39.3281 3.70573 40.041C2.24753 40.6567 1.24299 42.2121 1.297 43.7999C1.3078 45.431 1.297 47.0728 1.297 48.7038C2.16112 48.7038 3.02523 48.7038 3.88935 48.7038C10.7483 48.7038 17.618 48.693 24.477 48.7146C24.5094 47.0728 24.477 45.4418 24.4878 43.7999C24.5526 42.1905 23.5156 40.6135 22.0358 40.0086Z" fill="#E7D6FF"/>
</g>
<defs>
<clipPath id="clip0_2294_16369">
<rect width="53.1432" height="50" fill="white"/>
</clipPath>
</defs>
</svg>
