<svg width="40" height="38" viewBox="0 0 40 38" fill="none" xmlns="http://www.w3.org/2000/svg">
<path d="M3.36871 8.62248C3.45871 8.91185 3.57871 9.19998 3.72621 9.47873L3.88746 9.78248L3.18121 11.0194L4.27371 12.1125L5.51059 11.4069L5.81434 11.5675C6.09371 11.7156 6.38184 11.8356 6.67059 11.9244L6.99809 12.0256L7.37371 13.3962H8.91934L9.29496 12.0256L9.62246 11.9244C9.91246 11.835 10.2006 11.715 10.4787 11.5675L10.7818 11.4069L12.0193 12.1125L13.1118 11.0194L12.4056 9.78248L12.5668 9.47873C12.7143 9.19998 12.835 8.91185 12.9243 8.62248L13.025 8.29435L14.3956 7.91935V6.3731L13.025 5.99873L12.9237 5.6706C12.8343 5.38123 12.7143 5.0931 12.5668 4.81498L12.4056 4.51123L13.1118 3.27435L12.02 2.18123L10.7825 2.88685L10.4793 2.72623C10.2 2.5781 9.91184 2.4581 9.62309 2.36873L9.29559 2.26748L8.91996 0.896851H7.37434L6.99871 2.26748L6.67121 2.36873C6.38371 2.45748 6.09559 2.57748 5.81496 2.72623L5.51059 2.88685L4.27371 2.18123L3.18121 3.27435L3.88746 4.51123L3.72621 4.8156C3.57871 5.09373 3.45809 5.38185 3.36934 5.67123L3.26809 5.99935L1.89746 6.37373V7.91998L3.26809 8.29498L3.36871 8.62248ZM8.14684 4.02185C9.87246 4.02185 11.2718 5.42123 11.2718 7.14685C11.2718 8.87248 9.87246 10.2719 8.14684 10.2719C6.42121 10.2719 5.02184 8.87248 5.02184 7.14685C5.02184 5.42123 6.42121 4.02185 8.14684 4.02185Z" fill="#DC3E16"/>
<path d="M32.5 25.875C29.3981 25.875 26.875 28.3981 26.875 31.5C26.875 34.6019 29.3981 37.125 32.5 37.125C35.6019 37.125 38.125 34.6019 38.125 31.5C38.125 28.3981 35.6019 25.875 32.5 25.875ZM30.625 34.8838L28.9331 33.1919L29.8169 32.3081L30.625 33.1162L35.1831 28.5581L36.0669 29.4419L30.625 34.8838Z" fill="#DC3E16"/>
<path d="M35 6.5H33.125V5.875C33.125 4.84125 32.2838 4 31.25 4H21.25C20.2162 4 19.375 4.84125 19.375 5.875V6.5H15.625V7.75H19.375V8.375C19.375 9.40875 20.2162 10.25 21.25 10.25H31.25C32.2838 10.25 33.125 9.40875 33.125 8.375V7.75H35C36.7231 7.75 38.125 9.15188 38.125 10.875V15.25C38.125 16.9731 36.7231 18.375 35 18.375H26.875V17.75C26.875 16.7163 26.0338 15.875 25 15.875H15C13.9663 15.875 13.125 16.7163 13.125 17.75V18.375H5C2.58812 18.375 0.625 20.3381 0.625 22.75V27.75C0.625 30.1619 2.58812 32.125 5 32.125H6.875V32.75C6.875 33.7838 7.71625 34.625 8.75 34.625H18.75C19.7838 34.625 20.625 33.7838 20.625 32.75V32.125H25.6562C25.6375 31.9188 25.625 31.7113 25.625 31.5C25.625 31.2887 25.6381 31.0812 25.6562 30.875H20.625V30.25C20.625 29.2162 19.7838 28.375 18.75 28.375H8.75C7.71625 28.375 6.875 29.2162 6.875 30.25V30.875H5C3.27688 30.875 1.875 29.4731 1.875 27.75V22.75C1.875 21.0269 3.27688 19.625 5 19.625H13.125V20.25C13.125 21.2838 13.9663 22.125 15 22.125H25C26.0338 22.125 26.875 21.2838 26.875 20.25V19.625H35C37.4119 19.625 39.375 17.6625 39.375 15.25V10.875C39.375 8.4625 37.4119 6.5 35 6.5ZM23.125 7.75H21.875V6.5H23.125V7.75ZM25.625 7.75H24.375V6.5H25.625V7.75ZM28.125 7.75H26.875V6.5H28.125V7.75ZM30.625 7.75H29.375V6.5H30.625V7.75ZM16.875 30.875H18.125V32.125H16.875V30.875ZM14.375 30.875H15.625V32.125H14.375V30.875ZM11.875 30.875H13.125V32.125H11.875V30.875ZM9.375 30.875H10.625V32.125H9.375V30.875ZM16.875 19.625H15.625V18.375H16.875V19.625ZM19.375 19.625H18.125V18.375H19.375V19.625ZM21.875 19.625H20.625V18.375H21.875V19.625ZM24.375 19.625H23.125V18.375H24.375V19.625Z" fill="#DC3E16"/>
</svg>
