<svg width="40" height="40" viewBox="0 0 40 40" fill="none" xmlns="http://www.w3.org/2000/svg">
<path d="M14.3182 16.371H20.0226H25.7271C26.3467 16.371 26.8485 15.8672 26.8485 15.245V14.0179C26.8485 10.7997 24.2928 8.02028 20.8106 8.02028C22.6496 7.65262 24.0361 6.02364 24.0361 4.0684C24.0361 1.84301 22.2389 0.0391846 20.0226 0.0391846C17.8064 0.0391846 16.0092 1.84301 16.0092 4.0684C16.0092 6.02364 17.3957 7.65262 19.2347 8.02028C15.757 8.02028 13.1968 10.7954 13.1968 14.0179V15.245C13.1969 15.8671 13.6986 16.371 14.3182 16.371Z" fill="#C09D0A"/>
<path d="M5.04031 19.5131C5.11125 19.526 5.18164 19.5323 5.25125 19.5323C5.80594 19.5323 6.29867 19.1346 6.40157 18.5671C6.68977 16.977 7.23539 15.4319 8.02321 13.9749C8.78352 12.5689 9.73696 11.3063 10.857 10.2221C11.3225 9.77165 11.3361 9.02751 10.8874 8.56009C10.4388 8.09275 9.69774 8.07908 9.23227 8.52955C7.93953 9.78087 6.84047 11.2356 5.96578 12.8532C5.0593 14.5296 4.43094 16.3104 4.09821 18.1462C3.9825 18.7849 4.4043 19.3968 5.04031 19.5131Z" fill="#C09D0A"/>
<path d="M32.0217 13.9748C32.8095 15.4319 33.3551 16.9769 33.6433 18.567C33.7462 19.1346 34.2389 19.5322 34.7936 19.5322C34.8631 19.5322 34.9337 19.5259 35.0046 19.513C35.6406 19.3967 36.0624 18.7848 35.9466 18.1461C35.6138 16.3103 34.9855 14.5295 34.079 12.8531C33.2043 11.2355 32.1053 9.7807 30.8125 8.52945C30.3471 8.07891 29.606 8.09266 29.1574 8.56C28.7087 9.02742 28.7224 9.77148 29.1878 10.222C30.3079 11.3062 31.2614 12.5688 32.0217 13.9748Z" fill="#C09D0A"/>
<path d="M24.7518 28.4908C23.2418 28.9892 21.6514 29.2446 20.0228 29.2501C20.0017 29.2509 19.9799 29.2509 19.9588 29.2509C18.3661 29.2509 16.8054 29.0119 15.3219 28.541C14.7054 28.345 14.0483 28.6882 13.8532 29.3073C13.6581 29.9263 13.9999 30.5861 14.6164 30.782C16.3285 31.3258 18.1257 31.6016 19.9588 31.6016H20.0228C21.9004 31.5946 23.7365 31.2999 25.4823 30.7239C26.0964 30.5217 26.4312 29.8573 26.2291 29.2406C26.0277 28.624 25.3659 28.2878 24.7518 28.4908Z" fill="#C09D0A"/>
<path d="M7.61367 31.6102C9.45273 31.2424 10.8393 29.6129 10.8393 27.6583C10.8393 25.4329 9.04211 23.6283 6.82586 23.6283C4.60961 23.6283 2.81242 25.4329 2.81242 27.6583C2.81242 29.6129 4.19898 31.2424 6.03805 31.6102C2.56336 31.6102 0 34.3824 0 37.6078V38.8349C0 39.4563 0.501797 39.961 1.12141 39.961H6.82586H12.5303C13.1499 39.961 13.6517 39.4563 13.6517 38.8349V37.6078C13.6517 34.396 11.103 31.6102 7.61367 31.6102Z" fill="#C09D0A"/>
<path d="M33.9619 31.6102C35.801 31.2424 37.1875 29.6129 37.1875 27.6583C37.1875 25.4329 35.3903 23.6283 33.1741 23.6283C30.9571 23.6283 29.1606 25.4329 29.1606 27.6583C29.1606 29.6129 30.5467 31.2424 32.386 31.6102C28.9034 31.6102 26.3481 34.3889 26.3481 37.6077V38.8349C26.3481 39.4563 26.8499 39.9609 27.4696 39.9609H33.174H38.8785C39.4973 39.9609 39.9999 39.4563 39.9999 38.8349V37.6078C39.9999 34.3893 37.4441 31.6102 33.9619 31.6102Z" fill="#C09D0A"/>
</svg>
