<svg width="45" height="45" viewBox="0 0 45 45" fill="none" xmlns="http://www.w3.org/2000/svg">
<path d="M29.7583 0H32.3862C33.7661 0.0439453 35.146 0.254883 36.4467 0.729492C39.2768 1.71387 41.729 3.74414 43.2407 6.32812C44.3569 8.2002 44.937 10.3623 44.9985 12.5332V13.0605C44.937 15.2227 44.3569 17.376 43.2319 19.2305C42.4673 20.5664 41.4301 21.7266 40.2524 22.7109C40.2436 24.1348 40.2524 25.5586 40.2524 26.9824C40.2524 27.3076 40.27 27.6416 40.226 27.9668C40.1557 28.3975 39.7163 28.7227 39.2768 28.6611C38.9868 28.6348 38.7583 28.4326 38.5649 28.2393C37.5366 27.2021 36.4995 26.1738 35.4624 25.1367C34.3813 25.4092 33.2739 25.5498 32.1577 25.5498C31.2524 25.541 30.3383 25.5762 29.4331 25.5234C26.4096 25.418 23.4477 24.1523 21.2505 22.0693C19.4135 20.3555 18.104 18.0879 17.5503 15.6445C16.9262 12.9375 17.2075 10.0195 18.3676 7.49707C19.4311 5.15039 21.2241 3.14648 23.4389 1.82812C25.3374 0.667969 27.5434 0.0703125 29.7583 0ZM27.4204 2.07422C24.977 2.6543 22.7534 4.11328 21.2417 6.11719C19.4663 8.41992 18.6753 11.4609 19.1059 14.335C19.4399 16.7607 20.6352 19.0547 22.4106 20.7422C24.0981 22.3506 26.3042 23.4141 28.6157 23.6953C29.7319 23.8359 30.8657 23.7832 31.9907 23.792C33.1157 23.8008 34.2407 23.6689 35.313 23.3438C35.6733 23.2119 36.104 23.2734 36.3764 23.5547C37.0883 24.2578 37.7827 24.9609 38.4946 25.6641C38.4946 24.5742 38.4946 23.4844 38.4946 22.3945C38.4858 22.1133 38.5649 21.8145 38.7759 21.6299C39.0659 21.3574 39.3823 21.1201 39.6811 20.8564C40.8852 19.749 41.8432 18.3779 42.4497 16.8486C43.1528 15.1084 43.3813 13.1836 43.144 11.3203C42.7837 8.4375 41.2104 5.73047 38.8813 3.99023C37.0268 2.55762 34.6889 1.7666 32.3423 1.74023C30.6987 1.7666 29.0288 1.66113 27.4204 2.07422Z" fill="#009207"/>
<path d="M30.325 6.31944C31.2215 6.05576 32.2234 6.14366 33.0584 6.57432C34.0779 7.09287 34.8338 8.10362 35.0271 9.2374C35.2381 10.3712 34.8777 11.6017 34.0691 12.4278C33.5857 12.9552 32.9265 13.298 32.2498 13.4913C32.2498 14.1153 32.2498 14.7481 32.2498 15.3722C32.2498 15.671 32.1707 15.9962 31.9334 16.1896C31.5818 16.506 30.9841 16.4532 30.7029 16.0753C30.492 15.8292 30.492 15.4952 30.492 15.1876C30.5007 14.5724 30.4832 13.9659 30.5007 13.3507C30.5095 12.8233 30.7908 12.3136 31.2302 12.0235C31.5994 11.7687 32.0828 11.7599 32.4519 11.4962C32.9881 11.1534 33.322 10.5382 33.3308 9.90537C33.3572 9.20225 32.9617 8.5167 32.3552 8.16514C31.8894 7.88389 31.2918 7.83116 30.7732 7.99815C30.0525 8.22666 29.4812 8.90342 29.4285 9.65928C29.4021 10.0108 29.323 10.4064 28.989 10.5997C28.4968 10.9425 27.7322 10.5909 27.6707 9.99326C27.5652 8.3585 28.7341 6.7501 30.325 6.31944Z" fill="#009207"/>
<path d="M1.93359 16.9805C3.05859 15.9082 4.59668 15.293 6.15234 15.293C9.08789 15.2842 12.0146 15.2842 14.9502 15.293C15.4951 15.2402 15.9961 15.7588 15.8994 16.3037C15.8379 16.752 15.3984 17.0771 14.959 17.0508C12.0586 17.0596 9.1582 17.0508 6.25781 17.0508C5.41406 17.042 4.57031 17.2881 3.84961 17.7275C2.90039 18.3164 2.18848 19.2832 1.91602 20.3643C1.74023 20.9443 1.7666 21.5508 1.7666 22.1484C1.7666 26.1914 1.7666 30.2344 1.7666 34.2773C1.7666 34.6904 1.75781 35.1035 1.80176 35.5166C1.95117 36.5625 2.46094 37.5645 3.25195 38.2588C4.06055 38.9883 5.15039 39.3926 6.24023 39.375C8.12109 39.3838 10.002 39.3662 11.874 39.3838C12.3047 39.3662 12.5596 39.7354 12.7969 40.0254C13.4473 40.6846 14.1064 41.335 14.7656 41.9941C14.7832 41.3701 14.7393 40.7461 14.792 40.1221C14.8447 39.665 15.2842 39.3486 15.7324 39.375C18.8438 39.3662 21.9463 39.375 25.0576 39.375C26.3145 39.3838 27.5801 38.8389 28.415 37.8897C29.1445 37.0723 29.5488 35.9824 29.54 34.8926C29.54 32.9238 29.5312 30.9639 29.54 28.9951C29.5049 28.5029 29.918 28.0195 30.4189 28.0459C30.9199 28.0283 31.3242 28.5117 31.2891 28.9951C31.2979 30.9287 31.2891 32.8623 31.2891 34.8047C31.2891 35.5693 31.1836 36.3428 30.9199 37.0635C30.2959 38.8213 28.8193 40.2539 27.0439 40.8252C26.3232 41.0713 25.5498 41.1416 24.7939 41.1328C22.043 41.1328 19.2832 41.1328 16.5322 41.1328C16.5234 42.126 16.541 43.1279 16.5234 44.1211C16.5322 44.5781 16.1367 44.9648 15.6885 45H15.6094C15.3281 44.9648 15.082 44.8154 14.8887 44.6133C13.7285 43.4531 12.5684 42.293 11.4082 41.1328C9.8877 41.1328 8.36719 41.1328 6.84668 41.1328C6.17871 41.1416 5.50195 41.1328 4.84277 40.9922C3.2168 40.6494 1.7666 39.6123 0.905273 38.1973C0.351562 37.3008 0.0527344 36.2549 0 35.2002V21.2344C0.0703125 19.6348 0.755859 18.0703 1.93359 16.9805Z" fill="#009207"/>
<path d="M30.9751 18.2373C31.4497 17.9824 32.1001 18.2901 32.2056 18.8174C32.3374 19.3008 31.9595 19.8369 31.4585 19.8809C31.0191 19.9424 30.5708 19.6172 30.5093 19.1778C30.4302 18.7998 30.6323 18.3955 30.9751 18.2373Z" fill="#009207"/>
<path d="M5.53611 22.3419C9.71971 22.3067 13.9121 22.3419 18.1045 22.3243C18.4033 22.3243 18.7461 22.3155 18.9922 22.5176C19.3789 22.8077 19.4404 23.4229 19.1064 23.7745C18.9043 24.0206 18.5791 24.0909 18.2803 24.0821C14.1758 24.0821 10.0801 24.0821 5.97556 24.0821C5.58885 24.1085 5.12303 24.0469 4.9033 23.6778C4.53416 23.168 4.91209 22.3682 5.53611 22.3419Z" fill="#009207"/>
<path d="M5.53629 27.2638C7.58414 27.2286 9.64078 27.255 11.6886 27.2462C15.7931 27.2462 19.8888 27.2462 23.9933 27.2462C24.2921 27.2374 24.6173 27.3077 24.8195 27.5538C25.1359 27.8966 25.092 28.4855 24.7404 28.7755C24.5382 28.9689 24.257 29.004 23.9933 29.004C17.9025 29.004 11.8029 29.004 5.71207 29.004C5.21988 29.0392 4.74527 28.6349 4.75406 28.1339C4.74527 27.6944 5.10563 27.2902 5.53629 27.2638Z" fill="#009207"/>
<path d="M5.5436 32.1855C10.4918 32.1504 15.4401 32.1855 20.3883 32.168C20.7047 32.168 21.0563 32.168 21.2936 32.4053C21.6715 32.7217 21.6715 33.3633 21.2936 33.6885C21.0739 33.9082 20.7575 33.9258 20.4674 33.9258C15.5455 33.917 10.6237 33.9258 5.7018 33.9258C5.27992 33.9434 4.84926 33.6621 4.77016 33.2314C4.6559 32.7393 5.04262 32.2119 5.5436 32.1855Z" fill="#009207"/>
<path d="M24.0978 32.1855C24.7218 32.1064 25.2403 32.8183 24.9679 33.3896C24.7482 33.9873 23.8517 34.1015 23.4825 33.583C23.0519 33.0732 23.4386 32.2119 24.0978 32.1855Z" fill="#009207"/>
</svg>
