<svg width="59" height="61" viewBox="0 0 59 61" fill="none" xmlns="http://www.w3.org/2000/svg">
<g clip-path="url(#clip0_2843_2445)">
<path d="M31.3468 18.8899C31.5577 18.1985 32.6241 18.1282 32.9288 18.7727C33.1515 19.3001 32.9991 19.886 33.046 20.4368C34.0304 20.5774 34.9913 20.929 35.7765 21.5384C36.0109 21.7141 36.2101 21.9602 36.2218 22.2532C36.2687 22.7102 35.882 23.1673 35.4132 23.1907C35.0265 23.2376 34.7452 22.9329 34.4405 22.7571C34.0187 22.4759 33.5265 22.3235 33.046 22.218C33.046 24.0813 33.046 25.9563 33.046 27.8196C33.8077 28.1243 34.628 28.3469 35.3195 28.804C36.2101 29.3782 36.8898 30.2688 37.171 31.3001C37.6163 32.8938 37.1476 34.6751 36.0812 35.929C35.3195 36.8548 34.2179 37.4524 33.046 37.6516C33.0226 38.2376 33.1046 38.8235 32.9991 39.3977C32.7765 40.136 31.628 40.1712 31.3702 39.4563C31.2179 38.8938 31.3234 38.2962 31.2999 37.7219C30.1984 37.6985 29.1085 37.3938 28.1593 36.8196C27.7491 36.5852 27.1984 36.304 27.2101 35.7532C27.1749 35.0969 27.9952 34.6282 28.546 35.0032C29.3663 35.554 30.3038 35.9524 31.2999 35.9641C31.2999 33.6438 31.2999 31.3235 31.2999 29.0032C30.2218 28.4993 29.0616 27.9954 28.3234 27.0227C27.0812 25.2298 27.6788 22.5462 29.4249 21.2923C29.9757 20.8704 30.632 20.6594 31.2999 20.5188C31.3116 19.968 31.2296 19.429 31.3468 18.8899ZM29.5655 25.6634C29.8702 26.3899 30.6554 26.6946 31.2882 27.0579C31.2882 25.4641 31.2999 23.8821 31.2765 22.3001C29.882 22.6634 29.0499 24.3274 29.5655 25.6634ZM33.046 29.6946C33.046 31.7454 33.046 33.8079 33.046 35.8587C34.9093 35.3899 36.128 33.1516 35.3195 31.3587C34.921 30.4446 33.9601 29.9876 33.046 29.6946Z" fill="#1C2436"/>
<path d="M27.0342 10.6165C27.3623 10.4876 27.7139 10.6048 28.042 10.6751C30.6084 11.2845 33.3155 11.2845 35.8701 10.6634C36.2217 10.5814 36.6084 10.4759 36.9366 10.6634C37.8272 11.1439 37.7803 12.7728 36.7256 13.0306C33.585 13.8509 30.2217 13.8509 27.0694 13.0072C26.0498 12.6907 26.0615 11.0032 27.0342 10.6165Z" fill="#EBBD6C"/>
<path d="M39.3621 2.34304C38.6004 2.68288 37.7332 2.92897 36.9129 2.67116C36.2801 2.53054 35.8113 2.02663 35.1785 1.89772C34.5926 1.79226 34.1238 2.21413 33.6434 2.46022C33.0809 2.76491 32.4363 2.80007 31.8035 2.76491C31.077 2.65944 30.491 2.19069 29.8231 1.92116C29.0496 1.68679 28.4871 2.40163 27.8074 2.60085C26.9403 2.95241 25.9676 2.72976 25.159 2.33132C25.0887 3.15163 25.3817 3.93679 25.6746 4.68679C26.2606 6.09304 27.0574 7.41726 27.8777 8.6946C27.9598 8.87038 28.1473 8.90554 28.3113 8.95241C30.2215 9.32741 32.1903 9.55007 34.1238 9.22194C34.9207 9.10476 35.6824 8.87038 36.491 8.80007C37.3934 7.44069 38.2488 6.04616 38.8699 4.53444C39.1746 3.84304 39.4207 3.10476 39.3621 2.34304Z" fill="#E7D6FF"/>
<path d="M31.2894 22.3C29.8949 22.6633 29.0512 24.3274 29.5668 25.6633C29.8715 26.3899 30.6566 26.6946 31.2894 27.0579C31.2894 25.4758 31.3012 23.8938 31.2894 22.3Z" fill="#E7D6FF"/>
<path d="M33.0469 29.7063C33.0469 31.7571 33.0469 33.8196 33.0469 35.8704C34.9102 35.4016 36.1289 33.1633 35.3203 31.3704C34.9219 30.4446 33.9609 29.9875 33.0469 29.7063Z" fill="#E7D6FF"/>
<path d="M50.5777 30.6321C49.5582 26.5774 47.3199 22.9094 44.566 19.7922C44.3199 19.4993 43.9918 19.2297 43.8629 18.8547C43.7574 18.5266 43.9215 18.2102 44.0972 17.9407C43.5699 17.3899 43.0191 16.8508 42.4566 16.3352C42.0933 16.6399 41.5308 16.7219 41.1793 16.3704C40.2652 15.5852 39.3394 14.8118 38.3785 14.0852C37.9918 14.343 37.5816 14.5774 37.1363 14.718C35.7887 15.1516 34.3707 15.2805 32.9762 15.3508C31.359 15.3977 29.7301 15.3274 28.1363 15.0579C27.3277 14.9172 26.5074 14.718 25.7808 14.3079C22.5582 16.8157 19.6051 19.7336 17.3316 23.1438C14.6246 27.1985 12.9137 32.1204 13.4879 37.0422C14.7887 37.3704 16.0543 37.8274 17.2496 38.4485C18.4332 39.0461 19.523 39.7961 20.7301 40.3586C21.5972 40.7571 22.523 41.0149 23.4605 41.1204C26.6715 41.4954 29.8707 41.8469 33.0816 42.2336C35.3785 42.55 37.3121 44.4719 37.6754 46.7571C37.7574 47.3196 37.7222 47.9055 37.7222 48.468C40.1949 47.3782 42.6676 46.2883 45.1402 45.1985C46.2887 44.6711 47.484 44.2024 48.6207 43.6399C49.2535 42.8665 49.6754 41.9172 50.0738 41.0032C51.398 37.7336 51.4449 34.0305 50.5777 30.6321ZM36.0816 35.929C35.3199 36.8547 34.2183 37.4524 33.0465 37.6516C33.023 38.2258 33.1051 38.8235 32.9879 39.3977C32.7769 40.136 31.6168 40.1711 31.359 39.4563C31.2066 38.8938 31.3121 38.2961 31.2887 37.7219C30.1871 37.6985 29.0972 37.3938 28.148 36.8196C27.7379 36.5852 27.1871 36.3157 27.1988 35.7532C27.1637 35.0969 27.984 34.6282 28.5347 35.0032C29.3551 35.554 30.2926 35.9641 31.2887 35.9641C31.2887 33.6438 31.2887 31.3235 31.2887 29.0032C30.2105 28.4993 29.0504 27.9954 28.3121 27.0227C27.0699 25.2297 27.6676 22.5461 29.4137 21.2922C29.9644 20.8704 30.6207 20.6477 31.2887 20.5188C31.3121 19.9797 31.2301 19.429 31.3472 18.9016C31.5582 18.2102 32.6246 18.1399 32.941 18.7844C33.1637 19.3118 33.0113 19.8977 33.0465 20.4485C34.0308 20.5891 34.9918 20.9407 35.7769 21.55C36.0113 21.7258 36.2105 21.9719 36.2222 22.2649C36.2691 22.7336 35.8824 23.179 35.4137 23.2024C35.0269 23.261 34.7457 22.9446 34.441 22.7688C34.0191 22.4875 33.5269 22.3352 33.0465 22.2297C33.0465 24.093 33.0465 25.968 33.0465 27.8313C33.8082 28.136 34.6285 28.3586 35.3199 28.8157C36.2105 29.3899 36.8902 30.2805 37.1715 31.3118C37.6168 32.8938 37.148 34.6751 36.0816 35.929Z" fill="#E7D6FF"/>
<path d="M1.78125 35.847C1.81641 35.4485 2.20313 35.1439 2.58984 35.1673C3.80859 35.1556 5.01563 35.1673 6.23438 35.1556C6.52734 35.1673 6.85547 35.1321 7.08984 35.3431C7.3125 35.5189 7.38281 35.8118 7.38281 36.0814C7.39453 37.64 7.37109 39.1985 7.39453 40.7689C7.38281 41.2493 7.82812 41.554 8.25 41.6478C8.26172 42.4095 8.26172 43.1595 8.25 43.9212C7.78125 44.015 7.33594 44.3665 7.38281 44.8821C7.37109 48.7142 7.38281 52.5345 7.37109 56.3665C7.40625 56.8118 7.03125 57.2337 6.57422 57.2103C5.36719 57.2337 4.16016 57.2103 2.95313 57.222C2.625 57.2103 2.22656 57.2571 1.98047 56.9876C1.76953 56.8001 1.74609 56.5071 1.74609 56.2493C1.74609 49.8392 1.74609 43.4407 1.74609 37.0306C1.75781 36.6321 1.73438 36.2454 1.78125 35.847Z" fill="#407093"/>
<path d="M9.14063 38.2493C10.8281 38.261 12.5156 38.4837 14.1094 39.0345C15.6914 39.5501 17.1328 40.4173 18.5859 41.2142C19.957 41.9759 21.4219 42.6204 22.9922 42.8314C26.2383 43.2181 29.4844 43.5696 32.7305 43.9564C34.3828 44.1439 35.7891 45.5618 35.9648 47.2142C36 47.7884 35.9648 48.3626 35.9648 48.9368C32.9414 48.9368 29.9062 48.9251 26.8828 48.9368C26.3789 48.9251 25.957 49.4173 26.0273 49.9095C26.0625 50.3782 26.5313 50.7298 26.9883 50.6946C30.2344 50.6946 33.4805 50.6946 36.7266 50.6946C37.1016 50.7064 37.4297 50.5071 37.7695 50.3665C42.5625 48.2571 47.3555 46.1478 52.1602 44.0384C53.0039 43.6985 53.8359 43.1712 54.7734 43.2298C55.793 43.3001 56.5195 44.3782 56.4141 45.3509C56.3555 45.9134 56.0742 46.4642 55.582 46.7571C50.4609 49.9915 45.3516 53.2493 40.2305 56.4837C39.5859 56.8939 38.9414 57.3157 38.2266 57.6204C37.125 58.1009 35.918 58.347 34.7227 58.347C30.3867 58.347 26.0508 58.347 21.7148 58.347C20.6602 58.3587 19.5938 58.1712 18.6094 57.8079C15.457 56.6478 12.3047 55.4525 9.15234 54.2923C9.15234 51.1517 9.15234 48.011 9.15234 44.8704C9.1875 44.3548 8.74219 44.0032 8.27344 43.9212C8.27344 43.1595 8.28516 42.4095 8.27344 41.6478C8.67188 41.5657 9.10547 41.3196 9.14063 40.8743C9.16406 39.9954 9.11719 39.1282 9.14063 38.2493Z" fill="#FFEFEB"/>
<path d="M58.1361 44.636C57.9251 43.0189 56.5423 41.5657 54.8783 41.4837C53.6126 41.3665 52.4759 41.9876 51.3626 42.4681C52.347 40.3235 52.8744 37.9798 52.9212 35.6243C52.9915 32.39 52.2181 29.179 50.9056 26.2376C49.5462 23.2142 47.6126 20.472 45.3744 18.0462C45.3158 17.9759 45.2337 17.9173 45.1634 17.8704C44.2728 16.8743 43.4056 16.0189 42.5501 15.304C42.515 15.2571 42.4798 15.1985 42.4329 15.1634C41.4486 14.2259 40.3587 13.4056 39.2923 12.5735C39.5267 11.4251 39.1165 10.2064 38.2376 9.43292C39.1634 7.99152 40.0658 6.50323 40.6751 4.89777C40.9798 4.05402 41.2259 3.15167 41.1204 2.23761C41.0384 1.61652 40.7337 0.995422 40.1829 0.667297C39.7259 0.397766 39.1634 0.503235 38.7181 0.725891C38.2611 0.936829 37.722 1.18292 37.2415 0.913391C36.6322 0.585266 36.0345 0.210266 35.3197 0.128235H34.7923C34.1361 0.186829 33.5501 0.503235 32.9876 0.83136C32.5892 1.07745 32.0619 1.10089 31.6517 0.854797C31.054 0.526672 30.4681 0.186829 29.8001 0.116516H29.2611C28.5345 0.17511 27.9251 0.585266 27.304 0.913391C26.8001 1.1712 26.2611 0.901672 25.804 0.690735C25.3587 0.479797 24.7962 0.386047 24.3509 0.667297C23.7767 1.01886 23.4603 1.69855 23.4134 2.36652C23.3431 3.25714 23.5892 4.14777 23.8939 4.9798C24.4564 6.45636 25.2533 7.82745 26.0853 9.16339C25.9329 9.25714 25.7923 9.36261 25.64 9.45636C24.3978 8.13214 22.5814 7.32355 20.765 7.51105C19.347 7.67511 17.847 7.47589 16.5931 6.74933C16.2181 6.53839 15.7845 6.19855 15.3275 6.40948C14.7064 6.64386 14.6009 7.59308 15.1751 7.93292C16.4993 8.83527 18.1048 9.31573 19.6986 9.31573C20.4486 9.31573 21.1986 9.16339 21.9368 9.2923C23.0501 9.4798 24.0345 10.1595 24.6908 11.0735C22.5579 11.1556 20.3665 11.5189 18.5267 12.6556C17.6009 13.2181 16.7806 13.9798 16.2064 14.9056C16.0306 15.1751 15.9134 15.515 16.054 15.8196C16.2298 16.347 16.9564 16.5579 17.39 16.2064C17.6947 15.9251 17.8704 15.5384 18.1517 15.2337C19.0658 14.1907 20.3665 13.5814 21.6908 13.2415C22.6986 12.9837 23.7298 12.8665 24.7728 12.8665C21.2103 15.6439 17.929 18.8782 15.5033 22.7337C12.89 26.8587 11.2728 31.7571 11.6829 36.679C10.8392 36.5618 9.99544 36.5032 9.13997 36.4798C9.16341 35.7298 9.06966 34.9212 8.55404 34.3353C8.06185 33.7142 7.26497 33.3626 6.4681 33.3978C5.09701 33.4095 3.73763 33.386 2.36654 33.4095C1.06576 33.4798 -0.0358073 34.6751 -0.000651041 35.9759C-0.000651041 42.8079 -0.0123698 49.6517 -0.000651041 56.4837C-0.000651041 57.7962 1.17122 58.9798 2.48372 58.9681C3.8431 58.9798 5.21419 58.9681 6.58529 58.9681C7.52279 58.9798 8.43685 58.4173 8.85872 57.5735C9.0931 57.14 9.12825 56.6478 9.16341 56.1673C11.8001 57.1517 14.4368 58.136 17.0736 59.1204C18.3861 59.6595 19.7572 60.0462 21.1869 60.1048H35.015C36.6322 60.0462 38.2494 59.636 39.679 58.8743C40.4056 58.4759 41.097 58.0189 41.7884 57.5853C46.7337 54.4446 51.6908 51.3157 56.6361 48.1751C57.7728 47.4251 58.3236 45.9603 58.1361 44.636ZM25.6869 4.68683C25.3939 3.93683 25.1009 3.15167 25.1712 2.33136C25.9915 2.7298 26.9525 2.94073 27.8197 2.60089C28.4994 2.38995 29.0736 1.68683 29.8353 1.9212C30.5033 2.19073 31.0775 2.65948 31.8158 2.76495C32.4369 2.80011 33.0931 2.76495 33.6556 2.46027C34.1361 2.21417 34.6048 1.7923 35.1908 1.89777C35.8236 2.02667 36.2923 2.53058 36.9251 2.6712C37.7454 2.92902 38.6126 2.68292 39.3744 2.34308C39.4329 3.1048 39.1751 3.84308 38.9056 4.5462C38.2845 6.05792 37.429 7.45245 36.5267 8.81183C35.7298 8.87042 34.9564 9.11652 34.1595 9.2337C32.2259 9.56183 30.2572 9.33917 28.347 8.96417C28.1829 8.9173 27.9837 8.88214 27.9134 8.70636C27.0697 7.4173 26.2728 6.1048 25.6869 4.68683ZM36.7259 13.0423C33.5853 13.8626 30.222 13.8626 27.0697 13.0189C26.0384 12.7025 26.0501 11.0032 27.0228 10.6165C27.3509 10.4876 27.7025 10.6048 28.0306 10.6751C30.597 11.2845 33.304 11.2845 35.8587 10.6751C36.2103 10.5931 36.597 10.4876 36.9251 10.6751C37.8275 11.1439 37.7806 12.7845 36.7259 13.0423ZM17.3314 23.1556C19.6048 19.7454 22.5462 16.8275 25.7806 14.3196C26.5072 14.7298 27.3158 14.929 28.1361 15.0696C29.7298 15.3392 31.3587 15.4095 32.9759 15.3626C34.3822 15.2923 35.8001 15.1634 37.1361 14.7298C37.5814 14.5892 37.9915 14.3548 38.3783 14.097C39.1634 14.6829 39.9251 15.3157 40.6634 15.9485L40.64 15.972C40.8158 16.1009 40.9915 16.2415 41.1673 16.3821C41.2025 16.4173 41.2376 16.4407 41.2728 16.4642C42.1634 17.2025 43.0775 18.0931 44.015 19.1595C44.1439 19.347 44.2962 19.4993 44.4486 19.6634C44.6829 19.9446 44.9173 20.2259 45.1517 20.5306L45.1751 20.5189C47.6361 23.472 49.6165 26.8821 50.5658 30.6321C51.4329 34.0306 51.3861 37.7337 50.0501 41.015C49.6517 41.929 49.2298 42.8782 48.597 43.6517C47.4603 44.2142 46.2767 44.6829 45.1165 45.2103C42.6439 46.3001 40.1712 47.39 37.6986 48.4798C37.6986 47.9056 37.7337 47.3314 37.6517 46.7689C37.2884 44.4837 35.3548 42.5618 33.0579 42.2454C29.8587 41.8587 26.6478 41.5071 23.4369 41.1321C22.4876 41.015 21.5618 40.7689 20.7064 40.3704C19.5111 39.8079 18.4095 39.0579 17.2259 38.4603C16.0306 37.8392 14.765 37.3939 13.4642 37.054C12.9134 32.1321 14.6243 27.2103 17.3314 23.1556ZM6.58529 57.2103C5.37826 57.2337 4.17122 57.2103 2.96419 57.222C2.63607 57.2103 2.23763 57.2571 1.99154 56.9876C1.7806 56.8001 1.75716 56.5071 1.75716 56.2493C1.75716 49.8392 1.75716 43.4407 1.75716 37.0306C1.75716 36.6321 1.73372 36.2454 1.7806 35.8587C1.81576 35.4603 2.20247 35.1556 2.58919 35.179C3.80794 35.1673 5.01497 35.179 6.23372 35.1673C6.52669 35.179 6.85482 35.1439 7.08919 35.3548C7.31185 35.5306 7.38216 35.8235 7.38216 36.0931C7.38216 36.972 7.38216 37.8626 7.38216 38.7415H7.37044V47.7181H7.38216C7.38216 50.6009 7.38216 53.4837 7.38216 56.3665C7.4056 56.8118 7.0306 57.2337 6.58529 57.2103ZM56.4017 45.3626C56.3431 45.9251 56.0619 46.4759 55.5697 46.7689C50.4486 50.0032 45.3392 53.2493 40.2181 56.4954C39.5736 56.9056 38.929 57.3275 38.2142 57.6321C37.1126 58.1126 35.9056 58.3587 34.7103 58.3587C30.3744 58.3587 26.0384 58.3587 21.7025 58.3587C20.6478 58.3704 19.5814 58.1829 18.597 57.8196C15.4447 56.6595 12.2923 55.4642 9.13997 54.304C9.13997 51.1634 9.13997 48.0228 9.13997 44.8704C9.13997 44.8118 9.13997 44.765 9.13997 44.7064V40.6517C9.16341 39.8548 9.13997 39.0462 9.15169 38.2493C10.8392 38.261 12.5267 38.4837 14.1204 39.0345C15.7025 39.5501 17.1439 40.4173 18.597 41.2142C19.9681 41.9759 21.4329 42.6204 23.0033 42.8314C26.2494 43.2181 29.4954 43.5696 32.7415 43.9564C34.3939 44.1439 35.8001 45.5618 35.9759 47.2142C36.0111 47.7884 35.9759 48.3626 35.9759 48.9368C32.9525 48.9368 29.9173 48.9251 26.8939 48.9368C26.39 48.9251 25.9681 49.4173 26.0384 49.9095C26.0736 50.3782 26.5423 50.7298 26.9993 50.6946C30.2454 50.6946 33.4915 50.6946 36.7376 50.6946C37.1126 50.7064 37.4408 50.5071 37.7806 50.3665C42.5736 48.2571 47.3665 46.1478 52.1712 44.0384C53.015 43.6985 53.847 43.1712 54.7845 43.2298C55.7806 43.3118 56.5072 44.3782 56.4017 45.3626Z" fill="#1C2436"/>
</g>
<defs>
<clipPath id="clip0_2843_2445">
<rect width="58.1719" height="60" fill="white" transform="translate(0 0.116516)"/>
</clipPath>
</defs>
</svg>
