<svg width="56" height="55" viewBox="0 0 56 55" fill="none" xmlns="http://www.w3.org/2000/svg">
<g clip-path="url(#clip0_614_2891)">
<path d="M1.9846 0.107905C2.2651 0.0431735 2.5456 1.93722e-05 2.82611 1.93722e-05C19.3542 1.93722e-05 35.8822 1.93722e-05 52.4318 1.93722e-05C53.5107 -0.0431348 54.568 0.625755 54.9995 1.6183C55.3232 2.28719 55.2369 3.04239 55.2584 3.75443C55.2584 11.3711 55.2584 19.0094 55.2584 26.6261C55.3016 27.6834 54.6543 28.7407 53.6833 29.1722C53.036 29.4959 52.2808 29.4527 51.5903 29.4527C35.3428 29.4527 19.0737 29.4527 2.82611 29.4527C1.31571 29.5175 -0.0436472 28.1365 0.021084 26.6261C-0.000493056 18.7074 -0.000493055 10.7886 -0.000493055 2.89135C-0.0652243 1.63988 0.797859 0.431561 1.9846 0.107905ZM2.63191 1.85565C2.13564 1.8988 1.79041 2.41665 1.85514 2.89135C1.85514 10.8101 1.85514 18.7074 1.85514 26.6261C1.81198 27.1656 2.30826 27.6403 2.84768 27.5971C19.3757 27.5971 35.9038 27.5971 52.4103 27.5971C52.9497 27.6403 53.4675 27.1656 53.4028 26.6046C53.4244 19.0526 53.4028 11.5006 53.4028 3.94863C53.4028 3.45235 53.446 2.95608 53.3597 2.45981C53.2302 1.96353 52.6908 1.76934 52.2161 1.81249C35.688 1.85565 19.16 1.81249 2.63191 1.85565Z" fill="#4DF189"/>
<path d="M8.69552 3.84073C8.9976 3.64654 9.38599 3.71127 9.70965 3.68969C21.7928 3.71127 33.876 3.68969 45.9592 3.68969C46.5849 3.62496 46.9949 4.25069 46.9517 4.8117C46.9949 6.66733 48.6563 8.24246 50.4903 8.28561C51.0945 8.22088 51.6339 8.76031 51.5261 9.36447C51.5261 12.9678 51.5261 16.5712 51.5261 20.1746C51.5908 20.7572 51.0514 21.2319 50.4903 21.1887C49.1094 21.2319 47.7716 22.1165 47.2322 23.4112C46.9517 23.9722 46.9949 24.641 46.8438 25.2452C46.6712 25.6983 46.1534 25.8494 45.7218 25.8062C33.5523 25.8062 21.4044 25.8062 9.25653 25.8062C8.67395 25.8709 8.22083 25.3099 8.26398 24.7489C8.2424 22.958 6.73201 21.3398 4.91953 21.2319C4.40168 21.2534 3.71122 21.0377 3.66806 20.4119C3.62491 16.8949 3.66806 13.3562 3.64648 9.83916C3.66806 9.4292 3.58175 8.93292 3.88383 8.60927C4.14276 8.30719 4.5743 8.32877 4.94111 8.28561C6.60255 8.17773 8.06979 6.73206 8.19925 5.07062C8.30714 4.61751 8.26398 4.07808 8.69552 3.84073ZM10.0549 5.50217C9.68807 7.76776 7.78929 9.64497 5.52369 10.0118C5.52369 13.1405 5.52369 16.2691 5.52369 19.3762C7.78929 19.7646 9.68807 21.6418 10.0765 23.929C13.8956 23.9074 17.7147 23.8858 21.5339 23.8858C18.5131 21.8792 16.5927 18.3621 16.5927 14.7372C16.528 11.0691 18.4699 7.48726 21.5123 5.48059C17.6932 5.50217 13.874 5.48059 10.0549 5.50217ZM26.8203 5.54532C23.4543 5.80425 20.3687 8.09142 19.1173 11.2201C18.0816 13.7015 18.211 16.6575 19.4841 19.031C20.8003 21.5339 23.3032 23.368 26.0867 23.8211C28.568 24.2527 31.2004 23.6053 33.1855 22.0734C35.4295 20.3904 36.8321 17.6069 36.8105 14.7803C36.8536 12.0616 35.5806 9.34289 33.466 7.6383C31.632 6.08475 29.1938 5.35113 26.8203 5.54532ZM33.725 5.52374C36.7673 7.53041 38.7093 11.1122 38.6445 14.7803C38.6661 18.4053 36.7242 21.9439 33.7034 23.9506C37.5225 23.9506 41.3417 23.9506 45.1608 23.9506C45.5276 21.6634 47.4264 19.7862 49.692 19.3978C49.692 16.2691 49.692 13.1405 49.692 10.0334C47.4264 9.64497 45.5492 7.78934 45.1608 5.54532C41.3632 5.52374 37.5441 5.52374 33.725 5.52374Z" fill="#4DF189"/>
<path d="M26.9283 6.75342C27.3382 6.25715 28.2229 6.40819 28.4602 7.01234C28.5897 7.46546 28.525 7.96174 28.5465 8.41486C30.1217 8.8464 31.33 10.3568 31.3084 11.9967C31.33 12.7087 30.4237 13.1834 29.8627 12.7519C29.3017 12.3635 29.5822 11.5651 29.1939 11.0473C28.6544 10.0979 27.2519 9.86052 26.432 10.5941C25.5689 11.263 25.5473 12.7087 26.4104 13.3992C27.0793 14.0249 28.0934 13.7228 28.8918 14.1112C30.5316 14.7154 31.5458 16.6142 31.1358 18.2972C30.8769 19.6349 29.8196 20.6922 28.525 21.1022C28.4818 21.6632 28.676 22.3321 28.266 22.7852C27.8561 23.2383 27.0146 23.1089 26.7772 22.5263C26.6046 22.0732 26.7125 21.5769 26.6909 21.1022C25.0726 20.6491 23.8212 19.0739 23.9506 17.3693C24.0369 16.722 24.8784 16.3552 25.3963 16.7652C25.9141 17.132 25.6984 17.8656 25.9789 18.3619C26.4536 19.376 27.8992 19.6781 28.7623 18.9661C29.647 18.3187 29.6901 16.8515 28.8486 16.1395C28.1366 15.449 27.0577 15.8158 26.2162 15.3843C24.5979 14.7369 23.6485 12.8382 24.0801 11.1551C24.3606 9.83894 25.4394 8.80324 26.6909 8.43643C26.7341 7.85385 26.5614 7.20654 26.9283 6.75342Z" fill="#4DF189"/>
<path d="M8.06941 31.4808C8.43622 31.265 8.88933 31.3082 9.2993 31.2866C11.8885 31.3082 14.4778 31.2866 17.0671 31.3082C17.8007 31.2866 18.448 31.9555 18.4264 32.6891C18.448 34.48 18.4264 36.2925 18.4264 38.0834C18.4911 38.8386 17.8654 39.5938 17.0886 39.5938C14.3483 39.6154 11.5865 39.5938 8.84618 39.5938C8.11256 39.637 7.40052 39.0328 7.40052 38.2992C7.37894 36.5083 7.40052 34.6958 7.37894 32.9049C7.31421 32.3223 7.57313 31.7613 8.06941 31.4808ZM9.21299 33.1423C9.21299 34.6742 9.21299 36.2062 9.21299 37.7382C11.6728 37.7382 14.1326 37.7382 16.5708 37.7382C16.5708 36.2062 16.5708 34.6742 16.5708 33.1423C14.111 33.1423 11.6728 33.1423 9.21299 33.1423Z" fill="#4DF189"/>
<path d="M22.9149 31.4161C23.2385 31.2651 23.6053 31.3082 23.9506 31.2866C26.5398 31.3082 29.1291 31.2866 31.6967 31.2866C32.4519 31.2435 33.1424 31.9124 33.1208 32.6892C33.1424 35.7099 33.1208 38.7307 33.1208 41.7515C33.1855 42.5499 32.5167 43.3051 31.7183 43.2619C28.978 43.2835 26.2377 43.2835 23.4759 43.2619C22.7638 43.2835 22.0949 42.6578 22.0949 41.9457C22.0733 38.9249 22.0949 35.9041 22.0733 32.8834C22.0518 32.2792 22.3538 31.6535 22.9149 31.4161ZM23.929 33.1423C23.929 35.9041 23.929 38.666 23.929 41.4279C26.3888 41.4279 28.8486 41.4279 31.2868 41.4279C31.2868 38.666 31.2868 35.9041 31.2868 33.1423C28.8486 33.1423 26.3888 33.1423 23.929 33.1423Z" fill="#4DF189"/>
<path d="M36.8324 32.6678C36.8109 31.9342 37.4582 31.2653 38.1918 31.3084C40.9105 31.2868 43.6508 31.3084 46.3695 31.3084C47.2326 31.2221 47.9662 32.0205 47.8583 32.8835C47.8367 36.9616 47.8799 41.0397 47.8367 45.0962C48.4193 45.1393 49.1098 45.0099 49.5629 45.463C50.1455 45.9377 50.1886 46.8871 49.6708 47.4265C47.5778 49.8 45.4848 52.1735 43.3703 54.5254C42.874 55.1295 41.8383 55.1511 41.342 54.5685C39.2922 52.3029 37.2856 49.9942 35.2357 47.707C34.6963 47.2107 34.3942 46.3692 34.8689 45.7219C35.2789 45.053 36.142 45.0746 36.8109 45.1178C36.8324 40.9534 36.8109 36.8106 36.8324 32.6678ZM38.6665 33.1425C38.6665 37.3068 38.6881 41.4496 38.6665 45.614C38.6665 46.4555 37.8466 46.995 37.0698 46.995C38.8607 48.9585 40.6084 50.9436 42.3562 52.9287C44.1255 50.9651 45.8732 48.9585 47.6426 46.995C46.8658 47.0165 46.0243 46.4555 46.0458 45.614C46.0243 41.4496 46.0458 37.3068 46.0243 33.1425C43.5861 33.1425 41.1263 33.1425 38.6665 33.1425Z" fill="#4DF189"/>
</g>
<defs>
<clipPath id="clip0_614_2891">
<rect width="55.2374" height="55" fill="white"/>
</clipPath>
</defs>
</svg>
