<svg width="136" height="150" viewBox="0 0 136 150" fill="none" xmlns="http://www.w3.org/2000/svg">
<g clip-path="url(#clip0_594_4363)">
<path d="M41.3848 0.975255C46.1389 -1.03612 51.9293 0.121944 55.5863 3.71804C58.8167 6.70463 60.2795 11.2759 59.8529 15.6035C75.2125 13.653 90.8159 18.1634 103.92 26.087C108.735 28.9517 113.185 32.4259 117.269 36.2658C119.036 34.9249 121.108 33.7668 123.364 33.5839C127.569 33.0354 131.836 35.1687 134.091 38.7038C136.468 42.2999 136.529 47.2979 134.213 50.9549C132.994 52.8444 131.592 54.551 130.251 56.3186C132.445 63.3889 133.847 70.6421 134.457 78.0171C135.859 95.8757 129.52 114.161 117.573 127.509C106.115 140.431 89.5969 148.598 72.3478 149.817C55.5863 151.097 38.4591 145.794 25.3547 135.311C12.0065 124.705 2.98576 108.858 0.730579 91.9748C-1.46365 77.5904 1.70579 62.7794 8.22753 49.9797C6.1552 47.2979 3.90002 44.4332 3.41242 40.898C2.1934 34.6811 6.0333 27.9765 11.9455 25.7213C16.8825 23.7099 22.7948 25.1727 26.5128 29.0126C29.5603 26.7575 32.7907 24.6851 36.0821 22.7957C34.4364 20.5405 33.2174 17.9805 32.9736 15.2377C32.2422 9.26457 35.8383 3.16949 41.3848 0.975255ZM39.922 6.15608C36.204 9.38647 35.3507 15.3596 38.2153 19.4434C40.8362 23.1614 43.64 26.7575 46.3827 30.4145C49.0646 26.7575 51.8683 23.1614 54.4892 19.5043C57.4148 15.4206 56.5006 9.26457 52.7216 6.03417C49.2474 2.86473 43.3962 2.86473 39.922 6.15608ZM65.2166 18.8948C67.4108 22.0642 69.666 25.2337 71.7992 28.4031C74.2982 32.0602 74.2373 37.3019 71.5554 40.8371C69.7269 43.397 67.7765 46.3227 64.4851 47.0541C61.4986 48.0293 58.1463 45.957 55.3425 47.7245C53.453 49.0655 52.6607 51.5644 50.5274 52.6006C46.9313 54.9167 42.6647 53.1492 38.7029 53.0273C35.5335 52.7835 32.425 55.9529 33.3393 59.1223C34.0707 61.0728 35.4116 62.6575 36.4478 64.4251C37.362 65.8269 38.1544 67.5945 39.922 68.0212C42.299 68.6916 44.1885 66.8631 46.1999 65.9488C49.1255 64.2422 52.6607 64.2422 55.8911 64.9127C56.7444 61.6823 58.512 58.6957 61.2547 56.7453C65.2775 53.6368 71.1288 53.2711 75.5782 55.7701C80.82 58.6347 83.7456 65.0955 82.4047 70.9468C81.7342 74.1772 79.601 76.7981 77.6505 79.2971C79.6619 82.3446 82.2828 84.9045 84.477 87.7692C86.1836 89.9635 86.0008 93.3158 84.1113 95.3271C81.1857 98.1309 77.5286 100.081 74.7249 103.007C71.9211 107.213 72.3478 112.942 68.9346 116.782C67.7155 118.245 66.3137 119.647 65.5823 121.475C64.7899 123.425 64.9727 125.681 63.7537 127.448C62.4738 129.46 60.0357 130.922 57.5977 130.557C55.3425 130.252 53.3921 128.423 53.0264 126.107C52.234 121.841 51.6245 117.574 50.8931 113.308C50.7103 112.089 50.2226 110.931 49.4912 109.955C46.8704 106.481 44.1885 103.068 41.5676 99.5328C39.3734 96.6681 38.9467 92.9501 37.9106 89.5978C37.1182 87.0378 36.8744 83.9293 34.4364 82.3446C32.3641 81.0647 29.6822 80.8818 27.8537 79.1142C24.8062 76.2495 21.4539 73.6286 19.2596 70.0325C17.9187 67.9602 15.4197 67.1069 13.0426 66.924C10.4218 67.6555 7.80088 68.5697 5.17999 69.423C3.41242 77.4685 3.22956 85.8188 4.75333 93.9253C7.61802 109.955 16.9435 124.705 30.1698 134.153C37.362 139.273 45.5294 143.234 54.3064 144.697C60.5843 146.404 67.167 146.465 73.5668 145.916C89.9016 144.393 105.505 136.164 115.989 123.547C126.228 111.479 131.714 95.51 130.922 79.6628C129.032 79.9066 127.082 79.7847 125.192 80.2723C123.486 80.8208 122.937 82.5884 122.206 83.9903C120.377 87.5254 116.476 89.7806 112.514 89.7197C109.101 89.6587 104.896 90.4511 102.397 87.4645C100.324 85.4531 100.995 82.4056 100.019 80.0285C98.6786 78.2609 96.3624 77.2247 95.692 74.9086C94.8387 71.3735 94.9606 67.1069 97.7643 64.4251C100.812 61.5604 104.103 58.9395 107.151 56.0748C109.406 54.0634 108.492 49.9188 105.688 48.9436C103.677 48.395 101.36 48.334 99.6538 46.9322C96.85 45.1037 95.5701 41.1418 97.1548 38.0943C98.7395 35.1077 100.629 32.1821 102.275 29.1955C91.0597 22.6737 78.1991 18.4681 65.2166 18.8948ZM58.5729 19.6872C55.6473 24.6242 51.8074 28.9517 48.516 33.5839C47.9065 34.6811 46.4437 35.9001 45.2247 34.803C43.3962 32.7306 41.8724 30.3536 40.1658 28.1593C39.4953 27.306 38.8248 26.4527 38.2153 25.5994C34.924 27.5498 31.5717 29.5612 28.5851 31.8773C29.3775 33.5839 29.926 35.3515 30.2308 37.18C30.3527 40.5323 29.5603 43.9456 27.5489 46.6274C24.4405 50.9549 21.332 55.2215 18.1625 59.3661C17.4921 60.4023 16.2121 60.0366 15.2369 59.7928L15.3588 59.4271C13.7741 57.5986 12.4941 55.5872 10.9703 53.6977C10.8484 53.7587 10.5437 53.8806 10.4218 53.8806C8.65419 57.5376 7.25232 61.3775 6.21615 65.2784C8.71514 64.486 11.1532 63.4499 13.835 63.3889C17.0044 63.7546 20.2348 65.1565 22.1243 67.8383C24.3185 71.4344 27.6708 74.1162 30.7793 76.859C33.5831 78.2 37.0573 78.8095 38.8248 81.7351C41.6895 86.2455 41.5676 91.9139 43.9447 96.6071C46.6875 100.569 49.735 104.226 52.5997 108.127C53.453 109.285 54.0016 110.565 54.3064 111.967C55.2206 116.599 55.7082 121.353 56.8053 126.046C57.7806 128.058 60.6452 126.656 61.0719 124.888C61.5595 122.816 61.8033 120.622 62.9614 118.732C64.4242 115.989 67.3498 114.1 68.0203 110.992C69.3612 107.213 69.7879 102.824 72.7745 99.8985C75.4563 97.3995 78.5648 95.51 81.3076 93.1329C82.2828 92.3406 82.2828 90.7558 81.4295 89.8416C79.4791 87.4035 77.2848 85.0874 75.3953 82.5884C73.6887 84.7217 72.2259 87.0378 70.3974 89.1102C69.5441 89.9635 68.0812 89.4759 67.5327 88.5006C64.3632 84.295 61.1938 80.0894 58.0853 75.8229C56.5615 73.7505 56.1349 71.1906 55.4644 68.7526C53.0873 67.9602 50.3446 67.9602 48.1503 69.1792C45.9561 70.2763 43.8228 71.922 41.2629 71.922C38.4591 72.0439 35.7773 70.3982 34.3754 67.9602C32.9126 65.4612 31.0231 63.206 29.987 60.4633C28.5851 56.3186 31.145 51.6254 35.1678 50.1016C38.7029 48.5779 42.4819 50.1016 46.1389 50.2235C47.9675 50.3454 49.6131 49.2483 50.5274 47.7245C51.9293 45.4694 54.3064 43.7627 56.9882 43.458C59.67 43.0313 62.7176 44.677 65.1556 42.9704C66.6184 41.8123 67.7155 40.1666 68.8127 38.6429C70.5193 36.2658 70.4583 32.8525 68.7517 30.4755C66.2527 26.7575 63.5709 23.1614 61.1329 19.3824C60.2186 19.3824 59.4262 19.5653 58.5729 19.6872ZM14.0179 28.8298C8.04468 30.4755 4.93619 38.0943 8.10563 43.458C10.7875 47.5417 13.896 51.2597 16.7606 55.2215C19.4425 51.6254 22.1243 48.0902 24.7452 44.4941C26.8175 41.5685 27.1832 37.6067 25.6595 34.3763C23.8309 29.9879 18.5892 27.4279 14.0179 28.8298ZM100.141 40.2276C99.349 42.6656 101.787 44.677 104.042 44.8598C106.541 45.1037 109.04 46.2008 110.442 48.334C112.758 51.3816 112.393 56.0748 109.589 58.6957C106.663 61.4385 103.494 64.0594 100.568 66.7412C98.5567 68.3869 98.6786 71.3735 99.1052 73.6896C100.019 75.701 102.518 76.4324 103.311 78.5657C104.713 80.8818 103.25 84.8436 106.419 85.9407C109.833 86.1236 113.794 86.794 116.781 84.7217C119.341 83.076 119.524 79.4799 122.084 77.8342C124.461 76.0057 127.691 76.3714 130.495 76.0667C130.007 70.6421 128.849 65.3393 127.508 60.0366C126.533 61.0118 125.741 62.9622 124.034 62.4137C123.059 61.8651 122.51 60.829 121.84 59.9757C119.646 56.8672 117.208 54.0025 115.135 50.833C112.88 47.2979 113.002 42.6656 114.891 39.0086C111.905 36.1439 108.674 33.462 105.2 31.1459C103.555 34.3154 101.604 37.1191 100.141 40.2276ZM120.743 38.2772C116.781 40.6542 116.11 46.6884 118.975 50.1016C120.865 52.6616 122.754 55.1605 124.644 57.6595C126.655 54.9167 128.788 52.174 130.8 49.4312C132.75 46.7493 132.628 42.8485 130.617 40.1666C128.484 37.1191 123.912 36.2048 120.743 38.2772ZM62.5347 60.4023C58.9996 63.6937 58.2072 69.484 60.95 73.5067C63.5709 77.2247 66.4356 80.8208 69.1174 84.5388C71.8602 80.8208 74.7249 77.1638 77.4067 73.4458C80.2714 69.2402 79.1133 63.0232 75.1515 59.9147C71.5554 56.8672 65.8261 57.111 62.5347 60.4023Z" fill="#1C2436"/>
<path d="M43.9447 6.33893C47.7846 5.18086 52.173 7.6189 53.1482 11.4588C54.3672 15.3597 51.7464 19.87 47.7846 20.7233C43.9447 21.8204 39.6781 19.2605 38.7638 15.4206C37.6667 11.6417 40.1657 7.31414 43.9447 6.33893ZM44.5542 9.75218C41.7504 10.6664 41.08 14.8111 43.3961 16.5787C45.6513 18.651 49.735 17.0663 49.9788 14.0187C50.5273 11.0931 47.236 8.53316 44.5542 9.75218Z" fill="#1C2436"/>
<path d="M14.0795 31.0849C18.3461 29.5611 23.3441 32.7305 23.8317 37.18C24.5631 41.2027 21.3936 45.2864 17.3709 45.774C13.47 46.4445 9.44728 43.3969 8.89872 39.4961C8.22826 35.9 10.5444 32.121 14.0795 31.0849ZM14.6281 34.62C11.8244 35.7781 11.4587 40.0446 14.0186 41.6903C16.3347 43.3969 19.9918 41.8732 20.3575 39.0085C21.0279 35.9 17.4318 33.1572 14.6281 34.62Z" fill="#1C2436"/>
<path d="M123.547 39.4352C127.752 38.3991 131.775 42.9704 130.19 46.9931C129.032 50.894 123.425 52.2349 120.682 49.1874C117.33 46.2008 119.158 40.0448 123.547 39.4352ZM124.095 42.4828C122.145 42.8485 121.352 45.5913 122.815 46.9322C124.217 48.456 127.143 47.4808 127.325 45.3475C127.63 43.6409 125.802 42.0561 124.095 42.4828Z" fill="#1C2436"/>
<path d="M66.8629 60.4632C70.8248 59.0613 75.518 61.7432 76.3713 65.8269C77.4074 69.6668 74.7256 73.9333 70.8857 74.7866C67.1068 75.8228 62.8402 73.2629 61.9259 69.423C60.8898 65.7659 63.2059 61.5603 66.8629 60.4632ZM67.4725 63.9374C64.8516 65.0345 64.303 68.9354 66.5582 70.7029C68.7524 72.7143 72.7752 71.1905 73.0799 68.2039C73.7504 65.1564 70.1543 62.4746 67.4725 63.9374Z" fill="#1C2436"/>
<path d="M100.143 40.2276C101.606 37.1191 103.556 34.2544 105.263 31.2678C108.737 33.584 111.967 36.2048 114.954 39.1305C113.064 42.7875 112.942 47.4198 115.198 50.9549C117.331 54.0634 119.708 56.9891 121.902 60.0976C122.573 60.9509 123.121 61.987 124.096 62.5356C125.803 63.0232 126.595 61.1337 127.571 60.1585C128.912 65.4003 130.07 70.764 130.557 76.1886C127.754 76.5543 124.523 76.1276 122.146 77.9562C119.586 79.6018 119.403 83.1979 116.843 84.8436C113.796 86.9159 109.895 86.2455 106.482 86.0626C103.312 84.9655 104.775 81.0037 103.373 78.6876C102.581 76.5543 100.082 75.8229 99.1676 73.8115C98.68 71.4954 98.619 68.5088 100.63 66.8631C103.617 64.1203 106.725 61.5604 109.651 58.8176C112.455 56.1967 112.821 51.5035 110.504 48.456C109.042 46.3227 106.543 45.2865 104.105 44.9818C101.788 44.677 99.3504 42.6656 100.143 40.2276Z" fill="#4DF189"/>
<path d="M81.3082 89.7197C79.3578 87.2816 77.1636 84.9655 75.2741 82.4665C73.5675 84.5998 72.1047 86.9159 70.2761 88.9883C69.4228 89.8416 67.96 89.354 67.4114 88.3787C64.242 84.1731 61.0725 79.9675 57.9641 75.7619C56.4403 73.6896 56.0136 71.1297 55.3432 68.6916C52.9661 67.8993 50.2233 67.8993 48.0291 69.1183C45.8348 70.2154 43.7016 71.8611 41.1416 71.8611C38.3379 71.983 35.656 70.3373 34.2542 67.8993C32.7914 65.4003 30.9019 63.0841 29.8657 60.4023C28.4639 56.2577 31.0847 51.5644 35.0465 50.0407C38.5817 48.5169 42.3606 50.0407 46.0177 50.1016C47.8462 50.2235 49.4919 49.1264 50.4062 47.6026C51.808 45.3475 54.1851 43.6408 56.8669 43.3361C59.5488 42.9094 62.5963 44.5551 65.0344 42.8485C66.4972 41.6904 67.5943 40.0447 68.6914 38.521C70.398 36.1439 70.3371 32.7306 68.6305 30.3535C66.1315 26.6355 63.4496 23.0394 61.0116 19.2605C60.1583 19.3824 59.3659 19.5653 58.5736 19.7481C55.6479 24.6851 51.808 29.0126 48.5167 33.6449C47.9072 34.742 46.4443 35.961 45.2253 34.8639C43.3968 32.7916 41.873 30.4145 40.1664 28.2203C39.496 27.367 38.8255 26.5136 38.216 25.6603C34.9246 27.6108 31.6333 29.6221 28.5858 31.9992C29.3781 33.7058 29.9267 35.4734 30.2314 37.3019C30.3533 40.6542 29.561 44.0675 27.5496 46.7493C24.4411 50.9549 21.3326 55.2215 18.1632 59.3661C17.4927 60.4023 16.2127 60.0366 15.2375 59.7928L15.3594 59.4271C13.7747 57.5986 12.4947 55.5872 10.971 53.6977C10.8491 53.7587 10.5443 53.8806 10.4224 53.8806C8.65483 57.5376 7.25296 61.3775 6.2168 65.2784C8.71578 64.486 11.1538 63.4499 13.8357 63.3889C17.0051 63.7546 20.2355 65.1565 22.125 67.8383C24.3192 71.4344 27.6715 74.1162 30.78 76.859C33.5837 78.2 37.0579 78.8095 38.8255 81.7351C41.6902 86.2455 41.5683 91.9139 44.0063 96.6071C46.7491 100.569 49.7966 104.226 52.6613 108.127C53.5146 109.285 54.0632 110.565 54.368 111.967C55.2822 116.66 55.7698 121.353 56.806 126.046C57.7812 128.058 60.6459 126.656 61.0725 124.888C61.5602 122.816 61.804 120.622 62.962 118.793C64.4248 116.05 67.3505 114.222 68.0209 111.052C69.3619 107.273 69.7885 102.885 72.7751 99.9594C75.4569 97.5214 78.5654 95.5709 81.3082 93.1939C82.1615 92.2186 82.1615 90.6339 81.3082 89.7197Z" fill="#4DF189"/>
<path d="M130.861 79.7236C128.972 79.9674 127.022 79.8455 125.132 80.3331C123.425 80.8817 122.877 82.6493 122.145 84.0511C120.317 87.5863 116.355 89.8415 112.393 89.7805C108.98 89.7196 104.774 90.5119 102.275 87.5253C100.264 85.514 100.874 82.4664 99.8984 80.0893C98.5575 78.3217 96.2414 77.2856 95.6318 74.9695C94.7176 71.4343 94.9004 67.1677 97.7042 64.4859C100.752 61.6212 104.043 59.0003 107.03 56.1356C109.285 54.1243 108.371 49.9796 105.567 49.0044C103.555 48.4558 101.239 48.3949 99.5327 46.993C96.729 45.1645 95.449 41.2027 97.0337 38.1551C98.6184 35.1686 100.447 32.2429 102.154 29.2563C91.0605 22.6736 78.1999 18.468 65.2174 18.8947C67.4116 22.0641 69.6668 25.2336 71.8001 28.403C74.2991 32.0601 74.2381 37.2409 71.5563 40.837C69.7277 43.3969 67.7773 46.3226 64.486 47.054C61.4994 48.0292 58.1471 45.9569 55.3433 47.7244C53.4539 49.0654 52.6615 51.5643 50.5282 52.6005C46.9321 54.9166 42.6046 53.1491 38.7038 53.0272C35.5343 52.7833 32.4258 55.9528 33.3401 59.1222C34.0715 61.0727 35.4124 62.6574 36.4486 64.425C37.3629 65.8268 38.1552 67.5944 39.9228 68.0211C42.2999 68.6915 44.1893 66.802 46.2007 65.9487C49.1264 64.2421 52.6615 64.2421 55.8919 64.9126C56.7452 61.6822 58.5128 58.6956 61.2556 56.7452C65.2783 53.6367 71.1296 53.271 75.579 55.7699C80.8208 58.6346 83.7464 65.0954 82.3446 70.9467C81.7351 74.1771 79.5408 76.798 77.5904 79.297C79.6018 82.3445 82.2227 84.9044 84.4169 87.7691C86.1235 89.9634 85.9407 93.3157 84.0512 95.327C81.1255 98.1308 77.4685 100.081 74.7257 103.007C71.922 107.212 72.3486 112.942 68.9354 116.782C67.7164 118.245 66.3145 119.646 65.5831 121.475C64.7907 123.425 64.9736 125.681 63.7546 127.448C62.4136 129.46 60.0366 130.922 57.5985 130.618C55.3433 130.313 53.3929 128.484 53.0272 126.168C52.2349 121.902 51.6253 117.635 50.8939 113.368C50.7111 112.149 50.2235 110.991 49.4921 110.016C46.8712 106.542 44.1893 103.129 41.5685 99.6545C39.3742 96.7898 38.9476 93.0718 37.9114 89.7196C37.119 87.1596 36.8752 84.0511 34.4372 82.4664C32.3649 81.1864 29.683 81.0036 27.8545 79.236C24.807 76.3713 21.4547 73.7504 19.2605 70.1543C17.9195 68.082 15.4205 67.2287 13.0435 67.1068C10.4226 67.8382 7.80169 68.7525 5.18081 69.5448C3.41323 77.5903 3.23038 85.9406 4.75415 94.0471C7.61884 110.077 16.9443 124.827 30.1707 134.275C37.3629 139.334 45.5303 143.356 54.3072 144.819C60.5851 146.526 67.1678 146.648 73.5676 146.038C89.9025 144.514 105.506 136.286 115.989 123.669C126.168 111.54 131.654 95.5708 130.861 79.7236Z" fill="white"/>
</g>
<defs>
<clipPath id="clip0_594_4363">
<rect width="135.859" height="150" fill="white"/>
</clipPath>
</defs>
</svg>
