<svg width="79" height="80" viewBox="0 0 79 80" fill="none" xmlns="http://www.w3.org/2000/svg">
<g clip-path="url(#clip0_283_837)">
<path d="M49.6252 0H50.4377C52.3596 0.203125 54.1252 1.5625 54.6877 3.4375C55.4534 6.1875 56.1721 8.96875 56.9221 11.7188C58.6409 11.5156 60.4221 12.1406 61.594 13.4062C63.0471 14.9063 63.4846 17.2812 62.6721 19.2188C62.1409 20.5625 61.0315 21.6094 59.719 22.2031C60.2346 24.125 60.7502 26.0625 61.2659 28C64.3284 28 67.3909 28 70.469 28C71.4065 28 72.3596 27.9531 73.2815 28.1719C75.1409 28.5938 76.7659 29.9375 77.5627 31.6719C77.9846 32.5625 78.1565 33.5625 78.1252 34.5312C78.1252 47.6094 78.1252 60.6875 78.1252 73.75C78.1409 75.7969 77.0627 77.8125 75.344 78.9375C74.4377 79.5625 73.344 79.8906 72.2502 80H5.89085C3.45335 79.8438 1.1721 78.1719 0.375226 75.8438C-0.031024 74.7812 0.000225981 73.625 0.000225981 72.5C0.000225981 60.2031 0.000225981 47.9219 0.000225981 35.625C0.000225981 34.8281 -0.031024 34.0469 0.078351 33.25C0.328351 31.5781 1.31273 30.0469 2.70335 29.0938C3.78148 28.3438 5.09398 27.9844 6.39085 27.9844C9.4846 27.9844 12.5627 27.9844 15.6565 27.9844C15.3596 26.5312 15.3909 25.0156 15.8127 23.5938C16.6096 20.8281 18.844 18.5312 21.6096 17.7188C23.4065 17.1875 25.2346 16.75 27.0315 16.25C27.8596 16.0312 28.7502 15.6562 29.5627 16.125C34.8596 13.875 39.9377 10.7969 43.8284 6.51562C44.219 6.03125 44.7034 5.59375 45.0002 5.03125C45.0784 4.26562 45.1565 3.46875 45.5315 2.76562C46.3127 1.20313 47.9221 0.140625 49.6252 0ZM49.4534 3.21875C48.6565 3.46875 48.1096 4.3125 48.219 5.14062C48.2815 5.54688 48.4065 5.92188 48.5159 6.3125C50.8127 14.8594 53.094 23.3906 55.3909 31.9375C55.5315 32.5 55.9221 33 56.469 33.2031C57.344 33.5938 58.469 33.1094 58.8127 32.2188C59.0784 31.625 58.8752 30.9844 58.7034 30.4062C56.3909 21.7812 54.094 13.1562 51.7659 4.54688C51.5471 3.54688 50.4221 2.85938 49.4534 3.21875ZM30.7346 19.0469C31.6252 22.3438 32.5002 25.6562 33.3909 28.9531C39.469 28.1875 45.7659 28.3281 51.6565 30.1562C49.7502 23.0625 47.8596 15.9688 45.9534 8.875C41.7659 13.4062 36.3752 16.6719 30.7346 19.0469ZM57.7502 14.8125C58.1252 16.25 58.5159 17.6875 58.9065 19.125C59.6096 18.625 60.0627 17.7656 59.9377 16.8906C59.8284 15.7812 58.844 14.8906 57.7502 14.8125ZM22.844 20.625C22.1565 20.7969 21.5002 21.1094 20.9377 21.5312C18.9221 22.9531 18.0627 25.7812 18.969 28.0938C19.8752 30.6094 22.719 32.2031 25.3284 31.6406C27.0627 31.2188 28.7815 30.7344 30.5002 30.2656C29.5315 26.625 28.5471 23 27.5784 19.3594C26.0002 19.7812 24.4221 20.2031 22.844 20.625ZM6.2346 31.125C17.219 40.7031 28.1877 50.2812 39.1721 59.8594C50.2659 50.2812 61.3752 40.7344 72.4534 31.1562C68.9846 31.0625 65.5159 31.1406 62.0471 31.1094C62.219 33.1562 61.0315 35.2344 59.1409 36.0469C57.1096 37 54.469 36.2969 53.1877 34.4531C53.0002 34.2344 52.9065 33.9062 52.6096 33.8125C50.3752 32.9062 48.0159 32.3438 45.6409 32.0156C41.9065 31.5 38.1096 31.5469 34.3752 31.9688C35.5002 34.7656 36.6565 37.5469 37.7971 40.3281C38.2034 41.3281 38.0159 42.5312 37.3127 43.3438C36.7971 43.9688 36.0002 44.25 35.3127 44.625C34.6721 44.9375 34.0471 45.3594 33.3284 45.4375C32.0627 45.6094 30.719 44.8594 30.2346 43.6719C28.969 40.6406 27.719 37.5938 26.469 34.5625C23.0002 35.5 19.1096 34.0156 17.0784 31.0781C13.4377 31.125 9.84398 31.125 6.2346 31.125ZM3.45335 32.8438C3.25023 33.3281 3.1096 33.8438 3.12523 34.3594C3.12523 47.4375 3.12523 60.5156 3.12523 73.5938C3.1096 74.1406 3.2346 74.6719 3.45335 75.1562C11.5159 68.0938 19.5784 61.0156 27.6252 53.9375C19.5627 46.9219 11.5159 39.875 3.45335 32.8438ZM29.4846 33.7812C30.6565 36.625 31.8284 39.4687 33.0159 42.3125C33.6096 42 34.219 41.7188 34.7971 41.3906C34.7971 41.1719 34.6565 40.9688 34.5784 40.7656C33.5471 38.25 32.5159 35.75 31.4846 33.2344C30.8127 33.4219 30.1409 33.5938 29.4846 33.7812ZM50.8127 53.9531C58.8284 60.8906 66.8284 67.8281 74.844 74.7656C74.9377 74.375 75.0002 73.9844 75.0002 73.5938C75.0002 60.5781 75.0002 47.5469 75.0002 34.5312C75.0002 34.0938 74.9377 33.6719 74.844 33.25C66.8284 40.1406 58.8284 47.0469 50.8127 53.9531ZM6.25023 76.875C25.8909 76.875 45.5315 76.875 65.1565 76.875C67.5784 76.8438 70.0159 76.9219 72.4377 76.8281C64.4377 69.875 56.4221 62.9531 48.4221 56C45.7034 58.3438 42.969 60.7031 40.2502 63.0469C39.8909 63.375 39.3909 63.5469 38.9065 63.4688C38.3752 63.4062 38.0159 63 37.6252 62.6719C35.0784 60.4531 32.5471 58.2344 30.0002 56.0156C22.0784 62.9688 14.1721 69.9219 6.25023 76.875Z" fill="#1C2436"/>
<path d="M64.5784 3.5C65.2659 3.17187 66.1409 3.4375 66.5315 4.09375C66.9221 4.6875 66.8284 5.53125 66.3127 6.01562C65.2346 7.125 64.1252 8.20312 63.0315 9.29687C62.6721 9.67187 62.2346 10.0625 61.6877 10.0625C60.7971 10.1406 59.969 9.32812 60.0471 8.4375C60.0471 7.79687 60.5627 7.34375 60.9846 6.92187C61.969 5.9375 62.9534 4.95312 63.9377 3.95312C64.1565 3.79687 64.344 3.60937 64.5784 3.5Z" fill="#1C2436"/>
<path d="M70.3756 12.1093C71.0475 11.8593 71.9069 11.8437 72.4069 12.4374C73.1412 13.1718 72.8443 14.5937 71.8443 14.9374C70.2506 15.4218 68.6256 15.8124 67.0319 16.2499C66.2037 16.5156 65.2506 15.9374 65.0787 15.0937C64.8756 14.2968 65.4225 13.4218 66.2193 13.2343C67.61 12.8593 69.0006 12.4999 70.3756 12.1093Z" fill="#1C2436"/>
<path d="M64.8913 21.1564C65.3444 20.9845 65.8288 21.1095 66.2663 21.2345C67.7507 21.6407 69.2507 22.0157 70.735 22.4376C71.5475 22.6407 72.0788 23.5626 71.8288 24.3595C71.6257 25.2032 70.6413 25.7189 69.8288 25.422C68.2194 24.9845 66.61 24.5626 65.0007 24.1251C64.1882 23.922 63.6569 22.9845 63.9225 22.1876C64.0475 21.7189 64.4225 21.3282 64.8913 21.1564Z" fill="#1C2436"/>
<path d="M49.4529 3.21885C50.4217 2.8751 51.5623 3.54697 51.7654 4.54697C54.0779 13.172 56.3904 21.797 58.7029 30.4063C58.8592 31.0001 59.0779 31.6407 58.8123 32.2188C58.4686 33.1095 57.3592 33.5938 56.4686 33.2032C55.9217 32.9845 55.5311 32.5001 55.3904 31.9376C53.0936 23.3907 50.8123 14.8595 48.5154 6.3126C48.4061 5.92197 48.2967 5.53135 48.2186 5.14072C48.0936 4.3126 48.6561 3.45322 49.4529 3.21885Z" fill="#E7D6FF"/>
<path d="M22.8438 20.625C24.4219 20.2031 26 19.7656 27.5938 19.3594C28.5625 23 29.5469 26.625 30.5156 30.2656C28.7969 30.7187 27.0781 31.2188 25.3438 31.6406C22.7344 32.2031 19.875 30.6094 18.9844 28.0938C18.0625 25.7812 18.9219 22.9531 20.9531 21.5313C21.5 21.1094 22.1563 20.8125 22.8438 20.625Z" fill="#E7D6FF"/>
<path d="M30.7344 19.0469C36.3906 16.6719 41.7656 13.4062 45.9531 8.875C47.8594 15.9688 49.75 23.0625 51.6563 30.1562C45.7656 28.3281 39.4688 28.1875 33.3906 28.9531C32.5 25.6562 31.6094 22.3594 30.7344 19.0469Z" fill="#FFEFEB"/>
<path d="M57.75 14.8125C58.8438 14.8906 59.8438 15.7812 59.9375 16.8906C60.0469 17.7656 59.6094 18.625 58.9062 19.125C58.5156 17.6875 58.125 16.25 57.75 14.8125Z" fill="#F2F2F2"/>
<path d="M29.4844 33.7812C30.1562 33.5937 30.8281 33.4219 31.5 33.2344C32.5313 35.75 33.5625 38.25 34.5937 40.7656C34.6562 40.9687 34.7969 41.1719 34.8125 41.3906C34.2344 41.7187 33.625 42 33.0312 42.3125C31.8281 39.4687 30.6562 36.625 29.4844 33.7812Z" fill="#F2F2F2"/>
<path d="M6.23438 31.125C9.82812 31.125 13.4375 31.125 17.0312 31.125C19.0781 34.0625 22.9688 35.5469 26.4219 34.6094C27.6875 37.6406 28.9219 40.6875 30.1875 43.7187C30.6875 44.9062 32.0156 45.6406 33.2812 45.4844C34 45.4063 34.625 44.9844 35.2656 44.6719C35.9531 44.2969 36.75 44.0156 37.2656 43.3906C37.9688 42.5781 38.1719 41.375 37.75 40.375C36.625 37.5781 35.4687 34.7969 34.3281 32.0156C38.0625 31.5937 41.8594 31.5469 45.5938 32.0625C47.9688 32.3906 50.3438 32.9531 52.5625 33.8594C52.8594 33.9531 52.9531 34.2813 53.1406 34.5C54.4375 36.3438 57.0625 37.0313 59.0938 36.0938C60.9844 35.2813 62.1719 33.2031 62 31.1562C65.4688 31.1875 68.9375 31.0938 72.4062 31.2031C61.3281 40.7812 50.2188 50.3281 39.125 59.9062C28.1875 50.2969 17.2188 40.7031 6.23438 31.125Z" fill="#C7FFDB"/>
<path d="M3.45346 32.8438C11.516 39.875 19.5628 46.9063 27.6253 53.9375C19.5785 61.0156 11.516 68.0937 3.45346 75.1562C3.23471 74.6562 3.10971 74.1406 3.12533 73.5938C3.12533 60.5156 3.12533 47.4375 3.12533 34.3594C3.10971 33.8437 3.25033 33.3281 3.45346 32.8438Z" fill="#4DF189"/>
<path d="M50.8125 53.9531C58.8281 47.0625 66.8281 40.1406 74.8437 33.25C74.9531 33.6719 75.0156 34.0937 75 34.5312C75 47.5469 75 60.5781 75 73.5938C75 74 74.9375 74.3906 74.8437 74.7656C66.8281 67.8281 58.8281 60.8906 50.8125 53.9531Z" fill="#4DF189"/>
<path d="M6.25 76.875C14.1719 69.9219 22.0781 62.9688 30.0156 56.0156C32.5625 58.2344 35.0938 60.4531 37.6406 62.6719C38.0156 63 38.3906 63.4063 38.9219 63.4688C39.4062 63.5625 39.9063 63.375 40.2656 63.0469C42.9844 60.7031 45.7188 58.3438 48.4375 56C56.4531 62.9375 64.4688 69.875 72.4531 76.8281C70.0312 76.9219 67.5938 76.8438 65.1719 76.875C45.5156 76.875 25.8906 76.875 6.25 76.875Z" fill="#4DF189"/>
</g>
<defs>
<clipPath id="clip0_283_837">
<rect width="78.125" height="80" fill="white"/>
</clipPath>
</defs>
</svg>
