<svg width="80" height="80" viewBox="0 0 80 80" fill="none" xmlns="http://www.w3.org/2000/svg">
<rect width="80" height="80" rx="4" fill="#D6FFD8"/>
<g clip-path="url(#clip0_2110_16624)">
<path d="M34.5362 16.9617C34.9682 15.8173 36.1359 15 37.362 15C39.1135 14.9883 40.865 14.9883 42.6165 15C43.8426 15 44.9986 15.8173 45.4307 16.9617C45.781 17.8374 45.5708 18.7832 45.6525 19.694C45.6992 20.1611 46.0612 20.5464 46.5049 20.6866C47.6376 21.0719 48.7352 21.5623 49.7861 22.1345C51.5493 20.4063 53.3008 18.6782 55.0523 16.9383C55.4844 16.5063 55.9047 16.0626 56.4302 15.7473C57.7146 14.9533 59.3961 14.8949 60.7506 15.5605C61.7198 16.0158 62.3853 16.8799 63.1677 17.5922C63.9734 18.3162 64.5339 19.3087 64.674 20.383C64.8725 21.7492 64.3821 23.1737 63.4129 24.1429C61.4979 26.0462 59.5712 27.9378 57.6562 29.8412C58.2401 30.8687 58.7539 31.9313 59.1392 33.0523C59.291 33.531 59.5012 34.0915 60.0383 34.255C60.9491 34.4652 61.9066 34.1849 62.8057 34.4652C64.0434 34.8272 64.9776 36.0299 64.9893 37.326C65.0009 39.1242 65.0009 40.9108 64.9893 42.709C64.9659 43.9117 64.1602 45.056 63.0392 45.4764C62.1518 45.8384 61.1826 45.6165 60.2485 45.7099C59.8048 45.7683 59.4428 46.1069 59.3027 46.5273C59.0341 47.2629 58.7539 47.9869 58.4036 48.6875C58.2284 49.0378 58.0182 49.4231 58.1116 49.8318C58.17 50.2172 58.4736 50.4974 58.7422 50.766C59.2676 51.3031 59.8865 51.8052 60.1551 52.5292C60.6222 53.6385 60.3419 54.993 59.4895 55.8454C58.2401 57.0948 57.0023 58.3442 55.7529 59.5819C54.8655 60.4577 53.4292 60.6796 52.3083 60.1307C51.4559 59.7337 50.9538 58.893 50.2181 58.3442C49.8328 58.064 49.3073 58.1107 48.8987 58.3325C48.128 58.7179 47.3223 59.0448 46.5166 59.3251C46.0729 59.4652 45.7226 59.8739 45.6992 60.3409C45.6525 61.0415 45.7459 61.7421 45.6408 62.4311C45.4774 63.4937 44.7184 64.4161 43.7142 64.8015C43.107 65.0467 42.4531 65.0116 41.8108 65.0116C40.3279 65 38.8449 65.0233 37.3737 65C36.1476 65 34.9799 64.1943 34.5479 63.0499C34.1859 62.1625 34.4078 61.17 34.3027 60.2475C34.2443 59.8155 33.9057 59.4535 33.4853 59.3251C32.6329 59.0215 31.8038 58.6945 30.9981 58.2975C30.5895 58.0873 30.064 58.0873 29.702 58.3909C29.1299 58.8697 28.6745 59.4885 28.0556 59.9089C27.1682 60.5161 25.9538 60.5978 24.9846 60.1191C24.5058 59.8972 24.1205 59.5119 23.7585 59.1265C22.6492 58.0056 21.5283 56.908 20.4307 55.787C19.5899 54.9112 19.3564 53.5217 19.8585 52.4124C20.1504 51.7351 20.7342 51.2564 21.2363 50.7543C21.4932 50.4974 21.7968 50.2172 21.8552 49.8318C21.9486 49.3998 21.7034 49.0028 21.5283 48.6174C21.1896 47.9168 20.9328 47.1812 20.6525 46.4572C20.5124 46.0602 20.1387 45.7566 19.7184 45.7099C18.7959 45.6165 17.8267 45.8384 16.951 45.4764C15.83 45.0443 15.0243 43.9 15.0009 42.6973C14.9893 40.9108 14.9893 39.1125 15.0009 37.326C15.0126 36.0882 15.865 34.9089 17.0444 34.5119C17.9085 34.1966 18.8309 34.4068 19.7184 34.3017C20.1621 34.2433 20.5241 33.893 20.6525 33.4726C20.9444 32.6202 21.2947 31.7912 21.6801 30.9855C21.8902 30.5885 21.8902 30.0747 21.61 29.7127C21.0729 29.0471 20.3139 28.5567 19.9052 27.786C19.2863 26.6534 19.4848 25.1471 20.3956 24.2246C21.575 23.0336 22.7777 21.8542 23.957 20.6515C24.9612 19.4605 26.8762 19.2153 28.114 20.1728C28.6861 20.6165 29.1299 21.1887 29.6903 21.6324C30.0523 21.9243 30.5778 21.9126 30.9748 21.7024C31.7571 21.3171 32.5628 20.9902 33.3802 20.7099C33.8122 20.5815 34.1976 20.2312 34.2676 19.7641C34.4078 18.8416 34.1626 17.8608 34.5362 16.9617ZM36.2177 17.8024C36.0892 18.6548 36.2994 19.5422 36.0659 20.383C35.809 21.3171 35.0617 22.1111 34.1509 22.4264C33.3335 22.7066 32.5395 23.0336 31.7688 23.4189C30.8814 23.8626 29.7838 23.8393 28.9197 23.3489C28.1957 22.9635 27.7637 22.2396 27.1565 21.7141C26.8179 21.4222 26.3158 21.3638 25.9187 21.539C25.5918 21.7024 25.3583 21.9827 25.1014 22.2279C24.0505 23.2788 22.9995 24.3297 21.9486 25.3806C21.61 25.6959 21.4232 26.1747 21.5516 26.63C21.7618 27.2489 22.3573 27.6109 22.7777 28.0896C23.6651 28.9187 23.9921 30.2849 23.5367 31.4175C23.163 32.2583 22.7894 33.099 22.5091 33.9747C22.2406 34.8622 21.5633 35.6212 20.6992 35.9598C19.8118 36.3335 18.8309 36.1116 17.8968 36.205C17.3129 36.2751 16.8692 36.8356 16.8926 37.4194C16.8809 39.1359 16.8809 40.864 16.8926 42.5805C16.8692 43.1644 17.3129 43.7249 17.8851 43.8066C18.5857 43.8883 19.2863 43.7949 19.9869 43.8533C21.0612 43.9467 22.0537 44.6824 22.4624 45.6866C22.7777 46.539 23.0579 47.403 23.4666 48.2087C23.957 49.1662 23.9103 50.3806 23.3148 51.2797C22.8828 51.922 22.2172 52.3657 21.7268 52.9495C21.3298 53.4166 21.4115 54.1756 21.8552 54.5843C23.0463 55.7753 24.2373 56.9547 25.4166 58.1457C25.7553 58.5077 26.3041 58.6828 26.7711 58.4843C27.355 58.1924 27.7286 57.6319 28.2074 57.2116C29.0364 56.3475 30.3909 56.0439 31.5002 56.4876C32.3293 56.8496 33.1583 57.2232 34.0224 57.4918C34.8865 57.7604 35.6338 58.4143 35.9725 59.2667C36.3578 60.1541 36.1243 61.135 36.2293 62.0574C36.2877 62.6763 36.8832 63.1317 37.4904 63.0967C39.1719 63.0967 40.8533 63.0967 42.5348 63.0967C43.0953 63.1317 43.6675 62.7463 43.7842 62.1859C43.9243 61.3335 43.7142 60.446 43.9477 59.5936C44.2046 58.6244 44.9753 57.8187 45.9211 57.5151C46.7501 57.2466 47.5558 56.9196 48.3498 56.546C49.319 56.0906 50.5217 56.1957 51.3858 56.8262C51.9697 57.2466 52.4017 57.8421 52.9622 58.2975C53.4176 58.6828 54.1415 58.6128 54.5502 58.1924C55.7296 57.0364 56.8856 55.8454 58.0649 54.6894C58.4152 54.3741 58.6721 53.8953 58.5554 53.4166C58.3919 52.7627 57.7613 52.4007 57.341 51.9336C56.4185 51.1163 56.0448 49.7384 56.5002 48.5824C56.8739 47.73 57.2709 46.8776 57.5512 45.9902C57.808 45.1261 58.4619 44.3904 59.3027 44.0401C60.2018 43.6431 61.206 43.865 62.1518 43.7832C62.759 43.7365 63.2494 43.1644 63.2261 42.5689C63.2261 41.0509 63.191 39.5329 63.191 38.0032C63.191 37.723 63.2027 37.4311 63.1443 37.1508C63.0509 36.6838 62.6422 36.2867 62.1635 36.2284C61.3344 36.135 60.482 36.3101 59.6647 36.0882C58.7188 35.8314 57.9248 35.0724 57.6095 34.1499C57.2592 33.1457 56.8272 32.1648 56.3251 31.2307C55.7413 31.7912 55.1457 32.3517 54.5502 32.9122C55.858 35.5978 56.4185 38.6455 56.1032 41.6114C55.7763 44.9042 54.3984 48.0803 52.2149 50.5675C50.0663 53.0313 47.1471 54.8295 43.9594 55.6002C40.7833 56.3942 37.362 56.1957 34.3027 55.0046C30.9514 53.7319 28.0673 51.3031 26.234 48.2204C24.4008 45.1728 23.6301 41.5179 24.0738 37.9916C24.4942 34.5586 26.0472 31.2774 28.4526 28.7903C30.9398 26.198 34.3143 24.4698 37.8758 23.9911C40.8533 23.5707 43.9477 24.0378 46.6917 25.2639C47.2873 24.68 47.8828 24.0845 48.4783 23.5007C47.801 23.162 47.1121 22.8234 46.3998 22.5665C45.9561 22.4031 45.5124 22.2629 45.1271 21.9827C44.3914 21.4572 43.9127 20.5698 43.8776 19.659C43.8309 19.0051 43.936 18.3395 43.8076 17.6856C43.6675 17.1485 43.107 16.7865 42.5582 16.8215C40.8884 16.8215 39.2069 16.8215 37.5371 16.8215C36.9066 16.8332 36.3344 17.2302 36.2177 17.8024ZM57.4461 17.3353C56.8155 17.7674 56.3368 18.3629 55.7763 18.8767C57.5044 20.5931 59.2326 22.2863 60.9608 23.9911C61.3928 23.5474 61.8599 23.127 62.2803 22.6599C62.9575 21.8893 63.086 20.6982 62.6072 19.7991C62.362 19.3204 61.9533 18.9701 61.5796 18.5964C61.2177 18.2578 60.8907 17.8841 60.5054 17.5572C59.6647 16.8566 58.3802 16.7748 57.4461 17.3353ZM35.9608 38.5053C37.6656 40.1985 39.3704 41.9033 41.0752 43.6081C47.2522 37.5011 53.4292 31.3942 59.6063 25.2872C57.8898 23.5941 56.1733 21.8893 54.4568 20.1961C48.2915 26.3031 42.1261 32.3984 35.9608 38.5053ZM35.844 26.3615C32.6329 27.3073 29.7838 29.4325 27.9505 32.2466C26.1406 34.9906 25.3349 38.3769 25.6969 41.6464C26.0589 45.0327 27.6703 48.2555 30.1691 50.5675C32.6329 52.8911 35.9608 54.269 39.3354 54.3974C42.6165 54.5492 45.9211 53.51 48.5367 51.5366C51.1289 49.61 53.0206 46.7608 53.8146 43.6314C54.5969 40.5955 54.3634 37.291 53.0789 34.4301C49.3073 38.155 45.5357 41.8799 41.7641 45.5931C41.5773 45.78 41.3321 45.8851 41.0869 45.9318C38.3195 46.609 35.5521 47.298 32.7847 47.9752C32.1308 48.1854 31.3718 47.5899 31.5353 46.901C32.2242 44.0518 32.9598 41.226 33.6604 38.3769C33.7305 37.9449 34.1042 37.6763 34.3844 37.3844C37.9692 33.8346 41.554 30.2849 45.1387 26.7235C42.2079 25.5791 38.88 25.439 35.844 26.3615ZM33.7305 45.7566C35.5638 45.3129 37.4087 44.8692 39.242 44.4021C37.8641 43.0359 36.4862 41.6697 35.1084 40.3152C34.6413 42.1368 34.1859 43.9467 33.7305 45.7566Z" fill="#1C2436"/>
<path d="M53.9772 24.6449C54.456 24.3413 55.1682 24.6449 55.3084 25.1937C55.4251 25.5674 55.25 25.9527 54.9697 26.2096C50.8478 30.2264 46.7259 34.2316 42.604 38.2484C42.4172 38.4235 42.1953 38.5987 41.9151 38.6103C41.3896 38.6687 40.8759 38.2133 40.8992 37.6762C40.8875 37.3726 41.0627 37.1157 41.2729 36.9172C44.7759 33.5193 48.2673 30.133 51.7703 26.7351C52.5176 26.0461 53.1949 25.2755 53.9772 24.6449Z" fill="#1C2436"/>
<path d="M36.2168 17.8025C36.3335 17.2304 36.9057 16.8333 37.4779 16.8684C39.1477 16.8684 40.8174 16.8684 42.4989 16.8684C43.0477 16.8333 43.6082 17.1836 43.7483 17.7325C43.8768 18.3864 43.7717 19.0519 43.8184 19.7058C43.8534 20.6166 44.3321 21.4924 45.0678 22.0295C45.4531 22.3098 45.8968 22.4616 46.3406 22.6134C47.0528 22.8702 47.7418 23.1972 48.419 23.5475C47.8235 24.1313 47.228 24.7269 46.6325 25.3107C43.8884 24.073 40.8058 23.6176 37.8165 24.0379C34.2551 24.5167 30.8805 26.2448 28.3933 28.8371C25.9879 31.3242 24.4349 34.6054 24.0145 38.0384C23.5708 41.5648 24.3415 45.2196 26.1747 48.2673C28.008 51.3499 30.8922 53.7787 34.2434 55.0515C37.3027 56.2308 40.724 56.441 43.9001 55.647C47.0762 54.8646 49.9954 53.0781 52.1556 50.6143C54.3392 48.1271 55.717 44.951 56.044 41.6582C56.3592 38.6923 55.8104 35.633 54.491 32.959C55.0865 32.3985 55.6703 31.838 56.2658 31.2775C56.7679 32.2117 57.2 33.1925 57.5503 34.1967C57.8655 35.1309 58.6596 35.8782 59.6054 36.1351C60.4228 36.3569 61.2752 36.1818 62.1042 36.2752C62.583 36.3336 62.9917 36.7189 63.0851 37.1977C63.1435 37.4779 63.1201 37.7581 63.1318 38.0501C63.1318 39.568 63.1668 41.086 63.1668 42.6157C63.1902 43.2229 62.6997 43.7834 62.0925 43.8301C61.1467 43.9118 60.1542 43.69 59.2434 44.087C58.4027 44.4373 57.7605 45.1729 57.4919 46.037C57.2116 46.9244 56.8263 47.7768 56.441 48.6292C55.9856 49.7852 56.3592 51.1631 57.2817 51.9805C57.7021 52.4592 58.3326 52.8212 58.4961 53.4634C58.6129 53.9422 58.356 54.4209 58.0057 54.7362C56.8263 55.8922 55.6703 57.0832 54.491 58.2392C54.0823 58.6596 53.3583 58.7297 52.9029 58.3443C52.3424 57.8889 51.9104 57.3051 51.3265 56.873C50.4625 56.2542 49.2598 56.1374 48.2906 56.5928C47.4966 56.9665 46.6909 57.2934 45.8618 57.562C44.916 57.8772 44.1453 58.6713 43.8884 59.6404C43.6549 60.4812 43.8651 61.3686 43.725 62.2327C43.6082 62.7932 43.036 63.1785 42.4755 63.1435C40.7941 63.1435 39.1126 63.1435 37.4312 63.1435C36.824 63.1902 36.2285 62.7231 36.1701 62.1042C36.0767 61.1818 36.2985 60.2009 35.9132 59.3135C35.5746 58.4611 34.8272 57.8072 33.9632 57.5386C33.0991 57.2701 32.27 56.8964 31.441 56.5344C30.3317 56.079 28.9772 56.3943 28.1481 57.2584C27.6694 57.6787 27.2957 58.2392 26.7119 58.5311C26.2448 58.7296 25.6843 58.5545 25.3574 58.1925C24.1663 57.0015 22.9753 55.8221 21.7959 54.6311C21.3522 54.2224 21.2705 53.4634 21.6675 52.9963C22.1696 52.4125 22.8352 51.9688 23.2555 51.3266C23.8511 50.4275 23.8978 49.2131 23.4073 48.2556C22.9987 47.4382 22.7184 46.5741 22.4031 45.7334C21.9945 44.7409 21.0019 44.0052 19.9277 43.9001C19.2271 43.8301 18.5264 43.9352 17.8258 43.8534C17.242 43.7717 16.81 43.2112 16.8333 42.6274C16.8333 40.9109 16.8216 39.1827 16.8333 37.4662C16.81 36.8824 17.2654 36.3336 17.8375 36.2518C18.7717 36.1584 19.7525 36.3803 20.6399 36.0066C21.504 35.668 22.1813 34.909 22.4498 34.0216C22.7301 33.1458 23.1037 32.3051 23.4774 31.4644C23.9328 30.3317 23.6059 28.9655 22.7184 28.1365C22.3097 27.6577 21.7142 27.2957 21.4924 26.6769C21.3639 26.2215 21.5391 25.7427 21.8894 25.4275C22.9403 24.3765 23.9912 23.3256 25.0421 22.2747C25.299 22.0295 25.5325 21.7376 25.8595 21.5858C26.2565 21.4106 26.7586 21.469 27.0972 21.7609C27.7044 22.2864 28.1364 22.9987 28.8604 23.3957C29.7245 23.8861 30.8221 23.8978 31.7095 23.4658C32.4802 23.0804 33.2742 22.7535 34.0916 22.4732C35.0141 22.158 35.7497 21.3639 36.0066 20.4298C36.2985 19.5424 36.0883 18.6666 36.2168 17.8025Z" fill="#FFF7D6"/>
<path d="M57.4471 17.3353C58.3813 16.7632 59.6774 16.8566 60.5064 17.5572C60.8918 17.8725 61.2187 18.2461 61.5807 18.5964C61.9544 18.9701 62.3631 19.3204 62.6083 19.7991C63.087 20.7099 62.9586 21.8893 62.2813 22.66C61.8609 23.127 61.3939 23.5474 60.9618 23.9911C59.2337 22.2863 57.5055 20.5815 55.7773 18.8767C56.3378 18.3629 56.8166 17.7674 57.4471 17.3353Z" fill="#FFF7D6"/>
<path d="M33.7305 45.7568C34.1859 43.9469 34.6413 42.1253 35.0967 40.3154C36.4745 41.6816 37.8641 43.0361 39.2302 44.4023C37.4087 44.8694 35.5637 45.3131 33.7305 45.7568Z" fill="#FFF7D6"/>
<path d="M35.9609 38.5055C42.1263 32.3985 48.2916 26.3032 54.457 20.1963C56.1735 21.8894 57.8899 23.5942 59.6064 25.2874C53.4294 31.3943 47.2524 37.5013 41.0754 43.6082C39.3706 41.9034 37.6657 40.2103 35.9609 38.5055ZM53.9782 24.6451C53.1842 25.2757 52.5069 26.0464 51.7713 26.7353C48.2683 30.1332 44.7769 33.5312 41.2739 36.9174C41.0637 37.116 40.8885 37.3728 40.9002 37.6764C40.8885 38.2019 41.3906 38.669 41.9161 38.6106C42.1963 38.5989 42.4182 38.4238 42.605 38.2486C46.7269 34.2318 50.8488 30.215 54.9707 26.2098C55.251 25.9529 55.4261 25.5676 55.3094 25.194C55.1809 24.6335 54.4686 24.3415 53.9782 24.6451Z" fill="#4DF189"/>
</g>
<defs>
<clipPath id="clip0_2110_16624">
<rect width="50" height="50" fill="white" transform="translate(15 15)"/>
</clipPath>
</defs>
</svg>
