<svg width="53" height="61" viewBox="0 0 53 61" fill="none" xmlns="http://www.w3.org/2000/svg">
<g clip-path="url(#clip0_2843_2489)">
<path d="M11.7064 49.0423C11.9642 48.9837 12.222 48.9837 12.4915 48.9837C14.5658 48.9954 16.64 48.9837 18.7025 48.9837C19.5228 48.9603 20.2728 49.6868 20.2845 50.5071C20.2962 51.4798 20.2962 52.4642 20.2845 53.4368C20.3079 54.2806 19.5345 55.0306 18.6908 55.0071C16.5111 55.0071 14.3197 55.0071 12.14 55.0071C11.3079 55.0306 10.5462 54.2689 10.5697 53.4251C10.5697 52.4525 10.5579 51.4798 10.5697 50.5071C10.5697 49.8392 11.0736 49.2298 11.7064 49.0423ZM12.3275 50.7415C12.3275 51.5735 12.3275 52.4056 12.3275 53.2493C14.39 53.2493 16.4525 53.2493 18.5267 53.2493C18.5384 52.4173 18.515 51.5853 18.5384 50.7532C16.4642 50.7298 14.39 50.7415 12.3275 50.7415Z" fill="#1C2436"/>
<path d="M41.2852 10.6985C41.0391 10.7454 40.7578 10.7806 40.5234 10.64C40.1953 10.4759 40.0781 10.1126 39.9258 9.80792C38.2969 6.28058 35.0977 3.53839 31.3711 2.44855C29.6484 1.90949 27.8203 1.82745 26.0273 1.87433C23.6484 1.78058 21.2109 2.1087 19.043 3.13995C15.7852 4.62824 13.1602 7.42902 11.9062 10.7806C11.3789 12.1634 11.0742 13.6282 11.0273 15.1165C10.9687 16.0071 11.0156 16.9095 10.9922 17.8118C13.5938 18.9368 16.5117 19.1126 19.2891 18.7493C22.2891 18.3275 25.1953 17.3314 27.8906 15.9603C30.0938 14.9056 32.1797 13.6048 34.1484 12.1517C34.4297 11.9173 34.8164 11.929 35.1328 12.0814C35.5664 12.4329 35.6484 13.0189 35.9297 13.4759C37.0078 15.4798 39.0703 16.8157 41.25 17.3431C41.2852 16.2064 41.2148 15.0696 41.1445 13.9212C41.0859 13.4876 41.3672 13.0657 41.7891 12.9485L41.9062 12.9017C41.7187 12.1751 41.543 11.4251 41.2852 10.6985Z" fill="#EBFA9E"/>
<path d="M13.1719 25.7454C12.4453 25.7454 11.7188 25.7337 10.9805 25.7454C11.0039 26.8118 10.9688 27.8783 10.9922 28.9329C11.0273 30.0579 11.6602 31.1361 12.6211 31.7103C13.1133 32.015 13.6758 32.1439 14.2266 32.2728C15.668 32.6243 17.1094 32.9876 18.5391 33.3509C15.9609 31.5462 14.0039 28.8158 13.1719 25.7454Z" fill="#EBFA9E"/>
<path d="M39.2813 28.0775C39.7734 27.386 39.832 26.5071 39.7734 25.6868C39.5859 25.9564 39.5391 26.2962 39.4219 26.5892C39.1523 27.3978 38.7656 28.1712 38.3789 28.9329C38.7188 28.6985 39.0469 28.429 39.2813 28.0775Z" fill="#EBFA9E"/>
<path d="M41.2383 28.2064C40.8164 29.1087 40.1719 29.9407 39.293 30.4329C38.5195 30.9017 37.6172 31.0306 36.75 31.1712C36.0703 31.9329 35.3086 32.6009 34.5234 33.222C35.9062 32.8587 37.3008 32.5071 38.6836 32.1321C39.5039 31.9095 40.2539 31.3939 40.7109 30.6673C41.1914 29.9642 41.2734 29.0618 41.2383 28.2064Z" fill="#EBFA9E"/>
<path d="M38.415 18.1985C36.6923 17.3196 35.1923 15.9603 34.3134 14.2259C33.7861 14.5657 33.3056 14.9642 32.7548 15.2454V15.2923C29.9775 16.9915 27.0712 18.515 23.9658 19.4759C20.9072 20.472 17.6493 20.9173 14.4384 20.554C14.4267 22.0775 14.4033 23.6126 14.8251 25.0892C15.2939 26.8704 16.1728 28.5462 17.3798 29.929C19.29 32.1673 22.0556 33.6439 24.9736 33.9954C25.8525 34.0892 26.7431 34.1126 27.6337 34.0189C27.247 33.7728 26.872 33.4915 26.6025 33.1165C26.1689 32.4368 26.0165 31.5696 26.3095 30.8079C26.6025 29.9525 27.3642 29.2962 28.2548 29.1321C29.1689 28.9564 30.0829 28.8275 30.997 28.6517C32.0986 28.3939 33.2822 28.9212 33.8447 29.8821C34.5009 29.7767 35.1689 29.6595 35.8251 29.5423C37.4306 27.515 38.3798 24.9603 38.4267 22.3587C38.4267 20.9876 38.4267 19.5931 38.415 18.1985Z" fill="#FFEFEB"/>
<path d="M22.1484 35.1673C24.9141 36.0696 27.9492 36.0696 30.7148 35.1673C30.6445 36.1868 30.8555 37.2767 31.582 38.0384C29.8828 39.679 28.1484 41.2962 26.4258 42.9368C24.7031 41.3079 22.9922 39.679 21.2812 38.0618C21.9961 37.2767 22.2187 36.1985 22.1484 35.1673Z" fill="#FFEFEB"/>
<path d="M40.1836 18.9017C40.8281 19.0306 41.4609 19.265 42.1289 19.2767C42.4102 19.2884 42.6328 19.1009 42.8555 18.972C42.8438 20.39 42.8672 21.8079 42.8438 23.2142C42.8555 23.6009 42.5273 23.9525 42.1406 23.9759C41.4492 24.011 40.7578 23.9759 40.0664 23.9876C40.2656 22.3001 40.1484 20.5892 40.1836 18.9017Z" fill="#E7D6FF"/>
<path d="M10.0072 19.3353C10.8626 19.722 11.765 19.9564 12.6673 20.2259C12.679 21.4798 12.6322 22.7337 12.7962 23.9876C12.1048 23.9759 11.4134 24.011 10.722 23.9759C10.3353 23.9642 9.99544 23.6126 10.0072 23.2142C9.99544 21.9134 10.0072 20.6243 10.0072 19.3353Z" fill="#E7D6FF"/>
<path d="M31.3588 30.3861C31.7807 30.2689 32.2611 30.5267 32.3666 30.9603C32.5189 31.4173 32.1674 31.9329 31.6986 31.9915C30.7611 32.1673 29.8236 32.3197 28.8861 32.472C28.4408 32.5658 27.9604 32.2259 27.9252 31.7689C27.8666 31.3587 28.1713 30.9368 28.5814 30.8665C29.4955 30.6908 30.433 30.5501 31.3588 30.3861Z" fill="#FFF7D6"/>
<path d="M16.2305 39.5384C17.25 39.2337 18.2695 38.9056 19.2891 38.5892C21.1055 40.3235 22.957 42.0345 24.7617 43.7923C23.8242 44.0853 22.9102 44.4485 21.9727 44.7181C21.3516 44.8821 20.6836 44.6243 20.2734 44.1439C18.9141 42.597 17.5664 41.0735 16.2305 39.5384Z" fill="#FFF7D6"/>
<path d="M28.1016 43.7806C29.918 42.0345 31.7578 40.3118 33.5742 38.5775C34.5938 38.8821 35.6016 39.2103 36.6211 39.515C35.4844 40.8275 34.3359 42.1282 33.1992 43.4407C32.6602 44.1556 31.8281 44.765 30.8789 44.636C29.918 44.4837 29.0273 44.0618 28.1016 43.7806Z" fill="#FFF7D6"/>
<path d="M51.0938 53.3196C51.0703 51.9954 51.1758 50.6595 50.8945 49.3587C50.3203 46.4407 48.3398 43.8392 45.6914 42.515C44.8359 42.0696 43.9102 41.8118 43.0078 41.5306C41.4961 41.0618 39.9844 40.5931 38.4844 40.1243C38.2266 40.4173 37.9688 40.7103 37.7109 41.0032C36.7383 42.1165 35.7656 43.2181 34.793 44.3314C34.4297 44.7415 34.0781 45.1751 33.6445 45.5267C32.625 46.3704 31.1719 46.6517 29.9062 46.2532C28.7461 45.8782 27.5977 45.4681 26.4492 45.0814C25.1836 45.5032 23.918 45.9603 22.6406 46.3704C21.3867 46.7806 19.9219 46.3704 19.043 45.386C17.4844 43.64 15.9609 41.8704 14.4141 40.1243C12.9258 40.5931 11.4492 41.0501 9.96094 41.5189C9.05859 41.8001 8.13281 42.0696 7.27734 42.4915C5.12109 43.5462 3.39844 45.4446 2.50781 47.6712C2.36719 47.9876 2.28516 48.3626 1.96875 48.5384C1.75781 48.679 1.5 48.6556 1.25391 48.6556C1.07812 49.3939 0.960938 50.1556 0.914062 50.9056C0.972656 50.9525 1.04297 51.011 1.10156 51.0579C1.5 51.1517 1.79297 51.5267 1.78125 51.9368C1.81641 54.0814 1.75781 56.2142 1.80469 58.3587C3.42188 58.3704 5.03906 58.3587 6.65625 58.3587C6.65625 55.6985 6.64453 53.0501 6.65625 50.39C6.63281 49.9329 6.98438 49.4759 7.45312 49.4525C7.98047 49.3821 8.44922 49.8743 8.40234 50.39C8.41406 53.0501 8.40234 55.7103 8.41406 58.3587C20.4375 58.3587 32.4609 58.3587 44.4844 58.3587C44.4844 55.6985 44.4727 53.0501 44.4844 50.39C44.4492 49.8978 44.8359 49.4993 45.3047 49.4173C45.8086 49.429 46.2656 49.8509 46.2305 50.3782C46.2422 53.0384 46.2305 55.6985 46.2422 58.3587C47.8594 58.3587 49.4766 58.3704 51.0938 58.3587C51.1055 56.6712 51.082 54.9954 51.0938 53.3196ZM20.2734 53.4368C20.2969 54.2806 19.5234 55.0306 18.6797 55.0071C16.5 55.0071 14.3086 55.0071 12.1289 55.0071C11.2969 55.0306 10.5352 54.2689 10.5586 53.4251C10.5586 52.4525 10.5469 51.4798 10.5586 50.5071C10.5586 49.8275 11.0625 49.2298 11.6953 49.0306C11.9531 48.972 12.2109 48.972 12.4805 48.972C14.5547 48.9837 16.6289 48.972 18.6914 48.972C19.5117 48.9485 20.2617 49.6751 20.2734 50.4954C20.2852 51.4798 20.2852 52.4642 20.2734 53.4368Z" fill="#D6FFD8"/>
<path d="M12.3281 50.7415C14.3906 50.7415 16.4648 50.7298 18.5391 50.7532C18.5273 51.5853 18.5391 52.4173 18.5273 53.2493C16.4648 53.2493 14.4023 53.2493 12.3281 53.2493C12.3281 52.4056 12.3281 51.5735 12.3281 50.7415Z" fill="#4DF189"/>
<path d="M52.8522 51.679C52.9459 48.3978 51.5983 45.1048 49.1959 42.8548C47.8951 41.6126 46.3014 40.6868 44.5787 40.1712C41.3444 39.1517 38.0983 38.1556 34.8639 37.136C34.2545 36.9251 33.5983 36.7259 32.9537 36.9368C32.5787 36.5853 32.4498 36.0814 32.4498 35.5892C34.5006 35.0501 36.5631 34.5228 38.6139 33.9837C39.4459 33.7728 40.278 33.4798 40.9576 32.9407C42.1881 32.0032 42.9498 30.4915 42.9733 28.9329C42.9967 27.8079 42.985 26.6829 42.985 25.5579C43.8991 25.136 44.6022 24.2103 44.5905 23.179C44.5905 21.7376 44.6022 20.2962 44.5905 18.8548C44.5905 17.847 43.9108 16.9329 42.9967 16.5345C42.985 15.5735 42.9967 14.6126 42.8444 13.6634C42.8444 13.64 42.8326 13.6048 42.8326 13.5814H42.8678C42.6686 12.0931 42.2467 10.6282 41.6139 9.2337L41.5905 9.24542C41.5553 9.17511 41.5201 9.1048 41.4967 9.03448C40.5006 6.92511 39.0358 5.05011 37.2194 3.58527C34.5709 1.4173 31.1842 0.186829 27.7623 0.0930786H24.5748C21.3991 0.163391 18.235 1.1712 15.6686 3.05792C13.0905 4.90948 11.11 7.56964 10.0787 10.5696C9.35218 12.5853 9.15296 14.7415 9.21155 16.8626C8.91858 17.1673 8.6139 17.472 8.44983 17.8704C8.1803 18.4681 8.22718 19.136 8.22718 19.7806C8.2389 20.9525 8.20374 22.1243 8.2389 23.2962C8.26234 24.0345 8.64905 24.7025 9.19983 25.1829C9.21155 26.2728 9.19983 27.3626 9.19983 28.4642C9.19983 29.0853 9.24671 29.7181 9.43421 30.3157C9.87952 31.7923 11.028 33.0462 12.4694 33.597C12.8092 33.7259 13.1608 33.8314 13.5123 33.9134C15.7975 34.4759 18.0709 35.0501 20.3561 35.6126C20.3561 36.0931 20.2155 36.5735 19.8639 36.9134C19.2194 36.7025 18.5631 36.9017 17.9537 37.1126C14.942 38.0501 11.9303 38.9876 8.9303 39.9251C8.48499 40.0657 8.0514 40.2064 7.60609 40.3704C4.38343 41.5306 1.75843 44.2142 0.633429 47.4485C0.586554 47.554 0.574835 47.6595 0.574835 47.765C0.24671 49.0423 0.0709287 50.3196 0.0357725 51.597C-0.081415 51.9954 -0.0228213 52.4173 -0.03454 52.8275C-0.0228213 54.6204 -0.0462588 56.4134 -0.03454 58.2064C-0.0579775 59.1673 0.750616 60.0228 1.69983 60.0931H51.0709C52.0201 60.011 52.817 59.1673 52.7936 58.2181C52.8639 56.0501 52.8405 53.8704 52.8522 51.679ZM33.5748 38.5892C34.5944 38.8939 35.6022 39.222 36.6217 39.5384C35.485 40.8509 34.3366 42.1517 33.1998 43.4525C32.6491 44.1673 31.8287 44.7767 30.8795 44.6478C29.9186 44.4837 29.028 44.0618 28.1022 43.7923C29.9069 42.0462 31.7467 40.3235 33.5748 38.5892ZM22.1491 35.1673C24.9147 36.0696 27.9498 36.0696 30.7155 35.1673C30.6451 36.1868 30.8561 37.2767 31.5826 38.0384C29.8834 39.679 28.1491 41.2962 26.4264 42.9368C24.7037 41.3079 22.9928 39.679 21.2701 38.0618C21.9967 37.2767 22.2194 36.1986 22.1491 35.1673ZM28.5709 30.8665C29.4967 30.6907 30.4342 30.5384 31.36 30.386C31.7819 30.2689 32.2623 30.5267 32.3678 30.9603C32.5201 31.4173 32.1686 31.9329 31.6998 31.9915C30.7623 32.1673 29.8248 32.3196 28.8873 32.472C28.442 32.5657 27.9616 32.2259 27.9264 31.7689C27.8678 31.347 28.1608 30.9368 28.5709 30.8665ZM40.6998 30.679C40.2428 31.4056 39.5045 31.9329 38.6725 32.1439C37.2897 32.5189 35.8951 32.8704 34.5123 33.2337C35.3092 32.6009 36.0709 31.9329 36.7389 31.1829C37.6178 31.0423 38.5201 30.9134 39.2819 30.4446C40.1608 29.9407 40.8053 29.1204 41.2272 28.2181C41.2741 29.0618 41.192 29.9642 40.6998 30.679ZM38.3795 28.9446C38.7662 28.1829 39.153 27.4095 39.4225 26.6009C39.5397 26.2962 39.5866 25.9681 39.7741 25.6985C39.8326 26.5189 39.7741 27.3978 39.2819 28.0892C39.0475 28.429 38.7194 28.6985 38.3795 28.9446ZM42.8444 23.2025C42.8561 23.5892 42.528 23.9407 42.1412 23.9642C41.4498 23.9993 40.7584 23.9642 40.067 23.9759C40.278 22.2884 40.1608 20.5892 40.1959 18.89C40.8405 19.0189 41.4733 19.2415 42.1412 19.265C42.4225 19.2767 42.6451 19.0892 42.8678 18.9485C42.8444 20.3782 42.8678 21.7962 42.8444 23.2025ZM11.0162 15.1282C11.0748 13.6517 11.3678 12.1751 11.8951 10.7923C13.1491 7.44073 15.7858 4.63995 19.0319 3.15167C21.1998 2.12042 23.6373 1.7923 26.0162 1.88605C27.8092 1.83917 29.6373 1.9212 31.36 2.46027C35.0866 3.55011 38.2858 6.2923 39.9147 9.81964C39.9967 9.9837 40.0787 10.1712 40.1725 10.3235C40.6412 11.4368 40.9576 12.597 41.1217 13.7806C41.1217 13.8392 41.1217 13.8978 41.1217 13.9446C41.192 15.0814 41.2506 16.2181 41.2272 17.3665C39.0475 16.8392 36.985 15.5032 35.9069 13.4993C35.6256 13.0423 35.5436 12.4564 35.11 12.1048C34.7936 11.9525 34.4069 11.9407 34.1256 12.1751C32.1569 13.6282 30.0709 14.9173 27.8678 15.9837C25.1725 17.3548 22.2662 18.3509 19.2662 18.7728C16.4889 19.136 13.5709 18.9603 10.9694 17.8353C11.0045 16.9212 10.9576 16.0189 11.0162 15.1282ZM10.7233 23.9642C10.3366 23.9525 9.99671 23.5892 10.0084 23.2025C9.99671 21.9134 10.0084 20.6126 10.0084 19.3235C10.8639 19.7103 11.7662 19.9446 12.6686 20.2142C12.6803 21.4681 12.6334 22.722 12.7975 23.9759C12.1061 23.9759 11.4147 23.9993 10.7233 23.9642ZM14.2389 32.2962C13.6881 32.1556 13.1139 32.0267 12.6334 31.7337C11.6725 31.1595 11.0397 30.0814 11.0045 28.9564C10.9811 27.89 11.0045 26.8235 10.9928 25.7689C11.7194 25.7571 12.4576 25.7571 13.1842 25.7689C14.0162 28.8392 15.9733 31.5579 18.5631 33.386C17.11 33.011 15.6686 32.6478 14.2389 32.2962ZM17.3678 29.929C16.1608 28.5345 15.2819 26.8704 14.8131 25.0892C14.403 23.6126 14.4147 22.0657 14.4264 20.554C17.6373 20.9173 20.8951 20.472 23.9537 19.4759C27.0709 18.5032 29.9772 16.9915 32.7428 15.2923V15.2454C33.2936 14.9642 33.7858 14.5657 34.3014 14.2259C35.1803 15.9603 36.6803 17.3196 38.403 18.1985C38.4147 19.5931 38.4147 20.9876 38.403 22.3821C38.3561 24.9837 37.4069 27.5267 35.8014 29.5657C35.1451 29.6829 34.4772 29.7884 33.8209 29.9056C33.2584 28.9329 32.0631 28.4056 30.9733 28.6751C30.0592 28.8509 29.1451 28.9798 28.2311 29.1556C27.3405 29.3196 26.567 29.9759 26.2858 30.8314C26.0045 31.5931 26.1569 32.4603 26.5787 33.14C26.8483 33.515 27.2233 33.7962 27.61 34.0423C26.7194 34.1243 25.8405 34.1126 24.9498 34.0189C22.0436 33.6439 19.278 32.1673 17.3678 29.929ZM19.2897 38.5892C21.1061 40.3235 22.9576 42.0345 24.7623 43.7923C23.8248 44.0853 22.9108 44.4486 21.9733 44.7181C21.3522 44.8821 20.6842 44.6243 20.2741 44.1439C18.9264 42.6087 17.5787 41.0853 16.2428 39.5384C17.2506 39.222 18.2701 38.8939 19.2897 38.5892ZM51.0944 53.3196C51.0826 54.9954 51.1178 56.6712 51.0709 58.3587C49.4537 58.3704 47.8366 58.3587 46.2194 58.3587C46.2076 55.6985 46.2311 53.0384 46.2076 50.3782C46.2428 49.8509 45.7858 49.429 45.2819 49.4173C44.8131 49.4993 44.4264 49.8978 44.4616 50.39C44.4498 53.0384 44.4616 55.6985 44.4616 58.3587C32.4381 58.3587 20.4147 58.3587 8.39124 58.3587C8.39124 55.6985 8.40296 53.0384 8.37952 50.39C8.41468 49.8743 7.95765 49.3821 7.4303 49.4525C6.96155 49.4759 6.60999 49.9329 6.63343 50.39C6.62171 53.0501 6.63343 55.6985 6.63343 58.3587C5.01624 58.3587 3.39905 58.3704 1.78187 58.3587C1.73499 56.2142 1.78187 54.0814 1.75843 51.9368C1.75843 51.8431 1.74671 51.7376 1.71155 51.6556C1.73499 50.5423 1.89905 49.429 2.16859 48.3157C2.30921 48.1282 2.37952 47.8821 2.47327 47.6712C3.3639 45.4446 5.08655 43.5462 7.2428 42.4915C8.09827 42.0579 9.01233 41.8001 9.9264 41.5189C11.4147 41.0501 12.8912 40.5931 14.3795 40.1243C15.9264 41.8704 17.4498 43.6517 19.0084 45.386C19.8873 46.3704 21.3522 46.7806 22.6061 46.3704C23.8834 45.9603 25.1491 45.5032 26.4147 45.0814C27.5748 45.4681 28.7233 45.8782 29.8717 46.2532C31.1373 46.6517 32.5905 46.3704 33.61 45.5267C34.0319 45.1751 34.3951 44.7532 34.7584 44.3314C35.7311 43.2181 36.7037 42.1165 37.6764 41.0032C37.9342 40.7103 38.192 40.4173 38.4498 40.1243C39.9616 40.5931 41.4733 41.0618 42.9733 41.5306C43.8873 41.8118 44.8131 42.0696 45.6569 42.515C48.317 43.8509 50.2858 46.4525 50.86 49.3587C51.1647 50.6595 51.0709 51.9954 51.0944 53.3196Z" fill="#1C2436"/>
</g>
<defs>
<clipPath id="clip0_2843_2489">
<rect width="52.8516" height="60" fill="white" transform="translate(0 0.116516)"/>
</clipPath>
</defs>
</svg>
