<svg width="294" height="176" viewBox="0 0 294 176" fill="none" xmlns="http://www.w3.org/2000/svg">
<g clip-path="url(#clip0_1074_7927)">
<path d="M271.678 120.027C312.83 125.742 296.382 174.854 228.196 166.346C194.594 162.149 169.573 163.351 142.698 170.184C66.3297 189.605 51.6634 152.08 23.3958 150.688C0.568728 149.56 -14.4349 129.643 21.6561 120.829C36.3856 117.233 55.417 118.73 133.208 118.678C210.989 118.614 251.139 117.17 271.678 120.027Z" fill="#E0F37F"/>
<path d="M138.487 111.423C125.909 110.105 113.551 105.413 103.777 98.3176L114.827 81.3634C122.83 87.1835 130.2 91.1057 138.846 92.6662L138.382 69.3857C117.263 64.1666 106.74 56.3643 106.382 38.788C106.055 22.5296 118.096 11.7013 136.442 9.36055L136.273 0.872889L151.445 0.514404L151.625 9.29729C162.01 10.5204 170.993 14.1158 178.975 19.493L169.549 36.8585C163.634 33.0417 157.445 30.1105 151.287 28.6449L151.73 50.755C174.03 56.2378 183.688 65.0945 184.025 81.7851C184.352 98.0435 172.164 108.872 153.681 111.36L153.976 125.858L138.803 126.216L138.487 111.423ZM137.528 27.6433C130.548 28.6871 127.553 32.272 127.648 37.2486C127.743 41.7929 129.841 44.6713 137.928 47.4127L137.528 27.6433ZM162.738 83.1663C162.632 78.1897 160.102 75.3218 152.162 72.5699L152.574 93.0774C159.406 91.8859 162.843 88.7334 162.738 83.1663Z" fill="#AACA09"/>
<path d="M141.104 111.213C128.578 109.484 116.379 104.38 106.848 96.9682L118.446 80.383C126.248 86.4667 133.492 90.6315 142.074 92.4766L142.38 69.1856C121.44 63.2706 111.181 55.1204 111.413 37.544C111.624 21.2857 124.023 10.858 142.433 9.12882L142.549 0.630615L157.721 0.778227L157.605 9.56111C167.948 11.1216 176.794 15.0227 184.607 20.6636L174.601 37.7127C168.813 33.7061 162.729 30.5641 156.624 28.8982L156.34 51.0189C178.439 57.2396 187.813 66.4021 187.591 83.1033C187.38 99.3616 174.844 109.789 156.276 111.656L156.087 126.153L140.914 126.006L141.104 111.213ZM142.918 27.4432C135.906 28.2551 132.796 31.745 132.732 36.7216C132.669 41.266 134.672 44.2076 142.665 47.2126L142.918 27.4432ZM166.272 83.7675C166.335 78.7909 163.889 75.8387 156.055 72.8337L155.791 93.3412C162.655 92.3817 166.198 89.3346 166.272 83.7675Z" fill="white"/>
<path d="M156.498 126.575L140.482 126.417L140.672 111.571C128.23 109.789 116.136 104.718 106.584 97.2952L106.268 97.0527L118.351 79.7716L118.699 80.0457C127.176 86.6566 134.071 90.2309 141.652 91.9495L141.947 69.5021C130.898 66.3495 123.496 62.7119 118.656 58.0411C115.989 55.4684 114.08 52.5794 112.805 49.216C111.518 45.8104 110.917 41.9936 110.981 37.5336C111.086 29.5415 114.133 22.6459 119.806 17.5744C125.236 12.7138 132.911 9.66667 142 8.74937L142.116 0.208984L158.132 0.36714L158.016 9.21329C167.843 10.7527 176.615 14.3902 184.839 20.3263L185.155 20.5477L174.728 38.3138L174.359 38.0503C168.423 33.9382 162.592 31.0387 157.035 29.4466L156.761 50.6921C168.054 53.8974 175.645 57.7564 180.632 62.8279C183.226 65.4638 185.082 68.3844 186.305 71.769C187.507 75.1113 188.065 78.8121 188.013 83.1034C187.907 91.085 184.829 97.9911 179.093 103.084C173.61 107.955 165.871 111.044 156.698 112.035L156.498 126.575ZM141.336 125.584L155.665 125.721L155.855 111.266L156.234 111.223C165.397 110.296 173.115 107.259 178.534 102.441C184.08 97.5061 187.064 90.8108 187.169 83.0823C187.38 66.824 178.418 57.651 156.224 51.4091L155.907 51.3247L156.202 28.3395L156.73 28.4871C162.423 30.0476 168.391 32.9471 174.464 37.1013L184.038 20.7797C175.919 14.9807 167.242 11.4485 157.531 9.98298L157.162 9.93026L157.278 1.20009L142.949 1.06302L142.844 9.51906L142.464 9.55069C133.386 10.4047 125.752 13.3991 120.375 18.207C114.882 23.1204 111.93 29.8051 111.835 37.5547C111.719 46.1267 114.08 52.4529 119.247 57.4401C124.023 62.0477 131.404 65.6536 142.485 68.7851L142.801 68.8694L142.485 92.9934L141.979 92.8879C134.166 91.2115 127.134 87.6477 118.53 80.9841L107.417 96.8735C116.896 104.149 128.863 109.094 141.157 110.791L141.526 110.844L141.336 125.584ZM155.359 93.8263L155.644 72.2223L156.213 72.4437C160.22 73.9831 162.845 75.5225 164.448 77.2833C166.019 79.0125 166.736 81.079 166.704 83.7782C166.63 89.4823 163.077 92.7509 155.855 93.7525L155.359 93.8263ZM156.466 73.4454L156.213 92.8458C159.334 92.3502 161.717 91.3802 163.298 89.9673C164.985 88.4491 165.818 86.4247 165.85 83.7677C165.903 79.624 164.363 76.5874 156.466 73.4454ZM143.076 47.8242L142.517 47.6134C138.521 46.1056 135.927 44.5873 134.366 42.8265C132.911 41.1923 132.279 39.305 132.31 36.7217C132.363 32.8522 134.229 28.0338 142.875 27.0321L143.35 26.9794L143.076 47.8242ZM142.496 27.9283C139.427 28.3501 137.087 29.3201 135.516 30.8278C133.987 32.3039 133.186 34.2862 133.154 36.7323C133.101 40.7073 134.588 43.6173 142.253 46.6117L142.496 27.9283Z" fill="#1C2436"/>
<path d="M174.799 142.506H166.185C157.476 140.45 143.716 139.723 131.454 140.904C127.479 141.294 124.052 141.842 121.237 142.506H112.623V147.356C112.623 148.284 113.435 149.223 115.154 150.129C121.923 153.693 140.195 155.338 155.968 153.809C167.471 152.692 174.472 150.193 174.778 147.536H174.789V142.506H174.799Z" fill="white"/>
<path d="M143.77 154.505C131.687 154.505 120.163 152.902 115.102 150.245C113.457 149.381 112.582 148.453 112.508 147.494V147.356V142.369H121.238C124.137 141.684 127.575 141.146 131.455 140.767C143.316 139.617 157.287 140.261 166.217 142.369H174.948V147.673H174.916C174.399 150.456 167.187 152.86 156 153.936C152.004 154.326 147.861 154.505 143.77 154.505ZM112.771 147.219V147.356C112.771 148.253 113.594 149.149 115.228 150.003C121.965 153.546 140.238 155.19 155.958 153.672C161.515 153.134 166.207 152.249 169.528 151.121C172.681 150.045 174.494 148.769 174.642 147.525L174.652 147.43V142.654H166.165H166.154C157.255 140.545 143.316 139.913 131.465 141.062C127.585 141.441 124.159 141.979 121.27 142.654H121.238H112.761V147.219H112.771Z" fill="#1C2436"/>
<path d="M143.718 149.465C160.96 149.465 174.938 146.321 174.938 142.443C174.938 138.565 160.96 135.421 143.718 135.421C126.476 135.421 112.498 138.565 112.498 142.443C112.498 146.321 126.476 149.465 143.718 149.465Z" fill="#AACA09"/>
<path d="M143.717 148.432C140.501 148.432 137.274 148.295 134.196 148.021C127.775 147.441 122.724 146.323 119.972 144.879C117.874 143.772 117.263 142.559 118.19 141.378C119.761 139.385 125.508 137.73 133.584 136.95C139.889 136.338 146.859 136.317 153.227 136.897C159.648 137.477 164.699 138.595 167.45 140.039C169.549 141.146 170.16 142.359 169.232 143.54C167.661 145.532 161.915 147.188 153.839 147.968C150.591 148.274 147.154 148.432 143.717 148.432ZM143.727 136.982C140.427 136.982 137.074 137.129 133.848 137.445C126.183 138.184 120.753 139.723 119.319 141.536C118.528 142.549 119.066 143.582 120.89 144.541C126.277 147.378 140.944 148.685 153.586 147.451C161.251 146.713 166.681 145.174 168.115 143.36C168.906 142.348 168.368 141.315 166.544 140.355C162.537 138.247 153.364 136.982 143.727 136.982Z" fill="#829B03"/>
<path d="M178.153 132.405H169.538C160.829 130.349 147.07 129.622 134.808 130.803C130.833 131.193 127.406 131.741 124.591 132.405H115.977V137.255C115.977 138.183 116.788 139.122 118.507 140.028C125.276 143.592 143.548 145.237 159.322 143.708C170.825 142.591 177.826 140.092 178.132 137.435H178.142V132.405H178.153Z" fill="white"/>
<path d="M147.133 144.404C135.05 144.404 123.526 142.802 118.465 140.144C116.82 139.28 115.945 138.352 115.871 137.393V137.256V132.268H124.601C127.501 131.583 130.938 131.045 134.818 130.666C146.68 129.516 160.65 130.16 169.581 132.268H178.311V137.572H178.279C177.763 140.366 170.551 142.759 159.364 143.835C155.368 144.225 151.214 144.404 147.133 144.404ZM116.135 137.118V137.256C116.135 138.152 116.957 139.048 118.591 139.902C125.329 143.445 143.601 145.089 159.322 143.571C164.878 143.033 169.57 142.148 172.891 141.02C176.044 139.944 177.857 138.668 178.005 137.424L178.016 137.329V132.553H169.528H169.517C160.618 130.444 146.68 129.812 134.829 130.961C130.949 131.341 127.522 131.878 124.633 132.553H124.601H116.124V137.118H116.135Z" fill="#1C2436"/>
<path d="M147.069 139.364C164.312 139.364 178.289 136.22 178.289 132.342C178.289 128.464 164.312 125.32 147.069 125.32C129.827 125.32 115.85 128.464 115.85 132.342C115.85 136.22 129.827 139.364 147.069 139.364Z" fill="#AACA09"/>
<path d="M147.078 138.331C143.862 138.331 140.636 138.194 137.557 137.92C131.136 137.34 126.086 136.222 123.334 134.778C121.235 133.671 120.624 132.458 121.552 131.277C123.123 129.285 128.869 127.629 136.946 126.849C143.251 126.237 150.22 126.216 156.588 126.796C163.009 127.376 168.06 128.494 170.812 129.938C172.91 131.045 173.522 132.258 172.594 133.439C171.023 135.431 165.276 137.087 157.2 137.867C153.952 138.173 150.515 138.331 147.078 138.331ZM147.078 126.881C143.778 126.881 140.425 127.028 137.199 127.345C129.533 128.083 124.103 129.622 122.669 131.435C121.879 132.448 122.416 133.481 124.24 134.44C129.628 137.277 144.294 138.584 156.936 137.35C164.602 136.612 170.032 135.073 171.466 133.26C172.256 132.247 171.719 131.214 169.895 130.255C165.888 128.146 156.725 126.881 147.078 126.881Z" fill="#829B03"/>
<path d="M174.799 125.879H166.185C157.476 123.823 143.716 123.095 131.454 124.276C127.479 124.666 124.052 125.215 121.237 125.879H112.623V130.729C112.623 131.657 113.435 132.595 115.154 133.502C121.923 137.066 140.195 138.711 155.968 137.182C167.471 136.064 174.472 133.565 174.778 130.908H174.789V125.879H174.799Z" fill="white"/>
<path d="M143.77 137.888C131.687 137.888 120.163 136.286 115.102 133.629C113.457 132.764 112.582 131.836 112.508 130.877V130.74V125.752H121.238C124.137 125.067 127.575 124.529 131.455 124.15C143.316 123 157.287 123.644 166.217 125.752H174.948V131.056H174.916C174.399 133.85 167.187 136.243 156 137.319C152.004 137.709 147.861 137.888 143.77 137.888ZM112.771 130.592V130.729C112.771 131.625 113.594 132.521 115.228 133.375C121.965 136.918 140.238 138.563 155.958 137.045C161.515 136.507 166.207 135.621 169.528 134.493C172.681 133.418 174.494 132.142 174.642 130.898L174.652 130.803V126.027H166.165H166.154C157.255 123.918 143.316 123.285 131.465 124.434C127.585 124.814 124.159 125.352 121.27 126.027H121.238H112.761V130.592H112.771Z" fill="#1C2436"/>
<path d="M143.718 132.848C160.96 132.848 174.938 129.704 174.938 125.826C174.938 121.948 160.96 118.804 143.718 118.804C126.476 118.804 112.498 121.948 112.498 125.826C112.498 129.704 126.476 132.848 143.718 132.848Z" fill="#AACA09"/>
<path d="M143.717 131.815C140.501 131.815 137.274 131.678 134.196 131.404C127.775 130.824 122.724 129.706 119.972 128.262C117.874 127.155 117.263 125.942 118.19 124.761C119.761 122.768 125.508 121.113 133.584 120.333C139.889 119.721 146.859 119.7 153.227 120.28C159.648 120.86 164.699 121.978 167.45 123.422C169.549 124.529 170.16 125.742 169.232 126.923C167.661 128.915 161.915 130.571 153.839 131.351C150.591 131.657 147.154 131.815 143.717 131.815ZM143.727 120.354C140.427 120.354 137.074 120.502 133.848 120.818C126.183 121.556 120.753 123.095 119.319 124.909C118.528 125.921 119.066 126.954 120.89 127.914C126.277 130.75 140.944 132.057 153.586 130.824C161.251 130.086 166.681 128.546 168.115 126.733C168.906 125.721 168.368 124.687 166.544 123.728C162.537 121.619 153.364 120.354 143.727 120.354Z" fill="#829B03"/>
<path d="M80.3519 136.623H71.7377C63.0286 134.567 49.2691 133.84 37.0068 135.02C33.0318 135.411 29.6051 135.959 26.79 136.623H18.1758V141.473C18.1758 142.401 18.9876 143.339 20.7063 144.246C27.4753 147.81 45.7475 149.455 61.5209 147.926C73.024 146.808 80.025 144.309 80.3308 141.652H80.3413V136.623H80.3519Z" fill="white"/>
<path d="M49.3226 148.632C37.2395 148.632 25.7153 147.03 20.6543 144.373C19.0095 143.508 18.1344 142.58 18.0605 141.621V141.484V136.497H26.7802C29.6797 135.811 33.1169 135.273 36.997 134.894C48.8586 133.745 62.829 134.388 71.7595 136.497H80.4897V141.8H80.4581C79.9414 144.594 72.7295 146.987 61.5427 148.063C57.5572 148.443 53.4135 148.632 49.3226 148.632ZM18.3241 141.336V141.473C18.3241 142.369 19.1465 143.266 20.7808 144.12C27.5182 147.662 45.7904 149.307 61.5111 147.789C67.0676 147.251 71.7595 146.365 75.0808 145.237C78.2333 144.162 80.0469 142.886 80.1945 141.642L80.205 141.536V136.76H71.7174H71.7068C62.8079 134.662 48.8692 134.019 37.0181 135.168C33.138 135.548 29.7113 136.085 26.8223 136.76H26.7907H18.3136V141.336H18.3241Z" fill="#1C2436"/>
<path d="M49.2706 143.592C66.5129 143.592 80.4905 140.448 80.4905 136.57C80.4905 132.692 66.5129 129.548 49.2706 129.548C32.0284 129.548 18.0508 132.692 18.0508 136.57C18.0508 140.448 32.0284 143.592 49.2706 143.592Z" fill="#AACA09"/>
<path d="M49.2714 142.559C46.0555 142.559 42.8292 142.422 39.7504 142.148C33.3293 141.568 28.2789 140.45 25.527 139.006C23.4288 137.899 22.8173 136.686 23.7451 135.505C25.3161 133.513 31.0624 131.857 39.1389 131.077C45.444 130.465 52.4134 130.444 58.7818 131.024C65.2029 131.604 70.2533 132.722 73.0052 134.166C75.1034 135.273 75.7149 136.486 74.7871 137.667C73.2161 139.66 67.4698 141.315 59.3933 142.095C56.1458 142.401 52.7086 142.559 49.2714 142.559ZM49.2819 131.098C45.9817 131.098 42.6288 131.246 39.4025 131.562C31.7372 132.3 26.3072 133.839 24.8733 135.653C24.0825 136.665 24.6202 137.698 26.4443 138.658C31.8321 141.494 46.4984 142.802 59.1402 141.568C66.8055 140.83 72.2355 139.291 73.6694 137.477C74.4602 136.465 73.9225 135.432 72.0984 134.472C68.0813 132.363 58.9188 131.098 49.2819 131.098Z" fill="#829B03"/>
<path d="M76.9866 130.107H68.3724C59.6634 128.051 45.9039 127.324 33.6416 128.505C29.6666 128.895 26.2399 129.443 23.4247 130.107H14.8105V134.957C14.8105 135.885 15.6224 136.824 17.341 137.73C24.1101 141.294 42.3823 142.939 58.1556 141.41C69.6588 140.292 76.6598 137.794 76.9655 135.137H76.9761V130.107H76.9866Z" fill="white"/>
<path d="M45.9671 142.106C33.884 142.106 22.3598 140.503 17.2988 137.846C15.654 136.982 14.7789 136.054 14.7051 135.094V134.957V129.97H23.4352C26.3348 129.285 29.772 128.747 33.6521 128.368C45.5137 127.218 59.4841 127.861 68.4146 129.97H77.1448V135.274H77.1131C76.5965 138.068 69.3846 140.461 58.1978 141.537C54.1912 141.927 50.0475 142.106 45.9671 142.106ZM14.9687 134.82V134.957C14.9687 135.854 15.7911 136.75 17.4253 137.604C24.1628 141.146 42.435 142.791 58.1556 141.273C63.7121 140.735 68.404 139.85 71.7253 138.721C74.8779 137.646 76.6914 136.37 76.839 135.126L76.8495 135.021V130.244H68.3619H68.3513C59.4525 128.136 45.5137 127.503 33.6626 128.652C29.7825 129.032 26.3558 129.57 23.4669 130.244H23.4352H14.9687V134.82Z" fill="#1C2436"/>
<path d="M45.9073 137.066C63.1496 137.066 77.1272 133.922 77.1272 130.044C77.1272 126.166 63.1496 123.022 45.9073 123.022C28.6651 123.022 14.6875 126.166 14.6875 130.044C14.6875 133.922 28.6651 137.066 45.9073 137.066Z" fill="#AACA09"/>
<path d="M45.9139 136.033C42.6981 136.033 39.4718 135.896 36.393 135.622C29.9719 135.042 24.9215 133.924 22.1696 132.48C20.0714 131.372 19.4598 130.16 20.3877 128.979C21.9587 126.986 27.705 125.331 35.7815 124.551C42.0866 123.939 49.056 123.918 55.4243 124.498C61.8454 125.078 66.8959 126.196 69.6478 127.64C71.746 128.747 72.3575 129.96 71.4296 131.141C69.8586 133.133 64.1123 134.789 56.0359 135.569C52.7779 135.875 49.3512 136.033 45.9139 136.033ZM45.9139 124.582C42.6138 124.582 39.2609 124.73 36.0345 125.046C28.3693 125.784 22.9393 127.324 21.5053 129.137C20.7145 130.149 21.2523 131.183 23.0763 132.142C28.4641 134.978 43.1304 136.286 55.7723 135.052C63.4375 134.314 68.8675 132.775 70.3015 130.961C71.0923 129.949 70.5545 128.916 68.7305 127.956C64.7239 125.848 55.5614 124.582 45.9139 124.582Z" fill="#829B03"/>
<path d="M250.45 141.663H241.835C233.126 139.607 219.367 138.879 207.104 140.06C203.129 140.45 199.703 140.998 196.888 141.663H188.273V146.513C188.273 147.441 189.085 148.379 190.804 149.286C197.573 152.849 215.845 154.494 231.619 152.965C243.122 151.848 250.123 149.349 250.428 146.692H250.439V141.663H250.45Z" fill="white"/>
<path d="M219.42 153.672C207.337 153.672 195.813 152.069 190.752 149.412C189.107 148.548 188.232 147.62 188.158 146.66V146.523V141.536H196.888C199.788 140.851 203.225 140.313 207.105 139.934C218.967 138.784 232.937 139.427 241.868 141.536H250.598V146.84H250.566C250.05 149.634 242.838 152.027 231.651 153.103C227.655 153.482 223.501 153.672 219.42 153.672ZM188.422 146.376V146.513C188.422 147.409 189.244 148.305 190.878 149.159C197.616 152.702 215.888 154.347 231.619 152.828C237.176 152.291 241.868 151.405 245.189 150.277C248.342 149.201 250.155 147.926 250.303 146.682L250.313 146.576V141.8H241.826H241.815C232.916 139.691 218.977 139.058 207.126 140.208C203.246 140.587 199.82 141.125 196.931 141.8H196.899H188.422V146.376Z" fill="#1C2436"/>
<path d="M219.359 148.632C236.601 148.632 250.578 145.488 250.578 141.61C250.578 137.732 236.601 134.588 219.359 134.588C202.116 134.588 188.139 137.732 188.139 141.61C188.139 145.488 202.116 148.632 219.359 148.632Z" fill="#AACA09"/>
<path d="M219.367 147.588C216.151 147.588 212.925 147.451 209.846 147.177C203.425 146.597 198.375 145.479 195.623 144.035C193.525 142.928 192.913 141.715 193.841 140.534C195.412 138.542 201.158 136.886 209.235 136.106C215.54 135.495 222.509 135.474 228.877 136.053C235.299 136.633 240.349 137.751 243.101 139.195C245.199 140.303 245.811 141.515 244.883 142.696C243.312 144.689 237.565 146.344 229.489 147.124C226.242 147.43 222.804 147.588 219.367 147.588ZM219.378 136.138C216.077 136.138 212.725 136.285 209.498 136.602C201.833 137.34 196.403 138.879 194.969 140.693C194.178 141.705 194.716 142.738 196.54 143.698C201.928 146.534 216.594 147.841 229.236 146.608C236.901 145.87 242.331 144.33 243.765 142.517C244.556 141.505 244.018 140.471 242.194 139.512C238.177 137.403 229.015 136.138 219.378 136.138Z" fill="#829B03"/>
<path d="M254.534 136.064H245.919C237.21 134.008 223.451 133.28 211.188 134.461C207.213 134.851 203.787 135.4 200.972 136.064H192.357V140.914C192.357 141.842 193.169 142.78 194.888 143.687C201.657 147.251 219.929 148.896 235.702 147.367C247.206 146.249 254.207 143.75 254.512 141.093H254.523V136.064H254.534Z" fill="white"/>
<path d="M223.504 148.073C211.421 148.073 199.897 146.471 194.836 143.814C193.191 142.949 192.316 142.021 192.242 141.062V140.925V135.937H200.972C203.872 135.252 207.309 134.714 211.189 134.335C223.051 133.186 237.021 133.829 245.952 135.937H254.682V141.241H254.65C254.134 144.024 246.922 146.428 235.735 147.504C231.739 147.883 227.585 148.073 223.504 148.073ZM192.506 140.777V140.914C192.506 141.81 193.328 142.706 194.962 143.561C201.7 147.103 219.972 148.748 235.693 147.23C241.249 146.692 245.941 145.806 249.262 144.678C252.415 143.603 254.228 142.327 254.376 141.083L254.387 140.977V136.201H245.899H245.888C236.99 134.092 223.051 133.46 211.2 134.609C207.32 134.989 203.893 135.526 201.004 136.201H200.972H192.495V140.777H192.506Z" fill="#1C2436"/>
<path d="M223.451 141.99C220.235 141.99 217.009 141.853 213.93 141.578C207.509 140.998 202.459 139.881 199.707 138.436C197.608 137.329 196.997 136.117 197.925 134.936C199.496 132.943 205.242 131.288 213.319 130.508C219.624 129.896 226.593 129.875 232.961 130.455C239.383 131.035 244.433 132.152 247.185 133.597C249.283 134.704 249.895 135.916 248.967 137.097C247.396 139.09 241.649 140.745 233.573 141.526C230.326 141.831 226.888 141.99 223.451 141.99ZM223.462 130.539C220.161 130.539 216.809 130.687 213.582 131.003C205.917 131.741 200.487 133.281 199.053 135.094C198.262 136.106 198.8 137.139 200.624 138.099C206.012 140.935 220.678 142.243 233.32 141.009C240.985 140.271 246.415 138.732 247.849 136.918C248.64 135.906 248.102 134.873 246.278 133.913C242.261 131.804 233.099 130.539 223.462 130.539Z" fill="#829B03"/>
<path d="M253.287 131.499H244.673C235.964 129.443 222.205 128.715 209.942 129.896C205.967 130.286 202.541 130.834 199.726 131.499H191.111V136.349C191.111 137.276 191.923 138.215 193.642 139.122C200.411 142.685 218.683 144.33 234.456 142.801C245.96 141.684 252.961 139.185 253.266 136.528H253.277V131.499H253.287Z" fill="white"/>
<path d="M222.258 143.508C210.175 143.508 198.651 141.905 193.59 139.248C191.945 138.384 191.07 137.456 190.996 136.496V136.359V131.372H199.726C202.626 130.687 206.063 130.149 209.943 129.769C221.805 128.62 235.775 129.263 244.706 131.372H253.436V136.675H253.404C252.887 139.47 245.676 141.863 234.489 142.938C230.493 143.318 226.339 143.508 222.258 143.508ZM191.26 136.212V136.349C191.26 137.245 192.082 138.141 193.716 138.995C200.454 142.538 218.726 144.183 234.447 142.664C240.003 142.127 244.695 141.241 248.016 140.113C251.169 139.037 252.982 137.761 253.13 136.517L253.141 136.412V131.636H244.653H244.642C235.743 129.527 221.805 128.894 209.954 130.044C206.074 130.423 202.647 130.961 199.758 131.636H199.726H191.26V136.212Z" fill="#1C2436"/>
<path d="M222.194 138.468C239.437 138.468 253.414 135.324 253.414 131.446C253.414 127.568 239.437 124.424 222.194 124.424C204.952 124.424 190.975 127.568 190.975 131.446C190.975 135.324 204.952 138.468 222.194 138.468Z" fill="#AACA09"/>
<path d="M222.201 137.424C218.985 137.424 215.759 137.287 212.68 137.013C206.259 136.433 201.209 135.315 198.457 133.871C196.358 132.764 195.747 131.551 196.675 130.37C198.246 128.378 203.992 126.722 212.069 125.942C218.374 125.33 225.343 125.309 231.711 125.889C238.133 126.469 243.183 127.587 245.935 129.031C248.033 130.138 248.645 131.351 247.717 132.532C246.146 134.525 240.399 136.18 232.323 136.96C229.076 137.266 225.638 137.424 222.201 137.424ZM222.212 125.974C218.911 125.974 215.559 126.121 212.332 126.438C204.667 127.176 199.237 128.715 197.803 130.528C197.012 131.541 197.55 132.574 199.374 133.533C204.762 136.37 219.428 137.677 232.07 136.443C239.735 135.705 245.165 134.166 246.599 132.353C247.39 131.34 246.852 130.307 245.028 129.348C241.011 127.239 231.849 125.974 222.212 125.974Z" fill="#829B03"/>
<path d="M252.625 125.531H244.011C235.302 123.475 221.543 122.747 209.28 123.928C205.305 124.318 201.879 124.867 199.063 125.531H190.449V130.381C190.449 131.309 191.261 132.247 192.98 133.154C199.749 136.718 218.021 138.362 233.794 136.834C245.297 135.716 252.298 133.217 252.604 130.56H252.615V125.531H252.625Z" fill="white"/>
<path d="M221.606 137.53C209.523 137.53 197.998 135.927 192.937 133.27C191.293 132.405 190.418 131.477 190.344 130.518V130.381V125.394H199.074C201.973 124.708 205.411 124.171 209.291 123.791C221.152 122.642 235.123 123.285 244.053 125.394H252.783V130.697H252.752C252.235 133.481 245.023 135.885 233.836 136.96C229.84 137.35 225.686 137.53 221.606 137.53ZM190.607 130.244V130.381C190.607 131.277 191.43 132.173 193.064 133.027C199.801 136.57 218.074 138.215 233.805 136.697C239.361 136.159 244.053 135.273 247.375 134.145C250.527 133.07 252.341 131.794 252.488 130.55L252.499 130.444V125.668H244.011H244.001C235.102 123.559 221.163 122.927 209.312 124.076C205.432 124.455 202.005 124.993 199.116 125.668H199.084H190.607V130.244Z" fill="#1C2436"/>
<path d="M221.542 132.49C238.784 132.49 252.762 129.346 252.762 125.468C252.762 121.589 238.784 118.445 221.542 118.445C204.3 118.445 190.322 121.589 190.322 125.468C190.322 129.346 204.3 132.49 221.542 132.49Z" fill="#AACA09"/>
<path d="M221.551 131.456C218.335 131.456 215.108 131.319 212.03 131.045C205.609 130.465 200.558 129.348 197.806 127.903C195.708 126.796 195.097 125.584 196.024 124.403C197.595 122.41 203.342 120.755 211.418 119.974C217.723 119.363 224.693 119.342 231.061 119.922C237.482 120.501 242.533 121.619 245.284 123.064C247.383 124.171 247.994 125.383 247.066 126.564C245.495 128.557 239.749 130.212 231.673 130.992C228.415 131.298 224.988 131.456 221.551 131.456ZM221.551 120.006C218.25 120.006 214.898 120.154 211.671 120.47C204.006 121.208 198.576 122.747 197.142 124.561C196.351 125.573 196.889 126.606 198.713 127.566C204.101 130.402 218.767 131.709 231.409 130.476C239.074 129.738 244.504 128.198 245.938 126.385C246.729 125.373 246.191 124.339 244.367 123.38C240.361 121.271 231.198 120.006 221.551 120.006Z" fill="#829B03"/>
<path d="M254.534 119.932H245.919C237.21 117.876 223.451 117.149 211.188 118.329C207.213 118.72 203.787 119.268 200.972 119.932H192.357V124.782C192.357 125.71 193.169 126.648 194.888 127.555C201.657 131.119 219.929 132.764 235.702 131.235C247.206 130.117 254.207 127.618 254.512 124.961H254.523V119.932H254.534Z" fill="white"/>
<path d="M223.504 131.931C211.421 131.931 199.897 130.328 194.836 127.671C193.191 126.807 192.316 125.879 192.242 124.919V124.782V119.795H200.972C203.872 119.11 207.309 118.572 211.189 118.192C223.051 117.043 237.021 117.686 245.952 119.795H254.682V125.099H254.65C254.134 127.893 246.922 130.286 235.735 131.362C231.739 131.752 227.585 131.931 223.504 131.931ZM192.506 124.645V124.782C192.506 125.678 193.328 126.575 194.962 127.429C201.7 130.971 219.972 132.616 235.693 131.098C241.249 130.56 245.941 129.675 249.262 128.546C252.415 127.471 254.228 126.195 254.376 124.951L254.387 124.846V120.069H245.899H245.888C236.99 117.961 223.051 117.328 211.2 118.477C207.32 118.857 203.893 119.394 201.004 120.069H200.972H192.495V124.645H192.506Z" fill="#1C2436"/>
<path d="M223.439 126.891C240.681 126.891 254.658 123.747 254.658 119.869C254.658 115.991 240.681 112.847 223.439 112.847C206.196 112.847 192.219 115.991 192.219 119.869C192.219 123.747 206.196 126.891 223.439 126.891Z" fill="#AACA09"/>
<path d="M223.451 125.858C220.235 125.858 217.009 125.721 213.93 125.447C207.509 124.867 202.459 123.749 199.707 122.305C197.608 121.197 196.997 119.985 197.925 118.804C199.496 116.811 205.242 115.156 213.319 114.376C219.624 113.764 226.593 113.743 232.961 114.323C239.383 114.903 244.433 116.02 247.185 117.465C249.283 118.572 249.895 119.785 248.967 120.965C247.396 122.958 241.649 124.614 233.573 125.394C230.326 125.7 226.888 125.858 223.451 125.858ZM223.462 114.407C220.161 114.407 216.809 114.555 213.582 114.871C205.917 115.609 200.487 117.149 199.053 118.962C198.262 119.974 198.8 121.008 200.624 121.967C206.012 124.803 220.678 126.111 233.32 124.877C240.985 124.139 246.415 122.6 247.849 120.786C248.64 119.774 248.102 118.741 246.278 117.781C242.261 115.673 233.099 114.407 223.462 114.407Z" fill="#829B03"/>
<path d="M253.287 115.367H244.673C235.964 113.311 222.205 112.583 209.942 113.764C205.967 114.154 202.541 114.702 199.726 115.367H191.111V120.217C191.111 121.145 191.923 122.083 193.642 122.99C200.411 126.554 218.683 128.198 234.456 126.67C245.96 125.552 252.961 123.053 253.266 120.396H253.277V115.367H253.287Z" fill="white"/>
<path d="M222.258 127.365C210.175 127.365 198.651 125.763 193.59 123.106C191.945 122.241 191.07 121.313 190.996 120.354V120.217V115.23H199.726C202.626 114.544 206.063 114.007 209.943 113.627C221.805 112.478 235.775 113.121 244.706 115.23H253.436V120.533H253.404C252.887 123.327 245.676 125.721 234.489 126.796C230.493 127.186 226.339 127.365 222.258 127.365ZM191.26 120.08V120.217C191.26 121.113 192.082 122.009 193.716 122.863C200.454 126.406 218.726 128.051 234.447 126.533C240.003 125.995 244.695 125.109 248.016 123.981C251.169 122.905 252.982 121.63 253.13 120.386L253.141 120.28V115.504H244.653H244.642C235.743 113.406 221.805 112.762 209.954 113.912C206.074 114.291 202.647 114.829 199.758 115.504H199.726H191.26V120.08Z" fill="#1C2436"/>
<path d="M222.194 122.325C239.437 122.325 253.414 119.182 253.414 115.303C253.414 111.425 239.437 108.281 222.194 108.281C204.952 108.281 190.975 111.425 190.975 115.303C190.975 119.182 204.952 122.325 222.194 122.325Z" fill="#AACA09"/>
<path d="M222.201 121.292C218.985 121.292 215.759 121.155 212.68 120.881C206.259 120.301 201.209 119.183 198.457 117.739C196.358 116.632 195.747 115.419 196.675 114.238C198.246 112.246 203.992 110.59 212.069 109.81C218.374 109.198 225.343 109.177 231.711 109.757C238.133 110.337 243.183 111.455 245.935 112.899C248.033 114.006 248.645 115.219 247.717 116.4C246.146 118.393 240.399 120.048 232.323 120.828C229.076 121.134 225.638 121.292 222.201 121.292ZM222.212 109.842C218.911 109.842 215.559 109.989 212.332 110.306C204.667 111.044 199.237 112.583 197.803 114.397C197.012 115.409 197.55 116.442 199.374 117.401C204.762 120.238 219.428 121.545 232.07 120.312C239.735 119.573 245.165 118.034 246.599 116.221C247.39 115.208 246.852 114.175 245.028 113.216C241.011 111.107 231.849 109.842 222.212 109.842Z" fill="#829B03"/>
<path d="M251.168 107.554H242.554C233.845 105.498 220.086 104.77 207.823 105.951C203.848 106.341 200.422 106.89 197.606 107.554H188.992V112.404C188.992 113.332 189.804 114.27 191.523 115.177C198.292 118.741 216.564 120.386 232.337 118.857C243.84 117.739 250.841 115.24 251.147 112.583H251.158V107.554H251.168Z" fill="white"/>
<path d="M220.139 119.553C208.056 119.553 196.532 117.95 191.471 115.293C189.826 114.428 188.951 113.501 188.877 112.541V112.404V107.417H197.607C200.507 106.731 203.944 106.194 207.824 105.814C219.686 104.665 233.656 105.308 242.586 107.417H251.317V112.72H251.285C250.768 115.504 243.556 117.908 232.37 118.983C228.374 119.373 224.23 119.553 220.139 119.553ZM189.141 112.267V112.404C189.141 113.3 189.963 114.196 191.597 115.05C198.335 118.593 216.607 120.238 232.327 118.72C237.884 118.182 242.576 117.296 245.897 116.168C249.05 115.093 250.863 113.817 251.011 112.573L251.021 112.478V107.701H242.534H242.523C233.624 105.593 219.686 104.96 207.834 106.109C203.954 106.489 200.528 107.027 197.639 107.701H197.607H189.13V112.267H189.141Z" fill="#1C2436"/>
<path d="M220.087 114.513C237.329 114.513 251.307 111.369 251.307 107.491C251.307 103.612 237.329 100.469 220.087 100.469C202.845 100.469 188.867 103.612 188.867 107.491C188.867 111.369 202.845 114.513 220.087 114.513Z" fill="#AACA09"/>
<path d="M220.096 113.48C216.88 113.48 213.653 113.343 210.575 113.068C204.154 112.488 199.103 111.371 196.351 109.926C194.253 108.819 193.641 107.607 194.569 106.426C196.14 104.433 201.887 102.778 209.963 101.998C216.268 101.386 223.238 101.365 229.606 101.945C236.027 102.525 241.078 103.642 243.829 105.087C245.928 106.194 246.539 107.406 245.611 108.587C244.04 110.58 238.294 112.235 230.218 113.016C226.96 113.321 223.522 113.48 220.096 113.48ZM220.096 102.029C216.795 102.029 213.443 102.177 210.216 102.493C202.551 103.231 197.121 104.77 195.687 106.584C194.896 107.596 195.434 108.629 197.258 109.589C202.646 112.425 217.312 113.733 229.954 112.499C237.619 111.761 243.049 110.222 244.483 108.408C245.274 107.396 244.736 106.363 242.912 105.403C238.905 103.284 229.733 102.029 220.096 102.029Z" fill="#829B03"/>
<path d="M254.534 102.356H245.919C237.21 100.3 223.451 99.5722 211.188 100.753C207.213 101.143 203.787 101.691 200.972 102.356H192.357V107.206C192.357 108.134 193.169 109.072 194.888 109.979C201.657 113.543 219.929 115.187 235.702 113.659C247.206 112.541 254.207 110.042 254.512 107.385H254.523V102.356H254.534Z" fill="white"/>
<path d="M223.504 114.365C211.421 114.365 199.897 112.762 194.836 110.105C193.191 109.241 192.316 108.313 192.242 107.353V107.216V102.229H200.972C203.872 101.544 207.309 101.006 211.189 100.626C223.051 99.4772 237.021 100.12 245.952 102.229H254.682V107.533H254.65C254.134 110.316 246.922 112.72 235.735 113.795C231.739 114.175 227.585 114.365 223.504 114.365ZM192.506 107.069V107.206C192.506 108.102 193.328 108.998 194.962 109.852C201.7 113.395 219.972 115.04 235.693 113.521C241.249 112.984 245.941 112.098 249.262 110.97C252.415 109.894 254.228 108.619 254.376 107.374L254.387 107.269V102.493H245.899H245.888C236.99 100.384 223.051 99.7513 211.2 100.901C207.32 101.28 203.893 101.818 201.004 102.493H200.972H192.495V107.069H192.506Z" fill="#1C2436"/>
<path d="M223.439 109.325C240.681 109.325 254.658 106.181 254.658 102.303C254.658 98.4249 240.681 95.281 223.439 95.281C206.196 95.281 192.219 98.4249 192.219 102.303C192.219 106.181 206.196 109.325 223.439 109.325Z" fill="#AACA09"/>
<path d="M223.451 108.282C220.235 108.282 217.009 108.145 213.93 107.87C207.509 107.29 202.459 106.173 199.707 104.728C197.608 103.621 196.997 102.409 197.925 101.228C199.496 99.2351 205.242 97.5797 213.319 96.7995C219.624 96.188 226.593 96.1669 232.961 96.7468C239.383 97.3267 244.433 98.4443 247.185 99.8888C249.283 100.996 249.895 102.208 248.967 103.389C247.396 105.382 241.649 107.037 233.573 107.818C230.326 108.123 226.888 108.282 223.451 108.282ZM223.462 96.8311C220.161 96.8311 216.809 96.9787 213.582 97.2951C205.917 98.0331 200.487 99.5725 199.053 101.386C198.262 102.398 198.8 103.431 200.624 104.391C206.012 107.227 220.678 108.535 233.32 107.301C240.985 106.563 246.415 105.024 247.849 103.21C248.64 102.198 248.102 101.165 246.278 100.205C242.261 98.0964 233.099 96.8311 223.462 96.8311Z" fill="#829B03"/>
<path d="M254.534 97.4529H245.919C237.21 95.3969 223.451 94.6694 211.188 95.8502C207.213 96.2404 203.787 96.7886 200.972 97.4529H192.357V102.303C192.357 103.231 193.169 104.169 194.888 105.076C201.657 108.64 219.929 110.285 235.702 108.756C247.206 107.638 254.207 105.139 254.512 102.482H254.523V97.4529H254.534Z" fill="white"/>
<path d="M223.504 109.452C211.421 109.452 199.897 107.849 194.836 105.192C193.191 104.328 192.316 103.4 192.242 102.44V102.303V97.316H200.972C203.872 96.6306 207.309 96.0929 211.189 95.7133C223.051 94.5641 237.021 95.2072 245.952 97.316H254.682V102.619H254.65C254.134 105.403 246.922 107.807 235.735 108.882C231.739 109.273 227.585 109.452 223.504 109.452ZM192.506 102.166V102.303C192.506 103.199 193.328 104.096 194.962 104.95C201.7 108.492 219.972 110.137 235.693 108.619C241.249 108.081 245.941 107.195 249.262 106.067C252.415 104.992 254.228 103.716 254.376 102.472L254.387 102.366V97.5901H245.899H245.888C236.99 95.4814 223.051 94.8488 211.2 95.998C207.32 96.3776 203.893 96.9153 201.004 97.5901H200.972H192.495V102.166H192.506Z" fill="#1C2436"/>
<path d="M223.439 104.412C240.681 104.412 254.658 101.268 254.658 97.3898C254.658 93.5116 240.681 90.3677 223.439 90.3677C206.196 90.3677 192.219 93.5116 192.219 97.3898C192.219 101.268 206.196 104.412 223.439 104.412Z" fill="#AACA09"/>
<path d="M223.451 103.378C220.235 103.378 217.009 103.241 213.93 102.967C207.509 102.387 202.459 101.27 199.707 99.8253C197.608 98.7182 196.997 97.5057 197.925 96.3248C199.496 94.332 205.242 92.6767 213.319 91.8964C219.624 91.2849 226.593 91.2638 232.961 91.8437C239.383 92.4236 244.433 93.5412 247.185 94.9857C249.283 96.0928 249.895 97.3053 248.967 98.4862C247.396 100.479 241.649 102.134 233.573 102.915C230.326 103.22 226.888 103.378 223.451 103.378ZM223.462 91.9281C220.161 91.9281 216.809 92.0757 213.582 92.392C205.917 93.13 200.487 94.6694 199.053 96.4829C198.262 97.4951 198.8 98.5284 200.624 99.4879C206.012 102.324 220.678 103.632 233.32 102.398C240.985 101.66 246.415 100.121 247.849 98.307C248.64 97.2948 248.102 96.2615 246.278 95.302C242.261 93.1828 233.099 91.9281 223.462 91.9281Z" fill="#829B03"/>
<path d="M273.483 134.017C273.595 121.235 263.376 110.783 250.658 110.671C237.941 110.559 227.54 120.83 227.428 133.612C227.316 146.394 237.534 156.846 250.252 156.958C262.97 157.07 273.37 146.798 273.483 134.017Z" fill="#AACA09"/>
<path d="M250.287 153.324C247.862 153.303 245.447 152.818 243.138 151.869C238.33 149.898 234.577 146.165 232.574 141.347C228.441 131.436 233.101 119.996 242.97 115.841C247.735 113.838 252.997 113.807 257.784 115.768C262.591 117.739 266.345 121.472 268.348 126.29C272.481 136.201 267.821 147.641 257.952 151.795C255.475 152.839 252.881 153.356 250.287 153.324ZM250.614 115.557C248.178 115.536 245.753 116.01 243.444 116.98C234.208 120.871 229.832 131.594 233.712 140.883C235.589 145.395 239.111 148.896 243.613 150.73C248.094 152.565 253.018 152.544 257.488 150.657C266.725 146.766 271.1 136.043 267.22 126.754C265.343 122.241 261.822 118.741 257.32 116.906C255.137 116.031 252.881 115.578 250.614 115.557Z" fill="#829B03"/>
<path d="M252.428 142.57C250.193 143.118 247.799 143.065 245.69 142.443L246.545 138.869C248.263 139.375 249.771 139.596 251.342 139.333L249.845 135.379C245.912 135.78 243.634 135.084 242.506 132.1C241.462 129.337 242.854 126.754 245.849 125.236L245.3 123.791L247.873 122.8L248.442 124.298C250.298 123.876 252.048 123.939 253.746 124.371L253.198 127.914C251.953 127.619 250.72 127.503 249.571 127.629L250.994 131.383C255.138 130.961 257.341 131.878 258.417 134.715C259.461 137.477 258.037 140.071 255.032 141.631L255.971 144.099L253.398 145.09L252.428 142.57ZM247.146 128.294C246.017 128.895 245.722 129.696 246.038 130.539C246.334 131.309 246.871 131.678 248.421 131.646L247.146 128.294ZM254.853 136.254C254.537 135.411 253.925 135.073 252.396 135.084L253.714 138.563C254.811 137.952 255.211 137.203 254.853 136.254Z" fill="#829B03"/>
<path d="M204.322 71.1996C204.322 66.339 207.707 62.4167 212.715 62.4167C217.671 62.4167 221.002 66.2968 221.002 71.1996C221.002 76.0075 217.618 79.9825 212.61 79.9825C207.654 79.9825 204.322 76.113 204.322 71.1996ZM233.623 62.8174H236.449C237.366 62.8174 237.904 63.8612 237.356 64.6098L214.065 96.515C213.769 96.9157 213.295 97.1582 212.799 97.1582H210.849C209.562 97.1582 208.824 95.7031 209.584 94.6699L232.358 63.4711C232.643 63.0599 233.117 62.8174 233.623 62.8174ZM215.847 71.1996C215.847 68.8906 214.571 66.8873 212.61 66.8873C210.554 66.8873 209.468 68.8484 209.468 71.1996C209.468 73.5087 210.743 75.512 212.704 75.512C214.771 75.5225 215.847 73.5087 215.847 71.1996ZM225.42 88.7654C225.42 83.9048 228.805 79.9825 233.813 79.9825C238.768 79.9825 242.1 83.8626 242.1 88.7654C242.1 93.5733 238.716 97.5483 233.708 97.5483C228.752 97.5483 225.42 93.6682 225.42 88.7654ZM236.944 88.7654C236.944 86.4563 235.669 84.453 233.708 84.453C231.651 84.453 230.565 86.4142 230.565 88.7654C230.565 91.0745 231.841 93.0778 233.802 93.0778C235.858 93.0778 236.944 91.0745 236.944 88.7654Z" fill="white"/>
<path d="M233.709 97.7697C228.775 97.7697 225.19 93.9845 225.19 88.7654C225.19 86.3193 226.033 84.0524 227.573 82.397C229.154 80.6889 231.368 79.7505 233.814 79.7505C238.749 79.7505 242.334 83.5357 242.334 88.7548C242.323 93.9002 238.622 97.7697 233.709 97.7697ZM233.804 80.2145C231.484 80.2145 229.397 81.1001 227.899 82.7133C226.444 84.2843 225.643 86.4352 225.643 88.7654C225.643 93.7209 229.038 97.3163 233.709 97.3163C236.018 97.3163 238.116 96.4201 239.613 94.8069C241.069 93.2254 241.87 91.085 241.87 88.7654C241.87 83.8099 238.475 80.2145 233.804 80.2145ZM212.801 97.3796H210.85C210.176 97.3796 209.553 97 209.248 96.399C208.942 95.798 208.995 95.0705 209.395 94.5222L232.17 63.3235C232.507 62.8596 233.045 62.5854 233.625 62.5854H236.45C236.967 62.5854 237.431 62.8701 237.663 63.3235C237.895 63.7769 237.853 64.3251 237.547 64.7363L214.245 96.6415C213.908 97.1054 213.37 97.3796 212.801 97.3796ZM233.625 63.0388C233.203 63.0388 232.792 63.2497 232.539 63.5871L209.764 94.7858C209.459 95.197 209.416 95.7242 209.648 96.1881C209.88 96.6521 210.334 96.9262 210.84 96.9262H212.79C213.212 96.9262 213.623 96.7153 213.876 96.3779L237.167 64.4727C237.368 64.1986 237.399 63.8401 237.241 63.5344C237.083 63.2286 236.788 63.0388 236.44 63.0388H233.625ZM233.804 93.3097C231.832 93.3097 230.335 91.3591 230.335 88.7654C230.335 86.0451 231.685 84.2211 233.698 84.2211C235.67 84.2211 237.167 86.1716 237.167 88.7654C237.167 89.9885 236.872 91.1061 236.334 91.9179C235.723 92.8247 234.848 93.3097 233.804 93.3097ZM233.709 84.6744C232.37 84.6744 230.799 85.7499 230.799 88.7654C230.799 91.0955 232.096 92.8563 233.804 92.8563C235.818 92.8563 236.714 90.8003 236.714 88.7654C236.714 86.4352 235.417 84.6744 233.709 84.6744ZM212.611 80.2145C207.677 80.2145 204.092 76.4293 204.092 71.2102C204.092 68.764 204.935 66.4971 206.475 64.8418C208.056 63.1337 210.27 62.1953 212.717 62.1953C217.651 62.1953 221.236 65.9805 221.236 71.1996C221.225 76.3344 217.524 80.2145 212.611 80.2145ZM212.717 62.6487C210.397 62.6487 208.309 63.5344 206.812 65.1475C205.357 66.7186 204.556 68.8695 204.556 71.1996C204.556 76.1551 207.951 79.7505 212.622 79.7505C214.931 79.7505 217.029 78.8543 218.526 77.2411C219.981 75.6596 220.782 73.5192 220.782 71.1996C220.772 66.2441 217.387 62.6487 212.717 62.6487ZM212.717 75.7439C210.745 75.7439 209.248 73.7934 209.248 71.1996C209.248 68.4793 210.597 66.6553 212.611 66.6553C214.583 66.6553 216.08 68.6059 216.08 71.1996C216.08 72.4227 215.785 73.5403 215.247 74.3522C214.635 75.2695 213.76 75.7439 212.717 75.7439ZM212.611 67.1192C211.272 67.1192 209.701 68.1947 209.701 71.2102C209.701 73.5403 210.998 75.3011 212.706 75.3011C214.72 75.3011 215.616 73.2451 215.616 71.2102C215.627 68.8695 214.33 67.1192 212.611 67.1192Z" fill="#1C2436"/>
<path d="M101.343 22.3431C106.498 17.6946 106.928 9.76819 102.303 4.63895C97.6778 -0.490296 89.7493 -0.880024 84.5941 3.76847C79.4389 8.41696 79.0091 16.3434 83.6342 21.4726C88.2593 26.6019 96.1878 26.9916 101.343 22.3431Z" fill="#AACA09"/>
<path d="M85.0976 20.1471C84.2119 19.1665 83.5266 18.0278 83.0521 16.752C82.0716 14.1055 82.1875 11.2376 83.379 8.66499C85.8251 3.37206 92.1197 1.04191 97.4021 3.46696C99.9536 4.6373 101.894 6.7355 102.874 9.37142C103.855 12.0179 103.739 14.8858 102.547 17.4584C100.101 22.7514 93.8067 25.0815 88.5243 22.667C87.1958 22.0449 86.0465 21.2014 85.0976 20.1471ZM100.323 6.41919C99.437 5.43862 98.351 4.6373 97.1174 4.06795C92.1724 1.80105 86.2785 3.9836 83.98 8.94967C82.8623 11.3536 82.7569 14.0528 83.6742 16.5306C84.5809 18.9978 86.405 20.9589 88.7984 22.0555C93.7434 24.3224 99.6373 22.1398 101.936 17.1737C103.053 14.7698 103.159 12.0811 102.242 9.59283C101.799 8.4014 101.156 7.32594 100.323 6.41919Z" fill="#829B03"/>
<path d="M90.1907 17.0576C89.1574 16.3617 88.2928 15.3917 87.7656 14.3162L89.5053 13.3462C89.9376 14.2213 90.4015 14.9067 91.0763 15.4339L92.1096 13.3778C90.507 11.9545 89.9482 10.7841 90.7284 9.23418C91.4454 7.80024 92.9953 7.41012 94.7034 8.05329L95.0829 7.30469L96.422 7.96894L96.0319 8.73863C96.8859 9.31853 97.4974 10.046 97.9508 10.8895L96.3271 11.9755C95.9897 11.3745 95.5785 10.8263 95.1146 10.4151L94.134 12.3657C95.8315 13.8734 96.2638 15.0859 95.5258 16.562C94.8088 17.996 93.2483 18.3756 91.5192 17.7429L90.876 19.0187L89.537 18.3545L90.1907 17.0576ZM93.9653 9.70865C93.3116 9.47669 92.8793 9.65593 92.6579 10.0882C92.4576 10.4889 92.5103 10.8368 93.0902 11.4484L93.9653 9.70865ZM93.6068 15.708C93.8282 15.2652 93.7333 14.9067 93.1745 14.2951L92.2678 16.0981C92.9109 16.3195 93.3643 16.193 93.6068 15.708Z" fill="#829B03"/>
<path d="M70.7343 35.0344H61.6035V68.0678H70.7343V35.0344Z" fill="#AACA09"/>
<path d="M76.589 36.4052H55.7441L66.4565 27.4009L76.589 36.4052Z" fill="#AACA09"/>
<path d="M210.847 22.0354H204.289V45.7798H210.847V22.0354Z" fill="#AACA09"/>
<path d="M215.065 23.0161H200.082L207.779 16.5422L215.065 23.0161Z" fill="#AACA09"/>
<path d="M275.221 95.4712H270.023V114.271H275.221V95.4712Z" fill="#AACA09"/>
<path d="M278.553 96.2406H266.691L272.786 91.127L278.553 96.2406Z" fill="#AACA09"/>
<path d="M110.254 78.0316C109.779 78.2108 109.326 78.2846 108.883 78.2952C108.904 78.1792 108.915 78.0526 108.936 77.9156C109.01 77.3251 110.328 76.566 110.296 76.2286C110.212 75.4905 108.672 76.7241 107.439 77.0088C106.595 77.1986 105.109 78.4849 104.803 78.8434L106.279 80.6991C106.395 80.7729 106.511 80.8362 106.658 80.8994C108.282 81.627 110.043 80.5199 110.043 80.5199C110.317 80.4144 110.992 80.0876 111.076 79.94C111.108 79.9189 110.254 78.0316 110.254 78.0316Z" fill="white"/>
<path d="M108.041 81.1839C107.63 81.1839 107.166 81.1101 106.66 80.952C106.544 80.9098 106.449 80.8466 106.364 80.7833C106.333 80.7622 106.301 80.7411 106.28 80.72C106.248 80.6989 106.238 80.6568 106.259 80.6146C106.28 80.583 106.322 80.5724 106.364 80.5935C106.396 80.6146 106.428 80.6357 106.459 80.6568C106.533 80.72 106.618 80.7727 106.712 80.8044C107.914 81.205 108.969 81.0891 109.854 80.4881C110.466 80.0663 110.782 79.5286 110.814 79.4653C110.993 78.6956 111.13 77.81 111.035 77.694C111.035 77.694 111.025 77.694 111.025 77.7045C110.15 78.2528 109.317 78.3266 108.674 78.3266C108.631 78.3266 108.6 78.295 108.6 78.2528C108.6 78.2106 108.631 78.179 108.674 78.179C109.285 78.179 110.097 78.1052 110.94 77.578C111.025 77.5253 111.088 77.5464 111.109 77.5675C111.331 77.7256 111.067 78.9698 110.94 79.497C110.94 79.5075 110.94 79.5075 110.93 79.518C110.93 79.5497 110.044 81.1839 108.041 81.1839Z" fill="#1C2436"/>
<path d="M104.529 79.2759H104.645C104.73 79.1705 104.814 79.0756 104.888 78.9912C106.374 77.3148 107.418 77.0512 107.492 77.0407C107.988 76.9352 108.515 76.6716 108.989 76.4502C109.516 76.1972 110.012 75.9652 110.191 76.0601C110.191 76.0601 110.191 76.0601 110.202 76.0601C110.212 76.0706 110.233 76.0812 110.255 76.1234C110.255 76.1234 110.255 76.1234 110.255 76.1339C110.265 76.155 110.265 76.1761 110.265 76.1972C110.276 76.3026 110.001 76.5767 109.759 76.8192C109.548 77.0301 109.316 77.2621 109.126 77.5151C109.116 77.5257 109.105 77.5467 109.095 77.5573C109.074 77.5889 109.053 77.61 109.042 77.6416C108.926 77.8103 108.842 77.9896 108.831 78.1583C108.831 78.1688 108.831 78.1688 108.831 78.1794C108.842 78.211 108.863 78.2321 108.894 78.2321C108.937 78.2321 108.968 78.211 108.979 78.1688C109.021 77.7682 109.495 77.2937 109.875 76.9141C110.233 76.5556 110.444 76.3342 110.423 76.1655C110.413 76.0496 110.36 75.9547 110.276 75.9125C110.033 75.7754 109.548 76.0074 108.947 76.3026C108.483 76.524 107.956 76.7771 107.482 76.8825C107.018 76.9879 106.227 77.4202 105.278 78.3797C105.13 78.5273 104.983 78.6855 104.825 78.8647C104.719 78.9701 104.593 79.0545 104.529 79.2759Z" fill="#1C2436"/>
<path d="M108.468 79.1914C108.458 79.1914 108.437 79.1914 108.426 79.1808C107.456 78.4217 106.444 78.8645 106.433 78.8645C106.402 78.8856 106.349 78.8645 106.339 78.8329C106.317 78.8013 106.339 78.7591 106.37 78.738C106.381 78.738 107.467 78.253 108.511 79.0754C108.542 79.0965 108.553 79.1492 108.521 79.1808C108.511 79.1808 108.489 79.1914 108.468 79.1914Z" fill="#1C2436"/>
<path d="M110.305 79.033C110.305 79.033 111.223 78.8116 111.898 77.6518C112.572 76.492 113.089 76.9348 112.572 78.0208C112.34 78.5164 111.676 79.5602 110.885 79.4864C110.084 79.4231 110.305 79.033 110.305 79.033Z" fill="white"/>
<path d="M110.526 79.3496C110.526 79.3707 110.516 79.3918 110.516 79.4129C110.537 79.4023 110.547 79.3812 110.558 79.3601C110.547 79.3601 110.537 79.3496 110.526 79.3496ZM112.698 76.9245C112.551 76.8507 112.361 76.9351 112.16 77.1565C112.139 77.1776 112.129 77.1987 112.108 77.2198C112.087 77.2409 112.076 77.2619 112.055 77.283C111.981 77.3779 111.907 77.4939 111.834 77.6204C111.686 77.884 111.517 78.0949 111.359 78.2636C111.338 78.2847 111.317 78.3058 111.296 78.3269C111.285 78.3374 111.275 78.3479 111.264 78.3585C111.254 78.369 111.243 78.3796 111.233 78.3901C111.212 78.4112 111.19 78.4323 111.169 78.4428C111.159 78.4534 111.159 78.4534 111.148 78.4639C111.106 78.4956 111.064 78.5377 111.032 78.5694C111.022 78.5799 111.011 78.5905 111.001 78.5905C110.864 78.6959 110.727 78.7802 110.621 78.833L110.611 78.8435C110.589 78.854 110.558 78.8646 110.537 78.8751C110.516 78.8857 110.484 78.8962 110.463 78.9068C110.431 78.9173 110.4 78.9278 110.379 78.9384C110.336 78.9595 110.305 78.9595 110.305 78.9595C110.305 78.9595 110.305 78.9595 110.294 78.9595C110.273 78.97 110.263 78.9806 110.252 78.9911C110.252 78.9911 110.21 79.0649 110.22 79.1704C110.22 79.202 110.231 79.2336 110.252 79.2758V79.2863C110.284 79.339 110.326 79.3812 110.379 79.4234C110.389 79.4339 110.389 79.4339 110.4 79.4339C110.41 79.4445 110.431 79.455 110.442 79.455C110.452 79.455 110.452 79.4656 110.463 79.4656C110.473 79.4761 110.495 79.4761 110.505 79.4867C110.516 79.4867 110.526 79.4972 110.537 79.4972C110.6 79.5183 110.684 79.5394 110.769 79.5499C110.8 79.5499 110.843 79.5605 110.885 79.5605C110.906 79.5605 110.916 79.5605 110.937 79.5605C110.937 79.5605 110.937 79.5605 110.948 79.5605C110.959 79.5605 110.969 79.5605 110.98 79.5605C111.022 79.5605 111.064 79.5605 111.096 79.5499C111.127 79.5499 111.148 79.5394 111.18 79.5394C111.212 79.5394 111.233 79.5288 111.264 79.5183C111.444 79.4656 111.623 79.3601 111.781 79.2336C111.834 79.1914 111.886 79.1387 111.939 79.086C111.992 79.0333 112.034 78.9911 112.087 78.9278C112.34 78.6432 112.54 78.3058 112.667 78.0422C112.899 77.5045 112.92 77.0405 112.698 76.9245ZM112.192 78.5377C112.15 78.601 112.108 78.6537 112.066 78.7064C112.023 78.7591 111.971 78.8224 111.929 78.8751C111.739 79.086 111.517 79.2652 111.285 79.3601C111.254 79.3707 111.233 79.3812 111.201 79.3918C111.18 79.4023 111.148 79.4023 111.127 79.4129C111.074 79.4234 111.022 79.4339 110.98 79.4339C110.948 79.4339 110.927 79.4339 110.895 79.4339C110.885 79.4339 110.885 79.4339 110.874 79.4339C110.864 79.4339 110.853 79.4339 110.832 79.4339C110.769 79.4234 110.705 79.4129 110.653 79.4023C110.621 79.3918 110.6 79.3918 110.568 79.3812C110.558 79.3812 110.547 79.3707 110.537 79.3707C110.526 79.3707 110.505 79.3601 110.495 79.3496C110.484 79.3496 110.473 79.339 110.473 79.339C110.452 79.3285 110.431 79.3074 110.41 79.2863C110.4 79.2758 110.389 79.2547 110.379 79.2442C110.347 79.1914 110.358 79.1493 110.368 79.1176C110.389 79.1071 110.41 79.1071 110.442 79.0965C110.463 79.086 110.495 79.0755 110.516 79.0649C110.537 79.0544 110.568 79.0438 110.589 79.0333C110.611 79.0227 110.642 79.0122 110.674 78.9911C110.737 78.9595 110.8 78.9278 110.874 78.8751C110.906 78.854 110.927 78.8435 110.959 78.8224C110.98 78.8119 110.99 78.8013 111.011 78.7802C111.053 78.7486 111.085 78.7275 111.127 78.6959L111.138 78.6853C111.169 78.6643 111.201 78.6326 111.233 78.6115C111.254 78.5904 111.275 78.5694 111.306 78.5483C111.328 78.5272 111.349 78.5061 111.38 78.485C111.581 78.2952 111.781 78.0422 111.971 77.7259C112.023 77.6415 112.076 77.5572 112.118 77.4939C112.139 77.4623 112.15 77.4412 112.171 77.4201C112.192 77.399 112.213 77.3674 112.234 77.3463C112.435 77.1038 112.582 77.0511 112.645 77.0827C112.751 77.1354 112.783 77.4728 112.519 78.0211C112.424 78.1582 112.319 78.3479 112.192 78.5377ZM110.526 79.3496C110.526 79.3707 110.516 79.3918 110.516 79.4129C110.537 79.4023 110.547 79.3812 110.558 79.3601C110.547 79.3601 110.537 79.3496 110.526 79.3496Z" fill="#1C2436"/>
<path d="M110.064 79.7819C110.064 79.7819 111.214 79.1176 111.298 77.7786C111.382 76.4395 112.194 76.6504 112.226 77.8524C112.236 78.4007 111.889 79.6343 111.15 79.9295C110.402 80.2142 110.064 79.7819 110.064 79.7819Z" fill="white"/>
<path d="M110.568 79.3601C110.558 79.3811 110.537 79.3917 110.526 79.4128V79.4233C110.526 79.4444 110.515 79.4655 110.505 79.4971C110.515 79.4971 110.526 79.5077 110.537 79.5077C110.558 79.4866 110.579 79.476 110.6 79.4549C110.621 79.4339 110.642 79.4128 110.663 79.3917C110.61 79.3811 110.589 79.3706 110.568 79.3601ZM112.213 77.3146C112.202 77.2829 112.192 77.2619 112.192 77.2302C112.181 77.2091 112.171 77.1775 112.16 77.1564C112.055 76.9034 111.886 76.7874 111.739 76.7769C111.517 76.7769 111.264 77.0404 111.222 77.768C111.222 77.8101 111.211 77.8523 111.211 77.8945C111.211 77.905 111.211 77.9156 111.201 77.9261C111.19 77.9788 111.18 78.0315 111.169 78.0843C111.138 78.253 111.085 78.4111 111.011 78.5587C111 78.5904 110.99 78.622 110.969 78.6431C110.958 78.6642 110.948 78.6853 110.937 78.6958C110.916 78.7485 110.885 78.7907 110.853 78.8434C110.8 78.9172 110.758 78.991 110.705 79.0648C110.653 79.1386 110.6 79.2019 110.537 79.2652C110.515 79.2862 110.494 79.3073 110.484 79.3284C110.473 79.339 110.463 79.3495 110.442 79.3706C110.431 79.3706 110.431 79.3811 110.431 79.3811C110.41 79.4022 110.399 79.4128 110.378 79.4339C110.368 79.4444 110.357 79.4549 110.347 79.4549C110.157 79.6236 110.02 79.708 110.02 79.708C109.999 79.7185 109.988 79.7396 109.988 79.7607C109.988 79.7818 109.988 79.8029 109.999 79.824C110.009 79.8345 110.052 79.8978 110.146 79.961C110.168 79.9716 110.189 79.9821 110.21 79.9927C110.231 80.0032 110.252 80.0138 110.273 80.0243C110.294 80.0349 110.326 80.0454 110.347 80.0559C110.399 80.077 110.452 80.0876 110.505 80.0876C110.547 80.0981 110.589 80.0981 110.642 80.0981C110.663 80.0981 110.695 80.0981 110.726 80.0981C110.758 80.0981 110.8 80.0876 110.842 80.0876C110.853 80.0876 110.874 80.0876 110.884 80.077C110.906 80.077 110.927 80.0665 110.948 80.0665C111.011 80.0454 111.085 80.0243 111.148 80.0032C111.559 79.8451 111.855 79.4128 112.034 78.9594C112.065 78.8961 112.086 78.8223 112.108 78.7591C112.129 78.6853 112.15 78.622 112.171 78.5587C112.245 78.2951 112.276 78.0526 112.266 77.8734C112.287 77.6414 112.255 77.4622 112.213 77.3146ZM111.928 78.875C111.907 78.9383 111.876 79.0016 111.844 79.0648C111.812 79.1281 111.781 79.1808 111.749 79.2441C111.58 79.5182 111.37 79.7607 111.116 79.8556C111.106 79.8556 111.095 79.8662 111.095 79.8662C111.085 79.8767 111.064 79.8767 111.053 79.8872C111.032 79.8978 111.011 79.8978 110.99 79.9083C110.958 79.9189 110.916 79.9294 110.884 79.94C110.8 79.961 110.716 79.961 110.642 79.961C110.579 79.961 110.526 79.9505 110.473 79.94C110.431 79.9294 110.389 79.9189 110.347 79.8978C110.326 79.8872 110.305 79.8767 110.284 79.8662C110.262 79.8556 110.241 79.8451 110.22 79.824C110.199 79.8029 110.189 79.8029 110.178 79.7923C110.199 79.7713 110.231 79.7502 110.262 79.7291C110.294 79.708 110.336 79.6764 110.368 79.6447C110.399 79.6131 110.431 79.592 110.473 79.5498C110.494 79.5288 110.505 79.5182 110.526 79.4971C110.547 79.476 110.568 79.4655 110.589 79.4444C110.61 79.4233 110.631 79.4022 110.653 79.3811C110.695 79.339 110.747 79.2863 110.79 79.223C110.832 79.1808 110.863 79.1281 110.906 79.0754C110.99 78.9594 111.064 78.8329 111.127 78.6958C111.138 78.6853 111.138 78.6747 111.148 78.6536C111.169 78.6009 111.19 78.5587 111.211 78.506C111.222 78.4849 111.222 78.4638 111.232 78.4428C111.243 78.4111 111.254 78.39 111.264 78.3584C111.275 78.3268 111.285 78.2951 111.296 78.2741C111.306 78.2213 111.327 78.1581 111.338 78.0948C111.359 77.9894 111.37 77.8839 111.38 77.768C111.412 77.1775 111.591 76.9139 111.76 76.9139C111.876 76.9139 111.992 77.0404 112.076 77.2724C112.086 77.2935 112.097 77.3251 112.097 77.3568C112.108 77.3884 112.118 77.42 112.118 77.4516C112.139 77.5676 112.16 77.6942 112.16 77.8418C112.15 78.1054 112.076 78.4955 111.928 78.875ZM110.568 79.3601C110.558 79.3811 110.537 79.3917 110.526 79.4128V79.4233C110.526 79.4444 110.515 79.4655 110.505 79.4971C110.515 79.4971 110.526 79.5077 110.537 79.5077C110.558 79.4866 110.579 79.476 110.6 79.4549C110.621 79.4339 110.642 79.4128 110.663 79.3917C110.61 79.3811 110.589 79.3706 110.568 79.3601Z" fill="#1C2436"/>
<path d="M109.242 80.1824C109.242 80.1824 110.518 79.5814 110.328 78.2529C110.149 76.9244 110.992 76.9666 111.256 78.1475C111.383 78.6852 111.288 80.0348 110.486 80.3511C109.685 80.6569 109.242 80.1824 109.242 80.1824Z" fill="white"/>
<path d="M111.37 78.4533C111.37 78.4216 111.37 78.39 111.36 78.3584C111.36 78.3267 111.349 78.2951 111.349 78.2635C111.339 78.2108 111.328 78.1686 111.328 78.1264C111.328 78.1159 111.328 78.1053 111.318 78.1053C111.307 78.0421 111.286 77.9893 111.276 77.9366C111.254 77.8839 111.244 77.8312 111.223 77.7785C111.212 77.7468 111.202 77.7152 111.181 77.6941C111.17 77.6625 111.149 77.6414 111.138 77.6098C110.97 77.2935 110.748 77.1669 110.58 77.1986C110.39 77.2302 110.221 77.4516 110.232 77.9472C110.232 77.9788 110.232 78.0104 110.232 78.0526C110.232 78.0737 110.232 78.0842 110.232 78.1053C110.232 78.158 110.242 78.2108 110.253 78.274V78.2846C110.253 78.3056 110.263 78.3373 110.263 78.3584C110.263 78.3795 110.263 78.4111 110.263 78.4322C110.316 79.5814 109.251 80.1086 109.198 80.1297C109.177 80.1402 109.167 80.1613 109.156 80.1824C109.156 80.2035 109.156 80.2246 109.177 80.2457C109.188 80.2562 109.378 80.4566 109.736 80.5198C109.757 80.5304 109.789 80.5304 109.81 80.5304H109.82C109.852 80.5304 109.884 80.5409 109.915 80.5409C109.926 80.5409 109.936 80.5409 109.936 80.5409C109.958 80.5409 109.979 80.5409 110 80.5409C110.01 80.5409 110.021 80.5409 110.031 80.5409C110.168 80.5304 110.327 80.4987 110.495 80.4355C110.685 80.3617 110.833 80.2351 110.949 80.0875C110.97 80.0559 110.991 80.0243 111.012 79.9926C111.022 79.9821 111.022 79.9716 111.033 79.961C111.044 79.9399 111.054 79.9188 111.065 79.8977C111.128 79.7923 111.17 79.6763 111.212 79.5603C111.223 79.5287 111.233 79.5076 111.233 79.476C111.244 79.4444 111.254 79.4233 111.254 79.3916C111.254 79.3811 111.254 79.3811 111.254 79.3706C111.36 79.0332 111.381 78.7168 111.37 78.4533ZM111.096 79.4865C111.086 79.5076 111.075 79.5393 111.075 79.5603C111.054 79.6236 111.022 79.6869 111.001 79.7396C110.97 79.8028 110.928 79.8661 110.885 79.9294C110.864 79.961 110.843 79.9926 110.822 80.0137C110.801 80.0454 110.769 80.0664 110.748 80.0981C110.664 80.1719 110.58 80.2351 110.474 80.2773C110.411 80.2984 110.348 80.3195 110.284 80.3406C110.211 80.3617 110.137 80.3722 110.063 80.3828C110.042 80.3828 110.031 80.3828 110.01 80.3828C109.989 80.3828 109.979 80.3828 109.958 80.3828C109.926 80.3828 109.894 80.3828 109.863 80.3828C109.62 80.3617 109.451 80.2668 109.357 80.2035C109.546 80.0875 109.979 79.7923 110.232 79.2968C110.253 79.2651 110.263 79.2335 110.274 79.2019C110.295 79.1491 110.316 79.0964 110.337 79.0437C110.348 79.0121 110.358 78.991 110.358 78.9594C110.39 78.8539 110.411 78.7274 110.411 78.6114C110.411 78.5587 110.411 78.506 110.411 78.4533C110.411 78.4427 110.411 78.4322 110.411 78.4216C110.411 78.4005 110.411 78.3689 110.4 78.3373C110.4 78.3056 110.39 78.274 110.39 78.2529C110.379 78.1791 110.369 78.1159 110.369 78.0526C110.369 77.9999 110.369 77.9472 110.369 77.8944C110.369 77.5465 110.474 77.3673 110.601 77.3462C110.706 77.3251 110.833 77.4094 110.949 77.5992C110.97 77.6414 111.001 77.6836 111.022 77.7257C111.033 77.7468 111.044 77.7679 111.054 77.789C111.096 77.8839 111.138 77.9999 111.17 78.1159C111.181 78.137 111.181 78.158 111.181 78.1791C111.181 78.1897 111.181 78.2002 111.191 78.2002C111.191 78.2213 111.202 78.2529 111.202 78.2846C111.212 78.3267 111.212 78.3689 111.212 78.4111C111.212 78.4322 111.212 78.4533 111.212 78.4638C111.212 78.4743 111.212 78.4849 111.212 78.506C111.212 78.5376 111.212 78.5692 111.212 78.6009C111.212 78.8539 111.181 79.1491 111.107 79.4233C111.117 79.4338 111.107 79.4549 111.096 79.4865Z" fill="#1C2436"/>
<path d="M108.682 79.9292C108.998 79.866 109.367 79.7395 109.557 79.2334C109.979 78.0946 110.548 78.1368 110.527 78.896C110.506 79.7078 110.031 80.5935 109.293 80.8887L108.682 79.9292Z" fill="white"/>
<path d="M109.284 80.9522C109.253 80.9522 109.232 80.9311 109.221 80.91C109.21 80.8679 109.221 80.8257 109.263 80.8151C110.022 80.5199 110.434 79.6237 110.455 78.8856C110.465 78.622 110.391 78.4428 110.275 78.4217C110.117 78.3901 109.854 78.6431 109.622 79.2547C109.421 79.8029 109.021 79.94 108.694 80.0033C108.652 80.0138 108.62 79.9822 108.609 79.9505C108.599 79.9084 108.631 79.8767 108.662 79.8662C108.968 79.8135 109.305 79.687 109.485 79.2125C109.717 78.5904 110.022 78.2319 110.296 78.2846C110.486 78.3268 110.602 78.5482 110.592 78.8962C110.571 79.6764 110.117 80.6253 109.305 80.9522C109.305 80.9522 109.295 80.9522 109.284 80.9522Z" fill="#1C2436"/>
<path d="M86.3594 73.7931C86.3594 73.7931 90.5769 72.8864 94.0668 77.0617C96.4602 79.919 98.8536 84.7691 99.539 84.6531C100.224 84.5371 105.233 78.2742 105.233 78.2742C105.233 78.2742 107.489 80.0561 107.289 83.5355C107.289 83.5355 104.41 92.6452 98.7166 92.5925C92.907 92.5398 87.0025 82.5338 87.0025 82.5338L86.3594 73.7931Z" fill="#1C2436"/>
<path d="M95.7301 142.337V144.404C95.8355 144.393 95.9304 144.393 96.0359 144.393C98.6296 144.393 100.728 146.08 100.728 148.168H95.7301H91.3439C91.3439 148.168 89.8362 146.312 91.3439 142.337C91.7235 141.304 95.7301 142.337 95.7301 142.337Z" fill="#1C2436"/>
<path d="M93.6167 146.112C93.6061 146.112 93.5956 146.112 93.585 146.101C93.5534 146.08 93.5323 146.038 93.5534 146.007C93.933 145.184 94.5129 144.773 94.9241 144.573C95.3669 144.351 95.7254 144.341 95.736 144.33C95.7781 144.33 95.8098 144.362 95.8098 144.393C95.8098 144.436 95.7781 144.467 95.7465 144.467C95.736 144.467 94.3864 144.551 93.6799 146.059C93.6694 146.101 93.6483 146.112 93.6167 146.112Z" fill="#ECEFF2"/>
<path d="M76.8102 142.338V144.404C76.7048 144.394 76.6099 144.394 76.5044 144.394C73.9107 144.394 71.8125 146.081 71.8125 148.169H76.8102H81.1964C81.1964 148.169 82.1875 146.692 81.1964 142.338C80.9433 141.262 76.8102 142.338 76.8102 142.338Z" fill="#1C2436"/>
<path d="M78.9315 146.112C78.8998 146.112 78.8787 146.102 78.8682 146.07C78.1723 144.562 76.8227 144.478 76.8016 144.478C76.7595 144.478 76.7278 144.446 76.7384 144.404C76.7384 144.362 76.77 144.33 76.8122 144.341C76.8227 144.341 77.1812 144.362 77.624 144.583C78.0352 144.784 78.6046 145.195 78.9947 146.017C79.0158 146.049 78.9947 146.091 78.9631 146.112C78.9525 146.112 78.942 146.112 78.9315 146.112Z" fill="#ECEFF2"/>
<path d="M96.0488 97.4531C96.0488 97.4531 97.7674 115.704 96.5654 143.244H88.7315C88.7315 143.244 87.7087 120.196 86.0639 111.655L82.3631 143.244H73.9492C74.9509 116.4 77.3232 98.9082 77.3232 98.9082L96.0488 97.4531Z" fill="#83AAC6"/>
<path d="M73.9395 143.244H82.3533L87.3826 100.015L81.1513 102.008L73.9395 143.244Z" fill="#83AAC6"/>
<path d="M96.4751 103.801C95.0727 103.442 93.0695 102.461 92.8164 99.7623L92.9956 99.7412C93.2381 102.303 95.1255 103.252 96.4645 103.611L96.4751 103.801Z" fill="#1C2436"/>
<path d="M85.3057 74.9845C89.249 74.025 91.653 74.5522 92.739 76.7136C93.7617 78.7591 95.3116 80.0771 95.512 83.5565C96.0075 92.0547 96.2289 99.9625 96.2289 99.9625C96.2289 99.9625 90.8095 103.231 76.9551 101.228C76.9551 101.228 77.1343 87.6369 77.2608 83.7041C77.303 82.7657 78.874 76.5555 85.3057 74.9845Z" fill="#1C2436"/>
<path d="M85.2634 74.1199L85.9277 74.1093C86.5814 74.0988 87.098 73.5505 87.0875 72.8968L87.0348 70.4612C87.0242 69.8075 86.476 69.2803 85.8223 69.3014L85.158 69.3119C84.5043 69.3225 83.9877 69.8708 83.9982 70.5245L84.0509 72.9601C84.0615 73.6138 84.6097 74.1409 85.2634 74.1199Z" fill="white"/>
<path d="M84.0945 69.9339C84.1261 69.9971 84.1472 70.0393 84.1683 70.0709C84.1788 70.0498 84.1894 70.0288 84.1894 70.0077C84.1577 69.9866 84.1261 69.9655 84.0945 69.9339ZM87.1627 72.011L87.1416 71.2202V71.1358V71.0409L87.1311 70.4505C87.1205 70.1131 86.9835 69.7968 86.7409 69.5543C86.4984 69.3223 86.1716 69.1958 85.8342 69.1958L85.1699 69.2063C84.6955 69.2169 84.2948 69.4805 84.0839 69.8706C84.0839 69.8811 84.0734 69.8917 84.0734 69.8917C84.0629 69.9233 84.0418 69.9444 84.0312 69.976C84.0207 70.0077 84.0101 70.0288 83.9996 70.0604C83.9469 70.1975 83.9258 70.3556 83.9258 70.5138V70.6087L83.9574 72.1164L83.9785 72.9599C83.9785 73.1391 84.0207 73.3184 84.105 73.4765C84.1156 73.4976 84.1261 73.5187 84.1367 73.5398C84.1999 73.6558 84.2843 73.7612 84.3792 73.8561C84.5268 74.0037 84.706 74.0986 84.9063 74.1619C85.0118 74.1935 85.1278 74.2146 85.2437 74.2146H85.2859L85.9502 74.204C86.0556 74.204 86.1505 74.183 86.2454 74.1619C86.2665 74.1513 86.2876 74.1513 86.3087 74.1408C86.5722 74.0564 86.8042 73.8877 86.9624 73.6558C87.11 73.4449 87.2049 73.1813 87.1943 72.8966L87.1627 72.011ZM86.6566 73.719C86.5617 73.8139 86.4457 73.8877 86.3087 73.9405C86.2454 73.9615 86.1927 73.9826 86.1294 73.9932C86.0662 74.0037 85.9923 74.0143 85.9291 74.0143L85.4124 74.0248H85.2648C84.9696 74.0353 84.6955 73.9194 84.4846 73.719C84.2737 73.5187 84.1472 73.2446 84.1472 72.9494L84.1367 72.3062L84.0945 70.5032V70.461C84.0945 70.3556 84.1156 70.2607 84.1367 70.1658C84.1472 70.1342 84.1577 70.1026 84.1683 70.0815C84.1683 70.0709 84.1788 70.0604 84.1788 70.0498C84.1894 70.0288 84.1999 70.0077 84.1999 69.9866C84.3792 69.6281 84.7376 69.375 85.1699 69.3645L85.8342 69.354H85.8764C86.1505 69.354 86.4141 69.4594 86.625 69.6597C86.8358 69.8601 86.9624 70.1342 86.9624 70.4294L86.9729 71.0304V71.1148V71.1991L87.0045 72.7385V72.865C87.0045 73.2235 86.878 73.5187 86.6566 73.719ZM84.0945 69.9339C84.1261 69.9971 84.1472 70.0393 84.1683 70.0709C84.1788 70.0498 84.1894 70.0288 84.1894 70.0077C84.1577 69.9866 84.1261 69.9655 84.0945 69.9339Z" fill="#1C2436"/>
<path d="M76.623 105.065L76.6441 104.844C79.7967 104.664 81.5259 101.28 81.5469 101.238L81.7156 101.343C81.7051 101.385 79.881 104.875 76.623 105.065Z" fill="#1C2436"/>
<path d="M83.3567 69.3541C84.9698 71.1676 87.3422 71.6842 88.6496 70.5033C89.957 69.3224 89.3982 66.6022 88.0908 65.0839C86.4987 63.2493 84.1053 62.7537 82.7978 63.9346C81.4904 65.1155 81.7435 67.5406 83.3567 69.3541Z" fill="white"/>
<path d="M88.1647 65.0308C88.0277 64.8727 87.88 64.7145 87.7219 64.5669C86.8678 63.7761 85.8135 63.2806 84.8013 63.2173C83.9894 63.1646 83.2725 63.3966 82.7453 63.871C81.4062 65.0835 81.6487 67.5613 83.2935 69.417C83.5044 69.6595 83.7364 69.8809 83.9789 70.0707C84.0316 70.1129 84.0738 70.1445 84.1265 70.1867C84.1581 70.2078 84.1898 70.2289 84.2214 70.25C85.0016 70.8193 85.8767 71.1673 86.7097 71.22C86.794 71.22 86.8784 71.2305 86.9627 71.22C87.026 71.22 87.0787 71.22 87.142 71.2094C87.3107 71.1989 87.4688 71.1673 87.627 71.1356C88.0382 71.0302 88.4072 70.8404 88.713 70.5663C90.052 69.3643 89.5249 66.6018 88.1647 65.0308ZM86.7202 71.0513C86.1509 71.0196 85.5604 70.8404 84.9911 70.5452C84.7169 70.3976 84.4533 70.2289 84.1898 70.0285C84.1581 69.9969 84.1265 69.9758 84.0843 69.9442C84.0738 69.9336 84.0632 69.9231 84.0421 69.9126C83.8207 69.7333 83.6099 69.5224 83.4201 69.3116C81.8385 67.5402 81.5855 65.1574 82.8507 64.0186C83.1354 63.755 83.4833 63.5758 83.8734 63.4809C84.1581 63.4176 84.4533 63.386 84.7802 63.4071C85.7502 63.4704 86.7624 63.9448 87.5848 64.7145C87.7324 64.8516 87.88 64.9992 88.0171 65.1679C89.6092 67.013 89.6198 69.5224 88.5865 70.4608C88.1964 70.8088 87.7008 71.0196 87.1314 71.0618C87.0682 71.0724 87.0155 71.0724 86.9522 71.0724C86.8784 71.0513 86.8046 71.0513 86.7202 71.0513Z" fill="#1C2436"/>
<path d="M84.0323 64.5566C84.0323 64.5566 85.1394 65.3369 84.6333 65.98C84.1272 66.6337 83.4207 66.0855 83.4207 66.0855C83.4207 66.0855 85.1499 67.0239 84.4646 67.9306C83.7898 68.8374 82.5245 67.414 82.5245 67.414L82.2715 65.7481L84.0323 64.5566Z" fill="#1C2436"/>
<path d="M84.1553 65.263C84.1553 65.263 86.6015 66.3806 88.0987 64.0716C88.0987 64.0716 88.6997 62.1104 85.8423 61.9523C85.8423 61.9523 85.0094 61.8785 84.3451 62.2475C84.3451 62.2475 85.2308 61.5411 84.4506 61.2353C83.6598 60.9296 82.5632 61.6254 81.783 62.8591C81.783 62.8591 81.8884 61.7625 80.9817 62.0788C80.0749 62.3846 79.4212 63.4179 79.8957 64.9045C79.8957 64.9045 79.5794 64.5882 79.2525 64.7358C78.9257 64.8834 79.2841 65.2841 79.6321 65.3052C79.6321 65.3052 78.6937 65.263 78.757 65.6637C78.8202 66.0643 79.6216 65.748 79.6216 65.748C79.6216 65.748 78.9046 69.6386 82.3524 69.8073C82.3524 69.8073 81.7935 71.2834 83.4594 70.2291C83.4594 70.2291 83.8285 71.1569 84.2502 70.1869C84.2502 70.1869 83.9866 70.0288 83.7863 68.8373C83.702 68.268 84.1553 65.263 84.1553 65.263Z" fill="#1C2436"/>
<path d="M85.9424 66.4442C85.9635 66.4336 85.974 66.4125 85.974 66.3914C85.974 66.3493 85.9424 66.3176 85.9107 66.3176C85.8897 66.3176 85.3625 66.2333 85.1094 66.8026C85.0989 66.8343 85.1094 66.8765 85.1411 66.8975C85.1727 66.9186 85.2149 66.8975 85.2359 66.8659C85.4679 66.5496 85.8791 66.4547 85.9002 66.4653C85.9107 66.4547 85.9213 66.4547 85.9424 66.4442Z" fill="#1C2436"/>
<path d="M87.8174 65.3582C87.8385 65.3477 87.849 65.3266 87.849 65.3055C87.849 65.2633 87.8174 65.2317 87.7857 65.2317C87.7647 65.2317 87.2375 65.1474 86.9844 65.7167C86.9739 65.7483 86.9844 65.7905 87.0161 65.8116C87.0477 65.8327 87.0899 65.8116 87.1109 65.78C87.3429 65.4637 87.7541 65.3688 87.7752 65.3793C87.7963 65.3688 87.8068 65.3688 87.8174 65.3582Z" fill="#1C2436"/>
<path d="M85.6511 67.3617C85.7039 67.5198 85.8409 67.6252 85.9569 67.5936C86.0729 67.562 86.1256 67.3933 86.0834 67.2351C86.0307 67.077 85.8936 66.9715 85.7777 67.0032C85.6617 67.0453 85.609 67.2035 85.6511 67.3617Z" fill="#1C2436"/>
<path d="M87.489 66.4334C87.5418 66.5916 87.6788 66.697 87.7948 66.6654C87.9108 66.6338 87.9635 66.4651 87.9213 66.3069C87.8686 66.1488 87.7315 66.0433 87.6156 66.0749C87.4996 66.1066 87.4469 66.2647 87.489 66.4334Z" fill="#1C2436"/>
<path d="M87.4196 67.9939C87.3879 68.0044 87.3563 67.9833 87.3458 67.9622C87.3352 67.9306 87.3457 67.8884 87.3774 67.8779C87.6515 67.7514 87.7042 67.4878 87.7042 67.4878C87.7148 67.4561 87.7464 67.4351 87.778 67.4351C87.8097 67.4456 87.8308 67.4772 87.8308 67.5089C87.8308 67.5194 87.7675 67.8357 87.4301 67.9939C87.4196 67.9939 87.4196 67.9939 87.4196 67.9939Z" fill="#1C2436"/>
<path d="M83.9664 69.2595C84.3882 69.3544 84.7783 69.1752 84.8415 68.8694C84.9048 68.5637 84.5463 68.2263 84.1984 68.1419C83.7766 68.047 83.3865 68.2263 83.3232 68.532C83.26 68.8483 83.5447 69.1752 83.9664 69.2595Z" fill="white"/>
<path d="M87.3335 75.385C87.3335 75.385 90.1171 84.7794 91.4983 97.5373L89.3052 101.249L86.8064 97.2315C86.8064 97.2315 87.3757 85.9181 85.8574 75.7329L87.3335 75.385Z" fill="#AACA09"/>
<path d="M87.6686 73.4766C87.6686 73.4766 87.7424 75.9332 87.2785 76.3972C86.804 76.8611 85.7181 76.1336 85.3174 75.6591C84.9167 75.1846 84.6953 74.2146 84.6953 74.2146L87.6686 73.4766Z" fill="#AACA09"/>
<path d="M87.1853 71.8213C87.1853 71.8213 87.0588 73.5611 86.268 73.6665C85.4773 73.7719 86.7425 74.3413 87.1853 74.7736C87.6282 75.2059 87.6493 76.798 88.3768 76.1548C89.1043 75.5222 89.6209 73.7403 89.3363 73.308C88.5982 72.2326 87.1326 71.6316 87.1853 71.8213Z" fill="#6E6E7F"/>
<path d="M88.3139 68.8692C88.3666 69.1539 88.2717 69.4069 88.0925 69.4386C87.9133 69.4702 87.7235 69.2699 87.6708 68.9957C87.618 68.7111 87.7129 68.458 87.8922 68.4264C88.0714 68.3948 88.2612 68.5951 88.3139 68.8692Z" fill="#1C2436"/>
<path d="M79.6057 110.833C79.437 110.601 79.1945 110.453 78.9098 110.432L74.0492 110.052L73.2057 109.989L68.7562 109.641L67.9127 109.578L64.0221 109.272C63.4633 109.23 62.9467 109.704 62.8834 110.327L61.7552 120.459C61.7236 120.754 61.7974 121.049 61.9556 121.281C62.1243 121.513 62.3668 121.661 62.6514 121.682L77.5497 122.842C77.6235 122.852 77.7078 122.842 77.7816 122.831C78.2456 122.747 78.6357 122.325 78.6989 121.787L79.2894 116.442L79.2999 116.357V116.315L79.8166 111.655C79.8376 111.36 79.7638 111.065 79.6057 110.833ZM62.6725 121.408C62.4617 121.387 62.2719 121.281 62.1454 121.102C62.0188 120.933 61.9661 120.712 61.9977 120.491L62.5882 115.145L62.5987 115.061L62.6198 114.871L63.1154 110.358C63.1681 109.884 63.5582 109.525 63.9905 109.557L62.6725 121.408Z" fill="#1C2436"/>
<path d="M76.5244 122.621L61.6261 121.461C61.1306 121.419 60.7826 120.944 60.8354 120.385L61.9635 110.253C62.0268 109.705 62.4802 109.283 62.9757 109.325L77.8739 110.485C78.3695 110.527 78.7174 111.002 78.6647 111.56L77.5365 121.693C77.4733 122.241 77.0199 122.663 76.5244 122.621Z" fill="#AACA09"/>
<path d="M78.2492 116.358L61.5586 115.05L61.5902 114.776L78.2809 116.084L78.2492 116.358Z" fill="#1C2436"/>
<path d="M65.4878 116.073C65.298 116.062 65.1504 115.873 65.182 115.651L65.298 114.629C65.3191 114.418 65.4983 114.249 65.6987 114.26C65.8884 114.27 66.0361 114.46 66.0044 114.681L65.8884 115.704C65.8568 115.925 65.6776 116.094 65.4878 116.073Z" fill="#1C2436"/>
<path d="M73.3804 116.695C73.1906 116.685 73.043 116.495 73.0746 116.273L73.1906 115.251C73.2117 115.04 73.3909 114.871 73.5912 114.882C73.781 114.892 73.9286 115.082 73.897 115.303L73.781 116.326C73.7494 116.548 73.5702 116.706 73.3804 116.695Z" fill="#1C2436"/>
<path d="M73.0056 110.137L72.1621 110.052L72.3097 108.682C72.3519 108.291 72.257 107.912 72.0566 107.659C71.9828 107.564 71.8458 107.437 71.6665 107.427L68.767 107.174C68.3453 107.132 67.934 107.648 67.8602 108.302L67.7126 109.673L66.8691 109.588L67.0167 108.218C67.1327 107.068 67.9341 106.235 68.8408 106.309L71.7403 106.562C72.1094 106.594 72.4573 106.784 72.7103 107.1C73.0583 107.522 73.2164 108.133 73.1426 108.755L73.0056 110.137Z" fill="#1C2436"/>
<path d="M78.5744 110.748C78.4057 110.516 78.1632 110.369 77.8785 110.348L73.0179 109.968L72.1744 109.905L67.725 109.557L66.8815 109.494L62.9909 109.188C62.4321 109.146 61.9154 109.62 61.8522 110.242L60.724 120.375C60.6924 120.67 60.7662 120.965 60.9243 121.197C61.093 121.429 61.3355 121.577 61.6202 121.598L76.5184 122.758C76.5922 122.768 76.6766 122.758 76.7504 122.747C77.2143 122.663 77.6044 122.241 77.6677 121.703L78.2581 116.358L78.2687 116.273V116.231L78.7853 111.571C78.8169 111.276 78.7431 110.98 78.5744 110.748ZM78.5428 111.55L78.0473 116.062L78.0156 116.337L77.4252 121.682C77.3725 122.157 76.9823 122.515 76.55 122.483L61.6518 121.324C61.441 121.303 61.2512 121.197 61.1246 121.018C60.9981 120.849 60.9454 120.628 60.977 120.406L61.5675 115.061L61.578 114.976L61.5991 114.787L62.0947 110.274C62.1474 109.799 62.5375 109.441 62.9698 109.473L77.868 110.632C78.0789 110.653 78.2687 110.759 78.3952 110.938C78.5112 111.107 78.5639 111.328 78.5428 111.55Z" fill="#1C2436"/>
<path d="M72.3423 107.375C73.0276 104.612 71.2668 103.199 71.2668 103.199L68.6309 102.693C68.6309 102.693 68.0405 103.526 68.0932 104.212C68.1564 104.939 68.8629 105.53 68.6309 106.426C68.2513 107.923 70.0648 108.366 70.3073 108.714C70.708 109.283 71.8151 109.526 72.3423 107.375Z" fill="white"/>
<path d="M70.3555 108.672C70.2923 108.577 70.1447 108.482 69.9443 108.377C69.9338 108.366 69.9127 108.356 69.9022 108.345C69.9022 108.345 69.9022 108.345 69.8916 108.345C69.8705 108.334 69.8495 108.324 69.8389 108.313C69.7967 108.292 69.7651 108.271 69.7229 108.25C69.7018 108.24 69.6913 108.229 69.6702 108.219C69.6491 108.208 69.6386 108.197 69.6175 108.187C69.491 108.113 69.3644 108.029 69.2485 107.934C69.2274 107.923 69.2168 107.913 69.2063 107.892C69.1957 107.881 69.1852 107.871 69.1641 107.86C68.9005 107.628 68.6791 107.322 68.6475 106.922C68.6369 106.774 68.6475 106.616 68.6896 106.447V106.458C68.6686 106.51 68.6369 106.574 68.5947 106.626C68.5842 106.732 68.5737 106.827 68.5842 106.922C68.5948 107.027 68.6158 107.133 68.6475 107.227C68.658 107.249 68.658 107.27 68.6686 107.28C68.6791 107.301 68.6896 107.322 68.7002 107.343C68.7107 107.364 68.7213 107.386 68.7318 107.407C68.7318 107.407 68.7318 107.407 68.7318 107.417C68.7424 107.438 68.7529 107.459 68.7635 107.47C68.7845 107.502 68.8056 107.544 68.8267 107.575C68.8373 107.586 68.8478 107.596 68.8583 107.618C68.9321 107.723 69.027 107.818 69.1219 107.902C69.1219 107.902 69.1219 107.902 69.1325 107.902C69.143 107.913 69.1536 107.923 69.1641 107.934C69.1641 107.934 69.1747 107.934 69.1747 107.944C69.1957 107.955 69.2063 107.965 69.2168 107.987C69.2168 107.987 69.2168 107.987 69.2274 107.987C69.2485 108.008 69.2695 108.029 69.3012 108.039C69.3223 108.06 69.3539 108.081 69.375 108.092C69.3961 108.113 69.4277 108.124 69.4488 108.145C69.5015 108.176 69.5542 108.219 69.6069 108.25C69.628 108.261 69.6386 108.271 69.6597 108.282C69.6808 108.292 69.6913 108.303 69.7124 108.313C69.7018 108.335 69.7018 108.356 69.6913 108.377C69.7018 108.387 69.7124 108.398 69.7335 108.398C69.7546 108.387 69.7756 108.377 69.7967 108.366C69.8178 108.377 69.8389 108.387 69.86 108.398C69.8811 108.408 69.8916 108.419 69.9127 108.429C69.9443 108.45 69.976 108.461 69.9971 108.482C70.0287 108.503 70.0603 108.514 70.0814 108.535C70.1236 108.556 70.1552 108.588 70.1868 108.609C70.1974 108.619 70.2079 108.619 70.2079 108.63C70.2396 108.651 70.2712 108.682 70.2923 108.704C70.3028 108.714 70.3134 108.725 70.3134 108.735C70.3555 108.788 70.3977 108.841 70.4504 108.893C70.4715 108.883 70.4926 108.872 70.5137 108.862C70.4504 108.788 70.3977 108.725 70.3555 108.672ZM72.0109 104.054C71.6735 103.463 71.3045 103.158 71.2939 103.158L71.2834 103.147L68.5947 102.63L68.5737 102.662C68.5526 102.683 68.289 103.063 68.1414 103.516C68.0676 103.737 68.0148 103.991 68.0359 104.212C68.057 104.507 68.1941 104.792 68.3206 105.055C68.4682 105.372 68.6264 105.709 68.6264 106.089C68.6264 106.184 68.6158 106.289 68.5842 106.394C68.5842 106.394 68.5842 106.394 68.5842 106.405C68.5631 106.468 68.5526 106.532 68.542 106.595C68.5315 106.637 68.5315 106.679 68.5315 106.721C68.5315 106.795 68.5315 106.858 68.5315 106.922C68.5631 107.343 68.7951 107.67 69.0692 107.913L69.0798 107.923C69.0903 107.934 69.1114 107.944 69.1219 107.965C69.1325 107.976 69.1536 107.987 69.1641 108.008C69.3012 108.113 69.4382 108.208 69.5753 108.292C69.5964 108.303 69.6069 108.313 69.628 108.324C69.6491 108.335 69.6597 108.345 69.6808 108.356C69.6913 108.366 69.7018 108.377 69.7229 108.377C69.744 108.387 69.7651 108.398 69.7862 108.408C69.8073 108.419 69.8284 108.429 69.8389 108.44C70.0392 108.556 70.2079 108.651 70.2607 108.725C70.2923 108.777 70.3345 108.82 70.3766 108.862C70.3977 108.883 70.4083 108.893 70.4294 108.914C70.4504 108.935 70.461 108.946 70.4821 108.957C70.6824 109.104 70.9249 109.178 71.1674 109.136C71.178 109.136 71.1885 109.136 71.199 109.125C71.5786 109.041 71.8527 108.714 72.0425 108.334C72.2112 108.008 72.3272 107.639 72.3905 107.364C72.4326 107.206 72.4643 107.048 72.4854 106.901C72.6962 105.646 72.3799 104.686 72.0109 104.054ZM72.3905 106.795C72.3694 106.974 72.3272 107.164 72.285 107.354C72.2112 107.628 72.1374 107.86 72.0531 108.06C71.7473 108.798 71.3677 108.988 71.1463 109.03C70.9354 109.073 70.7562 109.009 70.6086 108.914C70.5875 108.904 70.577 108.893 70.5559 108.872C70.5348 108.862 70.5242 108.841 70.5032 108.83C70.4399 108.777 70.3977 108.725 70.3555 108.661C70.2923 108.566 70.1447 108.472 69.9443 108.366C69.9338 108.356 69.9127 108.345 69.9022 108.334C69.9022 108.334 69.9022 108.334 69.8916 108.334C69.8705 108.324 69.8495 108.313 69.8389 108.303C69.7967 108.282 69.7651 108.261 69.7229 108.24C69.7018 108.229 69.6913 108.219 69.6702 108.208C69.6491 108.197 69.6386 108.187 69.6175 108.176C69.491 108.103 69.3644 108.018 69.2485 107.923C69.2274 107.913 69.2168 107.902 69.2063 107.881C69.1957 107.871 69.1852 107.86 69.1641 107.849C68.9005 107.618 68.6791 107.312 68.6475 106.911C68.6369 106.763 68.6475 106.605 68.6896 106.437V106.426C68.7213 106.31 68.7318 106.205 68.7318 106.099C68.7424 105.699 68.5737 105.351 68.4155 105.013C68.289 104.739 68.1625 104.486 68.1414 104.212C68.1203 104.012 68.173 103.79 68.2363 103.579C68.3628 103.2 68.5737 102.873 68.6369 102.767L71.2201 103.263C71.2834 103.316 71.5786 103.59 71.8633 104.075C72.2323 104.665 72.5592 105.572 72.3905 106.795ZM70.3555 108.672C70.2923 108.577 70.1447 108.482 69.9443 108.377C69.9338 108.366 69.9127 108.356 69.9022 108.345C69.9022 108.345 69.9022 108.345 69.8916 108.345C69.8705 108.334 69.8495 108.324 69.8389 108.313C69.7967 108.292 69.7651 108.271 69.7229 108.25C69.7018 108.24 69.6913 108.229 69.6702 108.219C69.6491 108.208 69.6386 108.197 69.6175 108.187C69.491 108.113 69.3644 108.029 69.2485 107.934C69.2274 107.923 69.2168 107.913 69.2063 107.892C69.1957 107.881 69.1852 107.871 69.1641 107.86C68.9005 107.628 68.6791 107.322 68.6475 106.922C68.6369 106.774 68.6475 106.616 68.6896 106.447V106.458C68.6686 106.51 68.6369 106.574 68.5947 106.626C68.5842 106.732 68.5737 106.827 68.5842 106.922C68.5948 107.027 68.6158 107.133 68.6475 107.227C68.658 107.249 68.658 107.27 68.6686 107.28C68.6791 107.301 68.6896 107.322 68.7002 107.343C68.7107 107.364 68.7213 107.386 68.7318 107.407C68.7318 107.407 68.7318 107.407 68.7318 107.417C68.7424 107.438 68.7529 107.459 68.7635 107.47C68.7845 107.502 68.8056 107.544 68.8267 107.575C68.8373 107.586 68.8478 107.596 68.8583 107.618C68.9321 107.723 69.027 107.818 69.1219 107.902C69.1219 107.902 69.1219 107.902 69.1325 107.902C69.143 107.913 69.1536 107.923 69.1641 107.934C69.1641 107.934 69.1747 107.934 69.1747 107.944C69.1957 107.955 69.2063 107.965 69.2168 107.987C69.2168 107.987 69.2168 107.987 69.2274 107.987C69.2485 108.008 69.2695 108.029 69.3012 108.039C69.3223 108.06 69.3539 108.081 69.375 108.092C69.3961 108.113 69.4277 108.124 69.4488 108.145C69.5015 108.176 69.5542 108.219 69.6069 108.25C69.628 108.261 69.6386 108.271 69.6597 108.282C69.6808 108.292 69.6913 108.303 69.7124 108.313C69.7018 108.335 69.7018 108.356 69.6913 108.377C69.7018 108.387 69.7124 108.398 69.7335 108.398C69.7546 108.387 69.7756 108.377 69.7967 108.366C69.8178 108.377 69.8389 108.387 69.86 108.398C69.8811 108.408 69.8916 108.419 69.9127 108.429C69.9443 108.45 69.976 108.461 69.9971 108.482C70.0287 108.503 70.0603 108.514 70.0814 108.535C70.1236 108.556 70.1552 108.588 70.1868 108.609C70.1974 108.619 70.2079 108.619 70.2079 108.63C70.2396 108.651 70.2712 108.682 70.2923 108.704C70.3028 108.714 70.3134 108.725 70.3134 108.735C70.3555 108.788 70.3977 108.841 70.4504 108.893C70.4715 108.883 70.4926 108.872 70.5137 108.862C70.4504 108.788 70.3977 108.725 70.3555 108.672Z" fill="#060633"/>
<path d="M71.5729 106.921C71.5729 106.921 71.0562 109.072 70.2444 108.946C69.4325 108.83 69.5907 108.355 69.7488 108.081L71.5729 106.921Z" fill="white"/>
<path d="M70.4209 108.999C70.3577 109.009 70.3049 109.02 70.2417 109.009C69.9043 108.956 69.6934 108.84 69.6091 108.661C69.5353 108.492 69.5669 108.292 69.704 108.05C69.725 108.018 69.7567 108.007 69.7883 108.029C69.8199 108.05 69.8305 108.081 69.8094 108.113C69.6934 108.324 69.6618 108.492 69.725 108.608C69.7883 108.746 69.9781 108.84 70.2733 108.883C70.8954 108.977 71.3909 107.48 71.528 106.9C71.5386 106.869 71.5702 106.848 71.6018 106.858C71.6334 106.869 71.6545 106.9 71.644 106.932C71.6018 107.016 71.159 108.83 70.4209 108.999Z" fill="#060633"/>
<path d="M70.7146 106.668C70.7146 106.668 70.3772 108.461 69.4283 108.535C68.9433 108.577 68.627 108.261 68.627 108.261L70.7146 106.668Z" fill="white"/>
<path d="M69.5554 108.577C69.5132 108.587 69.4816 108.587 69.4394 108.598C68.9333 108.64 68.6064 108.313 68.5959 108.303C68.5748 108.282 68.5748 108.239 68.5959 108.218C68.617 108.197 68.6592 108.197 68.6802 108.218C68.6802 108.218 68.986 108.514 69.4394 108.482C70.3356 108.408 70.6625 106.679 70.673 106.668C70.6835 106.637 70.7046 106.616 70.7468 106.616C70.7784 106.626 70.7995 106.658 70.789 106.69C70.789 106.711 70.7046 107.153 70.4938 107.607C70.2407 108.166 69.9139 108.493 69.5554 108.577Z" fill="#060633"/>
<path d="M69.8426 106.489C69.7794 107.048 69.1046 108.513 68.4298 108.25C67.755 107.986 67.9764 107.522 68.0924 107.29C68.2294 107.037 68.5247 106.689 68.6407 106.426L69.8426 106.489Z" fill="white"/>
<path d="M68.7131 108.323C68.6077 108.345 68.5128 108.345 68.4073 108.302C68.1543 108.207 67.9961 108.07 67.9329 107.891C67.838 107.638 67.975 107.385 68.0383 107.259C68.1016 107.143 68.1859 107.016 68.2808 106.879C68.3968 106.71 68.5128 106.542 68.576 106.394C68.5866 106.362 68.6287 106.352 68.6498 106.362C68.6815 106.373 68.692 106.415 68.6815 106.447C68.6182 106.594 68.4917 106.774 68.3757 106.953C68.2808 107.09 68.1965 107.216 68.1332 107.322C68.0805 107.427 67.954 107.659 68.0278 107.86C68.0805 107.997 68.2175 108.113 68.4284 108.197C68.5549 108.25 68.7026 108.229 68.8502 108.134C69.3352 107.828 69.7253 106.879 69.7675 106.489C69.7675 106.457 69.7991 106.436 69.8307 106.436C69.8624 106.436 69.8834 106.468 69.8834 106.499C69.8413 106.921 69.4406 107.912 68.9134 108.239C68.8502 108.271 68.7764 108.302 68.7131 108.323Z" fill="#060633"/>
<path d="M84.1066 73.4766C84.1066 73.4766 70.5791 73.3079 67.3633 103.558C67.3633 103.558 68.6391 105.329 72.9725 104.602C72.9725 104.602 76.8526 87.6895 81.4918 84.4947C85.045 82.0591 84.1066 73.4766 84.1066 73.4766Z" fill="#1C2436"/>
<path d="M83.9056 72.0846C83.9056 72.0846 85.1075 73.4553 85.8561 73.5924C86.7523 73.7611 86.1092 74.0669 85.8561 75.079C85.6031 76.0912 85.5398 76.5868 85.0864 76.6079C84.6225 76.629 81.5016 75.2267 81.4805 74.2039C81.47 73.1917 83.5682 71.6734 83.9056 72.0846Z" fill="#6E6E7F"/>
<path d="M86.1706 111.666L85.9492 111.645C86.2761 108.492 88.427 106.373 88.4481 106.352L88.6062 106.521C88.5851 106.531 86.4869 108.598 86.1706 111.666Z" fill="#6685B2"/>
</g>
<defs>
<clipPath id="clip0_1074_7927">
<rect width="294" height="175.542" fill="white" transform="translate(0 0.20874)"/>
</clipPath>
</defs>
</svg>
