<svg width="35" height="35" viewBox="0 0 35 35" fill="none" xmlns="http://www.w3.org/2000/svg">
<g clip-path="url(#clip0_1002_7024)">
<path d="M11.6687 1.66936C11.6906 0.765194 12.5075 -0.0223056 13.4118 -0.000430596C18.2472 -0.000430596 23.0899 -0.000430596 27.9325 -0.000430596C28.1295 -0.00772226 28.3191 0.0579027 28.4504 0.203736C30.4852 2.23082 32.5127 4.26519 34.5402 6.29228C34.7517 6.50374 35.0361 6.72978 34.9996 7.06519C34.9996 15.7933 34.9996 24.5214 34.9996 33.2496C35.0215 34.1829 34.1828 35.0141 33.2566 34.9923C26.6416 34.9923 20.0267 34.9923 13.4118 34.9923C12.5075 35.0069 11.6906 34.2267 11.6687 33.3225C11.6469 32.1194 11.6833 30.9089 11.6541 29.7058C9.40785 29.6183 7.19801 28.8746 5.34554 27.6058C3.44931 26.3152 1.93233 24.485 1.01339 22.385C0.0361033 20.1537 -0.241038 17.6308 0.21114 15.2464C0.663317 12.8037 1.88857 10.5142 3.66811 8.77874C5.77584 6.67874 8.67853 5.40269 11.6469 5.29332C11.6833 4.0829 11.6469 2.87978 11.6687 1.66936ZM13.0763 1.26832C12.9013 1.38499 12.8138 1.60374 12.8284 1.81519C12.8284 6.84644 12.8284 11.885 12.8284 16.9162C16.5041 16.9162 20.1726 16.9162 23.8484 16.9162C24.1765 16.8798 24.5047 17.1569 24.4974 17.4923C24.4974 19.3881 24.0526 21.2767 23.1993 22.9683C22.2293 24.9006 20.7415 26.5704 18.9255 27.7444C17.1167 28.9256 14.9944 29.6183 12.8356 29.7058C12.8211 30.8871 12.8284 32.0683 12.8284 33.2496C12.8211 33.585 13.1493 33.8621 13.4774 33.8256C19.6329 33.8256 25.7883 33.8256 31.9438 33.8256C32.4033 33.8183 32.8627 33.8402 33.3222 33.8183C33.6358 33.7892 33.8619 33.4829 33.8327 33.1767C33.8327 24.6454 33.8327 16.1142 33.8327 7.57561C33.2493 7.57561 32.6658 7.57561 32.0824 7.57561C31.0832 7.56832 30.084 7.5829 29.0849 7.56832C28.2097 7.54644 27.4366 6.78082 27.4147 5.89853C27.4074 4.31624 27.4147 2.73394 27.4074 1.15165C22.8346 1.15165 18.2691 1.15165 13.6962 1.15165C13.492 1.17353 13.2586 1.13707 13.0763 1.26832ZM28.5889 2.01207C28.5743 3.21519 28.5889 4.41103 28.5816 5.61415C28.5816 5.81832 28.5743 6.04436 28.7202 6.20478C28.8442 6.3579 29.0411 6.42353 29.2307 6.41624C30.4779 6.41624 31.7323 6.42353 32.9794 6.40894C32.4179 5.79644 31.8125 5.22769 31.2291 4.63707C30.3466 3.76936 29.4933 2.86519 28.5889 2.01207ZM7.89086 7.31311C5.61539 8.2829 3.68999 10.0402 2.50849 12.2131C1.51662 14.0214 1.05715 16.1069 1.18113 18.1631C1.327 20.6423 2.34075 23.0558 4.01089 24.8933C4.59435 24.3537 5.14133 23.7704 5.7102 23.2162C7.69395 21.2329 9.6777 19.2496 11.6614 17.2735C11.6687 13.6642 11.6614 10.0621 11.6687 6.45269C10.3633 6.48915 9.08695 6.80999 7.89086 7.31311ZM12.4856 18.1048C12.2303 18.3089 12.0188 18.5642 11.7854 18.7902C9.54642 21.0287 7.3147 23.2673 5.07569 25.4985C5.00276 25.5714 4.93712 25.6589 4.86419 25.7392C6.80418 27.5183 9.40785 28.5392 12.0261 28.5902C13.9953 28.6412 15.9717 28.1381 17.6856 27.1756C19.735 26.0308 21.3906 24.2152 22.3533 22.0714C22.9002 20.8173 23.2722 19.4683 23.2941 18.0902C19.9319 18.0829 16.5625 18.0902 13.2003 18.0902C12.9596 18.0829 12.719 18.061 12.4856 18.1048Z" fill="#1C2436"/>
<path d="M14.3809 2.95315C14.6143 2.88753 14.855 2.93128 15.0884 2.93128C17.4514 3.02607 19.7779 3.82815 21.6887 5.20628C23.7454 6.6719 25.328 8.78649 26.1448 11.1709C26.5897 12.4542 26.8158 13.8177 26.8158 15.174C26.8231 15.5094 26.4949 15.7865 26.1667 15.75C22.3232 15.75 18.4797 15.75 14.6289 15.75C14.3007 15.7865 13.9725 15.5094 13.9798 15.174C13.9725 11.3021 13.9798 7.43753 13.9798 3.56565C13.9725 3.30315 14.1257 3.03336 14.3809 2.95315ZM15.1613 4.11982C15.1613 7.60524 15.1613 11.0979 15.1613 14.5834C18.0786 14.5834 20.9886 14.5907 23.9058 14.5834C24.4747 14.5907 25.0509 14.5907 25.6197 14.5907C25.5103 11.1854 23.6214 7.92607 20.8135 6.02294C19.4862 5.13336 17.9692 4.4844 16.3793 4.25836C15.9854 4.15628 15.5697 4.11982 15.1613 4.11982Z" fill="#1C2436"/>
<path d="M27.998 9.91675C29.3619 9.91675 30.7184 9.91675 32.0822 9.91675C32.2791 9.91675 32.4688 9.91675 32.6657 9.91675C32.6657 10.3032 32.6657 10.697 32.6657 11.0834C32.4688 11.0834 32.2791 11.0834 32.0822 11.0834C30.7184 11.0834 29.3619 11.0834 27.998 11.0834C27.998 10.697 27.998 10.3032 27.998 9.91675Z" fill="#1C2436"/>
<path d="M27.998 13.4167C29.3619 13.4167 30.7184 13.4167 32.0822 13.4167C32.2791 13.4167 32.4688 13.4167 32.6657 13.4167C32.6657 13.8032 32.6657 14.197 32.6657 14.5834C32.4688 14.5834 32.2791 14.5834 32.0822 14.5834C30.7184 14.5834 29.3619 14.5834 27.998 14.5834C27.998 14.197 27.998 13.8032 27.998 13.4167Z" fill="#1C2436"/>
<path d="M27.998 16.9167C29.3619 16.9167 30.7184 16.9167 32.0822 16.9167C32.2791 16.9167 32.4688 16.9167 32.6657 16.9167C32.6657 17.3032 32.6657 17.697 32.6657 18.0834C32.4688 18.0834 32.2791 18.0834 32.0822 18.0834C30.7184 18.0834 29.3619 18.0834 27.998 18.0834C27.998 17.697 27.998 17.3032 27.998 16.9167Z" fill="#1C2436"/>
<path d="M26.5467 22.2395C27.7428 22.0353 29.0045 22.2686 30.0548 22.8811C30.9008 23.3697 31.5936 24.1061 32.0604 24.9592C32.3084 25.4551 32.498 25.9874 32.5928 26.5342C32.7897 27.6645 32.5855 28.8457 32.0677 29.8665C31.5936 30.7342 30.8862 31.4853 30.0183 31.9738C28.9389 32.5863 27.648 32.8051 26.4301 32.5645C25.2194 32.3384 24.1035 31.6603 23.3304 30.6978C22.5209 29.6988 22.1052 28.3936 22.1781 27.1103C22.2438 25.9728 22.6886 24.8645 23.4253 24.004C24.2129 23.078 25.3434 22.4363 26.5467 22.2395ZM24.4536 24.602C23.6878 25.404 23.2721 26.527 23.3377 27.6353C23.3888 28.6488 23.841 29.6332 24.563 30.3332C25.3142 31.0624 26.3498 31.4999 27.3928 31.4853C28.5232 31.5072 29.6391 31.0113 30.4048 30.1801C31.0466 29.4947 31.4405 28.5759 31.4842 27.6353C31.5572 26.5124 31.1269 25.3676 30.3319 24.5655C29.5734 23.778 28.4867 23.3186 27.3928 23.3405C26.2988 23.3259 25.2048 23.8072 24.4536 24.602Z" fill="#1C2436"/>
<path d="M29.2806 25.2874C29.638 25.4696 29.8714 25.8124 30.1485 26.0894C29.9808 26.2571 29.8203 26.4249 29.6526 26.5926C28.7555 27.4749 27.8731 28.3644 26.9833 29.254C26.8228 29.4071 26.6843 29.5894 26.4874 29.6988C26.254 29.8155 25.9695 29.7353 25.7945 29.5457C25.2256 28.9769 24.6568 28.4082 24.0879 27.8394C24.3504 27.5551 24.6276 27.2853 24.912 27.0155C25.3569 27.453 25.7945 27.9051 26.2467 28.3426C27.2604 27.3217 28.2961 26.3228 29.2806 25.2874Z" fill="#1C2436"/>
<path d="M13.0768 1.2688C13.2591 1.13755 13.4925 1.16672 13.704 1.15942C18.2768 1.16672 22.8424 1.15942 27.4152 1.15942C27.4225 2.74172 27.4079 4.32401 27.4225 5.9063C27.4444 6.7813 28.2175 7.55422 29.0926 7.57609C30.0918 7.59067 31.091 7.57609 32.0901 7.58338C32.0901 8.36359 32.0901 9.13651 32.0901 9.91671C30.7263 9.91671 29.3698 9.91671 28.006 9.91671C28.006 10.3032 28.006 10.6969 28.006 11.0834C29.3698 11.0834 30.7263 11.0834 32.0901 11.0834C32.0901 11.8636 32.0901 12.6365 32.0901 13.4167C30.7263 13.4167 29.3698 13.4167 28.006 13.4167C28.006 13.8032 28.006 14.1969 28.006 14.5834C29.3698 14.5834 30.7263 14.5834 32.0901 14.5834C32.0901 15.3636 32.0901 16.1365 32.0901 16.9167C30.7263 16.9167 29.3698 16.9167 28.006 16.9167C28.006 17.3032 28.006 17.6969 28.006 18.0834C29.3698 18.0834 30.7263 18.0834 32.0901 18.0834C32.0901 20.0303 32.0901 21.9698 32.0901 23.9167C32.0974 24.2667 32.0828 24.6167 32.0683 24.9594C31.6015 24.1063 30.9086 23.3698 30.0626 22.8813C29.0197 22.2688 27.7507 22.0355 26.5546 22.2396C25.3439 22.4365 24.2208 23.0782 23.4258 24.0115C22.6819 24.8719 22.2443 25.9875 22.1787 27.1178C22.0985 28.4011 22.5215 29.7063 23.331 30.7053C24.0968 31.6678 25.22 32.3386 26.4306 32.5719C27.6486 32.8125 28.9395 32.5938 30.0189 31.9813C30.8868 31.4928 31.5942 30.7417 32.0683 29.874C32.112 30.6834 32.0828 31.4928 32.0901 32.3021C32.0828 32.8125 32.1558 33.3448 31.9589 33.8334C25.8034 33.8334 19.648 33.8334 13.4925 33.8334C13.1643 33.8698 12.8361 33.5928 12.8434 33.2573C12.8434 32.0761 12.8288 30.8948 12.8507 29.7136C15.0095 29.6261 17.1318 28.9261 18.9405 27.7521C20.7492 26.5782 22.2443 24.9084 23.2143 22.9761C24.0676 21.2844 24.5125 19.3886 24.5125 17.5C24.5198 17.1646 24.1989 16.8875 23.8634 16.924C20.1877 16.924 16.5192 16.924 12.8434 16.924C12.8434 11.8928 12.8434 6.86151 12.8434 1.82297C12.8142 1.61151 12.9018 1.39276 13.0768 1.2688ZM14.3823 2.95317C14.127 3.03338 13.9739 3.31047 13.9957 3.57297C13.9957 7.44484 13.9884 11.3094 13.9957 15.1813C13.9884 15.5167 14.3166 15.7938 14.6448 15.7573C18.4883 15.7573 22.3319 15.7573 26.1827 15.7573C26.5108 15.7938 26.839 15.5167 26.8317 15.1813C26.8317 13.825 26.6057 12.4615 26.1608 11.1782C25.3366 8.7938 23.754 6.67922 21.7046 5.21359C19.7865 3.83547 17.46 3.03338 15.1043 2.93859C14.8563 2.9313 14.6157 2.88755 14.3823 2.95317Z" fill="#4DF189"/>
<path d="M28.5885 2.01245C29.4929 2.86558 30.3462 3.76245 31.2359 4.63745C31.8194 5.22808 32.4247 5.79683 32.9863 6.40933C31.7392 6.42391 30.4847 6.40933 29.2376 6.41662C29.048 6.42391 28.8438 6.36558 28.7271 6.20516C28.5812 6.04474 28.5885 5.8187 28.5885 5.61453C28.5885 4.4187 28.5739 3.21558 28.5885 2.01245Z" fill="#D6FFD8"/>
<path d="M15.1621 4.11987C15.5705 4.12716 15.9862 4.15633 16.3874 4.25112C18.3711 5.01675 20.1579 6.31466 21.4561 7.99904C22.4042 9.22404 23.119 10.6386 23.5128 12.1334C23.7316 12.9282 23.841 13.7522 23.9066 14.5761C20.9894 14.5834 18.0794 14.5761 15.1621 14.5761C15.1621 11.0907 15.1621 7.60529 15.1621 4.11987Z" fill="#FFF7D6"/>
<path d="M16.3887 4.25098C17.9786 4.47702 19.4956 5.11868 20.8229 6.01556C23.6308 7.91868 25.5124 11.1781 25.6291 14.5833C25.0603 14.5833 24.4841 14.5906 23.9152 14.576C23.8496 13.752 23.7402 12.9281 23.5214 12.1333C23.1203 10.6312 22.4055 9.22389 21.4647 7.99889C20.1592 6.31452 18.3724 5.0166 16.3887 4.25098Z" fill="#FFF7D6"/>
<path d="M7.89144 7.31351C9.08023 6.81038 10.3638 6.48955 11.662 6.4458C11.662 10.0552 11.6693 13.6573 11.6547 17.2666C9.67098 19.2427 7.68723 21.2333 5.70349 23.2093C5.14191 23.7708 4.59492 24.3541 4.01147 24.8864C2.34133 23.0562 1.32757 20.6354 1.18171 18.1562C1.05773 16.1 1.52449 14.0145 2.50907 12.2062C3.69057 10.0406 5.61597 8.2833 7.89144 7.31351Z" fill="#E7D6FF"/>
<path d="M32.0819 7.58325C32.6654 7.58325 33.2488 7.58325 33.8323 7.58325C33.8323 16.1145 33.8323 24.6458 33.8323 33.1843C33.8615 33.4905 33.6354 33.8041 33.3218 33.826C32.8623 33.8478 32.4028 33.826 31.9434 33.8333C32.1403 33.3447 32.0673 32.8124 32.0746 32.302C32.0673 31.4926 32.0965 30.6833 32.0528 29.8739C32.5706 28.853 32.7821 27.6718 32.5779 26.5416C32.4903 25.9947 32.2934 25.4624 32.0455 24.9666C32.06 24.6166 32.0746 24.2666 32.0673 23.9239C32.0673 21.977 32.0673 20.0374 32.0673 18.0905C32.2643 18.0905 32.4539 18.0905 32.6508 18.0905C32.6508 17.7041 32.6508 17.3176 32.6508 16.9239C32.4539 16.9239 32.2643 16.9239 32.0673 16.9239C32.0673 16.1437 32.0673 15.3708 32.0673 14.5905C32.2643 14.5905 32.4539 14.5905 32.6508 14.5905C32.6508 14.2041 32.6508 13.8103 32.6508 13.4239C32.4539 13.4239 32.2643 13.4239 32.0673 13.4239C32.0673 12.6437 32.0673 11.8708 32.0673 11.0905C32.2643 11.0905 32.4539 11.0905 32.6508 11.0905C32.6508 10.7041 32.6508 10.3103 32.6508 9.92388C32.4539 9.92388 32.2643 9.92388 32.0673 9.92388C32.0819 9.13638 32.0819 8.36346 32.0819 7.58325Z" fill="#4DF189"/>
<path d="M12.4861 18.1051C12.7195 18.0687 12.9602 18.0905 13.1935 18.0833C16.5557 18.0833 19.9251 18.0833 23.2873 18.0833C23.2727 19.4541 22.9008 20.8103 22.3465 22.0645C21.3911 24.2083 19.7282 26.0239 17.6788 27.1687C15.9649 28.1312 13.9885 28.6343 12.0193 28.5833C9.39378 28.5322 6.79012 27.5114 4.85742 25.7322C4.92306 25.652 4.99599 25.5718 5.06892 25.4916C7.30793 23.2603 9.54694 21.0218 11.7787 18.7833C12.0193 18.5645 12.2308 18.3093 12.4861 18.1051Z" fill="#FFEFEB"/>
<path d="M24.4546 24.6021C25.2058 23.8073 26.2998 23.3261 27.3938 23.3407C27.8606 23.6469 28.3054 23.9896 28.6628 24.4198C28.8962 24.6896 29.0494 25.0104 29.2827 25.2802C28.2982 26.3229 27.2625 27.3219 26.2488 28.3282C25.7966 27.8979 25.359 27.4386 24.9141 27.0011C24.6297 27.2636 24.3598 27.5407 24.09 27.825C24.6589 28.3938 25.2277 28.9625 25.7966 29.5313C25.9643 29.7209 26.2561 29.8011 26.4894 29.6844C26.6864 29.575 26.8249 29.3927 26.9854 29.2396C27.8751 28.35 28.7576 27.4604 29.6547 26.5782C29.9172 27.7959 29.589 29.1011 28.8816 30.1146C28.4951 30.6761 27.9627 31.1136 27.3938 31.4782C26.3436 31.4927 25.3079 31.0479 24.564 30.3261C23.8347 29.6188 23.3898 28.6417 23.3388 27.6282C23.2731 26.5344 23.6889 25.4042 24.4546 24.6021Z" fill="#EBFA9E"/>
<path d="M27.3926 23.3406C28.4866 23.3187 29.5732 23.7854 30.3317 24.5656C31.1194 25.3677 31.557 26.5125 31.4841 27.6354C31.433 28.576 31.0465 29.4947 30.4047 30.1802C29.6389 31.0114 28.523 31.5 27.3926 31.4854C27.9614 31.1135 28.4938 30.6833 28.8804 30.1218C29.5951 29.1083 29.9233 27.8031 29.6535 26.5854C29.8212 26.4177 29.9817 26.25 30.1494 26.0822C29.8723 25.8052 29.6316 25.4697 29.2815 25.2802C29.0481 25.0104 28.895 24.6895 28.6616 24.4197C28.3042 23.9895 27.8593 23.6468 27.3926 23.3406Z" fill="#EBFA9E"/>
</g>
<defs>
<clipPath id="clip0_1002_7024">
<rect width="35" height="35" fill="white"/>
</clipPath>
</defs>
</svg>
