<svg width="39" height="48" viewBox="0 0 39 48" fill="none" xmlns="http://www.w3.org/2000/svg">
<path d="M18.6797 3.2002H19.7279C22.0029 3.24082 24.2779 3.40332 26.5204 3.7852C28.3322 4.09395 30.1279 4.51645 31.8341 5.20707C32.866 5.64582 33.906 6.1577 34.6941 6.97832C35.1897 7.49832 35.5635 8.2377 35.3766 8.96895C35.1491 9.84645 34.4341 10.4721 33.711 10.9596C32.4191 11.8046 30.9322 12.3002 29.4535 12.7227C25.6672 13.7139 21.7266 13.9983 17.8185 13.9089C15.2347 13.8358 12.6591 13.5677 10.1322 13.0152C8.49098 12.6252 6.85786 12.1539 5.37098 11.3496C4.46098 10.8458 3.5266 10.2121 3.12035 9.2127C2.85223 8.60332 3.02285 7.89645 3.3966 7.37645C3.9816 6.55582 4.8591 6.01957 5.74473 5.5727C7.49973 4.7277 9.40911 4.2402 11.3185 3.87457C13.7397 3.43582 16.2097 3.24895 18.6797 3.2002Z" fill="white"/>
<path d="M2.56025 12.0564C2.56025 11.4633 2.73088 10.8864 3.01525 10.3745C3.17775 11.3658 3.974 12.0808 4.77025 12.5926C6.054 13.4133 7.50838 13.917 8.96275 14.3151C10.8315 14.8108 12.7409 15.1195 14.6665 15.3064C18.6559 15.672 22.694 15.5826 26.6509 14.9245C28.3246 14.632 29.9903 14.2339 31.5828 13.6245C32.6471 13.1939 33.7115 12.682 34.5565 11.8858C34.979 11.4795 35.3121 10.9595 35.4015 10.3745C35.6777 10.8945 35.8646 11.4714 35.8565 12.0645C35.8565 13.5514 35.8565 15.0464 35.8565 16.5414C35.8565 17.0289 35.8727 17.5326 35.694 18.0039C35.3771 19.0439 34.589 19.8564 33.7521 20.5064C32.1596 21.7008 30.2746 22.4239 28.3734 22.9764C25.3103 23.8295 22.1253 24.1545 18.9565 24.1464C15.4303 24.1058 11.8715 23.667 8.524 22.497C7.11025 21.9851 5.72088 21.3351 4.5265 20.4089C3.52713 19.6126 2.62525 18.5158 2.56025 17.1914C2.55213 15.4689 2.56025 13.7626 2.56025 12.0564Z" fill="white"/>
<path d="M31.7453 23.4396C33.1428 22.749 34.5159 21.839 35.3528 20.4902C35.5315 20.8315 35.7021 21.1809 35.7753 21.5546C35.8728 21.9852 35.8484 22.424 35.8484 22.8546C35.8484 24.2602 35.8484 25.674 35.8484 27.0796C35.8484 27.4371 35.824 27.7946 35.7021 28.1359C35.3771 29.2246 34.5484 30.0777 33.6628 30.744C32.5415 31.5809 31.2578 32.1659 29.9578 32.6534C26.9759 33.7096 23.8234 34.1727 20.6709 34.3109C17.0065 34.4327 13.3096 34.1077 9.78338 33.0921C7.874 32.5152 5.98088 31.7596 4.41275 30.5002C3.454 29.7202 2.60088 28.6234 2.56025 27.3315C2.55213 25.6496 2.56025 23.9677 2.56025 22.294C2.544 21.6602 2.74713 21.0427 3.05588 20.4984C3.78713 21.6846 4.94088 22.5215 6.14338 23.1796C8.849 24.6096 11.8796 25.284 14.894 25.6415C18.5584 26.0396 22.2878 25.9502 25.9196 25.284C27.9184 24.894 29.9009 24.3415 31.7453 23.4396Z" fill="white"/>
<path d="M2.56055 32.6857C2.56055 32.0763 2.75555 31.4832 3.05617 30.9551C3.91742 32.3526 5.35555 33.2626 6.8018 33.9695C8.99555 35.0013 11.3762 35.5863 13.7649 35.952C18.2012 36.5776 22.7593 36.472 27.1387 35.4807C29.0074 35.042 30.8518 34.4407 32.5255 33.4901C33.6305 32.8563 34.6787 32.0601 35.3531 30.9551C35.6618 31.4751 35.8568 32.0763 35.8568 32.6857C35.8568 34.3676 35.8568 36.0495 35.8568 37.7313C35.8405 38.942 35.093 40.0145 34.2074 40.7782C32.948 41.8832 31.4043 42.5901 29.8524 43.1588C26.5618 44.3045 23.0599 44.7351 19.5905 44.8001H18.8512C15.3412 44.7432 11.7987 44.2963 8.47555 43.1263C6.85055 42.5251 5.2418 41.7613 3.96617 40.5507C3.20242 39.8113 2.58492 38.8282 2.5768 37.7313C2.56055 36.0495 2.56055 34.3676 2.56055 32.6857Z" fill="white"/>
</svg>
