<svg width="153" height="64" viewBox="0 0 153 64" fill="none" xmlns="http://www.w3.org/2000/svg">
<g clip-path="url(#clip0_716_2869)">
<path d="M0 43.6448H6.66525C7.99329 43.6448 9.23362 43.911 10.3863 44.4433C11.5389 44.9757 12.5412 45.6982 13.4057 46.5982C14.2576 47.4982 14.9342 48.5503 15.4353 49.7545C15.9365 50.9586 16.187 52.2262 16.187 53.5572C16.187 54.8881 15.9365 56.1176 15.4353 57.2711C14.9342 58.4246 14.2576 59.426 13.4057 60.2626C12.5537 61.1119 11.5389 61.771 10.3863 62.2527C9.23362 62.7343 7.99329 62.9752 6.66525 62.9752H0V43.6448ZM6.66525 59.6668C7.54225 59.6668 8.35662 59.5147 9.10834 59.2105C9.86006 58.9063 10.5241 58.488 11.1004 57.9429C11.6767 57.3979 12.1277 56.7514 12.4535 56.0036C12.7792 55.2557 12.9421 54.4445 12.9421 53.5572C12.9421 52.6952 12.7792 51.8586 12.4535 51.06C12.1277 50.2615 11.6767 49.5516 11.1004 48.9432C10.5241 48.3348 9.86006 47.8531 9.10834 47.4982C8.35662 47.1433 7.54225 46.9658 6.66525 46.9658H3.28251V59.6668H6.66525Z" fill="#1C2436"/>
<path d="M20.7345 56.2695C20.7471 56.8399 20.8849 57.3723 21.1229 57.8666C21.361 58.361 21.6742 58.792 22.05 59.1596C22.4259 59.5272 22.8769 59.8187 23.3906 60.0342C23.9043 60.2497 24.443 60.3511 25.0068 60.3511C25.959 60.3511 26.7608 60.1102 27.4374 59.6412C28.1139 59.1722 28.6025 58.5384 28.9158 57.7526H32.3862C32.073 58.8046 31.6595 59.6919 31.1584 60.4398C30.6447 61.175 30.0684 61.7707 29.4044 62.2397C28.7529 62.6961 28.0513 63.0383 27.2996 63.2538C26.5478 63.4693 25.7836 63.5707 25.0068 63.5707C23.9669 63.5707 23.0022 63.3679 22.1002 62.9749C21.1981 62.582 20.4088 62.0496 19.7448 61.3778C19.0808 60.706 18.542 59.9074 18.1662 58.9948C17.7778 58.0821 17.5898 57.1061 17.5898 56.054C17.5898 55.0019 17.7903 54.0259 18.1662 53.1133C18.5545 52.2006 19.0808 51.4147 19.7448 50.7302C20.4088 50.0584 21.1981 49.526 22.1002 49.1204C23.0022 48.7275 23.9669 48.5247 25.0068 48.5247C26.1594 48.5247 27.1868 48.7401 28.0889 49.1584C29.0035 49.5894 29.7802 50.1471 30.4067 50.857C31.0456 51.5668 31.5342 52.3907 31.8976 53.3287C32.2484 54.2667 32.4363 55.2428 32.4614 56.2568L20.7345 56.2695ZM28.9032 54.1146C28.6276 53.3414 28.1515 52.6823 27.4499 52.1372C26.7483 51.5922 25.9465 51.326 25.0193 51.326C24.0922 51.326 23.2779 51.5922 22.5888 52.1372C21.8997 52.6823 21.4111 53.3414 21.1355 54.1146H28.9032Z" fill="#1C2436"/>
<path d="M34.9422 49.1584H38.1621V49.9317C38.5755 49.4373 39.0266 49.0697 39.5026 48.8542C39.9787 48.6387 40.5175 48.5247 41.1439 48.5247C42.071 48.5247 42.9104 48.7148 43.6747 49.0951C44.4264 49.4753 45.0904 49.9824 45.6542 50.6288C46.2305 49.9824 46.9321 49.4753 47.7465 49.0951C48.5609 48.7148 49.4253 48.5247 50.3525 48.5247C51.2044 48.5247 52.0188 48.6894 52.7705 49.019C53.5222 49.3486 54.1862 49.8049 54.7375 50.3753C55.2888 50.9457 55.7398 51.6175 56.0655 52.3781C56.3913 53.1386 56.5541 53.9625 56.5541 54.8245V62.9749H53.3218V54.8371C53.3218 54.4315 53.2466 54.0513 53.0837 53.671C52.9334 53.3034 52.7204 52.9865 52.4448 52.7076C52.1691 52.4288 51.8559 52.2133 51.4926 52.0485C51.1292 51.8837 50.7409 51.795 50.3399 51.795C49.914 51.795 49.5381 51.871 49.1748 52.0485C48.824 52.2133 48.5108 52.4414 48.2351 52.7076C47.9595 52.9738 47.7465 53.3034 47.5962 53.671C47.4458 54.0386 47.3581 54.4315 47.3581 54.8371V62.9876H44.1383V54.8371C44.1383 54.4188 44.0631 54.0132 43.9002 53.6456C43.7499 53.278 43.5369 52.9611 43.2612 52.6823C42.9856 52.4034 42.6724 52.1879 42.3091 52.0358C41.9457 51.8837 41.5573 51.795 41.1314 51.795C40.7054 51.795 40.3295 51.871 39.9662 52.0485C39.6154 52.2133 39.3022 52.4414 39.0266 52.7203C38.7509 53.0118 38.5379 53.3287 38.3876 53.6963C38.2373 54.0639 38.1496 54.4442 38.1496 54.8245V62.9749H34.9297L34.9422 49.1584Z" fill="#1C2436"/>
<path d="M79.8081 56.054C79.8081 56.6371 79.9208 57.2075 80.1464 57.7272C80.3719 58.2469 80.6726 58.7032 81.0609 59.0962C81.4368 59.4891 81.9004 59.7933 82.414 60.0215C82.9277 60.2497 83.479 60.3637 84.0678 60.3637C84.782 60.3637 85.4209 60.2243 86.0098 59.9581C86.5986 59.6919 87.0622 59.299 87.4255 58.7793H90.9711C90.6203 59.6032 90.1943 60.3257 89.7057 60.9342C89.2046 61.5426 88.6533 62.0369 88.0519 62.4299C87.4506 62.8228 86.8116 63.1017 86.135 63.2918C85.4585 63.482 84.7694 63.5707 84.0553 63.5707C83.0154 63.5707 82.0507 63.3679 81.1486 62.9749C80.2466 62.582 79.4573 62.0496 78.7933 61.3778C78.1292 60.706 77.603 59.9074 77.2021 58.9948C76.8137 58.0821 76.6133 57.1061 76.6133 56.054C76.6133 55.0019 76.8012 54.0259 77.2021 53.1133C77.5905 52.2006 78.1167 51.4147 78.7933 50.7302C79.4573 50.0584 80.2466 49.526 81.1486 49.1204C82.0507 48.7275 83.0154 48.5247 84.0553 48.5247C84.7318 48.5247 85.4084 48.6134 86.0849 48.7908C86.7615 48.9683 87.413 49.2472 88.0269 49.6274C88.6408 50.0204 89.192 50.5021 89.7057 51.1105C90.2194 51.7063 90.6454 52.4288 90.9836 53.278H87.4004C86.9995 52.7203 86.5109 52.3274 85.9221 52.0865C85.3332 51.8457 84.7068 51.7316 84.0428 51.7316C83.4539 51.7316 82.9152 51.8457 82.389 52.0738C81.8753 52.302 81.4243 52.6062 81.0359 52.9992C80.66 53.3921 80.3468 53.8358 80.1213 54.3681C79.9208 54.9005 79.8081 55.4583 79.8081 56.054Z" fill="#1C2436"/>
<path d="M101.908 51.9344C101.319 51.9344 100.743 52.0485 100.142 52.264C99.5527 52.4795 99.014 52.809 98.5379 53.2273C98.0618 53.6583 97.6734 54.1653 97.3727 54.7864C97.0721 55.4075 96.9217 56.1047 96.9217 56.8779V62.9876H93.752V49.1584H96.9217V50.9837C97.285 50.5274 97.6985 50.1344 98.1621 49.8176C98.6256 49.5007 99.1017 49.2472 99.6029 49.057C100.104 48.8669 100.58 48.7274 101.056 48.6387C101.532 48.55 101.958 48.512 102.334 48.512L101.908 51.9344Z" fill="#1C2436"/>
<path d="M103.299 56.054C103.299 55.0019 103.499 54.0259 103.888 53.1133C104.276 52.2006 104.815 51.4147 105.491 50.7302C106.168 50.0457 106.957 49.526 107.859 49.1204C108.761 48.7275 109.726 48.5247 110.766 48.5247C111.806 48.5247 112.771 48.7275 113.673 49.1204C114.575 49.5134 115.364 50.0457 116.028 50.7302C116.692 51.4147 117.218 52.2006 117.619 53.1133C118.02 54.0259 118.208 55.0019 118.208 56.054V62.9876H115.038V62.2144C113.798 63.1144 112.382 63.5707 110.778 63.5707C109.651 63.5707 108.624 63.3806 107.709 62.9876C106.794 62.5947 106.005 62.0623 105.354 61.3905C104.702 60.706 104.201 59.9074 103.85 58.9948C103.499 58.0821 103.299 57.1061 103.299 56.054ZM106.469 56.054C106.469 56.6371 106.581 57.2075 106.807 57.7272C107.032 58.2469 107.346 58.7032 107.721 59.0962C108.11 59.4891 108.561 59.7933 109.075 60.0215C109.601 60.2497 110.152 60.3637 110.728 60.3637C111.305 60.3637 111.868 60.2623 112.382 60.0469C112.896 59.8314 113.359 59.5398 113.735 59.1469C114.111 58.7539 114.424 58.3103 114.65 57.7779C114.875 57.2582 114.988 56.6751 114.988 56.054C114.988 55.4709 114.875 54.9005 114.65 54.3808C114.424 53.8611 114.111 53.4048 113.735 53.0119C113.347 52.6189 112.896 52.3147 112.382 52.0865C111.856 51.8584 111.305 51.7443 110.728 51.7443C110.152 51.7443 109.588 51.8584 109.075 52.0865C108.548 52.3147 108.097 52.6189 107.721 53.0119C107.333 53.4048 107.032 53.8484 106.807 54.3808C106.594 54.9005 106.469 55.4583 106.469 56.054Z" fill="#1C2436"/>
<path d="M120.926 52.3783V49.1714H122.179V43.6321H125.348V49.1587H128.543V52.3656H125.348V62.9878H122.179V52.3656H120.926V52.3783Z" fill="#1C2436"/>
<path d="M131.061 44.4939C131.061 43.8981 131.248 43.4165 131.637 43.0235C132.025 42.6306 132.489 42.4404 133.028 42.4404C133.616 42.4404 134.092 42.6306 134.481 43.0235C134.869 43.4165 135.057 43.8981 135.057 44.4939C135.057 45.0516 134.869 45.5206 134.481 45.9009C134.092 46.2938 133.616 46.484 133.028 46.484C132.476 46.484 132.013 46.2938 131.637 45.9009C131.261 45.5206 131.061 45.0516 131.061 44.4939ZM131.424 49.1585H134.644V62.9877H131.424V49.1585Z" fill="#1C2436"/>
<path d="M141.775 54.0261L146.774 49.1587H151.034L145.045 55.0529L151.034 62.9878H146.912L142.677 57.3725L141.8 58.2345V62.9878H138.605V43.6321H141.775V54.0261Z" fill="#1C2436"/>
<path d="M59.2871 56.1556C59.2871 55.1035 59.4876 54.1275 59.876 53.2148C60.2643 52.3022 60.8031 51.5163 61.4796 50.8318C62.1562 50.1473 62.9455 49.6276 63.8475 49.2347C64.7496 48.8417 65.7143 48.6389 66.7542 48.6389C67.7941 48.6389 68.7588 48.8417 69.6608 49.2347C70.5629 49.6276 71.3522 50.16 72.0162 50.8318C72.6803 51.5036 73.2065 52.3022 73.6074 53.2148C74.0083 54.1275 74.1962 55.1035 74.1962 56.1556C74.1962 57.2077 73.9958 58.1837 73.6074 59.0964C73.219 60.009 72.6928 60.7949 72.0162 61.4794C71.3397 62.1639 70.5629 62.6836 69.6608 63.0765C68.7588 63.4695 67.7941 63.6723 66.7542 63.6723C65.7143 63.6723 64.7496 63.4695 63.8475 63.0765C62.9455 62.6836 62.1562 62.1512 61.4796 61.4794C60.8031 60.8076 60.2769 60.009 59.876 59.0964C59.475 58.1837 59.2871 57.2077 59.2871 56.1556ZM62.4569 56.1556C62.4569 56.7387 62.5696 57.3091 62.7951 57.8288C63.0206 58.3485 63.3339 58.8048 63.7097 59.1978C64.0981 59.5907 64.5492 59.8949 65.0628 60.1231C65.589 60.3512 66.1403 60.4653 66.7166 60.4653C67.2929 60.4653 67.8567 60.3512 68.3704 60.1231C68.8966 59.8949 69.3476 59.5907 69.7235 59.1978C70.1119 58.8048 70.4126 58.3612 70.6381 57.8288C70.8636 57.3091 70.9764 56.7514 70.9764 56.1556C70.9764 55.5725 70.8636 55.0021 70.6381 54.4824C70.4126 53.9627 70.0993 53.5064 69.7235 53.1134C69.3351 52.7205 68.8841 52.4163 68.3704 52.1881C67.8442 51.9599 67.2929 51.8459 66.7166 51.8459C66.1403 51.8459 65.5765 51.9599 65.0628 52.1881C64.5366 52.4163 64.0856 52.7205 63.7097 53.1134C63.3213 53.5064 63.0206 53.95 62.7951 54.4824C62.5696 55.0148 62.4569 55.5725 62.4569 56.1556Z" fill="#1C2436"/>
<path fill-rule="evenodd" clip-rule="evenodd" d="M65.1084 54.0054L68.1382 57.0707L66.6588 58.5676L63.6289 55.5022L65.1084 54.0054Z" fill="#4DF189"/>
<path fill-rule="evenodd" clip-rule="evenodd" d="M72.1655 49.9856L73.645 51.4825L66.6553 58.5544L65.1758 57.0576L72.1655 49.9856Z" fill="#4DF189"/>
</g>
<path d="M61 15.5615C61 13.3834 61.415 11.3628 62.2191 9.47337C63.0231 7.58394 64.1385 5.95694 65.5391 4.53987C66.9397 3.1228 68.5738 2.04688 70.4413 1.23338C72.3088 0.419874 74.306 0 76.4588 0C78.6117 0 80.6089 0.419874 82.4764 1.23338C84.3439 2.04688 85.978 3.14904 87.3527 4.53987C88.7274 5.9307 89.8167 7.58394 90.6467 9.47337C91.4767 11.3628 91.8658 13.3834 91.8658 15.5615C91.8658 17.7396 91.4508 19.7602 90.6467 21.6497C89.8427 23.5391 88.7533 25.1661 87.3527 26.5832C85.952 28.0002 84.3439 29.0762 82.4764 29.8897C80.6089 30.7032 78.6117 31.123 76.4588 31.123C74.306 31.123 72.3088 30.7032 70.4413 29.8897C68.5738 29.0762 66.9397 27.974 65.5391 26.5832C64.1385 25.1923 63.0491 23.5391 62.2191 21.6497C61.3891 19.7602 61 17.7396 61 15.5615ZM67.5622 15.5615C67.5622 16.7687 67.7957 17.9495 68.2625 19.0255C68.7294 20.1014 69.3779 21.0461 70.156 21.8596C70.9601 22.6731 71.8938 23.3029 72.9573 23.7753C74.0466 24.2476 75.1879 24.4838 76.381 24.4838C77.5742 24.4838 78.7413 24.2476 79.8048 23.7753C80.8942 23.3029 81.8279 22.6731 82.6061 21.8596C83.4101 21.0461 84.0326 20.1276 84.4995 19.0255C84.9664 17.9495 85.1998 16.7949 85.1998 15.5615C85.1998 14.3544 84.9664 13.1735 84.4995 12.0976C84.0326 11.0216 83.3842 10.0769 82.6061 9.26343C81.802 8.44993 80.8682 7.82012 79.8048 7.34777C78.7154 6.87541 77.5742 6.63923 76.381 6.63923C75.1879 6.63923 74.0207 6.87541 72.9573 7.34777C71.8679 7.82012 70.9341 8.44993 70.156 9.26343C69.3519 10.0769 68.7294 10.9954 68.2625 12.0976C67.7957 13.1997 67.5622 14.3544 67.5622 15.5615Z" fill="#1C2436"/>
<path fill-rule="evenodd" clip-rule="evenodd" d="M73.0493 11.1106L79.3218 17.4567L76.2591 20.5556L69.9863 14.2095L73.0493 11.1106Z" fill="#4DF189"/>
<path fill-rule="evenodd" clip-rule="evenodd" d="M87.6601 2.78833L90.723 5.88725L76.2524 20.5279L73.1895 17.4293L87.6601 2.78833Z" fill="#4DF189"/>
<defs>
<clipPath id="clip0_716_2869">
<rect width="153" height="21.2318" fill="white" transform="translate(0 42.4404)"/>
</clipPath>
</defs>
</svg>
