<svg width="65" height="65" viewBox="0 0 65 65" fill="none" xmlns="http://www.w3.org/2000/svg">
<g clip-path="url(#clip0_329_5063)">
<path d="M36.6273 0H58.7933C60.5706 0.101562 62.3099 0.926758 63.4525 2.29785C64.4046 3.40234 64.9378 4.83691 65.0013 6.28418V21.9756C64.8871 24.3877 63.3382 26.6602 61.1165 27.6123C60.2279 28.0186 59.2376 28.1836 58.2728 28.1709C55.556 28.1709 52.8519 28.1709 50.1351 28.1709C49.6908 28.1328 49.3607 28.4883 49.0179 28.7168C45.9583 30.9512 42.8861 33.1729 39.8265 35.4072C39.5345 35.6104 39.2044 35.8135 38.8363 35.7373C38.265 35.6738 37.8333 35.1025 37.9222 34.5439C38.1634 32.4111 38.4554 30.291 38.7093 28.1709C37.4779 28.1455 36.221 28.2725 35.0277 27.917C32.9203 27.3203 31.181 25.5938 30.5843 23.4863C30.2669 22.458 30.3177 21.3789 30.3177 20.3252C30.3177 16.1357 30.3177 11.9463 30.3177 7.75684C30.305 6.57617 30.2796 5.34473 30.7367 4.22754C31.6253 1.80273 34.0628 0.0634766 36.6273 0ZM33.6566 3.56738C32.8949 4.37988 32.4759 5.49707 32.5013 6.60156C32.5013 11.3369 32.5013 16.085 32.5013 20.8203C32.5013 21.4551 32.4759 22.1025 32.641 22.7246C32.9583 24.0449 33.9613 25.1875 35.2308 25.6826C36.4242 26.1777 37.7318 25.9492 38.9759 26C39.0648 25.708 39.141 25.3779 39.3949 25.1748C39.8265 24.7686 40.6009 24.8447 40.9564 25.3271C41.1722 25.5938 41.2103 25.9619 41.1595 26.292C40.9056 28.2979 40.6517 30.3164 40.4105 32.3223C43.6859 29.9482 46.9486 27.5615 50.224 25.1875C50.6175 24.8574 51.2523 24.832 51.6458 25.1875C51.8997 25.3779 51.9632 25.7207 52.0394 26.0127C54.2992 26 56.5462 26.0381 58.806 26C60.9515 25.9111 62.805 24.0068 62.8431 21.8613C62.8685 16.7832 62.8431 11.6924 62.8558 6.61426C62.9066 4.95117 61.9037 3.32617 60.4056 2.61523C59.6439 2.22168 58.7679 2.1582 57.93 2.18359C50.9476 2.18359 43.9652 2.18359 36.9828 2.18359C35.7132 2.14551 34.4818 2.65332 33.6566 3.56738Z" fill="#009207"/>
<path d="M38.5308 10.8671C39.5845 10.7021 40.7144 11.1083 41.4253 11.9081C42.187 12.7333 42.4536 13.9648 42.1109 15.0312C41.6919 16.5038 40.1177 17.5322 38.607 17.3036C37.0327 17.1386 35.7251 15.6786 35.7632 14.0917C35.7124 12.5175 36.9693 11.0702 38.5308 10.8671ZM38.5054 13.1269C37.8071 13.457 37.7183 14.5488 38.3784 14.9677C38.9878 15.4501 40.0034 15.0058 40.0796 14.2314C40.2193 13.4062 39.229 12.6952 38.5054 13.1269Z" fill="#009207"/>
<path d="M46.6428 10.9941C48.2932 10.3974 50.2609 11.413 50.756 13.0761C51.3654 14.7773 50.2355 16.8085 48.4836 17.2148C46.8332 17.6845 44.967 16.6054 44.5353 14.955C44.0402 13.3554 45.0432 11.4892 46.6428 10.9941ZM47.1506 13.1269C46.4396 13.4697 46.4016 14.5995 47.0871 14.9931C47.7599 15.4628 48.7756 14.8915 48.7375 14.079C48.7883 13.3046 47.8361 12.7206 47.1506 13.1269Z" fill="#009207"/>
<path d="M55.5041 10.9433C57.2815 10.4228 59.3 11.7431 59.5412 13.5713C59.8713 15.3105 58.5129 17.1259 56.7483 17.3037C55.0344 17.5703 53.2951 16.2119 53.1174 14.4853C52.8762 12.9238 53.968 11.3115 55.5041 10.9433ZM55.885 13.1015C55.1614 13.3935 55.0217 14.4853 55.6565 14.9297C56.2658 15.4629 57.3323 15.0312 57.3957 14.2187C57.5481 13.4189 56.6213 12.7334 55.885 13.1015Z" fill="#009207"/>
<path d="M29.2764 33.4141C29.3271 32.8936 29.835 32.4874 30.3428 32.5C30.8379 32.5 31.3203 32.8809 31.3838 33.3887C31.4473 33.8965 31.4092 34.4043 31.4092 34.9122C31.4092 44.1797 31.4092 53.4473 31.4092 62.7149C31.3965 63.2227 31.46 63.7305 31.3584 64.2256C31.2695 64.6319 30.8887 64.8731 30.5205 65H30.1777C29.6445 64.8985 29.2129 64.4288 29.251 63.8702C29.2383 54.1329 29.251 44.3956 29.2383 34.6582C29.251 34.2393 29.2256 33.8204 29.2764 33.4141Z" fill="#009207"/>
<path d="M33.5935 33.6425C33.5428 32.9569 34.2283 32.3603 34.9011 32.5253C35.4597 32.6269 35.8025 33.2108 35.7517 33.7567C35.7517 43.786 35.7644 53.828 35.7517 63.8573C35.7898 64.4032 35.3709 64.8603 34.8504 64.9872H34.5203C34.1648 64.8856 33.8094 64.6825 33.6824 64.3144C33.5427 63.87 33.6062 63.4003 33.5935 62.956C33.5935 53.1933 33.5808 43.4179 33.5935 33.6425Z" fill="#009207"/>
<path d="M25.6966 39.0508C26.2298 38.8731 26.8645 39.2031 27.0296 39.749C27.1184 40.1172 27.0803 40.5108 27.093 40.8916C27.0803 46.3887 27.093 51.8984 27.0803 57.3955C27.1057 57.9668 26.6106 58.5 26.0266 58.5C25.43 58.5381 24.8968 57.9922 24.9221 57.4082C24.9094 51.6826 24.9221 45.9697 24.9094 40.2442C24.8714 39.7236 25.176 39.1777 25.6966 39.0508Z" fill="#009207"/>
<path d="M38.6592 39.0636C39.332 38.8097 40.1191 39.3936 40.0811 40.1173C40.0938 45.8302 40.0811 51.5558 40.0811 57.2687C40.0938 57.6622 39.9668 58.0685 39.624 58.297C39.1797 58.627 38.4941 58.5382 38.1514 58.0938C37.9229 57.8272 37.9102 57.4718 37.9102 57.1417C37.9229 51.4669 37.9102 45.8048 37.9229 40.13C37.8975 39.6603 38.2148 39.2032 38.6592 39.0636Z" fill="#009207"/>
<path d="M21.3806 41.209C22.0535 41.0059 22.7898 41.5772 22.7517 42.2754C22.7644 46.5918 22.7644 50.9083 22.7517 55.2247C22.7771 55.7959 22.282 56.3165 21.7107 56.3292C21.114 56.3672 20.5681 55.834 20.5935 55.2374C20.5808 50.959 20.5935 46.6807 20.5935 42.3897C20.5428 41.8692 20.8601 41.336 21.3806 41.209Z" fill="#009207"/>
<path d="M43.0879 41.1964C43.748 41.0186 44.4463 41.5899 44.4082 42.2628C44.4209 46.4903 44.4082 50.7306 44.4209 54.9581C44.4209 55.3009 44.3955 55.6817 44.1543 55.9483C43.7607 56.4308 42.9482 56.4434 42.542 55.9737C42.2754 55.7071 42.25 55.3136 42.25 54.9708C42.2627 50.7433 42.25 46.503 42.2627 42.2755C42.2373 41.7677 42.6055 41.2979 43.0879 41.1964Z" fill="#009207"/>
<path d="M8.43048 43.3546C8.87482 43.253 9.35724 43.4561 9.58575 43.8497C9.76349 44.1417 9.7381 44.4844 9.75079 44.8145C9.7381 47.5694 9.76349 50.3243 9.7381 53.0665C9.76349 53.6124 9.30646 54.1202 8.74786 54.1456C8.26544 54.1964 7.78302 53.879 7.63068 53.4219C7.5545 53.1807 7.5672 52.9141 7.5672 52.6729C7.5799 49.918 7.5672 47.1758 7.5799 44.421C7.5672 43.9385 7.93536 43.4688 8.43048 43.3546Z" fill="#009207"/>
<path d="M12.7598 43.3671C13.4072 43.1894 14.1055 43.748 14.0801 44.4208C14.0928 47.2646 14.0801 50.0956 14.0928 52.9394C14.1182 53.3329 13.9658 53.7646 13.6104 53.9804C13.166 54.2978 12.4805 54.1835 12.1631 53.7519C11.9092 53.4599 11.9346 53.0536 11.9219 52.6855C11.9346 49.9306 11.9092 47.1757 11.9346 44.4335C11.9092 43.9257 12.2773 43.4687 12.7598 43.3671Z" fill="#009207"/>
<path d="M51.7215 43.3673C52.3816 43.1641 53.1179 43.7354 53.0799 44.421C53.0926 47.252 53.0799 50.0958 53.0799 52.9268C53.1306 53.4981 52.7371 54.0694 52.1531 54.1329C51.531 54.2472 50.8963 53.7013 50.9217 53.0665C50.909 50.2227 50.9217 47.379 50.9217 44.5479C50.8709 44.0401 51.201 43.4942 51.7215 43.3673Z" fill="#009207"/>
<path d="M56.0502 43.3799C56.4819 43.2529 56.9897 43.4307 57.2436 43.8242C57.4467 44.1162 57.4213 44.4844 57.434 44.8271C57.4213 47.582 57.4467 50.3242 57.4213 53.0791C57.4467 53.6123 57.0151 54.1074 56.4946 54.1709C55.9487 54.2598 55.3901 53.8662 55.3012 53.3203C55.2504 53.0283 55.2631 52.7363 55.2631 52.4443C55.2758 49.7783 55.2631 47.1123 55.2758 44.4336C55.2377 43.9512 55.5805 43.4941 56.0502 43.3799Z" fill="#009207"/>
<path d="M3.84842 45.6142C4.30545 45.373 4.92752 45.5253 5.21951 45.9569C5.43533 46.2489 5.42263 46.6298 5.42263 46.9726C5.40994 48.2802 5.43533 49.6005 5.40994 50.9081C5.42263 51.4921 4.90213 52.0126 4.31814 51.9872C3.74685 51.9999 3.22635 51.4794 3.25174 50.8954C3.23904 49.4989 3.25174 48.1024 3.25174 46.706C3.22635 46.2743 3.44217 45.8173 3.84842 45.6142Z" fill="#009207"/>
<path d="M16.8108 45.6397C17.4837 45.2207 18.4612 45.792 18.4104 46.5791C18.4231 48.0264 18.4231 49.4609 18.4104 50.9082C18.4358 51.5557 17.7757 52.1143 17.1409 51.9746C16.6458 51.8984 16.2522 51.416 16.2649 50.9082C16.2522 49.5117 16.2649 48.1025 16.2522 46.7061C16.2269 46.2871 16.4173 45.8428 16.8108 45.6397Z" fill="#009207"/>
<path d="M47.1521 45.6395C47.7742 45.2587 48.6883 45.7157 48.739 46.4647C48.7771 47.912 48.7517 49.3466 48.7517 50.7938C48.8025 51.3524 48.4217 51.911 47.8504 51.9872C47.2156 52.1141 46.5681 51.5682 46.5935 50.9208C46.5808 49.5243 46.5935 48.1151 46.5935 46.7186C46.5554 46.287 46.7586 45.8427 47.1521 45.6395Z" fill="#009207"/>
<path d="M60.1004 45.6651C60.7351 45.2335 61.7 45.7032 61.7381 46.4776C61.7762 47.9122 61.7508 49.3468 61.7508 50.7813C61.8015 51.3145 61.4588 51.8604 60.9256 51.9747C60.2654 52.1651 59.5545 51.6065 59.5799 50.921C59.5672 49.5245 59.5799 48.128 59.5799 46.7188C59.5545 46.2999 59.7322 45.8809 60.1004 45.6651Z" fill="#009207"/>
<path d="M0.000976562 47.5313C0.0898438 47.125 0.34375 46.7315 0.762695 46.6299C1.39746 46.4141 2.14648 46.9219 2.14648 47.5947C2.17188 48.3565 2.17188 49.1309 2.14648 49.8926C2.14648 50.5528 1.42285 51.0606 0.788086 50.8701C0.369141 50.7686 0.102539 50.3877 -0.0117188 49.9815V47.5313H0.000976562Z" fill="#009207"/>
<path d="M62.8569 47.4806C62.9331 46.7823 63.7837 46.3761 64.3931 46.6935C64.7231 46.8331 64.9009 47.1759 65.0024 47.5186V49.9562C64.9136 50.6671 64.0884 51.1495 63.4409 50.794C62.9458 50.5782 62.7934 49.9942 62.8315 49.4991C62.8442 48.8263 62.7935 48.1534 62.8569 47.4806Z" fill="#009207"/>
</g>
<defs>
<clipPath id="clip0_329_5063">
<rect width="65" height="65" fill="white"/>
</clipPath>
</defs>
</svg>
