<svg width="274" height="274" viewBox="0 0 274 274" fill="none" xmlns="http://www.w3.org/2000/svg">
<g clip-path="url(#clip0_1233_13237)">
<path d="M207.174 103.182C207.012 103.182 206.904 103.182 206.742 103.182C204.908 102.912 203.452 101.402 201.996 99.9992L201.78 99.7835C197.357 95.3607 192.934 90.9918 188.457 86.5689C185.059 83.1709 181.661 79.8268 178.209 76.4288C174.056 72.2756 171.683 66.4504 171.629 60.5173C171.467 53.6673 174.596 46.7634 179.72 42.5563C182.794 40.0213 186.839 38.6729 191.1 38.6729C191.748 38.6729 192.341 38.7268 192.988 38.7807C197.735 39.2122 202.373 41.2618 206.526 44.7677L207.227 45.361L207.929 44.7677C212.459 40.9382 218.069 38.7268 223.355 38.7268C224.757 38.7268 226.105 38.8886 227.454 39.1583C232.74 40.237 237.54 44.1205 240.291 49.6221C244.768 58.252 243.149 69.4709 236.407 76.2669C231.445 81.2292 226.375 86.2453 221.467 91.0996C218.177 94.3898 214.833 97.6799 211.542 100.97C209.924 102.426 208.468 103.182 207.174 103.182Z" fill="#4DF189"/>
<path d="M76.6992 274C75.3507 273.676 73.463 272.975 72.3303 271.465C69.3098 267.689 66.2893 263.806 63.3767 260.03C60.0326 255.769 56.6346 251.346 53.1826 247.085L52.7511 246.546L52.1039 246.708C51.2948 246.869 50.4858 246.977 49.6767 246.977C47.5193 246.977 45.4696 246.276 44.0133 245.036C42.8267 243.957 41.8559 242.716 40.8311 241.314C40.1838 240.451 39.4826 239.534 38.7275 238.671L38.0803 237.916L37.2712 238.563C36.1925 239.426 35.1137 240.235 34.035 241.098C31.7157 242.932 29.2885 244.82 26.9153 246.654C25.8905 247.463 24.5421 247.894 23.1397 247.894C21.0901 247.894 19.2023 247.031 18.0157 245.521C15.3728 242.231 12.7299 238.833 10.1948 235.543C7.60587 232.253 4.96296 228.855 2.32004 225.564C1.13343 224.162 0.37831 222.706 0.0546875 221.249V219.523C0.37831 218.175 1.02555 216.395 2.58973 215.208C5.12477 213.159 7.76768 211.109 10.3027 209.167L13.5389 206.632L12.9456 205.823C12.2984 204.906 11.5972 204.043 10.896 203.18C9.70941 201.724 8.63067 200.376 7.82162 198.812C6.25744 195.306 7.39012 190.937 10.4106 188.564C14.6716 185.219 18.9326 181.821 23.1937 178.477L27.2929 175.295C28.8031 174.108 30.7448 173.461 32.7405 173.461C33.6035 173.461 34.4665 173.569 35.2756 173.839C37.487 174.432 39.1051 176.104 40.4535 177.722L41.5322 179.017L42.2874 177.506C47.1956 167.151 52.2657 156.633 57.12 146.439C61.9744 136.299 66.9905 125.781 71.8988 115.425L72.1685 114.886L71.7909 114.346C67.9074 108.791 68.3389 100.808 72.7618 95.7919C75.5126 92.4478 79.8815 90.4521 84.4122 90.4521C86.6236 90.4521 88.7811 90.9376 90.6689 91.8545C93.8511 93.2029 96.1165 95.8998 97.9504 98.3809L120.065 126.59C134.951 145.63 149.892 164.616 164.778 183.655C167.961 187.539 168.985 192.932 167.529 197.679C165.965 203.127 160.949 207.495 155.393 208.251C154.638 208.358 153.883 208.412 153.074 208.412C148.813 208.412 144.498 206.471 141.585 203.288L141.154 202.857L140.561 202.965C131.176 204.906 121.737 206.902 112.352 208.844C99.5685 211.541 86.3 214.292 73.2472 216.988L71.5212 217.312L72.6 218.66C74.4338 221.034 75.2968 223.299 75.135 225.403V225.456V225.51C75.135 226.266 74.9192 227.075 74.6496 227.884C74.4338 228.531 74.2181 229.232 74.1102 229.987L74.0563 230.419L74.3259 230.796C77.9397 235.543 81.7153 240.343 85.3291 244.982C87.3787 247.571 89.3744 250.106 91.37 252.695C93.2578 254.906 95.1456 257.441 94.5523 260.246V260.3C94.1208 262.997 91.9094 264.615 89.5901 266.341C88.835 266.934 88.0259 267.527 87.2708 268.175C86.3539 268.822 85.437 269.577 84.6279 270.278C82.6862 271.896 80.7984 273.46 78.4791 274H76.6992ZM68.285 234.734C65.9118 236.514 63.5385 238.401 61.2193 240.235C60.3023 240.99 59.3315 241.692 58.4145 242.447L57.5515 243.094L58.1988 243.957C63.5385 250.807 69.2019 258.034 76.6452 267.473L77.2925 268.336L80.6366 265.693C83.0637 263.752 85.5448 261.864 87.972 259.922L88.835 259.275L88.1878 258.412C85.2752 254.69 82.3626 250.969 79.45 247.247C76.2137 243.148 72.9775 238.995 69.7952 234.895L69.148 234.086L68.285 234.734ZM16.3437 211.864C14.7795 213.105 13.1614 214.345 11.5972 215.64C9.92516 216.934 8.25311 218.283 6.58106 219.631L5.71807 220.279L6.36532 221.142C8.46886 223.784 10.5724 226.535 12.622 229.178C15.7504 233.223 19.0405 237.377 22.3307 241.422L22.9779 242.231L23.8409 241.584C26.5378 239.48 29.1807 237.377 31.8775 235.273L34.4665 233.277L29.774 227.29C25.8905 222.328 21.8452 217.15 17.8539 212.134L17.2067 211.271L16.3437 211.864ZM47.0338 239.588C47.5732 240.451 48.5441 240.99 49.5689 240.99C50.3779 240.99 51.133 240.667 51.7263 240.127C57.6055 235.543 62.8374 231.443 67.7456 227.56C68.5007 227.075 69.0401 226.266 69.148 225.349C69.2559 224.486 68.9862 223.677 68.3929 223.029C62.1362 214.993 55.7716 206.902 49.6228 199.027C44.8763 192.932 40.0759 186.892 35.3295 180.797C34.7362 179.88 33.7114 179.232 32.6326 179.232C31.9315 179.232 31.3382 179.448 30.8527 179.934C27.6165 182.469 24.3263 185.058 21.1441 187.539C18.9326 189.265 16.7752 190.991 14.5637 192.717C13.8086 193.202 13.2693 193.957 13.1614 194.874C13.0535 195.791 13.3232 196.654 13.9704 197.301C20.8204 206.039 27.6165 214.723 34.4665 223.461L47.0338 239.588ZM75.4586 121.52C70.011 132.793 64.5633 144.227 59.2775 155.338C54.8547 164.616 50.27 174.216 45.7393 183.601L45.4697 184.195L45.9011 184.734C48.9216 188.618 51.996 192.555 55.0165 196.384C58.9 201.293 62.8913 206.417 66.7748 211.487L67.1523 211.972L67.7456 211.918C69.5256 211.703 71.3055 211.325 73.0314 210.947C73.5708 210.84 74.1102 210.732 74.7035 210.57C82.1468 209.006 89.5901 207.442 97.0334 205.931C109.601 203.342 122.546 200.592 135.329 197.949L137.001 197.571L135.922 196.223C132.2 191.422 128.371 186.568 124.703 181.875C122.276 178.801 119.903 175.727 117.476 172.652L116.828 171.789L99.2448 149.405L98.6515 148.65C94.0129 142.771 89.3744 136.838 84.7897 130.959C82.3086 127.777 76.2137 120.01 76.2137 120.01L75.4586 121.52ZM117.098 162.62C117.476 162.997 117.853 163.483 118.231 164.022L123.732 171.034C130.906 180.149 138.295 189.588 145.577 198.866C147.195 201.023 149.892 202.318 152.858 202.318C155.825 202.318 158.576 200.969 160.194 198.758C162.729 195.521 162.675 190.613 160.086 187.377C141.208 163.267 122.276 139.103 103.344 114.993L93.5275 102.48C93.3118 102.21 93.096 101.887 92.8263 101.617C91.4779 99.8372 89.9137 97.8415 87.4866 96.9785C86.4618 96.547 85.383 96.3852 84.2504 96.3852C80.7984 96.3852 77.4543 98.3809 75.998 101.347C74.272 104.53 74.7035 108.737 77.0767 111.595C81.1759 116.827 85.2752 122.113 89.4283 127.345C94.0669 133.224 98.6515 139.157 103.29 145.036L103.937 145.899L117.098 162.62Z" fill="#2A5339"/>
<path d="M162.945 133.925C156.904 133.818 151.672 132.739 147.358 130.581C145.524 129.61 143.959 128.64 143.636 127.075C143.312 125.727 144.283 124.594 144.661 124.163C148.544 119.956 151.025 115.587 151.996 111.272C152.428 108.953 152.751 105.608 150.971 102.912C145.092 93.7963 141.532 83.1707 140.669 72.2215C139.806 61.5419 141.586 50.6467 145.793 40.7223L146.225 39.7514H146.171C149.515 32.3081 154.1 25.566 159.871 19.8486L159.925 19.7947L159.979 19.7408C160.356 19.2014 160.95 18.716 161.489 18.2845C161.813 18.0148 162.136 17.6912 162.46 17.4215C174.164 6.74194 190.13 0.431306 206.311 0.161621H208.63C223.085 0.485243 237.217 5.50139 248.382 14.2931C261.111 24.2175 270.064 38.9423 272.977 54.7998C273.516 57.4967 273.786 60.3014 274.002 62.9982L274.109 64.1309V68.9852C273.624 82.6852 268.932 96.1695 260.895 106.903C251.456 119.632 237.109 128.909 221.575 132.307C216.99 133.332 212.244 133.818 207.443 133.818C198.436 133.818 189.321 131.984 181.068 128.424L180.475 128.154L179.989 128.586C175.674 132.092 169.795 133.979 163.377 133.979L162.945 133.925ZM153.398 95.3065C153.938 96.4392 154.639 97.5179 155.286 98.5427C156.473 100.431 157.606 102.21 157.875 104.26V104.314C159.493 112.243 155.556 119.74 151.996 124.648L151.079 125.889L152.535 126.32C156.149 127.399 159.655 127.938 162.945 127.938C166.397 127.938 169.633 127.291 172.492 126.105C174.326 125.403 175.728 124.109 177.077 122.814C177.4 122.545 177.67 122.221 177.994 121.951C178.371 121.628 178.911 121.466 179.504 121.466C180.151 121.466 180.852 121.628 181.5 122.005C189.536 125.781 198.436 127.723 207.335 127.723C212.729 127.723 218.069 127.021 223.139 125.619C237.109 121.844 249.676 112.836 257.659 100.916C266.666 87.5935 270.064 70.9809 266.936 55.2852C264.077 40.3447 255.393 26.5908 243.096 17.6372C232.848 10.086 220.172 5.93288 207.282 5.93288C206.472 5.93288 205.663 5.93288 204.908 5.98682C199.461 6.20257 194.067 7.1195 188.781 8.79154L188.619 8.84548C179.774 11.7041 171.683 16.5045 165.211 22.7612C164.941 22.977 164.725 23.2467 164.402 23.4624L164.348 23.5163L164.294 23.5703C159.655 28.1549 155.772 33.4947 152.805 39.3738L152.751 39.4278V39.4817C152.643 39.6974 152.589 39.9132 152.482 40.075V40.1289V40.1829C144.013 57.3349 144.337 78.4782 153.398 95.3065Z" fill="#2A5339"/>
</g>
<defs>
<clipPath id="clip0_1233_13237">
<rect width="274" height="274" fill="white"/>
</clipPath>
</defs>
</svg>
