<svg width="573" height="572" viewBox="0 0 573 572" fill="none" xmlns="http://www.w3.org/2000/svg">
<mask id="path-1-inside-1_1199_14453" fill="white">
<path d="M572.318 285.872C572.318 443.674 444.394 571.598 286.591 571.598C128.789 571.598 0.865234 443.674 0.865234 285.872C0.865234 128.07 128.789 0.145752 286.591 0.145752C444.394 0.145752 572.318 128.07 572.318 285.872ZM93.2549 285.872C93.2549 392.649 179.815 479.208 286.591 479.208C393.368 479.208 479.928 392.649 479.928 285.872C479.928 179.095 393.368 92.5354 286.591 92.5354C179.815 92.5354 93.2549 179.095 93.2549 285.872Z"/>
</mask>
<path d="M572.318 285.872C572.318 443.674 444.394 571.598 286.591 571.598C128.789 571.598 0.865234 443.674 0.865234 285.872C0.865234 128.07 128.789 0.145752 286.591 0.145752C444.394 0.145752 572.318 128.07 572.318 285.872ZM93.2549 285.872C93.2549 392.649 179.815 479.208 286.591 479.208C393.368 479.208 479.928 392.649 479.928 285.872C479.928 179.095 393.368 92.5354 286.591 92.5354C179.815 92.5354 93.2549 179.095 93.2549 285.872Z" fill="#D6FFD8" stroke="#2A5339" stroke-width="2" mask="url(#path-1-inside-1_1199_14453)"/>
<circle cx="286.205" cy="45.7691" r="28.8846" fill="#FFEFEB" stroke="#2A5339"/>
</svg>
