<svg width="55" height="55" viewBox="0 0 55 55" fill="none" xmlns="http://www.w3.org/2000/svg">
<g clip-path="url(#clip0_614_2918)">
<path d="M10.2695 0.451172C10.8711 0.300781 11.4512 0.150391 12.0312 0C12.6543 2.42773 13.2773 4.85547 13.9004 7.30469C13.3203 7.45508 12.7188 7.60547 12.1387 7.75586C11.5156 5.32812 10.8926 2.87891 10.2695 0.451172Z" fill="#4DF189"/>
<path d="M37.7265 0.945395C37.8124 0.408286 38.414 0.107504 38.9081 0.257895C40.6054 0.494223 42.3027 0.730551 44.0214 0.988364C44.4941 1.03133 44.9667 1.41805 44.9238 1.93368C44.8163 3.22274 44.5156 4.5118 44.4296 5.80086C44.4511 6.44539 45.2675 6.87508 45.8046 6.48836C46.8788 5.77938 47.8242 4.92 48.8984 4.2325C49.3496 3.95321 49.8867 4.2325 50.1445 4.64071C51.1972 6.03719 52.2499 7.41219 53.2812 8.83016C53.6035 9.21688 53.5605 9.83993 53.1308 10.1407C52.1855 10.9356 51.1328 11.6016 50.1874 12.3966C49.6933 12.8048 49.9081 13.7071 50.5312 13.879C51.7988 14.1583 53.1093 14.2227 54.3769 14.4806C54.7851 14.588 55.0859 15.0391 54.9999 15.4473C54.7851 17.2306 54.5058 19.0138 54.248 20.797C54.205 21.2696 53.7968 21.6993 53.3027 21.6348C52.0136 21.5274 50.7246 21.2266 49.4355 21.1407C48.791 21.1622 48.3828 22.0216 48.791 22.5372C49.4999 23.5684 50.2949 24.4923 51.0038 25.5235C51.3046 25.9317 51.1328 26.5118 50.7246 26.7696C49.3496 27.8223 47.9531 28.8751 46.5566 29.9063C46.1699 30.2716 45.5038 30.2931 45.1601 29.8204C44.3867 28.8751 43.7206 27.8438 42.9257 26.8985C42.5175 26.3614 41.5507 26.5763 41.4003 27.2423C41.1425 28.4669 41.0566 29.6915 40.8417 30.9161C40.7773 31.3888 40.3046 31.754 39.832 31.6681C38.0703 31.4317 36.3085 31.1739 34.5468 30.9161C34.0742 30.8946 33.623 30.5079 33.6445 30.0138C33.7304 28.7032 34.0527 27.4356 34.1386 26.1466C34.1386 25.5235 33.3652 25.0723 32.8281 25.3946C31.7324 26.1036 30.7656 26.9845 29.6699 27.672C29.2617 27.9083 28.746 27.7149 28.4882 27.3282C27.4355 25.9532 26.4042 24.5567 25.3515 23.1602C25.0078 22.7735 24.9648 22.129 25.3945 21.7852C26.3613 20.9688 27.457 20.3028 28.4238 19.4649C28.8964 19.0138 28.6171 18.0899 27.9511 17.9825C26.748 17.7462 25.5449 17.6602 24.3417 17.4239C23.8691 17.3809 23.4824 16.9083 23.5683 16.4356C23.7831 14.6739 24.0624 12.9337 24.2988 11.172C24.3203 10.6993 24.664 10.2266 25.1796 10.2052C26.4902 10.2911 27.7578 10.5919 29.0683 10.6993C29.7558 10.7423 30.2285 9.83993 29.7988 9.30282C29.1113 8.31454 28.3593 7.39071 27.6718 6.42391C27.4785 6.18758 27.4785 5.8868 27.4355 5.6075C24.0839 5.65047 20.7324 6.78915 18.0898 8.85165C14.6093 11.5802 12.3964 15.6837 12.0742 19.9591C11.666 24.7501 13.6425 29.6485 17.2734 32.8067C18.0683 33.5372 18.9921 34.0743 19.8515 34.7403C21.1835 35.7931 22.0214 37.4259 22.1074 39.1016C22.1718 40.4766 22.0859 41.8516 22.1503 43.2266C22.1718 44.1934 23.0742 45.0098 24.041 44.9669C26.4042 44.9669 28.7675 44.9669 31.1308 44.9669C32.1191 45.0528 33.0859 44.2149 33.0644 43.2052C33.1933 40.9278 32.6562 38.4141 33.9667 36.3731C34.8476 34.7403 36.6308 34.0098 37.9413 32.8067C38.3496 33.2579 38.7578 33.7091 39.166 34.1602C37.9843 35.3204 36.2871 35.9434 35.4706 37.4473C34.5683 39.0802 35.0195 41.0138 34.912 42.7755C35.0195 44.172 34.3105 45.5684 33.0859 46.2989C33.0644 47.9747 33.1074 49.672 33.0644 51.3477C33.0644 52.7227 32.2265 54.0763 30.9589 54.6563C29.9277 55.1505 28.7675 54.9786 27.6718 55.0216C26.4687 54.9786 25.1581 55.1934 24.041 54.5704C22.8808 53.9688 22.1074 52.6798 22.1074 51.3907C22.0859 49.6934 22.1074 48.0177 22.0859 46.3204C21.1406 45.7188 20.4316 44.752 20.3027 43.6348C20.2167 42.6036 20.2812 41.5938 20.2597 40.5626C19.5292 41.1212 19.0136 42.3028 17.9824 42.2169C16.9726 41.7227 16.1132 40.9493 15.1464 40.3477C14.9101 41.3575 14.7382 42.3888 14.4804 43.42C14.373 43.8712 13.9003 44.1075 13.4706 44.086C12.3105 44.086 11.1503 44.1075 9.99017 44.086C9.56049 44.1075 9.15228 43.7852 9.08783 43.3556C8.8515 42.3673 8.67963 41.3575 8.4433 40.3692C7.58392 40.9493 6.74603 41.5723 5.86517 42.1095C5.47846 42.3888 4.96283 42.2384 4.66205 41.9161C3.80267 41.0567 2.9433 40.1973 2.08392 39.338C1.74017 39.0372 1.61127 38.5216 1.89056 38.1348C2.42767 37.254 3.05072 36.4376 3.6308 35.5782C2.64252 35.3634 1.63275 35.17 0.644471 34.9337C0.214783 34.8477 -0.107483 34.4395 -0.0645138 34.0098C-6.07073e-05 32.7852 -6.07073e-05 31.6251 -6.07073e-05 30.4864C-0.0430295 30.0567 0.214783 29.5841 0.665955 29.4981C1.67572 29.2403 2.70697 29.0684 3.71674 28.8321C3.11517 27.8868 2.36322 27.0059 1.8476 25.9962C1.76166 25.0079 2.87885 24.5138 3.39447 23.8263C4.12494 23.2677 4.5976 22.172 5.58588 22.1505C6.63861 22.6231 7.51947 23.4395 8.48627 24.0411C8.7226 23.0098 8.89447 21.9786 9.15228 20.9473C9.2597 20.4317 9.8183 20.3028 10.2695 20.2813C10.5058 15.8341 12.5253 11.5157 15.8124 8.50789C19.4003 5.13485 24.4706 3.45907 29.3691 3.99618C30.2714 3.33016 31.1523 2.64266 32.0546 1.97664C32.4199 1.67586 33.0214 1.67586 33.3437 2.08407C34.1171 3.02938 34.8046 4.06063 35.5781 5.00594C35.9863 5.56454 36.9745 5.37118 37.1249 4.70516C37.4042 3.45907 37.4687 2.19149 37.7265 0.945395ZM39.3593 2.19149C39.1874 3.28719 39.1445 4.42586 38.8007 5.50008C38.1992 7.11141 35.9648 7.71297 34.6328 6.61727C33.7734 5.86532 33.2148 4.83407 32.4843 3.95321C31.5175 4.68368 30.5292 5.41414 29.5624 6.14461C30.1855 7.04696 30.9804 7.86336 31.4745 8.85165C32.205 10.3985 31.1093 12.3966 29.4335 12.6114C28.2519 12.7188 27.1132 12.3536 25.9316 12.2462C25.7597 13.4493 25.5878 14.6524 25.416 15.8556C26.5546 16.0704 27.7578 16.0489 28.832 16.4786C30.3788 17.1446 30.916 19.336 29.8203 20.6251C29.0468 21.463 28.0585 22.0216 27.1777 22.7306C27.9081 23.6973 28.6386 24.6856 29.3691 25.6524C30.2714 25.0294 31.0878 24.2345 32.0761 23.7188C33.6015 23.0098 35.5781 24.0841 35.8359 25.7384C35.9433 26.92 35.5781 28.0802 35.4921 29.2618C36.6953 29.4337 37.8984 29.6056 39.1015 29.7774C39.2949 28.6817 39.3163 27.5431 39.6601 26.4903C40.2617 24.879 42.496 24.2559 43.8281 25.3516C44.6874 26.1036 45.246 27.1348 45.9765 28.0372C46.9433 27.3067 47.9316 26.5763 48.8984 25.8458C48.2753 24.922 47.4804 24.1056 46.9648 23.0958C46.2773 21.5919 47.3085 19.6583 48.9413 19.379C50.1445 19.2286 51.3261 19.6153 52.5292 19.7227C52.7011 18.5196 52.873 17.3165 53.0449 16.1134C51.8847 15.8985 50.6816 15.92 49.5859 15.4903C48.039 14.8028 47.5449 12.5684 48.6835 11.3009C49.457 10.5059 50.4238 9.94735 51.2831 9.23836C50.5527 8.27157 49.8222 7.28329 49.0917 6.31649C48.1679 6.96102 47.33 7.75594 46.3203 8.27157C44.7949 8.95907 42.8613 7.86336 42.6249 6.20907C42.5175 5.02743 42.8828 3.86727 42.9687 2.68563C41.7656 2.53524 40.5624 2.32039 39.3593 2.19149ZM10.4843 23.6329C10.3769 24.5138 9.99017 25.545 9.02338 25.7813C7.64838 26.1251 6.68158 24.8145 5.58588 24.2345C5.02728 24.7931 4.46869 25.3302 3.93158 25.8888C4.38275 26.5763 4.89838 27.2423 5.32806 27.9727C5.88666 28.8966 5.37103 30.2071 4.36127 30.5294C3.54486 30.7657 2.68549 30.8946 1.8476 31.088C1.8476 31.8184 1.8476 32.5274 1.8476 33.2579C2.70697 33.4513 3.56635 33.5802 4.40424 33.838C5.37103 34.1817 5.84369 35.4063 5.37103 36.3087C4.94135 37.0606 4.40424 37.7481 3.93158 38.4571C4.49017 39.0157 5.02728 39.5528 5.58588 40.1114C6.70306 39.5098 7.73431 38.1134 9.15228 38.6075C10.6132 39.1661 10.3984 40.9923 10.7851 42.2169C11.5156 42.2169 12.2245 42.2169 12.955 42.2169C13.1484 41.379 13.2773 40.5196 13.5136 39.6817C13.8144 38.7149 15.039 38.1993 15.9413 38.6505C16.7148 39.0587 17.4023 39.6388 18.1542 40.1114C18.8203 39.4669 19.4648 38.8009 20.1093 38.1563C19.5937 36.502 17.9824 35.6856 16.7148 34.6973C16.6503 34.7188 16.5214 34.7403 16.457 34.7403L16.6074 34.9337C15.2968 37.1036 12.4824 38.2638 10.0761 37.3614C7.62689 36.5665 5.9726 33.9239 6.42377 31.3673C6.76752 29.004 8.80853 27.0274 11.1933 26.7266C10.871 25.7169 10.6132 24.6856 10.4843 23.6329ZM8.76556 30.2501C7.90619 31.5821 8.09955 33.4727 9.19525 34.6329C10.248 35.8145 12.1171 36.1583 13.5136 35.4278C14.3515 35.0196 14.9531 34.2677 15.3183 33.4083C13.9218 31.9903 12.7617 30.3145 11.9238 28.5098C10.6562 28.5313 9.4101 29.1544 8.76556 30.2501ZM23.9765 46.7716C23.9765 47.3731 23.9765 47.9962 23.9765 48.5977C26.4042 48.5977 28.832 48.5977 31.2812 48.5977C31.2812 47.9962 31.2812 47.3731 31.2812 46.7716C28.832 46.7716 26.4042 46.7716 23.9765 46.7716ZM23.9765 50.4239C23.9765 51.1759 23.912 52.0567 24.5136 52.6153C25.287 53.4317 26.5117 53.088 27.5214 53.1524C28.5097 53.0665 29.6484 53.3888 30.5292 52.8087C31.3242 52.2931 31.3456 51.2618 31.3027 50.4024C28.832 50.4239 26.4042 50.4239 23.9765 50.4239Z" fill="#4DF189"/>
<path d="M3.50195 4.96289C5.62891 6.48828 7.75586 8.01367 9.88281 9.51758C9.53906 10.0117 9.17383 10.5059 8.83008 11C6.70312 9.49609 4.57617 7.9707 2.44922 6.44531C2.81445 5.95117 3.1582 5.45703 3.50195 4.96289Z" fill="#4DF189"/>
<path d="M37.254 8.95896C40.5626 7.94919 44.3868 9.68942 45.8263 12.8261C47.3517 15.8769 46.3419 19.8945 43.5704 21.8496C40.8204 23.955 36.6095 23.6758 34.1817 21.2265C31.6681 18.8847 31.2169 14.7168 33.2149 11.9023C34.1602 10.4843 35.6212 9.41013 37.254 8.95896ZM37.92 10.6777C35.3634 11.2793 33.4513 13.9218 33.795 16.5644C34.0313 19.4433 36.8888 21.8066 39.7677 21.4414C42.754 21.2051 45.1602 18.1972 44.6446 15.2324C44.3009 12.1172 40.9493 9.81833 37.92 10.6777Z" fill="#4DF189"/>
<path d="M15.6623 16.7148C16.6291 14.1152 18.4767 11.8809 20.797 10.3984C21.1193 10.9141 21.4416 11.4297 21.7638 11.9453C18.6916 13.8789 16.6935 17.4023 16.672 21.0547C16.5861 24.793 18.5841 28.4883 21.7638 30.4648C22.967 31.2598 24.4064 31.6035 25.5236 32.4844C27.4142 33.8809 28.5314 36.2012 28.5314 38.5645C27.9298 38.5645 27.3283 38.5645 26.7267 38.5645C26.6838 36.9102 25.9748 35.2559 24.7072 34.1816C23.8048 33.3438 22.5802 33.043 21.5275 32.4414C19.0568 31.1094 17.0588 28.9395 15.9416 26.3613C14.588 23.3535 14.4806 19.8086 15.6623 16.7148Z" fill="#4DF189"/>
<path d="M0.945312 15.7695C3.37305 15.168 5.80078 14.5449 8.25 13.9434C8.40039 14.5234 8.55078 15.125 8.70117 15.7051C6.27344 16.3066 3.8457 16.9297 1.39648 17.5312C1.22461 16.9512 1.07422 16.3496 0.945312 15.7695Z" fill="#4DF189"/>
<path d="M44.9668 33.9883C47.0938 33.9883 49.2207 33.9883 51.3477 33.9883C51.3477 34.5898 51.3477 35.2129 51.3477 35.8145C49.2207 35.8145 47.0938 35.8145 44.9668 35.8145C44.9668 35.2129 44.9668 34.6113 44.9668 33.9883Z" fill="#4DF189"/>
<path d="M43.4629 40.1758C43.8496 39.7031 44.2363 39.2305 44.623 38.7793C46.4492 40.2832 48.2539 41.8301 50.0801 43.3125C49.7148 43.8066 49.3066 44.2793 48.9199 44.7305C47.1152 43.2051 45.2891 41.7012 43.4629 40.1758Z" fill="#4DF189"/>
<path d="M26.7051 40.3906C27.3066 40.3906 27.9297 40.3906 28.5312 40.3906C28.5312 41.3145 28.5312 42.2168 28.5312 43.1191C27.9297 43.1191 27.3066 43.1191 26.7051 43.1191C26.7051 42.1953 26.7051 41.293 26.7051 40.3906Z" fill="#4DF189"/>
<path d="M39.4883 41.293C40.0898 41.293 40.7129 41.293 41.3145 41.293C41.3145 43.4199 41.3145 45.5469 41.3145 47.6738C40.7129 47.6738 40.1113 47.6738 39.4883 47.6738C39.4883 45.5469 39.4883 43.4199 39.4883 41.293Z" fill="#4DF189"/>
</g>
<defs>
<clipPath id="clip0_614_2918">
<rect width="55" height="55" fill="white"/>
</clipPath>
</defs>
</svg>
