<svg width="70" height="70" viewBox="0 0 70 70" fill="none" xmlns="http://www.w3.org/2000/svg">
<circle cx="35" cy="35" r="35" fill="white"/>
<g clip-path="url(#clip0_224_1206)">
<path d="M40.5744 27.8985C40.5744 21.1017 35.0645 15.5918 28.2677 15.5918C21.4709 15.5918 15.9609 21.1017 15.9609 27.8985C15.9609 27.9057 15.9612 27.9128 15.9612 27.9199C15.9612 27.9271 15.9609 27.9342 15.9609 27.9413C15.9609 34.7381 21.4709 40.248 28.2677 40.248C35.0645 40.248 40.5744 34.7382 40.5744 27.9414C40.5744 27.9342 40.5741 27.9271 40.5741 27.92C40.5741 27.9128 40.5744 27.9057 40.5744 27.8985Z" fill="#4DF189"/>
<path d="M29.5246 38.991C22.7278 38.991 17.2179 33.481 17.2179 26.6842C17.2179 26.6771 17.2182 26.6699 17.2182 26.6628C17.2182 26.6556 17.2179 26.6485 17.2179 26.6414C17.2179 23.5629 18.3483 20.7485 20.2166 18.5903C17.61 20.8469 15.9609 24.18 15.9609 27.8984C15.9609 27.9056 15.9612 27.9127 15.9612 27.9198C15.9612 27.927 15.9609 27.9341 15.9609 27.9412C15.9609 34.738 21.4709 40.2479 28.2677 40.2479C31.9859 40.2479 35.3191 38.5988 37.5757 35.9923C35.4176 37.8606 32.6031 38.991 29.5246 38.991V38.991Z" fill="#4DF189"/>
<path d="M31.175 24.8234L33.6609 22.3374C34.1186 21.8798 34.1186 21.1378 33.6609 20.6802C33.2033 20.2225 32.4613 20.2225 32.0037 20.6802L25.2327 27.4512L24.8218 27.0403C24.8218 25.7974 24.328 24.6055 23.4493 23.7267L23.0773 23.3548C22.5155 22.793 21.6046 22.793 21.0427 23.3548L20.3887 24.0088L21.8277 25.4478C22.2617 25.8819 22.5055 26.4705 22.5055 27.0844V29.412L22.8887 29.7952L27.8712 34.7777C28.7806 35.6871 30.2552 35.6871 31.1646 34.7777L36.147 29.7952L31.175 24.8234Z" fill="#D6FFD8"/>
<path d="M29.5963 33.9997L24.6139 29.0173L24.2307 28.6341V26.3064C24.2307 25.6926 23.9869 25.1039 23.5528 24.6699L22.1139 23.2309L22.3752 22.9696C21.9105 22.8656 21.4045 22.9931 21.0427 23.3547L20.3887 24.0088L21.8277 25.4478C22.2617 25.8818 22.5055 26.4705 22.5055 27.0843V29.412L22.8887 29.7952L27.8712 34.7776C28.7806 35.6871 30.2552 35.6871 31.1646 34.7776L31.2609 34.6814C30.6589 34.686 30.0555 34.459 29.5963 33.9997Z" fill="#D6FFD8"/>
<path d="M28.3252 35.6421H54.0393V45.0022H28.3252V35.6421Z" fill="#FFEFEB"/>
<path d="M30.0649 43.2451V35.6421H28.3252V45.0021H54.0393V43.2451H30.0649Z" fill="#FFF7D6"/>
<path d="M17.7114 45.0005H49.3521V54.3606H17.7114V45.0005Z" fill="#EBFA9E"/>
<path d="M19.4511 52.6035V45.0005H17.7114V54.3605H49.3522V52.6035H19.4511Z" fill="#EBFA9E"/>
<path d="M26.043 29.1245L26.8715 28.296L27.7 29.1245L26.8715 29.953L26.043 29.1245Z" fill="white"/>
<path d="M18.4051 31.612C18.2616 31.2319 18.1309 30.8104 18.0371 30.4254L19.1756 30.1479C19.2586 30.4883 19.3743 30.8612 19.5015 31.1983L18.4051 31.612Z" fill="white"/>
<path d="M17.8146 29.2129C17.7665 28.8547 17.7402 28.4618 17.7319 27.9765L18.9037 27.9565C18.9111 28.3953 18.9341 28.745 18.976 29.057L17.8146 29.2129Z" fill="white"/>
<path d="M44.1382 42.0811H41.7749V43.2539H44.1434C46.4516 43.1709 46.4449 39.8062 44.1373 39.733L43.539 39.7324C42.7812 39.7179 42.7822 38.5875 43.5397 38.5741H45.8843V37.4014H43.5397C42.5749 37.4014 41.79 38.1873 41.79 39.1532C41.79 40.1183 42.5741 40.9043 43.5379 40.9051L44.1362 40.9057C44.8953 40.9188 44.8962 42.0654 44.1382 42.0811V42.0811Z" fill="#1C2436"/>
<path d="M40.5669 43.2603V39.7512C40.5669 38.4579 39.5147 37.4058 38.2214 37.4058C36.9282 37.4058 35.876 38.4579 35.876 39.7512V43.2603H37.0487V42.0917H39.3942V43.2603H40.5669ZM37.0487 40.9189V39.7512C37.0487 39.1045 37.5748 38.5784 38.2214 38.5784C38.8681 38.5784 39.3942 39.1045 39.3942 39.7512V40.9189H37.0487Z" fill="#1C2436"/>
<path d="M34.7031 38.5785V37.4058H31.1841V43.2645H34.7031V42.0918H32.3568V40.9215H33.5304V39.7488H32.3568V38.5785H34.7031Z" fill="#1C2436"/>
<path d="M50.1053 43.2604V39.9438L52.0123 37.4014H50.5463L49.519 38.7711L48.4918 37.4014H47.0259L48.9326 39.9438V43.2604H50.1053Z" fill="#1C2436"/>
<path d="M27.1694 21.9541L27.6439 18.5748L28.805 18.7378L28.3305 22.1171L27.1694 21.9541Z" fill="#1C2436"/>
<path d="M24.7759 18.4287H25.9486V21.8421H24.7759V18.4287Z" fill="#1C2436"/>
<path d="M54.6399 37.3544V35.0651H38.9936C40.4006 32.9555 41.1649 30.4564 41.1649 27.9023C41.1649 20.7879 35.3769 15 28.2625 15C21.1482 15 15.3604 20.7879 15.3604 27.9023C15.3604 31.5631 16.9246 35.0654 19.652 37.511L20.4349 36.6379C17.9553 34.4144 16.5331 31.2303 16.5331 27.9023C16.5331 21.4346 21.7949 16.1727 28.2626 16.1727C34.7304 16.1727 39.9921 21.4345 39.9921 27.9023C39.9921 30.4931 39.1274 33.0217 37.5508 35.0651H31.7123L36.9768 29.8005L32.0012 24.825L34.0743 22.7519C35.6672 21.0538 33.278 18.6709 31.5866 20.2641L25.3708 26.4799C25.2446 25.2838 24.7175 24.1754 23.855 23.313C23.0102 22.2676 21.6443 21.9583 20.6175 22.9407L19.5482 24.0099L21.4029 25.8646C21.7296 26.1913 21.9096 26.6257 21.9096 27.0877V29.6601C21.9096 29.6601 27.6357 35.3734 27.7339 35.4491V39.6198C25.4266 39.5182 23.2336 38.7522 21.362 37.3884L20.6713 38.3361C22.7448 39.8472 25.1765 40.6916 27.7339 40.7939V44.4306H17.112V55H32.9441V53.8273H18.2847V45.6033L48.7761 45.6048V53.8273H36.4611V55H49.9489V45.6048H54.64V38.5271H53.4672V44.4321H28.9067V36.2378H53.4671V37.3544H54.6399ZM23.0824 29.1742C23.0588 26.3207 23.4297 26.064 21.2068 24.0099C21.5985 23.5349 22.1473 23.3059 22.6536 23.77L23.0259 24.1423C23.8654 24.9727 24.2781 26.1122 24.2278 27.2866L25.2253 28.2841L32.4161 21.0934C32.9699 20.557 33.7814 21.3694 33.2453 21.9227L30.3429 24.8251L29.0989 26.069L29.9282 26.8982L31.172 25.6542L32.0013 26.4835L30.7574 27.7274L31.5866 28.5566L32.8305 27.3127L33.6598 28.142L32.4159 29.3859L33.2451 30.2152L34.489 28.9713L35.3183 29.8005L30.7468 34.372C30.4174 34.7015 29.9794 34.8829 29.5135 34.8829C29.0476 34.8829 28.6096 34.7014 28.2802 34.372L23.0824 29.1742Z" fill="#1C2436"/>
<path d="M34.0815 53.8271H35.2543V54.9999H34.0815V53.8271Z" fill="#1C2436"/>
<path d="M40.6152 51.4488H38.252V52.6215H40.6205C42.9286 52.5386 42.9219 49.1738 40.6142 49.1007L40.0162 49.1001C39.2582 49.0857 39.2592 47.9552 40.0167 47.9418H42.3612V46.769H40.0167C39.052 46.769 38.267 47.555 38.267 48.5209C38.267 49.4859 39.0512 50.2719 40.015 50.2729L40.6131 50.2734C41.3722 50.2865 41.3733 51.4331 40.6152 51.4488V51.4488Z" fill="#1C2436"/>
<path d="M37.0821 46.7817H35.9093V50.2909C35.9093 50.9375 35.3832 51.4636 34.7366 51.4636C34.0899 51.4636 33.5638 50.9375 33.5638 50.2909V46.7817H32.3911V50.2909C32.3911 51.5842 33.4433 52.6363 34.7366 52.6363C36.0299 52.6363 37.0821 51.5842 37.0821 50.2909V46.7817Z" fill="#1C2436"/>
<path d="M47.0514 47.9437V46.771H43.5322V52.6297H47.0514V51.4569H44.705V50.2867H45.8786V49.114H44.705V47.9437H47.0514Z" fill="#1C2436"/>
<path d="M22.9758 52.6336V47.9374H24.735V46.7646H20.0439V47.9374H21.8031V52.6336H22.9758Z" fill="#1C2436"/>
<path d="M25.3213 49.1101V50.2907C25.3213 51.5839 26.3735 52.6361 27.6668 52.6361C28.96 52.6361 30.0122 51.5839 30.0122 50.2907V49.1101C30.0122 47.8168 28.96 46.7646 27.6668 46.7646C26.3735 46.7646 25.3213 47.8168 25.3213 49.1101ZM28.8396 49.1101V50.2907C28.8396 50.9373 28.3135 51.4634 27.6668 51.4634C27.0202 51.4634 26.4941 50.9373 26.4941 50.2907V49.1101C26.4941 48.4635 27.0202 47.9374 27.6668 47.9374C28.3135 47.9374 28.8396 48.4635 28.8396 49.1101Z" fill="#1C2436"/>
</g>
<defs>
<clipPath id="clip0_224_1206">
<rect width="40" height="40" fill="white" transform="translate(15 15)"/>
</clipPath>
</defs>
</svg>
