<svg width="60" height="61" viewBox="0 0 60 61" fill="none" xmlns="http://www.w3.org/2000/svg">
<g clip-path="url(#clip0_2843_2463)">
<path d="M26.3086 0.116516H33.6797C33.9492 1.28839 34.1836 2.46027 34.4297 3.63214C35.6953 3.99542 36.9023 4.49933 38.0508 5.14386C39.0586 4.48761 40.0664 3.83136 41.0625 3.17511C42.7734 4.87433 44.4844 6.58527 46.1953 8.2962C45.8438 9.11652 45.4922 9.93683 45.1406 10.7571C46.8047 10.6751 48.4805 11.2493 49.7461 12.3392C51.293 13.6517 52.2305 15.6439 52.2539 17.6712C52.2539 18.8196 52.3359 19.9915 52.043 21.1048C51.668 22.6048 50.7539 23.9642 49.5117 24.89C49.3008 25.0071 49.3711 25.2767 49.3359 25.4759C50.6133 25.7923 51.8789 26.1087 53.1563 26.4251C53.6602 26.5423 54.1289 26.7415 54.5977 26.9642C55.5586 26.4603 56.5195 25.9681 57.4688 25.4525C57.668 25.347 57.8906 25.2532 58.1367 25.265C58.7578 25.2532 59.3906 25.2767 60.0117 25.265V39.3978C54.2109 42.3157 48.4102 45.2103 42.5977 48.1048C42.6094 48.89 42.4219 49.7103 41.8945 50.3079C41.3555 50.9642 40.5352 51.3157 39.7031 51.386C39.6445 52.136 39.375 52.886 38.8125 53.4251C38.2852 53.9759 37.5352 54.2337 36.7852 54.304C36.7383 55.0657 36.4453 55.8275 35.8711 56.3548C35.3438 56.8821 34.6172 57.14 33.8789 57.1985C33.8203 57.9485 33.5508 58.6985 33 59.2259C32.5078 59.7415 31.8164 60.0228 31.1133 60.0931H30.5508C29.4844 60.0345 28.6992 59.2845 27.9492 58.6165C26.9531 59.2728 25.5703 59.2962 24.5859 58.6165C23.7773 58.1009 23.3203 57.1634 23.2266 56.2259C22.2773 56.1556 21.3516 55.6751 20.8359 54.8665C20.5195 54.4212 20.3906 53.8704 20.3203 53.3314C19.5469 53.2493 18.7852 52.9564 18.2578 52.3821C17.7422 51.8665 17.4727 51.14 17.4141 50.4251C16.5234 50.3548 15.6445 49.9329 15.1172 49.1946C14.7305 48.7025 14.5781 48.0814 14.4961 47.472C13.5234 46.8978 12.5625 46.3118 11.5898 45.7376C11.5078 46.0071 11.4375 46.2767 11.3555 46.5462C10.5703 46.4993 9.76172 46.6751 9.01172 46.3939C6.01172 45.3743 2.98828 44.4017 -0.0234375 43.3704V23.3431C0.914062 23.3431 1.85156 23.3431 2.78906 23.3431C3.01172 23.3314 3.23438 23.3782 3.41016 23.5071C4.92188 24.3978 6.43359 25.2767 7.94531 26.1556C8.83594 25.9446 9.71484 25.7103 10.6055 25.4876C10.6055 25.3235 10.5938 25.1712 10.5938 25.0071C9.14062 23.9642 8.10938 22.3001 7.82812 20.5071C7.6875 19.4993 7.74609 18.4798 7.74609 17.4603C7.75781 15.5267 8.64844 13.6282 10.125 12.386C11.4141 11.261 13.1367 10.7103 14.8359 10.7689C14.4844 9.94855 14.1445 9.12823 13.8047 8.30792C15.5039 6.58527 17.2148 4.89777 18.9258 3.18683C19.9336 3.84308 20.9414 4.49933 21.9492 5.15558C23.0977 4.52277 24.3164 4.01886 25.5703 3.65558C25.8164 2.46027 26.0625 1.28839 26.3086 0.116516ZM27.8789 2.05011C27.6562 3.1048 27.4336 4.1712 27.1992 5.22589C25.3125 5.61261 23.5195 6.37433 21.9023 7.4173C20.9883 6.83136 20.0859 6.24542 19.1836 5.64777C18.1523 6.67902 17.1211 7.71027 16.0898 8.74152C16.4414 9.6087 16.8281 10.4525 17.1797 11.3196C17.8359 11.6478 18.4688 12.0228 18.9961 12.5384C19.1016 12.6204 19.1953 12.761 19.3477 12.7728C19.7695 12.2571 20.0977 11.6595 20.5781 11.1907C22.4766 9.01105 25.1602 7.52277 28.0195 7.06573C30.0586 6.73761 32.1797 6.90167 34.125 7.6048C36.8203 8.50714 39.1172 10.4056 40.6641 12.7728C41.3086 12.1751 42.0352 11.6829 42.832 11.2962C43.1836 10.4407 43.5703 9.59698 43.9219 8.74152C42.8906 7.71027 41.8594 6.67902 40.8281 5.64777C39.9258 6.2337 39.0117 6.83136 38.1094 7.4173C36.4805 6.38605 34.6875 5.62433 32.8008 5.22589C32.5664 4.1712 32.3555 3.1048 32.1211 2.05011C30.7031 2.05011 29.2969 2.05011 27.8789 2.05011ZM27.6445 9.11652C24.6211 9.78448 21.9609 11.8704 20.543 14.6243C21.3984 16.2532 21.3398 18.14 21.2695 19.9212C21.1523 21.8665 20.1328 23.7298 18.5625 24.89C18.3164 25.0071 18.3984 25.2884 18.3984 25.4993C19.6875 25.7923 20.9648 26.1673 22.2656 26.4368C23.5547 26.1556 24.832 25.7923 26.1211 25.4993C26.1211 25.3353 26.1211 25.1712 26.1211 25.0071C24.3281 23.7767 23.2266 21.6321 23.2266 19.4642C23.2383 18.2454 23.1211 17.0032 23.4492 15.8079C23.8008 14.4134 24.6328 13.1595 25.7461 12.2689C26.9883 11.2493 28.6172 10.7103 30.2227 10.7689C31.8633 10.8157 33.4688 11.5423 34.6406 12.6907C35.9766 13.9915 36.75 15.8196 36.7734 17.6829C36.7734 18.4681 36.7969 19.2415 36.75 20.0267C36.5977 21.9368 35.5781 23.7532 34.043 24.89C33.8086 25.0071 33.8906 25.2767 33.8789 25.4876C35.168 25.7806 36.4453 26.1556 37.7461 26.4368C39.0469 26.1673 40.3242 25.7923 41.6133 25.4993C41.6133 25.2767 41.6836 25.0071 41.4375 24.8782C39.8438 23.7064 38.8242 21.7962 38.7305 19.8157C38.6953 18.9954 38.707 18.1751 38.7188 17.3431C38.7422 16.3587 39 15.3978 39.4219 14.5189C38.4141 12.7025 36.9258 11.1321 35.0859 10.1478C32.8477 8.90558 30.1406 8.51886 27.6445 9.11652ZM13.0664 12.9368C11.5547 13.4056 10.3125 14.6595 9.89062 16.1829C9.70312 16.7806 9.69141 17.4251 9.67969 18.0462C9.70312 19.0306 9.59766 20.0501 9.9375 21.011C10.3477 22.3118 11.3789 23.3431 12.5742 23.9407C12.5742 24.9603 12.5742 25.9798 12.5742 26.9993C12.3047 27.0696 12.0234 27.14 11.7539 27.2103C11.2969 27.3275 10.8398 27.4329 10.3945 27.5618C11.9883 28.511 13.6055 29.4485 15.2109 30.386C15.3281 30.4681 15.5273 30.5267 15.4688 30.7142C15.457 31.347 15.4805 31.9798 15.3867 32.6009C16.3828 32.3782 17.3789 32.1556 18.375 31.9446C18.3867 31.2181 18.3867 30.4798 18.6211 29.7767C18.832 29.0501 19.2656 28.4056 19.7695 27.8431C19.4062 27.7493 19.043 27.6556 18.6797 27.5735C17.9414 27.386 17.1914 27.1985 16.4531 27.011C16.4531 25.9915 16.4531 24.972 16.4531 23.9525C17.4961 23.4134 18.4219 22.5814 18.9141 21.4915C19.5 20.2845 19.3594 18.89 19.3477 17.5892C19.2891 15.679 18.082 13.8275 16.3125 13.0775C15.2812 12.6439 14.1094 12.597 13.0664 12.9368ZM26.2383 14.5189C25.5 15.3978 25.1602 16.5579 25.1602 17.6946C25.1836 18.8782 25.0312 20.1087 25.4883 21.222C25.9336 22.429 26.918 23.3665 28.0547 23.9407C28.0547 24.9603 28.0547 25.9798 28.0547 26.9993C26.2031 27.4681 24.3516 27.9251 22.5 28.3939C21.4922 28.6517 20.6836 29.4603 20.4023 30.4564C20.3438 30.7962 20.3086 31.136 20.2969 31.4876C22.1484 31.0657 24.082 30.9485 25.9453 31.3704C27.6211 31.7689 29.2383 32.3665 30.8789 32.8704C31.5 33.1282 32.1914 33.0579 32.8359 33.2454C34.7813 33.7845 36.7148 34.3587 38.6484 34.8978C38.9883 34.9915 39.3398 34.9798 39.668 34.8509C39.6562 33.6204 39.6797 32.39 39.668 31.1712C39.6562 30.3392 39.2813 29.5071 38.625 28.9798C38.168 28.5814 37.5938 28.4056 37.0195 28.265C35.3203 27.8431 33.6328 27.4212 31.9336 26.9993C31.9336 25.9798 31.9336 24.9603 31.9336 23.9407C33.0938 23.3548 34.0898 22.3939 34.5234 21.1517C34.9453 20.0853 34.8164 18.9251 34.8281 17.8118C34.8281 16.3704 34.2305 14.929 33.1523 13.9681C32.25 13.1243 31.0078 12.6556 29.7656 12.7259C28.4062 12.761 27.082 13.4525 26.2383 14.5189ZM41.7656 14.472C41.0039 15.3626 40.6406 16.5345 40.6523 17.7064C40.6758 18.9134 40.5234 20.179 41.0273 21.3157C41.4961 22.4876 42.457 23.3782 43.5586 23.9407C43.5586 24.9603 43.5586 25.9798 43.5586 26.9993C42.8203 27.1868 42.0703 27.3743 41.332 27.5501C40.9688 27.6439 40.6055 27.7376 40.2422 27.8196C40.6875 28.3235 41.0742 28.8743 41.3086 29.5189C41.8125 30.89 41.5664 32.3782 41.625 33.8079C45.1758 31.9446 48.7148 30.0814 52.2656 28.2064C51.7734 28.0775 51.2812 27.9603 50.7891 27.8314L50.7656 27.8431C49.6641 27.5384 48.5391 27.2806 47.4258 26.9993C47.4258 25.9798 47.4258 24.9603 47.4258 23.9407C47.9531 23.6478 48.4805 23.3196 48.9023 22.886C49.8164 21.9954 50.3203 20.7298 50.3203 19.4525C50.3086 18.3626 50.4141 17.2376 50.0625 16.1829C49.5234 14.4603 48 13.0306 46.1836 12.7728C44.543 12.5032 42.7969 13.1829 41.7656 14.472ZM1.93359 25.2767C1.93359 30.8548 1.93359 36.4212 1.93359 41.9993C3.31641 42.4681 4.69922 42.9251 6.08203 43.3821C7.25391 38.7064 8.41406 34.0189 9.59766 29.3548C7.35938 28.0189 5.08594 26.7298 2.84766 25.4056C2.58984 25.2064 2.23828 25.3001 1.93359 25.2767ZM40.0078 36.8431C39.4805 36.9485 38.918 36.8665 38.3789 36.8314C36.3633 36.2689 34.3477 35.6712 32.332 35.1204C31.3359 34.8509 30.2461 34.9681 29.3203 35.4134C27.6211 36.2454 25.9453 37.1009 24.2461 37.9446C23.9883 38.0735 23.7188 38.2025 23.5312 38.4251C22.9219 39.14 23.2266 40.4876 24.1992 40.6985C24.7266 40.886 25.2305 40.5696 25.6641 40.3001C26.7305 39.6556 27.7969 39.011 28.875 38.3782C29.9414 37.7571 31.3125 37.6985 32.4375 38.2259C33.082 38.5071 33.5859 39.011 34.1133 39.4798C36.668 41.7767 39.2227 44.0618 41.7656 46.3821C47.2031 43.6634 52.6289 40.9446 58.0664 38.2259C58.0664 34.5931 58.0664 30.972 58.0664 27.3392C52.043 30.5032 46.0312 33.679 40.0078 36.8431ZM11.3438 30.3509C10.207 34.8978 9.07031 39.4446 7.93359 43.9915C8.58984 44.2142 9.24609 44.4368 9.91406 44.6478C11.0625 40.6517 12.1992 36.6556 13.3359 32.6712C13.4297 32.3314 13.5469 32.0032 13.5703 31.6517C12.832 31.2181 12.082 30.7845 11.3438 30.3509ZM21.1055 33.304C18.9961 33.7728 16.875 34.2415 14.7656 34.7103C13.8984 37.7454 13.0312 40.7923 12.1641 43.8275C13.1484 44.4251 14.1328 45.0228 15.1172 45.6087C15.5625 45.0696 16.0898 44.6009 16.5703 44.1087C17.0391 43.6282 17.5195 43.1243 18.1758 42.9017C19.1602 42.515 20.3555 42.7142 21.1641 43.4056C21.8203 43.9446 22.1953 44.765 22.2539 45.6087C23.7773 45.6673 25.1133 46.9681 25.1484 48.5032C25.6523 48.5735 26.168 48.679 26.6016 48.9603C27.457 49.4642 28.0078 50.4251 28.0547 51.4095C28.9687 51.4681 29.8711 51.9368 30.375 52.6985C30.7266 53.3079 31.3711 53.6595 31.875 54.1282C32.4609 54.5735 32.9766 55.2298 33.7617 55.265C34.3711 55.3235 34.9219 54.7259 34.8047 54.1282C34.7695 53.7415 34.4414 53.4837 34.1719 53.2376C32.5664 51.9134 30.9727 50.5657 29.3672 49.2415C29.7773 48.7493 30.1992 48.2571 30.5977 47.765C32.2031 49.0657 33.7734 50.4017 35.3555 51.7259C35.707 52.0071 36.0586 52.3821 36.5391 52.3821C37.043 52.429 37.5938 52.1126 37.6758 51.5853C37.7812 51.1751 37.5586 50.765 37.2422 50.5071C35.5781 49.1126 33.9141 47.7415 32.25 46.347C32.6719 45.8548 33.082 45.3626 33.4922 44.8704C35.2266 46.3118 36.9492 47.765 38.6953 49.1946C39.2227 49.6751 40.2188 49.5579 40.5117 48.8665C40.7344 48.4212 40.5352 47.8939 40.1719 47.5775C37.6641 45.3157 35.1563 43.0657 32.6484 40.804C32.2383 40.4407 31.8281 40.0189 31.2773 39.89C30.7383 39.7259 30.1406 39.8548 29.6602 40.1478C28.4531 40.8509 27.2695 41.5892 26.0625 42.2923C24.8906 42.9603 23.3203 42.7728 22.3242 41.8587C20.9648 40.6751 20.8828 38.3548 22.125 37.054C22.5938 36.5384 23.25 36.2689 23.8594 35.9642C25.1953 35.2962 26.5312 34.6282 27.8672 33.9603C26.7422 33.597 25.6172 33.1985 24.4453 33.1048C23.3555 32.9525 22.2188 33.0696 21.1055 33.304ZM18.8086 44.7298C18.3867 44.9525 18.1055 45.3392 17.7656 45.6556C17.4023 46.0423 16.9922 46.3704 16.6758 46.7923C16.3125 47.261 16.4531 48.0228 16.9688 48.3275C17.3789 48.6087 17.9531 48.5267 18.3047 48.1868C18.8438 47.6712 19.3594 47.1321 19.8984 46.6165C20.2031 46.3235 20.4141 45.9017 20.2852 45.4798C20.1562 44.8353 19.3945 44.4603 18.8086 44.7298ZM21.7266 47.636C21.1875 47.929 20.8242 48.4564 20.3789 48.8548C19.9805 49.3001 19.3477 49.6985 19.3711 50.3665C19.3711 51.1282 20.2852 51.6439 20.9414 51.2571C21.4688 50.9056 21.8555 50.39 22.3242 49.9564C22.7227 49.5462 23.3086 49.136 23.2031 48.4798C23.1562 47.8118 22.3477 47.3431 21.7266 47.636ZM24.6328 50.5423C24.2578 50.7298 24 51.0696 23.6953 51.3509C23.2852 51.7962 22.793 52.1829 22.4414 52.6751C22.0195 53.2845 22.4648 54.2337 23.2148 54.2923C24 54.3978 24.4336 53.6243 24.9492 53.179C25.3828 52.6751 26.0859 52.2884 26.1328 51.5618C26.168 50.8001 25.3008 50.2259 24.6328 50.5423ZM27.457 53.4837C26.918 53.8353 26.5312 54.3509 26.0742 54.7728C25.6758 55.1829 25.0898 55.6048 25.1953 56.2493C25.2422 56.9642 26.1094 57.4212 26.7305 57.0814C27.2695 56.7298 27.6562 56.2025 28.1367 55.7806C28.5352 55.3704 29.1328 54.9368 29.0156 54.2689C28.9336 53.5657 28.0664 53.1321 27.457 53.4837ZM29.3555 57.2923C29.8125 57.6673 30.2461 58.265 30.9258 58.1829C31.4883 58.1829 31.9922 57.6556 31.9219 57.0814C31.8398 56.4017 31.1367 56.097 30.7031 55.6634C30.3867 56.3079 29.8594 56.8001 29.3555 57.2923Z" fill="#1C2436"/>
<path d="M27.8789 2.05011C29.2969 2.05011 30.7031 2.05011 32.1211 2.05011C32.3438 3.1048 32.5664 4.1712 32.8008 5.22589C34.6875 5.61261 36.4805 6.37433 38.0977 7.4173C39.0117 6.83136 39.9141 6.2337 40.8164 5.64777C41.8477 6.67902 42.8789 7.71027 43.9102 8.74152C43.5469 9.59698 43.1719 10.4407 42.8203 11.2962C42.0234 11.6829 41.3086 12.1751 40.6523 12.7728C39.0937 10.4056 36.7969 8.51886 34.1016 7.61652C32.1562 6.91339 30.0352 6.74933 27.9961 7.07745C25.1367 7.53448 22.4648 9.02277 20.5547 11.2025C20.0859 11.6829 19.7578 12.2689 19.3242 12.7845C19.1719 12.7728 19.0781 12.6321 18.9727 12.5501C18.4453 12.0345 17.8125 11.6595 17.1562 11.3314C16.8047 10.4642 16.4297 9.62042 16.0664 8.75323C17.0977 7.72198 18.1289 6.69073 19.1602 5.65948C20.0625 6.24542 20.9766 6.84308 21.8789 7.42902C23.4961 6.38605 25.2891 5.62433 27.1758 5.23761C27.4453 4.1712 27.6562 3.11652 27.8789 2.05011Z" fill="#E7D6FF"/>
<path d="M1.93359 25.2767C2.23828 25.3001 2.57812 25.2064 2.84766 25.4056C5.09766 26.7298 7.35938 28.0189 9.59766 29.3548C8.40234 34.0306 7.25391 38.7064 6.08203 43.3821C4.69922 42.9251 3.31641 42.4564 1.93359 41.9993C1.93359 36.4212 1.93359 30.8548 1.93359 25.2767Z" fill="#EBFA9E"/>
<path d="M18.691 27.5618C17.941 27.3743 17.2027 27.1868 16.4644 26.9993C16.4644 25.9798 16.4644 24.9602 16.4644 23.9407C17.5074 23.4016 18.4332 22.5696 18.9254 21.4798C19.5113 20.2727 19.3707 18.8782 19.359 17.5774C19.3004 15.6673 18.0933 13.8157 16.3238 13.0657C15.3043 12.6321 14.1441 12.5969 13.0894 12.9251C11.5777 13.3938 10.3355 14.6477 9.91365 16.1712C9.72615 16.7688 9.71443 17.4134 9.70271 18.0344C9.71443 19.0188 9.62068 20.0501 9.96052 20.9993C10.3707 22.3001 11.4019 23.3313 12.5972 23.929C12.5972 24.9485 12.5972 25.968 12.5972 26.9876C12.3277 27.0579 12.0465 27.1282 11.7769 27.1985C11.3199 27.3157 10.8629 27.4212 10.4176 27.5384C12.0113 28.4993 13.6285 29.4251 15.234 30.3626C15.3511 30.4446 15.5504 30.5032 15.4918 30.6907C15.4801 31.3235 15.5035 31.9563 15.4097 32.5774C16.4058 32.3548 17.4019 32.1321 18.398 31.9212C18.4097 31.1946 18.4097 30.4563 18.6441 29.7532C18.8551 29.0266 19.2886 28.3821 19.7926 27.8196C19.4058 27.7376 19.0426 27.6555 18.691 27.5618Z" fill="#D6FFD8"/>
<path d="M50.7773 27.8314L50.7539 27.8431C49.6523 27.5384 48.5273 27.2806 47.4141 26.9993C47.4141 25.9798 47.4141 24.9603 47.4141 23.9407C47.9414 23.6478 48.4688 23.3196 48.8906 22.886C49.8047 21.9954 50.3086 20.7298 50.3086 19.4525C50.2969 18.3626 50.4023 17.2376 50.0508 16.1829C49.5117 14.4603 47.9883 13.0189 46.1719 12.7728C44.5313 12.5032 42.7969 13.1829 41.7656 14.472C41.0039 15.3626 40.6406 16.5345 40.6523 17.7064C40.6758 18.9134 40.5234 20.179 41.0273 21.3157C41.4844 22.4876 42.457 23.3782 43.5586 23.9407C43.5586 24.9603 43.5586 25.9798 43.5586 26.9993C42.8203 27.1868 42.0703 27.3743 41.332 27.5501C40.9688 27.6439 40.6055 27.7376 40.2422 27.8196C40.6875 28.3235 41.0742 28.8743 41.3086 29.5189C41.8125 30.89 41.5664 32.3782 41.625 33.8079C45.1758 31.9446 48.7148 30.0696 52.2656 28.2064C51.7617 28.0892 51.2695 27.972 50.7773 27.8314Z" fill="#D6FFD8"/>
<path d="M39.668 31.1712C39.6562 30.3274 39.2813 29.5071 38.625 28.9798C38.1797 28.5813 37.5938 28.4055 37.0195 28.2649C35.3203 27.843 33.6328 27.4212 31.9336 26.9993C31.9336 25.9798 31.9336 24.9602 31.9336 23.9407C33.082 23.3548 34.0781 22.3938 34.5234 21.1516C34.9453 20.0852 34.8164 18.9251 34.8281 17.8118C34.8281 16.3704 34.2305 14.929 33.1523 13.9563C32.25 13.1126 31.0078 12.6438 29.7656 12.7141C28.4062 12.761 27.082 13.4407 26.2383 14.5188C25.5 15.3977 25.1602 16.5579 25.1602 17.6946C25.1836 18.8782 25.0313 20.1087 25.4883 21.222C25.9336 22.429 26.918 23.3665 28.0547 23.9407C28.0547 24.9602 28.0547 25.9798 28.0547 26.9993C26.2031 27.468 24.3516 27.9134 22.5 28.3938C21.4922 28.6516 20.6836 29.4602 20.4023 30.4563C20.3438 30.7962 20.3086 31.136 20.2969 31.4876C22.1484 31.0657 24.082 30.9485 25.9453 31.3704C27.6211 31.7688 29.2383 32.3665 30.8789 32.8704C31.5 33.1282 32.1914 33.0579 32.8359 33.2454C34.7813 33.7845 36.7148 34.347 38.6484 34.8977C38.9883 34.9915 39.3398 34.9798 39.668 34.8626C39.668 33.6321 39.6914 32.4016 39.668 31.1712Z" fill="#D6FFD8"/>
<path d="M40.007 36.8431C46.0304 33.679 52.0422 30.515 58.0539 27.3509C58.0539 30.9837 58.0539 34.6048 58.0539 38.2376C52.6164 40.9564 47.1906 43.6751 41.7531 46.3939C39.2101 44.0853 36.6554 41.8001 34.1008 39.4915C33.5851 39.0228 33.0812 38.5189 32.425 38.2376C31.3 37.7103 29.9289 37.7689 28.8625 38.39C27.7844 39.0228 26.7297 39.6673 25.6515 40.3118C25.2179 40.5931 24.714 40.8978 24.1867 40.7103C23.2258 40.4876 22.9094 39.1517 23.5187 38.4368C23.7062 38.2142 23.9758 38.0853 24.2336 37.9564C25.9211 37.1243 27.6086 36.2571 29.3078 35.4251C30.2336 34.9681 31.3234 34.8626 32.3195 35.1321C34.3351 35.6946 36.3508 36.2923 38.3664 36.8431C38.9172 36.8665 39.4797 36.9368 40.007 36.8431Z" fill="#FFEFEB"/>
<path d="M18.8084 44.7298C19.3826 44.4603 20.156 44.8353 20.2732 45.4681C20.4021 45.89 20.1912 46.3236 19.8865 46.6048C19.3592 47.1322 18.8435 47.6712 18.2928 48.1751C17.9412 48.515 17.367 48.597 16.9568 48.3157C16.4412 48.0111 16.3006 47.2493 16.6639 46.7806C16.992 46.3704 17.4021 46.0306 17.7537 45.6439C18.1053 45.3392 18.3982 44.9525 18.8084 44.7298Z" fill="#FFEFEB"/>
<path d="M21.726 47.636C22.3471 47.3431 23.1557 47.8118 23.2026 48.5032C23.2963 49.1478 22.7104 49.5579 22.3237 49.9798C21.8549 50.4017 21.4682 50.929 20.9409 51.2806C20.2846 51.6556 19.3823 51.1399 19.3705 50.3899C19.3354 49.7103 19.9682 49.3235 20.3784 48.8782C20.8237 48.4564 21.187 47.929 21.726 47.636Z" fill="#FFEFEB"/>
<path d="M24.6327 50.5423C25.3124 50.2259 26.1679 50.8118 26.121 51.5501C26.0741 52.2767 25.371 52.6634 24.9374 53.1673C24.4218 53.6126 23.9882 54.3861 23.2031 54.2806C22.4531 54.2337 22.0195 53.2728 22.4296 52.6634C22.7929 52.1712 23.2734 51.7845 23.6835 51.3392C23.9882 51.0579 24.2577 50.7181 24.6327 50.5423Z" fill="#FFEFEB"/>
<path d="M27.4578 53.4837C28.0672 53.1321 28.9461 53.5657 29.0047 54.2806C29.1219 54.9368 28.5359 55.3704 28.1258 55.7923C27.657 56.2259 27.2703 56.7532 26.7195 57.0931C26.0984 57.4446 25.2312 56.9759 25.1844 56.261C25.0789 55.6165 25.6648 55.1946 26.0633 54.7845C26.532 54.3509 26.9187 53.8352 27.4578 53.4837Z" fill="#FFEFEB"/>
<path d="M11.3438 30.3509C12.082 30.7845 12.832 31.2181 13.5703 31.6517C13.5469 32.0032 13.4297 32.3314 13.3359 32.6712C12.1875 36.6673 11.0508 40.6634 9.91406 44.6478C9.24609 44.4368 8.58984 44.2142 7.93359 43.9915C9.07031 39.4446 10.207 34.8978 11.3438 30.3509Z" fill="#E6E9ED"/>
<path d="M21.1055 33.304C22.207 33.0696 23.3555 32.9642 24.4805 33.0931C25.6641 33.1868 26.7891 33.5853 27.9023 33.9485C26.5781 34.6282 25.2305 35.2845 23.8945 35.9524C23.2852 36.2571 22.6289 36.5267 22.1602 37.0423C20.918 38.3431 21 40.6634 22.3594 41.847C23.3438 42.761 24.9258 42.9485 26.0977 42.2806C27.3047 41.5774 28.4883 40.8392 29.6953 40.136C30.1758 39.8548 30.7617 39.7259 31.3125 39.8782C31.8633 40.0071 32.2734 40.429 32.6836 40.7923C35.1914 43.054 37.6992 45.304 40.207 47.5657C40.5703 47.8704 40.7578 48.3978 40.5469 48.8548C40.2539 49.5462 39.2578 49.6634 38.7305 49.1829C36.9961 47.7415 35.2734 46.3001 33.5273 44.8587C33.1172 45.3509 32.707 45.8548 32.2852 46.3353C33.9375 47.7298 35.6133 49.1126 37.2773 50.4954C37.5938 50.7415 37.8164 51.1517 37.7109 51.5735C37.6289 52.1009 37.0781 52.4173 36.5742 52.3704C36.082 52.3821 35.7422 51.9954 35.3906 51.7142C33.7969 50.4017 32.2266 49.0657 30.6328 47.7532C30.2344 48.2571 29.8125 48.7376 29.4023 49.2298C31.0078 50.5657 32.6016 51.9017 34.207 53.2259C34.4883 53.4603 34.8047 53.7181 34.8398 54.1165C34.957 54.7142 34.4062 55.3118 33.7969 55.2532C33.0117 55.2181 32.4961 54.5618 31.9102 54.1165C31.4062 53.6478 30.7617 53.2962 30.4102 52.6868C29.8945 51.9251 28.9922 51.4564 28.0898 51.3978C28.043 50.4017 27.4922 49.4525 26.6367 48.9485C26.2031 48.6673 25.6875 48.5618 25.1836 48.4915C25.1484 46.9564 23.8125 45.6556 22.2891 45.597C22.2305 44.765 21.8555 43.9329 21.1992 43.3939C20.3906 42.7024 19.207 42.5032 18.2109 42.89C17.5664 43.1126 17.0742 43.6165 16.6055 44.097C16.125 44.6009 15.5977 45.0696 15.1523 45.597C14.168 45.011 13.1836 44.4134 12.1992 43.8157C13.0664 40.7806 13.9336 37.7337 14.8008 34.6985C16.875 34.2415 18.9961 33.7728 21.1055 33.304Z" fill="#FFF7D6"/>
<path d="M29.3555 57.2923C29.8594 56.8001 30.3867 56.3196 30.6914 55.6751C31.1367 56.097 31.8281 56.4134 31.9102 57.0931C31.9805 57.6673 31.4883 58.1946 30.9141 58.1946C30.2461 58.2532 29.8125 57.6673 29.3555 57.2923Z" fill="#FFF7D6"/>
</g>
<defs>
<clipPath id="clip0_2843_2463">
<rect width="60" height="60" fill="white" transform="translate(0 0.116516)"/>
</clipPath>
</defs>
</svg>
