<svg width="348" height="273" viewBox="0 0 348 273" fill="none" xmlns="http://www.w3.org/2000/svg">
<rect width="348" height="273" rx="4" fill="white"/>
<g clip-path="url(#clip0_2378_292)">
<path d="M269.514 26.8591C271.027 26.001 272.857 25.7346 274.359 24.8436C272.732 25.4825 270.847 25.6945 269.514 26.8591Z" fill="#FFEFEB"/>
<path d="M278.879 23.3838C277.897 23.4296 276.996 23.8164 275.701 24.451C277.663 24.1388 277.663 24.1388 278.879 23.3838Z" fill="#FFEFEB"/>
<path d="M302.465 22.5377C301.428 22.6394 300.425 22.7296 298.931 23.433C300.292 23.625 301.366 22.9932 302.465 22.5377Z" fill="#FFEFEB"/>
<path d="M299.693 25.1994C301.025 24.8843 302.059 24.562 303.002 23.976C302.013 24.4302 300.718 24.1049 299.693 25.1994Z" fill="#FFEFEB"/>
<path d="M115.822 77.8575C116.006 77.5352 116.147 77.3017 116.21 77.0581C116.21 77.0581 115.735 77.0753 115.537 77.1441C114.988 77.3718 114.793 77.6612 115.038 77.8346C115.127 77.8775 115.447 77.8403 115.822 77.8575Z" fill="#FFEFEB"/>
<path d="M259.714 27.273C260.461 26.9764 261.208 26.6799 261.9 26.3289C262.119 26.2158 262.291 25.8605 262.191 25.7846C261.946 25.6112 261.352 25.8175 260.902 26.0109C260.605 26.114 259.792 26.4335 260.123 26.4292C262.056 26.4593 259.116 27.1483 259.714 27.273C259.175 27.4234 258.577 27.2987 258.185 27.7672C258.131 27.8231 258.463 27.9291 258.673 27.8933C259.368 27.8732 259.818 27.6798 259.714 27.273Z" fill="#FFEFEB"/>
<path d="M263.923 26.5123C264.815 26.3132 265.34 25.9092 265.799 25.5281C264.996 25.7702 264.17 25.9464 263.923 26.5123Z" fill="#FFEFEB"/>
<path d="M240.538 30.2794C241.845 29.6777 243.567 29.6334 244.867 28.4802C243.184 29.0646 241.799 29.5459 240.447 30.0158C239.898 30.2436 238.841 30.5 238.954 30.7192C239.123 30.9928 239.98 30.6948 240.538 30.2794Z" fill="#FFEFEB"/>
<path d="M138.457 69.698C137.58 70.2609 136.274 70.0131 135.61 70.7609C135.534 70.8612 135.613 70.9815 135.723 70.9801C136.971 70.9529 137.602 70.2165 138.457 69.698Z" fill="#FFEFEB"/>
<path d="M183.832 48.5783C182.986 48.9092 183.66 48.9335 183.783 49.0754C184.678 49.0969 185.481 48.8548 186.203 48.2717C185.853 47.6915 184.69 48.2803 183.832 48.5783Z" fill="#FFEFEB"/>
<path d="M163.128 56.5472C162.246 56.6689 161.242 56.7592 160.545 57.5184C161.65 57.6144 162.316 56.9769 163.128 56.5472Z" fill="#FFEFEB"/>
<path d="M180.616 49.2155C180.637 49.1711 180.427 49.0966 180.283 49.1095C179.588 49.1295 179.206 49.5206 178.701 49.7699C177.62 49.8501 176.697 50.171 175.624 50.913C176.858 50.7426 177.825 50.3329 178.77 49.9676C179.43 49.7384 180.191 49.6954 180.616 49.2155Z" fill="#FFEFEB"/>
<path d="M146.34 62.4907C145.206 62.7371 144.338 63.1124 143.761 63.7929C145.297 63.8502 145.819 63.2256 146.34 62.4907Z" fill="#FFEFEB"/>
<path d="M141.271 65.9877C140.972 65.9805 140.729 65.9175 140.409 65.9547C140.023 66.0149 139.683 66.2068 139.576 66.4289C139.623 66.671 140.063 66.555 140.393 66.4404C140.69 66.3372 140.997 66.1567 141.271 65.9877Z" fill="#FFEFEB"/>
<path d="M167.037 59.2878C165.859 59.5127 164.968 59.8221 164.125 60.3737C165.138 60.2061 166.165 60.1817 167.037 59.2878Z" fill="#FFEFEB"/>
<path d="M120.025 70.3781C121.137 70.0658 121.762 69.7377 122.23 69.169C121.283 69.424 120.436 69.6446 120.025 70.3781Z" fill="#FFEFEB"/>
<path d="M142.914 65.8228C141.85 66.3772 141.17 66.7611 140.205 67.2811C141.931 66.7182 141.931 66.7182 142.914 65.8228Z" fill="#FFEFEB"/>
<path d="M174.082 51.264C173.552 51.2268 173.024 51.4101 172.323 51.8385C173.051 51.807 173.515 51.8672 174.085 51.4847C174.151 51.4617 174.16 51.2741 174.082 51.264Z" fill="#FFEFEB"/>
<path d="M152.598 60.501C153.204 60.3276 153.962 60.0641 153.937 59.7775C153.865 59.3592 153.043 59.8663 152.582 60.0268C152.153 60.1758 151.77 60.4565 151.331 60.6829C150.925 60.8978 150.079 61.2287 150.555 61.3218C151.274 61.478 151.817 60.6986 152.598 60.501Z" fill="#FFEFEB"/>
<path d="M164.545 57.7534C165.163 57.7234 165.943 57.4154 166.49 56.967C166.236 56.9813 165.993 57.0286 165.773 57.0314C165.704 56.8337 166.536 56.2493 165.677 56.4369C165.435 56.4842 164.2 56.6546 164.074 57.1417C164.042 57.2635 164.671 57.2664 164.981 57.3065C164.674 57.487 164.082 57.8036 164.545 57.7534Z" fill="#FFEFEB"/>
<path d="M176.669 51.4732C176.469 51.4317 176.181 51.3471 176.082 51.3815C175.742 51.5735 175.48 51.7755 175.217 51.9775C175.471 51.9631 175.713 51.9159 176 51.8901C176.241 51.7325 176.449 51.5864 176.669 51.4732Z" fill="#FFEFEB"/>
<path d="M294.765 30.2722C294.831 30.2493 294.864 30.2378 294.93 30.2149C294.897 30.2264 294.819 30.2163 294.786 30.2278C294.786 30.2278 294.753 30.2393 294.765 30.2722C294.753 30.2393 294.765 30.2722 294.765 30.2722Z" fill="#FFEFEB"/>
<path d="M174.654 95.7851C172.278 95.6503 171.123 96.901 168.846 97.5814C171.284 97.4726 172.687 96.6159 174.654 95.7851Z" fill="#FFEFEB"/>
<path d="M309.675 27.8614C311.05 27.4575 312.181 26.9905 312.834 26.2097C313.011 26.1854 313.187 26.161 313.352 26.1037C314.192 26.1811 315.075 26.1696 315.795 26.3258C316.238 26.4304 316.446 26.2843 316.708 26.0823C316.883 25.9476 317.001 25.6482 317.001 25.6482C316.096 25.7041 316.206 24.7428 314.549 25.6138C314.538 25.5808 314.439 25.6152 314.428 25.5823L295.528 32.1489C295.45 32.1388 295.34 32.1403 295.229 32.1417C294.766 32.1918 294.305 32.3523 294.373 32.55L291.57 33.5241C292.103 32.9324 290.258 33.6845 290.177 33.4538C290.019 33.1028 290.287 32.4926 288.715 33.0756C288.527 33.067 288.295 33.0369 288.107 33.0283C287.177 32.7976 289.311 32.1301 288.633 31.7748C287.797 32.0283 286.873 32.3492 285.938 32.6371C286.309 31.3636 288.864 30.845 290.322 29.9325C291.642 29.5844 291.811 28.8982 293.251 28.361C291.123 28.6203 289.503 29.8107 287.956 29.7204C288.065 29.6087 288.141 29.5084 288.25 29.3967C288.602 29.2376 288.953 29.0786 289.337 28.9082C290.426 28.53 291.615 28.2277 292.534 27.5759C293.974 27.0387 295.636 26.609 296.854 25.9643C298.225 25.2295 296.706 25.6463 296.309 25.6735C297.5 24.632 299.575 24.539 301.086 23.5706C298.048 24.294 295.392 25.5861 292.051 26.9312C293.08 26.1677 294.016 25.9901 294.199 25.5574C294.242 25.4686 294.263 25.4242 294.24 25.3583C295.164 25.0374 296.12 24.7051 297.033 24.3512C297.165 24.3054 297.239 24.0948 297.348 23.9831C297.073 24.0418 296.765 24.112 296.489 24.1707C295.618 24.2151 294.779 24.248 293.907 24.2924C294.201 23.9687 295.235 23.6464 295.01 23.3183C294.943 23.2309 294.371 23.3928 294.018 23.4415C293.017 23.7523 292.06 24.0847 291.06 24.3955C290.565 24.5674 290.059 24.7064 289.597 24.8668C289.079 24.9728 288.55 25.0459 288.032 25.1519C286.654 25.3352 286.44 24.0802 284.148 25.3566C283.101 25.5357 282.02 25.6159 281.18 26.388C278.94 26.5384 276.416 27.7847 274.176 27.9351C273.888 27.8506 273.633 27.7546 273.345 27.67C272.404 27.5167 271.648 28.0009 270.859 28.4966C268.237 28.9277 265.843 30.0179 263.438 31.0751C262.18 31.1796 260.895 31.7369 259.631 32.1394C259.54 31.9861 259.417 31.8443 259.338 31.724C260.573 31.5535 261.591 30.8673 262.757 30.4992C263.318 30.3043 264.221 30.1382 264.25 29.7958C264.322 29.3646 263.4 29.7958 262.882 29.9018C262.254 30.0092 262.12 29.8344 261.952 29.6711C261.929 29.6052 261.885 29.5837 261.862 29.5178C262.893 28.9749 263.181 29.9089 264.308 29.111C264.826 29.005 265.401 29.0638 265.837 28.6168C266.142 28.326 266.041 28.1397 265.5 28.1798C265.728 27.879 266.134 27.6641 266.663 27.5911C267.082 27.5195 267.034 28.1269 267.843 27.4765C267.964 27.3977 268.028 27.2645 268.006 27.1986C267.825 26.892 267.22 27.0653 266.626 27.2716C265.769 27.5696 264.878 27.879 264.032 28.2099C260.723 29.4333 257.267 30.3386 254.095 31.847L254.062 31.8585C253.787 31.9172 253.523 32.0089 253.315 32.155C250.85 32.8269 248.406 33.4543 245.941 34.1261C245.93 34.0932 245.907 34.0273 245.895 33.9943C246.642 33.6978 247.113 33.3497 246.921 33.0101C248.551 32.7022 250.104 32.3842 250.444 31.2324C250.806 31.1063 251.125 30.9588 251.488 30.8327C252.666 30.6078 253.622 30.1652 254.398 29.5262C255.103 29.4288 255.716 29.9174 256.556 29.0349C257.134 28.4647 256.515 28.3845 255.775 28.3831C255.366 28.3773 254.958 28.3716 254.549 28.3658C253.197 28.8357 251.811 29.317 250.459 29.7869C250.261 29.8556 250.063 29.9244 249.832 30.0046C248.669 30.5934 247.386 30.4114 246.236 31.1435C245.385 31.1434 244.492 31.2322 244.65 30.6234C245.244 30.4171 245.838 30.2108 246.431 30.0045C248.171 29.5848 249.774 28.88 251.399 28.1308C248.703 28.8829 245.996 29.602 243.3 30.354C241.748 30.7823 239.389 31.1218 238.534 32.4899L238.567 32.4785C237.972 32.5744 237.408 32.5486 236.739 32.8552C236.541 32.9239 236.31 33.0042 236.1 33.04C236.012 32.997 235.956 32.9426 235.921 32.8437C235.76 32.2721 235.905 31.52 233.741 32.4196C233.517 32.2018 233.001 32.4182 232.528 32.5456C231.402 32.6044 230.357 32.8937 229.493 33.6C229.328 33.6573 229.163 33.7146 228.999 33.7719C227.728 33.7332 226.456 34.4337 225.203 34.8692C224.609 35.0754 224.015 35.2817 223.454 35.4765C221.471 35.8332 219.444 36.1684 217.97 37.5666C218.015 37.5881 218.158 37.5752 218.236 37.5852C218.203 37.5967 218.17 37.6081 218.137 37.6196L218.003 37.5551C217.553 37.7485 217.157 37.886 216.858 37.7685C216.912 37.7127 216.967 37.6568 216.988 37.6124C216.977 37.5794 216.921 37.525 216.855 37.5479C215.6 37.8731 214.345 38.1983 213.124 38.512C212.695 38.661 212.299 38.7985 211.87 38.9475C210.77 39.2927 209.837 39.6909 209.624 40.3557C209.019 40.529 208.392 40.7467 207.787 40.9201C207.122 40.708 205.851 41.5188 205.207 41.2624C204.676 41.1148 204.006 41.4214 203.346 41.6506C202.95 41.7881 202.522 41.9371 202.126 42.0746C199.836 42.6118 198.663 44.2377 196.284 44.7319C195.778 44.8709 195.361 45.0528 195.132 45.3537C194.517 45.6043 193.813 45.8121 193.464 46.1917C193.267 46.2604 193.08 46.3622 192.882 46.4309C192.748 46.2561 192.854 45.9238 192.193 46.0427C192.06 45.9782 191.971 45.9352 191.837 45.8707C192.463 45.5427 193.077 45.1817 194.349 44.4812C192.799 45.0198 192.007 45.2948 191.215 45.5699C189.225 46.2245 190.848 46.2146 190.807 46.524C190.204 46.8076 189.355 46.9179 189.151 47.395C188.987 47.5626 188.824 47.7302 188.66 47.8978C188.264 48.0353 187.836 48.1843 187.428 48.2889L187.427 48.1786C187.008 48.2502 186.59 48.3218 186.204 48.382C185.379 48.6685 184.576 48.9106 183.785 49.1856C183.819 49.2844 183.82 49.3948 183.855 49.4936C183.855 49.4936 183.889 49.5925 183.879 49.6698C183.418 49.9406 183.466 50.1827 183.501 50.3918C181.885 50.9534 180.146 51.3731 178.71 52.2412C176.46 54.2783 180.802 51.7728 180.282 52.618C180.317 52.7169 180.351 52.8157 180.385 52.9146C179.572 53.234 178.603 53.4231 178.025 53.9933C176.837 54.4058 175.617 54.8299 174.397 55.2539C174.464 55.3413 174.498 55.4401 174.566 55.5275C175.093 55.3441 175.621 55.1608 176.149 54.9774C176.437 55.062 177.108 54.8657 177.068 55.1751C176.21 55.4731 175.241 55.6622 174.751 56.2753C174.302 56.579 173.796 56.718 173.203 56.9243C171.619 57.4743 169.749 58.0502 169.718 59.1318C169.082 59.4269 168.445 59.722 167.808 60.0171C166.959 60.1274 166.178 60.3251 165.588 60.8623C164.368 61.2863 163.035 61.6015 161.973 62.2662C160.994 62.6429 160.028 63.0526 159.083 63.4179C158.181 63.6944 157.234 63.9494 156.579 64.5095C155.292 64.9564 154.929 65.932 153.332 66.2285C153.276 66.1741 153.208 66.0867 153.086 66.0552C152.965 65.1741 151.422 66.2643 150.682 66.2629C150.461 66.2657 150.196 66.2471 149.975 66.2499C148.733 66.7184 147.433 66.9118 146.248 67.5449C145.062 68.0678 143.887 68.6236 142.734 69.135C142.992 69.4516 143.999 68.7325 144.181 69.1494C143.389 69.4244 142.597 69.6995 141.806 69.9745C139.467 70.1593 137.232 70.6406 135.418 72.2307C134.533 72.9814 134.166 72.7765 133.831 72.4499C133.75 72.1089 133.297 72.0817 132.538 72.3453C131.602 72.5229 131.988 71.6132 130.691 72.1375C129.439 72.6833 132.25 72.2607 130.602 72.944C130.404 73.0128 130.262 73.136 130.076 73.2377C128.353 74.1316 126.808 75.1115 124.527 75.461C123.678 75.5713 122.06 76.0225 121.276 76.8491C120.375 77.2359 119.081 77.9808 118.595 77.965C115.989 77.9105 114.362 79.399 112.374 80.2742C111.922 80.3573 111.318 80.641 111.017 80.4132C112.466 79.6883 113.252 78.972 112.979 78.2915C113.13 77.9806 113.236 77.6483 113.387 77.3374C114.474 76.8489 115.172 76.2 114.519 76.0209C113.865 75.8418 113.797 76.6039 113.182 76.8546C111.69 77.6683 110.143 78.4276 108.337 78.8702C107.843 79.0421 107.303 79.1925 106.809 79.3644C104.174 80.6121 102.233 80.7697 100.885 79.8714C101.899 79.7038 102.912 79.4259 103.434 78.8013C103.543 78.6896 103.206 78.2526 102.281 78.4632C100.916 78.7898 100.126 79.1751 100.355 79.8341C99.0914 80.347 98.0185 81.089 96.6318 81.4601C96.6176 81.2065 96.6034 80.9529 96.6223 80.6879C96.746 79.9802 96.746 79.9802 94.4957 81.0574C93.1837 81.2179 91.4214 81.5717 92.8733 80.2179C93.2563 79.9371 93.9489 79.6965 93.9119 79.377C93.2838 79.4844 92.6571 79.7022 92.019 79.8869C89.3802 80.8037 86.7859 81.742 84.1472 82.6588C81.1786 83.6902 78.1771 84.7331 75.2085 85.7645C72.8006 86.6011 70.4143 87.3933 68.0065 88.2299C66.9812 88.3645 66.0604 88.906 65.0924 89.2054C62.7121 89.5893 60.4921 90.4344 58.3751 91.5762C58.7076 91.6822 59.1923 91.5877 59.6871 91.4158C59.6871 91.4158 59.6541 91.4272 59.6211 91.4387C59.267 91.3771 58.8369 91.4157 58.3421 91.5876C54.9548 92.6907 51.9472 94.1418 49.0514 95.7019C47.4622 96.6602 46.4909 97.5885 46.3369 98.5283C45.8105 98.822 45.0061 98.9538 44.7577 99.4093C43.7581 99.8305 43.8066 100.183 43.9211 100.512C43.0212 101.859 40.7306 103.246 40.4817 104.551C40.0213 104.822 40.1674 105.029 40.1586 105.217C39.4458 105.612 38.2428 105.661 37.8868 106.339C36.4611 107.129 37.4918 107.436 37.2118 108.013C36.6753 108.384 35.5081 108.642 35.5364 109.149C35.0686 109.718 34.1102 110.79 34.265 110.81C36.883 110.897 34.5654 111.887 33.6473 112.649C33.6399 112.947 33.6211 113.212 33.5807 113.522C33.3943 113.623 33.1849 113.659 33.0429 113.782C32.6814 114.019 33.0571 114.036 33.1776 113.957C33.714 113.586 35.2738 113.82 34.9876 112.996C35.1397 112.795 35.2918 112.595 35.411 112.406C35.7623 112.247 36.1137 112.088 36.5095 111.95C36.6529 111.937 36.8293 111.913 36.9942 111.856C37.3153 111.929 37.6364 112.002 37.9791 112.03C38.0134 112.129 38.0478 112.228 38.0707 112.294C37.9529 112.593 38.2626 112.634 38.7042 112.628C38.8947 112.857 38.7783 113.267 39.6056 113.201C39.7403 113.376 39.842 113.562 40.404 113.477C40.6344 114.247 42.9904 113.687 43.3082 114.389C42.3909 116.111 38.8341 117.789 38.3583 119.506C36.2959 120.592 36.6682 121.238 37.2614 121.881C37.1624 121.915 37.0965 121.938 37.0089 122.006L34.733 122.796C34.8434 122.795 34.9754 122.749 35.0528 122.759C34.7614 123.303 33.5753 123.826 33.4717 124.379C33.3695 125.043 33.2874 125.551 35.0187 124.47C36.6134 123.952 38.1966 123.402 39.7583 122.897C40.8765 123.136 41.6444 121.835 42.8487 121.897C42.074 122.646 42.0162 123.331 40.8329 124.074C39.3055 124.679 38.9394 125.434 38.308 126.17C36.3849 126.912 34.3055 127.524 33.2279 128.785C33.3094 129.125 33.3909 129.466 33.4724 129.807C33.5593 130.59 31.5184 131.631 31.8261 132.41C31.8174 132.598 31.8087 132.786 31.7885 132.94C30.9129 134.463 31.4117 134.622 34.3272 133.757C35.5045 133.422 36.669 132.943 37.7845 132.962C38.4422 133.472 39.0886 133.949 39.7463 134.459C39.2516 134.631 38.8786 134.835 38.7164 135.112C36.561 135.824 38.0407 135.827 38.4076 136.032C38.4318 136.208 38.4561 136.385 38.4803 136.561C38.7914 136.711 39.375 136.582 39.9371 136.498C39.517 136.459 39.1185 136.376 38.4803 136.561C37.6969 137.498 37.8471 138.036 39.6121 137.903C39.7596 138.221 38.4887 139.032 40.0431 138.824C40.7142 138.628 41.1343 138.667 41.3033 138.94C41.1054 139.009 40.9075 139.078 40.7654 139.201C40.4026 139.327 39.8263 139.158 39.6884 139.612C39.5505 140.066 40.0035 140.094 40.8611 139.796L40.818 139.884L40.9399 139.916C40.9742 140.015 40.9971 140.081 40.9985 140.191C40.8706 140.568 41.0941 140.786 41.8312 140.566C46.2667 139.395 50.7021 138.223 55.1375 137.051C59.8193 136.163 64.3455 134.295 68.9088 132.747C69.2056 132.643 69.1484 132.479 68.7957 132.527C68.8319 131.887 67.5987 132.168 66.77 132.123C67.5374 131.672 68.9672 131.212 67.6497 130.931C67.5494 130.855 67.4491 130.78 67.3818 130.692C68.8808 129.58 66.5375 130.284 66.4231 129.954C66.4217 129.844 66.4318 129.767 66.4304 129.656C67.8676 128.899 68.6008 130.158 70.2089 128.934C70.9689 128.781 71.6057 128.486 72.0418 128.039C72.2324 128.268 73.061 128.313 73.2017 128.079C73.7502 126.892 75.4836 126.88 76.6926 126.423C76.7155 126.489 76.7714 126.544 76.8387 126.631C76.9883 128.019 79.3597 126.014 80.2571 126.256C80.4233 126.309 80.5782 126.329 80.7444 126.382C80.9996 126.478 81.2547 126.574 81.5213 126.703C80.6302 127.862 82.3844 126.846 82.8704 126.862C83.6446 126.962 84.0693 126.482 84.6286 126.177C85.3813 126.322 86.1669 126.455 87.0951 125.615C87.1933 124.621 88.9926 124.587 89.9694 124.1C90.0252 124.154 90.0926 124.242 90.1485 124.296C90.0334 124.816 90.4548 124.965 91.5662 124.653C92.8594 124.757 94.236 124.464 95.6947 123.662C98.2939 124.014 99.3393 123.725 101.438 121.998C102.834 122.4 103.698 120.844 104.946 120.817C106.57 120.917 108.288 120.542 110.11 119.613C110.472 119.487 110.824 119.328 111.22 119.191C113.065 119.288 114.045 118.172 115.373 117.526C115.855 117.211 117.071 117.306 116.943 116.833C116.85 116.459 115.895 116.902 115.303 117.218C114.534 117.559 113.777 117.933 113.008 118.274C113.331 117.608 111.166 118.397 111.543 117.675C112.885 117.283 114.249 116.846 115.52 116.035C113.755 116.168 112.116 116.664 110.467 117.237C110.104 117.363 109.741 117.489 109.411 117.603C108.816 117.699 108.616 117.548 108.601 117.294C108.986 117.123 109.415 116.975 109.81 116.837C110.943 116.48 112.065 116.091 113.231 115.723C114.167 115.545 115.138 115.466 115.769 114.73C116.94 113.843 119.049 113.849 120.04 112.766C120.183 112.753 120.315 112.707 120.469 112.617C120.494 112.903 120.411 113.302 121.062 113.26C121.537 113.243 121.852 112.875 122.059 112.618C123.236 112.283 124.398 111.584 125.558 111.624L125.668 111.623C125.975 111.442 126.271 111.229 126.611 111.037C127.878 110.855 129.16 110.927 130.463 109.994C131.795 109.679 133.048 109.243 133.999 108.47C135.052 107.882 135.014 107.453 134.766 107.059C135.5 106.619 134.585 106.752 134.627 106.553C135.186 106.248 135.746 105.943 136.305 105.638C136.503 105.569 136.712 105.533 136.943 105.453C138.799 105.473 140.593 104.148 142.411 103.848C142.469 104.013 142.526 104.178 142.583 104.343C142.201 104.734 141.775 105.103 141.164 105.685C142.582 105.192 143.605 104.837 144.627 104.482C144.335 104.916 144.978 105.172 144.234 105.689C143.785 105.993 143.227 106.408 143.868 106.444C144.586 106.49 144.801 106.046 145.14 105.744C145.887 105.447 146.601 105.162 147.349 104.866C149.791 104.128 147.682 105.931 149.104 105.77C149.709 105.596 149.983 105.427 149.727 105.221C150.495 103.92 153.074 103.578 154.553 102.621C153.731 102.168 153.036 103.148 152.286 103.224C151.313 103.082 150.283 103.735 149.315 104.035C148.655 104.264 148.007 104.526 147.314 104.767C147.138 104.791 146.994 104.804 146.851 104.817C146.959 104.595 147.066 104.373 147.141 104.162C147.414 103.883 147.686 103.604 147.959 103.324C148.532 103.273 149.117 103.254 149.691 103.202C150.472 103.005 151.265 102.84 151.967 102.412C152.933 102.002 154.258 101.985 154.933 101.16C155.329 101.022 155.724 100.885 156.153 100.736C157.131 100.359 158.154 100.004 159.132 99.6269C159.925 99.4622 161.042 99.5911 161.376 98.9579C161.721 98.2474 160.086 99.0739 159.532 98.9708C159.41 98.9392 159.18 99.0195 158.97 99.0553C158.924 98.9235 158.879 98.7917 158.833 98.6599C159.031 97.7416 160.695 97.4222 161.74 97.1328C162.95 96.7861 164.05 96.4409 165.17 95.941C166.602 95.5914 167.942 95.0886 169.305 94.5414C169.338 94.5299 169.326 94.497 169.326 94.497C170.613 94.05 171.956 93.7679 173.186 93.1562C173.35 93.0989 173.482 93.053 173.647 92.9957C177.183 92.321 180.602 91.0963 183.986 89.6623C183.902 90.0606 185.303 89.9431 184.329 90.6508C183.867 90.8112 183.361 90.9502 182.899 91.1106C182.897 90.89 182.673 90.6723 182.135 90.933C181.817 91.0805 181.666 91.3914 181.459 91.6478C181.065 91.8957 180.659 92.1105 180.265 92.3584C180.101 92.526 180.124 92.5919 180.389 92.6105C181.148 92.3469 181.906 92.0833 182.665 91.8198C182.943 91.9817 182.751 92.4917 183.377 92.2739C184.169 91.9989 183.547 91.698 183.918 91.3843C184.116 91.3155 184.314 91.2468 184.545 91.1665C185.664 90.5563 186.953 90.33 188.14 89.9174C188.992 90.0277 185.493 91.0219 187.81 90.8815C188.24 90.8429 188.67 90.8042 189.1 90.7655C188.22 90.9976 187.384 91.2511 187.534 91.7898C188.386 91.9001 189.27 91.999 190.11 92.0764C191.361 92.2698 192.291 91.6509 193.199 90.9662C194.199 90.545 195.1 90.1582 194.663 89.6454C195.32 89.1955 196.395 88.6741 194.982 88.6483C194.727 88.5523 194.471 88.4563 194.216 88.3603C194.424 88.2142 194.621 88.0351 194.862 87.8775C195.394 88.0251 196.075 87.7515 196.735 87.5223C198.194 87.6799 199.062 86.4551 200.384 86.2173C201.121 85.9981 201.629 85.9695 201.216 86.4823C200.557 87.6714 201.952 87.1127 203.217 86.7102C204.562 86.5383 205.768 85.8607 207.01 85.3922C207.505 85.2203 207.967 85.0599 208.462 84.888C209.643 84.8837 210.571 84.0443 211.661 83.7764C211.826 83.7191 211.991 83.6618 212.156 83.6045C212.993 83.4612 214.063 83.3481 214.453 82.7693C214.692 82.3911 213.791 82.7779 213.372 82.8495C212.974 82.7664 212.509 82.7063 212.538 82.3639C212.692 82.2736 212.856 82.2163 213.054 82.1476C213.813 81.884 214.605 81.6089 215.363 81.3454C215.594 81.2651 215.825 81.1849 216.056 81.1047C217.837 80.4858 219.618 79.867 221.399 79.2482C221.521 79.2797 221.61 79.3227 221.71 79.3986C221.514 79.5777 221.284 79.7682 221.088 79.9473C220.726 80.1836 220.398 80.4086 220.036 80.6449C219.179 80.9429 218.067 81.2552 217.985 81.7637C217.944 81.9629 218.976 81.5302 219.548 81.3684C219.18 81.9027 219.765 81.8841 220.492 81.7423C221.703 81.506 221.985 81.0389 222.111 80.5518C223.089 80.1751 224.067 79.7984 225.045 79.4216C226.483 79.6236 227.409 78.5635 228.596 78.151C230.059 77.6797 231.557 77.4175 232.984 76.7371C234.185 76.4678 235.249 75.9134 236.336 75.4249C236.99 75.604 237.639 75.4522 238.25 74.8705C239.667 74.2674 241.29 74.2574 242.571 73.3693C243.426 72.8507 244.622 73.1 245.364 72.3622C245.99 72.1445 246.584 71.9382 247.211 71.7205C248.926 71.1245 250.641 70.5286 252.323 69.9442C253.582 69.9499 254.477 69.1219 255.61 68.7652C256.204 68.5589 256.809 68.3856 257.436 68.1678C258.063 67.9501 258.689 67.7324 259.283 67.5261C261.658 66.701 264.156 66.0177 266.327 64.8201C267.086 64.5565 267.878 64.2814 268.669 64.0064C269.973 64.0337 271.256 63.3661 272.564 62.8747C272.937 62.6713 273.31 62.4679 273.683 62.2645C274.837 61.8634 276.013 61.4179 277.168 61.0168C277.432 60.9251 277.663 60.8449 277.915 60.7202C278.883 60.4208 279.84 60.0885 280.84 59.7776C280.688 59.9782 280.536 60.1788 280.384 60.3793C278.647 61.0197 277.749 61.6271 278.794 62.1872C279.061 62.3162 276.636 63.5281 279.177 62.756C280.211 62.4337 281.787 62.1816 281.083 61.5397C280.603 61.1157 281.944 60.6129 281.818 60.2504C282.366 59.9123 282.912 59.464 283.611 59.6645C283.934 59.9582 285.231 59.4339 285.446 59.8394C285.094 59.9984 284.567 60.1817 284.403 60.3493C284.021 60.7404 284.67 60.4783 284.956 60.4525C286.225 60.3809 287.212 59.8165 288.154 59.2306C288.783 59.1231 289.399 58.9827 290.027 58.8753C290.522 58.7034 291.061 58.553 291.278 58.2192C291.827 57.9914 292.365 57.7307 292.914 57.503C293.409 57.3311 293.859 57.1377 294.099 56.8698C295.704 56.2753 297.042 55.5519 298.102 54.6665C299.42 54.0978 300.494 53.4661 301.225 52.6953C301.639 52.2928 302.043 51.8573 302.424 51.4662C303.711 51.0193 303.441 50.6697 303.315 50.3072C303.523 50.1611 303.687 49.9935 303.895 49.8474C304.84 49.4821 305.73 49.1727 306.485 48.5782C307.864 47.5453 306.828 47.7573 305.683 47.9707C306.776 47.074 305.619 47.2544 304.834 47.2315C305.567 46.6814 306.597 46.0281 305.139 45.9808C304.447 45.372 306.763 45.1213 306.845 44.6127C306.942 44.4681 307.073 44.3119 307.17 44.1672C307.86 43.7059 308.417 43.1802 309.44 42.8249C311.046 42.3407 312.302 41.2763 314.099 41.0214C314.948 40.9111 316.425 40.6934 316.539 40.063C316.641 39.3997 315.037 40.1045 314.189 40.2148C314.012 40.2392 313.879 40.1747 313.735 40.1876C313.521 39.7822 316.231 39.2837 314.935 38.9585C313.805 38.6862 313.55 39.4398 312.937 39.9111C311.548 41.0213 311.636 40.1045 311.128 40.0228C311.774 39.6503 312.599 39.3638 312.77 38.8982C312.968 38.8295 313.166 38.7607 313.319 38.6705C314.682 38.1232 316.356 37.8368 317.544 36.5747C316.194 37.1548 315.53 36.2036 314.199 37.4786C312.627 38.0616 311.137 38.9856 309.469 38.9741C310.918 38.2492 311.613 37.2694 313.316 36.6405C313.493 36.6161 313.658 36.5588 313.811 36.4686C314.702 36.1591 315.693 35.9257 316.417 35.5632C317.481 35.0088 317.05 34.9372 316.059 35.1707C315.012 35.3497 314.113 35.8468 313.134 36.2236C312.529 36.3969 311.783 36.8038 311.361 36.5445C311.623 36.3425 312.128 36.0932 312.148 35.9385C312.189 35.629 311.695 35.9112 311.332 36.0373C310.453 36.3797 309.586 36.755 308.751 37.1189C309.375 35.831 311.353 35.033 313.441 34.2337C312.891 33.5016 311.08 34.3526 309.987 34.3998L309.954 34.4113C308.464 34.4857 307.052 35.4198 305.586 35.6704C305.308 35.5085 305.019 35.3137 304.773 35.1403C306.206 34.9011 305.412 34.106 306.723 33.8353C307.45 33.6935 308.158 33.8167 308.957 33.2437C308.478 32.9299 307.644 33.2938 306.874 33.5244C305.912 33.4155 304.859 34.0029 303.813 34.2922C303.365 33.7464 304.687 33.5086 305.312 33.1806C306.272 33.0688 306.75 32.4227 307.597 32.2021C308.734 32.1764 309.345 31.5948 310.289 31.1192C309.417 31.1636 308.792 31.4916 308.165 31.7093C307.248 31.6219 306.513 32.0617 305.79 32.5345C304.999 32.8095 304.229 33.0401 303.437 33.3152C302.951 33.2994 302.465 33.2836 301.979 33.2679C301.989 33.1905 302.021 33.0687 302.031 32.9914C303.083 32.404 304.785 32.5144 305.468 31.5015C305.633 31.4442 305.798 31.3869 305.919 31.3082C307.337 30.8154 308.8 30.3441 310.218 29.8513C312.45 29.0391 314.727 28.3586 317.125 27.5994C315.113 28.2985 314.365 27.6352 312.876 27.8199C312.227 27.9718 311.61 28.1122 310.949 28.2311C309.959 28.5749 308.97 28.9187 307.98 29.2625C307.045 29.5504 306.155 29.8598 305.22 30.1477C305.141 30.0274 305.062 29.9071 304.995 29.8197C306.22 28.877 307.97 28.38 309.675 27.8614ZM33.8933 130.806C33.8818 130.773 33.8818 130.773 33.8704 130.74C33.9808 130.739 34.0797 130.704 34.1787 130.67C34.0912 130.737 33.9478 130.75 33.8933 130.806ZM37.6399 128.396C37.6399 128.396 37.6069 128.408 37.5954 128.375C37.6284 128.363 37.6614 128.352 37.6944 128.341C37.6614 128.352 37.6284 128.363 37.6399 128.396ZM44.0709 118.924C44.1038 118.913 44.1368 118.901 44.1584 118.857C44.2028 118.878 44.2573 118.822 44.2688 118.855C44.2142 118.911 44.1368 118.901 44.0709 118.924ZM42.9665 110.851C42.955 110.819 42.9221 110.83 42.9436 110.786C43.12 110.761 43.2734 110.671 43.4498 110.647C43.3179 110.692 43.1644 110.783 42.9665 110.851ZM48.2286 114.932C48.2286 114.932 48.2171 114.899 48.2501 114.887L48.2945 114.909C48.273 114.953 48.2615 114.92 48.2286 114.932ZM44.4035 103.816C44.4035 103.816 44.425 103.772 44.4035 103.816C44.4365 103.805 44.4035 103.816 44.4035 103.816ZM46.5565 100.225C46.049 100.253 45.5771 100.491 45.1382 100.717C45.6559 100.611 46.1506 100.439 46.5666 100.147C46.5336 100.159 46.5451 100.192 46.5565 100.225ZM50.5602 107.918C50.5932 107.906 50.5602 107.918 50.5602 107.918V107.918ZM53.4781 105.464C53.5656 105.396 53.6646 105.362 53.7077 105.273C53.7191 105.306 53.7306 105.339 53.742 105.372C53.6431 105.406 53.5771 105.429 53.4781 105.464ZM54.0992 102.995C54.0662 103.007 54.0218 102.985 53.9558 103.008C53.9888 102.997 53.9888 102.997 54.0217 102.985C54.0877 102.962 54.1651 102.972 54.2311 102.95C54.1981 102.961 54.1651 102.972 54.0992 102.995Z" fill="#FFEFEB"/>
<path d="M172.123 94.7807C170.049 94.8738 169.351 95.633 168.092 96.4768C169.998 96.1101 170.973 95.5127 172.123 94.7807Z" fill="#FFEFEB"/>
<path d="M175.506 96.8552C174.936 97.2377 174.367 97.6202 173.552 97.8293C172.747 97.8508 172.092 97.5614 170.951 98.2161C171.054 98.5126 172.166 98.2003 171.929 98.6888C174.838 98.2319 176.013 97.6761 175.649 96.8423C176.391 96.1045 177.955 95.8195 179.073 95.0989C175.779 95.7263 175.439 95.9183 175.506 96.8552Z" fill="#FFEFEB"/>
<path d="M150.049 106.254C150.456 106.149 150.829 105.946 150.904 105.735C151.063 105.237 150.335 105.268 149.628 105.255C149.431 105.434 149.202 105.625 149.005 105.804C149.229 106.022 149.091 106.476 150.049 106.254Z" fill="#FFEFEB"/>
<path d="M166.026 98.1916C165.818 98.3377 165.82 98.448 166.008 98.4566C167.342 98.3621 168.488 98.1486 168.52 97.1773C167.505 97.2346 166.907 97.9595 166.026 98.1916Z" fill="#FFEFEB"/>
<path d="M125.239 113.471C126.122 112.61 125.708 112.163 125.614 111.679L125.504 111.68C125.125 112.292 123.799 113.158 125.239 113.471Z" fill="#FFEFEB"/>
<path d="M136.875 108.874C137.27 108.626 137.212 108.461 136.903 108.421C136.361 108.351 135.776 108.369 135.175 108.874C134.427 109.17 133.68 109.467 132.9 109.775C132.923 109.841 132.967 109.862 132.99 109.928C133.76 109.697 134.552 109.422 135.322 109.192C135.679 109.474 136.24 109.279 136.875 108.874Z" fill="#FFEFEB"/>
<path d="M178.906 93.2366C178.996 93.3899 179.045 93.7423 179.639 93.536C180.364 93.2839 180.25 92.9544 180.269 92.6893C180.234 92.5905 180.211 92.5246 180.144 92.4372C179.262 92.559 178.647 92.8096 178.906 93.2366Z" fill="#FFEFEB"/>
<path d="M209.905 85.5313C211.246 85.0285 212.137 84.719 213.346 84.2621C211.943 84.2692 210.996 84.4139 209.905 85.5313Z" fill="#FFEFEB"/>
<path d="M166.871 99.5598C167.577 99.4624 168.192 99.2117 168.726 98.6201C167.821 98.6759 167.084 98.8951 166.504 99.3549C166.438 99.3778 166.662 99.5956 166.871 99.5598Z" fill="#FFEFEB"/>
<path d="M183.947 93.7008C183.31 93.9959 182.558 93.8512 181.835 94.324C182.521 94.4916 183.236 94.2065 183.907 94.0103C184.327 94.049 184.606 94.3212 185.296 93.8599C185.537 93.7023 185.721 93.38 185.588 93.3155C185.208 92.9674 184.539 93.3842 183.947 93.7008Z" fill="#FFEFEB"/>
<path d="M242.477 74.6945C243.802 74.6773 244.693 74.3679 245.49 73.6846C244.635 74.2032 243.771 73.9496 242.477 74.6945Z" fill="#FFEFEB"/>
<path d="M163.935 97.8105C163.985 98.2733 164.01 98.5598 164.047 98.8793C163.466 99.2288 162.853 99.5898 162.217 99.9952C163.929 100.028 164.654 98.8162 166.019 98.4896C166.029 98.4123 165.995 98.3134 166.038 98.2246L166.005 98.2361C165.396 98.0785 164.765 97.9653 163.935 97.8105Z" fill="#FFEFEB"/>
<path d="M77.8965 129.144C77.4018 129.316 77.2497 129.516 77.3183 129.714C77.3641 129.846 77.5419 129.932 78.1457 129.648C78.2662 129.569 78.6936 129.31 78.7138 129.155C78.777 128.912 78.3253 128.995 77.8965 129.144Z" fill="#FFEFEB"/>
<path d="M157.714 101.079C157.384 101.194 156.9 101.289 156.937 101.608C157.113 101.584 157.423 101.624 157.543 101.545C157.862 101.398 158.08 101.174 158.354 101.005C158.144 101.041 157.912 101.011 157.714 101.079Z" fill="#FFEFEB"/>
<path d="M158.883 101.892C158.161 102.365 158.407 102.648 159.411 102.558C160.393 102.512 161.385 102.389 162.449 101.835C162.603 101.744 162.765 101.467 162.643 101.435C161.868 101.224 160.797 102.187 159.967 102.032C159.755 101.848 159.486 101.498 158.883 101.892Z" fill="#FFEFEB"/>
<path d="M242.016 75.8147C242.117 75.8906 242.436 75.8534 242.679 75.8061C242.954 75.7474 243.195 75.5898 243.06 75.415C242.884 75.4394 242.652 75.4093 242.409 75.4566C242.068 75.5382 241.872 75.7173 242.016 75.8147Z" fill="#FFEFEB"/>
<path d="M219.643 82.8124C220.838 82.1019 221.371 82.3598 222.136 81.6879C221.409 81.8297 220.824 81.8483 219.643 82.8124Z" fill="#FFEFEB"/>
<path d="M271.099 64.0852C271.276 64.0609 271.508 64.091 271.628 64.0122C271.848 63.899 272.155 63.7185 272.154 63.6082C272.174 63.4535 271.854 63.4907 271.404 63.6841C271.361 63.7729 271.23 63.9291 271.099 64.0852Z" fill="#FFEFEB"/>
<path d="M125.183 114.376C123.846 114.25 122.492 114.61 120.88 115.502C122.053 115.686 123.016 115.055 123.908 114.856C124.014 115.373 124.936 114.942 125.441 114.693C125.979 114.432 125.548 114.36 125.183 114.376Z" fill="#FFEFEB"/>
<path d="M134.5 110.548C132.801 110.659 132.457 111.48 131.747 112.096C131.697 112.482 130.177 112.789 130.515 113.336C131.403 112.806 132.552 112.924 133.273 112.23C133.36 112.163 132.729 112.05 132.408 111.977C133.748 111.364 135.368 111.133 136.55 110.279C137.264 109.994 138.608 109.712 137.455 109.374C136.399 109.63 135.253 109.844 134.5 110.548Z" fill="#FFEFEB"/>
<path d="M69.3171 130.943C69.1434 131.188 69.4847 131.106 69.7271 131.059C70.1343 130.954 70.5301 130.817 70.6378 130.595C70.6809 130.506 70.3598 130.433 70.1504 130.469C69.6429 130.497 69.4692 130.742 69.3171 130.943Z" fill="#FFEFEB"/>
<path d="M139.106 65.0778C139.924 65.0892 140.592 64.6724 141.305 64.277C140.612 64.5177 139.773 64.5506 139.106 65.0778Z" fill="#FFEFEB"/>
<path d="M288.407 24.2091C289.121 23.9241 289.727 23.7507 290.272 23.192C289.547 23.5545 288.775 23.5645 288.407 24.2091Z" fill="#FFEFEB"/>
</g>
<g clip-path="url(#clip1_2378_292)">
<path d="M277.514 94.8591C279.027 94.001 280.857 93.7346 282.359 92.8436C280.732 93.4825 278.847 93.6945 277.514 94.8591Z" fill="#FFEFEB"/>
<path d="M286.879 91.3838C285.897 91.4296 284.996 91.8164 283.701 92.451C285.663 92.1388 285.663 92.1388 286.879 91.3838Z" fill="#FFEFEB"/>
<path d="M310.465 90.5377C309.428 90.6394 308.425 90.7296 306.931 91.433C308.292 91.625 309.366 90.9932 310.465 90.5377Z" fill="#FFEFEB"/>
<path d="M307.693 93.1994C309.025 92.8843 310.059 92.562 311.002 91.976C310.013 92.4302 308.718 92.1049 307.693 93.1994Z" fill="#FFEFEB"/>
<path d="M123.822 145.858C124.006 145.535 124.147 145.302 124.21 145.058C124.21 145.058 123.735 145.075 123.537 145.144C122.988 145.372 122.793 145.661 123.038 145.835C123.127 145.878 123.447 145.84 123.822 145.858Z" fill="#FFEFEB"/>
<path d="M267.714 95.2729C268.461 94.9763 269.208 94.6798 269.9 94.3288C270.119 94.2156 270.291 93.8604 270.191 93.7844C269.946 93.6111 269.352 93.8174 268.902 94.0108C268.605 94.1139 267.792 94.4333 268.123 94.4291C270.056 94.4592 267.116 95.1482 267.714 95.2729C267.175 95.4233 266.577 95.2986 266.185 95.7671C266.131 95.8229 266.463 95.9289 266.673 95.8931C267.368 95.8731 267.818 95.6797 267.714 95.2729Z" fill="#FFEFEB"/>
<path d="M271.923 94.5123C272.815 94.3132 273.34 93.9092 273.799 93.5281C272.996 93.7702 272.17 93.9464 271.923 94.5123Z" fill="#FFEFEB"/>
<path d="M248.538 98.2795C249.845 97.6779 251.567 97.6335 252.867 96.4803C251.184 97.0647 249.799 97.5461 248.447 98.0159C247.898 98.2437 246.841 98.5001 246.954 98.7193C247.123 98.9929 247.98 98.695 248.538 98.2795Z" fill="#FFEFEB"/>
<path d="M146.457 137.698C145.58 138.261 144.274 138.013 143.61 138.761C143.534 138.861 143.613 138.981 143.723 138.98C144.971 138.953 145.602 138.217 146.457 137.698Z" fill="#FFEFEB"/>
<path d="M191.832 116.578C190.986 116.909 191.66 116.933 191.783 117.075C192.678 117.097 193.481 116.855 194.203 116.272C193.853 115.691 192.69 116.28 191.832 116.578Z" fill="#FFEFEB"/>
<path d="M171.128 124.547C170.246 124.669 169.242 124.759 168.545 125.519C169.65 125.615 170.316 124.977 171.128 124.547Z" fill="#FFEFEB"/>
<path d="M188.616 117.216C188.637 117.171 188.427 117.097 188.283 117.11C187.588 117.13 187.206 117.521 186.701 117.77C185.62 117.85 184.697 118.171 183.624 118.913C184.858 118.743 185.825 118.333 186.77 117.968C187.43 117.739 188.191 117.696 188.616 117.216Z" fill="#FFEFEB"/>
<path d="M154.34 130.491C153.206 130.737 152.338 131.112 151.761 131.793C153.297 131.85 153.819 131.226 154.34 130.491Z" fill="#FFEFEB"/>
<path d="M149.271 133.988C148.972 133.981 148.729 133.917 148.409 133.955C148.023 134.015 147.683 134.207 147.576 134.429C147.623 134.671 148.063 134.555 148.393 134.44C148.69 134.337 148.997 134.157 149.271 133.988Z" fill="#FFEFEB"/>
<path d="M175.037 127.288C173.859 127.513 172.968 127.822 172.125 128.374C173.138 128.206 174.165 128.182 175.037 127.288Z" fill="#FFEFEB"/>
<path d="M128.025 138.378C129.137 138.066 129.762 137.738 130.23 137.169C129.283 137.424 128.436 137.645 128.025 138.378Z" fill="#FFEFEB"/>
<path d="M150.914 133.823C149.85 134.377 149.17 134.761 148.205 135.281C149.931 134.718 149.931 134.718 150.914 133.823Z" fill="#FFEFEB"/>
<path d="M182.082 119.264C181.552 119.227 181.024 119.41 180.323 119.838C181.051 119.807 181.515 119.867 182.085 119.485C182.151 119.462 182.16 119.274 182.082 119.264Z" fill="#FFEFEB"/>
<path d="M160.598 128.501C161.204 128.328 161.962 128.064 161.937 127.778C161.865 127.359 161.043 127.866 160.582 128.027C160.153 128.176 159.77 128.457 159.331 128.683C158.925 128.898 158.079 129.229 158.555 129.322C159.274 129.478 159.817 128.699 160.598 128.501Z" fill="#FFEFEB"/>
<path d="M172.545 125.754C173.163 125.723 173.943 125.416 174.49 124.967C174.236 124.981 173.993 125.029 173.773 125.032C173.704 124.834 174.536 124.249 173.677 124.437C173.435 124.484 172.2 124.655 172.074 125.142C172.042 125.264 172.671 125.266 172.981 125.307C172.674 125.487 172.082 125.804 172.545 125.754Z" fill="#FFEFEB"/>
<path d="M184.669 119.473C184.469 119.432 184.181 119.347 184.082 119.382C183.742 119.574 183.48 119.776 183.217 119.978C183.471 119.963 183.713 119.916 184 119.89C184.241 119.733 184.449 119.587 184.669 119.473Z" fill="#FFEFEB"/>
<path d="M302.765 98.2722C302.831 98.2493 302.864 98.2378 302.93 98.2149C302.897 98.2264 302.819 98.2163 302.786 98.2278C302.786 98.2278 302.753 98.2393 302.765 98.2722C302.753 98.2393 302.765 98.2722 302.765 98.2722Z" fill="#FFEFEB"/>
<path d="M182.654 163.785C180.278 163.65 179.123 164.901 176.846 165.581C179.284 165.473 180.687 164.616 182.654 163.785Z" fill="#FFEFEB"/>
<path d="M317.675 95.8614C319.05 95.4575 320.181 94.9905 320.834 94.2097C321.011 94.1854 321.187 94.161 321.352 94.1037C322.192 94.1811 323.075 94.1696 323.795 94.3258C324.238 94.4304 324.446 94.2843 324.708 94.0823C324.883 93.9476 325.001 93.6482 325.001 93.6482C324.096 93.7041 324.206 92.7428 322.549 93.6138C322.538 93.5808 322.439 93.6152 322.428 93.5823L303.528 100.149C303.45 100.139 303.34 100.14 303.229 100.142C302.766 100.192 302.305 100.352 302.373 100.55L299.57 101.524C300.103 100.932 298.258 101.684 298.177 101.454C298.019 101.103 298.287 100.493 296.715 101.076C296.527 101.067 296.295 101.037 296.107 101.028C295.177 100.798 297.311 100.13 296.633 99.7748C295.797 100.028 294.873 100.349 293.938 100.637C294.309 99.3636 296.864 98.845 298.322 97.9325C299.642 97.5844 299.811 96.8982 301.251 96.361C299.123 96.6203 297.503 97.8107 295.956 97.7204C296.065 97.6087 296.141 97.5084 296.25 97.3967C296.602 97.2376 296.953 97.0786 297.337 96.9082C298.426 96.53 299.615 96.2277 300.534 95.5759C301.974 95.0387 303.636 94.609 304.854 93.9643C306.225 93.2295 304.706 93.6463 304.309 93.6735C305.5 92.632 307.575 92.539 309.086 91.5706C306.048 92.294 303.392 93.5861 300.051 94.9312C301.08 94.1677 302.016 93.9901 302.199 93.5574C302.242 93.4686 302.263 93.4242 302.24 93.3583C303.164 93.0374 304.12 92.7051 305.033 92.3512C305.165 92.3054 305.239 92.0948 305.348 91.9831C305.073 92.0418 304.765 92.112 304.489 92.1707C303.618 92.2151 302.779 92.248 301.907 92.2924C302.201 91.9687 303.235 91.6464 303.01 91.3183C302.943 91.2309 302.371 91.3928 302.018 91.4415C301.017 91.7523 300.06 92.0847 299.06 92.3955C298.565 92.5674 298.059 92.7064 297.597 92.8668C297.079 92.9728 296.55 93.0459 296.032 93.1519C294.654 93.3352 294.44 92.0802 292.148 93.3566C291.101 93.5357 290.02 93.6159 289.18 94.388C286.94 94.5384 284.416 95.7847 282.176 95.9351C281.888 95.8506 281.633 95.7546 281.345 95.67C280.404 95.5167 279.648 96.0009 278.859 96.4966C276.237 96.9277 273.843 98.0179 271.438 99.0751C270.18 99.1796 268.895 99.7369 267.631 100.139C267.54 99.9861 267.417 99.8443 267.338 99.724C268.573 99.5535 269.591 98.8673 270.757 98.4992C271.318 98.3043 272.221 98.1382 272.25 97.7958C272.322 97.3646 271.4 97.7958 270.882 97.9018C270.254 98.0092 270.12 97.8344 269.952 97.6711C269.929 97.6052 269.885 97.5837 269.862 97.5178C270.893 96.9749 271.181 97.9089 272.308 97.111C272.826 97.005 273.401 97.0638 273.837 96.6168C274.142 96.326 274.041 96.1397 273.5 96.1798C273.728 95.879 274.134 95.6641 274.663 95.5911C275.082 95.5195 275.034 96.1269 275.843 95.4765C275.964 95.3977 276.028 95.2645 276.006 95.1986C275.825 94.892 275.22 95.0653 274.626 95.2716C273.769 95.5696 272.878 95.879 272.032 96.2099C268.723 97.4333 265.267 98.3386 262.095 99.847L262.062 99.8585C261.787 99.9172 261.523 100.009 261.315 100.155C258.85 100.827 256.406 101.454 253.941 102.126C253.93 102.093 253.907 102.027 253.895 101.994C254.642 101.698 255.113 101.35 254.921 101.01C256.551 100.702 258.104 100.384 258.444 99.2324C258.806 99.1063 259.125 98.9588 259.488 98.8327C260.666 98.6078 261.622 98.1652 262.398 97.5262C263.103 97.4288 263.716 97.9174 264.556 97.0349C265.134 96.4647 264.515 96.3845 263.775 96.3831C263.366 96.3773 262.958 96.3716 262.549 96.3658C261.197 96.8357 259.811 97.317 258.459 97.7869C258.261 97.8556 258.063 97.9244 257.832 98.0046C256.669 98.5934 255.386 98.4114 254.236 99.1435C253.385 99.1434 252.492 99.2322 252.65 98.6234C253.244 98.4171 253.838 98.2108 254.431 98.0045C256.171 97.5848 257.774 96.88 259.399 96.1308C256.703 96.8829 253.996 97.602 251.3 98.354C249.748 98.7823 247.389 99.1218 246.534 100.49L246.567 100.478C245.972 100.574 245.408 100.549 244.739 100.855C244.541 100.924 244.31 101.004 244.1 101.04C244.012 100.997 243.956 100.943 243.921 100.844C243.76 100.272 243.905 99.52 241.741 100.42C241.517 100.202 241.001 100.418 240.528 100.546C239.402 100.604 238.357 100.894 237.493 101.6C237.328 101.657 237.163 101.715 236.999 101.772C235.728 101.733 234.456 102.434 233.203 102.869C232.609 103.075 232.015 103.282 231.454 103.477C229.471 103.833 227.444 104.168 225.97 105.567C226.015 105.588 226.158 105.575 226.236 105.585C226.203 105.597 226.17 105.608 226.137 105.62L226.003 105.555C225.553 105.749 225.157 105.886 224.858 105.769C224.912 105.713 224.967 105.657 224.988 105.612C224.977 105.579 224.921 105.525 224.855 105.548C223.6 105.873 222.345 106.198 221.124 106.512C220.695 106.661 220.299 106.798 219.87 106.947C218.77 107.293 217.837 107.691 217.624 108.356C217.019 108.529 216.392 108.747 215.787 108.92C215.122 108.708 213.851 109.519 213.207 109.262C212.676 109.115 212.006 109.421 211.346 109.651C210.95 109.788 210.522 109.937 210.126 110.075C207.836 110.612 206.663 112.238 204.284 112.732C203.778 112.871 203.361 113.053 203.132 113.354C202.517 113.604 201.813 113.812 201.464 114.192C201.267 114.26 201.08 114.362 200.882 114.431C200.748 114.256 200.854 113.924 200.193 114.043C200.06 113.978 199.971 113.935 199.837 113.871C200.463 113.543 201.077 113.182 202.349 112.481C200.799 113.02 200.007 113.295 199.215 113.57C197.225 114.225 198.848 114.215 198.807 114.524C198.204 114.808 197.355 114.918 197.151 115.395C196.987 115.563 196.824 115.73 196.66 115.898C196.264 116.035 195.836 116.184 195.428 116.289L195.427 116.179C195.008 116.25 194.59 116.322 194.204 116.382C193.379 116.668 192.576 116.911 191.785 117.186C191.819 117.284 191.82 117.395 191.855 117.494C191.855 117.494 191.889 117.592 191.879 117.67C191.418 117.941 191.466 118.183 191.501 118.392C189.885 118.953 188.146 119.373 186.71 120.241C184.46 122.278 188.802 119.773 188.282 120.618C188.317 120.717 188.351 120.816 188.385 120.915C187.572 121.234 186.603 121.423 186.025 121.993C184.837 122.406 183.617 122.83 182.397 123.254C182.464 123.341 182.498 123.44 182.566 123.528C183.093 123.344 183.621 123.161 184.149 122.977C184.437 123.062 185.108 122.866 185.068 123.175C184.21 123.473 183.241 123.662 182.751 124.275C182.302 124.579 181.796 124.718 181.203 124.924C179.619 125.474 177.749 126.05 177.718 127.132C177.082 127.427 176.445 127.722 175.808 128.017C174.959 128.127 174.178 128.325 173.588 128.862C172.368 129.286 171.035 129.601 169.973 130.266C168.994 130.643 168.028 131.053 167.083 131.418C166.181 131.694 165.234 131.949 164.579 132.509C163.292 132.956 162.929 133.932 161.332 134.229C161.276 134.174 161.208 134.087 161.086 134.055C160.965 133.174 159.422 134.264 158.682 134.263C158.461 134.266 158.196 134.247 157.975 134.25C156.733 134.718 155.433 134.912 154.248 135.545C153.062 136.068 151.887 136.624 150.734 137.135C150.992 137.452 151.999 136.733 152.181 137.149C151.389 137.424 150.597 137.699 149.806 137.975C147.467 138.159 145.232 138.641 143.418 140.231C142.533 140.981 142.166 140.777 141.831 140.45C141.75 140.109 141.297 140.082 140.538 140.345C139.602 140.523 139.988 139.613 138.691 140.137C137.439 140.683 140.25 140.261 138.602 140.944C138.404 141.013 138.262 141.136 138.076 141.238C136.353 142.132 134.808 143.111 132.527 143.461C131.678 143.571 130.06 144.022 129.276 144.849C128.375 145.236 127.081 145.981 126.595 145.965C123.989 145.911 122.362 147.399 120.374 148.274C119.922 148.357 119.318 148.641 119.017 148.413C120.466 147.688 121.252 146.972 120.979 146.292C121.13 145.981 121.236 145.648 121.387 145.337C122.474 144.849 123.172 144.2 122.519 144.021C121.865 143.842 121.797 144.604 121.182 144.855C119.69 145.668 118.143 146.428 116.337 146.87C115.843 147.042 115.303 147.192 114.809 147.364C112.174 148.612 110.233 148.77 108.885 147.871C109.899 147.704 110.912 147.426 111.434 146.801C111.543 146.69 111.206 146.253 110.281 146.463C108.916 146.79 108.126 147.175 108.355 147.834C107.091 148.347 106.018 149.089 104.632 149.46C104.618 149.206 104.603 148.953 104.622 148.688C104.746 147.98 104.746 147.98 102.496 149.057C101.184 149.218 99.4214 149.572 100.873 148.218C101.256 147.937 101.949 147.696 101.912 147.377C101.284 147.484 100.657 147.702 100.019 147.887C97.3802 148.804 94.7859 149.742 92.1472 150.659C89.1786 151.69 86.1771 152.733 83.2085 153.765C80.8006 154.601 78.4143 155.393 76.0065 156.23C74.9812 156.364 74.0604 156.906 73.0924 157.205C70.7121 157.589 68.4921 158.434 66.3751 159.576C66.7076 159.682 67.1923 159.588 67.6871 159.416C67.6871 159.416 67.6541 159.427 67.6211 159.439C67.267 159.377 66.8369 159.416 66.3421 159.588C62.9548 160.691 59.9472 162.142 57.0514 163.702C55.4622 164.66 54.4909 165.589 54.3369 166.528C53.8105 166.822 53.0061 166.954 52.7577 167.409C51.7581 167.83 51.8066 168.183 51.9211 168.512C51.0212 169.859 48.7306 171.246 48.4817 172.551C48.0213 172.822 48.1674 173.029 48.1586 173.217C47.4458 173.612 46.2428 173.661 45.8868 174.339C44.4611 175.129 45.4918 175.436 45.2118 176.013C44.6753 176.384 43.5081 176.642 43.5364 177.149C43.0686 177.718 42.1102 178.79 42.265 178.81C44.883 178.897 42.5654 179.887 41.6473 180.649C41.6399 180.947 41.6211 181.212 41.5807 181.522C41.3943 181.623 41.1849 181.659 41.0429 181.782C40.6814 182.019 41.0571 182.036 41.1776 181.957C41.714 181.586 43.2738 181.82 42.9876 180.996C43.1397 180.795 43.2918 180.595 43.411 180.406C43.7623 180.247 44.1137 180.088 44.5095 179.95C44.6529 179.937 44.8293 179.913 44.9942 179.856C45.3153 179.929 45.6364 180.002 45.9791 180.03C46.0134 180.129 46.0478 180.228 46.0707 180.294C45.9529 180.593 46.2626 180.634 46.7042 180.628C46.8947 180.857 46.7783 181.267 47.6056 181.201C47.7403 181.376 47.842 181.562 48.404 181.477C48.6344 182.247 50.9904 181.687 51.3082 182.389C50.3909 184.111 46.8341 185.789 46.3583 187.506C44.2959 188.592 44.6682 189.238 45.2614 189.881C45.1624 189.915 45.0965 189.938 45.0089 190.006L42.733 190.796C42.8434 190.795 42.9754 190.749 43.0528 190.759C42.7614 191.303 41.5753 191.826 41.4717 192.379C41.3695 193.043 41.2874 193.551 43.0187 192.47C44.6134 191.952 46.1966 191.402 47.7583 190.897C48.8765 191.136 49.6444 189.835 50.8487 189.897C50.074 190.646 50.0162 191.331 48.8329 192.074C47.3055 192.679 46.9394 193.434 46.308 194.17C44.3849 194.912 42.3055 195.524 41.2279 196.785C41.3094 197.125 41.3909 197.466 41.4724 197.807C41.5593 198.59 39.5184 199.631 39.8261 200.41C39.8174 200.598 39.8087 200.786 39.7885 200.94C38.9129 202.463 39.4117 202.622 42.3272 201.757C43.5045 201.422 44.669 200.943 45.7845 200.962C46.4422 201.472 47.0886 201.949 47.7463 202.459C47.2516 202.631 46.8786 202.835 46.7164 203.112C44.561 203.824 46.0407 203.827 46.4076 204.032C46.4318 204.208 46.4561 204.385 46.4803 204.561C46.7914 204.711 47.375 204.582 47.9371 204.498C47.517 204.459 47.1185 204.376 46.4803 204.561C45.6969 205.498 45.8471 206.036 47.6121 205.903C47.7596 206.221 46.4887 207.032 48.0431 206.824C48.7142 206.628 49.1343 206.667 49.3033 206.94C49.1054 207.009 48.9075 207.078 48.7654 207.201C48.4026 207.327 47.8263 207.158 47.6884 207.612C47.5505 208.066 48.0035 208.094 48.8611 207.796L48.818 207.884L48.9399 207.916C48.9742 208.015 48.9971 208.081 48.9985 208.191C48.8706 208.568 49.0941 208.786 49.8312 208.566C54.2667 207.395 58.7021 206.223 63.1375 205.051C67.8193 204.163 72.3455 202.295 76.9088 200.747C77.2056 200.643 77.1484 200.479 76.7957 200.527C76.8319 199.887 75.5987 200.168 74.77 200.123C75.5374 199.672 76.9672 199.212 75.6497 198.931C75.5494 198.855 75.4491 198.78 75.3818 198.692C76.8808 197.58 74.5375 198.284 74.4231 197.954C74.4217 197.844 74.4318 197.767 74.4304 197.656C75.8676 196.899 76.6008 198.158 78.2089 196.934C78.9689 196.781 79.6057 196.486 80.0418 196.039C80.2324 196.268 81.061 196.313 81.2017 196.079C81.7502 194.892 83.4836 194.88 84.6926 194.423C84.7155 194.489 84.7714 194.544 84.8387 194.631C84.9883 196.019 87.3597 194.014 88.2571 194.256C88.4233 194.309 88.5782 194.329 88.7444 194.382C88.9996 194.478 89.2547 194.574 89.5213 194.703C88.6302 195.862 90.3844 194.846 90.8704 194.862C91.6446 194.962 92.0693 194.482 92.6286 194.177C93.3813 194.322 94.1669 194.455 95.0951 193.615C95.1933 192.621 96.9926 192.587 97.9694 192.1C98.0252 192.154 98.0926 192.242 98.1485 192.296C98.0334 192.816 98.4548 192.965 99.5662 192.653C100.859 192.757 102.236 192.464 103.695 191.662C106.294 192.014 107.339 191.725 109.438 189.998C110.834 190.4 111.698 188.844 112.946 188.817C114.57 188.917 116.288 188.542 118.11 187.613C118.472 187.487 118.824 187.328 119.22 187.191C121.065 187.288 122.045 186.172 123.373 185.526C123.855 185.211 125.071 185.306 124.943 184.833C124.85 184.459 123.895 184.902 123.303 185.218C122.534 185.559 121.777 185.933 121.008 186.274C121.331 185.608 119.166 186.397 119.543 185.675C120.885 185.283 122.249 184.846 123.52 184.035C121.755 184.168 120.116 184.664 118.467 185.237C118.104 185.363 117.741 185.489 117.411 185.603C116.816 185.699 116.616 185.548 116.601 185.294C116.986 185.123 117.415 184.975 117.81 184.837C118.943 184.48 120.065 184.091 121.231 183.723C122.167 183.545 123.138 183.466 123.769 182.73C124.94 181.843 127.049 181.849 128.04 180.766C128.183 180.753 128.315 180.707 128.469 180.617C128.494 180.903 128.411 181.302 129.062 181.26C129.537 181.243 129.852 180.875 130.059 180.618C131.236 180.283 132.398 179.584 133.558 179.624L133.668 179.623C133.975 179.442 134.271 179.229 134.611 179.037C135.878 178.855 137.16 178.927 138.463 177.994C139.795 177.679 141.048 177.243 141.999 176.47C143.052 175.882 143.014 175.453 142.766 175.059C143.5 174.619 142.585 174.752 142.627 174.553C143.186 174.248 143.746 173.943 144.305 173.638C144.503 173.569 144.712 173.533 144.943 173.453C146.799 173.473 148.593 172.148 150.411 171.848C150.469 172.013 150.526 172.178 150.583 172.343C150.201 172.734 149.775 173.103 149.164 173.685C150.582 173.192 151.605 172.837 152.627 172.482C152.335 172.916 152.978 173.172 152.234 173.689C151.785 173.993 151.227 174.408 151.868 174.444C152.586 174.49 152.801 174.046 153.14 173.744C153.887 173.447 154.601 173.162 155.349 172.866C157.791 172.128 155.682 173.931 157.104 173.77C157.709 173.596 157.983 173.427 157.727 173.221C158.495 171.92 161.074 171.578 162.553 170.621C161.731 170.168 161.036 171.148 160.286 171.224C159.313 171.082 158.283 171.735 157.315 172.035C156.655 172.264 156.007 172.526 155.314 172.767C155.138 172.791 154.994 172.804 154.851 172.817C154.959 172.595 155.066 172.373 155.141 172.162C155.414 171.883 155.686 171.604 155.959 171.324C156.532 171.273 157.117 171.254 157.691 171.202C158.472 171.005 159.265 170.84 159.967 170.412C160.933 170.002 162.258 169.985 162.933 169.16C163.329 169.022 163.724 168.885 164.153 168.736C165.131 168.359 166.154 168.004 167.132 167.627C167.925 167.462 169.042 167.591 169.376 166.958C169.721 166.247 168.086 167.074 167.532 166.971C167.41 166.939 167.18 167.019 166.97 167.055C166.924 166.923 166.879 166.792 166.833 166.66C167.031 165.742 168.695 165.422 169.74 165.133C170.95 164.786 172.05 164.441 173.17 163.941C174.602 163.591 175.942 163.089 177.305 162.541C177.338 162.53 177.326 162.497 177.326 162.497C178.613 162.05 179.956 161.768 181.186 161.156C181.35 161.099 181.482 161.053 181.647 160.996C185.183 160.321 188.602 159.096 191.986 157.662C191.902 158.061 193.303 157.943 192.329 158.651C191.867 158.811 191.361 158.95 190.899 159.111C190.897 158.89 190.673 158.672 190.135 158.933C189.817 159.081 189.666 159.391 189.459 159.648C189.065 159.896 188.659 160.111 188.265 160.358C188.101 160.526 188.124 160.592 188.389 160.611C189.148 160.347 189.906 160.083 190.665 159.82C190.943 159.982 190.751 160.492 191.377 160.274C192.169 159.999 191.547 159.698 191.918 159.384C192.116 159.316 192.314 159.247 192.545 159.167C193.664 158.556 194.953 158.33 196.14 157.917C196.992 158.028 193.493 159.022 195.81 158.882C196.24 158.843 196.67 158.804 197.1 158.766C196.22 158.998 195.384 159.251 195.534 159.79C196.386 159.9 197.27 159.999 198.11 160.076C199.361 160.27 200.291 159.651 201.199 158.966C202.199 158.545 203.1 158.158 202.663 157.645C203.32 157.196 204.395 156.674 202.982 156.648C202.727 156.552 202.471 156.456 202.216 156.36C202.424 156.214 202.621 156.035 202.862 155.878C203.394 156.025 204.075 155.751 204.735 155.522C206.194 155.68 207.062 154.455 208.384 154.217C209.121 153.998 209.629 153.969 209.216 154.482C208.557 155.671 209.952 155.113 211.217 154.71C212.562 154.538 213.768 153.861 215.01 153.392C215.505 153.22 215.967 153.06 216.462 152.888C217.643 152.884 218.571 152.044 219.661 151.776C219.826 151.719 219.991 151.662 220.156 151.604C220.993 151.461 222.063 151.348 222.453 150.769C222.692 150.391 221.791 150.778 221.372 150.85C220.974 150.766 220.509 150.706 220.538 150.364C220.692 150.274 220.856 150.216 221.054 150.148C221.813 149.884 222.605 149.609 223.363 149.345C223.594 149.265 223.825 149.185 224.056 149.105C225.837 148.486 227.618 147.867 229.399 147.248C229.521 147.28 229.61 147.323 229.71 147.399C229.514 147.578 229.284 147.768 229.088 147.947C228.726 148.184 228.398 148.409 228.036 148.645C227.179 148.943 226.067 149.255 225.985 149.764C225.944 149.963 226.976 149.53 227.548 149.368C227.18 149.903 227.765 149.884 228.492 149.742C229.703 149.506 229.985 149.039 230.111 148.552C231.089 148.175 232.067 147.798 233.045 147.422C234.483 147.624 235.409 146.564 236.596 146.151C238.059 145.68 239.557 145.418 240.984 144.737C242.185 144.468 243.249 143.913 244.336 143.425C244.99 143.604 245.639 143.452 246.25 142.871C247.667 142.267 249.29 142.257 250.571 141.369C251.426 140.851 252.622 141.1 253.364 140.362C253.99 140.144 254.584 139.938 255.211 139.72C256.926 139.125 258.641 138.529 260.323 137.944C261.582 137.95 262.477 137.122 263.61 136.765C264.204 136.559 264.809 136.386 265.436 136.168C266.063 135.95 266.689 135.732 267.283 135.526C269.658 134.701 272.156 134.018 274.327 132.82C275.086 132.556 275.878 132.281 276.669 132.006C277.973 132.034 279.256 131.366 280.564 130.875C280.937 130.671 281.31 130.468 281.683 130.264C282.837 129.863 284.013 129.418 285.168 129.017C285.432 128.925 285.663 128.845 285.915 128.72C286.883 128.421 287.84 128.088 288.84 127.778C288.688 127.978 288.536 128.179 288.384 128.379C286.647 129.02 285.749 129.627 286.794 130.187C287.061 130.316 284.636 131.528 287.177 130.756C288.211 130.434 289.787 130.182 289.083 129.54C288.603 129.116 289.944 128.613 289.818 128.25C290.366 127.912 290.912 127.464 291.611 127.665C291.934 127.958 293.231 127.434 293.446 127.839C293.094 127.998 292.567 128.182 292.403 128.349C292.021 128.74 292.67 128.478 292.956 128.452C294.225 128.381 295.212 127.816 296.154 127.231C296.783 127.123 297.399 126.983 298.027 126.875C298.522 126.703 299.061 126.553 299.278 126.219C299.827 125.991 300.365 125.731 300.914 125.503C301.409 125.331 301.859 125.138 302.099 124.87C303.704 124.275 305.042 123.552 306.102 122.667C307.42 122.098 308.494 121.466 309.225 120.695C309.639 120.293 310.043 119.857 310.424 119.466C311.711 119.019 311.441 118.67 311.315 118.307C311.523 118.161 311.687 117.994 311.895 117.847C312.84 117.482 313.73 117.173 314.485 116.578C315.864 115.545 314.828 115.757 313.683 115.971C314.776 115.074 313.619 115.254 312.834 115.231C313.567 114.681 314.597 114.028 313.139 113.981C312.447 113.372 314.763 113.121 314.845 112.613C314.942 112.468 315.073 112.312 315.17 112.167C315.86 111.706 316.417 111.18 317.44 110.825C319.046 110.341 320.302 109.276 322.099 109.021C322.948 108.911 324.425 108.693 324.539 108.063C324.641 107.4 323.037 108.105 322.189 108.215C322.012 108.239 321.879 108.175 321.735 108.188C321.521 107.782 324.231 107.284 322.935 106.958C321.805 106.686 321.55 107.44 320.937 107.911C319.548 109.021 319.636 108.104 319.128 108.023C319.774 107.65 320.599 107.364 320.77 106.898C320.968 106.829 321.166 106.761 321.319 106.67C322.682 106.123 324.356 105.837 325.544 104.575C324.194 105.155 323.53 104.204 322.199 105.479C320.627 106.062 319.137 106.986 317.469 106.974C318.918 106.249 319.613 105.269 321.316 104.64C321.493 104.616 321.658 104.559 321.811 104.469C322.702 104.159 323.693 103.926 324.417 103.563C325.481 103.009 325.05 102.937 324.059 103.171C323.012 103.35 322.113 103.847 321.134 104.224C320.529 104.397 319.783 104.804 319.361 104.544C319.623 104.342 320.128 104.093 320.148 103.938C320.189 103.629 319.695 103.911 319.332 104.037C318.453 104.38 317.586 104.755 316.751 105.119C317.375 103.831 319.353 103.033 321.441 102.234C320.891 101.502 319.08 102.353 317.987 102.4L317.954 102.411C316.464 102.486 315.052 103.42 313.586 103.67C313.308 103.509 313.019 103.314 312.773 103.14C314.206 102.901 313.412 102.106 314.723 101.835C315.45 101.693 316.158 101.817 316.957 101.244C316.478 100.93 315.644 101.294 314.874 101.524C313.912 101.416 312.859 102.003 311.813 102.292C311.365 101.746 312.687 101.509 313.312 101.181C314.272 101.069 314.75 100.423 315.597 100.202C316.734 100.176 317.345 99.5948 318.289 99.1192C317.417 99.1636 316.792 99.4916 316.165 99.7093C315.248 99.6219 314.513 100.062 313.79 100.534C312.999 100.81 312.229 101.04 311.437 101.315C310.951 101.299 310.465 101.284 309.979 101.268C309.989 101.191 310.021 101.069 310.031 100.991C311.083 100.404 312.785 100.514 313.468 99.5015C313.633 99.4442 313.798 99.3869 313.919 99.3082C315.337 98.8154 316.8 98.3441 318.218 97.8513C320.45 97.0391 322.727 96.3586 325.125 95.5994C323.113 96.2985 322.365 95.6352 320.876 95.8199C320.227 95.9718 319.61 96.1122 318.949 96.2311C317.959 96.5749 316.97 96.9187 315.98 97.2625C315.045 97.5504 314.155 97.8598 313.22 98.1477C313.141 98.0274 313.062 97.9071 312.995 97.8197C314.22 96.877 315.97 96.38 317.675 95.8614ZM41.8933 198.806C41.8818 198.773 41.8818 198.773 41.8704 198.74C41.9808 198.739 42.0797 198.704 42.1787 198.67C42.0912 198.737 41.9478 198.75 41.8933 198.806ZM45.6399 196.396C45.6399 196.396 45.6069 196.408 45.5954 196.375C45.6284 196.363 45.6614 196.352 45.6944 196.341C45.6614 196.352 45.6284 196.363 45.6399 196.396ZM52.0709 186.924C52.1038 186.913 52.1368 186.901 52.1584 186.857C52.2028 186.878 52.2573 186.822 52.2688 186.855C52.2142 186.911 52.1368 186.901 52.0709 186.924ZM50.9665 178.851C50.955 178.819 50.9221 178.83 50.9436 178.786C51.12 178.761 51.2734 178.671 51.4498 178.647C51.3179 178.692 51.1644 178.783 50.9665 178.851ZM56.2286 182.932C56.2286 182.932 56.2171 182.899 56.2501 182.887L56.2945 182.909C56.273 182.953 56.2615 182.92 56.2286 182.932ZM52.4035 171.816C52.4035 171.816 52.425 171.772 52.4035 171.816C52.4365 171.805 52.4035 171.816 52.4035 171.816ZM54.5565 168.225C54.049 168.253 53.5771 168.491 53.1382 168.717C53.6559 168.611 54.1506 168.439 54.5666 168.147C54.5336 168.159 54.5451 168.192 54.5565 168.225ZM58.5602 175.918C58.5932 175.906 58.5602 175.918 58.5602 175.918V175.918ZM61.4781 173.464C61.5656 173.396 61.6646 173.362 61.7077 173.273C61.7191 173.306 61.7306 173.339 61.742 173.372C61.6431 173.406 61.5771 173.429 61.4781 173.464ZM62.0992 170.995C62.0662 171.007 62.0218 170.985 61.9558 171.008C61.9888 170.997 61.9888 170.997 62.0217 170.985C62.0877 170.962 62.1651 170.972 62.2311 170.95C62.1981 170.961 62.1651 170.972 62.0992 170.995Z" fill="#FFEFEB"/>
<path d="M180.123 162.781C178.049 162.874 177.351 163.633 176.092 164.477C177.998 164.11 178.973 163.513 180.123 162.781Z" fill="#FFEFEB"/>
<path d="M183.506 164.855C182.936 165.238 182.367 165.62 181.552 165.829C180.747 165.851 180.092 165.561 178.951 166.216C179.054 166.513 180.166 166.2 179.929 166.689C182.838 166.232 184.013 165.676 183.649 164.842C184.391 164.105 185.955 163.819 187.073 163.099C183.779 163.726 183.439 163.918 183.506 164.855Z" fill="#FFEFEB"/>
<path d="M158.049 174.254C158.456 174.149 158.829 173.946 158.904 173.735C159.063 173.237 158.335 173.268 157.628 173.255C157.431 173.434 157.202 173.625 157.005 173.804C157.229 174.022 157.091 174.476 158.049 174.254Z" fill="#FFEFEB"/>
<path d="M174.026 166.192C173.818 166.338 173.82 166.448 174.008 166.457C175.342 166.362 176.488 166.149 176.52 165.177C175.505 165.235 174.907 165.959 174.026 166.192Z" fill="#FFEFEB"/>
<path d="M133.239 181.471C134.122 180.61 133.708 180.163 133.614 179.679L133.504 179.68C133.125 180.292 131.799 181.158 133.239 181.471Z" fill="#FFEFEB"/>
<path d="M144.875 176.874C145.27 176.626 145.212 176.461 144.903 176.421C144.361 176.351 143.776 176.369 143.175 176.874C142.427 177.17 141.68 177.467 140.9 177.775C140.923 177.841 140.967 177.862 140.99 177.928C141.76 177.697 142.552 177.422 143.322 177.192C143.679 177.474 144.24 177.279 144.875 176.874Z" fill="#FFEFEB"/>
<path d="M186.906 161.237C186.996 161.39 187.045 161.742 187.639 161.536C188.364 161.284 188.25 160.954 188.269 160.689C188.234 160.59 188.211 160.525 188.144 160.437C187.262 160.559 186.647 160.81 186.906 161.237Z" fill="#FFEFEB"/>
<path d="M217.905 153.531C219.246 153.028 220.137 152.719 221.346 152.262C219.943 152.269 218.996 152.414 217.905 153.531Z" fill="#FFEFEB"/>
<path d="M174.871 167.56C175.577 167.462 176.192 167.212 176.726 166.62C175.821 166.676 175.084 166.895 174.504 167.355C174.438 167.378 174.662 167.596 174.871 167.56Z" fill="#FFEFEB"/>
<path d="M191.947 161.701C191.31 161.996 190.558 161.851 189.835 162.324C190.521 162.492 191.236 162.207 191.907 162.01C192.327 162.049 192.606 162.321 193.296 161.86C193.537 161.702 193.721 161.38 193.588 161.315C193.208 160.967 192.539 161.384 191.947 161.701Z" fill="#FFEFEB"/>
<path d="M250.477 142.694C251.802 142.677 252.693 142.368 253.49 141.685C252.635 142.203 251.771 141.95 250.477 142.694Z" fill="#FFEFEB"/>
<path d="M171.935 165.811C171.985 166.273 172.01 166.56 172.047 166.879C171.466 167.229 170.853 167.59 170.217 167.995C171.929 168.028 172.654 166.816 174.019 166.49C174.029 166.412 173.995 166.313 174.038 166.225L174.005 166.236C173.396 166.078 172.765 165.965 171.935 165.811Z" fill="#FFEFEB"/>
<path d="M85.8965 197.144C85.4018 197.316 85.2497 197.516 85.3183 197.714C85.3641 197.846 85.5419 197.932 86.1457 197.648C86.2662 197.569 86.6936 197.31 86.7138 197.155C86.777 196.912 86.3253 196.995 85.8965 197.144Z" fill="#FFEFEB"/>
<path d="M165.714 169.079C165.384 169.194 164.9 169.289 164.937 169.608C165.113 169.584 165.423 169.624 165.543 169.545C165.862 169.398 166.08 169.174 166.354 169.005C166.144 169.041 165.912 169.011 165.714 169.079Z" fill="#FFEFEB"/>
<path d="M166.883 169.892C166.161 170.365 166.407 170.648 167.411 170.558C168.393 170.512 169.385 170.389 170.449 169.835C170.603 169.744 170.765 169.467 170.643 169.435C169.868 169.224 168.797 170.187 167.967 170.032C167.755 169.848 167.486 169.498 166.883 169.892Z" fill="#FFEFEB"/>
<path d="M250.016 143.815C250.117 143.891 250.436 143.853 250.679 143.806C250.954 143.747 251.195 143.59 251.06 143.415C250.884 143.439 250.652 143.409 250.409 143.457C250.068 143.538 249.872 143.717 250.016 143.815Z" fill="#FFEFEB"/>
<path d="M227.643 150.812C228.838 150.102 229.371 150.36 230.136 149.688C229.409 149.83 228.824 149.848 227.643 150.812Z" fill="#FFEFEB"/>
<path d="M279.099 132.085C279.276 132.061 279.508 132.091 279.628 132.012C279.848 131.899 280.155 131.719 280.154 131.608C280.174 131.453 279.854 131.491 279.404 131.684C279.361 131.773 279.23 131.929 279.099 132.085Z" fill="#FFEFEB"/>
<path d="M133.183 182.376C131.846 182.25 130.492 182.61 128.88 183.502C130.053 183.686 131.016 183.055 131.908 182.856C132.014 183.373 132.936 182.942 133.441 182.693C133.979 182.432 133.548 182.36 133.183 182.376Z" fill="#FFEFEB"/>
<path d="M142.5 178.548C140.801 178.659 140.457 179.48 139.747 180.096C139.697 180.482 138.177 180.789 138.515 181.336C139.403 180.806 140.552 180.924 141.273 180.23C141.36 180.163 140.729 180.05 140.408 179.977C141.748 179.364 143.368 179.133 144.55 178.279C145.264 177.994 146.608 177.712 145.455 177.374C144.399 177.63 143.253 177.844 142.5 178.548Z" fill="#FFEFEB"/>
<path d="M77.3171 198.943C77.1434 199.188 77.4847 199.106 77.7271 199.059C78.1343 198.954 78.5301 198.817 78.6378 198.595C78.6809 198.506 78.3598 198.433 78.1504 198.469C77.6429 198.497 77.4692 198.742 77.3171 198.943Z" fill="#FFEFEB"/>
<path d="M147.106 133.078C147.924 133.089 148.592 132.672 149.305 132.277C148.612 132.518 147.773 132.551 147.106 133.078Z" fill="#FFEFEB"/>
<path d="M296.407 92.2093C297.121 91.9242 297.727 91.7509 298.272 91.1922C297.547 91.5546 296.775 91.5646 296.407 92.2093Z" fill="#FFEFEB"/>
</g>
<defs>
<clipPath id="clip0_2378_292">
<rect width="305.396" height="45.905" fill="white" transform="translate(21 104.229) rotate(-19.1593)"/>
</clipPath>
<clipPath id="clip1_2378_292">
<rect width="305.396" height="45.905" fill="white" transform="translate(29 172.229) rotate(-19.1593)"/>
</clipPath>
</defs>
</svg>
