<svg width="798" height="612" viewBox="0 0 798 612" fill="none" xmlns="http://www.w3.org/2000/svg">
<mask id="mask0_2078_16506" style="mask-type:alpha" maskUnits="userSpaceOnUse" x="0" y="0" width="798" height="612">
<rect width="798" height="611.575" fill="url(#paint0_linear_2078_16506)"/>
</mask>
<g mask="url(#mask0_2078_16506)">
<path d="M226.957 579.95C228.13 582.106 229.38 584.351 230.711 586.69C229.832 585.323 228.508 583.051 226.957 579.95C203.594 537.018 210.303 528.98 198.656 496.852C159.853 401.531 67.9898 260.32 29.5238 233.664L-2.10938 205.405V131.172C70.4361 180.098 172.084 304.86 183.894 409.123C188.393 422.76 200.259 453.156 211.731 465.641C198.234 451.469 190.08 434.429 187.69 427.681C196.547 487.151 206.67 487.995 214.683 543.247C217.98 559.73 223.151 572.338 226.957 579.95Z" fill="#FFEFEB"/>
<path d="M230.711 586.69C202.874 537.764 210.887 530.594 198.656 496.852C159.853 401.531 67.9898 260.32 29.5238 233.664L-2.10938 205.405V131.172C70.4361 180.098 172.084 304.86 183.894 409.123C188.393 422.76 200.259 453.156 211.731 465.641C198.234 451.469 190.08 434.429 187.69 427.681C196.547 487.151 206.67 487.995 214.683 543.247C219.323 566.445 227.674 581.966 230.711 586.69Z" stroke="#2A5339"/>
<path d="M-1.6875 74.6543V110.083C22.7755 129.907 59.0482 167.867 83.0895 210.888L157.744 324.767C123.158 227.337 96.5863 155.635 -1.6875 74.6543Z" fill="#E7D6FF" stroke="#2A5339"/>
<path d="M491.369 463.953L514.566 477.45L488.838 452.566L461.844 424.728C452.284 412.216 429.283 382.551 413.762 363.993C394.36 340.795 353.026 273.311 331.937 242.099C310.849 210.888 278.794 142.56 187.69 93.6343C114.807 54.4934 31.3517 43.3023 -1.26562 42.5994V75.0761L15.6054 88.5729C52.7217 99.1173 171.662 152.261 226.072 207.936C269.514 239.569 334.468 322.237 347.121 337.842C359.775 353.448 380.442 371.585 390.142 381.285C399.843 390.986 464.375 447.926 477.028 454.674C484.789 456.024 489.822 461.423 491.369 463.953Z" fill="#D6FFD8" stroke="#2A5339"/>
<path d="M-1.6875 -0.84375L-1.26572 43.0209C23.366 32.2235 107.131 9.27887 145.934 -0.84375H-1.6875Z" fill="#EBFA9E" stroke="#2A5339"/>
<path d="M320.126 72.967C293.132 50.6973 243.925 14.4808 222.695 -0.84375H269.934C299.88 19.4015 362.303 87.3074 368.63 97.0083C373.691 104.769 412.354 148.887 431.053 169.975C434.005 173.209 432.487 172.084 402.794 141.717C365.677 103.757 353.868 100.804 320.126 72.967Z" fill="#FFEFEB" stroke="#2A5339"/>
<path d="M473.234 36.2728C432.744 15.0153 367.509 2.67134 339.953 -0.84346L434.431 -1.68701C442.866 3.93667 463.112 17.4616 476.609 26.572C547.889 57.7834 612.842 70.8584 622.543 75.9198C632.244 80.9811 655.441 88.1513 655.441 91.9472C641.945 86.0424 647.428 89.8384 622.543 83.5117C597.658 77.1851 523.847 62.8447 473.234 36.2728Z" fill="#FFF7D6" stroke="#2A5339"/>
</g>
<defs>
<linearGradient id="paint0_linear_2078_16506" x1="399" y1="0" x2="399" y2="611.575" gradientUnits="userSpaceOnUse">
<stop stop-color="#ECECED"/>
<stop offset="1" stop-color="#F1F1F1"/>
<stop offset="1" stop-color="#F1F1F1"/>
</linearGradient>
</defs>
</svg>
