<svg width="300" height="305" viewBox="0 0 300 305" fill="none" xmlns="http://www.w3.org/2000/svg">
<path d="M278.752 303.501H151.39C140.157 303.501 131.07 294.414 131.07 283.181V20.8192C131.07 9.58582 140.157 0.499268 151.39 0.499268H278.802C290.035 0.499268 299.122 9.58582 299.122 20.8192V283.231C299.072 294.414 289.985 303.501 278.752 303.501Z" fill="#4DF189"/>
<path d="M268.618 303.501H141.207C129.973 303.501 120.887 294.414 120.887 283.181V20.8192C120.887 9.58582 129.973 0.499268 141.207 0.499268H268.618C279.851 0.499268 288.938 9.58582 288.938 20.8192V283.231C288.938 294.414 279.851 303.501 268.618 303.501Z" fill="white" stroke="#050505" stroke-width="0.998522" stroke-miterlimit="10"/>
<path d="M189.439 51.7734H146.203V93.7114H189.439V51.7734Z" fill="white" stroke="#050505" stroke-width="0.748892" stroke-miterlimit="10"/>
<path d="M189.439 115.679H146.203V157.617H189.439V115.679Z" fill="white" stroke="#050505" stroke-width="0.748892" stroke-miterlimit="10"/>
<path d="M189.439 179.734H146.203V221.672H189.439V179.734Z" fill="white" stroke="#050505" stroke-width="0.748892" stroke-miterlimit="10"/>
<path d="M201.668 62.8569H253.242" stroke="#050505" stroke-width="0.748892" stroke-miterlimit="10"/>
<path d="M201.668 76.5366H265.723" stroke="#050505" stroke-width="0.748892" stroke-miterlimit="10"/>
<path d="M201.668 90.2166H254.04" stroke="#050505" stroke-width="0.748892" stroke-miterlimit="10"/>
<path d="M201.668 127.162H254.04" stroke="#050505" stroke-width="0.748892" stroke-miterlimit="10"/>
<path d="M201.668 141.091H266.272" stroke="#050505" stroke-width="0.748892" stroke-miterlimit="10"/>
<path d="M201.668 185.276H253.491" stroke="#050505" stroke-width="0.748892" stroke-miterlimit="10"/>
<path d="M201.668 198.956H266.272" stroke="#050505" stroke-width="0.748892" stroke-miterlimit="10"/>
<path d="M201.668 212.635H252.992" stroke="#050505" stroke-width="0.748892" stroke-miterlimit="10"/>
<path d="M262.354 245.872H146.176V276.577H262.354V245.872Z" fill="#4DF189"/>
<path d="M192.828 255.32H190.941L187.304 265.441L183.719 255.32H181.695L186.223 267.637H188.299L192.828 255.32ZM199.238 267.894C202.806 267.894 205.5 265.098 205.5 261.462C205.5 257.825 202.806 255.063 199.238 255.063C195.67 255.063 192.977 257.825 192.977 261.462C192.977 265.098 195.67 267.894 199.238 267.894ZM199.238 266.196C196.631 266.196 194.933 264.103 194.933 261.462C194.933 258.82 196.631 256.761 199.238 256.761C201.846 256.761 203.544 258.82 203.544 261.462C203.544 264.103 201.846 266.196 199.238 266.196ZM211.904 267.637V257.019H215.918V255.32H206.003V257.019H210.017V267.637H211.904ZM225.391 265.99H219.473V262.113H224.756V260.467H219.473V256.967H225.271V255.32H217.586V267.637H225.391V265.99Z" fill="black"/>
<path d="M142.508 129.159L150.346 122.918L168.669 145.884L190.786 111.085L198.575 116.278L169.867 162.21L142.508 129.159Z" fill="#4DF189"/>
<path d="M185.245 15.2773C186.678 15.2773 187.841 14.1149 187.841 12.6811C187.841 11.2473 186.678 10.085 185.245 10.085C183.811 10.085 182.648 11.2473 182.648 12.6811C182.648 14.1149 183.811 15.2773 185.245 15.2773Z" fill="white" stroke="black" stroke-width="0.748892" stroke-miterlimit="10"/>
<path d="M190.535 12.6812H220.241" stroke="black" stroke-width="0.748892" stroke-miterlimit="10"/>
<path d="M124.683 47.3799L129.775 46.8806L128.877 38.2434L123.534 38.7427C122.836 36.8954 121.837 35.148 120.639 33.6003L124.184 29.3067L117.044 23.8148L113.399 27.9087C111.652 27.1099 109.805 26.6106 107.858 26.361L107.458 20.8691L98.3717 21.4683L99.3702 27.2597C97.3732 27.9586 95.5259 28.9072 93.8784 30.2053L89.5348 26.5607L83.7933 33.2009L88.1369 37.2948C87.3381 38.9923 86.7889 40.8396 86.4893 42.7867L80.8477 43.4857L81.8462 52.2227L87.3381 51.6736C88.037 53.7205 89.0855 55.6177 90.3835 57.2653L87.0385 61.0597L93.6287 66.6015L97.3233 62.857C99.1206 63.7058 101.118 64.3049 103.215 64.5545L103.464 69.7468L112.401 68.6984L112.151 63.506C114.148 62.7571 115.946 61.7586 117.593 60.4606L121.737 63.8056L126.929 56.9158L123.035 53.4709C123.884 51.5737 124.433 49.5267 124.683 47.3799ZM105.561 56.5164C99.4701 56.5164 94.5274 51.5737 94.5274 45.4827C94.5274 39.3917 99.4701 34.449 105.561 34.449C111.652 34.449 116.595 39.3917 116.595 45.4827C116.545 51.5737 111.602 56.5164 105.561 56.5164Z" fill="#4DF189"/>
<path d="M103.115 199.705L107.458 199.305L106.66 191.916L102.116 192.365C101.517 190.768 100.668 189.27 99.6199 187.972L102.615 184.327L96.4746 179.634L93.3792 183.129C91.8814 182.48 90.3337 182.031 88.6362 181.831L88.2867 177.138L80.5481 177.637L81.3969 182.58C79.6994 183.179 78.1018 184.028 76.7038 185.076L73.0093 181.981L68.1165 187.672L71.8111 191.167C71.1121 192.615 70.6628 194.213 70.4131 195.86L65.5703 196.459L66.4191 203.898L71.1121 203.449C71.7112 205.196 72.6099 206.794 73.7083 208.242L70.8625 211.487L76.5041 216.23L79.6495 213.035C81.1972 213.784 82.8947 214.283 84.692 214.483L84.8917 218.926L92.5304 218.027L92.3307 213.584C94.0282 212.985 95.5759 212.086 96.9738 210.988L100.519 213.834L104.962 207.942L101.667 204.997C102.466 203.299 102.915 201.552 103.115 199.705ZM86.7889 207.493C81.5966 207.493 77.3529 203.299 77.3529 198.057C77.3529 192.865 81.5467 188.621 86.7889 188.621C91.9812 188.621 96.2249 192.815 96.2249 198.057C96.175 203.299 91.9812 207.493 86.7889 207.493Z" stroke="black" stroke-width="0.748892" stroke-miterlimit="10"/>
<path d="M81.6456 15.9265L84.2917 15.6768L83.8423 11.2334L81.0964 11.483C80.7469 10.5344 80.2477 9.63577 79.5986 8.83695L81.396 6.6402L77.7014 3.84434L75.8542 5.94124C74.9555 5.54183 74.0069 5.2922 73.0084 5.14242L72.8087 2.29663L68.1655 2.59619L68.6648 5.59175C67.6163 5.94124 66.6678 6.4405 65.819 7.08954L63.5723 5.24227L60.6267 8.63725L62.8734 10.7341C62.474 11.6328 62.1744 12.5814 62.0246 13.5799L59.1289 13.9294L59.6282 18.4228L62.474 18.1731C62.8234 19.2216 63.3726 20.2201 64.0217 21.0689L62.3242 23.016L65.7192 25.8618L67.6163 23.9146C68.5649 24.364 69.5635 24.6635 70.6618 24.7634L70.8116 27.4095L75.4048 26.8603L75.255 24.2142C76.2536 23.8647 77.2022 23.3155 78.0509 22.6166L80.1977 24.364L82.8937 20.8192L80.8967 19.0219C81.2462 18.0733 81.5457 17.0248 81.6456 15.9265ZM71.8101 20.5696C68.6648 20.5696 66.1685 18.0234 66.1685 14.9279C66.1685 11.7826 68.7147 9.28629 71.8101 9.28629C74.9056 9.28629 77.4518 11.8325 77.4518 14.9279C77.5017 18.0733 74.9555 20.5696 71.8101 20.5696Z" fill="#4DF189"/>
<path d="M55.4863 295.113V288.523L53.04 275.792L9.30469 288.223L9.75402 289.072L47.2485 295.113L51.5422 295.962L55.4863 295.113Z" fill="white"/>
<path d="M55.4844 288.523L99.1198 272.747H99.7688L100.068 272.996L104.761 278.738L109.005 280.885L107.907 282.682L104.861 284.879L98.3709 285.777L94.0773 285.727C94.0773 285.727 89.4341 288.274 89.3842 288.324C89.3343 288.324 83.0935 291.719 83.0935 291.719L78.7 289.622L78.2008 289.272L75.9541 289.522L67.6663 288.873L55.4844 288.523Z" fill="#E7D6FF"/>
<path d="M83.8906 291.319L91.729 286.776L94.7246 285.677L97.5205 285.777L99.867 285.827L104.76 284.729L107.506 282.832L109.203 280.934L113.097 281.683L116.492 282.332L118.989 283.53L121.335 285.128L123.732 287.624L124.88 289.522L125.829 292.667L125.928 295.812L97.4705 295.463L90.8803 294.514L84.989 292.667L83.8906 291.319Z" fill="white"/>
<path d="M9.50707 303.85L9.00781 288.373L32.9724 288.873L48.4494 294.864H54.9398V288.373L78.4051 288.873L95.8793 294.864H128.331V303.85H118.596L116.599 301.604L114.102 303.601H104.616L102.619 301.604L100.872 303.351H91.6355L84.1466 298.109H81.6503V303.601H45.7035L38.2146 298.109H28.7286L25.2338 303.601H21.739V301.604L19.7419 303.601H16.7464V300.605L13.7508 302.103V304.1L9.50707 303.85Z" fill="black"/>
<path d="M16.4922 157.567V152.025L64.2715 151.077L68.0159 156.618L41.4552 155.42L30.4715 157.367L24.6301 159.764L17.8402 158.516L16.4922 157.567Z" fill="black"/>
<path d="M9.00781 288.373L16.4967 157.567H27.4805C27.4805 157.567 35.3189 154.022 40.1617 153.273C45.0045 152.524 62.279 154.172 67.2217 156.219C68.1203 158.216 78.2054 183.379 81.85 192.565C87.4917 201.652 97.9762 260.814 100.972 271.898L54.9398 288.373L53.3422 275.692L9.00781 288.373Z" fill="#4DF189"/>
<path d="M53.2402 275.892L35.4665 179.934L33.8189 172.794C33.4695 171.297 32.6706 169.899 31.4724 168.95C27.4783 165.655 24.1832 161.361 22.3359 157.068" stroke="black" stroke-width="0.748892" stroke-miterlimit="10"/>
<path d="M9.00391 288.373L53.2385 275.892L55.2854 288.523L101.018 272.047L91.1324 226.515L86.1398 203.649C85.8901 202.6 85.5906 201.602 85.1912 200.603L67.9167 157.267L65.0709 153.273" stroke="black" stroke-width="0.748892" stroke-miterlimit="10"/>
<path d="M23.9335 120.272L13.5987 110.337L12.75 111.435L22.4856 125.065L23.9335 120.272Z" fill="#020202"/>
<path d="M44.6484 122.519L63.6703 115.429L65.1681 118.025L44.6484 123.018V122.519Z" fill="#020202"/>
<path d="M146.203 142.839L133.771 140.442L119.892 138.994L119.991 138.245L132.723 139.543C129.427 136.748 126.082 135.499 122.687 135.849C118.444 136.298 114.999 139.194 113.301 141.59L113.151 141.79L112.902 141.69C109.457 140.642 93.2809 139.094 83.2457 138.645C74.0593 137.696 65.6717 121.021 64.4735 118.574L46.0508 123.068L64.3237 150.377C67.2694 154.771 70.6144 155.07 80.4499 155.819L80.7994 155.869C90.6348 155.47 125.633 160.962 125.982 161.012C128.229 161.411 129.927 161.211 131.025 160.363C131.924 159.664 132.423 158.515 132.573 156.918C132.473 156.918 132.373 156.918 132.273 156.918C132.073 156.918 131.824 156.918 131.624 156.868L122.388 155.769L122.488 155.021L131.724 156.119C133.322 156.319 134.919 155.67 135.818 154.471C136.317 153.822 136.667 153.023 136.866 152.125C136.667 152.125 136.467 152.125 136.267 152.075L123.836 150.178L123.936 149.429L136.367 151.326C137.416 151.476 138.414 151.176 139.113 150.527C139.912 149.778 140.112 148.73 139.862 147.432C132.623 146.383 123.836 145.035 123.736 145.035L123.836 144.286C123.985 144.286 137.665 146.383 144.954 147.432C145.354 147.482 145.753 147.482 146.153 147.382C147.351 147.032 148.1 146.583 148.449 145.984C148.649 145.634 148.649 145.185 148.499 144.686C148.1 143.737 147.251 143.038 146.203 142.839Z" fill="#FFEFEB"/>
<path d="M149.147 144.436C148.748 143.238 147.699 142.339 146.351 142.04L134.02 139.693C130.325 136.248 126.481 134.701 122.636 135.1C118.293 135.549 114.698 138.445 112.901 140.941C108.957 139.893 93.18 138.395 83.3446 137.946C74.1083 136.997 65.1216 118.175 65.0716 118.025L64.9219 117.726L44.8516 122.569L63.7236 150.777C66.869 155.47 70.3139 155.77 80.399 156.568L80.7984 156.618C90.6338 156.219 125.532 161.711 125.882 161.761C126.68 161.91 127.379 161.96 128.028 161.96C129.476 161.96 130.625 161.611 131.523 160.962C132.622 160.113 133.221 158.715 133.371 156.868C134.619 156.618 135.667 155.969 136.416 155.021C137.015 154.222 137.415 153.273 137.614 152.175C138.363 152.025 139.062 151.676 139.611 151.176C140.51 150.278 140.859 149.129 140.61 147.681C142.158 147.931 143.605 148.131 144.854 148.281C145.353 148.331 145.852 148.331 146.351 148.181C147.749 147.781 148.698 147.182 149.097 146.433C149.297 145.784 149.347 145.135 149.147 144.436ZM148.348 145.984C148.049 146.583 147.25 147.032 146.052 147.382C145.702 147.482 145.303 147.532 144.854 147.432C137.564 146.383 123.835 144.336 123.735 144.287L123.635 145.035C123.735 145.035 132.522 146.383 139.761 147.432C140.061 148.73 139.811 149.778 139.012 150.527C138.313 151.176 137.315 151.476 136.266 151.326L123.835 149.429L123.735 150.178L136.166 152.075C136.366 152.125 136.566 152.125 136.766 152.125C136.566 153.024 136.216 153.822 135.717 154.471C134.818 155.67 133.221 156.319 131.623 156.119L122.387 155.021L122.287 155.77L131.523 156.868C131.723 156.918 131.973 156.918 132.172 156.918C132.272 156.918 132.372 156.918 132.472 156.918C132.322 158.515 131.773 159.664 130.924 160.363C129.826 161.211 128.128 161.461 125.882 161.012C125.532 160.962 90.534 155.47 80.6985 155.869L80.349 155.819C70.5136 155.021 67.1685 154.771 64.2229 150.378L45.9499 123.068L64.3727 118.575C65.5709 121.021 74.0084 137.746 83.1449 138.645C93.18 139.094 109.406 140.642 112.801 141.69L113.051 141.79L113.2 141.591C114.898 139.194 118.343 136.298 122.587 135.849C125.982 135.5 129.327 136.748 132.622 139.544L119.891 138.245L119.791 138.994L133.67 140.442L146.102 142.839C147.15 143.038 147.999 143.737 148.298 144.686C148.598 145.185 148.548 145.635 148.348 145.984Z" fill="#020202"/>
<path d="M14.5467 150.627L3.21351 135.649C1.51602 133.403 0.467574 130.707 0.367722 127.911C0.26787 125.165 1.06669 122.619 2.6144 120.222C3.46314 118.974 4.51159 117.876 5.70982 116.927L12.7494 111.485L21.9358 124.316L19.2897 127.062C18.4909 127.911 18.3411 129.209 18.9902 130.207L20.5379 132.554L14.5467 150.627Z" fill="#FFEFEB"/>
<path d="M99.8711 272.497C103.166 278.438 107.61 281.434 113.151 281.683C114.999 281.783 116.796 282.232 118.394 283.131C123.586 286.027 126.382 290.071 125.883 295.563" stroke="black" stroke-width="0.748892" stroke-miterlimit="10"/>
<path d="M109.057 280.934C106.661 284.679 102.567 286.376 96.476 285.677C94.8784 285.478 93.2808 285.877 91.8828 286.676L83.4453 291.569" stroke="black" stroke-width="0.748892" stroke-miterlimit="10"/>
<path d="M99.0703 280.335L103.713 277.639" stroke="black" stroke-width="0.748892" stroke-miterlimit="10"/>
<path d="M96.9258 278.238L101.719 275.343" stroke="black" stroke-width="0.748892" stroke-miterlimit="10"/>
<path d="M64.2745 151.076L14.0488 152.175L22.8358 123.917L23.385 120.222L13.25 109.987L27.3791 99.1033L42.8562 94.5601L45.2526 95.0094L47.6491 95.1592L47.699 97.2561C53.4905 97.1063 59.2819 102.099 65.0733 115.379L45.1029 122.619L64.2745 151.076Z" fill="#C9A6FB"/>
<path d="M42.0039 109.887H23.5312L33.5165 80.3312C37.1112 73.3915 43.5017 72.6426 47.1962 78.3342L47.5956 80.7806L43.0024 83.0772L42.0039 109.887Z" fill="#020202"/>
<path d="M42.7031 94.6099L43.0027 82.7774C43.0027 82.7774 46.4975 81.5792 47.1965 78.334C48.7941 81.03 51.0907 88.3691 45.9483 91.5644L44.9997 87.1709L44.9498 94.9594L42.7031 94.6099Z" fill="#ECCDC6"/>
<path d="M41.5595 120.622C38.4641 117.326 36.4171 113.931 36.3672 110.287" stroke="black" stroke-width="0.748892" stroke-miterlimit="10"/>
</svg>
