<svg width="80" height="80" viewBox="0 0 80 80" fill="none" xmlns="http://www.w3.org/2000/svg">
<rect width="80" height="80" rx="4" fill="#D6FFD8"/>
<g clip-path="url(#clip0_2105_16530)">
<path d="M46.5195 50.1855C44.8301 51.0938 43.1504 52.041 41.4316 52.8906C40.9043 53.1641 40.2891 53.2031 39.7031 53.1543C39.2832 53.0664 38.9023 52.8711 38.5117 52.6953C36.9297 51.8945 35.377 51.0254 33.8145 50.1953C29.4688 54.3555 25.123 58.5254 20.7773 62.6855C20.4844 62.9688 20.1914 63.252 19.8984 63.5449C20.3184 63.5547 20.7285 63.5449 21.1484 63.5449C30.8066 63.5449 40.4648 63.5352 50.123 63.5449C50.5625 63.5059 53.209 63.5352 53.6289 63.5449C55.8945 63.5254 58.1699 63.5449 60.4355 63.5352C55.8066 59.0723 51.1582 54.6289 46.5195 50.1855Z" fill="#FFF7D6"/>
<path d="M25.1616 15H32.896C33.2378 15.0586 33.521 15.3125 33.5405 15.6641C33.8237 15.6836 34.1069 15.6934 34.3901 15.7227C34.1167 15.7812 33.8335 15.7617 33.5601 15.7715C33.5503 16.2012 33.1499 16.4941 32.7495 16.4746C31.9487 16.5234 25.2202 16.2988 24.4878 16.7188C23.9312 17.041 23.6187 17.6855 23.6479 18.3203C23.6479 26.5527 23.6479 34.7852 23.6479 43.0176C24.4683 43.4473 25.2788 43.8867 26.0894 44.3262C26.9585 44.7949 27.8374 45.2637 28.7065 45.7324C29.2144 46.0059 29.7222 46.2793 30.2202 46.5527C33.1499 48.1348 36.0796 49.7168 39.0093 51.2891C39.3999 51.4746 39.8101 51.7383 40.2593 51.6699C40.6987 51.6113 41.0991 51.377 41.4995 51.1914C44.3608 49.6484 47.2319 48.1055 50.0933 46.5625C50.6206 46.2793 51.148 45.9961 51.6753 45.7031C52.5054 45.2539 53.3452 44.8047 54.1753 44.3555C55.0054 43.9062 55.8355 43.457 56.6753 43.0078C56.6851 38.6133 56.6655 30.2148 56.6753 25.8203C56.646 25.3906 57.0073 25.0293 57.4272 25.0098C57.7886 25.0684 58.1304 25.3418 58.1206 25.7324C58.1499 27.1191 58.1206 32.5195 58.1401 33.9062C59.0874 34.5898 60.0249 35.2832 60.9722 35.9668C61.3433 36.2402 61.7339 36.5039 62.0562 36.8359C62.7202 37.5 63.1694 38.3691 63.2769 39.3066C63.3257 39.7363 63.3062 40.166 63.3062 40.5859C63.3062 47.8125 63.3062 55.0391 63.2964 62.2559C63.2964 63.6914 62.0366 64.9316 60.6206 64.9902H53.5503C53.1694 64.9414 52.9155 64.6387 52.8569 64.2773C52.8862 63.8867 53.1987 63.5156 53.6187 63.5254C55.8843 63.5059 58.1597 63.5254 60.4253 63.5156C55.7964 59.0527 51.148 54.6191 46.5093 50.166C44.8198 51.0742 43.1401 52.0117 41.4214 52.8711C40.894 53.1445 40.2788 53.1836 39.6929 53.1348C39.273 53.0469 38.8921 52.8516 38.5015 52.6758C36.9194 51.875 35.3667 51.0059 33.8042 50.1758C29.4585 54.3555 25.1128 58.5156 20.7671 62.6758C20.4741 62.959 20.1812 63.2422 19.8882 63.5352C20.3081 63.5449 20.7183 63.5352 21.1382 63.5352C30.7964 63.5449 45.3374 63.5254 54.9956 63.5449C55.4351 63.5059 55.7866 63.877 55.8159 64.2969C55.7671 64.6484 55.5132 64.9316 55.1616 65.0098H19.6831C18.3257 64.9414 17.0269 63.7695 17.0659 62.3633C16.9585 55.1953 17.0171 48.0371 17.0073 40.8789C17.0269 40.166 16.939 39.4336 17.144 38.7305C17.4175 37.7734 18.0229 36.9336 18.8237 36.3477C19.937 35.5371 21.0503 34.7168 22.1733 33.916C22.1831 28.877 22.1733 23.8379 22.1733 18.8086C22.1538 18.1055 22.1929 17.3633 22.5444 16.7285C23.0522 15.7422 24.0776 15.1074 25.1616 15ZM58.1499 35.7227C58.1401 37.8906 58.1499 40.0586 58.1499 42.2363C59.3901 41.5625 60.6304 40.9082 61.8608 40.2246C61.9194 39.2773 61.5679 38.291 60.8159 37.6953C59.9468 37.002 59.0288 36.3867 58.1499 35.7227ZM20.5034 36.9434C19.9761 37.3438 19.3706 37.6953 18.98 38.252C18.5698 38.8086 18.4429 39.5312 18.4819 40.2051C18.5698 40.3125 18.7163 40.3613 18.8335 40.4297C19.4683 40.752 20.064 41.123 20.7085 41.416V41.4551C21.2163 41.6895 21.6948 41.9727 22.1831 42.2363C22.1929 40.8301 22.1831 39.4336 22.1831 38.0273C22.1831 37.2656 22.1831 36.5039 22.1831 35.7422C21.5972 36.1133 21.0601 36.543 20.5034 36.9434ZM18.4722 41.9043C18.4526 46.5723 18.4526 51.2402 18.4526 55.9082C18.4526 57.998 18.4233 60.0879 18.4819 62.1777C18.4917 62.3633 18.4819 62.5781 18.6284 62.7246C19.3022 62.0215 20.0542 61.3867 20.7183 60.6738C22.0757 59.4336 23.3843 58.1348 24.7124 56.8652C27.2905 54.3945 29.8687 51.9336 32.437 49.4531C28.5308 47.3242 24.6147 45.2148 20.7085 43.1055C19.9663 42.7051 19.2241 42.2949 18.4722 41.9043ZM47.8765 49.4531C52.4956 53.877 57.105 58.3301 61.7437 62.7344C61.8706 62.334 61.8315 61.9043 61.8413 61.4844C61.8804 59.8926 61.8511 58.3008 61.8608 56.6992C61.8511 51.7676 61.8608 46.8359 61.8413 41.9141C57.1831 44.4141 52.5249 46.9336 47.8765 49.4531Z" fill="#1C2436"/>
<path d="M30.3203 15H48.5234C49.2363 15.0488 49.9492 15.2441 50.5547 15.6348C51.0137 15.9082 51.3652 16.3184 51.7461 16.6895C53.2012 18.1348 54.6465 19.5801 56.1016 21.0352C56.707 21.6406 57.3516 22.2363 57.7129 23.0371C58.2109 24.0918 58.1816 25.293 58.1328 26.4355C58.1133 26.8066 57.7812 27.041 57.4395 27.0996C57.1172 27.0605 56.7852 26.8848 56.7168 26.543C56.6191 25.9961 56.7656 25.3809 56.4531 24.8828C56.1406 24.3457 55.4863 24.1699 54.9102 24.1406C53.7969 24.0918 52.6836 24.1699 51.5801 24.1016C50.2715 24.0039 49.1387 22.8613 49.0508 21.5527C48.9922 20.3613 49.0605 19.1602 49.0117 17.959C48.9922 17.207 48.3477 16.5137 47.5859 16.4941C46.6094 16.4355 45.623 16.4648 44.6465 16.4648C39.9883 16.4941 35.3398 16.4648 30.6816 16.4746C30.4375 16.4648 30.1641 16.4844 29.959 16.3184C29.7637 16.1914 29.7051 15.957 29.6562 15.7422C29.6953 15.3711 29.959 15.0684 30.3203 15ZM50.4375 17.4414C50.5547 18.6426 50.4668 19.8535 50.4961 21.0547C50.4863 21.5234 50.6133 22.0312 51.0039 22.334C51.6387 22.8418 52.498 22.5879 53.2402 22.6465C54.0605 22.6563 54.8906 22.6172 55.7109 22.7246C54.7637 21.7383 53.7773 20.791 52.8105 19.8145C52.0195 19.0234 51.2285 18.2227 50.4375 17.4414Z" fill="#1C2436"/>
<path d="M56.7148 26.5332C56.7148 25.9765 56.7636 25.3711 56.4511 24.873C56.1386 24.3359 55.4843 24.1601 54.9081 24.1308C53.7949 24.082 52.6816 24.1601 51.5781 24.0918C50.2695 23.9941 49.1367 22.8515 49.0488 21.5429C48.9902 20.3515 49.0585 19.1504 49.0097 17.9492C48.9902 17.1972 48.3456 16.5039 47.5839 16.4844C46.6074 16.4258 45.621 16.4551 44.6445 16.4551C39.996 16.4844 27.291 16.4844 26.8808 16.4648C26.08 16.5136 25.2109 16.289 24.4785 16.709C23.9218 17.0312 23.6093 17.6758 23.6386 18.3105C23.6386 26.5429 23.6386 34.7754 23.6386 43.0078C24.4589 43.4375 25.2695 43.8769 26.08 44.3164L26.1972 44.2871C26.2558 40.3515 26.1874 36.416 26.2363 32.4804C26.3828 32.1972 26.6367 31.9336 26.9785 31.9238C27.8867 31.8847 28.8046 31.9336 29.7128 31.9043C32.4765 31.9238 35.2499 31.9043 38.0136 31.914C38.3456 31.914 38.6386 32.1875 38.7363 32.5C38.8144 32.9004 38.7656 33.3203 38.7753 33.7304C38.7753 37.6758 38.7753 41.6113 38.7753 45.5566C38.8046 45.9863 38.5214 46.4551 38.0624 46.4844C37.4765 46.5332 36.8808 46.4941 36.2851 46.5136C35.0058 46.5136 33.7265 46.5039 32.4472 46.5234C31.705 46.5429 30.9531 46.5039 30.2109 46.5527C33.1406 48.1347 36.0703 49.7168 38.9999 51.289C39.3906 51.4746 39.8007 51.7383 40.2499 51.6699C40.6894 51.6113 41.0898 51.3769 41.4902 51.1914C44.3515 49.6484 47.2226 48.1054 50.0839 46.5625C49.3417 46.4746 48.5898 46.5332 47.8476 46.5234C46.5878 46.5234 45.3183 46.5429 44.0585 46.5234C43.4531 46.4843 42.8378 46.5527 42.2324 46.4844C41.7929 46.4258 41.539 45.9765 41.5781 45.5566C41.5781 41.5527 41.5781 37.5488 41.5781 33.5449C41.5781 33.1933 41.5488 32.832 41.6171 32.4804C41.7148 32.0996 42.1249 31.8945 42.496 31.914C43.3749 31.914 44.2636 31.9238 45.1425 31.914C47.8378 31.9238 50.5429 31.914 53.2382 31.914C53.7558 31.8652 54.1757 32.3633 54.1171 32.8613C54.1171 36.4746 54.1171 40.0879 54.1171 43.6914C54.1171 43.916 54.1464 44.1308 54.1757 44.3554C55.0058 43.9062 55.8359 43.457 56.666 43.0078C56.6757 38.6133 56.666 34.2187 56.666 29.8242C56.6464 29.4043 56.7148 26.8847 56.7148 26.5332ZM43.9023 28.0859C43.8535 28.4765 43.4628 28.7304 43.082 28.7011C41.1288 28.7011 39.1757 28.7011 37.2226 28.7011C36.8808 28.7207 36.5292 28.5156 36.4316 28.1738C36.3046 27.7832 36.5683 27.3437 36.9687 27.2558C38.9999 27.1972 41.0507 27.2461 43.0917 27.2363C43.5507 27.1875 43.9999 27.6074 43.9023 28.0859ZM46.7441 25.4004C46.5585 25.6054 46.2753 25.6347 46.0214 25.625C42.0761 25.625 38.1406 25.625 34.205 25.625C33.8828 25.6445 33.541 25.4785 33.4335 25.1562C33.287 24.8047 33.4824 24.3457 33.8437 24.2187C34.1562 24.1308 34.4785 24.1601 34.791 24.1601C38.5312 24.1601 42.2714 24.1601 46.0214 24.1601C46.2656 24.1601 46.539 24.1797 46.7148 24.3554C47.0078 24.6094 47.0273 25.1269 46.7441 25.4004ZM46.1972 22.539C42.2324 22.5586 38.2578 22.539 34.2929 22.5488C33.9999 22.5586 33.6679 22.4902 33.5019 22.2265C33.2089 21.8261 33.4531 21.1914 33.9511 21.1133C34.2245 21.0742 34.5078 21.0937 34.7812 21.084C38.5605 21.084 42.3398 21.084 46.1093 21.084C46.5097 21.0547 46.9199 21.3379 46.9394 21.7578C46.998 22.1777 46.6171 22.5683 46.1972 22.539Z" fill="white"/>
<path d="M52.8047 19.8145C52.0039 19.0234 51.2227 18.2227 50.4219 17.4414C50.5391 18.6426 50.4512 19.8535 50.4805 21.0547C50.4707 21.5234 50.5977 22.0312 50.9883 22.334C51.623 22.8418 52.4824 22.5879 53.2246 22.6465C54.0449 22.6563 54.875 22.6074 55.6953 22.7246C54.748 21.7383 53.7715 20.791 52.8047 19.8145Z" fill="#EBFA9E"/>
<path d="M38.7734 33.7402C38.7734 33.3301 38.8125 32.9102 38.7344 32.5098C38.6367 32.1973 38.3438 31.9238 38.0117 31.9238C35.248 31.9141 32.4746 31.9336 29.7109 31.9141C28.8027 31.9434 27.8848 31.8945 26.9766 31.9336C26.6348 31.9434 26.3809 32.207 26.2344 32.4902C26.1855 36.4258 26.2637 40.3613 26.1953 44.2969L26.0781 44.3262C26.957 44.7949 27.8262 45.2637 28.6953 45.7422C28.6855 45.0098 28.666 44.2676 28.6953 43.5254C28.7051 43.1543 28.8906 42.8125 29.1348 42.5391C29.4277 42.3047 29.7891 42.1289 30.1797 42.1484C31.3223 42.1484 32.4648 42.1387 33.6074 42.1582C34.2227 42.207 34.8965 42.0508 35.4727 42.3242C35.9414 42.5684 36.2637 43.0762 36.2637 43.6133C36.2832 44.5801 36.2637 45.5566 36.2637 46.5234C36.8594 46.5039 37.4453 46.5527 38.041 46.4941C38.5 46.4648 38.7832 45.9961 38.7539 45.5664C38.7734 41.6309 38.7832 37.6855 38.7734 33.7402ZM34.6328 38.6816C34.1641 39.5117 33.1973 40.0293 32.2402 39.9023C30.8828 39.8145 29.8086 38.4082 30.0723 37.0703C30.2285 35.918 31.3125 34.9902 32.4746 35C33.3145 35.0195 34.1543 35.4492 34.584 36.1816C35.0625 36.9336 35.0527 37.9199 34.6328 38.6816Z" fill="#4DF189"/>
<path d="M54.127 43.711C54.127 40.0977 54.1367 36.4844 54.127 32.8809C54.1855 32.3828 53.7559 31.8848 53.248 31.9336C50.5527 31.9336 47.8477 31.9336 45.1523 31.9336C44.2734 31.9434 43.3848 31.9336 42.5059 31.9336C42.1348 31.9141 41.7344 32.1192 41.627 32.5C41.5488 32.8516 41.5879 33.2129 41.5879 33.5645C41.5879 37.5684 41.5879 41.5723 41.5879 45.5762C41.5586 45.9961 41.8027 46.4356 42.2422 46.5039C42.8477 46.5723 43.4531 46.5039 44.0684 46.543C44.0781 45.5664 44.0586 44.5996 44.0684 43.6231C44.0684 43.2031 44.2734 42.793 44.5859 42.5098C44.8594 42.3047 45.1816 42.1485 45.5234 42.168C46.6758 42.1582 47.8184 42.168 48.9707 42.168C49.4199 42.168 49.8691 42.1582 50.3184 42.1875C51.041 42.2266 51.666 42.9004 51.6465 43.6328C51.666 44.336 51.627 45.0293 51.6855 45.7324C52.5156 45.2832 53.3555 44.834 54.1855 44.3848C54.1465 44.1504 54.127 43.9258 54.127 43.711ZM49.9766 38.711C49.5273 39.4727 48.6582 39.9707 47.7793 39.9121C46.4609 39.9219 45.3184 38.6817 45.4062 37.3731C45.4062 36.084 46.5879 34.9707 47.8672 35C48.668 35.0293 49.459 35.4297 49.8984 36.1035C50.4258 36.875 50.4258 37.9199 49.9766 38.711Z" fill="#4DF189"/>
<path d="M33.9501 21.1035C34.2235 21.0644 34.5067 21.0839 34.7802 21.0742C38.5595 21.0742 42.3388 21.0742 46.1083 21.0742C46.5087 21.0351 46.9188 21.3281 46.9384 21.748C46.9872 22.1679 46.6161 22.5585 46.1864 22.539C42.2216 22.5488 38.247 22.539 34.2821 22.5488C33.9891 22.5585 33.6571 22.4902 33.4911 22.2265C33.2079 21.8261 33.452 21.1816 33.9501 21.1035Z" fill="#C7C6CE"/>
<path d="M33.8341 24.2187C34.1466 24.1308 34.4689 24.1601 34.7814 24.1601C38.5216 24.1601 42.2619 24.1601 46.0021 24.1601C46.2462 24.1601 46.5197 24.1796 46.6955 24.3554C46.9982 24.6093 47.0177 25.1269 46.7345 25.4003C46.549 25.6054 46.2658 25.6347 46.0119 25.6249C42.0666 25.6249 38.131 25.6249 34.1955 25.6249C33.8732 25.6445 33.5314 25.4784 33.424 25.1562C33.2775 24.7948 33.4728 24.3456 33.8341 24.2187Z" fill="#C7C6CE"/>
<path d="M36.967 27.2558C39.008 27.1972 41.049 27.2461 43.0803 27.2363C43.5392 27.1875 43.9982 27.6074 43.9006 28.0859C43.8517 28.4765 43.4611 28.7304 43.0803 28.7011C41.1271 28.7011 39.174 28.7011 37.2209 28.7011C36.8791 28.7207 36.5275 28.5156 36.4299 28.1738C36.3029 27.7832 36.5763 27.3437 36.967 27.2558Z" fill="#C7C6CE"/>
<path d="M34.583 36.1914C34.1436 35.459 33.3135 35.0293 32.4736 35.0098C31.3115 35.0098 30.2275 35.9277 30.0713 37.0801C29.8076 38.418 30.8818 39.8145 32.2393 39.9121C33.1963 40.0293 34.1631 39.5215 34.6318 38.6914C35.0518 37.9199 35.0615 36.9336 34.583 36.1914Z" fill="white"/>
<path d="M49.8954 36.123C49.4559 35.4394 48.6649 35.039 47.8641 35.0195C46.5848 34.9902 45.4032 36.0937 45.4032 37.3925C45.3153 38.7011 46.4579 39.9414 47.7762 39.9316C48.6649 39.9902 49.5341 39.4824 49.9735 38.7304C50.4227 37.9199 50.4227 36.875 49.8954 36.123Z" fill="white"/>
<path d="M47.875 49.4531C52.5234 46.9238 57.1816 44.4141 61.8398 41.9043C61.8594 46.8359 61.8496 51.7676 61.8594 56.6895C61.8594 58.2812 61.8789 59.8828 61.8398 61.4746C61.8301 61.8945 61.8691 62.3242 61.7422 62.7246C57.1035 58.3301 52.5039 53.877 47.875 49.4531Z" fill="#FFF3C2"/>
<path d="M58.1528 35.7227C59.0317 36.3867 59.9497 37.002 60.8188 37.6855C61.5707 38.291 61.9223 39.2676 61.8637 40.2148C60.6332 40.8984 59.3832 41.5527 58.1528 42.2266C58.1528 40.0586 58.143 37.8906 58.1528 35.7227Z" fill="#F8E7A2"/>
<path d="M20.7085 43.1055C19.9663 42.7051 19.2241 42.2949 18.4722 41.9043C18.4526 46.5723 18.4624 51.2402 18.4526 55.9082C18.4526 57.998 18.4233 60.0879 18.4819 62.1777C18.4917 62.3633 18.4819 62.5781 18.6284 62.7246C19.3022 62.0215 20.0542 61.3867 20.7183 60.6738C22.0757 59.4336 23.3843 58.1348 24.7124 56.8652C27.2905 54.3945 29.8687 51.9336 32.437 49.4531C28.5405 47.3242 24.6245 45.2246 20.7085 43.1055Z" fill="#FFF3C2"/>
<path d="M36.2822 43.6133C36.2822 43.0762 35.9599 42.5684 35.4911 42.3242C34.915 42.0508 34.2411 42.1973 33.6259 42.1582C32.4833 42.1387 31.3408 42.1484 30.1982 42.1484C29.8076 42.1289 29.4462 42.3047 29.1533 42.5391C28.9091 42.8125 28.7236 43.1445 28.7138 43.5254C28.6845 44.2578 28.6943 45 28.7138 45.7422C29.2216 46.0156 29.7294 46.2891 30.2275 46.5625C30.9697 46.5234 31.7118 46.5625 32.4638 46.5332C33.7431 46.5137 35.0224 46.5332 36.3017 46.5234C36.2919 45.5566 36.3017 44.5801 36.2822 43.6133Z" fill="white"/>
<path d="M22.1844 38.0273C22.1844 37.2656 22.1844 36.5039 22.1844 35.7422C21.6083 36.1133 21.0712 36.543 20.5048 36.9434C19.9677 37.3438 19.3719 37.6953 18.9813 38.252C18.5712 38.8086 18.4442 39.5313 18.4833 40.2051C18.5712 40.3125 18.7177 40.3613 18.8348 40.4297C19.4696 40.752 20.0653 41.123 20.7098 41.416V41.4551C21.2079 41.6895 21.6962 41.9727 22.1844 42.2363C22.1844 40.8301 22.1747 39.4336 22.1844 38.0273Z" fill="#F8E7A2"/>
<path d="M51.6434 43.6132C51.663 42.8906 51.038 42.207 50.3153 42.1679C49.8661 42.1386 49.4169 42.1581 48.9677 42.1484C47.8153 42.1484 46.6727 42.1386 45.5204 42.1484C45.1688 42.1289 44.8466 42.2851 44.5829 42.4902C44.2704 42.7734 44.0653 43.1738 44.0653 43.6035C44.0556 44.58 44.0751 45.5468 44.0653 46.5234C45.3251 46.5429 46.5946 46.5331 47.8544 46.5234C48.5966 46.5331 49.3485 46.4746 50.0907 46.5624C50.6181 46.2792 51.1454 45.996 51.6727 45.7031C51.6141 45.0195 51.6532 44.3164 51.6434 43.6132Z" fill="white"/>
</g>
<defs>
<clipPath id="clip0_2105_16530">
<rect width="46.3184" height="50" fill="white" transform="translate(17 15)"/>
</clipPath>
</defs>
</svg>
