<svg width="80" height="80" viewBox="0 0 80 80" fill="none" xmlns="http://www.w3.org/2000/svg">
<rect width="80" height="80" rx="4" fill="#D6FFD8"/>
<g clip-path="url(#clip0_2104_16448)">
<path d="M40.2749 25.459C39.4058 25.4492 38.6636 24.6484 38.7027 23.7891C38.7027 21.3477 38.7027 18.9062 38.7027 16.4648C35.2554 16.4648 31.7984 16.4746 28.3511 16.4648C27.9409 16.4941 27.6675 16.1133 27.6284 15.7422C26.7105 15.7422 25.8023 15.7422 24.8843 15.7422C24.8452 16.0742 24.6304 16.4453 24.2593 16.4551C23.1167 16.4844 21.9741 16.4551 20.8316 16.4648C20.7144 16.4844 20.5191 16.4258 20.4898 16.5918C20.4605 16.875 20.48 17.1582 20.4702 17.4414C20.4702 29.7168 20.4702 41.9922 20.4702 54.2676C20.48 54.5801 20.4507 54.8926 20.4898 55.2051C20.5679 55.3125 20.7144 55.2832 20.8316 55.293C26.0659 55.293 31.3003 55.293 36.5445 55.293C36.0171 52.6855 36.3589 49.9121 37.5503 47.5293C38.9566 44.668 41.5347 42.4023 44.562 41.3867C45.5777 41.0352 46.6421 40.8398 47.7066 40.7617C47.7066 35.6836 47.7066 30.6152 47.7066 25.5371V25.4688C45.2261 25.459 42.7554 25.4688 40.2749 25.459ZM24.4448 20.7617C24.8062 20.7324 25.1773 20.7422 25.5386 20.752C25.9487 20.752 26.271 21.1426 26.2417 21.543C26.2417 23.0078 26.2515 24.4727 26.2417 25.9375C26.2612 26.3672 25.8609 26.7383 25.4409 26.6797C25.0796 26.6504 24.7769 26.3086 24.7866 25.9473C24.7769 24.707 24.7866 23.457 24.7866 22.2168C24.4741 22.2363 24.1226 22.168 23.9566 21.8848C23.6343 21.4648 23.9273 20.8008 24.4448 20.7617ZM26.232 40.7812C26.2222 41.2402 25.7144 41.582 25.2847 41.4355C24.9722 41.3379 24.7573 41.0156 24.7769 40.6934C24.7769 39.4629 24.7769 38.2324 24.7769 37.002C24.4839 37.002 24.1421 36.9629 23.9566 36.6895C23.6538 36.2988 23.8784 35.6543 24.3667 35.5566C24.7573 35.5078 25.1577 35.5371 25.5484 35.5371C25.939 35.5371 26.2612 35.9082 26.2417 36.2891C26.232 37.7832 26.2417 39.2871 26.232 40.7812ZM27.0425 32.4414C26.9741 33.4473 26.0464 34.2969 25.0308 34.2871C24.0249 34.3164 23.0874 33.4766 23.0093 32.4707C22.98 31.9238 22.9995 31.377 22.9995 30.8203C23.0093 30.4004 22.9605 29.9707 23.0972 29.5703C23.2925 28.9551 23.7905 28.457 24.4058 28.2617C25.0405 28.0566 25.773 28.1836 26.2905 28.6035C26.7886 28.9844 27.0718 29.6094 27.062 30.2344C27.0425 30.9668 27.062 31.6992 27.0425 32.4414ZM27.814 23.6914C27.8335 23.1738 27.7652 22.6562 27.8823 22.1484C28.0581 21.4746 28.6148 20.918 29.2886 20.7324C30.1968 20.459 31.2417 20.918 31.6519 21.7773C31.9448 22.3047 31.857 22.9297 31.8667 23.5059C31.857 23.9941 31.8862 24.4824 31.857 24.9707C31.7788 25.8398 31.0757 26.6113 30.2066 26.7578C29.3765 26.9238 28.4683 26.4941 28.0679 25.752C27.7066 25.1172 27.8433 24.375 27.814 23.6914ZM29.2105 29.7266C28.8882 29.7461 28.5073 29.6582 28.3511 29.3457C28.0972 28.9355 28.3706 28.3398 28.8394 28.2715C29.23 28.2422 29.6206 28.2422 30.0112 28.2617C30.3726 28.2812 30.6655 28.6133 30.6655 28.9746C30.6753 30.4688 30.6753 31.9727 30.6655 33.4668C30.6753 33.8672 30.314 34.2188 29.9136 34.1895C29.5327 34.1895 29.1909 33.8379 29.2105 33.4473C29.2105 32.207 29.2202 30.9668 29.2105 29.7266ZM31.8765 38.5352C31.857 39.1309 31.9644 39.7461 31.7202 40.3125C31.4175 41.0645 30.6362 41.582 29.8257 41.5625C29.0249 41.5625 28.2534 41.0352 27.9605 40.2832C27.7652 39.8242 27.8237 39.3066 27.814 38.8184C27.8237 38.3008 27.8042 37.7832 27.8237 37.2656C27.8921 36.416 28.5562 35.6641 29.3862 35.4785C30.2652 35.2637 31.2417 35.7129 31.6421 36.5137C31.9839 37.1387 31.8472 37.8613 31.8765 38.5352ZM33.6538 29.7266C33.2925 29.7559 32.8726 29.6289 32.7456 29.248C32.5405 28.7891 32.9409 28.2227 33.439 28.252C33.8589 28.2617 34.2984 28.1836 34.7085 28.3301C34.9819 28.457 35.1382 28.7695 35.1187 29.0625C35.1187 30.5273 35.1284 31.9922 35.1187 33.457C35.1284 33.8379 34.8062 34.1895 34.4155 34.1895C34.0152 34.2188 33.6441 33.8672 33.6538 33.4668C33.6538 32.2168 33.6636 30.9668 33.6538 29.7266ZM35.1187 40.7812C35.1089 41.2695 34.5425 41.6113 34.1128 41.4062C33.8296 41.2988 33.6538 40.9863 33.6636 40.6934C33.6636 39.4629 33.6636 38.2324 33.6636 37.002C33.3609 37.002 33.0191 36.9531 32.8433 36.6797C32.5405 36.2891 32.7749 35.6445 33.2632 35.5469C33.6538 35.5078 34.0444 35.5273 34.4351 35.5273C34.8257 35.5273 35.148 35.8984 35.1284 36.2891C35.1187 37.793 35.1284 39.2871 35.1187 40.7812ZM35.1187 21.543C35.1187 23.0078 35.1187 24.4727 35.1187 25.9375C35.148 26.4453 34.562 26.8457 34.103 26.6309C33.8296 26.5234 33.6441 26.2402 33.6538 25.9473C33.6441 24.707 33.6538 23.4668 33.6538 22.2168C33.3706 22.2266 33.0386 22.1875 32.8628 21.9336C32.5308 21.5527 32.7456 20.8887 33.2339 20.7715C33.6245 20.7129 34.0249 20.7422 34.4155 20.7422C34.8257 20.752 35.1577 21.1426 35.1187 21.543ZM37.7359 28.2617C38.1265 28.2324 38.5269 28.2324 38.9175 28.252C39.2788 28.2812 39.5718 28.6035 39.562 28.9648C39.5718 30.459 39.5718 31.9531 39.562 33.457C39.5718 33.8574 39.2105 34.209 38.8198 34.1895C38.4292 34.1895 38.0972 33.8477 38.107 33.457C38.0972 32.207 38.107 30.9668 38.107 29.7168C37.7847 29.7363 37.4038 29.6582 37.2476 29.3359C36.9839 28.9355 37.2573 28.3398 37.7359 28.2617ZM40.1773 40.1953C39.8062 40.9766 38.898 41.4551 38.0386 41.3086C37.1206 41.1816 36.3589 40.3516 36.3296 39.4141C36.3198 38.6719 36.3198 37.9199 36.3296 37.1777C36.3394 36.3184 36.9546 35.5273 37.7749 35.293C38.7222 34.9902 39.8355 35.5176 40.2066 36.4355C40.4605 37.0117 40.353 37.6465 40.3726 38.252C40.353 38.8965 40.48 39.5898 40.1773 40.1953ZM44.4839 33.3789C44.0444 34.043 43.2046 34.4043 42.4136 34.248C41.5542 34.1016 40.8609 33.3496 40.773 32.4805C40.7339 31.9629 40.7632 31.4355 40.7534 30.9082C40.7632 30.4297 40.7046 29.9219 40.8804 29.4629C41.1441 28.75 41.8374 28.2129 42.5991 28.1641C43.3413 28.0859 44.103 28.4766 44.4937 29.1113C44.8941 29.7363 44.7866 30.5078 44.7964 31.2109C44.8159 31.9434 44.9234 32.7441 44.4839 33.3789Z" fill="#FFF7D6"/>
<path d="M29.9125 25.3125C30.2153 25.2832 30.4399 24.9805 30.4008 24.6777C30.4008 23.9941 30.4106 23.3008 30.3911 22.6172C30.3715 22.2656 29.9614 22.0215 29.6489 22.1582C29.4243 22.2363 29.268 22.4707 29.2778 22.7051C29.2778 23.3887 29.268 24.0723 29.2778 24.7559C29.2778 25.0781 29.5903 25.3613 29.9125 25.3125Z" fill="#FFF7D6"/>
<path d="M24.7778 29.6777C24.5727 29.7754 24.4555 30 24.4653 30.2246C24.4653 30.9082 24.4555 31.6016 24.4653 32.2949C24.4653 32.5879 24.7485 32.8418 25.0414 32.8223C25.3247 32.8125 25.5786 32.5684 25.5786 32.2852C25.5883 31.5723 25.5883 30.8691 25.5786 30.1563C25.5786 29.7656 25.1196 29.4922 24.7778 29.6777Z" fill="#FFF7D6"/>
<path d="M42.6266 29.6484C42.3825 29.7167 42.2165 29.9706 42.236 30.2245C42.236 30.8788 42.236 31.5331 42.236 32.1874C42.2165 32.4511 42.3727 32.7148 42.6266 32.7929C42.9684 32.9199 43.3591 32.6367 43.3591 32.2753C43.3688 31.5624 43.3688 30.8496 43.3591 30.1367C43.3395 29.7949 42.9489 29.5312 42.6266 29.6484Z" fill="#FFF7D6"/>
<path d="M38.9067 37.1582C38.8774 36.7773 38.3989 36.5332 38.0766 36.7383C37.8911 36.8457 37.7836 37.0508 37.7934 37.2656C37.7934 37.9492 37.7836 38.6328 37.7934 39.3164C37.7836 39.6777 38.1743 39.9512 38.5161 39.834C38.7797 39.7559 38.9457 39.4824 38.9164 39.209C38.9067 38.5352 38.9262 37.8418 38.9067 37.1582Z" fill="#FFF7D6"/>
<path d="M29.6694 36.9238C29.4351 36.9921 29.2788 37.2265 29.2886 37.4706C29.2788 38.1542 29.2788 38.8281 29.2886 39.5117C29.2788 39.7363 29.4155 39.9511 29.6108 40.0488C29.9331 40.2148 30.3628 39.9804 30.3921 39.6191C30.4116 38.8964 30.4019 38.1835 30.4019 37.4609C30.4214 37.0898 30.0112 36.7968 29.6694 36.9238Z" fill="#FFF7D6"/>
<path d="M20.4479 15H29.1589C29.5299 15.0586 29.735 15.3906 29.7741 15.7324C29.735 16.0645 29.5202 16.4355 29.1491 16.4453C28.0065 16.4746 21.9811 16.4453 20.8385 16.4551C20.7214 16.4746 20.526 16.416 20.4967 16.582C20.4674 16.8652 20.487 17.1484 20.4772 17.4316C20.4772 29.707 20.4772 41.9824 20.4772 54.2578C20.487 54.5703 20.4577 54.8828 20.4967 55.1953C20.5749 55.3027 20.7214 55.2734 20.8385 55.2832C26.0729 55.2832 31.3073 55.2832 36.5514 55.2832C36.0241 52.6758 36.3659 49.9023 37.5573 47.5195C38.9635 44.6582 41.5417 42.3926 44.569 41.377C45.5846 41.0254 46.6491 40.8301 47.7135 40.752C47.7135 35.6836 47.7135 30.6055 47.7135 25.5273V25.459C45.2331 25.4492 42.7624 25.459 40.2819 25.4492C39.4128 25.4395 38.6706 24.6387 38.7096 23.7793C38.7096 21.3379 38.7096 18.8965 38.7096 16.4551C35.2624 16.4551 31.8053 16.4648 28.3581 16.4453C27.9479 16.4746 27.6745 16.0938 27.6354 15.7227C27.6647 15.3906 27.8698 15.0781 28.2214 15H39.5299C39.901 15.0879 40.1354 15.4102 40.3991 15.6641C43.2214 18.4668 46.0534 21.2695 48.8756 24.0723C49.071 24.248 49.1881 24.502 49.1686 24.7656C49.1686 30.0977 49.1686 35.4199 49.1686 40.752C50.5456 40.8301 51.9128 41.1523 53.1921 41.6797C53.1921 35.0293 53.1921 28.3789 53.1921 21.7383C52.6061 21.5332 52.069 21.1523 51.7565 20.6055C51.2194 19.7461 51.278 18.5645 51.903 17.7637C52.4694 17.002 53.485 16.6113 54.4225 16.8066C55.6237 17.0215 56.5417 18.1934 56.4635 19.4043C56.4342 20.4688 55.6628 21.416 54.6667 21.7285C54.6569 26.6992 54.6667 31.6797 54.6667 36.6504C55.7995 36.6504 56.9421 36.6504 58.0749 36.6504C58.0749 34.9121 58.0749 33.1738 58.0749 31.4355C57.4792 31.2207 56.9421 30.8398 56.6296 30.2832C56.0729 29.375 56.1803 28.1152 56.903 27.3242C57.6159 26.4746 58.9147 26.2109 59.9108 26.709C60.9167 27.1777 61.5221 28.3496 61.3073 29.4336C61.151 30.3711 60.4284 31.1426 59.5397 31.4355C59.5397 33.4082 59.5495 35.3809 59.5397 37.3633C59.5592 37.7539 59.2272 38.1152 58.8366 38.1152C57.4499 38.1348 56.0534 38.1152 54.6667 38.125C54.6667 39.5605 54.6667 40.9863 54.6667 42.4219C56.61 43.5742 58.2311 45.2637 59.276 47.2656C60.8385 50.2051 61.0827 53.8086 59.9499 56.9434C59.4128 58.4277 58.6022 59.8145 57.528 60.9766C57.2741 61.2891 56.8151 61.2305 56.5221 61.0059C56.3952 60.8398 56.2585 60.6445 56.278 60.4199C56.278 60.1855 56.4538 60 56.5905 59.834C57.7331 58.5254 58.5436 56.9238 58.9245 55.2344C59.403 53.1641 59.2272 50.9473 58.446 48.9746C57.5182 46.6113 55.7116 44.6094 53.4557 43.4375C52.0299 42.6855 50.4284 42.2656 48.8171 42.2266C46.4831 42.1387 44.1296 42.8613 42.235 44.2285C40.2038 45.6738 38.6999 47.8516 38.0944 50.2734C37.4987 52.5977 37.7233 55.1172 38.7194 57.2949C39.6178 59.2773 41.151 60.9668 43.0358 62.0801C44.8034 63.125 46.8639 63.6426 48.9147 63.5547C50.5553 63.4961 52.1667 63.0371 53.612 62.2754C53.9635 62.041 54.403 62.2168 54.6178 62.5488C54.7155 62.8223 54.7643 63.1641 54.5397 63.3887C54.3053 63.6035 54.0124 63.7109 53.7292 63.8574C52.1667 64.5996 50.4479 65 48.7194 65.0391H48.1432C45.0671 64.9512 42.0592 63.6621 39.8815 61.4941C37.8698 61.4941 35.8581 61.4941 33.8561 61.4941C33.5339 62.5 32.5671 63.2812 31.4928 63.3008C30.3307 63.3594 29.2077 62.5 28.9538 61.3574C28.7096 60.4004 29.0905 59.3262 29.8913 58.7402C30.7018 58.1055 31.8932 58.0566 32.7624 58.6035C33.2897 58.9258 33.6608 59.4531 33.8659 60.0293C35.4577 60.0293 37.0495 60.0293 38.6315 60.0293C37.9186 59.043 37.3424 57.9492 36.9518 56.7969C31.5221 56.7969 26.0924 56.7969 20.6628 56.7969C19.7741 56.7676 19.0026 56.0059 19.0124 55.1367C19.0026 42.5098 19.0124 29.873 19.0026 17.2461C19.0026 16.7871 18.9635 16.2988 19.1881 15.8789C19.4323 15.4004 19.9206 15.0879 20.4479 15ZM40.1647 17.5C40.1647 19.5605 40.1647 21.6309 40.1647 23.6914C40.1452 23.8184 40.1842 24.0234 40.36 23.9941C42.4596 24.0039 44.569 23.9941 46.6686 23.9941C44.5006 21.8262 42.3327 19.668 40.1647 17.5ZM53.5924 18.2715C53.2799 18.3789 53.026 18.623 52.9186 18.9355C52.694 19.5312 53.1139 20.2344 53.7389 20.332C54.3639 20.4688 55.0182 19.9219 54.9987 19.2871C55.028 18.5938 54.2467 18.0273 53.5924 18.2715ZM58.3678 28.0176C57.8991 28.2227 57.6354 28.7695 57.7624 29.2676C57.86 29.7852 58.4167 30.1172 58.9245 30.0488C59.4714 30.0195 59.9206 29.5117 59.8717 28.9648C59.8815 28.2324 59.0319 27.6953 58.3678 28.0176ZM31.1413 59.6875C30.3503 59.8535 30.0671 60.9863 30.6921 61.5039C31.2389 62.0508 32.2741 61.748 32.4401 60.9961C32.6745 60.2441 31.8835 59.4629 31.1413 59.6875Z" fill="#1C2436"/>
<path d="M29.2884 20.7324C30.1966 20.4589 31.2415 20.9179 31.6516 21.7675C31.9348 22.2949 31.8567 22.9199 31.8665 23.4961C31.8567 23.9843 31.886 24.4726 31.8567 24.9609C31.7786 25.83 31.0755 26.6015 30.2063 26.748C29.3763 26.914 28.4681 26.4843 28.0677 25.7422C27.6966 25.1269 27.8333 24.3847 27.8138 23.7011C27.8333 23.1836 27.7552 22.666 27.8821 22.1582C28.0677 21.4746 28.6145 20.9179 29.2884 20.7324ZM29.6497 22.1582C29.4251 22.2363 29.2688 22.4707 29.2786 22.705C29.2786 23.3886 29.2688 24.0722 29.2786 24.7558C29.2688 25.0781 29.5911 25.3613 29.9036 25.3027C30.2063 25.2734 30.4309 24.9707 30.3919 24.6679C30.3919 23.9843 30.4016 23.291 30.3821 22.6074C30.3723 22.2656 29.972 22.0215 29.6497 22.1582Z" fill="#1C2436"/>
<path d="M23.9348 21.8848C23.6321 21.4648 23.9251 20.8008 24.4427 20.7617C24.804 20.7324 25.1751 20.7422 25.5364 20.752C25.9466 20.752 26.2688 21.1426 26.2395 21.543C26.2395 23.0078 26.2493 24.4727 26.2395 25.9375C26.2591 26.3672 25.8587 26.7383 25.4387 26.6797C25.0774 26.6504 24.7649 26.3086 24.7844 25.9473C24.7747 24.707 24.7844 23.457 24.7844 22.2168C24.4622 22.2266 24.1106 22.168 23.9348 21.8848Z" fill="#1C2436"/>
<path d="M32.8591 21.9336C32.5271 21.5527 32.7419 20.8887 33.2302 20.7715C33.6208 20.7129 34.0212 20.7422 34.4118 20.7422C34.822 20.7422 35.154 21.1328 35.115 21.5332C35.115 22.998 35.115 24.4629 35.115 25.9277C35.1442 26.4355 34.5583 26.8359 34.0993 26.6211C33.8259 26.5137 33.6403 26.2305 33.6501 25.9375C33.6403 24.6973 33.6501 23.457 33.6501 22.207C33.3669 22.2168 33.0446 22.1875 32.8591 21.9336Z" fill="#1C2436"/>
<path d="M24.3923 28.2617C25.0271 28.0566 25.7497 28.1836 26.2771 28.6035C26.7751 28.9844 27.0583 29.6094 27.0486 30.2344C27.0486 30.9766 27.0583 31.709 27.0388 32.4512C26.9704 33.457 26.0427 34.3066 25.0271 34.2969C24.0212 34.3262 23.0837 33.4863 23.0056 32.4805C22.9763 31.9336 23.0056 31.3867 22.9958 30.8301C23.0056 30.4101 22.9568 29.9805 23.0935 29.5801C23.279 28.9551 23.7869 28.457 24.3923 28.2617ZM24.7732 29.6777C24.5681 29.7754 24.4509 30 24.4607 30.2246C24.4607 30.918 24.4509 31.6016 24.4607 32.2949C24.4607 32.5879 24.7439 32.8418 25.0369 32.8223C25.3201 32.8125 25.574 32.5684 25.574 32.2851C25.5837 31.5723 25.5837 30.8691 25.574 30.1562C25.574 29.7656 25.115 29.4922 24.7732 29.6777Z" fill="#1C2436"/>
<path d="M40.898 29.4727C41.1616 28.7598 41.855 28.2227 42.6167 28.1738C43.3589 28.0957 44.1206 28.4863 44.5112 29.1211C44.9214 29.7461 44.8042 30.5176 44.814 31.2207C44.8042 31.9531 44.9214 32.7539 44.482 33.3887C44.0425 34.0527 43.2027 34.4238 42.4116 34.2578C41.5523 34.1113 40.8589 33.3594 40.771 32.4902C40.732 31.9727 40.7612 31.4453 40.7515 30.918C40.771 30.4297 40.7124 29.9317 40.898 29.4727ZM42.6265 29.6485C42.3823 29.7168 42.2163 29.9707 42.2359 30.2246C42.2359 30.8789 42.2359 31.5332 42.2359 32.1875C42.2163 32.4512 42.3726 32.7149 42.6265 32.793C42.9585 32.9199 43.3589 32.6367 43.3589 32.2754C43.3687 31.5625 43.3687 30.8496 43.3589 30.1465C43.3394 29.7949 42.9487 29.5313 42.6265 29.6485Z" fill="#1C2436"/>
<path d="M28.3469 29.3456C28.093 28.9355 28.3665 28.3398 28.8352 28.2714C29.2259 28.2421 29.6165 28.2421 30.0169 28.2617C30.3782 28.2812 30.6712 28.6132 30.6712 28.9746C30.6809 30.4687 30.6809 31.9726 30.6712 33.4667C30.6809 33.8671 30.3196 34.2187 29.9192 34.1894C29.5384 34.1894 29.1966 33.8378 29.2161 33.4472C29.2063 32.207 29.2161 30.957 29.2161 29.7167C28.8841 29.7363 28.513 29.6581 28.3469 29.3456Z" fill="#1C2436"/>
<path d="M32.7502 29.248C32.5451 28.789 32.9455 28.2226 33.4435 28.2519C33.8635 28.2714 34.3127 28.1835 34.7131 28.33C34.9865 28.457 35.1428 28.7695 35.1232 29.0624C35.1232 30.5273 35.133 31.9921 35.1232 33.457C35.133 33.8378 34.8107 34.1894 34.4299 34.1894C34.0295 34.2187 33.6584 33.8671 33.6682 33.4667C33.6584 32.2167 33.6682 30.9765 33.6682 29.7265C33.2873 29.7558 32.8771 29.6191 32.7502 29.248Z" fill="#1C2436"/>
<path d="M37.2374 29.3456C36.9835 28.9355 37.2569 28.3398 37.7354 28.2714C38.1261 28.2421 38.5265 28.2421 38.9171 28.2617C39.2784 28.291 39.5714 28.6132 39.5616 28.9746C39.5714 30.4687 39.5714 31.9628 39.5616 33.4667C39.5714 33.8671 39.2101 34.2187 38.8194 34.1992C38.4288 34.1992 38.0968 33.8574 38.1065 33.4667C38.0968 32.2167 38.1065 30.9765 38.1065 29.7265C37.7745 29.7363 37.3936 29.6581 37.2374 29.3456Z" fill="#1C2436"/>
<path d="M37.7749 35.2832C38.7222 34.9805 39.8354 35.5078 40.2065 36.4258C40.4604 37.0019 40.353 37.6367 40.3726 38.2422C40.3433 38.8867 40.4702 39.5898 40.1675 40.1855C39.7964 40.9668 38.8882 41.4453 38.0288 41.2988C37.1108 41.1719 36.3491 40.332 36.3198 39.4043C36.3101 38.6621 36.3101 37.9101 36.3198 37.168C36.3394 36.3184 36.9546 35.5176 37.7749 35.2832ZM38.0776 36.7383C37.8921 36.8457 37.7847 37.0508 37.7944 37.2656C37.7944 37.9492 37.7847 38.6328 37.7944 39.3164C37.7847 39.668 38.1753 39.9512 38.5171 39.834C38.7808 39.7559 38.9468 39.4824 38.9175 39.209C38.9175 38.5254 38.9272 37.832 38.9077 37.1484C38.8784 36.7773 38.3999 36.5332 38.0776 36.7383Z" fill="#1C2436"/>
<path d="M29.3806 35.4882C30.2595 35.2734 31.2361 35.7226 31.6365 36.5234C31.9783 37.1386 31.8415 37.8613 31.8708 38.5253C31.8513 39.121 31.9587 39.7363 31.7146 40.3027C31.4119 41.0546 30.6306 41.5722 29.8201 41.5527C29.0193 41.5527 28.2478 41.0253 27.9548 40.2831C27.7595 39.8242 27.8181 39.3066 27.8083 38.8183C27.8181 38.3007 27.7888 37.7831 27.8181 37.2656C27.8865 36.4257 28.5505 35.6738 29.3806 35.4882ZM29.6638 36.9238C29.4294 36.9921 29.2732 37.2265 29.2829 37.4707C29.2732 38.1542 29.2732 38.8281 29.2829 39.5117C29.2732 39.7363 29.4099 39.9511 29.6052 40.0488C29.9275 40.2148 30.3572 39.9804 30.3962 39.6191C30.4158 38.8964 30.406 38.1835 30.406 37.4609C30.4158 37.0898 30.0056 36.7968 29.6638 36.9238Z" fill="#1C2436"/>
<path d="M23.9538 36.6895C23.651 36.2989 23.8756 35.6543 24.3639 35.5567C24.7546 35.5079 25.1549 35.5372 25.5456 35.5372C25.9362 35.5372 26.2585 35.9083 26.2389 36.2891C26.2389 37.7833 26.2487 39.2872 26.2292 40.7813C26.2194 41.2403 25.7116 41.5821 25.2819 41.4356C24.9694 41.3379 24.7546 41.0157 24.7741 40.6934C24.7741 39.4629 24.7741 38.2325 24.7741 37.002C24.4714 37.002 24.1296 36.9629 23.9538 36.6895Z" fill="#1C2436"/>
<path d="M32.8305 36.6797C32.5277 36.2891 32.7621 35.6445 33.2504 35.5469C33.641 35.5078 34.0316 35.5273 34.4223 35.5273C34.8129 35.5273 35.1351 35.8984 35.1156 36.2891C35.1156 37.7832 35.1254 39.2871 35.1058 40.7813C35.0961 41.2695 34.5297 41.6113 34.1 41.4062C33.8168 41.2988 33.641 40.9863 33.6508 40.6836C33.6508 39.4531 33.6508 38.2227 33.6508 36.9922C33.3578 37.002 33.0062 36.9531 32.8305 36.6797Z" fill="#1C2436"/>
<path d="M47.3149 46.3867C48.2622 46.0352 49.3559 46.1328 50.225 46.6602C50.9477 47.0899 51.5043 47.793 51.7485 48.6035C52.0122 49.541 51.8461 50.5274 51.895 51.4844C52.7055 51.6895 53.3305 52.4512 53.3207 53.2813C53.3305 54.7754 53.3305 56.2695 53.3207 57.7637C53.3012 58.711 52.4516 59.541 51.5043 59.541C49.4926 59.5508 47.4711 59.5508 45.4497 59.541C44.5024 59.541 43.6528 58.711 43.6332 57.7637C43.6235 56.2988 43.6332 54.834 43.6332 53.3692C43.5942 52.5 44.2289 51.6895 45.059 51.4746C45.0981 50.5762 44.9711 49.6582 45.1567 48.7695C45.4204 47.6953 46.2602 46.7676 47.3149 46.3867ZM47.3832 47.9883C46.8657 48.3399 46.5336 48.9453 46.5336 49.5703C46.5239 50.1953 46.5336 50.8203 46.5336 51.4453C47.8325 51.4453 49.1313 51.4453 50.4301 51.4453C50.4301 50.8203 50.4301 50.1953 50.4301 49.5703C50.4301 48.8574 49.9907 48.1641 49.3559 47.8613C48.7309 47.5391 47.9497 47.5879 47.3832 47.9883ZM45.0981 53.3789C45.0981 54.8047 45.0981 56.2403 45.0981 57.666C45.0786 57.9004 45.3032 58.1055 45.5375 58.086C46.5727 58.0957 47.6079 58.086 48.643 58.086C49.5707 58.086 50.4887 58.086 51.4067 58.086C51.6411 58.1055 51.8657 57.9102 51.8461 57.666C51.8559 56.2305 51.8461 54.8047 51.8461 53.3692C51.8754 53.1153 51.6606 52.8711 51.4067 52.9004C50.4789 52.8906 49.5512 52.9004 48.6235 52.9004C47.5883 52.9004 46.5629 52.9004 45.5375 52.9004C45.2739 52.8809 45.0688 53.125 45.0981 53.3789Z" fill="#1C2436"/>
<path d="M47.7744 54.4531C47.8721 54.0625 48.3115 53.877 48.6826 53.9453C48.8682 54.0527 49.0635 54.1699 49.1416 54.3848C49.2295 54.6582 49.2002 54.9512 49.2002 55.2344C49.1807 55.6543 49.2295 56.084 49.1709 56.5039C49.1221 56.7676 48.8877 56.9238 48.6728 57.041C48.4189 57.0606 48.126 57.0313 47.9502 56.8359C47.6768 56.5723 47.7451 56.1621 47.7353 55.8203C47.7646 55.3613 47.7061 54.9024 47.7744 54.4531Z" fill="#1C2436"/>
<path d="M40.1647 17.5C42.3327 19.668 44.5007 21.8262 46.6686 23.9941C44.569 23.9941 42.4596 24.0039 40.36 23.9941C40.1843 24.0234 40.1452 23.8184 40.1647 23.6914C40.1647 21.6309 40.1647 19.5605 40.1647 17.5Z" fill="#FFEEC2"/>
<path d="M53.5945 18.2715C54.2585 18.0176 55.03 18.584 55.0007 19.2871C55.0203 19.9316 54.366 20.4785 53.741 20.332C53.116 20.2344 52.696 19.5215 52.9206 18.9355C53.0281 18.6328 53.282 18.3789 53.5945 18.2715Z" fill="#4DF189"/>
<path d="M58.3677 28.0176C59.022 27.6855 59.8814 28.2324 59.8716 28.9648C59.9205 29.5117 59.4712 30.0195 58.9244 30.0488C58.4166 30.1172 57.8599 29.7852 57.7623 29.2676C57.6353 28.7793 57.899 28.2227 58.3677 28.0176Z" fill="#4DF189"/>
<path d="M31.1409 59.6874C31.8929 59.4531 32.6741 60.2441 32.4398 60.996C32.2737 61.748 31.2386 62.0507 30.6917 61.5038C30.0569 60.9863 30.3402 59.8535 31.1409 59.6874Z" fill="#4DF189"/>
<path d="M47.3828 47.9882C47.9492 47.5976 48.7305 47.539 49.3457 47.8515C49.9902 48.164 50.4199 48.8476 50.4199 49.5605C50.4297 50.1855 50.4199 50.8105 50.4199 51.4355C49.1211 51.4355 47.8223 51.4355 46.5234 51.4355C46.5234 50.8105 46.5234 50.1855 46.5234 49.5605C46.5332 48.9355 46.8652 48.33 47.3828 47.9882Z" fill="#FFF7D6"/>
<path d="M58.444 48.9551C57.5163 46.5918 55.7096 44.5898 53.4538 43.4179C52.028 42.666 50.4264 42.2461 48.8151 42.1972C46.4811 42.1093 44.1276 42.832 42.2331 44.1992C40.2018 45.6445 38.6979 47.8222 38.0924 50.2441C37.4967 52.5683 37.7214 55.0879 38.7174 57.2656C39.6159 59.248 41.1491 60.9472 43.0339 62.0508C44.8014 63.0957 46.862 63.6133 48.9128 63.5254C50.5534 63.4668 52.1647 63.0078 53.61 62.2461C53.9616 62.0117 54.401 62.1875 54.6159 62.5195C55.2995 62.08 55.944 61.5722 56.5202 61.0058C56.3932 60.8398 56.2565 60.6445 56.276 60.4199C56.276 60.1855 56.4518 60 56.5885 59.834C57.7311 58.5254 58.5417 56.9238 58.9225 55.2343C59.3913 53.1543 59.2253 50.9375 58.444 48.9551ZM45.446 59.5508C44.4987 59.5508 43.6491 58.7207 43.6296 57.7734C43.6198 56.3086 43.6296 54.8437 43.6296 53.3789C43.5905 52.5097 44.2253 51.6992 45.0553 51.4941C45.0944 50.5957 44.9674 49.6777 45.153 48.789C45.4069 47.6953 46.2467 46.7773 47.3014 46.3965C48.2487 46.0449 49.3424 46.1425 50.2116 46.6699C50.9342 47.0996 51.4909 47.8027 51.735 48.6133C51.9987 49.5508 51.8327 50.5371 51.8815 51.4941C52.6921 51.6992 53.3171 52.4511 53.3073 53.291C53.3073 54.7851 53.3171 56.2793 53.3073 57.7734C53.2878 58.7207 52.4382 59.5508 51.4909 59.5508C49.4889 59.5508 47.4674 59.5508 45.446 59.5508Z" fill="#4DF189"/>
<path d="M51.8544 53.3789C51.8836 53.1249 51.6688 52.8808 51.4149 52.9101C50.4872 52.9003 49.5594 52.9101 48.6317 52.9101C47.6063 52.9101 46.5712 52.9101 45.536 52.9101C45.2723 52.8808 45.0672 53.1249 45.0965 53.3789C45.0965 54.8046 45.0965 56.2402 45.0965 57.6757C45.077 57.9101 45.3016 58.1152 45.536 58.0956C46.5712 58.1054 47.6063 58.0956 48.6415 58.0956C49.5692 58.0956 50.4872 58.0956 51.4051 58.0956C51.6395 58.1152 51.8641 57.9199 51.8446 57.6757C51.8641 56.2402 51.8544 54.8046 51.8544 53.3789ZM49.1786 56.5039C49.1297 56.7675 48.8954 56.9238 48.6805 57.041C48.4266 57.0605 48.1336 57.0312 47.9579 56.8261C47.6844 56.5624 47.7528 56.1523 47.743 55.8105C47.7626 55.3613 47.704 54.9023 47.7821 54.4433C47.8797 54.0527 48.3192 53.8671 48.6903 53.9355C48.8758 54.0429 49.0712 54.1601 49.1493 54.3749C49.2469 54.6484 49.2079 54.9414 49.2079 55.2246C49.1981 55.6542 49.2372 56.0839 49.1786 56.5039Z" fill="#FFF7D6"/>
<path d="M48.4766 42.1582C51.3281 42.1582 54.0137 43.2715 56.0352 45.293C58.0566 47.3145 59.1699 49.9902 59.1699 52.8516C59.1699 55.7031 58.0566 58.3887 56.0352 60.4102C54.0137 62.4219 51.3281 63.5352 48.4766 63.5352C45.625 63.5352 42.9395 62.4219 40.918 60.4004C38.8965 58.3789 37.7832 55.7031 37.7832 52.8418C37.7832 49.9902 38.8965 47.3047 40.918 45.2832C42.9395 43.2715 45.625 42.1582 48.4766 42.1582ZM48.4766 40.6934C41.7676 40.6934 36.3281 46.1328 36.3281 52.8418C36.3281 59.5508 41.7676 65 48.4766 65C55.1855 65 60.625 59.5605 60.625 52.8516C60.625 46.1426 55.1855 40.6934 48.4766 40.6934Z" fill="#1C2436"/>
</g>
<defs>
<clipPath id="clip0_2104_16448">
<rect width="42.3438" height="50" fill="white" transform="translate(19 15)"/>
</clipPath>
</defs>
</svg>
