<svg width="50" height="50" viewBox="0 0 50 50" fill="none" xmlns="http://www.w3.org/2000/svg">
<g clip-path="url(#clip0_3721_23750)">
<path d="M8.06641 0H8.91602C10.4883 0.0976563 12.0312 0.615234 13.3203 1.52344C14.9609 2.66602 16.1914 4.39453 16.6992 6.33789C17.2461 8.34961 16.9922 10.5664 16.0254 12.4121C15.625 13.1934 15.0879 13.9063 14.4727 14.5313C14.8535 14.7656 15.2637 14.9609 15.625 15.2441C16.0742 15.6055 16.0742 16.3574 15.6445 16.7285C15.4102 16.9531 15.0684 17.002 14.7559 16.9922C13.0273 16.9824 11.2988 16.9922 9.57031 16.9922C8.82813 16.9922 8.07617 17.0215 7.34375 16.9043C5.37109 16.6309 3.51563 15.6152 2.19727 14.1309C0.898438 12.7051 0.126953 10.8398 0 8.92578V8.06641C0.117188 5.91797 1.06445 3.81836 2.63672 2.34375C4.0918 0.9375 6.05469 0.117188 8.06641 0ZM4.82422 2.49023C3.63281 3.22266 2.65625 4.31641 2.08008 5.5957C1.39648 7.09961 1.26953 8.85742 1.73828 10.4395C2.1582 11.8848 3.05664 13.1836 4.25781 14.0918C5.38086 14.9512 6.77734 15.4492 8.19336 15.5078C9.88281 15.5371 11.5625 15.4883 13.252 15.5176C12.9199 15.2734 12.6758 14.873 12.7539 14.4531C12.7832 14.1113 13.0176 13.8574 13.2617 13.6426C14.6875 12.3438 15.5273 10.4199 15.5176 8.49609C15.5371 6.67969 14.7754 4.88281 13.5059 3.59375C12.4316 2.49023 10.9961 1.74805 9.47266 1.54297C7.87109 1.29883 6.20117 1.65039 4.82422 2.49023Z" fill="#1C2436"/>
<path d="M29.4336 0H30.1367C32.8516 0.078125 35.5273 1.15234 37.5293 2.99805C39.7656 5.00977 41.1523 7.91992 41.2793 10.9277C41.3184 12.3633 41.2793 13.7988 41.2988 15.2344C41.3477 16.9336 41.9922 18.6035 43.0859 19.9121C43.8281 20.8008 44.3262 21.9043 44.4434 23.0566C44.6582 25 43.8379 27.0215 42.3438 28.2715C41.7676 28.7598 41.084 29.1113 40.3809 29.3652C41.543 29.8633 42.7051 30.3613 43.8672 30.8594C44.3555 31.0645 44.834 31.2988 45.2734 31.5918C47.2656 32.8809 48.5352 35.2148 48.5352 37.5977C48.5449 41.2402 48.5352 44.8926 48.5352 48.5352C48.8574 48.5352 49.1797 48.5059 49.502 48.5645C49.7363 48.6133 49.873 48.8477 50 49.0332V49.502C49.8828 49.7168 49.7168 49.8828 49.502 50H0.498047C0.292969 49.8828 0.117188 49.7168 0 49.502V49.0234C0.146484 48.7793 0.351562 48.5156 0.673828 48.5352C4.33594 48.5254 7.99805 48.5352 11.6602 48.5352C13.6328 48.5352 15.6055 48.5352 17.5781 48.5352C17.1973 44.9902 16.8262 41.4453 16.4453 37.9004C16.3965 37.3633 16.2793 36.7969 16.4551 36.2695C16.709 35.4004 17.5488 34.7461 18.457 34.7266C19.2285 34.707 19.9902 34.7266 20.7617 34.7266C20.7617 33.2617 20.7617 31.7871 20.7617 30.3125C19.1016 31.0352 17.4316 31.748 15.7813 32.4805C13.8281 33.3496 12.4707 35.3809 12.4316 37.5195C12.4121 40.4395 12.4316 46.2012 12.4219 49.1211C12.4609 49.5703 12.0801 49.8828 11.6602 49.9316C11.4648 49.8535 11.2402 49.7949 11.1133 49.6289C10.9277 49.4043 10.957 49.1016 10.9473 48.8281C10.957 45.9961 10.9375 40.332 10.957 37.5C11.0059 34.873 12.627 32.3438 15.0098 31.2207C16.3965 30.5957 17.8027 30.0098 19.1895 29.3848C18.6426 29.1895 18.1055 28.9648 17.6367 28.6328C16.3184 27.7637 15.4004 26.3379 15.1074 24.7852C14.834 23.3984 15.0977 21.9141 15.8301 20.6934C16.123 20.1855 16.5234 19.7559 16.8555 19.2773C17.5195 18.3105 17.998 17.207 18.1934 16.0449C18.3398 15.1562 18.2812 14.248 18.291 13.3594C18.3008 12.1582 18.2324 10.9473 18.418 9.75586C18.8184 7.05078 20.2344 4.52148 22.3145 2.75391C24.2773 1.06445 26.8359 0.0878906 29.4336 0ZM28.3105 1.57227C25.8691 1.92383 23.5938 3.22266 22.0312 5.13672C20.5371 6.93359 19.7266 9.26758 19.7461 11.6113C20.5469 11.6016 21.3477 11.6309 22.1484 11.6016C24.2188 11.3379 26.2402 10.7031 28.1055 9.75586C31.0547 8.26172 33.5547 5.91797 35.3027 3.11523C33.2617 1.75781 30.7227 1.21094 28.3105 1.57227ZM31.9531 9.01367C29.3164 11.0938 26.1328 12.4707 22.8125 12.9883C22.8125 14.9414 22.8027 16.8945 22.8223 18.8477C22.8711 21.1523 24.4629 23.3105 26.6406 24.0527C27.9199 24.541 29.3164 24.3457 30.6543 24.3848C31.8359 24.4238 33.0371 24.1211 34.0332 23.4668C35.3516 22.627 36.2793 21.2305 36.582 19.6973C35.7715 20.3223 34.9609 20.9766 34.0137 21.3965C33.7695 22.2461 32.998 22.9297 32.1094 22.9883C31.4648 23.0078 30.8203 22.998 30.1758 22.998C29.4336 22.9883 28.7207 22.5684 28.3594 21.9238C27.9688 21.2695 27.9785 20.4004 28.3691 19.7461C28.7402 19.1211 29.4531 18.7012 30.1855 18.7012C30.8301 18.7012 31.4844 18.6816 32.1289 18.7207C32.8613 18.7695 33.4961 19.248 33.8477 19.873C35.1074 19.2578 36.2012 18.2031 36.6699 16.8652C36.6895 15.5566 36.6699 14.2383 36.6797 12.9199C35.4102 12.6465 34.1895 12.1191 33.1543 11.3379C32.7637 11.1035 32.7148 10.5859 32.9395 10.2148C33.1152 10.1074 33.2812 9.96094 33.4863 9.9707C33.8477 9.95117 34.1016 10.2344 34.3848 10.4102C35.9766 11.4453 37.9492 11.8262 39.8242 11.6113C39.8828 8.74023 38.6035 5.88867 36.4648 3.98438C35.2441 5.9082 33.7305 7.62695 31.9531 9.01367ZM19.7461 13.0762C19.7266 14.248 19.8242 15.4395 19.5801 16.5918C19.2676 18.1738 18.5059 19.6582 17.4805 20.8984C16.543 22.0215 16.2207 23.623 16.6699 25.0195C17.0801 26.3867 18.1738 27.5195 19.5312 27.959C20.2539 28.2031 21.0254 28.1934 21.7773 28.1836C22.002 28.1934 22.2168 28.0859 22.4219 28.0078C22.9492 27.7734 23.5059 27.5684 23.9551 27.1973C24.6191 26.6602 25.0391 25.8594 25.1562 25.0195C22.9199 23.8281 21.3965 21.4062 21.3574 18.8672C21.3379 16.9531 21.3672 15.0391 21.3477 13.125C20.8301 13.0273 20.2734 13.0957 19.7461 13.0762ZM38.1445 13.1445C38.1445 14.8535 38.1445 16.5527 38.1445 18.2617C38.1641 19.1797 38.0566 20.1172 37.7539 20.9863C37.1777 22.6855 35.9277 24.1406 34.3457 25C34.5117 26.1914 35.3418 27.2559 36.4648 27.6855C36.9727 27.8613 37.4414 28.2129 37.998 28.1738C38.6914 28.1836 39.4043 28.1543 40.0586 27.9102C41.3184 27.4805 42.3242 26.4355 42.7637 25.1758C43.1738 24.0527 43.1055 22.7637 42.5488 21.709C42.2559 21.1133 41.7773 20.6543 41.416 20.1074C40.4199 18.6426 39.8535 16.8945 39.8438 15.1172C39.834 14.4434 39.8438 13.7695 39.8438 13.0957C39.2676 13.1641 38.7109 13.1738 38.1445 13.1445ZM29.9316 20.2539C29.834 20.3516 29.7266 20.4492 29.6289 20.5371C29.6289 20.6152 29.6387 20.7617 29.6484 20.8398L29.4629 20.8496C29.6582 20.9961 29.6582 21.2793 29.873 21.4355C30.5566 21.582 31.2598 21.4941 31.9531 21.5137C32.373 21.5039 32.6855 21.0645 32.5586 20.6543C32.4707 20.498 32.3242 20.3809 32.207 20.2441C31.4453 20.2539 30.6836 20.2441 29.9316 20.2539ZM26.5527 25.5762C26.25 27.0117 25.2637 28.291 23.9355 28.916C23.3691 29.1797 22.8027 29.4141 22.2363 29.668C22.2363 30.2539 22.2363 30.8301 22.2363 31.416C27.1289 32.7734 32.4023 32.7246 37.2754 31.2695C37.2754 30.7227 37.2754 30.166 37.2754 29.6191C36.6309 29.3262 35.957 29.082 35.3223 28.75C34.1211 28.0957 33.252 26.9043 32.959 25.5664C31.6504 25.957 30.2734 25.8203 28.9258 25.8496C28.1152 25.8789 27.3145 25.791 26.5527 25.5762ZM38.7305 30.2539C38.7305 31.748 38.7305 33.2324 38.7305 34.7266C39.7852 34.7363 40.8398 34.707 41.8945 34.7363C43.0566 34.8145 43.9941 35.957 43.8574 37.1094C43.457 40.918 43.0469 44.7266 42.6465 48.5352C44.1211 48.5352 45.5957 48.5352 47.0703 48.5352C47.0703 44.8535 47.0801 41.1719 47.0703 37.5C47.041 35.332 45.6738 33.2617 43.6914 32.3828C42.041 31.6699 40.3809 30.957 38.7305 30.2539ZM22.2266 32.9297C22.2266 33.5254 22.2266 34.1211 22.2266 34.7266C27.2363 34.7266 32.2559 34.7266 37.2656 34.7266C37.2656 34.082 37.2656 33.4375 37.2656 32.793C32.3828 34.1699 27.1387 34.2188 22.2266 32.9297ZM17.832 37.002C18.2324 40.8496 18.6426 44.6875 19.0527 48.5352C26.4258 48.5352 33.7988 48.5352 41.1816 48.5352C41.582 44.6973 42.002 40.8496 42.4023 37.0117C42.4707 36.5625 42.0605 36.1426 41.6113 36.1914C33.9258 36.1914 26.2402 36.1914 18.5645 36.1914C18.125 36.1621 17.7637 36.582 17.832 37.002Z" fill="#1C2436"/>
<path d="M5.21392 7.85157C5.6729 7.57813 6.31743 7.96875 6.28813 8.4961C6.30767 9.05274 5.60454 9.4336 5.15532 9.10157C4.7061 8.82813 4.7354 8.08594 5.21392 7.85157Z" fill="#1C2436"/>
<path d="M8.1349 7.8516C8.59388 7.5684 9.23842 7.95903 9.21888 8.48637C9.24818 9.04301 8.53529 9.43364 8.08607 9.09184C7.63685 8.82817 7.66615 8.08598 8.1349 7.8516Z" fill="#1C2436"/>
<path d="M11.0747 7.85152C11.5337 7.57808 12.1782 7.95894 12.1587 8.49605C12.1782 9.02339 11.5337 9.41402 11.0747 9.13081C10.5767 8.88667 10.5767 8.09566 11.0747 7.85152Z" fill="#1C2436"/>
<path d="M29.64 39.6192C31.1049 39.3262 32.6576 40.42 32.8627 41.9044C33.1459 43.3594 32.0521 44.8926 30.5873 45.1075C29.1127 45.4004 27.5697 44.2774 27.3744 42.793C27.101 41.338 28.185 39.834 29.64 39.6192ZM29.8353 41.0743C29.2494 41.2012 28.7709 41.7676 28.8197 42.3829C28.8002 43.0274 29.3568 43.6036 29.9916 43.6622C30.7631 43.7598 31.5053 43.0469 31.4271 42.2754C31.3978 41.504 30.5873 40.8887 29.8353 41.0743Z" fill="#1C2436"/>
<path d="M4.82399 2.49018C6.19117 1.65034 7.8611 1.29878 9.45289 1.53315C10.9763 1.73823 12.4216 2.48042 13.4861 3.58393C14.7752 4.88276 15.5271 6.67963 15.5076 8.49604C15.5173 10.4296 14.6873 12.3437 13.2517 13.6425C13.0076 13.8574 12.7732 14.121 12.7439 14.4531C12.6755 14.873 12.9099 15.2734 13.242 15.5175C11.5623 15.4882 9.87282 15.5371 8.18336 15.5078C6.76735 15.4492 5.37086 14.9511 4.24782 14.0917C3.04664 13.1835 2.14821 11.8847 1.72828 10.4394C1.25953 8.8476 1.38649 7.09956 2.07008 5.59565C2.65602 4.31635 3.63258 3.2226 4.82399 2.49018ZM5.21461 7.85151C4.7361 8.08588 4.7068 8.82807 5.15602 9.10151C5.60524 9.43354 6.30836 9.06245 6.28883 8.49604C6.31813 7.9687 5.6736 7.57807 5.21461 7.85151ZM8.13453 7.85151C7.66578 8.08588 7.63649 8.82807 8.08571 9.10151C8.53492 9.43354 9.24782 9.05268 9.21852 8.49604C9.24782 7.95893 8.59352 7.57807 8.13453 7.85151ZM11.074 7.85151C10.5759 8.09565 10.5759 8.88667 11.074 9.13081C11.533 9.41401 12.1775 9.02338 12.158 8.49604C12.1775 7.95893 11.533 7.57807 11.074 7.85151Z" fill="#4DF189"/>
<path d="M28.3089 1.5723C30.721 1.21097 33.2601 1.75785 35.2914 3.1055C33.5433 5.90824 31.0433 8.25199 28.0941 9.74613C26.2386 10.7032 24.2074 11.3379 22.1371 11.5918C21.3363 11.6211 20.5355 11.5918 19.7347 11.6016C19.7152 9.26761 20.5257 6.92386 22.0199 5.12699C23.5921 3.23246 25.8773 1.92386 28.3089 1.5723Z" fill="#E7D6FF"/>
<path d="M31.9531 9.01367C33.7402 7.62695 35.2539 5.9082 36.4746 4.00391C38.623 5.9082 39.8926 8.75977 39.834 11.6309C37.959 11.8457 35.9863 11.4648 34.3945 10.4297C34.1113 10.2539 33.8574 9.9707 33.4961 9.99024C33.2812 9.98047 33.1152 10.127 32.9492 10.2344C32.5781 9.86328 32.2461 9.45313 31.9531 9.01367Z" fill="#E7D6FF"/>
<path d="M19.7451 13.0762C20.2725 13.0957 20.8194 13.0274 21.3369 13.1055C21.3662 15.0196 21.3272 16.9336 21.3467 18.8477C21.3858 21.3867 22.9092 23.8086 25.1455 25C25.0283 25.8399 24.6084 26.6406 23.9444 27.1778C23.4951 27.5586 22.9385 27.7539 22.4112 27.9883C22.2061 28.0762 22.001 28.1836 21.7666 28.1641C21.0147 28.1738 20.2432 28.1934 19.5205 27.9395C18.1631 27.5098 17.0694 26.3672 16.6592 25C16.21 23.6035 16.5322 22.002 17.4697 20.8789C18.4951 19.6387 19.2569 18.1641 19.5694 16.5723C19.8233 15.4395 19.7256 14.2481 19.7451 13.0762Z" fill="#E7D6FF"/>
<path d="M38.1445 13.1445C38.7109 13.1738 39.2773 13.1641 39.8437 13.1055C39.8437 13.7793 39.8437 14.4531 39.8437 15.127C39.8633 16.8945 40.4199 18.6523 41.416 20.1172C41.7773 20.6641 42.2559 21.123 42.5488 21.7187C43.0957 22.7832 43.1641 24.0625 42.7637 25.1855C42.334 26.4355 41.3184 27.4805 40.0586 27.9199C39.4043 28.1641 38.6914 28.1836 37.998 28.1836C37.4414 28.2227 36.9727 27.8711 36.4648 27.6953C35.3418 27.2656 34.502 26.2012 34.3457 25.0098C35.9277 24.1504 37.1777 22.7051 37.7539 20.9961C38.0664 20.127 38.1641 19.1895 38.1445 18.2715C38.1348 16.5527 38.1445 14.8535 38.1445 13.1445Z" fill="#E7D6FF"/>
<path d="M29.9316 20.254C30.6934 20.2442 31.4453 20.254 32.1973 20.254C32.3145 20.3809 32.4609 20.5079 32.5488 20.6641C32.6758 21.0645 32.3633 21.5137 31.9434 21.5235C31.25 21.5137 30.5469 21.6016 29.8633 21.4454C29.6582 21.2989 29.6582 21.0157 29.4531 20.8594L29.6387 20.8497C29.6387 20.7716 29.6289 20.6251 29.6191 20.5469C29.7266 20.4493 29.8242 20.3516 29.9316 20.254Z" fill="#E7D6FF"/>
<path d="M22.8121 12.9883C26.1324 12.4707 29.3063 11.0938 31.9527 9.01367C32.2457 9.45312 32.5777 9.86328 32.9488 10.2441C32.7242 10.6152 32.7633 11.1328 33.1637 11.3672C34.1988 12.1484 35.4195 12.666 36.6891 12.9492C36.6793 14.2676 36.6988 15.5762 36.6793 16.8945C36.2105 18.2324 35.1168 19.2871 33.857 19.9023C33.5055 19.2773 32.8707 18.7988 32.1383 18.75C31.4937 18.7109 30.8395 18.7402 30.1949 18.7305C29.4625 18.7305 28.7496 19.1504 28.3785 19.7754C27.9781 20.4297 27.9781 21.2988 28.3687 21.9531C28.7398 22.5977 29.4527 23.0176 30.1852 23.0273C30.8297 23.0273 31.4742 23.0371 32.1187 23.0176C33.0172 22.959 33.7789 22.2754 34.023 21.4258C34.9703 21.0059 35.7809 20.3516 36.5914 19.7266C36.2984 21.2598 35.3609 22.6562 34.0426 23.4961C33.0465 24.1504 31.8453 24.4434 30.6637 24.4141C29.3258 24.375 27.9293 24.5703 26.65 24.082C24.4723 23.3398 22.8805 21.1719 22.8316 18.877C22.8023 16.8945 22.8121 14.9414 22.8121 12.9883Z" fill="#FFEFEB"/>
<path d="M26.5527 25.5762C27.3242 25.7813 28.1152 25.8789 28.916 25.8496C30.2637 25.8203 31.6406 25.9668 32.9492 25.5664C33.2422 26.8945 34.1211 28.0859 35.3125 28.75C35.9375 29.082 36.6113 29.3262 37.2656 29.6191C37.2656 30.166 37.2656 30.7227 37.2656 31.2695C32.3926 32.7246 27.1289 32.7734 22.2266 31.416C22.2266 30.8301 22.2266 30.2539 22.2266 29.668C22.793 29.4238 23.3691 29.1797 23.9258 28.916C25.2637 28.291 26.2402 27.0117 26.5527 25.5762Z" fill="#FFEFEB"/>
<path d="M29.8343 41.0742C30.5862 40.8887 31.3968 41.5039 31.4163 42.2754C31.4944 43.0469 30.7522 43.7598 29.9807 43.6621C29.346 43.6035 28.7893 43.0371 28.8089 42.3828C28.7698 41.7773 29.2483 41.2012 29.8343 41.0742Z" fill="#E7D6FF"/>
<path d="M38.7305 30.2539C40.3809 30.957 42.041 31.6699 43.6914 32.3828C45.6738 33.2617 47.041 35.332 47.0703 37.5C47.0801 41.1816 47.0703 44.8633 47.0703 48.5352C45.5957 48.5352 44.1211 48.5352 42.6465 48.5352C43.0469 44.7266 43.457 40.918 43.8574 37.1094C43.9844 35.957 43.0469 34.8145 41.8945 34.7363C40.8398 34.707 39.7852 34.7363 38.7305 34.7266C38.7305 33.2324 38.7305 31.7383 38.7305 30.2539Z" fill="#D6FFD8"/>
<path d="M15.7813 32.4805C17.4414 31.748 19.1016 31.0352 20.7617 30.3125C20.7617 31.7871 20.7617 33.252 20.7617 34.7266C19.9902 34.7363 19.2285 34.7168 18.457 34.7266C17.5488 34.7461 16.709 35.4004 16.4551 36.2695C16.2793 36.7969 16.3965 37.3633 16.4453 37.9004C16.8262 41.4453 17.1973 44.9902 17.5781 48.5352C15.6055 48.5352 14.3945 48.5352 12.4219 48.5352C12.4219 48.0566 12.4609 46.7285 12.4219 46.2891C12.4316 43.3691 12.4121 40.4395 12.4316 37.5195C12.4707 35.3809 13.8281 33.3496 15.7813 32.4805Z" fill="#D6FFD8"/>
<path d="M22.2266 32.9297C27.1387 34.2188 32.3828 34.1699 37.2656 32.793C37.2656 33.4375 37.2656 34.082 37.2656 34.7266C32.2559 34.7266 27.2363 34.7266 22.2266 34.7266C22.2266 34.1211 22.2266 33.5254 22.2266 32.9297Z" fill="#EFEDEF"/>
<path d="M17.8324 37.0019C17.764 36.582 18.1351 36.1621 18.555 36.1816C26.2406 36.1816 33.9164 36.1816 41.6019 36.1816C42.0511 36.1328 42.4613 36.5527 42.3929 37.0019C41.9925 40.8398 41.5726 44.6875 41.1722 48.5254C33.7992 48.5351 26.4261 48.5254 19.0433 48.5254C18.6429 44.6875 18.2328 40.8496 17.8324 37.0019ZM29.639 39.6191C28.1937 39.8437 27.1 41.3379 27.3734 42.7929C27.5687 44.2773 29.1117 45.4004 30.5863 45.1074C32.0511 44.8926 33.1449 43.3691 32.8617 41.9043C32.6468 40.4199 31.1039 39.3261 29.639 39.6191Z" fill="#EFEDEF"/>
</g>
<defs>
<clipPath id="clip0_3721_23750">
<rect width="50" height="50" fill="white"/>
</clipPath>
</defs>
</svg>
