<svg width="25" height="24" viewBox="0 0 25 24" fill="none" xmlns="http://www.w3.org/2000/svg">
<g clip-path="url(#clip0_824_4667)">
<path d="M8.45485 0.554166C10.3195 -0.0376149 12.3259 -0.155032 14.2519 0.192522C16.1308 0.521289 17.9294 1.30563 19.4495 2.45632C19.4495 2.25906 19.4353 2.0571 19.4731 1.85984C19.5392 1.59213 19.7705 1.37608 20.0396 1.31972C20.3275 1.26336 20.6344 1.41366 20.776 1.66728C20.8893 1.85045 20.8657 2.07119 20.8704 2.27784C20.861 2.87432 20.8751 3.4708 20.861 4.06728C20.8468 4.4571 20.4503 4.77178 20.0632 4.71072C19.7894 4.67785 19.61 4.4618 19.4211 4.28332C18.1465 3.08567 16.5604 2.21679 14.8656 1.7706C12.8546 1.23988 10.683 1.29624 8.70977 1.96317C6.74594 2.60661 4.98983 3.84184 3.71051 5.4481C2.53032 6.92285 1.75612 8.71698 1.51064 10.5863C1.27932 12.2912 1.48231 14.0477 2.08657 15.6634C2.21403 15.9827 2.08657 16.3773 1.78444 16.5416C1.43511 16.7577 0.929987 16.5886 0.783644 16.2082C0.283245 14.9213 0.0283245 13.5452 0 12.169V11.6383C0.018883 11.2532 0.0424867 10.8728 0.0944149 10.4923C0.358777 8.36473 1.22267 6.31229 2.55864 4.63088C4.0504 2.72873 6.13225 1.27745 8.45485 0.554166Z" fill="#2A5339"/>
<path d="M10.4088 2.87434C10.5646 2.80388 10.7392 2.82267 10.9045 2.81797C11.7731 2.82267 12.637 2.81797 13.5056 2.81797C13.7652 2.81328 14.0202 2.96827 14.1335 3.2031C14.242 3.40976 14.1948 3.65398 14.2562 3.87473C14.4025 4.44772 14.9549 4.86572 15.5355 4.92678C15.9226 4.96905 16.3144 4.82345 16.593 4.55105C16.8196 4.32561 17.1831 4.25516 17.4757 4.39136C17.6174 4.46181 17.7212 4.58392 17.8298 4.69195C18.4293 5.28843 19.0289 5.88021 19.6237 6.47668C19.8078 6.65046 19.8975 6.92287 19.8314 7.17179C19.77 7.44889 19.4962 7.60388 19.3829 7.85281C19.0289 8.49156 19.3074 9.38862 19.9636 9.71739C20.1949 9.84889 20.4687 9.86298 20.7283 9.87707C21.0824 9.90995 21.3609 10.2434 21.3468 10.5957C21.3468 11.5209 21.3468 12.4462 21.3468 13.3714C21.3562 13.6673 21.1579 13.9585 20.8747 14.0524C20.6622 14.1182 20.4309 14.0806 20.2138 14.1557C19.6851 14.306 19.2838 14.7992 19.2319 15.3393C19.1847 15.7291 19.3263 16.133 19.6048 16.4148C19.8078 16.6168 19.8975 16.9221 19.8125 17.1992C19.7511 17.3964 19.5812 17.528 19.4443 17.6736C18.8542 18.2606 18.2641 18.8477 17.674 19.4348C17.4899 19.6227 17.2019 19.7119 16.947 19.6321C16.6874 19.5569 16.5363 19.308 16.2956 19.1953C15.7432 18.89 15.0021 19.0497 14.5866 19.5146C14.3459 19.7683 14.2184 20.1158 14.2137 20.4634C14.209 20.8344 13.8927 21.1867 13.5103 21.1914C12.5803 21.1961 11.6503 21.1914 10.7204 21.1914C10.4702 21.2008 10.2152 21.0786 10.0783 20.8673C9.96032 20.7029 9.96976 20.4916 9.95088 20.299C9.88006 19.6602 9.32302 19.1248 8.69044 19.0403C8.34582 18.9886 7.98705 19.0872 7.71796 19.2986C7.60467 19.3878 7.50081 19.5006 7.36863 19.5616C7.09483 19.6884 6.73133 19.6602 6.51417 19.4348C5.86271 18.782 5.20653 18.1338 4.55506 17.4857C4.37096 17.3119 4.28598 17.0395 4.35207 16.7953C4.41344 16.5182 4.68252 16.3632 4.80054 16.119C5.16404 15.4661 4.87135 14.5503 4.19157 14.2356C3.97913 14.1229 3.73838 14.1088 3.50706 14.0947C3.153 14.0571 2.83199 13.7424 2.84615 13.3761C2.84615 12.4509 2.84615 11.5256 2.84615 10.6051C2.83671 10.3467 2.97834 10.0978 3.20493 9.97101C3.44097 9.83011 3.72893 9.90525 3.97913 9.81602C4.63532 9.63285 5.07435 8.91426 4.95161 8.25203C4.90912 7.96553 4.74389 7.7166 4.54562 7.50995C4.29542 7.24224 4.27182 6.77727 4.53618 6.51426C5.19709 5.85672 5.85799 5.19919 6.51889 4.54165C6.69356 4.35848 6.96736 4.26925 7.21756 4.335C7.50553 4.40545 7.66131 4.68255 7.92568 4.79527C8.62435 5.15692 9.5685 4.78588 9.87062 4.07199C9.9556 3.89351 9.96032 3.70095 9.9792 3.50839C9.98864 3.22659 10.1633 2.98236 10.4088 2.87434ZM11.3105 7.10604C10.2436 7.27042 9.24276 7.79175 8.49217 8.56201C7.69908 9.36514 7.18924 10.4501 7.09955 11.582C7.00985 12.6481 7.28838 13.7377 7.87847 14.6348C8.52521 15.6258 9.53545 16.3773 10.6732 16.706C11.7542 17.0301 12.9533 16.9644 13.9966 16.5323C15.2239 16.0297 16.2342 15.0293 16.7346 13.8035C17.1831 12.7139 17.2114 11.4646 16.8101 10.3561C16.4089 9.21954 15.5686 8.24733 14.5064 7.66964C13.5386 7.13422 12.3962 6.93226 11.3105 7.10604Z" fill="#2A5339"/>
<path d="M22.0415 7.91389C22.084 7.57573 22.4097 7.29393 22.7543 7.31741C23.0375 7.31741 23.3113 7.50997 23.4058 7.77768C23.892 9.05518 24.1422 10.4172 24.1705 11.7839V12.3053C24.128 13.4278 23.9439 14.5503 23.5946 15.6164C23.0234 17.3918 22.0226 19.0215 20.7197 20.3554C19.5725 21.5248 18.1846 22.4642 16.6693 23.0888C14.814 23.8544 12.7605 24.1456 10.7636 23.9201C8.5779 23.6759 6.47245 22.8211 4.72106 21.4967C4.71161 21.7362 4.7541 21.9898 4.65969 22.22C4.52751 22.5299 4.14985 22.7131 3.81939 22.6145C3.51255 22.5299 3.29067 22.2293 3.30483 21.91C3.30483 21.2477 3.30011 20.5902 3.30483 19.928C3.30011 19.5569 3.64001 19.2282 4.01294 19.2376C4.23482 19.2282 4.42837 19.355 4.57943 19.5053C5.59911 20.5057 6.82179 21.2994 8.14832 21.8254C10.2396 22.6614 12.6 22.8164 14.7762 22.234C16.5182 21.7785 18.1327 20.872 19.4309 19.6321C20.6961 18.4344 21.6638 16.9221 22.2114 15.2736C22.9337 13.1272 22.9242 10.746 22.1925 8.5996C22.1264 8.38355 22.0037 8.15811 22.0415 7.91389Z" fill="#2A5339"/>
<path d="M11.4482 8.5104C12.2366 8.3695 13.0674 8.49631 13.7755 8.86735C14.4884 9.23838 15.069 9.85835 15.39 10.5957C15.6733 11.2439 15.7488 11.9765 15.6072 12.667C15.4372 13.5124 14.9368 14.2873 14.2382 14.7945C13.6245 15.2501 12.855 15.499 12.0902 15.499C11.368 15.499 10.6504 15.283 10.0556 14.8744C9.39469 14.4282 8.88485 13.7519 8.65354 12.9863C8.40334 12.1691 8.46943 11.2627 8.83292 10.4924C9.30972 9.46382 10.32 8.69827 11.4482 8.5104Z" fill="#2A5339"/>
</g>
<defs>
<clipPath id="clip0_824_4667">
<rect width="24.1702" height="24" fill="white"/>
</clipPath>
</defs>
</svg>
