<svg width="55" height="55" viewBox="0 0 55 55" fill="none" xmlns="http://www.w3.org/2000/svg">
<g clip-path="url(#clip0_614_2834)">
<path d="M23.5571 27.7579C23.9976 27.5753 24.5562 27.8976 24.6206 28.3702C24.6528 28.6925 24.6528 29.0148 24.6206 29.337C24.5776 29.7989 24.0728 30.1319 23.6323 30.003C23.2456 29.9171 22.9878 29.5196 23.02 29.1329C22.9878 28.628 22.9771 27.9405 23.5571 27.7579Z" fill="#4DF189"/>
<path d="M31.1743 27.7364C31.604 27.586 32.1304 27.8868 32.2056 28.3379C32.2378 28.7032 32.2485 29.0684 32.1948 29.4229C32.0552 29.9708 31.2925 30.1963 30.8843 29.7989C30.5298 29.4874 30.6265 28.9825 30.6157 28.5635C30.5835 28.209 30.8198 27.8438 31.1743 27.7364Z" fill="#4DF189"/>
<path d="M26.0164 32.259C26.3065 32.1087 26.6717 32.1624 26.908 32.3772C27.1551 32.6028 27.4989 32.7532 27.8319 32.6565C28.2078 32.5921 28.4119 32.1839 28.7987 32.1731C29.2498 32.1301 29.6903 32.5276 29.6688 32.9895C29.6688 33.4514 29.2498 33.7415 28.8953 33.9563C27.8963 34.5471 26.4998 34.343 25.7371 33.4622C25.4256 33.0862 25.576 32.4524 26.0164 32.259Z" fill="#4DF189"/>
<path d="M25.5774 42.8937C26.4905 42.7755 27.425 42.8722 28.3489 42.84C28.8323 42.8722 29.4446 42.7111 29.7776 43.1623C30.1643 43.6242 29.8205 44.4298 29.219 44.4513C28.1018 44.4728 26.9846 44.4513 25.8782 44.4513C25.5022 44.4728 25.1477 44.1935 25.0725 43.8283C24.9758 43.4415 25.2122 43.0119 25.5774 42.8937Z" fill="#4DF189"/>
<path d="M54.0322 23.9551C52.2598 22.3008 50.498 20.6465 48.7256 19.0029C48.7148 14.8887 48.7256 10.7744 48.7256 6.66016C49.0586 6.63867 49.3916 6.64941 49.7031 6.50977C50.3691 6.24121 50.8418 5.55371 50.8418 4.83398C50.8525 3.91016 50.8525 2.98633 50.8418 2.05176C50.8418 1.07422 49.9502 0.236328 48.9834 0.257812C46.083 0.257812 43.1826 0.257812 40.2715 0.257812C39.3047 0.225586 38.4131 1.07422 38.4131 2.04102C38.4131 3.04004 38.3809 4.03906 38.4238 5.03809C38.5313 6.04785 39.541 6.74609 40.5186 6.64941C40.5186 8.20703 40.5186 9.76465 40.5186 11.333C36.877 7.92773 33.2246 4.52246 29.583 1.11719C29.0459 0.623047 28.4443 0.139648 27.7031 -0.0107422H27.2627C26.5322 0.150391 25.9307 0.623047 25.4043 1.11719C21.6875 4.58691 17.96 8.06738 14.2432 11.5371L14.2324 11.5264L9.3125 16.1348C9.20508 16.2207 9.1084 16.3174 9.01172 16.4141C6.31543 18.9385 3.6084 21.4629 0.901367 23.9873C0.460938 24.3955 0.0849609 24.9004 -0.0117188 25.5127V25.8242C0.106445 26.7051 0.987305 27.2422 1.81445 27.2744C3.03906 27.3281 4.26367 27.2852 5.47754 27.2959C5.47754 35.4492 5.47754 43.6025 5.47754 51.7559C5.47754 52.3574 5.42383 52.9912 5.69238 53.5498C6.03613 54.3232 6.80957 54.8604 7.63672 54.9785H47.2754C48.124 54.8711 48.9082 54.334 49.252 53.5498C49.5312 52.9912 49.4775 52.3574 49.4775 51.7559C49.4775 43.6025 49.4775 35.4492 49.4775 27.2852C50.5518 27.2852 51.626 27.2852 52.7109 27.2852C53.3018 27.2852 53.9355 27.1885 54.4082 26.8018C54.7197 26.5547 54.9131 26.1895 54.9775 25.8027V25.4912C54.9023 24.8897 54.4941 24.3633 54.0322 23.9551ZM40.3896 5.03809C40.25 5.04883 40.0352 5.0166 40.0352 4.83398C40.0029 3.97461 40.0352 3.11523 40.0244 2.25586C40.0137 2.11621 40.0352 1.89062 40.2285 1.87988C43.1182 1.8584 46.0078 1.87988 48.8867 1.86914C49.0586 1.83691 49.2734 1.94434 49.2412 2.14844C49.2412 3.04004 49.2627 3.93164 49.2305 4.82324C49.2305 5.00586 49.0156 5.04883 48.876 5.02734C46.0508 5.03809 43.2148 5.03809 40.3896 5.03809ZM47.1143 17.4883C45.46 15.9414 43.8057 14.3945 42.1406 12.8477C42.1299 10.7744 42.1406 8.71191 42.1406 6.63867C43.7949 6.63867 45.46 6.62793 47.1143 6.63867C47.1143 10.2588 47.1143 13.8789 47.1143 17.4883ZM16.6816 49.5C16.2412 49.5537 15.8115 49.7793 15.5859 50.1768C15.3604 50.5205 15.3818 50.9502 15.3818 51.3477C15.4033 52.0352 15.3066 52.7334 15.5645 53.3887C14.6621 53.3887 13.749 53.3887 12.8467 53.3887C12.8467 51.8096 12.8467 50.2412 12.8467 48.6621C12.8574 47.4053 12.7715 46.1377 13.083 44.9131C13.3838 43.6133 14.0713 42.3564 15.21 41.626C15.6611 41.3252 16.166 41.1426 16.6816 40.9922C16.6816 43.8174 16.6816 46.6533 16.6816 49.5ZM37.9941 52.54C37.9512 53.0449 37.457 53.4316 36.9629 53.3887C30.6572 53.3887 24.3623 53.3887 18.0566 53.3887C17.5625 53.4316 17.0576 53.0557 17.0146 52.54C16.9824 52.0674 17.0147 51.584 17.0039 51.1113C20.001 51.1113 28.3799 51.1113 31.377 51.1113C31.8604 51.1328 32.2686 50.6387 32.1719 50.1768C32.1074 49.7578 31.6885 49.4678 31.2695 49.5C28.7344 49.5 20.8281 49.5 18.293 49.5C18.293 45.6006 18.2822 41.7119 18.3037 37.8232C18.293 37.5547 18.5615 37.4043 18.8086 37.4365C24.6416 37.4365 30.4746 37.4365 36.3076 37.4365C36.5654 37.4043 36.7588 37.6621 36.7158 37.9092C36.7158 41.7764 36.7158 45.6328 36.7158 49.5C34.2881 49.5 31.8604 49.5 29.4434 49.5C29.0459 49.4678 28.6484 49.7578 28.584 50.166C28.4873 50.6172 28.8633 51.1006 29.3359 51.1113C32.2363 51.1221 35.126 51.1113 38.0264 51.1113C37.9941 51.5947 38.0156 52.0674 37.9941 52.54ZM19.3457 27.4785C20.1406 27.124 20.9893 26.8984 21.7412 26.4688C22.5684 26.0391 23.2881 25.3623 23.6855 24.5137C24.749 24.9971 25.9199 25.126 27.0693 25.1475C28.6162 25.1689 30.1523 24.9863 31.6885 25.04C32.6016 25.083 33.5361 25.2334 34.3203 25.7275C34.8789 26.082 35.3408 26.6084 35.6309 27.21C35.6631 27.5967 35.6309 27.9834 35.6416 28.3701C35.6309 29.2725 35.7061 30.1855 35.459 31.0664C34.9434 32.9356 33.7617 34.5684 32.333 35.8359C29.1104 35.8359 25.8877 35.8359 22.6758 35.8359C21.2148 34.5469 20.0117 32.8818 19.5176 30.9697C19.2275 29.8203 19.4102 28.6387 19.3457 27.4785ZM22.3213 23.5361C22.1602 24.084 21.7842 24.5459 21.3115 24.8467C20.667 25.2656 19.9258 25.5342 19.1953 25.7705C19.0449 24.0195 18.5078 22.2363 19.002 20.4961C19.292 19.3574 20.1406 18.4014 21.2256 17.9395C21 19.8516 21.0967 21.9785 22.3213 23.5361ZM22.9551 17.499C23.127 16.7471 23.8252 16.2852 24.4912 15.9951C25.9414 15.4043 27.5635 15.3828 29.0889 15.6084C30.4102 15.834 31.7207 16.2422 32.8164 17.0156C34.0303 17.918 34.9863 19.1748 35.459 20.6035C35.9209 21.957 35.9531 23.418 35.8672 24.8252C35.0615 24.1162 34.041 23.6973 32.9883 23.5361C31.2051 23.2461 29.4004 23.4824 27.6064 23.5146C26.3066 23.5254 24.8994 23.4609 23.793 22.709C23.2559 22.2793 23.0518 21.5918 22.9014 20.9473C22.665 19.8193 22.665 18.627 22.9551 17.499ZM42.1621 53.3887C41.249 53.3887 40.3467 53.3887 39.4443 53.3887C39.7344 52.5938 39.5947 51.7344 39.6162 50.9072C39.6484 50.1768 39.0361 49.5537 38.3271 49.4893C38.3271 46.6533 38.3271 43.8174 38.3271 40.9814C39.1973 41.207 40.0244 41.6475 40.6367 42.3242C41.7646 43.5703 42.1514 45.3105 42.1729 46.9434C42.1621 49.0918 42.1621 51.2402 42.1621 53.3887ZM53.0869 25.5664C52.9795 25.7168 52.7861 25.6953 52.6357 25.7061C51.3037 25.7061 49.9824 25.6953 48.6611 25.7061C48.1885 25.7061 47.8447 26.1787 47.8984 26.6299C47.8984 35.084 47.8984 43.5381 47.8984 51.9814C47.8877 52.3467 47.9629 52.7656 47.7051 53.0664C47.5225 53.3027 47.2324 53.3887 46.9424 53.3779C45.8789 53.3779 44.8262 53.3779 43.7627 53.3779C43.7627 51.8418 43.7627 50.2949 43.7627 48.7588C43.752 47.3945 43.8271 46.0195 43.5156 44.6768C43.1396 42.9365 42.1943 41.2715 40.6904 40.2832C39.9707 39.7891 39.1328 39.5205 38.3057 39.2842C38.2734 38.6504 38.3594 38.0059 38.252 37.3721C38.0801 36.5127 37.2744 35.8359 36.4043 35.8145C35.8027 35.793 35.2012 35.8145 34.5996 35.8145C35.4912 34.7832 36.2324 33.6123 36.7266 32.334C37.9404 32.2373 39.2295 31.7539 39.9062 30.6797C40.3789 29.96 40.3467 29.0684 40.3252 28.252C40.2822 27.4463 39.7559 26.6943 39.0147 26.3721C38.499 26.125 37.9082 26.1787 37.3496 26.1787C37.5752 24.0625 37.6396 21.8496 36.877 19.8193C36.0498 17.6064 34.2988 15.7158 32.1074 14.8027C30.0986 13.9648 27.8643 13.6641 25.7158 13.9863C24.3086 14.2119 22.8369 14.749 21.9346 15.9199C21.8057 16.1133 21.5586 16.124 21.3652 16.1885C20.0225 16.5537 18.7979 17.4131 18.0781 18.6055C17.2617 19.9268 17.0684 21.5488 17.2188 23.0742C17.3369 24.1055 17.4873 25.1367 17.6162 26.168C17.0576 26.1787 16.4775 26.125 15.9512 26.3613C15.21 26.6836 14.6729 27.4355 14.6406 28.2412C14.6191 29.0361 14.5762 29.8848 15.0059 30.583C15.6719 31.7002 16.9932 32.2158 18.2393 32.3125C18.7334 33.5908 19.4746 34.7617 20.3662 35.793C19.7109 35.8037 19.0557 35.7715 18.4004 35.8145C17.498 35.9111 16.7354 36.6953 16.6709 37.6084C16.6387 38.167 16.6709 38.7256 16.6602 39.2842C15.4785 39.5957 14.3184 40.0791 13.4375 40.9492C11.8906 42.4316 11.2461 44.623 11.2031 46.7178C11.1924 48.9307 11.2031 51.1543 11.2031 53.3672C10.1074 53.3672 9.01172 53.3779 7.90527 53.3672C7.5293 53.3779 7.1748 53.0879 7.09961 52.7227C7.05664 52.3682 7.07812 52.0137 7.07812 51.6592C7.07812 43.2803 7.07812 34.8906 7.07812 26.5117C7.09961 26.0928 6.74512 25.6953 6.31543 25.6953C4.95117 25.6738 3.58691 25.7061 2.22266 25.6846C2.01855 25.7168 1.79297 25.5664 1.84668 25.3408C2.0293 25.1045 2.25488 24.9219 2.46973 24.7178C4.95117 22.3975 7.43262 20.0771 9.9248 17.7676L13.2764 14.6201C13.2979 14.5986 13.3301 14.5771 13.3516 14.5557C17.7773 10.4199 22.2031 6.29492 26.6289 2.16992C26.8867 1.95508 27.1338 1.69727 27.4668 1.61133C27.875 1.71875 28.165 2.05176 28.4766 2.30957C36.6299 9.91504 44.7725 17.5312 52.915 25.1367C53.0654 25.2549 53.2051 25.3945 53.0869 25.5664ZM37.2529 27.8008C37.5859 27.8008 37.9082 27.7793 38.2412 27.8223C38.542 27.8652 38.7568 28.166 38.7354 28.4668C38.7246 28.9287 38.8213 29.4443 38.542 29.8525C38.2412 30.3145 37.7041 30.5293 37.1885 30.6582C37.3066 29.7129 37.2422 28.7568 37.2529 27.8008ZM16.2627 28.4668C16.2412 28.166 16.4561 27.8652 16.7568 27.8223C17.0898 27.79 17.4121 27.8115 17.7451 27.8008C17.7666 28.7461 17.6914 29.7021 17.8203 30.6475C17.3047 30.5293 16.7676 30.3037 16.4561 29.8418C16.1768 29.4443 16.2734 28.9287 16.2627 28.4668Z" fill="#4DF189"/>
</g>
<defs>
<clipPath id="clip0_614_2834">
<rect width="55" height="55" fill="white"/>
</clipPath>
</defs>
</svg>
