<svg width="53" height="60" viewBox="0 0 53 60" fill="none" xmlns="http://www.w3.org/2000/svg">
<g clip-path="url(#clip0_376_2555)">
<path d="M8.01253 0.0705219C8.84782 -0.164772 9.82429 0.235228 10.2243 1.0117C10.7066 1.95287 11.1655 2.90582 11.6361 3.85876C11.7419 4.08229 11.9302 4.29405 12.189 4.31758C13.2596 4.49405 14.3302 4.62346 15.389 4.79993C16.1772 4.91758 16.8361 5.56464 16.989 6.34111C17.1302 6.98817 16.9066 7.67052 16.4361 8.12934C15.7066 8.85876 14.9655 9.56464 14.2361 10.2823C14.0478 10.447 13.9184 10.6941 13.9655 10.9529C14.1184 12.0941 14.389 13.2117 14.5184 14.3529C14.6361 15.6705 13.1655 16.7646 11.9419 16.2823C11.0596 15.8823 10.2125 15.3882 9.35371 14.9529C9.01253 14.7882 8.63606 14.4823 8.24782 14.6705C7.25959 15.1529 6.31841 15.7058 5.33018 16.1882C4.73018 16.4941 3.97724 16.447 3.41253 16.0705C2.81253 15.6941 2.43606 14.9529 2.53018 14.247C2.68312 13.1411 2.91841 12.047 3.08312 10.9411C3.13018 10.7058 3.01253 10.4705 2.83606 10.3058C2.07135 9.54111 1.28312 8.8117 0.518412 8.03523C-0.211 7.28229 -0.128647 5.96464 0.647824 5.27052C0.930176 5.0117 1.29488 4.84699 1.67135 4.78817C2.70665 4.62346 3.76547 4.49405 4.80076 4.32935C5.05959 4.30582 5.27135 4.12935 5.37724 3.89405C5.85959 2.95287 6.30665 1.99993 6.789 1.05876C7.02429 0.576404 7.48312 0.199934 8.01253 0.0705219ZM8.23606 1.34111C8.03606 1.39993 7.93018 1.58817 7.83606 1.76464C7.389 2.64699 6.94194 3.52935 6.50665 4.42346C6.23606 4.9764 5.73018 5.4117 5.11841 5.52935C4.00076 5.72935 2.87135 5.83523 1.76547 6.04699C1.25959 6.15287 1.07135 6.85876 1.44782 7.2117C2.20076 7.9764 3.00076 8.70582 3.76547 9.47052C4.23606 9.92935 4.41253 10.6235 4.28312 11.2705C4.11841 12.3058 3.90665 13.3293 3.76547 14.3646C3.67135 14.8823 4.29488 15.3176 4.76547 15.0705C5.74194 14.5999 6.68312 14.0588 7.64782 13.5764C8.20076 13.2941 8.88312 13.3058 9.43606 13.5882C10.3655 14.0705 11.2949 14.5529 12.2243 15.0352C12.5655 15.2588 13.0831 15.0705 13.2125 14.6823C13.2596 14.4352 13.2243 14.1882 13.2008 13.9529C13.0478 13.0235 12.8714 12.1058 12.7302 11.1764C12.6243 10.5529 12.8361 9.89405 13.2949 9.44699C14.0596 8.68229 14.8596 7.96464 15.6008 7.18817C15.9655 6.82346 15.7302 6.14111 15.2243 6.05876C14.1302 5.87052 13.0243 5.74111 11.9419 5.55288C11.3772 5.43523 10.8478 5.08229 10.589 4.56464C10.0949 3.59993 9.63606 2.62346 9.14194 1.67052C8.97723 1.30582 8.55371 1.23523 8.23606 1.34111Z" fill="#2B3C65"/>
<path d="M20.9417 2.17638C21.2711 2.12933 21.6122 2.15285 21.9534 2.15285C25.5652 2.15285 29.1652 2.15285 32.7769 2.15285C33.0593 2.16462 33.3534 2.11756 33.6358 2.19991C34.024 2.34109 34.1534 2.9058 33.8593 3.19991C33.6475 3.44697 33.2946 3.39991 33.0122 3.39991C29.0122 3.38815 25.0122 3.41168 21.024 3.38815C20.3652 3.34109 20.3064 2.3058 20.9417 2.17638Z" fill="#2B3C65"/>
<path d="M38.7047 2.17629C39.3165 2.11747 39.9282 2.17629 40.54 2.15276C40.8459 2.16452 41.2341 2.1057 41.4459 2.38805C41.7635 2.741 41.4929 3.38805 41.0106 3.38805C40.2341 3.38805 39.4459 3.42335 38.6694 3.36452C38.0929 3.23511 38.1165 2.29394 38.7047 2.17629Z" fill="#2B3C65"/>
<path d="M43.2954 2.18813C43.4719 2.15283 43.6484 2.1646 43.8248 2.15283C46.4601 2.1646 49.0836 2.15283 51.7189 2.1646C52.1307 2.1293 52.4719 2.55283 52.3542 2.94107C52.2719 3.27048 51.9307 3.43519 51.6131 3.39989C48.8601 3.38813 46.1189 3.42342 43.3778 3.38813C42.7307 3.3293 42.6836 2.31754 43.2954 2.18813Z" fill="#2B3C65"/>
<path d="M20.9399 7.58825C21.2693 7.54119 21.6105 7.56472 21.9516 7.56472C28.8105 7.56472 35.6693 7.56472 42.5281 7.56472C42.8222 7.54119 43.1634 7.65884 43.2811 7.95296C43.4693 8.36472 43.0928 8.85884 42.6575 8.81178C35.5634 8.82354 28.4575 8.81178 21.3634 8.82354C21.1046 8.82354 20.8105 8.82354 20.634 8.61178C20.3281 8.29413 20.5046 7.68237 20.9399 7.58825Z" fill="#2B3C65"/>
<path d="M20.9399 13.0116C21.2693 12.9645 21.6222 12.9881 21.9516 12.9881C25.5634 12.9881 29.1752 12.9881 32.7869 12.9881C33.0928 12.9528 33.4222 13.1175 33.5046 13.4234C33.6458 13.8116 33.3046 14.2586 32.9046 14.2351C29.0575 14.2469 25.2105 14.2351 21.3634 14.2469C21.1046 14.2469 20.8105 14.2469 20.634 14.0351C20.3281 13.7057 20.5046 13.1057 20.9399 13.0116Z" fill="#2B3C65"/>
<path d="M7.85935 21.9175C8.71818 21.5999 9.777 21.9881 10.2123 22.7999C10.6946 23.7293 11.1417 24.6823 11.6123 25.6234C11.7182 25.8587 11.9064 26.094 12.177 26.1175C13.2711 26.3058 14.3888 26.4234 15.4829 26.6234C16.2594 26.7646 16.8829 27.447 17.0005 28.2234C17.1064 28.8352 16.8946 29.4705 16.4594 29.9175C15.7182 30.6705 14.9417 31.3881 14.1888 32.1293C13.9888 32.3058 13.9182 32.5764 13.977 32.8352C14.1417 33.8705 14.3417 34.894 14.4946 35.9175C14.6123 36.5646 14.3652 37.2587 13.8711 37.694C13.3064 38.2117 12.4123 38.3528 11.7182 37.9999C10.7888 37.5293 9.87112 37.0234 8.94171 36.5411C8.71818 36.4117 8.43582 36.3528 8.20053 36.494C7.177 36.9881 6.20053 37.5764 5.177 38.0587C4.24759 38.4705 3.07112 37.9646 2.67112 37.0352C2.42406 36.5293 2.50641 35.9646 2.6123 35.4352C2.76524 34.5646 2.91818 33.694 3.05936 32.8234C3.10641 32.5881 3.03583 32.3293 2.85935 32.1646C2.08288 31.3764 1.25936 30.6234 0.482885 29.8234C-0.258292 29.047 -0.12888 27.6823 0.706414 27.0234C1.177 26.6117 1.83583 26.5764 2.42406 26.494C3.2123 26.3764 4.00053 26.2705 4.78877 26.1411C5.05936 26.1058 5.27112 25.9175 5.377 25.6823C5.83583 24.7646 6.28288 23.8352 6.74171 22.9175C6.977 22.447 7.377 22.0705 7.85935 21.9175ZM8.24759 23.1411C7.88288 23.294 7.78877 23.7058 7.6123 24.0117C7.22406 24.7646 6.84759 25.5293 6.47112 26.294C6.2123 26.8352 5.69465 27.2352 5.10641 27.3528C4.02406 27.5411 2.92994 27.6587 1.83583 27.8352C1.30641 27.894 1.03583 28.6234 1.42406 28.9999C2.177 29.7764 2.977 30.5058 3.74171 31.2705C4.177 31.7058 4.38877 32.3411 4.29465 32.9528C4.12994 34.0117 3.91818 35.0705 3.76524 36.1411C3.64759 36.6587 4.25936 37.1293 4.72994 36.894C5.71818 36.4117 6.68288 35.8587 7.67112 35.3646C8.23582 35.0823 8.92994 35.1175 9.47112 35.4234C10.3888 35.9058 11.3182 36.3764 12.2358 36.8587C12.7182 37.1293 13.3535 36.6705 13.2358 36.1293C13.0829 35.0705 12.8594 34.0117 12.7064 32.9411C12.6241 32.3528 12.8005 31.7175 13.2358 31.294C14.0123 30.5058 14.8358 29.7528 15.6005 28.9528C15.9535 28.5764 15.6711 27.9058 15.177 27.847C14.0829 27.6705 12.9652 27.5293 11.8711 27.3293C11.3417 27.2117 10.8476 26.894 10.5888 26.3999C10.0829 25.447 9.63582 24.4587 9.14171 23.494C9.01229 23.1528 8.58877 23.0117 8.24759 23.1411Z" fill="#2B3C65"/>
<path d="M20.8108 24.0352C21.4461 23.8823 22.1167 23.9999 22.7637 23.9646C23.2343 23.9058 23.6226 24.4588 23.3873 24.8705C23.2579 25.1529 22.9284 25.2352 22.6461 25.2117C22.0696 25.1882 21.4814 25.247 20.8932 25.1764C20.399 25.0352 20.3402 24.247 20.8108 24.0352Z" fill="#2B3C65"/>
<path d="M27.9874 24.0469C28.2227 23.9175 28.5051 23.9646 28.7639 23.9528C29.3521 23.9763 29.9521 23.9175 30.5404 23.9763C31.0345 24.0587 31.1874 24.7763 30.7874 25.0705C30.4815 25.294 30.0698 25.1881 29.7168 25.2116C29.1757 25.1881 28.6227 25.2587 28.0815 25.1646C27.5992 25.0116 27.5404 24.2822 27.9874 24.0469Z" fill="#2B3C65"/>
<path d="M32.5864 24.047C32.7511 23.9411 32.9393 23.9647 33.1275 23.9529C39.2805 23.9529 45.4452 23.9529 51.5981 23.9529C51.8923 23.9294 52.2334 24.0588 52.3393 24.3529C52.504 24.7529 52.1628 25.2353 51.7276 25.1882C45.5275 25.2 39.3275 25.1882 33.1275 25.2C32.8923 25.2 32.6334 25.2 32.4687 25.0117C32.1864 24.7529 32.2452 24.2353 32.5864 24.047Z" fill="#2B3C65"/>
<path d="M20.8118 29.4469C20.9765 29.3645 21.1765 29.3763 21.353 29.3763C28.4471 29.3881 35.553 29.3763 42.6471 29.3881C43.0706 29.341 43.4353 29.7998 43.2942 30.1998C43.2001 30.5293 42.8353 30.6704 42.5177 30.6469C35.4236 30.6469 28.3295 30.6469 21.2353 30.6469C21.0118 30.6469 20.753 30.6116 20.6118 30.4116C20.3648 30.1057 20.4706 29.6116 20.8118 29.4469Z" fill="#2B3C65"/>
<path d="M20.7998 34.8705C20.9645 34.7763 21.1645 34.7999 21.3528 34.7881C25.1528 34.7881 28.9645 34.7881 32.7763 34.7881C33.0704 34.7646 33.3881 34.894 33.4939 35.1881C33.6704 35.5763 33.3292 36.0705 32.8939 36.0352C28.9645 36.0469 25.0469 36.0469 21.1175 36.0352C20.4822 36.094 20.2351 35.1293 20.7998 34.8705Z" fill="#2B3C65"/>
<path d="M7.87016 43.7176C8.72899 43.4117 9.76428 43.7764 10.1996 44.5882C10.7055 45.5411 11.1525 46.5176 11.6466 47.4823C11.7525 47.7176 11.9643 47.894 12.2231 47.9293C13.3525 48.1176 14.4819 48.2234 15.5996 48.447C16.8819 48.7411 17.4584 50.4823 16.6231 51.494C15.976 52.2234 15.2349 52.8587 14.5525 53.5529C14.2702 53.8352 13.8584 54.1293 13.9525 54.5882C14.1172 55.647 14.329 56.7058 14.4819 57.7646C14.6231 58.6234 14.1055 59.5176 13.3055 59.8352C12.7643 60.0705 12.1172 60.0234 11.5996 59.7411C10.7055 59.2705 9.81134 58.7999 8.90546 58.3293C8.69369 58.2117 8.4231 58.1529 8.19958 58.2823C7.47016 58.6352 6.77605 59.0352 6.04663 59.3999C5.49369 59.6823 4.92899 60.0587 4.27016 59.9764C3.23487 59.9058 2.36428 58.9176 2.49369 57.8705C2.64663 56.7646 2.88193 55.6705 3.03487 54.5646C3.09369 54.294 2.95252 54.0352 2.76428 53.8587C2.03487 53.1411 1.28193 52.4234 0.552516 51.7058C0.0701633 51.2352 -0.129837 50.5293 0.0231045 49.8823C0.18781 49.1411 0.799575 48.5293 1.55252 48.4117C2.63487 48.2352 3.72899 48.1058 4.8231 47.9176C5.08193 47.8823 5.27016 47.6823 5.37605 47.447C5.83487 46.5293 6.27016 45.6117 6.74075 44.694C6.97605 44.2352 7.38781 43.8823 7.87016 43.7176ZM7.90546 45.247C7.4231 46.1882 6.95252 47.1176 6.48193 48.0705C6.19957 48.647 5.63487 49.0705 4.99958 49.1646C4.0231 49.3176 3.0584 49.447 2.08193 49.5882C1.8584 49.6234 1.59958 49.6587 1.44663 49.8352C1.18781 50.1058 1.18781 50.5646 1.47016 50.8234C2.23487 51.5999 3.03487 52.3293 3.78781 53.1058C4.18781 53.5293 4.38781 54.1293 4.30546 54.7058C4.15252 55.7999 3.90546 56.894 3.76428 57.9882C3.70546 58.494 4.30546 58.894 4.75252 58.6705C5.4584 58.3293 6.14075 57.9411 6.84663 57.5882C7.35252 57.3411 7.83487 56.9882 8.4231 56.9646C9.18781 56.9058 9.81134 57.4117 10.4584 57.7176C11.1643 58.047 11.8349 58.4587 12.5525 58.7646C12.9172 58.694 13.3172 58.4352 13.2349 58.0117C13.1408 56.8587 12.8349 55.7293 12.7055 54.5882C12.6584 54.0352 12.8702 53.4705 13.2584 53.0823C14.0231 52.3058 14.8231 51.5764 15.576 50.7999C15.9525 50.4587 15.7408 49.7529 15.2349 49.6705C14.1055 49.4587 12.9643 49.3411 11.8349 49.1293C11.2231 48.9882 10.7172 48.5411 10.4584 47.9646C10.0113 47.0705 9.58781 46.1646 9.12899 45.2823C8.91722 44.7764 8.12899 44.7646 7.90546 45.247Z" fill="#2B3C65"/>
<path d="M20.9183 45.8C23.0595 45.7177 25.2124 45.7883 27.3654 45.7647C27.7183 45.7765 28.1771 45.6941 28.4007 46.0471C28.6948 46.4471 28.3419 47.0706 27.8477 47.0118C25.5771 47.0118 23.2948 47.0235 21.0242 47C20.3771 46.9647 20.2948 45.953 20.9183 45.8Z" fill="#2B3C65"/>
<path d="M33.1414 45.8C33.7532 45.7177 34.3767 45.7883 35.0003 45.7647C35.2944 45.7765 35.6591 45.7177 35.8826 45.9647C36.1297 46.2 36.1062 46.6353 35.8591 46.8588C35.6238 47.0824 35.2826 47.0118 35.0003 47.0235C34.3885 47 33.7767 47.0588 33.1767 47C32.5885 46.8588 32.5767 45.9412 33.1414 45.8Z" fill="#2B3C65"/>
<path d="M37.6475 45.8353C37.8122 45.7529 38.0122 45.7647 38.1887 45.7529C42.7063 45.7647 47.2122 45.7529 51.7299 45.7647C52.0946 45.7412 52.424 46.0941 52.3652 46.4706C52.3299 46.7882 52.0358 47.0353 51.7181 47.0118C47.1299 47.0118 42.5416 47.0118 37.9534 47.0118C37.3181 47.0588 37.0828 46.1059 37.6475 45.8353Z" fill="#2B3C65"/>
<path d="M20.9059 51.2116C22.1883 51.1293 23.4824 51.1999 24.7648 51.1763C30.7295 51.1763 36.6942 51.1763 42.6589 51.1763C43.1059 51.1293 43.4589 51.6352 43.2707 52.0352C43.1648 52.341 42.8236 52.4587 42.5295 52.4352C35.3883 52.4352 28.2471 52.4469 21.1059 52.4352C20.4236 52.4822 20.2354 51.3881 20.9059 51.2116Z" fill="#2B3C65"/>
<path d="M20.9183 56.6234C24.7889 56.5529 28.6713 56.6234 32.5419 56.5882C32.8477 56.5882 33.236 56.5529 33.4242 56.8587C33.7183 57.247 33.3889 57.8705 32.9066 57.8352C28.9419 57.8352 24.9889 57.847 21.0242 57.8234C20.3771 57.7999 20.2948 56.7764 20.9183 56.6234Z" fill="#2B3C65"/>
<path d="M8.23387 1.34127C8.56328 1.23539 8.97505 1.30597 9.13975 1.64715C9.64564 2.60009 10.0927 3.58833 10.5868 4.54127C10.8456 5.07068 11.375 5.42362 11.9398 5.5295C13.0339 5.7295 14.1398 5.84715 15.2221 6.03539C15.728 6.11774 15.9515 6.80009 15.5986 7.1648C14.8574 7.94127 14.0574 8.67068 13.2927 9.42362C12.8339 9.87068 12.6221 10.5295 12.728 11.153C12.8809 12.0824 13.0456 13.0001 13.1986 13.9295C13.2339 14.1766 13.2574 14.4236 13.2103 14.6589C13.0809 15.0471 12.5633 15.2236 12.2221 15.0119C11.2927 14.5295 10.3633 14.0471 9.43387 13.5648C8.88093 13.2824 8.19858 13.2589 7.64564 13.553C6.68093 14.0471 5.73975 14.5766 4.76328 15.0471C4.30446 15.306 3.68093 14.8589 3.76328 14.3413C3.91622 13.306 4.11622 12.2824 4.28093 11.2471C4.41034 10.6119 4.22211 9.91774 3.76328 9.44715C2.99858 8.70597 2.19858 7.97656 1.44564 7.20009C1.06917 6.84715 1.26917 6.14127 1.76328 6.03539C2.88093 5.83539 4.01034 5.7295 5.11622 5.51774C5.71622 5.40009 6.23387 4.9648 6.4927 4.41186C6.93975 3.5295 7.38681 2.64715 7.83387 1.7648C7.91622 1.58833 8.03387 1.40009 8.23387 1.34127Z" fill="#4DF189"/>
<path d="M8.24522 23.1413C8.5864 23.0118 9.00993 23.153 9.16287 23.506C9.65699 24.4707 10.104 25.4471 10.6099 26.4118C10.8688 26.906 11.3629 27.2236 11.8923 27.3413C12.9864 27.5413 14.0923 27.6707 15.1982 27.8589C15.6923 27.9177 15.9746 28.5883 15.6217 28.9648C14.857 29.7648 14.0335 30.5177 13.257 31.306C12.8335 31.7295 12.6452 32.353 12.7276 32.953C12.8923 34.0118 13.104 35.0707 13.257 36.1413C13.3746 36.6824 12.7276 37.1412 12.257 36.8707C11.3393 36.3883 10.4099 35.9177 9.49228 35.4354C8.93934 35.1413 8.25699 35.0942 7.69228 35.3765C6.70405 35.8707 5.73934 36.4236 4.7511 36.906C4.28052 37.1413 3.66875 36.6707 3.7864 36.153C3.93934 35.0942 4.16287 34.0354 4.31581 32.9648C4.40993 32.353 4.19816 31.7177 3.76287 31.2824C2.99816 30.5177 2.19816 29.7883 1.44522 29.0118C1.05699 28.6354 1.32757 27.906 1.85699 27.8471C2.93934 27.6707 4.03346 27.5413 5.12757 27.3648C5.71581 27.2471 6.23346 26.8471 6.49228 26.306C6.86875 25.5413 7.24522 24.7883 7.63346 24.0236C7.7864 23.6942 7.88052 23.2824 8.24522 23.1413Z" fill="#FFF7D6"/>
<path d="M7.90396 45.2471C8.13925 44.7648 8.92749 44.7765 9.13925 45.2706C9.59807 46.153 10.0216 47.0589 10.4687 47.953C10.7157 48.5295 11.2216 48.9883 11.8451 49.1177C12.9745 49.3412 14.1157 49.4589 15.2451 49.6589C15.7393 49.7412 15.951 50.4471 15.5863 50.7883C14.8334 51.5648 14.0334 52.2942 13.2687 53.0706C12.8804 53.4589 12.6687 54.0236 12.7157 54.5765C12.8451 55.7295 13.151 56.8471 13.2451 58.0001C13.3275 58.4236 12.9157 58.6824 12.5628 58.753C11.8451 58.4471 11.1745 58.0471 10.4687 57.7059C9.8216 57.4001 9.19807 56.8942 8.43337 56.953C7.8569 56.9765 7.36278 57.3295 6.8569 57.5765C6.15101 57.9295 5.46866 58.3295 4.76278 58.6589C4.31572 58.8942 3.71572 58.4824 3.77454 57.9765C3.91572 56.8824 4.16278 55.7883 4.31572 54.6942C4.39807 54.1177 4.19807 53.5177 3.79807 53.0942C3.04513 52.3177 2.23337 51.5883 1.48043 50.8118C1.19807 50.553 1.19807 50.0942 1.4569 49.8236C1.60984 49.6353 1.86866 49.6118 2.09219 49.5765C3.06866 49.4353 4.04513 49.3059 5.00984 49.153C5.64513 49.0589 6.20984 48.6353 6.49219 48.0589C6.93925 47.1295 7.4216 46.1883 7.90396 45.2471Z" fill="#E7D6FF"/>
</g>
<defs>
<clipPath id="clip0_376_2555">
<rect width="52.3765" height="60" fill="white"/>
</clipPath>
</defs>
</svg>
