<svg width="74" height="80" viewBox="0 0 74 80" fill="none" xmlns="http://www.w3.org/2000/svg">
<path d="M20.8491 16.603L21.6285 21.147C21.9055 22.7623 20.209 23.9934 18.7591 23.2289L14.6837 21.0798C14.1073 20.7759 13.418 20.7756 12.8415 21.0792L8.75008 23.2331C7.30039 23.9962 5.60508 22.7653 5.88195 21.1505L6.66195 16.6028C6.77195 15.9617 6.55945 15.3076 6.09367 14.8537L2.78117 11.625C1.60805 10.4814 2.25586 8.48905 3.87726 8.25436L8.44836 7.59249C9.09195 7.49921 9.64867 7.0953 9.9368 6.51218L11.9884 2.36015C12.714 0.891553 14.809 0.89296 15.5327 2.36249L17.5751 6.50999C17.8629 7.09437 18.4201 7.49936 19.0646 7.59265L23.634 8.25436C25.2554 8.48921 25.9032 10.4816 24.7301 11.625L21.4176 14.8539C20.9518 15.3078 20.7391 15.9619 20.8491 16.603Z" fill="#D6FFD8"/>
<path d="M20.8491 44.2395L21.6285 48.7836C21.9055 50.3989 20.209 51.63 18.7591 50.8655L14.6837 48.7164C14.1073 48.4125 13.418 48.4122 12.8415 48.7158L8.75008 50.8697C7.30039 51.6328 5.60508 50.4019 5.88195 48.787L6.66195 44.2394C6.77195 43.5983 6.55945 42.9442 6.09367 42.4903L2.78117 39.2614C1.60805 38.1178 2.25586 36.1255 3.87726 35.8908L8.44836 35.2289C9.09195 35.1356 9.64867 34.7317 9.9368 34.1486L11.9884 29.9966C12.714 28.528 14.809 28.5294 15.5327 29.9989L17.5751 34.1464C17.8629 34.7308 18.4201 35.1358 19.0646 35.2291L23.634 35.8908C25.2554 36.1256 25.9032 38.118 24.7301 39.2614L21.4176 42.4903C20.9518 42.9444 20.7391 43.5984 20.8491 44.2395Z" fill="#E7D6FF"/>
<path d="M20.8491 71.8759L21.6285 76.42C21.9055 78.0353 20.209 79.2664 18.7591 78.5018L14.6837 76.3528C14.1073 76.0489 13.418 76.0486 12.8415 76.3522L8.75008 78.5062C7.30039 79.2693 5.60508 78.0384 5.88195 76.4236L6.66195 71.8759C6.77195 71.2348 6.55945 70.5808 6.09367 70.1269L2.78117 66.8979C1.60805 65.7543 2.25586 63.762 3.87726 63.5273L8.44836 62.8654C9.09195 62.7722 9.64867 62.3683 9.9368 61.7851L11.9884 57.6331C12.714 56.1645 14.809 56.1659 15.5327 57.6354L17.5751 61.7829C17.8629 62.3673 18.4201 62.7723 19.0646 62.8656L23.634 63.5273C25.2554 63.7622 25.9032 65.7545 24.7301 66.8979L21.4176 70.1269C20.9518 70.5809 20.7391 71.235 20.8491 71.8759Z" fill="#FFEFEB"/>
<path d="M23.8126 7.01843L19.2448 6.35702C19.0075 6.32155 18.8018 6.1728 18.6956 5.95796L16.6532 1.81109C15.4723 -0.587977 12.0523 -0.591102 10.8682 1.80624L8.8162 5.95905C8.71011 6.17265 8.5062 6.32155 8.26886 6.35562L3.69855 7.01827C1.05308 7.40046 -0.00582671 10.655 1.90886 12.5197L5.22089 15.7487C5.3923 15.9159 5.47105 16.1564 5.43074 16.3919L4.64964 20.9389C4.19667 23.5851 6.97902 25.5801 9.33214 24.3389L13.424 22.185C13.6364 22.0739 13.8884 22.0726 14.1007 22.185L18.1756 24.3341C20.55 25.5828 23.3112 23.5662 22.86 20.9353L22.0801 16.3919C22.0398 16.1564 22.1179 15.9159 22.29 15.7487L25.6014 12.5197C27.5175 10.6555 26.4579 7.40062 23.8126 7.01843ZM23.8571 10.7308L20.5457 13.9586C19.7848 14.7006 19.4376 15.7672 19.617 16.8142H19.6176L20.3968 21.3576C20.4998 21.9539 19.875 22.4042 19.3418 22.1228L15.267 19.9737C14.3248 19.4783 13.2003 19.4783 12.2593 19.9737L8.16808 22.1276C7.63074 22.4086 7.0123 21.9531 7.11308 21.3612L7.89417 16.8142C8.07292 15.7684 7.72636 14.7005 6.96605 13.9598L3.65339 10.7308C3.22167 10.3081 3.45886 9.57749 4.05667 9.49093L8.62636 8.82952C9.67777 8.67702 10.5862 8.01796 11.0567 7.06608L13.1087 2.91312C13.3756 2.37405 14.1442 2.37452 14.4115 2.91437L16.4539 7.06234C16.9237 8.01546 17.8323 8.67687 18.886 8.82937L23.4551 9.49077C24.0539 9.5778 24.2881 10.3098 23.8571 10.7308Z" fill="#1C2436"/>
<path d="M15.6215 10.4183L12.5523 13.4875L11.8896 12.8248C11.4015 12.3367 10.6107 12.3367 10.1226 12.8248C9.63444 13.313 9.63444 14.1037 10.1226 14.5919L11.6688 16.1381C12.1569 16.6262 12.9477 16.6262 13.4358 16.1381L17.3887 12.1853C17.8768 11.6972 17.8768 10.9064 17.3887 10.4183C16.9004 9.93015 16.1096 9.93015 15.6215 10.4183Z" fill="#1C2436"/>
<path d="M32.7652 5.42467H71.8188C72.5089 5.42467 73.0685 4.86576 73.0685 4.17498C73.0685 3.4842 72.5089 2.92529 71.8188 2.92529H32.7652C32.075 2.92529 31.5155 3.4842 31.5155 4.17498C31.5155 4.86576 32.075 5.42467 32.7652 5.42467Z" fill="#1C2436"/>
<path d="M71.8186 11.1128H32.7652C32.075 11.1128 31.5155 11.6717 31.5155 12.3625C31.5155 13.0533 32.075 13.6122 32.7652 13.6122H71.8188C72.5089 13.6122 73.0685 13.0533 73.0685 12.3625C73.0683 11.6717 72.5088 11.1128 71.8186 11.1128Z" fill="#1C2436"/>
<path d="M32.7652 21.7995H60.5505C61.2407 21.7995 61.8002 21.2406 61.8002 20.5499C61.8002 19.8591 61.2407 19.3002 60.5505 19.3002H32.7652C32.075 19.3002 31.5155 19.8591 31.5155 20.5499C31.5155 21.2406 32.075 21.7995 32.7652 21.7995Z" fill="#1C2436"/>
<path d="M23.8125 34.6548L19.2447 33.9934C19.0073 33.958 18.8017 33.8092 18.6955 33.5944L16.6531 29.4475C15.473 27.0478 12.0519 27.0459 10.868 29.4427L8.81593 33.5956C8.70984 33.8092 8.50593 33.9581 8.26859 33.9922L3.69828 34.6548C1.05296 35.037 -0.00594211 38.2916 1.90875 40.1562L5.22078 43.3853C5.39218 43.5525 5.47093 43.793 5.43062 44.0284L4.64953 48.5755C4.19578 51.2259 6.98296 53.2145 9.33203 51.9755L13.4239 49.8216C13.6362 49.7105 13.8883 49.7092 14.1006 49.8216L18.1755 51.9706C20.5498 53.2194 23.3111 51.2028 22.8598 48.5719L22.08 44.0284C22.0397 43.793 22.1178 43.5525 22.2898 43.3853L25.6016 40.1562C27.5173 38.2919 26.4578 35.037 23.8125 34.6548ZM23.857 38.3672L20.5456 41.595C19.7847 42.337 19.4375 43.4036 19.6169 44.4506H19.6175L20.3967 48.9941C20.4992 49.5878 19.8783 50.0408 19.3417 49.7592L15.2669 47.6102C14.3247 47.1147 13.2002 47.1147 12.2592 47.6102L8.16796 49.7641C7.6325 50.0441 7.01187 49.5936 7.11296 48.9977L7.89406 44.4506C8.07281 43.4048 7.72625 42.3369 6.96593 41.5962L3.65328 38.3672C3.22156 37.9445 3.45875 37.2139 4.05656 37.1273L8.62625 36.4659C9.67765 36.3134 10.5861 35.6544 11.0566 34.7025L13.1086 30.5508C13.3747 30.0114 14.1444 30.0097 14.4114 30.5508L16.4537 34.6987C16.9236 35.6519 17.8322 36.3133 18.8859 36.4658L23.455 37.1272C24.0537 37.2142 24.288 37.9462 23.857 38.3672Z" fill="#1C2436"/>
<path d="M15.6214 38.0559L12.5528 41.1251L11.8902 40.4612C11.402 39.9731 10.6106 39.9731 10.1225 40.4612C9.63439 40.9481 9.63439 41.7401 10.1219 42.2283L11.6681 43.7758C12.1544 44.262 12.946 44.2656 13.4358 43.7758L17.3886 39.8229C17.8767 39.3348 17.8767 38.544 17.3886 38.0559C16.9003 37.5678 16.1095 37.5678 15.6214 38.0559Z" fill="#1C2436"/>
<path d="M71.8186 30.5617H32.7652C32.075 30.5617 31.5155 31.1206 31.5155 31.8114C31.5155 32.5022 32.075 33.0611 32.7652 33.0611H71.8188C72.5089 33.0611 73.0685 32.5022 73.0685 31.8114C73.0685 31.1206 72.5088 30.5617 71.8186 30.5617Z" fill="#1C2436"/>
<path d="M71.8186 38.7492H32.7652C32.075 38.7492 31.5155 39.3081 31.5155 39.9989C31.5155 40.6897 32.075 41.2486 32.7652 41.2486H71.8188C72.5089 41.2486 73.0685 40.6897 73.0685 39.9989C73.0685 39.3081 72.5088 38.7492 71.8186 38.7492Z" fill="#1C2436"/>
<path d="M32.7652 49.436H60.5505C61.2407 49.436 61.8002 48.8771 61.8002 48.1863C61.8002 47.4955 61.2407 46.9366 60.5505 46.9366H32.7652C32.075 46.9366 31.5155 47.4955 31.5155 48.1863C31.5155 48.8771 32.075 49.436 32.7652 49.436Z" fill="#1C2436"/>
<path d="M23.8125 62.2912L19.2447 61.6298C19.0067 61.5943 18.8017 61.4456 18.6955 61.232L16.6531 57.084C15.473 54.6843 12.0519 54.6825 10.868 57.0792L8.81596 61.2322C8.70987 61.4457 8.50471 61.5947 8.26924 61.63L3.6983 62.2914C1.05284 62.6736 -0.00607097 65.9281 1.90862 67.7928L5.22065 71.0218C5.39205 71.189 5.4708 71.4295 5.43049 71.665L4.6494 76.212C4.19643 78.8582 6.97752 80.854 9.3319 79.612L13.4238 77.4581C13.6342 77.3458 13.8875 77.347 14.1005 77.4593L18.176 79.6084C20.5392 80.8559 23.3116 78.8459 22.8603 76.2097L22.0805 71.665H22.0799C22.0396 71.4295 22.1177 71.189 22.2897 71.0218L25.6011 67.7928C27.5174 65.9283 26.4578 62.6734 23.8125 62.2912ZM23.8571 66.0036L20.5456 69.2314C19.7847 69.9734 19.4375 71.04 19.6169 72.087L20.3974 76.6317C20.4992 77.23 19.8699 77.6772 19.3417 77.3968L15.2669 75.2478C14.3242 74.7498 13.1996 74.7511 12.2592 75.2465L8.16799 77.4004C7.63659 77.6783 7.01127 77.2336 7.11299 76.634L7.89409 72.087C8.07284 71.0412 7.72627 69.9734 6.96596 69.2326L3.6533 66.0036C3.22237 65.5817 3.4583 64.8504 4.05596 64.7637L8.62862 64.1023C9.6794 63.9498 10.5867 63.2895 11.0566 62.3389L13.1086 58.1872C13.3747 57.6478 14.1444 57.6461 14.4114 58.1872L16.4544 62.3364C16.9242 63.2895 17.8328 63.9497 18.886 64.1023L23.455 64.7637C24.0538 64.8506 24.288 65.5826 23.8571 66.0036Z" fill="#1C2436"/>
<path d="M15.6214 65.6923L12.5528 68.7615L11.8902 68.0976C11.402 67.6095 10.6106 67.6095 10.1225 68.0976C9.63439 68.5845 9.63439 69.3765 10.1219 69.8647L11.6681 71.4122C12.1544 71.8984 12.946 71.902 13.4358 71.4122L17.3886 67.4594C17.8767 66.9712 17.8767 66.1805 17.3886 65.6923C16.9003 65.2042 16.1095 65.2042 15.6214 65.6923Z" fill="#1C2436"/>
<path d="M71.8186 58.1981H32.7652C32.075 58.1981 31.5155 58.757 31.5155 59.4478C31.5155 60.1386 32.075 60.6975 32.7652 60.6975H71.8188C72.5089 60.6975 73.0685 60.1386 73.0685 59.4478C73.0685 58.757 72.5088 58.1981 71.8186 58.1981Z" fill="#1C2436"/>
<path d="M71.8186 66.3856H32.7652C32.075 66.3856 31.5155 66.9445 31.5155 67.6353C31.5155 68.3261 32.075 68.885 32.7652 68.885H71.8188C72.5089 68.885 73.0685 68.3261 73.0685 67.6353C73.0685 66.9445 72.5088 66.3856 71.8186 66.3856Z" fill="#1C2436"/>
<path d="M60.5505 74.5729H32.7652C32.075 74.5729 31.5155 75.1318 31.5155 75.8226C31.5155 76.5134 32.075 77.0723 32.7652 77.0723H60.5505C61.2407 77.0723 61.8002 76.5134 61.8002 75.8226C61.8002 75.1318 61.2405 74.5729 60.5505 74.5729Z" fill="#1C2436"/>
</svg>
