<svg width="128" height="157" viewBox="0 0 128 157" fill="none" xmlns="http://www.w3.org/2000/svg">
<g clip-path="url(#clip0_1332_12796)">
<path d="M38.991 -6.05476C31.0746 9.06916 26.3484 24.5476 25.9939 40.4986C25.9939 40.7349 25.7576 40.853 25.6395 40.6167C9.68845 20.4121 -13.3519 86.6974 13.5876 92.487C18.3138 112.337 34.5011 120.608 37.1006 105.957C37.1006 105.839 37.3369 105.72 37.455 105.839C50.2158 128.643 67.4665 126.634 72.4291 111.983C72.5472 111.746 72.7835 111.746 72.7835 111.983C91.9248 180.867 148.167 152.628 117.446 131.36C105.395 124.153 97.8325 115.764 99.6049 104.775C99.6049 104.421 99.9593 104.184 100.314 104.303C128.317 108.556 123.236 74.4092 109.175 42.7435C103.504 35.1816 97.1236 30.6916 91.2158 32.1095C88.1438 32.8184 86.3714 35.8905 86.9622 38.9625C88.8527 48.415 99.1322 53.4957 107.285 45.9337C108.467 44.7522 109.294 43.2161 109.648 41.562C112.72 24.7839 116.974 8.59654 122.291 -7L38.991 -6.05476Z" fill="#E7D6FF"/>
<path d="M38.991 -6.05476C31.0746 9.06916 26.3484 24.5476 25.9939 40.4986C25.9939 40.7349 25.7576 40.853 25.6395 40.6167C9.68845 20.4121 -13.3519 86.6974 13.5876 92.487C18.3138 112.337 34.5011 120.608 37.1005 105.957C37.1005 105.839 37.3369 105.72 37.455 105.839C50.2158 128.643 67.4665 126.634 72.4291 111.983C72.5472 111.746 72.7835 111.746 72.7835 111.983C91.9248 180.867 148.167 152.628 117.446 131.36C105.394 124.153 97.8325 115.764 99.6049 104.775C99.6049 104.421 99.9593 104.184 100.314 104.303C128.317 108.556 123.236 74.4092 109.175 42.7435C103.504 35.1816 97.1236 30.6916 91.2158 32.1095C88.1438 32.8184 86.3714 35.8905 86.9622 38.9625C88.8527 48.415 99.1323 53.4957 107.285 45.9337C108.467 44.7522 109.294 43.2161 109.648 41.562C112.72 24.7839 116.974 8.59654 122.291 -7" stroke="#1C2436" stroke-width="2.36311" stroke-miterlimit="10"/>
<path d="M93.3437 79.0172C83.5368 68.2651 74.9114 63.8933 67.7039 68.0287C61.678 71.5734 60.2601 79.608 64.2774 85.2795C70.6578 94.023 82.5915 103.83 100.315 104.421" stroke="#1C2436" stroke-width="2.36311" stroke-miterlimit="10" stroke-linecap="round"/>
<path d="M72.903 112.81C71.4851 107.493 68.5312 99.6944 68.1768 89.7693" stroke="#1C2436" stroke-width="2.36311" stroke-miterlimit="10"/>
<path d="M57.542 98.7493C50.2164 75.3545 51.3979 55.6225 41.1184 55.8588C38.1645 55.9769 35.5651 57.8674 34.3835 60.585C28.1213 74.8818 28.8302 90.2421 37.81 106.548" stroke="#1C2436" stroke-width="2.36311" stroke-miterlimit="10" stroke-linecap="round"/>
<path d="M36.7477 57.513C23.3961 45.9338 10.8716 54.7954 13.5892 92.6052" stroke="#1C2436" stroke-width="2.36311" stroke-miterlimit="10"/>
<path d="M25.4043 52.7869L26.2314 36.2451" stroke="#1C2436" stroke-width="2.36311" stroke-miterlimit="10"/>
</g>
<defs>
<clipPath id="clip0_1332_12796">
<rect width="128" height="157" fill="white"/>
</clipPath>
</defs>
</svg>
