<svg width="30" height="26" viewBox="0 0 30 26" fill="none" xmlns="http://www.w3.org/2000/svg">
<path d="M1.25 12.9997H20.8333L22.9167 1.33301L1.25 3.83301V12.9997Z" fill="#1C2436"/>
<path d="M11.25 22.9998L28.75 20.9164V13.4164L12.9167 12.9998L11.25 22.9998Z" fill="#1C2436"/>
<path d="M1.32868 2.98241C8.58315 2.15689 15.8376 1.33694 23.0921 0.511419C23.3432 0.461218 23.6166 0.600664 23.7171 0.834935C23.8119 1.04132 23.7338 1.27001 23.7003 1.48197C23.014 5.14663 22.3331 8.81129 21.6523 12.4759C24.0519 12.4759 26.4515 12.4759 28.8454 12.4759C29.1133 12.4648 29.3309 12.6767 29.4035 12.9222V21.1272C29.3811 21.3001 29.2807 21.4507 29.1523 21.5623C27.841 22.8173 26.5352 24.0723 25.2238 25.3273C25.034 25.5282 24.7048 25.5449 24.4872 25.3831C24.3421 25.2883 24.2863 25.1154 24.2305 24.9592C23.9124 24.0668 23.5887 23.1799 23.2651 22.293C19.1691 22.7671 15.0787 23.2468 10.9827 23.7209C10.7427 23.76 10.4972 23.6261 10.3968 23.4086C10.2852 23.2022 10.3689 22.9679 10.3968 22.7504C10.9046 19.6993 11.4068 16.6426 11.909 13.5915C11.0552 13.5915 10.2015 13.5915 9.34766 13.5915C9.1077 14.8298 8.88449 16.0681 8.64453 17.3064C8.57199 17.6801 8.0865 17.8642 7.78516 17.641C5.56417 16.2689 3.33203 14.8912 1.10547 13.5134C0.954799 13.4242 0.865513 13.268 0.832031 13.1007V3.44538C0.887835 3.20553 1.07757 2.99915 1.32868 2.98241ZM1.9481 4.03105C1.9481 6.84788 1.94252 9.6647 1.9481 12.4815C6.59654 12.4815 17.707 12.4759 22.3555 12.4815C22.668 12.4648 22.9358 12.7493 22.9079 13.056C22.9079 13.3517 22.6401 13.5971 22.3499 13.5915C21.4012 13.5971 13.9905 13.5859 13.0419 13.5971C12.5508 16.5757 12.0653 19.5487 11.5631 22.5273C14.2751 22.2316 16.9816 21.9025 19.6881 21.5902C22.5508 21.2555 25.4191 20.9264 28.2818 20.5917C28.2818 18.2602 28.2818 15.9286 28.2818 13.5971C25.8599 13.5971 23.4436 13.5971 21.0273 13.5971C20.7985 13.6083 20.5698 13.4911 20.4749 13.2792C20.3744 13.0839 20.4414 12.8664 20.4749 12.66C21.1557 9.00651 21.8365 5.35301 22.5173 1.69393C15.6646 2.48041 8.80636 3.25573 1.9481 4.03105ZM3.38783 13.6027C3.46038 13.6529 3.52734 13.7031 3.60547 13.7477C4.97824 14.59 6.33984 15.4434 7.71261 16.28C7.88002 15.382 8.04743 14.4896 8.21484 13.5971C6.6077 13.5971 4.99498 13.5915 3.38783 13.6027ZM24.409 22.1591C24.6155 22.756 24.8387 23.3472 25.0508 23.944C25.3131 23.7153 25.5474 23.4699 25.7985 23.2356C26.2785 22.7671 26.7751 22.3209 27.2383 21.8356C26.2952 21.9416 25.3521 22.0643 24.409 22.1591Z" fill="#1C2436"/>
<path d="M3.91881 5.63713C3.90207 5.37497 4.13645 5.12954 4.40431 5.14628C5.01814 5.14628 5.63198 5.1407 6.24582 5.14628C6.5081 5.13512 6.73131 5.38055 6.70899 5.63713C6.70899 5.88256 6.49136 6.09452 6.24582 6.08336C5.78265 6.08894 5.32506 6.08336 4.86189 6.08894C4.86189 6.51843 4.86189 6.94793 4.86189 7.37742C5.29158 7.38858 5.72127 7.36627 6.15096 7.38858C6.41323 7.40531 6.60297 7.67863 6.55832 7.92963C6.536 8.14159 6.34069 8.32008 6.12864 8.32566C5.71011 8.33682 5.286 8.32566 4.86748 8.33124C4.86189 8.95596 4.87306 9.58626 4.86189 10.211C4.86747 10.5401 4.47685 10.7576 4.19225 10.6126C4.01368 10.5401 3.91323 10.3448 3.91881 10.1608C3.91881 8.65476 3.91881 7.14315 3.91881 5.63713Z" fill="white"/>
<path d="M7.40411 5.63716C7.38737 5.39731 7.56036 5.16304 7.80031 5.13515C8.02353 5.11284 8.25232 5.12957 8.47554 5.12399C8.92754 5.12957 9.41304 5.07379 9.83714 5.28017C10.5012 5.56464 10.9421 6.3065 10.8249 7.02604C10.73 7.72886 10.1329 8.2978 9.44652 8.43167C9.85946 8.90021 10.2724 9.37433 10.6854 9.84287C10.8025 9.96558 10.8751 10.1497 10.8193 10.3226C10.7635 10.568 10.49 10.7242 10.2501 10.6572C10.0715 10.6182 9.96549 10.462 9.8483 10.3337C9.34607 9.77036 8.855 9.19583 8.34719 8.63805C8.33603 9.16237 8.35277 9.69227 8.34161 10.2166C8.34161 10.4509 8.14629 10.6572 7.91192 10.6684C7.64964 10.7019 7.39295 10.4787 7.39853 10.2054C7.40411 8.68825 7.40411 7.15991 7.40411 5.63716ZM8.35835 6.07223C8.35835 6.55193 8.35835 7.0372 8.36393 7.5169C8.7992 7.48343 9.32933 7.62288 9.67531 7.28263C9.96549 7.02604 9.95991 6.54077 9.66415 6.28977C9.31259 5.96067 8.79362 6.1057 8.35835 6.07223Z" fill="white"/>
<path d="M11.8407 5.6371C11.824 5.37494 12.0583 5.1351 12.3206 5.15183C12.9568 5.15183 13.5874 5.15183 14.2235 5.15183C14.4691 5.1351 14.6979 5.34148 14.7034 5.59248C14.7258 5.83791 14.5304 6.08333 14.2849 6.09449C13.7883 6.11122 13.286 6.09449 12.7894 6.10564C12.7894 6.5463 12.7894 6.99253 12.7894 7.43318C13.2525 7.44991 13.7157 7.42202 14.1733 7.44433C14.4523 7.47222 14.6309 7.79016 14.5472 8.04674C14.497 8.23639 14.3128 8.37584 14.1175 8.37584C13.6766 8.38699 13.2358 8.37584 12.7894 8.38141C12.7894 8.82207 12.7894 9.2683 12.7894 9.70895C13.286 9.71452 13.7883 9.69779 14.2849 9.71452C14.6197 9.7201 14.8206 10.1384 14.6476 10.4173C14.5583 10.5902 14.3574 10.6628 14.1733 10.6572C13.5539 10.6572 12.94 10.6572 12.3206 10.6572C12.0528 10.6683 11.824 10.4285 11.8407 10.1608C11.8407 8.64915 11.8407 7.14313 11.8407 5.6371Z" fill="white"/>
<path d="M15.7693 5.63716C15.7525 5.38058 15.9758 5.14631 16.2325 5.15189C16.8854 5.14631 17.5438 5.14631 18.1967 5.15189C18.5092 5.15189 18.7213 5.50329 18.6097 5.78777C18.5483 5.98857 18.3363 6.1057 18.1354 6.09455C17.6666 6.10013 17.1979 6.09455 16.7235 6.09455C16.718 6.54078 16.7235 6.98143 16.7235 7.42766C17.1755 7.43324 17.622 7.42208 18.074 7.43324C18.3418 7.44439 18.5427 7.71771 18.4925 7.97987C18.4646 8.20856 18.2525 8.38147 18.0293 8.3759C17.5941 8.38147 17.1588 8.3759 16.7235 8.38147C16.7235 8.82212 16.7235 9.26835 16.7235 9.71458C17.2146 9.72016 17.7057 9.70901 18.1967 9.72016C18.4534 9.72016 18.6711 9.97116 18.6432 10.2277C18.632 10.4788 18.3921 10.6796 18.1465 10.6628C17.5104 10.6628 16.8742 10.6684 16.238 10.6628C15.9813 10.6684 15.7581 10.423 15.7749 10.1664C15.7637 8.64921 15.7637 7.14319 15.7693 5.63716Z" fill="white"/>
<path d="M18.3199 12.5257C18.6938 12.3472 19.1625 12.7042 19.0844 13.1114C19.0509 13.5464 18.4371 13.7528 18.1469 13.4293C17.8679 13.1727 17.9627 12.6651 18.3199 12.5257Z" fill="#1C2436"/>
<path d="M13.933 15.1641C14.0893 15.0302 14.3069 15.0637 14.4967 15.0581C14.9431 15.0693 15.3951 15.0414 15.8415 15.0693C16.1875 15.1139 16.327 15.5768 16.1094 15.8334C15.9531 16.0342 15.6797 16.0063 15.4565 16.0063C15.4565 16.9323 15.4565 17.8638 15.4565 18.7897C15.4565 18.9291 15.4397 19.0853 15.3393 19.1913C15.1663 19.3921 14.8203 19.4033 14.6362 19.208C14.5246 19.1021 14.5022 18.9403 14.5022 18.7953C14.5022 17.8638 14.5022 16.9323 14.5022 16.0008C14.3125 15.9952 14.0949 16.0231 13.933 15.9004C13.7098 15.733 13.7098 15.3426 13.933 15.1641Z" fill="white"/>
<path d="M16.7713 15.4151C16.8215 15.2032 17.028 15.047 17.24 15.0582C17.6474 15.0693 18.0771 14.9968 18.4621 15.1753C18.9643 15.3817 19.3159 15.9116 19.288 16.4582C19.2713 17.0048 18.8806 17.4845 18.3728 17.6686C18.6407 17.9754 18.9141 18.2766 19.182 18.5889C19.3438 18.773 19.3159 19.0798 19.1318 19.2416C18.9476 19.4145 18.6239 19.3922 18.4621 19.1969C18.2054 18.918 17.9599 18.6224 17.7032 18.3435C17.6753 18.6447 17.7981 19.0296 17.5302 19.2527C17.2512 19.4926 16.7545 19.2862 16.7601 18.9125C16.7489 17.8527 16.7601 16.7929 16.7545 15.7331C16.7545 15.6271 16.7489 15.5211 16.7713 15.4151ZM17.7032 16.012C17.7088 16.2797 17.6976 16.5475 17.7143 16.8096C17.8929 16.804 18.0994 16.804 18.2277 16.659C18.3728 16.5251 18.3728 16.2741 18.2277 16.1403C18.0938 16.0008 17.8818 16.0008 17.7032 16.012Z" fill="white"/>
<path d="M20.3202 15.0804C20.5992 14.9856 20.9284 15.2087 20.9284 15.5099C20.9396 16.592 20.9284 17.6686 20.934 18.7507C20.934 18.9068 20.9284 19.0798 20.8168 19.2025C20.6382 19.4144 20.2643 19.4144 20.0914 19.1913C19.9965 19.0853 19.9798 18.9347 19.9853 18.8009C19.9853 17.7188 19.9853 16.6422 19.9853 15.5601C19.9742 15.3482 20.1137 15.1418 20.3202 15.0804Z" fill="white"/>
<path d="M22.7288 15.4152C22.8125 15.1753 23.0747 15.0247 23.3259 15.0638C23.5379 15.0916 23.7109 15.2534 23.7723 15.4542C24.1852 16.5475 24.6038 17.6407 25.0055 18.734C25.145 19.0742 24.7823 19.4591 24.4363 19.342C24.0792 19.2416 24.0569 18.8177 23.9229 18.5388C23.4654 18.5388 23.0078 18.5388 22.5502 18.5388C22.4665 18.734 22.4107 18.946 22.3102 19.1356C22.1875 19.3587 21.8694 19.4312 21.6573 19.2918C21.4564 19.1746 21.3839 18.9069 21.4788 18.695C21.8973 17.6017 22.3102 16.5084 22.7288 15.4152ZM23.231 16.7483C23.1305 17.0327 23.0189 17.3116 22.9129 17.5961C23.1305 17.5961 23.3482 17.5961 23.5658 17.5961C23.4486 17.3116 23.3649 17.0216 23.231 16.7483Z" fill="white"/>
<path d="M25.6038 15.2255C25.7823 15.0079 26.1562 15.0079 26.3348 15.231C26.4297 15.337 26.4408 15.482 26.4408 15.6215C26.4408 16.553 26.4408 17.4845 26.4408 18.416C26.7031 18.4271 27.0323 18.3435 27.2221 18.5833C27.4509 18.8399 27.289 19.3029 26.9486 19.3475C26.6138 19.3698 26.2734 19.3586 25.9386 19.3531C25.6819 19.3531 25.4754 19.1076 25.4977 18.8566C25.4977 17.7801 25.4977 16.7036 25.4977 15.6215C25.4922 15.4876 25.5089 15.337 25.6038 15.2255Z" fill="white"/>
</svg>
