<svg width="21" height="24" viewBox="0 0 21 24" fill="none" xmlns="http://www.w3.org/2000/svg">
<path d="M10.0922 0H10.3312C11.1797 0.0234375 12.0234 0.290625 12.7172 0.778125C13.3265 1.2 13.8234 1.77656 14.1609 2.4375C15.2062 2.44219 16.2469 2.4375 17.2922 2.4375C17.6859 2.43281 18.0656 2.7 18.1969 3.07031C18.6562 4.32656 19.1062 5.59219 19.5656 6.84844C19.814 7.55156 20.0859 8.25 20.3203 8.9625C20.339 10.0688 20.325 11.175 20.3297 12.2813C20.3437 12.4781 20.175 12.6375 19.9875 12.6609C19.7859 12.6516 19.6031 12.4828 19.6219 12.2719C19.6219 11.3063 19.6219 10.3406 19.6219 9.375C13.3172 9.37031 7.01248 9.375 0.703101 9.375C0.703101 11.6531 0.703101 13.9359 0.703101 16.2141C0.721851 16.4203 0.548413 16.5938 0.351538 16.6078C0.149976 16.5891 -0.0234619 16.4156 -0.0047119 16.2094C-0.0047119 13.8328 -0.0047119 11.4563 -0.0047119 9.07969C-0.0140869 8.91094 0.0749756 8.76562 0.140601 8.62031C0.989038 6.75 1.83279 4.875 2.68123 3.00469C2.83591 2.65313 3.2156 2.41406 3.59998 2.42813C4.4906 2.42813 5.38591 2.42344 6.27654 2.42813C6.53435 1.94531 6.86248 1.49063 7.27029 1.125C8.04373 0.440625 9.06091 0.0375 10.0922 0ZM7.95466 1.49063C7.35935 1.95469 6.90935 2.60625 6.68904 3.33281C6.43591 4.17188 6.49216 5.1 6.8531 5.90156C7.27029 5.90156 7.68748 5.90156 8.10935 5.90156C7.5281 5.1 7.47185 3.96094 7.97341 3.10313C8.3531 2.44219 9.03279 1.95938 9.78748 1.8375C10.4062 1.72969 11.0578 1.85625 11.5875 2.18438C12.2203 2.57344 12.6703 3.24375 12.7875 3.975C12.9 4.64063 12.7312 5.34844 12.3422 5.89688C12.7594 5.89688 13.1765 5.89688 13.5937 5.89688C13.9453 5.10938 14.0109 4.19531 13.7672 3.37031C13.5375 2.56875 13.0265 1.85625 12.3422 1.37813C11.7094 0.928125 10.9312 0.689063 10.1578 0.707813C9.37029 0.717188 8.58279 0.998438 7.95466 1.49063ZM8.81248 3.15C8.48435 3.51563 8.31091 4.0125 8.34373 4.50469C8.37185 5.04844 8.64841 5.58281 9.09373 5.90156C9.8531 5.91094 10.6172 5.90156 11.3765 5.90625C11.7703 5.60156 12.0469 5.1375 12.1031 4.63594C12.1781 4.0875 11.9906 3.51094 11.6062 3.10781C11.2406 2.71406 10.7062 2.48906 10.1672 2.5125C9.65154 2.52188 9.14998 2.76094 8.81248 3.15ZM3.31873 3.32813C2.51248 5.10938 1.70623 6.89063 0.904663 8.67188C6.74998 8.67188 12.5906 8.67188 18.4359 8.67188C18.7828 8.67188 19.1297 8.67188 19.4765 8.67188C18.8344 6.89531 18.1922 5.11875 17.55 3.34688C17.5172 3.23906 17.414 3.15 17.2969 3.15C17.0109 3.14062 16.7297 3.15 16.4437 3.14531C15.7781 3.14531 15.1125 3.14531 14.4469 3.14531C14.7094 4.04531 14.6812 5.02031 14.3625 5.90156C14.5594 5.90625 14.7609 5.89219 14.9578 5.91094C15.164 5.93906 15.3047 6.17344 15.2344 6.37031C15.1828 6.525 15.0187 6.62344 14.8594 6.60938C11.7328 6.60938 8.61091 6.60938 5.48435 6.60938C5.30623 6.62344 5.12341 6.50156 5.09529 6.32344C5.04373 6.11719 5.22185 5.89688 5.43279 5.90156C5.6531 5.89219 5.8781 5.90156 6.09841 5.89688C5.77966 5.01563 5.75154 4.03594 6.01404 3.14063C5.21248 3.14063 4.40623 3.14063 3.60466 3.14063C3.4781 3.14063 3.3656 3.21563 3.31873 3.32813Z" fill="#1C2436"/>
<path d="M5.71394 12.75C6.32332 12.1734 7.17176 11.8547 8.01082 11.8875C8.81707 11.9109 9.60457 12.2578 10.1718 12.8297C10.6452 12.3469 11.278 12.0234 11.9483 11.9203C12.6046 11.8172 13.2889 11.9203 13.8796 12.2203C14.6202 12.5906 15.2061 13.2656 15.4733 14.0484C15.7452 14.8359 15.6843 15.7313 15.3186 16.4813C15.0374 17.0531 14.578 17.5125 14.1233 17.9531C12.9796 19.0172 11.6905 19.9078 10.3639 20.7234C10.1858 20.8453 9.98426 20.7375 9.83426 20.6297C8.63426 19.9078 7.47176 19.1203 6.43582 18.1781C5.99519 17.7703 5.57332 17.3391 5.24051 16.8422C4.80926 16.1953 4.63113 15.3844 4.74363 14.6203C4.83269 13.9125 5.18894 13.2422 5.71394 12.75ZM6.37019 13.1203C5.80769 13.5563 5.44676 14.2406 5.41394 14.9531C5.37644 15.5344 5.56394 16.125 5.91551 16.5891C6.21082 16.9875 6.56238 17.3438 6.93269 17.6813C7.79988 18.4688 8.77019 19.1438 9.75926 19.7672C9.89519 19.8516 10.0311 19.9359 10.1718 20.0203C11.4233 19.2375 12.6421 18.3938 13.7155 17.3766C14.1374 16.9594 14.5733 16.5234 14.7796 15.9563C15.0749 15.1781 14.9389 14.2594 14.4374 13.5984C13.978 12.9797 13.2233 12.6 12.4546 12.6C11.7233 12.5906 11.0014 12.9281 10.5421 13.4906C10.4624 13.5938 10.3686 13.7109 10.228 13.725C10.078 13.7531 9.93738 13.6594 9.85769 13.5422C9.40301 12.9563 8.67176 12.5953 7.93113 12.6C7.36394 12.5906 6.80613 12.7781 6.37019 13.1203Z" fill="#1C2436"/>
<path d="M19.6264 11.8547C19.6124 11.6484 19.7952 11.4891 19.9921 11.4797C20.0858 11.5031 20.1889 11.5312 20.2546 11.6156C20.3671 11.7469 20.3296 11.9297 20.3389 12.0891C20.3389 14.9953 20.3389 19.7766 20.3389 22.6875C20.3389 22.9359 20.3624 23.2031 20.2452 23.4328C20.1046 23.7422 19.7952 23.9531 19.4624 24H0.881115C0.393615 23.9484 -0.0141976 23.5078 -0.000135118 23.0156C-0.000135118 21.2344 -0.000135118 17.5781 0.00455238 15.7969C-0.00482262 15.6 0.173302 15.45 0.356115 15.4359C0.538927 15.4547 0.717052 15.6 0.707677 15.7969C0.712365 17.5781 0.707677 21.2344 0.712365 23.0203C0.70299 23.1891 0.867052 23.3156 1.02643 23.2969C7.08737 23.2969 13.153 23.2969 19.2139 23.2969C19.3264 23.2922 19.4671 23.3109 19.5514 23.2125C19.6171 23.1516 19.6264 23.0578 19.6264 22.9734C19.6264 19.8937 19.6217 14.9391 19.6264 11.8547Z" fill="#1C2436"/>
<path d="M7.95475 1.49062C8.57818 0.998437 9.36568 0.717187 10.1626 0.707812C10.936 0.69375 11.7141 0.928125 12.3469 1.37812C13.0313 1.86094 13.5422 2.57344 13.7719 3.375C14.0157 4.20469 13.9501 5.11406 13.5985 5.90156C13.1813 5.90156 12.7641 5.90156 12.3469 5.90156C12.736 5.34844 12.9047 4.64531 12.7922 3.97969C12.6751 3.24375 12.2251 2.57344 11.5922 2.18906C11.0626 1.85625 10.4063 1.73437 9.79225 1.84219C9.03756 1.96875 8.35787 2.44687 7.97818 3.10781C7.47193 3.96094 7.53287 5.1 8.11412 5.90625C7.69693 5.90625 7.27975 5.90625 6.85787 5.90625C6.50162 5.10469 6.44068 4.17656 6.69381 3.3375C6.90943 2.60625 7.35943 1.95469 7.95475 1.49062Z" fill="#E7D6FF"/>
<path d="M8.81254 3.15C9.15004 2.76094 9.6516 2.52656 10.1672 2.5125C10.7016 2.48906 11.2407 2.71406 11.6063 3.10781C11.986 3.51094 12.1735 4.0875 12.1032 4.63594C12.0422 5.13281 11.7703 5.59688 11.3766 5.90625C10.6172 5.90625 9.85316 5.91094 9.09379 5.90156C8.64847 5.58281 8.37191 5.04844 8.34379 4.50469C8.31097 4.0125 8.48441 3.51094 8.81254 3.15Z" fill="#E7D6FF"/>
<path d="M3.3187 3.32813C3.36089 3.21563 3.47808 3.14063 3.59526 3.15C4.39683 3.14531 5.20308 3.15 6.00464 3.15C5.74214 4.04531 5.76558 5.025 6.08901 5.90625C5.8687 5.91094 5.6437 5.90156 5.42339 5.91094C5.21245 5.90625 5.03901 6.12656 5.08589 6.33281C5.1187 6.51094 5.29683 6.63281 5.47495 6.61875C8.60151 6.61875 11.7234 6.61875 14.85 6.61875C15.0093 6.62813 15.1734 6.53438 15.225 6.37969C15.3 6.18281 15.1593 5.94375 14.9484 5.92031C14.7515 5.90625 14.55 5.91563 14.3531 5.91094C14.6718 5.02969 14.7 4.05469 14.4375 3.15469C15.1031 3.15469 15.7687 3.15469 16.4343 3.15469C17.0906 4.99688 17.7656 6.83438 18.4265 8.68125C12.5812 8.68125 6.74058 8.68125 0.895264 8.68125C1.71089 6.89063 2.51245 5.10938 3.3187 3.32813Z" fill="#4DF189"/>
<path d="M16.4436 3.14531C16.7295 3.14531 17.0108 3.14062 17.2967 3.14999C17.4139 3.14999 17.517 3.23437 17.5499 3.34687C18.192 5.12343 18.8342 6.89531 19.4764 8.67187C19.1295 8.67187 18.7827 8.67187 18.4358 8.67187C17.7749 6.82968 17.0999 4.99218 16.4436 3.14531Z" fill="#4DF189"/>
<path d="M0.707764 9.37968C7.01245 9.37968 13.3171 9.37499 19.6265 9.37968C19.6265 10.3453 19.6265 11.3109 19.6265 12.2766C19.6078 12.4875 19.6125 13.5234 19.6265 13.7297C19.6218 16.8094 19.6265 19.8891 19.6265 22.9687C19.6265 23.0531 19.6171 23.1469 19.5515 23.2078C19.4671 23.3016 19.3265 23.2875 19.214 23.2922C13.1531 23.2922 7.08745 23.2922 1.02651 23.2922C0.867139 23.3109 0.703076 23.1844 0.712451 23.0156C0.703076 21.2344 0.712451 19.4531 0.707764 17.6719C0.717139 17.475 0.731201 16.4297 0.707764 16.2234C0.707764 13.9406 0.707764 11.6625 0.707764 9.37968ZM5.71401 12.75C5.18901 13.2375 4.83276 13.9078 4.73433 14.6203C4.62183 15.3891 4.79995 16.2 5.2312 16.8422C5.56401 17.3391 5.99058 17.7703 6.42651 18.1781C7.46245 19.1203 8.62495 19.9078 9.82495 20.6297C9.97495 20.7375 10.1812 20.8406 10.3546 20.7234C11.6812 19.9078 12.975 19.0172 14.114 17.9531C14.5687 17.5125 15.0281 17.0578 15.3093 16.4812C15.6796 15.7312 15.7359 14.8406 15.464 14.0484C15.2015 13.2609 14.6156 12.5906 13.8703 12.2203C13.2796 11.9203 12.5906 11.8172 11.939 11.9203C11.2687 12.0187 10.6406 12.3469 10.1625 12.8297C9.59526 12.2531 8.80776 11.9109 8.00151 11.8875C7.16714 11.8547 6.32339 12.1734 5.71401 12.75Z" fill="#4DF189"/>
<path d="M6.37022 13.1203C6.80616 12.7781 7.36397 12.5906 7.92178 12.5953C8.66241 12.5953 9.39366 12.9516 9.84835 13.5375C9.93272 13.6547 10.0687 13.7484 10.2187 13.7203C10.3593 13.7063 10.4483 13.5891 10.5327 13.4859C10.9921 12.9188 11.7187 12.5859 12.4452 12.5953C12.6843 12.7875 12.9468 12.9563 13.1483 13.1906C13.7765 13.8938 14.0249 14.925 13.7671 15.8344C13.6452 16.3172 13.3687 16.7438 13.0358 17.1141C12.2858 17.9344 11.4093 18.6281 10.5093 19.275C10.2608 19.4438 10.0265 19.6313 9.7546 19.7625C8.76085 19.1391 7.79522 18.4641 6.92803 17.6766C6.56241 17.3438 6.21085 16.9828 5.91085 16.5844C5.55928 16.1203 5.37647 15.5297 5.40928 14.9484C5.4421 14.2406 5.80772 13.5563 6.37022 13.1203Z" fill="#EBFA9E"/>
<path d="M12.4453 12.5953C13.2141 12.5953 13.9688 12.975 14.4281 13.5937C14.9344 14.2547 15.0703 15.1734 14.7703 15.9516C14.5641 16.5187 14.1281 16.9594 13.7063 17.3719C12.6328 18.3891 11.4141 19.2328 10.1625 20.0156C10.0266 19.9312 9.89063 19.8469 9.75 19.7625C10.0219 19.6312 10.2563 19.4437 10.5047 19.275C11.4047 18.6281 12.2813 17.9344 13.0313 17.1141C13.3594 16.7437 13.6406 16.3172 13.7625 15.8344C14.0203 14.925 13.7719 13.8937 13.1438 13.1906C12.9469 12.9562 12.6844 12.7875 12.4453 12.5953Z" fill="#EBFA9E"/>
</svg>
