<svg width="80" height="80" viewBox="0 0 80 80" fill="none" xmlns="http://www.w3.org/2000/svg">
<path d="M67.3438 54.866V54.8817C67.3438 56.0629 67.2812 57.1473 67.1625 58.1442L63.3969 61.9098C62.3531 62.9504 60.575 63.0285 59.5156 62.0035C58.4188 60.9442 58.4094 59.1942 59.4812 58.1192L62.9219 54.6785C63.8813 53.7223 63.9344 52.1629 63 51.1848C62.0313 50.1754 60.4375 50.166 59.4594 51.1442L52.1844 58.416C50.1875 60.4129 49.1188 63.1442 49.2156 65.9473H49.2094V72.1254C48.4938 72.1192 47.7656 72.141 47.0219 72.1254H32.9781C32.2344 72.141 31.5063 72.1192 30.7906 72.1254V65.9473H30.7844C30.8813 63.1442 29.8125 60.4129 27.8156 58.416L20.5406 51.1442C19.5625 50.1692 17.9688 50.1754 17 51.1848C16.0656 52.1629 16.1188 53.7223 17.0781 54.6817L20.5188 58.1223C21.5906 59.1942 21.5813 60.9442 20.4844 62.0035C19.425 63.0285 17.6469 62.9504 16.6031 61.9098L12.8375 58.1442C12.7188 57.1473 12.6562 56.0629 12.6562 54.8817V54.866C12.6625 38.2348 24.9062 22.191 40 22.191C55.0938 22.191 67.3375 38.2348 67.3438 54.866Z" fill="#4DF189"/>
<path d="M54.0624 47.5675C54.0624 39.7947 47.7387 33.4709 39.9655 33.4709C32.1924 33.4709 25.8687 39.7947 25.8687 47.5675C25.8687 55.3406 32.1924 61.6644 39.9655 61.6644C47.7387 61.6644 54.0624 55.3406 54.0624 47.5675Z" fill="#32D26D"/>
<path d="M61.8532 60.3597C61.6251 60.5878 61.2095 60.5972 61.0345 60.4285C60.8157 60.216 60.822 59.8722 61.0282 59.6659L64.4657 56.2284C66.2657 54.4316 66.3188 51.4909 64.5782 49.6691C62.7376 47.7503 59.7345 47.7753 57.9126 49.5972L50.6376 56.8691C48.272 59.2347 46.9595 62.4941 47.0251 65.8378C47.022 65.8722 47.022 70.4284 47.022 72.1253C47.7657 72.1409 48.4938 72.1191 49.2095 72.1253V65.9472H49.2157C49.1188 63.1441 50.1876 60.4128 52.1845 58.4159L59.4595 51.1441C60.4376 50.1659 62.0313 50.1753 63.0001 51.1847C63.9345 52.1628 63.8813 53.7222 62.922 54.6784L59.4813 58.1191C58.4095 59.1941 58.4188 60.9441 59.5157 62.0034C60.5751 63.0284 62.3532 62.9503 63.397 61.9097L67.1626 58.1441C67.2813 57.1472 67.3438 56.0628 67.3438 54.8816V54.8659L61.8532 60.3597Z" fill="#32D26D"/>
<path d="M22.0844 49.5941C20.2625 47.7753 17.2625 47.7503 15.4188 49.6753C13.6844 51.4909 13.7344 54.4316 15.5313 56.2284L18.9719 59.6691C19.1781 59.8753 19.1844 60.2191 18.9625 60.4316C18.7906 60.5972 18.3719 60.5847 18.15 60.3628L12.6562 54.8659V54.8816C12.6562 56.0628 12.7188 57.1472 12.8375 58.1441L16.6031 61.9097C17.6469 62.9503 19.425 63.0284 20.4844 62.0034C21.5813 60.9441 21.5906 59.1941 20.5188 58.1222L17.0781 54.6816C16.1188 53.7222 16.0656 52.1628 17 51.1847C17.9688 50.1753 19.5625 50.1691 20.5406 51.1441L27.8156 58.4159C29.8125 60.4128 30.8813 63.1441 30.7844 65.9472H30.7906V72.1253C31.5063 72.1191 32.2344 72.1409 32.9781 72.1253V65.9472C32.9781 62.1628 31.6281 59.1347 29.3625 56.8691L22.0844 49.5941Z" fill="#32D26D"/>
<path d="M39.966 59.477C46.5434 59.477 51.8754 54.1449 51.8754 47.5676C51.8754 40.9902 46.5434 35.6582 39.966 35.6582C33.3886 35.6582 28.0566 40.9902 28.0566 47.5676C28.0566 54.1449 33.3886 59.477 39.966 59.477Z" fill="#EFEFEF"/>
<path d="M30.543 4.62781C29.5073 4.62781 28.668 5.46718 28.668 6.50281V9.92093C28.668 16.1653 33.7414 22.1906 40.0002 22.1906C46.2589 22.1906 51.3323 16.1653 51.3323 9.92093V6.50281C51.3323 5.46718 50.493 4.62781 49.4573 4.62781H30.543Z" fill="#4DF189"/>
<path d="M78.097 42.9504L78.0001 55.1285C78.0001 55.9191 77.6845 56.6754 77.1251 57.2379L63.4435 70.9194C62.8576 71.5054 62.5282 72.3004 62.5282 73.1291V75.3723H49.2095V65.9473H49.2157C49.1188 63.1441 50.1876 60.4129 52.1845 58.416L59.4595 51.1441C60.4376 50.166 62.0313 50.1754 63.0001 51.1848C63.9345 52.1629 63.8813 53.7223 62.922 54.6785L59.4813 58.1191C58.4095 59.1941 58.4188 60.9441 59.5157 62.0035C60.5751 63.0285 62.3532 62.9504 63.397 61.9098L67.1626 58.1441L71.8813 53.4223C72.3157 52.9848 72.5626 52.3941 72.5626 51.7754L72.6595 42.9504C72.6595 41.4473 73.8751 40.2285 75.3782 40.2285C76.8782 40.2316 78.097 41.4473 78.097 42.9504Z" fill="#E7D6FF"/>
<path d="M30.7908 65.9473V75.3723H17.4721V73.1291C17.4721 72.3004 17.1427 71.5054 16.5568 70.9194L2.8752 57.2379C2.31582 56.6754 2.0002 55.9191 2.0002 55.1285L1.90332 42.9504C1.90332 41.4473 3.12207 40.2316 4.62207 40.2285C6.1252 40.2285 7.34082 41.4473 7.34082 42.9504L7.4377 51.7785C7.4377 52.3941 7.68457 52.9848 8.11895 53.4223L12.8377 58.1441L16.6033 61.9098C17.6471 62.9504 19.4252 63.0285 20.4846 62.0035C21.5814 60.9441 21.5908 59.1941 20.5189 58.1223L17.0783 54.6816C16.1189 53.7223 16.0658 52.1629 17.0002 51.1848C17.9689 50.1754 19.5627 50.1691 20.5408 51.1441L27.8158 58.416C29.8127 60.4129 30.8814 63.1441 30.7846 65.9473H30.7908Z" fill="#E7D6FF"/>
<path d="M15.2573 22.3438L10.231 16.056L5.20508 22.3438H7.49664V30.5992H12.9654V22.3438H15.2573Z" fill="#FFF7D6"/>
<path d="M74.7954 22.3438L69.7694 16.056L64.7432 22.3438H67.035V30.5992H72.5038V22.3438H74.7954Z" fill="#FFF7D6"/>
<path d="M61.9001 45.202C61.8067 44.9117 61.7095 44.6226 61.6076 44.3351C61.4645 43.9279 61.6783 43.482 62.0848 43.3385C62.4929 43.1948 62.9379 43.4092 63.0814 43.8157C63.1873 44.1173 63.2895 44.4201 63.3873 44.7242C63.5195 45.1348 63.2933 45.5751 62.8826 45.707C62.4742 45.8389 62.0326 45.6145 61.9001 45.202ZM60.462 41.5051C57.0395 34.0563 49.867 26.0973 40.0001 26.0973C36.1679 26.0973 32.3258 27.3889 28.8892 29.8317C28.5376 30.0817 28.0498 29.9995 27.7998 29.6476C27.5498 29.296 27.6323 28.8082 27.9839 28.5582C31.6867 25.926 35.842 24.5348 40.0004 24.5348C48.8733 24.5348 57.2576 30.7876 61.882 40.8529C62.062 41.2451 61.8904 41.7089 61.4983 41.8889C61.1042 42.0698 60.6414 41.896 60.462 41.5051Z" fill="#76FFBB"/>
<path d="M21.7407 32.2282C22.0272 31.8888 21.9682 31.3929 21.65 31.1251C21.3344 30.8566 20.8188 30.9001 20.55 31.2157C20.2703 31.5473 20.3091 32.0385 20.6375 32.316C20.9882 32.6054 21.4682 32.546 21.7407 32.2282Z" fill="#1C2436"/>
<path d="M40.6312 52.7485H39.3003C38.0875 52.7485 37.1006 51.7619 37.1006 50.5488C37.1006 50.1172 36.7509 49.7676 36.3193 49.7676C35.8878 49.7676 35.5381 50.1172 35.5381 50.5488C35.5381 52.5844 37.164 54.2432 39.1846 54.3054V55.8847C39.1846 56.3163 39.5343 56.666 39.9659 56.666C40.3971 56.666 40.7472 56.3163 40.7472 55.8847V54.3054C42.7678 54.2432 44.3934 52.5844 44.3934 50.5488C44.3934 48.4741 42.7059 46.7863 40.6312 46.7863H39.3003C38.0875 46.7863 37.1006 45.7997 37.1006 44.5866C37.1006 43.3735 38.0875 42.3869 39.3003 42.3869H40.6312C41.8443 42.3869 42.8309 43.3735 42.8309 44.5866C42.8309 45.0182 43.1806 45.3679 43.6122 45.3679C44.0437 45.3679 44.3934 45.0182 44.3934 44.5866C44.3934 42.551 42.7678 40.8922 40.7472 40.8301V39.2504C40.7472 38.8188 40.3971 38.4691 39.9659 38.4691C39.5343 38.4691 39.1846 38.8188 39.1846 39.2504V40.8301C37.164 40.8919 35.5381 42.551 35.5381 44.5866C35.5381 46.6613 37.2259 48.3488 39.3003 48.3488H40.6312C41.8443 48.3488 42.8309 49.3357 42.8309 50.5488C42.8309 51.7619 41.844 52.7485 40.6312 52.7485Z" fill="#1C2436"/>
<path d="M50.3467 14.7626C49.9686 14.5747 49.4873 14.7376 49.2998 15.1122C49.1092 15.4997 49.2686 15.9685 49.653 16.1622C50.0508 16.3551 50.5061 16.1919 50.7001 15.8091C50.887 15.436 50.7458 14.9547 50.3467 14.7626Z" fill="#1C2436"/>
<path d="M68.6627 64.5969L62.8908 70.3688C62.1533 71.1032 61.7471 72.0844 61.7471 73.1282V75.3719C61.7471 75.8032 62.0971 76.1532 62.5283 76.1532C62.9596 76.1532 63.3096 75.8032 63.3096 75.3719V73.1282C63.3096 72.5032 63.5533 71.9157 63.9971 71.4719L69.7658 65.7C70.0718 65.3938 70.0718 64.8997 69.7658 64.5969C69.4721 64.3 68.9564 64.3 68.6627 64.5969Z" fill="#1C2436"/>
<path d="M70.8721 62.3844C70.5542 62.7081 70.5808 63.2 70.8721 63.4906C71.1708 63.7894 71.6649 63.8009 71.9749 63.4906C72.2811 63.1844 72.2811 62.6903 71.9749 62.3844C71.6814 62.0903 71.1655 62.0903 70.8721 62.3844Z" fill="#1C2436"/>
<path d="M1.12207 42.9566L1.21895 55.1282C1.21895 56.1291 1.61051 57.0744 2.32301 57.79L16.0043 71.4716C16.4471 71.9144 16.6908 72.5032 16.6908 73.1291V75.3726C16.6908 75.8041 17.0405 76.1538 17.4721 76.1538C17.9036 76.1538 18.2533 75.8041 18.2533 75.3726V73.1291C18.2533 72.086 17.8471 71.1047 17.1089 70.3669L3.42895 56.6866C3.01145 56.2669 2.78145 55.7138 2.78145 55.1222L2.68457 42.9507C2.68457 41.8825 3.55457 41.0119 4.62207 41.0097C5.69051 41.0097 6.55957 41.8804 6.55957 42.9591L6.65645 51.7788C6.65645 52.6038 6.97895 53.3829 7.56645 53.9747L16.0518 62.4632C17.4089 63.8157 19.6874 63.8625 21.0274 62.5654C22.4393 61.2019 22.4539 58.9522 21.0714 57.5697L17.6308 54.1291C16.9646 53.4625 16.9349 52.3841 17.5639 51.726C18.2186 51.0438 19.3068 51.0163 19.9886 51.6966L27.2636 58.9685C29.0946 60.7994 30.0933 63.3335 30.004 65.9207C30.0027 65.9626 30.0046 66.0041 30.0099 66.0447V75.3726C30.0099 75.8041 30.3596 76.1538 30.7911 76.1538C31.2227 76.1538 31.5724 75.8041 31.5724 75.3726V72.9088H48.4283V75.3719C48.4283 75.8032 48.7783 76.1532 49.2096 76.1532C49.6408 76.1532 49.9908 75.8032 49.9908 75.3719V75.3688C49.9908 65.3769 49.9908 86.7925 49.9908 65.5969C49.9908 63.1282 50.9908 60.7122 52.7377 58.9688L60.0127 51.6966C60.6774 51.0319 61.7621 51.0263 62.4346 51.7247C63.0955 52.4135 63.0083 53.4907 62.369 54.125L58.928 57.5657C57.5108 58.9901 57.5996 61.2432 58.9721 62.5657C60.3293 63.8829 62.5974 63.8063 63.9471 62.4626L72.4346 53.9751C73.019 53.3876 73.3405 52.6094 73.344 51.7844L73.4408 42.9594V42.9501C73.444 41.8813 74.3127 41.0129 75.3783 41.0094C76.4471 41.0129 77.3158 41.8813 77.3158 42.9501L77.2186 55.1219C77.2186 55.7126 76.9874 56.2688 76.5721 56.6875L73.0811 60.175C72.778 60.4813 72.778 60.9754 73.0811 61.2813C73.378 61.5751 73.8908 61.5751 74.1874 61.2813L77.678 57.7907C78.3905 57.075 78.7811 56.1282 78.7811 55.1282L78.8783 42.9563C78.8783 41.0247 77.3093 39.4501 75.3783 39.4469C73.4533 39.4469 71.8815 41.016 71.8783 42.941L71.7815 51.7657V51.775C71.7815 52.1875 71.6186 52.5754 71.3283 52.8719L68.0996 56.1007C68.2686 51.6719 67.5611 47.0172 65.9252 42.4782C62.4155 32.73 54.6614 24.0419 44.6424 21.9025C46.2918 21.1213 47.7374 19.9557 48.894 18.5719C49.1721 18.2438 49.1283 17.75 48.7968 17.4719C48.478 17.206 47.9624 17.25 47.6968 17.5688C46.4299 19.0794 44.8727 20.1904 43.1958 20.8182C44.8405 18.3185 45.7811 14.0147 45.7811 9.9213C45.7811 9.48974 45.4314 9.14005 44.9999 9.14005C44.5683 9.14005 44.2186 9.48974 44.2186 9.9213C44.2186 16.2807 41.9139 21.4019 40.0039 21.4094C40.0036 21.4094 40.0033 21.4094 40.003 21.4094H39.9968C39.9964 21.4094 39.9961 21.4094 39.9961 21.4094C38.0861 21.4025 35.7814 16.2807 35.7814 9.9213C35.7814 9.48974 35.4318 9.14005 35.0002 9.14005C34.5686 9.14005 34.2189 9.48974 34.2189 9.9213C34.2189 14.0194 35.1618 18.3288 36.8099 20.8269C35.2518 20.2475 33.8014 19.2488 32.569 17.875C30.5846 15.6657 29.4471 12.7654 29.4502 9.92192V6.50317C29.4502 5.90005 29.9408 5.40942 30.5439 5.40942H49.4564C50.0596 5.40942 50.5502 5.90005 50.5502 6.50317V9.92192C50.5502 10.7247 50.4596 11.5435 50.2814 12.3529C50.1877 12.775 50.4536 13.1907 50.8724 13.2841C51.288 13.3779 51.7127 13.1029 51.8068 12.6935C52.0096 11.7747 52.1127 10.84 52.1127 9.92161V6.50317C52.1127 5.03786 50.9221 3.84692 49.4564 3.84692H30.5439C29.0783 3.84692 27.8877 5.03786 27.8877 6.50317V9.92192C27.8939 13.1591 29.1783 16.4404 31.4065 18.925C32.5649 20.2157 33.9039 21.2197 35.354 21.9054C30.5674 22.931 26.2755 25.465 22.7408 28.8813C22.4221 29.1869 22.4246 29.6772 22.7189 29.9844C23.0096 30.2844 23.5252 30.2935 23.8252 30.006C28.593 25.4038 34.1855 22.9729 39.9968 22.9719H40.0002C40.0021 22.9719 40.0036 22.9716 40.0052 22.9716H40.0065C56.138 22.9716 68.1236 41.6722 66.4146 57.785L62.844 61.3563C62.1108 62.0894 60.813 62.1735 60.0596 61.4407C59.273 60.68 59.2702 59.44 60.0346 58.6691L63.4755 55.2316C64.7527 53.9541 64.7768 51.9141 63.5661 50.6438C62.3108 49.3382 60.2124 49.285 58.9068 50.5907L51.6318 57.8629C49.583 59.9116 48.4286 62.6822 48.4286 65.5972V71.3463C48.4283 71.3463 31.5727 71.3463 31.5727 71.3463V65.9475C31.5727 65.9216 31.5714 65.896 31.5689 65.871C31.6433 62.8885 30.4805 59.9754 28.3686 57.8635L21.0924 50.5907C19.8027 49.305 17.7077 49.3194 16.4355 50.6454C15.2239 51.9138 15.2643 53.9722 16.5261 55.2341L19.9668 58.6747C20.7283 59.4363 20.7283 60.6822 19.9414 61.4422C19.2118 62.1488 17.9099 62.1091 17.1561 61.3575L13.5858 57.786C12.8264 50.6366 14.7977 41.8672 19.8752 34.6407C20.1221 34.2875 20.0346 33.8004 19.6814 33.5535C19.3408 33.3125 18.8346 33.4035 18.5939 33.7438C13.9821 40.3176 11.6061 48.4113 11.9011 56.1007L8.67363 52.8719C8.38488 52.581 8.21895 52.1825 8.21895 51.7704L8.12207 42.9507C8.12207 41.0188 6.55207 39.4472 4.62051 39.4472C2.69145 39.451 1.12207 41.0225 1.12207 42.9566Z" fill="#1C2436"/>
<path d="M39.966 60.2581C46.9635 60.2581 52.6566 54.565 52.6566 47.5675C52.6566 40.57 46.9635 34.8772 39.966 34.8772C32.9682 34.8772 27.2754 40.5703 27.2754 47.5675C27.2754 54.565 32.9685 60.2581 39.966 60.2581ZM39.966 36.4394C46.102 36.4394 51.0941 41.4316 51.0941 47.5672C51.0941 53.7034 46.102 58.6953 39.966 58.6953C33.8301 58.6953 28.8379 53.7031 28.8379 47.5672C28.8379 41.4316 33.8301 36.4394 39.966 36.4394Z" fill="#1C2436"/>
<path d="M7.49647 31.3801H12.9652C13.3968 31.3801 13.7465 31.0304 13.7465 30.5988V23.1251H15.2568C15.9108 23.1251 16.2749 22.366 15.8671 21.856L10.8412 15.5682C10.529 15.1773 9.93334 15.177 9.62084 15.5682L4.59491 21.856C4.18616 22.367 4.5521 23.1251 5.20491 23.1251H6.71522V30.5988C6.71522 31.0304 7.06491 31.3801 7.49647 31.3801ZM10.2308 17.3073L13.6324 21.5626H12.9652C12.5337 21.5626 12.184 21.9123 12.184 22.3438V29.8176H8.27772V22.3438C8.27772 21.9123 7.92803 21.5626 7.49647 21.5626H6.8296L10.2308 17.3073Z" fill="#1C2436"/>
<path d="M67.035 31.3801H72.5038C72.9353 31.3801 73.285 31.0304 73.285 30.5988V23.1251H74.7953C75.4503 23.1251 75.8128 22.3654 75.4057 21.856L70.3797 15.5682C70.0672 15.1773 69.4719 15.177 69.1591 15.5682L64.1332 21.856C63.7257 22.3657 64.0891 23.1251 64.7435 23.1251H66.2538V30.5988C66.2538 31.0304 66.6035 31.3801 67.035 31.3801ZM69.7694 17.3073L73.1706 21.5626H72.5038C72.0722 21.5626 71.7225 21.9123 71.7225 22.3438V29.8176H67.8163V22.3438C67.8163 21.9123 67.4666 21.5626 67.035 21.5626H66.3682L69.7694 17.3073Z" fill="#1C2436"/>
</svg>
