<svg width="58" height="60" viewBox="0 0 58 60" fill="none" xmlns="http://www.w3.org/2000/svg">
<g clip-path="url(#clip0_376_2224)">
<path d="M40.6017 12.7733C40.4489 9.76162 39.7201 6.60928 37.4277 4.60537C35.1589 2.69521 31.5853 0.632714 28.6346 0.785058C25.8603 0.902245 21.8517 2.57803 19.8063 4.45303C17.5375 6.51553 16.3384 10.1835 16.1738 13.2421C16.0915 15.0351 16.8909 17.8124 17.6903 19.453C18.3956 20.9062 19.7005 22.7343 20.5116 24.1171C21.5931 25.8866 21.5578 26.8124 21.8282 28.8515C25.9661 28.8515 30.9622 28.4179 35.1002 28.4062C35.3353 26.203 35.8643 23.9765 37.0163 22.0546C37.8039 20.7187 38.8619 19.5468 39.5907 18.1757C40.4489 16.5233 40.6723 14.6132 40.6017 12.7733Z" fill="#FFF7D6"/>
<path d="M51.5022 15.5273C48.5634 15.5155 44.7428 15.4452 41.8392 15.8905C41.6276 16.7812 40.3933 18.7616 39.9231 19.5468C39.112 20.9413 38.3361 21.3632 37.5955 22.7929C36.1261 25.5585 35.9027 28.9452 35.8792 32.0155C35.8792 33.1523 35.8674 33.5038 34.974 34.207C34.3627 34.7109 33.0226 35.1445 32.235 35.2148C32.2585 36.3515 32.4584 37.7695 31.5884 38.5195C30.7891 39.2577 30.0132 39.4101 28.9435 39.3398C27.8149 39.3515 27.1801 39.7499 26.4395 38.9296C25.9458 38.4609 25.0994 38.1445 24.8643 37.4999C24.688 37.1718 24.9701 36.8085 24.8055 36.4804C24.7703 36.457 25.0289 35.4726 24.9936 35.4491C24.2413 35.2734 23.3479 35.578 22.8306 35.0155C22.525 34.7109 21.8549 34.5702 21.6198 34.207C21.1026 33.457 20.9145 32.5312 20.9615 31.6405C20.9262 28.7343 20.6323 25.6991 19.2452 23.0859C18.246 21.164 16.5649 19.6405 15.8949 17.5429C15.8361 17.3085 16.3768 16.2773 16.1535 16.1718C13.2734 15.7734 8.68876 15.164 5.78516 15.1874C5.78516 25.9921 5.78516 38.2499 5.78516 49.0546C10.2287 48.9374 15.7068 49.0546 20.0681 49.957C23.0657 50.6015 26.0399 51.5741 28.6613 53.1913C30.8596 51.8202 33.3283 50.9179 35.8439 50.2851C40.8283 49.0663 45.9889 48.7148 51.1143 48.8788C51.0908 38.0976 51.5022 26.332 51.5022 15.5273Z" fill="#4DF189"/>
<path d="M0.953125 22.5469C1.88181 22.5469 3.85673 21.9961 4.78541 21.9961C4.78541 30.7852 4.78541 40.793 4.78541 49.582C4.75015 49.9336 4.99701 50.2266 5.31441 50.3438C5.36143 50.4492 5.77287 49.4766 5.84341 49.5703C5.99623 49.793 6.29012 49.8867 6.56049 49.8633C10.4751 49.6992 13.7431 49.9688 17.6224 50.5547C21.0903 51.082 25.1224 51.7148 28.2023 53.4492C28.1671 54.5156 27.979 56.8242 27.9555 57.9023C25.5574 56.3789 22.7478 55.6523 19.9735 55.2305C17.1404 54.8086 14.2603 54.7266 11.4038 54.7969C8.26504 54.8906 4.09184 55.7109 0.988391 56.1797C0.953125 45.3633 0.953125 33.3398 0.953125 22.5469Z" fill="#B4FFCF"/>
<path d="M51.9362 22.2539C52.8531 22.2539 55.1101 22.2539 56.0271 22.2539C56.0153 33.082 55.8743 44.8828 55.839 55.7109C52.9354 55.2539 50.02 54.9727 47.0929 54.832C43.9189 54.7031 40.7214 54.7383 37.5592 55.1836C34.9142 55.5586 30.9761 57.4688 28.6133 58.7578C28.625 57.9258 28.7896 54.8555 28.8014 54.0234C32.4456 51.7969 37.2771 50.6484 41.462 50.1094C44.8594 49.6992 48.292 49.5703 51.7128 49.7227C52.1595 49.793 52.0302 49.3828 51.9832 48.9375C52.0185 39.9492 51.9362 31.2305 51.9362 22.2539Z" fill="#B4FFCF"/>
<path d="M27.5595 9.1337C28.7023 8.69311 31.0757 9.42742 32.0929 10.0883C33.5371 11.3611 33.1226 14.384 31.7915 15.718C30.4855 17.1622 26.9567 17.4926 25.5 16.1586C24.8847 15.3264 24.9349 12.9399 25.1358 11.9363C25.3744 10.6635 26.3288 9.57428 27.5595 9.1337Z" fill="#EBFA9E"/>
<path d="M21.9141 32.6016C25.7228 32.6016 31.6006 32.6016 35.4211 32.6016C34.9744 33.1875 34.5395 34.5 32.6468 34.5C30.2134 34.4648 27.7918 34.4883 25.3584 34.4883C24.6413 34.5469 23.36 34.8047 22.8545 34.2187C22.784 34.0547 21.9728 32.7539 21.9141 32.6016Z" fill="#EBFA9E"/>
<path d="M21.9135 29.4727C25.9339 29.4844 31.6941 29.4727 35.7262 29.4727C35.7145 29.8242 34.9386 31.1016 34.9151 31.4531C30.9183 31.4531 25.9104 32.6016 21.9135 32.6016C21.9018 32.25 21.9253 29.8242 21.9135 29.4727Z" fill="#D6FFD8"/>
<path d="M25.3945 35.2266C26.958 35.2149 30.6727 35.5664 32.2362 35.5664C32.0716 36.3047 30.6257 37.9102 29.9321 38.2266C29.0152 38.6836 27.2284 38.9414 26.4055 38.3086C26.1234 37.8633 25.4298 35.7422 25.3945 35.2266Z" fill="#E7D6FF"/>
<path d="M27.8725 0H29.0833C32.1397 0.105469 35.1492 1.27734 37.4415 3.29297C39.9101 5.42578 41.5559 8.49609 41.9321 11.7305C42.0731 12.832 42.0379 13.957 41.9556 15.0703C45.2118 14.6016 48.5151 14.4141 51.7949 14.5078C52.1828 14.4844 52.5238 14.8359 52.5002 15.2344C52.5238 17.2266 52.5002 19.2305 52.512 21.2227C53.8521 21.2344 55.1805 21.2109 56.5206 21.2227C56.8498 21.2109 57.1789 21.4102 57.2495 21.7383C57.32 22.1836 57.273 22.6406 57.2847 23.0859C57.2847 34.0195 57.2847 44.9648 57.2847 55.8984C57.2612 56.2852 57.367 56.7422 57.0614 57.0469C56.8615 57.2578 56.5441 57.2461 56.2738 57.1992C53.5112 56.7539 50.7252 56.4609 47.9274 56.2969C44.6006 56.1211 41.2502 56.1211 37.947 56.5547C35.7722 56.8477 33.5974 57.3281 31.599 58.2422C30.6115 58.6758 29.7064 59.2734 28.907 59.9883H28.3897C26.6264 58.418 24.3576 57.5742 22.0888 57.0469C18.9266 56.332 15.6586 56.1562 12.4258 56.1914C8.87564 56.25 5.33724 56.543 1.8341 57.0703C1.4109 57.1289 0.987706 57.2578 0.552753 57.2227C0.164822 57.1523 -0.023266 56.7422 0.0120004 56.3789C0.0120004 44.9297 0.0120004 33.4688 0.0120004 22.0195C-0.023266 21.6328 0.258866 21.2344 0.658552 21.2344C2.03394 21.1992 3.40934 21.2344 4.77297 21.2227C4.78473 19.2305 4.76122 17.2266 4.78473 15.2344C4.76122 14.8477 5.10213 14.4961 5.49006 14.5195C8.78159 14.4258 12.0849 14.6133 15.3412 15.082C15.1766 13.2773 15.2706 11.4258 15.7879 9.67969C16.8576 5.90625 19.7024 2.68359 23.3231 1.125C24.7455 0.46875 26.309 0.140625 27.8725 0ZM21.4187 3.83203C18.715 5.85938 16.9399 9.05859 16.7048 12.4219C16.5755 14.4375 16.7871 16.5469 17.7745 18.3281C18.5622 19.7344 19.6672 20.9414 20.4313 22.3594C21.4658 24.2109 21.9477 26.3203 22.1711 28.418C22.3474 28.418 22.5238 28.418 22.6883 28.418C26.8263 28.418 30.9524 28.418 35.0904 28.418C35.3255 26.2031 35.8545 23.9883 37.0065 22.0664C37.7941 20.7305 38.8404 19.5586 39.581 18.1875C40.4509 16.5352 40.6625 14.625 40.5919 12.7852C40.4391 9.77344 39.1343 6.77344 36.8419 4.75781C36.7949 4.69922 36.7126 4.58203 36.6656 4.53516C34.5849 2.625 31.7988 1.5 28.9658 1.44141C26.2855 1.32422 23.57 2.19141 21.4187 3.83203ZM6.18363 15.8906C6.18363 26.8945 6.18363 37.8984 6.18363 48.9023C6.38347 48.9023 6.57156 48.8906 6.7714 48.8906C11.215 48.7734 15.6821 49.0781 20.0433 49.9805C23.041 50.625 26.0151 51.5977 28.6366 53.2148C30.8466 51.8438 33.3153 50.9414 35.8192 50.3086C40.8035 49.0898 45.9642 48.7383 51.0896 48.9023C51.0896 38.0977 51.0896 27.2812 51.0896 16.4766C51.0896 16.2773 51.0896 16.0898 51.0896 15.8906C47.9509 15.8555 44.8122 16.043 41.7087 16.5234C41.5324 17.2383 41.2973 17.9414 40.9681 18.6094C40.3333 19.875 39.3811 20.9531 38.617 22.1367C36.983 24.5859 36.4893 27.5859 36.3717 30.4805C36.3012 31.4648 36.4775 32.4844 36.0896 33.4336C35.5841 34.8398 34.197 35.8242 32.7158 35.918C32.7628 37.2422 32.1162 38.5547 30.9877 39.2812C30.0355 39.9375 28.8129 40.0195 27.7079 39.8555C27.1084 39.7617 26.5676 39.457 26.0504 39.1523C25.5567 38.6836 25.0982 38.168 24.8513 37.5234C24.675 37.1953 24.5692 36.0352 24.581 35.9414C23.8169 35.8711 23.1233 35.5781 22.465 35.2031C22.1593 34.8984 21.8302 34.5938 21.5951 34.2305C21.0778 33.4805 20.8897 32.5547 20.9368 31.6641C20.8897 28.7461 20.6076 25.7227 19.2205 23.1094C18.2212 21.1875 16.5402 19.6641 15.8702 17.5664C15.8114 17.332 15.6821 17.1211 15.4587 17.0273C15.5175 17.0273 15.635 17.0391 15.6821 17.0391C15.6586 16.9102 15.5998 16.6641 15.5645 16.5352C12.4728 16.043 9.32235 15.8555 6.18363 15.8906ZM1.4109 22.6406C1.43441 33.668 1.39915 44.6836 1.42266 55.7109C1.61075 55.6758 1.81059 55.6523 1.99868 55.6172C5.10213 55.1602 8.22908 54.8789 11.3678 54.7852C14.2361 54.7148 17.1045 54.7969 19.9375 55.2188C22.7236 55.6406 25.5214 56.3672 27.9195 57.8906C27.943 56.8125 27.9078 55.7461 27.943 54.6797C27.9548 54.4922 27.8372 54.3633 27.6727 54.293C25.1217 52.7695 22.2416 51.8906 19.3498 51.3047C14.9062 50.4258 10.3568 50.1914 5.84272 50.3438C5.73692 50.3438 5.53708 50.332 5.43128 50.332C5.44304 50.4141 5.46655 50.5664 5.4783 50.6484C5.40777 50.5547 5.34899 50.4609 5.30197 50.3555C4.98457 50.2383 4.73771 49.9453 4.77297 49.5938C4.77297 40.8047 4.77297 32.0156 4.77297 23.2383C4.77297 23.0391 4.77297 22.8516 4.77297 22.6523C3.6562 22.6289 2.52767 22.6055 1.4109 22.6406ZM52.5002 22.6289C52.5002 31.6172 52.5002 40.5938 52.5002 49.582C52.5355 49.9805 52.2064 50.3672 51.7949 50.3438C46.8694 50.1562 41.9086 50.4258 37.0888 51.4688C34.4791 52.0664 31.8929 52.9102 29.5888 54.293C29.483 54.375 29.2949 54.4336 29.3419 54.6094C29.3302 55.7109 29.3419 56.8008 29.3419 57.9023C29.53 57.7852 29.7299 57.668 29.9297 57.5508V57.5273C32.2808 56.2383 34.9258 55.5703 37.5708 55.1953C40.7212 54.75 43.9187 54.7148 47.1045 54.8438C50.0316 54.9727 52.9587 55.2656 55.8506 55.7227C55.8741 44.8945 55.8623 34.0547 55.8623 23.2266C55.8623 23.0273 55.8623 22.8398 55.8623 22.6406C54.7455 22.6289 53.6288 22.6289 52.5002 22.6289ZM22.3122 29.8125C22.3239 30.3633 22.3474 30.9141 22.3592 31.4531C22.5473 31.4531 22.7354 31.4531 22.9352 31.4531C26.9321 31.4531 30.9289 31.4531 34.9258 31.4531C34.9375 31.1016 34.9493 30.75 34.9728 30.3984C34.9728 30.1992 34.9846 30 34.9846 29.8125C30.7526 29.8242 26.5324 29.8242 22.3122 29.8125ZM22.5002 32.8594C22.6296 33.2812 22.8647 33.6914 23.2644 33.9141C23.7698 34.5 24.628 34.5469 25.3451 34.4883C27.7785 34.4883 30.2001 34.4648 32.6335 34.5C33.3858 34.4766 34.0676 34.043 34.5144 33.457C34.6084 33.2695 34.6907 33.0703 34.7612 32.8711C30.6821 32.8594 26.5912 32.8594 22.5002 32.8594ZM25.9799 35.9297C25.9916 36.7148 26.309 37.5469 26.9908 37.9922C27.8137 38.625 29.0128 38.6836 29.9297 38.2266C30.6233 37.8984 31.0817 37.2305 31.2463 36.4922C31.2581 36.3047 31.2698 36.1172 31.2934 35.9297C29.5183 35.9297 27.7549 35.9297 25.9799 35.9297Z" fill="#333333"/>
<path d="M36.1851 10.6289C36.8317 10.6406 37.7839 10.5586 38.066 11.3086C38.2776 12.2226 38.1601 13.1484 38.1953 14.0742C38.1836 14.5781 38.2424 15.2226 37.7486 15.539C37.0786 15.9609 36.2439 15.7968 35.4916 15.8437C35.4446 15.9609 35.4093 16.0781 35.3623 16.207L35.374 16.2773C35.5739 16.4765 35.7619 16.664 35.9618 16.8515C36.0206 16.9101 36.1499 17.0156 36.2087 17.0742L36.2204 17.0859C36.2674 17.1445 36.3732 17.2617 36.432 17.3203C36.6201 17.6601 36.8905 18.0586 36.6789 18.457C36.3145 19.1601 35.6679 19.6406 35.1389 20.2031C34.751 20.5547 34.4218 21.0234 33.9281 21.2343C33.4109 21.4218 32.9171 21.0703 32.5174 20.7773C32.4116 20.6953 32.3176 20.6015 32.2353 20.5078C32.0472 20.3086 31.8709 20.1093 31.6828 19.9101C31.5417 19.957 31.4007 20.0156 31.2596 20.0742C31.2596 20.7304 31.3419 21.4218 31.1185 22.0429C30.9892 22.4297 30.613 22.6992 30.2016 22.7226C29.0613 22.7812 27.921 22.7109 26.7808 22.7226L26.8395 22.8164C26.6632 22.5234 26.2753 22.4062 26.1812 22.0547C26.0402 21.6093 26.0637 21.1289 26.0519 20.6718C26.0519 20.4726 26.0519 20.2734 26.0519 20.0742C25.9109 20.0273 25.7698 19.9804 25.6287 19.9336C25.135 20.4023 24.6883 20.9648 24.0652 21.2461C23.642 21.4453 23.2188 21.1406 22.8779 20.9179C22.1961 20.3203 21.5731 19.6406 20.95 18.9843C20.6679 18.7031 20.4798 18.2929 20.6091 17.8945C20.8207 17.2851 21.3262 16.8632 21.7729 16.4297C21.8199 16.3945 21.9022 16.3125 21.9493 16.2656C21.914 16.125 21.867 15.9961 21.8317 15.8554C21.1734 15.8554 20.5151 15.7734 19.8568 15.8086L19.9156 15.9023V15.914C19.7745 15.6914 19.5394 15.5742 19.3748 15.375C19.1397 14.9882 19.1514 14.5195 19.1279 14.0859C19.1279 13.3007 19.1162 12.5273 19.1397 11.7422C19.1397 11.3203 19.4101 10.9218 19.8215 10.7812C20.4563 10.5586 21.1381 10.6289 21.7964 10.6406C21.8552 10.5117 21.9022 10.3945 21.961 10.2656C21.5143 9.76168 20.9736 9.30465 20.6444 8.707C20.3975 8.23825 20.7384 7.75778 21.0323 7.41793C21.6319 6.7734 22.2667 6.16403 22.9015 5.54293C23.1836 5.23824 23.642 5.07418 24.0417 5.23825C24.7118 5.49606 25.1585 6.09371 25.6993 6.55075C25.8168 6.49215 25.9344 6.44528 26.0637 6.38668C26.0754 5.71871 26.0049 5.02731 26.2165 4.38278C26.3693 3.89059 26.9336 3.7734 27.3803 3.74996C28.309 3.70309 29.2494 3.72653 30.1781 3.74996C30.5895 3.74996 30.954 4.03121 31.1303 4.38278C31.3301 5.03903 31.2831 5.74215 31.2831 6.42184C31.4242 6.46871 31.577 6.51559 31.7181 6.56246C31.7533 6.51559 31.8239 6.43356 31.8591 6.3984C32.2941 5.97653 32.7173 5.49606 33.2698 5.23825C33.7047 5.05075 34.1515 5.34371 34.4688 5.62496C35.1507 6.23434 35.8207 6.86715 36.4438 7.53512C36.6554 7.83981 36.8552 8.21481 36.7259 8.58981C36.4908 9.29293 35.8678 9.76168 35.3505 10.2656C35.4328 10.3828 35.4798 10.5351 35.5856 10.6406C35.7502 10.664 35.9265 10.6757 36.0911 10.6875M27.4508 5.10934C27.4508 5.67184 27.4626 6.24606 27.4391 6.80856C27.4156 7.00778 27.4156 7.24215 27.251 7.38278C26.9688 7.55856 26.6279 7.62887 26.3341 7.7695C25.9931 7.91012 25.6522 8.16793 25.2525 8.02731C25.0762 7.88668 24.8764 7.78121 24.6883 7.66403L24.6648 7.62887C24.559 7.49996 24.4414 7.37106 24.3239 7.25387C24.1358 7.04293 23.9359 6.84371 23.7361 6.65621C23.1836 7.21871 22.6193 7.7695 22.0668 8.332C22.2902 8.55465 22.5135 8.78903 22.7604 8.98825C22.9602 9.19918 23.1718 9.38668 23.3717 9.60934C23.501 9.85543 23.5833 10.1484 23.4187 10.4062C23.1601 10.8632 23.1013 11.4375 22.7604 11.8476C22.0903 12.2343 21.2674 12 20.5268 12.0351C20.5268 12.832 20.5268 13.6289 20.5268 14.414C20.7267 14.414 20.9148 14.414 21.1146 14.414C21.5848 14.4257 22.0668 14.3906 22.5488 14.4726C22.8074 14.5078 22.8662 14.8007 23.019 14.9648C23.066 15.5273 23.595 15.9726 23.4892 16.5351C23.1953 17.1914 22.5723 17.6015 22.0786 18.0937C22.2784 18.3047 22.4665 18.5039 22.6663 18.7148L22.6899 18.6914C23.0543 19.0547 23.4187 19.4297 23.8066 19.7812C24.2533 19.3242 24.6765 18.8437 25.182 18.457C25.4877 18.1875 25.8403 18.4804 26.146 18.5859C26.6044 18.832 27.2627 18.8437 27.4626 19.4062C27.5096 20.0507 27.4861 20.6836 27.4743 21.3281C27.6742 21.3281 27.874 21.3281 28.0856 21.3281C28.6851 21.3281 29.2847 21.3398 29.8842 21.3164C29.8842 20.6601 29.8372 20.0156 29.9195 19.3593C29.99 18.9023 30.5425 18.8906 30.8834 18.7148C31.2949 18.5859 31.7181 18.1757 32.1648 18.457C32.7173 18.7968 33.117 19.3359 33.6225 19.7343C34.1867 19.2187 34.7157 18.6562 35.2565 18.1172C34.7627 17.6132 34.1985 17.1445 33.8223 16.5351C33.7635 16.1484 34.0574 15.832 34.1632 15.4804C34.3278 15.1289 34.3513 14.625 34.7862 14.4961C35.4446 14.3086 36.1381 14.4257 36.8082 14.4257C36.8082 13.8281 36.8082 13.2304 36.8082 12.6211C36.8082 12.4218 36.8082 12.2343 36.8082 12.0351C36.1734 12.0351 35.5386 12.0351 34.9038 12.0234L34.9978 12.1992C34.9743 12.1523 34.9273 12.0703 34.9038 12.0234C34.3866 11.9179 34.3513 11.3437 34.1632 10.9453C34.0339 10.5703 33.6812 10.1836 33.9163 9.7734C34.2572 9.2109 34.798 8.81246 35.2565 8.35543C34.9038 7.98043 34.5159 7.62887 34.175 7.24215C33.9869 7.03121 33.787 6.83199 33.5637 6.65621C33.0464 7.13668 32.6115 7.75778 31.9767 8.09762C31.4359 8.10934 31.001 7.64059 30.4602 7.62887C30.2957 7.47653 30.0488 7.39449 29.9665 7.16012C29.8019 6.69137 29.8607 6.18746 29.8607 5.707C29.8607 5.50778 29.8725 5.32028 29.8842 5.12106C29.0378 5.10934 28.2384 5.10934 27.4508 5.10934Z" fill="#333333"/>
<path d="M26.4398 8.6719C27.2274 8.41408 28.0386 8.15627 28.8732 8.22658C30.2839 8.27346 31.6005 8.9883 32.5292 10.0313C33.1052 10.8399 33.5519 11.7774 33.6224 12.7735C33.787 14.4492 32.9994 16.1719 31.6475 17.1797C30.4367 18.1055 28.8027 18.4219 27.3332 18.0117C26.6044 17.8242 25.9461 17.4375 25.3583 16.9805C24.2063 15.961 23.5245 14.4141 23.642 12.8789C23.736 11.1094 24.8763 9.44533 26.4751 8.69533M25.6639 11.2149C24.653 12.6446 24.9234 14.8594 26.334 15.9258C27.6859 17.2031 30.0605 17.0274 31.2831 15.6446C32.5174 14.3672 32.5997 12.0469 31.2478 10.8281C30.9657 10.3477 30.4249 10.0781 29.9312 9.86721C28.4147 9.24612 26.5456 9.85549 25.6639 11.2149Z" fill="#333333"/>
<path d="M11.0978 24.3517C11.3094 24.1056 11.6621 24.129 11.956 24.129C13.8721 24.1407 15.7883 24.129 17.7162 24.1407C18.0806 24.1056 18.3862 24.3751 18.492 24.715C18.4568 24.9493 18.445 25.2189 18.2452 25.3712C18.0453 25.5704 17.7397 25.5353 17.4811 25.547C15.4944 25.5353 13.496 25.5587 11.4975 25.5353C10.945 25.465 10.7452 24.7267 11.0978 24.3517Z" fill="#333333"/>
<path d="M38.9819 24.375C39.2052 24.082 39.5932 24.1406 39.9223 24.1289C41.8502 24.1406 43.7664 24.1172 45.6825 24.1406C46.0352 24.1172 46.282 24.4102 46.3761 24.7031C46.3408 24.9492 46.3173 25.2305 46.1057 25.3828C45.8941 25.5586 45.5885 25.5234 45.3181 25.5352C43.3432 25.5234 41.3565 25.5469 39.3816 25.5234C38.8643 25.4648 38.6527 24.75 38.9819 24.375Z" fill="#333333"/>
<path d="M11.0133 30.0117C11.1426 29.7539 11.4365 29.6719 11.6951 29.6836C13.6935 29.6836 15.7037 29.6836 17.7021 29.6836C18.0666 29.6367 18.3604 29.918 18.4662 30.2461C18.431 30.4688 18.4192 30.7266 18.2429 30.9023C18.0078 31.1367 17.6434 31.0781 17.3495 31.1016C15.3981 31.0898 13.4467 31.1133 11.4835 31.0898C11.0015 31.0195 10.7664 30.4102 11.0133 30.0117Z" fill="#333333"/>
<path d="M38.9936 29.9064C39.1934 29.6603 39.5226 29.6837 39.8047 29.6837C41.7679 29.6954 43.7193 29.672 45.6824 29.6954C46.0586 29.6603 46.2467 30.0235 46.4348 30.2814C46.329 30.6446 46.1527 31.1134 45.6824 31.0782C43.59 31.1017 41.4857 31.09 39.3933 31.0782C38.8643 31.0079 38.6527 30.2814 38.9936 29.9064Z" fill="#333333"/>
<path d="M11.0748 35.4609C11.2511 35.2266 11.5685 35.2266 11.8389 35.2266C14.3076 35.2383 16.7645 35.2266 19.2331 35.2266C19.6093 35.1797 19.9032 35.4609 20.009 35.8008C20.009 36.1875 19.7856 36.6328 19.3507 36.6211C16.7292 36.6445 14.1077 36.6328 11.498 36.6211C10.9573 36.5508 10.7457 35.8477 11.0748 35.4609Z" fill="#333333"/>
<path d="M37.4285 35.4844C37.6166 35.2032 37.981 35.2149 38.2749 35.2149C40.7436 35.2266 43.2122 35.2032 45.6691 35.2266C46.0218 35.1915 46.2686 35.4962 46.3744 35.7891C46.3392 36.0118 46.3274 36.2696 46.1393 36.4337C45.9277 36.6446 45.5986 36.6094 45.3164 36.6212C42.8243 36.6094 40.3321 36.6329 37.84 36.6094C37.3462 36.5626 37.1229 35.8829 37.4285 35.4844Z" fill="#333333"/>
<path d="M11.0856 40.1484C11.2619 39.9258 11.5676 39.9258 11.8262 39.9141C15.3881 39.9258 18.9618 39.9023 22.5237 39.9258C22.8881 39.8906 23.1467 40.1836 23.2525 40.5C23.2173 40.7227 23.1937 40.9805 23.0174 41.1563C22.8293 41.3438 22.5472 41.332 22.3003 41.332C18.7032 41.3203 15.0942 41.3438 11.497 41.3203C10.9445 41.2617 10.7447 40.5352 11.0856 40.1484Z" fill="#333333"/>
<path d="M34.1859 40.2069C34.3505 39.9374 34.7032 39.914 34.9853 39.9257C38.5472 39.9374 42.1091 39.914 45.671 39.9374C46.0237 39.914 46.2706 40.1952 46.3764 40.4999C46.3411 40.7226 46.3293 40.9804 46.153 41.1444C45.9414 41.3671 45.6005 41.3202 45.3301 41.3319C41.7565 41.3202 38.1945 41.3436 34.6209 41.3202C34.1154 41.2616 33.892 40.5936 34.1859 40.2069Z" fill="#333333"/>
<path d="M27.9429 42.0585C27.9546 41.2734 29.2595 41.2382 29.33 42.0116C29.3535 44.6484 29.33 47.2851 29.3418 49.9335C29.33 50.2148 29.3653 50.5663 29.1302 50.7773C28.9656 50.953 28.7187 50.9648 28.5071 50.9999C28.1545 50.871 27.8841 50.5546 27.9311 50.1679C27.9429 47.4609 27.9193 44.7538 27.9429 42.0585Z" fill="#333333"/>
<path d="M11.0748 44.6953C11.2511 44.4609 11.5685 44.4492 11.8389 44.4492C15.4126 44.4609 18.9745 44.4375 22.5482 44.4609C22.9008 44.4375 23.1594 44.7188 23.2535 45.0352C23.2182 45.2695 23.1947 45.5508 22.9949 45.7031C22.8068 45.8672 22.5364 45.8555 22.3013 45.8672C18.7041 45.8555 15.0952 45.8789 11.498 45.8555C10.9573 45.7852 10.7457 45.082 11.0748 44.6953Z" fill="#333333"/>
<path d="M34.1633 44.7656C34.3043 44.5195 34.5982 44.4375 34.8686 44.4492C38.1954 44.4492 41.534 44.4492 44.8608 44.4492C45.2017 44.4492 45.5426 44.4258 45.8717 44.4844C46.1774 44.543 46.2597 44.8711 46.4595 45.0703C46.3302 45.4219 46.1539 45.8906 45.6836 45.8555C41.9924 45.8672 38.3129 45.8672 34.6217 45.8555C34.128 45.7851 33.9046 45.1641 34.1633 44.7656Z" fill="#333333"/>
</g>
<defs>
<clipPath id="clip0_376_2224">
<rect width="57.2727" height="60" fill="white"/>
</clipPath>
</defs>
</svg>
