<svg width="14" height="4" viewBox="0 0 14 4" fill="none" xmlns="http://www.w3.org/2000/svg">
<path d="M3.0332 1.81087C3.0332 2.63929 2.36163 3.31087 1.5332 3.31087C0.704776 3.31087 0.0332031 2.63929 0.0332031 1.81087C0.0332031 0.982439 0.704776 0.310866 1.5332 0.310866C2.36163 0.310866 3.0332 0.982439 3.0332 1.81087Z" fill="#454C5F"/>
<path d="M8.22667 1.78613C8.22667 2.61456 7.5551 3.28613 6.72667 3.28613C5.89825 3.28613 5.22667 2.61456 5.22667 1.78613C5.22667 0.957706 5.89825 0.286133 6.72667 0.286133C7.5551 0.286133 8.22667 0.957706 8.22667 1.78613Z" fill="#454C5F"/>
<path d="M13.5 1.78613C13.5 2.61456 12.8284 3.28613 12 3.28613C11.1716 3.28613 10.5 2.61456 10.5 1.78613C10.5 0.957706 11.1716 0.286133 12 0.286133C12.8284 0.286133 13.5 0.957706 13.5 1.78613Z" fill="#454C5F"/>
</svg>
