<svg width="45" height="45" viewBox="0 0 45 45" fill="none" xmlns="http://www.w3.org/2000/svg">
<path d="M30.4859 2.07769C30.504 0.952687 31.529 -0.0180796 32.6538 6.55754e-05C36.0462 6.55754e-05 39.4387 6.55754e-05 42.8221 6.55754e-05C43.9468 -0.0271522 44.9628 0.952687 44.99 2.07769C45.0081 4.89019 44.99 7.70269 44.9991 10.5243C44.9991 10.8327 45.0081 11.1593 44.9174 11.4587C44.736 12.1392 44.1918 12.7198 43.5205 12.9466C43.0942 13.1009 42.6316 13.0646 42.1871 13.0646C38.9761 13.0555 35.7741 13.0737 32.5631 13.0555C31.4383 13.0283 30.4677 12.0122 30.4859 10.8872C30.4768 9.68051 30.4949 8.46478 30.4859 7.25813C29.7602 7.25813 29.0345 7.24906 28.3089 7.25813C27.8825 7.23998 27.5469 7.64825 27.5923 8.06559C27.5923 10.7329 27.5923 13.3912 27.5923 16.0585C27.5923 16.4849 27.6286 16.9204 27.4925 17.3287C27.2929 17.9819 26.7668 18.5353 26.1137 18.7531C25.6602 18.9164 25.1613 18.862 24.6896 18.871C24.6896 19.8418 24.6896 20.8035 24.6896 21.7743C26.6217 21.7743 28.5538 21.7743 30.4859 21.7743C30.4949 20.5313 30.4768 19.2884 30.4949 18.0454C30.5131 16.9204 31.5381 15.9497 32.6628 15.9678C36.0553 15.9678 39.4478 15.9678 42.8311 15.9678C43.9559 15.9406 44.9718 16.9204 44.9991 18.0454C45.0172 20.8579 44.9991 23.6795 45.0081 26.492C45.0172 26.9184 44.9991 27.363 44.8086 27.7531C44.4729 28.5152 43.6657 29.0414 42.8311 29.0323C39.4387 29.0323 36.0462 29.0323 32.6628 29.0323C31.5381 29.0505 30.5221 28.0797 30.4949 26.9547C30.4768 25.7118 30.4949 24.4688 30.4859 23.2259C28.5538 23.2259 26.6217 23.2259 24.6806 23.2259C24.6806 24.1876 24.6806 25.1583 24.6806 26.1291C25.1795 26.1382 25.6965 26.0837 26.1682 26.2743C26.912 26.5464 27.4653 27.2541 27.556 28.0343C27.5923 28.3972 27.5741 28.7601 27.5741 29.1321C27.5741 31.736 27.5741 34.3398 27.5741 36.9436C27.5288 37.3519 27.8735 37.7601 28.2907 37.7511C29.0164 37.7692 29.742 37.7511 30.4677 37.7511C30.4768 36.5444 30.4677 35.3287 30.4677 34.122C30.4586 33.3327 30.9303 32.5706 31.6288 32.2077C31.9644 32.0263 32.3544 31.9446 32.7354 31.9537C36.0916 31.9537 39.4568 31.9537 42.813 31.9537C43.9378 31.9265 44.9537 32.9063 44.9809 34.0313C44.9991 36.9073 44.9809 39.7833 44.99 42.6593C44.9991 43.0676 44.9356 43.494 44.736 43.8569C44.3732 44.5555 43.6112 45.0182 42.8221 45.0182C39.4296 45.0182 36.0372 45.0182 32.6538 45.0182C31.529 45.0364 30.5131 44.0656 30.4859 42.9406C30.4677 41.6976 30.4858 40.4547 30.4768 39.2118C29.6876 39.1936 28.8985 39.2299 28.1093 39.2027C27.0208 39.1301 26.1047 38.1321 26.1228 37.0434C26.1228 34.1674 26.1228 31.2914 26.1228 28.4154C26.15 28.0616 25.9233 27.6987 25.5695 27.6351C25.2702 27.5898 24.9708 27.6079 24.6806 27.6079C24.6715 30.5474 24.6896 33.4779 24.6715 36.4174C24.6443 37.5424 23.6284 38.5132 22.5036 38.495C15.7277 38.495 8.95189 38.495 2.17604 38.495C1.01498 38.486 -0.0190859 37.4517 -0.000944372 36.2995C-0.000944372 27.3176 -0.000944372 18.3358 -0.000944372 9.34482C-0.000944372 8.87305 -0.0372274 8.3922 0.144188 7.94765C0.41631 7.20369 1.12383 6.65027 1.90391 6.55954C2.26674 6.51418 2.62957 6.53232 2.9924 6.53232C9.25122 6.53232 15.51 6.53232 21.7689 6.53232C22.2859 6.53232 22.8392 6.48696 23.329 6.69563C24.1273 7.01317 24.6806 7.83878 24.6715 8.70067C24.6806 11.6039 24.6715 14.5071 24.6806 17.4103C25.0253 17.4013 25.379 17.4648 25.7056 17.3468C25.9868 17.2198 26.141 16.9114 26.1228 16.6029C26.1228 13.9718 26.1228 11.3317 26.1228 8.70067C26.1319 8.18353 26.0684 7.63011 26.2861 7.14019C26.5945 6.37809 27.3746 5.82466 28.2 5.79744C28.962 5.7793 29.7148 5.79744 30.4768 5.78837C30.4858 4.56357 30.4677 3.32063 30.4859 2.07769ZM32.1004 1.71478C31.8283 2.05047 31.9553 2.51317 31.9281 2.90329C35.8013 2.90329 39.6655 2.90329 43.5387 2.90329C43.5387 2.6039 43.5659 2.3045 43.5114 2.00511C43.4389 1.65128 43.0761 1.42446 42.7314 1.45168C39.4024 1.45168 36.0734 1.45168 32.7354 1.45168C32.4996 1.44261 32.2546 1.52426 32.1004 1.71478ZM31.9281 4.3549C31.9281 6.53232 31.9281 8.70974 31.9281 10.8962C31.919 11.2773 32.2637 11.622 32.6447 11.613C36.0009 11.622 39.3661 11.613 42.7314 11.613C43.1395 11.6583 43.5477 11.3136 43.5387 10.8962C43.5477 8.71882 43.5387 6.5414 43.5387 4.3549C39.6745 4.3549 35.8013 4.3549 31.9281 4.3549ZM1.45038 8.7914C1.45038 9.97083 1.45038 11.1503 1.45038 12.3388C8.70698 12.3388 15.9636 12.3388 23.2202 12.3388C23.2202 11.1593 23.2202 9.97991 23.2202 8.7914C23.2292 8.55551 23.1567 8.30148 22.9571 8.15632C22.7031 7.9295 22.3494 7.99301 22.041 7.98394C15.6915 7.99301 9.34193 7.98394 2.9924 7.98394C2.66586 7.99301 2.33024 7.95672 2.00369 8.01116C1.659 8.07466 1.42316 8.44664 1.45038 8.7914ZM1.45038 13.7904C1.45038 21.2662 1.45038 28.7329 1.45038 36.2087C1.40502 36.617 1.74971 37.0253 2.16697 37.0162C8.9156 37.0253 15.6642 37.0162 22.4129 37.0162C22.8664 37.0616 23.2746 36.6533 23.2202 36.2087C23.2202 28.7329 23.2202 21.2662 23.2202 13.7904C15.9636 13.7904 8.70698 13.7904 1.45038 13.7904ZM32.1004 17.6825C31.8283 18.0182 31.9553 18.4809 31.9281 18.871C35.7922 18.871 39.6655 18.871 43.5387 18.871C43.5387 18.5716 43.5659 18.2722 43.5114 17.9728C43.4389 17.619 43.0761 17.3922 42.7314 17.4194C39.4024 17.4194 36.0734 17.4194 32.7354 17.4194C32.4996 17.4103 32.2546 17.492 32.1004 17.6825ZM31.9281 20.3226C31.9281 22.5001 31.9281 24.6775 31.9281 26.864C31.919 27.245 32.2637 27.5898 32.6447 27.5807C36.0009 27.5898 39.3661 27.5807 42.7314 27.5807C43.1395 27.6261 43.5477 27.2813 43.5387 26.864C43.5477 24.6866 43.5387 22.5091 43.5387 20.3226C39.6745 20.3226 35.8013 20.3226 31.9281 20.3226ZM32.0007 33.8045C31.8827 34.1311 31.9462 34.494 31.9372 34.8388C35.8104 34.8388 39.6745 34.8388 43.5477 34.8388C43.5477 34.5394 43.5749 34.24 43.5205 33.9406C43.448 33.5868 43.0851 33.3509 42.7404 33.3872C39.4115 33.3872 36.0825 33.3872 32.7445 33.3872C32.4361 33.369 32.1186 33.5233 32.0007 33.8045ZM31.9281 36.2904C31.9281 38.4678 31.9281 40.6452 31.9281 42.8317C31.919 43.2128 32.2637 43.5575 32.6447 43.5485C36.0009 43.5575 39.3661 43.5485 42.7314 43.5485C43.1395 43.5938 43.5477 43.2491 43.5387 42.8317C43.5477 40.6543 43.5387 38.4769 43.5387 36.2904C39.6745 36.2904 35.8013 36.2904 31.9281 36.2904Z" fill="#741BF2"/>
<path d="M33.3789 5.8064C36.2815 5.8064 39.1842 5.8064 42.0868 5.8064C42.0868 6.28724 42.0868 6.77716 42.0868 7.25801C39.1842 7.25801 36.2815 7.25801 33.3789 7.25801C33.3789 6.77716 33.3789 6.28724 33.3789 5.8064Z" fill="#741BF2"/>
<path d="M33.3789 8.70972C35.311 8.70972 37.243 8.70972 39.1842 8.70972C39.1842 9.19056 39.1842 9.68048 39.1842 10.1613C37.2521 10.1613 35.311 10.1613 33.3789 10.1613C33.3789 9.68048 33.3789 9.19056 33.3789 8.70972Z" fill="#741BF2"/>
<path d="M40.6367 8.70972C41.1175 8.70972 41.5982 8.70972 42.088 8.70972C42.088 9.19056 42.088 9.68048 42.088 10.1613C41.6073 10.1613 41.1175 10.1613 40.6367 10.1613C40.6367 9.68048 40.6367 9.19056 40.6367 8.70972Z" fill="#741BF2"/>
<path d="M3.62656 11.1866C4.19265 11.1866 4.65155 10.7276 4.65155 10.1614C4.65155 9.59523 4.19265 9.13623 3.62656 9.13623C3.06047 9.13623 2.60156 9.59523 2.60156 10.1614C2.60156 10.7276 3.06047 11.1866 3.62656 11.1866Z" fill="#741BF2"/>
<path d="M6.53281 11.1866C7.0989 11.1866 7.5578 10.7276 7.5578 10.1614C7.5578 9.59523 7.0989 9.13623 6.53281 9.13623C5.96672 9.13623 5.50781 9.59523 5.50781 10.1614C5.50781 10.7276 5.96672 11.1866 6.53281 11.1866Z" fill="#741BF2"/>
<path d="M9.43125 11.1866C9.99733 11.1866 10.4562 10.7276 10.4562 10.1614C10.4562 9.59523 9.99733 9.13623 9.43125 9.13623C8.86516 9.13623 8.40625 9.59523 8.40625 10.1614C8.40625 10.7276 8.86516 11.1866 9.43125 11.1866Z" fill="#741BF2"/>
<path d="M4.52456 16.5938C4.84204 15.7954 5.66748 15.242 6.5292 15.2511C10.4024 15.2511 14.2756 15.2511 18.1488 15.2511C19.0106 15.242 19.836 15.7954 20.1535 16.5938C20.3712 17.0837 20.3167 17.6281 20.3167 18.1543C20.3077 18.6261 20.3621 19.116 20.1988 19.5696C19.9902 20.1956 19.4913 20.6856 18.8745 20.9124C18.8564 21.493 18.8564 22.0646 18.8745 22.6452C19.6818 22.9265 20.2805 23.7249 20.3077 24.5868C20.3167 25.1311 20.3167 25.6846 20.3077 26.2289C20.2714 27.0908 19.6818 27.8801 18.8654 28.1704C18.8473 28.7511 18.8473 29.3227 18.8654 29.9033C19.709 30.1936 20.3077 31.0374 20.3077 31.9356C20.2986 32.5162 20.3349 33.0969 20.2895 33.6775C20.1716 34.7299 19.201 35.5918 18.1398 35.5737C14.448 35.5827 10.7562 35.5737 7.06437 35.5737C6.58362 35.5737 6.07566 35.6009 5.62212 35.3741C4.84204 35.0202 4.31594 34.1674 4.35222 33.2964C4.37943 32.6614 4.27965 32.0081 4.42478 31.3821C4.59713 30.7017 5.1323 30.1392 5.79447 29.8942C5.81261 29.3136 5.81261 28.7329 5.79447 28.1614C5.18673 27.9346 4.67877 27.4356 4.47014 26.8186C4.30686 26.365 4.36129 25.8751 4.35222 25.4033C4.36129 24.9315 4.30686 24.4416 4.47014 23.988C4.67877 23.371 5.18673 22.8721 5.79447 22.6452C5.81261 22.0646 5.81261 21.4839 5.79447 20.9124C5.18673 20.6856 4.67877 20.1866 4.47014 19.5696C4.30686 19.116 4.36129 18.6261 4.35222 18.1543C4.36129 17.6281 4.30687 17.0747 4.52456 16.5938ZM6.29336 16.739C6.01217 16.8297 5.81261 17.12 5.81261 17.4194C5.80354 17.9366 5.79447 18.4537 5.82168 18.9708C5.84889 19.361 6.23894 19.6422 6.61991 19.6059C10.4387 19.6059 14.2484 19.6059 18.0672 19.6059C18.4754 19.6422 18.8836 19.3065 18.8745 18.8892C18.8745 18.3721 18.8926 17.8549 18.8654 17.3378C18.8291 16.9477 18.4482 16.6664 18.0672 16.7027C14.2847 16.7027 10.5022 16.7027 6.71968 16.7027C6.56548 16.6936 6.42942 16.6936 6.29336 16.739ZM7.26393 21.0485C7.26393 21.5293 7.26393 22.0102 7.26393 22.5001C10.6473 22.5001 14.0307 22.5001 17.4232 22.5001C17.4232 22.0192 17.4232 21.5384 17.4232 21.0485C14.0307 21.0485 10.6473 21.0485 7.26393 21.0485ZM6.29336 23.9971C6.01217 24.0878 5.80354 24.3781 5.81261 24.6775C5.80354 25.1946 5.79447 25.7118 5.82168 26.2289C5.84889 26.619 6.23894 26.9003 6.61991 26.864C10.4387 26.864 14.2484 26.864 18.0672 26.864C18.4482 26.9003 18.8291 26.619 18.8654 26.2289C18.8926 25.739 18.8745 25.2581 18.8745 24.7682C18.9289 24.2692 18.4482 23.8791 17.9765 23.9608C14.194 23.9698 10.4115 23.9608 6.62898 23.9608C6.50199 23.9517 6.40221 23.9608 6.29336 23.9971ZM7.26393 28.3065C7.26393 28.7874 7.26393 29.2682 7.26393 29.7581C10.6473 29.7581 14.0307 29.7581 17.4232 29.7581C17.4232 29.2773 17.4232 28.7964 17.4232 28.3065C14.0307 28.3065 10.6473 28.3065 7.26393 28.3065ZM6.29336 31.2551C6.01217 31.3458 5.81261 31.6362 5.81261 31.9356C5.80354 32.4527 5.79447 32.9698 5.82168 33.487C5.84889 33.8771 6.23894 34.1583 6.61991 34.1221C10.4387 34.1221 14.2484 34.1221 18.0672 34.1221C18.4754 34.1583 18.8836 33.8227 18.8745 33.4053C18.8745 32.8882 18.8926 32.371 18.8654 31.8539C18.8291 31.4638 18.4482 31.1825 18.0672 31.2188C14.2847 31.2188 10.5022 31.2188 6.71968 31.2188C6.56548 31.2098 6.42942 31.2098 6.29336 31.2551Z" fill="#741BF2"/>
<path d="M33.3789 21.7742C36.2815 21.7742 39.1842 21.7742 42.0868 21.7742C42.0868 22.255 42.0868 22.7449 42.0868 23.2258C39.1842 23.2258 36.2815 23.2258 33.3789 23.2258C33.3789 22.7449 33.3789 22.255 33.3789 21.7742Z" fill="#741BF2"/>
<path d="M33.3789 24.6775C35.311 24.6775 37.243 24.6775 39.1842 24.6775C39.1842 25.1583 39.1842 25.6483 39.1842 26.1291C37.2521 26.1291 35.32 26.1291 33.3789 26.1291C33.3789 25.6483 33.3789 25.1583 33.3789 24.6775Z" fill="#741BF2"/>
<path d="M40.6367 24.6775C41.1175 24.6775 41.5982 24.6775 42.088 24.6775C42.088 25.1583 42.088 25.6392 42.088 26.1291C41.6073 26.1291 41.1175 26.1291 40.6367 26.1291C40.6367 25.6483 40.6367 25.1583 40.6367 24.6775Z" fill="#741BF2"/>
<path d="M33.3789 37.7419C36.2815 37.7419 39.1842 37.7419 42.0868 37.7419C42.0868 38.2228 42.0868 38.7127 42.0868 39.1936C39.1842 39.1936 36.2815 39.1936 33.3789 39.1936C33.3789 38.7127 33.3789 38.2228 33.3789 37.7419Z" fill="#741BF2"/>
<path d="M33.3789 40.6453C35.311 40.6453 37.243 40.6453 39.1842 40.6453C39.1842 41.1261 39.1842 41.616 39.1842 42.0969C37.2521 42.0969 35.311 42.0969 33.3789 42.0969C33.3789 41.616 33.3789 41.1261 33.3789 40.6453Z" fill="#741BF2"/>
<path d="M40.6367 40.6453C41.1175 40.6453 41.6073 40.6453 42.088 40.6453C42.088 41.1261 42.088 41.616 42.088 42.0969C41.6073 42.0969 41.1175 42.0969 40.6367 42.0969C40.6367 41.616 40.6367 41.1261 40.6367 40.6453Z" fill="#741BF2"/>
</svg>
