<svg width="56" height="55" viewBox="0 0 56 55" fill="none" xmlns="http://www.w3.org/2000/svg">
<g clip-path="url(#clip0_614_2868)">
<path d="M25.4904 1.10746C26.3328 -0.312674 28.5954 -0.360814 29.5101 0.987107C30.2803 2.31096 30.858 3.75516 31.5801 5.12715C33.0484 5.34378 34.5407 5.4882 36.009 5.80111C37.5976 6.18623 38.3438 8.32846 37.3088 9.5801C36.3219 10.6873 35.1906 11.6983 34.1556 12.7573C34.3481 14.2256 34.637 15.6698 34.8055 17.1381C34.998 18.8471 32.9762 20.2672 31.4357 19.497C30.1359 18.8711 28.8602 18.149 27.5604 17.4751C26.1884 18.149 24.8405 18.9193 23.4444 19.5451C21.928 20.1709 20.0506 18.7749 20.219 17.1381C20.3875 15.6698 20.7004 14.2016 20.9411 12.7333C19.9061 11.6501 18.7748 10.6633 17.7639 9.55604C16.7289 8.30439 17.451 6.18623 18.9915 5.75297C20.4838 5.44006 22.0243 5.34378 23.5407 5.03087C24.1665 3.70702 24.7924 2.38317 25.4904 1.10746ZM25.2497 6.6917C25.0812 7.00461 24.7201 7.12496 24.4072 7.14903C22.8427 7.36566 21.2781 7.60636 19.6895 7.82299C20.7727 9.24312 22.2409 10.3503 23.4204 11.6742C23.7092 11.963 23.7092 12.3963 23.637 12.7814C23.3722 14.346 23.0593 15.8865 22.8427 17.451C22.963 17.4269 23.2278 17.3788 23.3722 17.3547C24.7201 16.6808 26.0199 15.9587 27.3678 15.2847C28.2103 14.8033 28.9805 15.6217 29.7267 15.9105C30.8339 16.416 31.8208 17.1862 33.0243 17.4751C32.8317 15.8383 32.4466 14.2256 32.2059 12.5889C32.0856 12.1556 32.3263 11.7223 32.6392 11.4335C33.6501 10.4226 34.7092 9.43569 35.7201 8.42474C35.9127 8.28032 35.9608 8.11183 35.8405 7.8952C34.2037 7.53415 32.5429 7.4138 30.9061 7.12496C30.5692 7.07682 30.3044 6.83612 30.16 6.54728C29.3175 5.07901 28.6676 3.49039 27.753 2.04619C26.7661 3.49039 26.1403 5.17529 25.2497 6.6917Z" fill="#4DF189"/>
<path d="M6.90812 10.0134C7.70243 8.68955 9.82059 8.61734 10.663 9.89305C11.2889 10.9521 11.7703 12.0834 12.3239 13.1666C13.5996 13.4073 14.8994 13.4795 16.1751 13.7683C17.5471 14.1775 18.1247 16.0309 17.2342 17.1381C16.3676 18.1009 15.4048 18.9434 14.4902 19.858C14.6827 21.1097 14.9956 22.3613 15.116 23.637C15.1882 25.1053 13.5274 26.2607 12.1794 25.7071C11.0482 25.2016 9.96501 24.5517 8.85779 23.9981C7.75057 24.5517 6.69149 25.1775 5.58426 25.7071C4.21227 26.3088 2.52737 25.1534 2.55144 23.6611C2.67179 22.3854 2.9847 21.1337 3.17726 19.8821C2.28667 19.0156 1.37201 18.1491 0.50549 17.2344C-0.481381 16.1272 0.12037 14.1775 1.5405 13.7683C2.79214 13.5036 4.06785 13.4073 5.31949 13.1906C5.84903 12.1316 6.33043 11.0484 6.90812 10.0134ZM7.02847 14.683C6.85998 15.044 6.49892 15.2366 6.1138 15.2847C4.83809 15.4773 3.56238 15.6458 2.2626 15.8383C3.20133 16.7771 4.14006 17.7158 5.07879 18.6545C5.36763 18.9193 5.60833 19.3285 5.51205 19.7377C5.27135 21.0134 4.98251 22.2891 4.74181 23.5648C5.84903 23.0112 6.93219 22.4817 8.01534 21.904C8.37639 21.7355 8.80965 21.4948 9.21884 21.7114C10.4705 22.2891 11.6499 22.9871 12.8775 23.5889C12.6849 22.2169 12.3961 20.869 12.2517 19.497C12.1795 19.0637 12.4924 18.7267 12.7812 18.462C13.6477 17.5955 14.5383 16.753 15.4289 15.8865C14.081 15.6458 12.709 15.4773 11.3611 15.2125C10.9278 15.1644 10.6871 14.7552 10.5186 14.3941C9.96501 13.2869 9.4114 12.1797 8.85779 11.0484C8.23197 12.276 7.65429 13.4795 7.02847 14.683Z" fill="#4DF189"/>
<path d="M44.3854 9.91719C45.2519 8.64148 47.3701 8.68962 48.1644 10.0135C48.7421 11.0485 49.2235 12.1316 49.7771 13.1907C50.9565 13.3833 52.16 13.5036 53.3635 13.7203C54.543 13.961 55.3132 15.2848 55.0003 16.4402C54.88 17.0179 54.4226 17.4511 54.0134 17.8362C53.3154 18.5102 52.6174 19.1842 51.9434 19.8581C52.136 21.1338 52.4489 22.3614 52.5692 23.6371C52.6174 25.1054 50.9565 26.2607 49.6086 25.6831C48.4773 25.1776 47.3942 24.5277 46.287 23.9741C45.1557 24.5277 44.0966 25.1776 42.9412 25.6831C41.5933 26.2367 39.9325 25.0813 39.9806 23.613C40.101 22.3373 40.4139 21.1098 40.6064 19.834C39.7158 18.9194 38.729 18.0769 37.8865 17.1141C36.9478 15.9588 37.6218 14.0332 39.066 13.6962C40.2935 13.4555 41.5452 13.3592 42.7727 13.1185C43.2782 12.0594 43.7837 10.9522 44.3854 9.91719ZM44.3854 14.7312C44.1929 15.1163 43.7596 15.2607 43.3745 15.3089C42.1228 15.5014 40.8953 15.6699 39.6436 15.8384C40.5583 16.7531 41.497 17.6918 42.4117 18.6065C42.7246 18.8953 42.9894 19.2804 42.8931 19.7378C42.6765 21.0135 42.3635 22.2892 42.1228 23.589C43.3745 22.9872 44.578 22.3133 45.8296 21.7356C46.2388 21.5189 46.648 21.7596 47.0091 21.9281C48.0922 22.4817 49.1754 23.0594 50.2585 23.6371C50.066 22.3614 49.8253 21.0857 49.6327 19.7859C49.5364 19.3767 49.6568 18.9435 49.9697 18.6787C50.8843 17.74 51.8471 16.8494 52.7859 15.9106C51.5824 15.7181 50.3789 15.5255 49.1754 15.3329C48.7902 15.2607 48.3329 15.2126 48.1163 14.8275C47.4423 13.624 46.8646 12.3242 46.2388 11.0966C45.613 12.3001 45.0353 13.5518 44.3854 14.7312Z" fill="#4DF189"/>
<path d="M26.3563 22.2169C27.632 21.6632 29.0521 22.2168 30.0871 22.9871C31.8924 24.3109 32.783 26.742 32.2053 28.9083C31.7239 30.5932 31.1943 32.2781 30.6889 33.963C32.6867 33.9871 34.6604 33.963 36.6582 33.963C37.4525 33.963 38.295 33.9149 39.0412 34.2278C40.6538 34.7814 41.8333 36.3941 41.8573 38.079C41.8814 39.9324 41.8573 41.7617 41.8573 43.6151C41.8814 46.5276 40.9668 49.44 39.2819 51.7989C37.8617 53.7726 35.4788 55.0002 33.0477 55.0002C30.3278 55.0243 27.5838 55.0243 24.8639 55.0002C22.5773 54.9762 20.3387 54.3744 18.2928 53.3394C17.667 54.2781 16.6079 54.9762 15.4525 54.9762C14.3453 54.9762 13.1659 55.1446 12.1309 54.591C11.0237 54.0134 10.2775 52.7858 10.3015 51.5341C10.3015 46.8886 10.3015 42.2431 10.3015 37.5735C10.2293 36.2497 10.9996 34.9258 12.2031 34.3241C13.214 33.8186 14.3694 33.9871 15.4766 33.9871C16.4875 33.9871 17.3781 34.5407 18.028 35.2628C21.109 32.5188 23.4679 28.8842 24.3344 24.8405C24.551 23.7092 25.249 22.626 26.3563 22.2169ZM26.3563 25.6107C25.3935 29.7267 23.0827 33.4575 20.0258 36.3219C19.5444 36.9236 18.5335 37.381 18.7501 38.2956C18.7742 42.5801 18.7501 46.8405 18.7501 51.1249C20.5554 52.1118 22.5773 52.7858 24.6714 52.8339C27.3913 52.858 30.1352 52.8339 32.8552 52.8339C33.9865 52.8339 35.1418 52.521 36.0805 51.8952C37.597 50.9083 38.4153 49.1993 39.0171 47.5626C40.0521 44.6742 39.4985 41.5451 39.5226 38.5604C39.6188 37.4772 38.7523 36.3941 37.6451 36.3219C34.7567 36.2497 31.8924 36.346 29.004 36.2978C28.3541 36.2737 27.8486 35.5757 28.0412 34.974C28.6429 32.7836 29.3409 30.6414 29.9668 28.4751C30.4963 26.6457 29.1965 24.5276 27.295 24.2628C26.5729 24.2628 26.5007 25.0812 26.3563 25.6107ZM13.19 36.2978C12.7086 36.5385 12.4919 37.0921 12.5401 37.5976C12.5401 42.2431 12.5401 46.8886 12.5401 51.5582C12.516 52.1359 12.9733 52.6895 13.551 52.7617C14.2009 52.8098 14.8508 52.8098 15.5007 52.7617C16.1746 52.6895 16.5838 51.9674 16.5116 51.3175C16.5116 46.7442 16.5116 42.1709 16.5116 37.5976C16.5838 36.9718 16.1746 36.2978 15.5007 36.2015C14.7545 36.1534 13.9361 36.033 13.19 36.2978Z" fill="#4DF189"/>
</g>
<defs>
<clipPath id="clip0_614_2868">
<rect width="55.0481" height="55" fill="white"/>
</clipPath>
</defs>
</svg>
