<svg width="80" height="80" viewBox="0 0 80 80" fill="none" xmlns="http://www.w3.org/2000/svg">
<path d="M30 38.75H75C75.663 38.75 76.2989 39.0134 76.7678 39.4822C77.2366 39.9511 77.5 40.587 77.5 41.25V72.5C77.5 73.8261 76.9732 75.0979 76.0355 76.0355C75.0979 76.9732 73.8261 77.5 72.5 77.5H7.5C6.17392 77.5 4.90215 76.9732 3.96447 76.0355C3.02678 75.0979 2.5 73.8261 2.5 72.5V27.5C2.5 26.837 2.76339 26.2011 3.23223 25.7322C3.70107 25.2634 4.33696 25 5 25H15.215C15.878 25.0001 16.5138 25.2636 16.9825 25.7325L30 38.75Z" fill="#FFF7D6"/>
<path d="M70 15V67.5H25V2.5H57.5L70 15Z" fill="#E2E7F6"/>
<path d="M65 60.5875V10L57.5 2.5H25V63.0875H62.5C63.163 63.0875 63.7989 62.8241 64.2678 62.3553C64.7366 61.8864 65 61.2505 65 60.5875Z" fill="#F2F2F2"/>
<path d="M57.5 2.5V15H70" fill="#C8CDED"/>
<path d="M47.5 57.5C57.165 57.5 65 49.665 65 40C65 30.335 57.165 22.5 47.5 22.5C37.835 22.5 30 30.335 30 40C30 49.665 37.835 57.5 47.5 57.5Z" fill="#22C65E"/>
<path d="M62.4998 38.75C62.4995 35.7298 61.7162 32.7613 60.2265 30.1341C58.7367 27.507 56.5914 25.3108 53.9998 23.76C49.9162 22.114 45.362 22.0692 41.2468 23.6345C37.1316 25.1998 33.7584 28.26 31.801 32.2038C29.8436 36.1476 29.4461 40.6847 30.6879 44.9088C31.9298 49.1329 34.7195 52.733 38.4998 54.99C41.1543 56.0575 44.0302 56.457 46.8751 56.1535C49.7201 55.85 52.447 54.8528 54.8165 53.2494C57.1861 51.646 59.1258 49.4854 60.4655 46.9574C61.8051 44.4293 62.5036 41.6111 62.4998 38.75Z" fill="#4DF189"/>
<path d="M38.75 43.75L47.5 52.5L56.25 43.75H51.25V27.5H43.75V43.75H38.75Z" fill="#F2F2F2"/>
<path d="M6.25 71.25H23.75V73.75H6.25V71.25Z" fill="#D5883E"/>
<path d="M26.25 71.25H28.75V73.75H26.25V71.25Z" fill="#D5883E"/>
<path d="M33.75 8.75H46.25V11.25H33.75V8.75Z" fill="#C8CDED"/>
<path d="M48.75 8.75H53.75V11.25H48.75V8.75Z" fill="#C8CDED"/>
<path d="M28.75 13.75H53.75V16.25H28.75V13.75Z" fill="#C8CDED"/>
<path d="M75 37.5H71.25V15C71.2499 14.6685 71.1182 14.3506 70.8838 14.1163L58.3838 1.61625C58.1494 1.38181 57.8315 1.25007 57.5 1.25H25C24.6685 1.25 24.3505 1.3817 24.1161 1.61612C23.8817 1.85054 23.75 2.16848 23.75 2.5V30.7325L17.8663 24.8487C17.5189 24.4991 17.1055 24.222 16.6502 24.0334C16.1949 23.8447 15.7066 23.7484 15.2137 23.75H5C4.00544 23.75 3.05161 24.1451 2.34835 24.8483C1.64509 25.5516 1.25 26.5054 1.25 27.5V72.5C1.25198 74.157 1.9111 75.7456 3.08277 76.9172C4.25445 78.0889 5.84301 78.748 7.5 78.75H72.5C74.157 78.748 75.7456 78.0889 76.9172 76.9172C78.0889 75.7456 78.748 74.157 78.75 72.5V41.25C78.75 40.2554 78.3549 39.3016 77.6516 38.5984C76.9484 37.8951 75.9946 37.5 75 37.5ZM58.75 5.5175L66.9825 13.75H58.75V5.5175ZM26.25 3.75H56.25V15C56.25 15.3315 56.3817 15.6495 56.6161 15.8839C56.8505 16.1183 57.1685 16.25 57.5 16.25H68.75V66.25H26.25V3.75ZM76.25 72.5C76.25 73.4946 75.8549 74.4484 75.1516 75.1516C74.4484 75.8549 73.4946 76.25 72.5 76.25H7.5C6.50544 76.25 5.55161 75.8549 4.84835 75.1516C4.14509 74.4484 3.75 73.4946 3.75 72.5V27.5C3.75 27.1685 3.8817 26.8505 4.11612 26.6161C4.35054 26.3817 4.66848 26.25 5 26.25H15.2137C15.3781 26.2499 15.5409 26.2822 15.6927 26.345C15.8446 26.4078 15.9826 26.5 16.0987 26.6162L23.75 34.2675V67.5C23.75 67.8315 23.8817 68.1495 24.1161 68.3839C24.3505 68.6183 24.6685 68.75 25 68.75H70C70.3315 68.75 70.6495 68.6183 70.8839 68.3839C71.1183 68.1495 71.25 67.8315 71.25 67.5V40H75C75.3315 40 75.6495 40.1317 75.8839 40.3661C76.1183 40.6005 76.25 40.9185 76.25 41.25V72.5Z" fill="#1C2436"/>
<path d="M47.5 21.25C43.7916 21.25 40.1665 22.3497 37.0831 24.4099C33.9996 26.4702 31.5964 29.3986 30.1773 32.8247C28.7581 36.2508 28.3868 40.0208 29.1103 43.6579C29.8338 47.2951 31.6195 50.636 34.2418 53.2582C36.864 55.8805 40.2049 57.6662 43.8421 58.3897C47.4792 59.1132 51.2492 58.7419 54.6753 57.3227C58.1014 55.9036 61.0298 53.5004 63.0901 50.4169C65.1503 47.3335 66.25 43.7084 66.25 40C66.2444 35.0289 64.2671 30.263 60.752 26.748C57.237 23.2329 52.4711 21.2556 47.5 21.25ZM47.5 56.25C44.2861 56.25 41.1443 55.297 38.472 53.5114C35.7997 51.7258 33.7169 49.1879 32.487 46.2186C31.257 43.2493 30.9352 39.982 31.5622 36.8298C32.1893 33.6776 33.7369 30.7821 36.0095 28.5095C38.2821 26.2369 41.1776 24.6892 44.3298 24.0622C47.482 23.4352 50.7493 23.757 53.7186 24.987C56.6879 26.2169 59.2258 28.2997 61.0114 30.972C62.797 33.6443 63.75 36.7861 63.75 40C63.745 44.3082 62.0314 48.4386 58.985 51.485C55.9386 54.5314 51.8083 56.245 47.5 56.25Z" fill="#1C2436"/>
<path d="M56.2502 42.5H52.5002V27.5C52.5002 27.1685 52.3685 26.8505 52.1341 26.6161C51.8997 26.3817 51.5817 26.25 51.2502 26.25H43.7502C43.4187 26.25 43.1008 26.3817 42.8663 26.6161C42.6319 26.8505 42.5002 27.1685 42.5002 27.5V42.5H38.7502C38.503 42.5001 38.2614 42.5734 38.0559 42.7107C37.8504 42.8481 37.6902 43.0433 37.5956 43.2717C37.501 43.5001 37.4763 43.7513 37.5245 43.9938C37.5727 44.2362 37.6917 44.4589 37.8665 44.6338L46.6165 53.3838C46.8509 53.6181 47.1688 53.7497 47.5002 53.7497C47.8317 53.7497 48.1496 53.6181 48.384 53.3838L57.134 44.6338C57.3087 44.4589 57.4277 44.2362 57.476 43.9938C57.5242 43.7513 57.4994 43.5001 57.4048 43.2717C57.3102 43.0433 57.1501 42.8481 56.9445 42.7107C56.739 42.5734 56.4974 42.5001 56.2502 42.5ZM47.5002 50.7325L41.7677 45H43.7502C44.0817 45 44.3997 44.8683 44.6341 44.6339C44.8685 44.3995 45.0002 44.0815 45.0002 43.75V28.75H50.0002V43.75C50.0002 44.0815 50.1319 44.3995 50.3663 44.6339C50.6008 44.8683 50.9187 45 51.2502 45H53.2327L47.5002 50.7325Z" fill="#1C2436"/>
<path d="M6.25 71.25H23.75V73.75H6.25V71.25Z" fill="#1C2436"/>
<path d="M26.25 71.25H28.75V73.75H26.25V71.25Z" fill="#1C2436"/>
<path d="M33.75 8.75H46.25V11.25H33.75V8.75Z" fill="#1C2436"/>
<path d="M48.75 8.75H53.75V11.25H48.75V8.75Z" fill="#1C2436"/>
<path d="M28.75 13.75H53.75V16.25H28.75V13.75Z" fill="#1C2436"/>
</svg>
