<svg width="61" height="60" viewBox="0 0 61 60" fill="none" xmlns="http://www.w3.org/2000/svg">
<g clip-path="url(#clip0_376_2613)">
<path d="M13.1129 0.302425C14.1048 -0.0725752 15.1694 0.0121022 16.2097 0.0121022C17.6492 0.024199 19.0766 0.677425 20.0202 1.76613C20.9637 2.83065 21.4234 4.29436 21.2661 5.70968C21.1936 6.42339 20.9274 7.07662 20.7097 7.75404C23.1653 7.75404 25.621 7.75404 28.0766 7.75404C28.7903 7.74194 29.4798 8.04436 30.0121 8.50404C30.5444 8.04436 31.2339 7.75404 31.9476 7.75404C33.7621 7.75404 35.5645 7.75404 37.379 7.75404C37.0766 6.85888 36.7258 5.93952 36.7984 4.97178C36.8468 2.90323 38.2742 0.967747 40.2339 0.314522C41.2137 -0.0604784 42.2903 0.024199 43.3306 0.024199C44.7702 0.0362957 46.1976 0.689522 47.1411 1.77823C48.0847 2.84275 48.5444 4.30646 48.3871 5.70968C48.3145 6.42339 48.0484 7.08871 47.8306 7.75404C50.2863 7.75404 52.7419 7.75404 55.2097 7.75404C56.7097 7.71775 58.0766 9.03629 58.1008 10.5363C58.1129 13.621 58.1008 16.6936 58.1008 19.7782C58.1008 20.25 57.6411 20.5766 57.1936 20.4315C55.8266 19.9597 54.4718 19.3911 53.0081 19.379C51.9798 19.3427 50.9758 19.996 50.5766 20.9395C50.2379 21.6653 50.3831 22.4758 50.3468 23.25C50.3831 23.9879 50.2379 24.7742 50.5403 25.4758C50.8911 26.3831 51.7863 27.0363 52.754 27.1089C53.5403 27.1452 54.3387 27.0121 55.1008 26.7702C55.8024 26.5403 56.4919 26.3105 57.1936 26.0807C57.6411 25.9355 58.0887 26.2621 58.0887 26.7339C58.0887 31.5968 58.0887 36.4597 58.0887 41.3226C58.0887 41.5403 58.1855 41.746 58.3669 41.8669C58.8871 42.254 59.4073 42.629 59.9274 43.004C60.2782 43.2581 60.3024 43.7903 59.9758 44.0686C54.8952 48.4718 49.8024 52.8871 44.7218 57.2903C44.2742 57.6774 43.5847 57.3629 43.5847 56.7702C43.5847 54.8589 43.5847 52.9476 43.5847 51.0242C43.5847 50.6492 43.2823 50.3347 42.8952 50.3347C37.0282 50.3347 31.1734 50.3347 25.3065 50.3347C24.5565 50.25 24 51.1936 24.4355 51.8105C24.7379 52.1613 25.0645 52.4879 25.4032 52.8145C25.6694 53.0807 25.6815 53.5161 25.4153 53.7823C23.9274 55.2944 22.4153 56.7944 20.9032 58.2944C20.6371 58.5605 20.2016 58.5605 19.9355 58.2944C19.621 57.9798 19.3185 57.6653 18.9919 57.375C18.4839 56.9274 17.5766 57.2782 17.4677 57.9436C17.4315 58.4032 17.4435 58.8629 17.4435 59.3226C17.4435 59.6976 17.1411 60.0121 16.754 60.0121C14.625 60.0121 12.5081 60.0121 10.379 60.0121C10.004 60.0121 9.68952 59.6976 9.68952 59.3226C9.68952 58.8992 9.68952 58.4879 9.67742 58.0645C9.66532 57.4839 9.03629 57.0484 8.47984 57.1936C8.17742 57.2661 7.97177 57.5081 7.76613 57.7137C7.57258 57.9073 7.39113 58.1008 7.19758 58.2944C6.93145 58.5605 6.49597 58.5605 6.22984 58.2944C4.71774 56.7823 3.21774 55.2823 1.71774 53.7823C1.45161 53.5161 1.45161 53.0807 1.71774 52.8145C2.03226 52.5121 2.33468 52.1976 2.6371 51.8831C3.08468 51.375 2.74597 50.4677 2.08065 50.3589C1.62097 50.3226 1.16129 50.3347 0.689516 50.3347C0.314516 50.3347 0 50.0323 0 49.6452C0 47.5161 0 45.3992 0 43.2702C0 42.8952 0.314516 42.5806 0.689516 42.5806C1.1129 42.5806 1.53629 42.5806 1.94758 42.5686C2.52823 42.5565 2.95161 41.9153 2.80645 41.371C2.74597 41.1048 2.52823 40.9113 2.34677 40.7177C2.14113 40.5121 1.92339 40.2944 1.71774 40.0887C1.45161 39.8226 1.45161 39.3871 1.71774 39.121L1.72984 39.1089C1.8629 38.9758 1.93548 38.8065 1.93548 38.625C1.94758 29.2984 1.93548 19.9718 1.93548 10.6452C1.89919 9.14517 3.20565 7.76613 4.71774 7.75404C6.56855 7.74194 8.41936 7.75404 10.2702 7.74194C9.96774 6.84678 9.61694 5.92742 9.68952 4.95968C9.72581 2.90323 11.1532 0.955651 13.1129 0.302425ZM12.2177 3.27823C11.6129 4.08872 11.4556 5.20162 11.7823 6.15726C12.0726 7.02823 12.3629 7.91129 12.6532 8.78226C12.7984 9.22984 12.4718 9.67742 12 9.67742C9.60484 9.67742 7.20968 9.67742 4.82661 9.67742C4.25806 9.66533 3.81048 10.2097 3.87097 10.7661C3.87097 18.9556 3.87097 27.1331 3.87097 35.3226C3.87097 35.9274 4.60887 36.2419 5.04435 35.8065C5.44355 35.4073 5.83065 35.0202 6.22984 34.621C6.49597 34.3548 6.93145 34.3548 7.19758 34.621C7.5 34.9355 7.81452 35.25 8.12903 35.5403C8.6371 35.9879 9.54436 35.6371 9.65323 34.9718C9.68952 34.5121 9.67742 34.0524 9.67742 33.5927C9.67742 33.2177 9.97984 32.9032 10.3669 32.9032H16.7419C17.1169 32.9032 17.4315 33.2177 17.4315 33.5927C17.4315 34.0524 17.4194 34.5121 17.4556 34.9718C17.5645 35.6371 18.4597 35.9758 18.9798 35.5403C19.3065 35.2379 19.621 34.9234 19.9234 34.621C20.1895 34.3548 20.625 34.3548 20.8911 34.621C22.1855 35.9153 23.4798 37.2097 24.7742 38.5161C24.9073 38.6492 25.0766 38.7218 25.2581 38.7218C26.2863 38.7218 27.3266 38.7218 28.3548 38.7218C28.7298 38.7218 29.0444 38.4194 29.0444 38.0323C29.0444 34.2581 29.0444 30.4839 29.0444 26.7097C29.0444 26.2379 29.504 25.9113 29.9395 26.0565C30.0847 26.1048 30.2298 26.1532 30.3871 26.2016C31.5726 26.5766 32.746 27.0847 34.004 27.0968C35.0927 27.1694 36.1815 26.4919 36.5806 25.4758C36.8347 24.8831 36.7621 24.2177 36.7742 23.5887C36.7621 22.9839 36.7863 22.379 36.7621 21.7621C36.7016 20.6976 35.8911 19.7298 34.8629 19.4516C34.0282 19.246 33.1452 19.4032 32.3226 19.6089C31.5242 19.8508 30.7258 20.129 29.9274 20.3952C29.4798 20.5403 29.0202 20.2137 29.0202 19.7419C29.0202 16.7057 29.0202 13.6573 29.0202 10.621C29.0323 10.1129 28.5847 9.66533 28.0766 9.67742C25.0403 9.66533 21.9919 9.67742 18.9556 9.67742C18.4839 9.67742 18.1573 9.21775 18.3024 8.77017C18.6169 7.82662 18.9315 6.89517 19.2339 5.95162C19.6452 4.5363 18.8952 2.90323 17.5645 2.2742C16.7298 1.82662 15.7621 1.95968 14.8548 1.93549C13.8387 1.9113 12.8105 2.43146 12.2177 3.27823ZM40.5726 2.22581C39.1936 2.83065 38.3952 4.48791 38.8186 5.93952C39.121 6.88307 39.4355 7.82662 39.75 8.77017C39.8952 9.21775 39.5686 9.67742 39.0968 9.67742C36.7016 9.67742 34.3064 9.67742 31.9113 9.67742C31.4032 9.66533 30.9435 10.125 30.9556 10.621C30.9435 12.7742 30.9556 14.9274 30.9556 17.0807C30.9556 17.5282 31.379 17.8548 31.8145 17.7339C32.9758 17.4194 34.1855 17.2742 35.3589 17.5766C36.871 17.9879 38.129 19.2339 38.5282 20.746C38.7581 21.5444 38.6855 22.3911 38.6976 23.2137C38.6855 24.0968 38.7702 25.0161 38.4677 25.8629C37.9718 27.4355 36.5565 28.6694 34.9234 28.9476C33.8831 29.1048 32.8186 28.9718 31.8145 28.6936C31.379 28.5726 30.9556 28.8992 30.9556 29.3468V38.0081C30.9556 38.3831 31.2581 38.6976 31.6452 38.6976H42.8589C43.2339 38.6976 43.5484 38.3952 43.5484 38.0081C43.5484 36.1089 43.5484 34.2218 43.5484 32.3226C43.5484 31.7661 44.1895 31.4395 44.6371 31.7661C48.1089 34.3065 51.5686 36.8589 55.0403 39.3992C55.4879 39.7258 56.129 39.4113 56.129 38.8427V29.3468C56.129 28.8992 55.7056 28.5726 55.2702 28.6815C54.1694 28.9839 53.0202 29.1169 51.8952 28.8871C50.3105 28.5242 48.9798 27.254 48.5565 25.6815C48.3266 24.8831 48.3992 24.0363 48.3871 23.2137C48.3992 22.3548 48.3145 21.4839 48.5806 20.6492C49.0524 18.9919 50.5524 17.6976 52.2581 17.4557C53.2742 17.3226 54.2903 17.4557 55.2702 17.7218C55.7056 17.8427 56.129 17.504 56.129 17.0565C56.129 14.9032 56.129 12.75 56.129 10.6089C56.1411 10.1008 55.6815 9.65323 55.1734 9.66533C52.1371 9.65323 49.1008 9.66533 46.0645 9.66533C45.5927 9.66533 45.2661 9.20565 45.4113 8.75807C45.7258 7.81452 46.0524 6.88307 46.3427 5.93952C46.754 4.5121 46.004 2.87904 44.6613 2.25001C43.875 1.82662 42.9556 1.93549 42.0968 1.92339C41.5766 1.92339 41.0565 2.00807 40.5726 2.22581ZM12.2177 34.8387C11.8911 34.8387 11.6129 35.0686 11.5524 35.3831C11.3468 36.3145 10.6694 37.1371 9.7621 37.4637C8.90323 37.8145 7.91129 37.6936 7.1371 37.1976C6.85887 37.0282 6.50806 37.0524 6.27823 37.2823C5.64919 37.9113 5.02016 38.5403 4.39113 39.1694C4.16129 39.3992 4.1371 39.75 4.30645 40.0282C4.80242 40.8024 4.92339 41.8065 4.56048 42.6532C4.23387 43.5605 3.41129 44.2258 2.47984 44.4315C2.16532 44.504 1.93548 44.7702 1.93548 45.0968C1.93548 45.9798 1.93548 46.8629 1.93548 47.7581C1.93548 48.0847 2.16532 48.3629 2.47984 48.4234C3.41129 48.629 4.22177 49.2944 4.56048 50.2016C4.92339 51.0605 4.80242 52.0645 4.30645 52.8387C4.1371 53.1169 4.16129 53.4677 4.39113 53.6976C5.02016 54.3266 5.64919 54.9556 6.27823 55.5847C6.50806 55.8145 6.87097 55.8387 7.1371 55.6694C7.93548 55.1613 8.97581 55.0524 9.84678 55.4516C10.7177 55.8024 11.3468 56.6008 11.5403 57.496C11.6129 57.8105 11.879 58.0403 12.2056 58.0403C13.0887 58.0403 13.9839 58.0403 14.8669 58.0403C15.1935 58.0403 15.4718 57.8105 15.5323 57.496C15.7379 56.5645 16.4153 55.754 17.3105 55.4153C18.1694 55.0524 19.1734 55.1734 19.9476 55.6694C20.2258 55.8387 20.5766 55.8145 20.8065 55.5847C21.4355 54.9556 22.0645 54.3266 22.6936 53.6976C22.9234 53.4677 22.9476 53.1169 22.7782 52.8387C22.2823 52.0645 22.1613 51.0605 22.5242 50.2016C22.8629 49.3065 23.6734 48.629 24.6048 48.4234C24.9194 48.3508 25.1492 48.0847 25.1492 47.7581C25.1492 46.875 25.1492 45.9919 25.1492 45.0968C25.1492 44.7702 24.9194 44.504 24.6048 44.4315C23.6734 44.2258 22.8508 43.5484 22.5242 42.6532C22.1734 41.8065 22.2823 40.8024 22.7782 40.0282C22.9597 39.7621 22.9355 39.3992 22.7056 39.1694C22.0766 38.5282 21.4476 37.8992 20.8065 37.2702C20.5766 37.0403 20.2258 37.0161 19.9476 37.1855C19.1734 37.6815 18.1694 37.8024 17.3226 37.4395C16.4153 37.1008 15.75 36.2903 15.5444 35.3589C15.4718 35.0444 15.2056 34.8145 14.879 34.8145C13.996 34.8387 13.1008 34.8387 12.2177 34.8387ZM45.4839 36.1694C45.4839 37.4395 45.4839 38.6976 45.4839 39.9677C45.4839 40.3427 45.1814 40.6573 44.7944 40.6573C38.2258 40.6573 31.6694 40.6573 25.1008 40.6573C24.9194 40.6573 24.7379 40.7298 24.6169 40.8629C24.4718 41.0081 24.3266 41.1774 24.2782 41.3831C24.1331 41.9274 24.5565 42.5686 25.1371 42.5806C25.5605 42.5927 25.9718 42.5927 26.3952 42.5927C26.7702 42.5927 27.0847 42.8952 27.0847 43.2823C27.0847 44.7581 27.0847 46.246 27.0847 47.7218C27.0847 48.0968 27.3871 48.4113 27.7742 48.4113C33.4476 48.4113 39.121 48.4113 44.7944 48.4113C45.1694 48.4113 45.4839 48.7137 45.4839 49.1008C45.4839 50.25 45.4839 51.3992 45.4839 52.5363C45.4839 53.1169 46.1734 53.4315 46.621 53.0565C50.0323 50.1048 53.4315 47.1532 56.8427 44.2016C57.1694 43.9113 57.1573 43.3911 56.7944 43.1371C53.3952 40.6331 49.9839 38.1411 46.5726 35.6371C46.125 35.2863 45.4839 35.6008 45.4839 36.1694Z" fill="#1C2436"/>
<path d="M8.04385 19.4396C8.91482 19.234 9.89466 19.4517 10.5721 20.0445C11.189 20.5525 11.5761 21.3388 11.6003 22.1372C11.6487 23.0203 11.2495 23.9154 10.56 24.484C9.91885 25.0283 9.02369 25.2703 8.20111 25.1251C7.26966 24.9679 6.44708 24.3267 6.05998 23.4679C5.70917 22.7179 5.70917 21.8227 6.05998 21.0727C6.42288 20.2501 7.18498 19.6332 8.04385 19.4396ZM8.38256 21.3509C7.70514 21.5566 7.52369 22.5606 8.08014 22.9961C8.58821 23.4679 9.50756 23.1654 9.64062 22.5001C9.85837 21.7864 9.07208 21.0606 8.38256 21.3509Z" fill="#1C2436"/>
<path d="M15.786 19.4396C16.669 19.234 17.6368 19.4517 18.3142 20.0445C18.9311 20.5525 19.3182 21.3388 19.3545 22.1372C19.4029 23.0203 19.0037 23.9154 18.3263 24.484C17.7093 25.0042 16.8747 25.2461 16.0763 25.1372C15.1327 25.0162 14.2739 24.3993 13.8505 23.5525C13.4634 22.7783 13.4513 21.8469 13.8142 21.0606C14.1771 20.2501 14.9271 19.6332 15.786 19.4396ZM16.1247 21.3509C15.4351 21.5566 15.2537 22.5727 15.8343 23.0082C16.3424 23.4679 17.2497 23.1654 17.3827 22.5001C17.6005 21.7864 16.8142 21.0727 16.1247 21.3509Z" fill="#1C2436"/>
<path d="M23.5281 19.4396C24.399 19.234 25.3789 19.4517 26.0563 20.0445C26.6732 20.5646 27.0603 21.3388 27.0845 22.1372C27.1329 23.0203 26.7337 23.9154 26.0442 24.484C25.4273 25.0042 24.5926 25.2461 23.7942 25.1372C22.8506 25.0162 21.9918 24.3993 21.5805 23.5404C21.2055 22.7783 21.1813 21.8469 21.5442 21.0606C21.9071 20.2622 22.6571 19.6332 23.5281 19.4396ZM23.8789 21.3509C23.1893 21.5566 23.0079 22.5606 23.5764 22.9961C24.0845 23.4679 25.0039 23.1654 25.1369 22.488C25.3426 21.7864 24.5563 21.0727 23.8789 21.3509Z" fill="#1C2436"/>
<path d="M12.3847 38.7944C14.1145 38.5283 15.929 38.867 17.4411 39.7621C18.9774 40.6694 20.1992 42.1089 20.8161 43.7904C21.4089 45.3992 21.4452 47.2138 20.9129 48.8468C20.296 50.7823 18.8686 52.4275 17.0661 53.3468C15.4089 54.2057 13.425 54.4234 11.6226 53.9517C9.67501 53.4557 7.94517 52.1492 6.91695 50.4315C5.90082 48.7742 5.5742 46.7299 5.98549 44.8307C6.60243 41.7581 9.27582 39.2299 12.3847 38.7944ZM12.5178 40.742C10.2436 41.1291 8.32017 42.992 7.87259 45.2541C7.4492 47.2017 8.11453 49.3307 9.57824 50.6855C10.7879 51.8347 12.5057 52.4154 14.1629 52.2339C15.8444 52.0646 17.429 51.1089 18.3605 49.7057C19.2315 48.4234 19.5581 46.7783 19.2315 45.2662C18.9169 43.7178 17.925 42.3267 16.5702 41.5162C15.3726 40.7662 13.8968 40.4879 12.5178 40.742Z" fill="#1C2436"/>
<path d="M13.0898 42.6169C14.989 42.3508 16.9244 43.7177 17.3115 45.5927C17.8075 47.5161 16.5373 49.6572 14.614 50.1774C12.8236 50.7459 10.743 49.7661 10.0051 48.0363C9.24299 46.4274 9.79944 44.3588 11.2632 43.3306C11.8075 42.9435 12.4365 42.6895 13.0898 42.6169ZM13.2107 44.5524C12.2672 44.7096 11.5293 45.6411 11.614 46.5967C11.6623 47.625 12.6422 48.4838 13.6704 48.3871C14.6986 48.3387 15.5696 47.3588 15.4728 46.3306C15.4365 45.2177 14.2994 44.3225 13.2107 44.5524Z" fill="#1C2436"/>
<path d="M12.2193 3.27834C12.8121 2.43156 13.8403 1.9114 14.8806 1.94769C15.7879 1.95979 16.7556 1.83882 17.5903 2.2864C18.9209 2.92753 19.6588 4.5485 19.2596 5.96382C18.9693 6.87108 18.6669 7.77834 18.3645 8.6856C18.1951 9.18156 18.5701 9.68963 19.0903 9.68963C22.0903 9.68963 25.1024 9.68963 28.1024 9.68963C28.6105 9.67753 29.058 10.1372 29.0459 10.6332C29.058 13.6332 29.0459 16.6453 29.0459 19.6453C29.0459 20.1654 29.554 20.5283 30.05 20.3711C30.8121 20.117 31.5742 19.8509 32.3363 19.6211C33.1588 19.4033 34.0419 19.2582 34.8766 19.4638C35.9048 19.742 36.7153 20.7098 36.7758 21.7743C36.8 22.3791 36.7758 22.984 36.7879 23.6009C36.7758 24.23 36.8484 24.8953 36.5943 25.488C36.1709 26.492 35.0822 27.1695 33.9935 27.0969C32.7234 27.0969 31.5621 26.5767 30.3766 26.2017C30.2919 26.1654 30.2072 26.1412 30.1105 26.105C29.5782 25.9235 29.0338 26.3106 29.0338 26.8791C29.0338 30.8227 29.0338 34.7662 29.0338 38.7098C27.679 38.7098 26.3242 38.7098 24.9693 38.7098C23.675 37.4154 22.3806 36.1211 21.0863 34.8146C20.7113 34.4396 20.0943 34.4396 19.7193 34.8146C19.4774 35.0566 19.2234 35.3106 18.9693 35.5404C18.4492 35.9759 17.554 35.6372 17.4451 34.9719C17.4209 34.609 17.4209 34.2461 17.4209 33.8711C17.4209 33.3388 16.9975 32.8912 16.4532 32.8912H10.6467C10.1145 32.8912 9.679 33.3267 9.679 33.8711C9.679 34.234 9.679 34.5969 9.65481 34.9719C9.54594 35.6372 8.63868 35.9759 8.13061 35.5404C7.87658 35.3106 7.63465 35.0687 7.39271 34.8267C7.01771 34.4396 6.40077 34.4396 6.02577 34.8267C5.31206 35.5404 4.59836 36.2662 3.87255 36.98C3.87255 28.2461 3.87255 19.5122 3.87255 10.7783C3.81206 10.2219 4.27174 9.67753 4.82819 9.68963C7.10239 9.67753 9.37658 9.68963 11.6508 9.68963C12.2919 9.68963 12.7516 9.0606 12.5459 8.45576C12.2919 7.69366 12.0379 6.93156 11.7838 6.16947C11.4572 5.20172 11.6145 4.08882 12.2193 3.27834ZM8.04594 19.4396C7.18706 19.6332 6.42497 20.2622 6.06206 21.0727C5.71126 21.8227 5.72335 22.7179 6.06206 23.4679C6.44916 24.3267 7.27174 24.9679 8.20319 25.1251C9.03787 25.2703 9.92094 25.0404 10.5621 24.484C11.2395 23.9154 11.6387 23.0203 11.6024 22.1372C11.5661 21.3388 11.1911 20.5525 10.5742 20.0445C9.89674 19.4517 8.929 19.2219 8.04594 19.4396ZM15.7879 19.4396C14.929 19.6453 14.179 20.2622 13.8161 21.0606C13.4532 21.8348 13.4653 22.7783 13.8524 23.5525C14.2758 24.4114 15.1346 25.0283 16.0782 25.1372C16.8766 25.2461 17.7113 25.0041 18.3282 24.484C19.0056 23.9154 19.4048 23.0203 19.3564 22.1372C19.3201 21.3388 18.9451 20.5525 18.3161 20.0445C17.6266 19.4517 16.6588 19.2219 15.7879 19.4396ZM23.5298 19.4396C22.6709 19.6453 21.9088 20.2622 21.558 21.0727C21.2072 21.8469 21.2193 22.7783 21.5943 23.5525C22.0056 24.4114 22.8645 25.0283 23.808 25.1493C24.6064 25.2582 25.4411 25.0162 26.058 24.4961C26.7475 23.9275 27.1346 23.0324 27.0984 22.1493C27.0621 21.3509 26.6871 20.5646 26.0701 20.0566C25.3806 19.4517 24.4008 19.2219 23.5298 19.4396Z" fill="#4DF189"/>
<path d="M40.5736 2.22588C41.0454 1.99605 41.5776 1.92346 42.0978 1.93556C42.9567 1.94766 43.876 1.83879 44.6623 2.26217C46.005 2.89121 46.755 4.52427 46.3438 5.95169C46.0655 6.82266 45.7752 7.69363 45.4728 8.57669C45.2913 9.12105 45.6905 9.6775 46.2712 9.6775C49.2349 9.6775 52.1986 9.6775 55.1744 9.6775C55.6825 9.6654 56.13 10.1251 56.13 10.621C56.1421 13.0767 56.13 15.5444 56.13 18.0001C54.8962 17.5646 53.5655 17.2985 52.2591 17.4678C50.5534 17.7098 49.0655 19.0041 48.5817 20.6614C48.3155 21.496 48.4002 22.367 48.3881 23.2259C48.4002 24.0485 48.3155 24.8952 48.5575 25.6936C48.9808 27.2662 50.3115 28.5364 51.8962 28.8993C53.3115 29.2017 54.7873 28.8993 56.13 28.4275V40.2098C52.3921 37.4759 48.6542 34.7299 44.9163 31.9839C44.3478 31.5727 43.5494 31.9719 43.5494 32.6735C43.5494 34.6815 43.5494 36.6896 43.5494 38.6977H30.9688V28.4275C32.2389 28.863 33.6058 29.1533 34.9486 28.9477C36.5817 28.6815 37.997 27.4477 38.4929 25.863C38.7833 25.0041 38.7107 24.0969 38.7228 23.2138C38.7107 22.3912 38.7833 21.5444 38.5534 20.746C38.1542 19.2339 36.8962 17.9759 35.3841 17.5767C33.9204 17.2017 32.3841 17.5162 30.9808 18.0001C30.9808 15.5444 30.9808 13.0767 30.9808 10.621C30.9688 10.113 31.4284 9.6654 31.9365 9.6775C34.1502 9.6654 36.3518 9.6775 38.5655 9.6775C39.3034 9.6775 39.8236 8.95169 39.5937 8.25008C39.3397 7.47588 39.0736 6.71379 38.8317 5.93959C38.3962 4.50008 39.1946 2.83072 40.5736 2.22588Z" fill="#4DF189"/>
<path d="M45.4838 34.8145C49.4878 37.754 53.4798 40.6814 57.4717 43.6088C53.4798 47.0806 49.4757 50.5403 45.4838 53.9999C45.4838 52.4999 45.4838 50.9999 45.4838 49.4999C45.4838 48.883 44.9878 48.3749 44.3588 48.3749C38.6007 48.3749 32.8427 48.3749 27.0967 48.3749C27.0967 46.7298 27.0967 45.0846 27.0967 43.4395C27.0967 42.9556 26.6975 42.5685 26.2136 42.5685C25.8507 42.5685 25.4999 42.5685 25.1491 42.5564C24.5685 42.5443 24.133 41.9032 24.2902 41.3588C24.3628 41.0564 24.6289 40.8507 24.8346 40.633C30.9314 40.633 37.0402 40.633 43.137 40.633C44.4314 40.633 45.4838 39.5806 45.4838 38.2862C45.4838 37.137 45.4838 35.9757 45.4838 34.8145Z" fill="#FFEFEB"/>
<path d="M8.38148 21.3508C9.071 21.0605 9.85728 21.7863 9.63954 22.4879C9.50648 23.1653 8.58712 23.4556 8.07906 22.9839C7.52261 22.5605 7.70406 21.5564 8.38148 21.3508Z" fill="#FFEFEB"/>
<path d="M16.1247 21.3508C16.8142 21.0605 17.6005 21.7863 17.3828 22.4879C17.2497 23.1653 16.3424 23.4556 15.8344 22.996C15.2658 22.5726 15.4352 21.5564 16.1247 21.3508Z" fill="#FFEFEB"/>
<path d="M23.8798 21.3509C24.5693 21.0727 25.3435 21.7864 25.1379 22.5001C25.0048 23.1775 24.0854 23.4678 23.5774 23.0082C22.9967 22.5606 23.1903 21.5566 23.8798 21.3509Z" fill="#FFEFEB"/>
<path d="M11.611 34.8386C12.9054 34.8386 14.1876 34.8386 15.482 34.8386C15.5062 35.9878 16.2562 37.0644 17.3328 37.4636C18.361 37.887 19.5949 37.633 20.3933 36.8709C21.3005 37.7902 22.232 38.6854 23.1271 39.6168C22.3529 40.4031 22.111 41.6491 22.5344 42.6652C22.9336 43.7418 24.0223 44.4918 25.1594 44.516C25.1594 45.7983 25.1594 47.0927 25.1594 48.3749C24.0223 48.3991 22.9336 49.137 22.5344 50.2136C22.0989 51.2418 22.365 52.4878 23.1271 53.2862C22.2199 54.2056 21.3005 55.1128 20.3933 56.0201C19.5949 55.258 18.361 54.9918 17.3328 55.4273C16.2562 55.8265 15.5062 56.9152 15.482 58.0523C14.1876 58.0523 12.9054 58.0523 11.611 58.0523C11.5868 56.9394 10.8852 55.8749 9.84488 55.4515C8.80456 54.9798 7.51021 55.2217 6.69972 56.0201C5.78037 55.1128 4.87311 54.1935 3.96585 53.2862C4.72795 52.4878 4.99408 51.2418 4.55859 50.2136C4.1594 49.137 3.07069 48.387 1.93359 48.3628C1.93359 47.0806 1.93359 45.7862 1.93359 44.4918C3.08279 44.4677 4.1594 43.7177 4.55859 42.641C4.99408 41.6128 4.72795 40.3789 3.96585 39.5806C4.87311 38.6733 5.79246 37.7539 6.69972 36.8467C7.49811 37.6088 8.73198 37.8749 9.76021 37.4394C10.8368 37.0765 11.5868 35.9878 11.611 34.8386ZM12.3852 38.7943C9.27634 39.2298 6.60295 41.7459 5.97392 44.8306C5.56263 46.7177 5.88924 48.7741 6.90537 50.4314C7.93359 52.1612 9.66343 53.4556 11.611 53.9515C13.4134 54.4233 15.3973 54.2056 17.0546 53.3467C18.857 52.4273 20.2844 50.7701 20.9013 48.8467C21.4336 47.2136 21.4094 45.4112 20.8046 43.7902C20.1997 42.1088 18.9779 40.6693 17.4296 39.762C15.9417 38.8789 14.115 38.5402 12.3852 38.7943Z" fill="#E7D6FF"/>
<path d="M12.5212 40.742C13.9003 40.488 15.3761 40.7541 16.5616 41.5041C17.9043 42.3267 18.8962 43.7057 19.2229 45.2541C19.5495 46.7662 19.235 48.4114 18.3519 49.6936C17.4083 51.0969 15.8358 52.0646 14.1543 52.2219C12.4971 52.4033 10.7793 51.8227 9.56964 50.6735C8.10593 49.3186 7.4406 47.1896 7.86399 45.242C8.32367 42.992 10.2471 41.1291 12.5212 40.742ZM13.0898 42.617C12.4366 42.6896 11.8075 42.9436 11.2753 43.3307C9.82367 44.3469 9.26722 46.4275 10.0172 48.0364C10.7551 49.7541 12.8358 50.7461 14.6261 50.1775C16.5495 49.6694 17.8075 47.5283 17.3237 45.5928C16.9245 43.7057 14.989 42.3388 13.0898 42.617Z" fill="#E7D6FF"/>
</g>
<defs>
<clipPath id="clip0_376_2613">
<rect width="60.1694" height="60" fill="white"/>
</clipPath>
</defs>
</svg>
