<svg width="25" height="30" viewBox="0 0 25 30" fill="none" xmlns="http://www.w3.org/2000/svg">
<g clip-path="url(#clip0_974_7287)">
<path d="M11.4375 0.0820312C11.0191 0.1875 10.6238 0.386719 10.2984 0.667969C9.53117 1.37109 8.81047 2.13281 8.04327 2.82422C6.60188 2.82422 5.16048 2.82422 3.70746 2.82422C3.21924 2.8125 2.77752 3.24609 2.80077 3.73828C2.80077 5.12109 2.80077 6.50391 2.80077 7.875C2.12657 8.625 1.33612 9.28125 0.638673 10.0195C0.231826 10.4883 -0.000657175 11.0977 -0.000657175 11.7187C-0.000657175 17.3437 -0.000657175 22.9688 -0.000657175 28.6055C-0.0355297 29.3555 0.638672 30.0234 1.38262 30C8.51987 30 15.6455 30 22.7827 30C23.5267 30.0234 24.2009 29.3437 24.166 28.5937C24.166 22.9687 24.166 17.3437 24.166 11.7187C24.166 11.0156 23.8638 10.3359 23.3639 9.84375C22.713 9.19922 22.0504 8.56641 21.3878 7.93359C21.3413 6.50391 21.3878 5.0625 21.3646 3.62109C21.3181 3.17578 20.9112 2.80078 20.4579 2.8125C19.0165 2.8125 17.5751 2.8125 16.1337 2.8125C15.3549 2.13281 14.6342 1.35937 13.867 0.65625C13.216 0.09375 12.2745 -0.128906 11.4375 0.0820312Z" fill="#F8FAFB"/>
<path d="M11.4368 0.0819712C12.2738 -0.128966 13.2153 0.0936899 13.8663 0.667909C14.6335 1.37103 15.3542 2.14447 16.133 2.82416C17.5744 2.82416 19.0158 2.82416 20.4572 2.82416C20.9105 2.81244 21.3174 3.18744 21.3639 3.63275C21.3871 5.06244 21.3406 6.51556 21.3871 7.94525C22.0497 8.57806 22.7123 9.2226 23.3632 9.85541C23.8631 10.3359 24.1537 11.0273 24.1653 11.7304C24.1653 17.3554 24.1653 22.9804 24.1653 28.6054C24.2002 29.3554 23.526 30.0351 22.782 30.0117C15.6448 30.0117 8.51916 30.0117 1.38192 30.0117C0.637971 30.0351 -0.0246074 29.3671 -0.00135909 28.6171C-0.00135909 22.9921 -0.00135909 17.3554 -0.00135909 11.7304C-0.00135909 11.1093 0.231124 10.4999 0.637971 10.0312C1.33542 9.29291 2.12587 8.63666 2.80007 7.88666C2.80007 6.50385 2.80007 5.12103 2.80007 3.74994C2.78844 3.25775 3.21854 2.81244 3.70675 2.83588C5.14815 2.83588 6.58955 2.83588 8.04257 2.83588C8.80977 2.13275 9.53047 1.37103 10.2977 0.667909C10.6231 0.37494 11.0184 0.175721 11.4368 0.0819712ZM10.9137 1.289C10.3674 1.78119 9.84432 2.30853 9.30961 2.82416C11.1462 2.82416 12.9945 2.82416 14.8311 2.82416C14.3778 2.37885 13.9244 1.94525 13.4711 1.51166C12.855 0.785096 11.6577 0.667909 10.9137 1.289ZM3.67188 3.70306C3.67188 7.1015 3.67188 10.4999 3.67188 13.8984C3.66026 14.3085 3.67188 14.7304 3.67188 15.1406C4.97379 16.4531 7.14751 18.5273 8.46104 19.8281C8.60053 19.9921 8.57728 20.2382 8.44942 20.4023C8.27506 20.5429 7.99608 20.6015 7.83334 20.4257C6.12458 18.7851 3.61376 16.3242 1.90501 14.6718C1.5679 14.3437 1.21918 14.0038 0.882078 13.6757C0.882078 18.3046 0.882078 22.9453 0.882078 27.5742C1.24243 27.2343 1.59115 26.8945 1.93988 26.5546V26.5429C4.09035 24.4687 6.24083 22.3945 8.37967 20.3085C9.03063 19.6992 9.64671 19.0663 10.3093 18.457C11.2741 17.6015 12.8317 17.5781 13.8198 18.3984C14.3894 18.914 14.9357 19.4648 15.4937 20.0038C17.3187 18.246 19.1437 16.4882 20.957 14.7187C21.5847 14.121 22.2124 13.5117 22.8285 12.9023C23.4446 12.2929 23.4562 11.2031 22.875 10.5703C22.4101 10.0898 21.8986 9.64447 21.4453 9.15228C21.4336 9.164 21.3988 9.17572 21.3871 9.18744C21.3988 10.3359 21.3871 11.4843 21.3871 12.6328C21.3988 12.8788 21.1779 13.0546 20.9454 13.0781C20.7129 13.0546 20.5037 12.8671 20.5153 12.621C20.5153 9.64447 20.5153 6.65619 20.5153 3.67963C14.8892 3.69135 9.27474 3.69135 3.67188 3.70306ZM1.30055 10.582C0.707716 11.2265 0.730964 12.3163 1.34705 12.9257C1.82364 13.3945 2.31185 13.8632 2.78844 14.3203C2.78844 12.5859 2.78844 10.8632 2.78844 9.14056C2.30023 9.62103 1.78876 10.0898 1.30055 10.582ZM16.1098 20.6367C18.5043 22.957 20.8989 25.2656 23.2935 27.5859C23.2935 22.957 23.2935 18.3163 23.2935 13.6874C20.8989 16.0078 18.5043 18.3163 16.1098 20.6367ZM10.7975 19.207C7.78684 22.1249 4.76455 25.0195 1.76552 27.9492H1.75389C1.47491 28.2421 1.14943 28.4999 0.893703 28.8046C0.99832 28.9804 1.17268 29.1327 1.39354 29.1093C8.51916 29.1093 15.6564 29.1093 22.782 29.1093C22.9913 29.1327 23.1656 28.9687 23.2702 28.8046C23.0494 28.5234 22.7588 28.3007 22.5147 28.0429C19.4691 25.0898 16.4236 22.1367 13.3664 19.1953C12.6806 18.5273 11.4833 18.5273 10.7975 19.207Z" fill="#1C2436"/>
<path d="M5.17164 6.74992C5.0089 6.46867 5.25301 6.08195 5.56686 6.11711C6.49679 6.11711 7.42673 6.11711 8.35666 6.11711C8.91462 6.11711 9.44933 6.50382 9.63532 7.03117C9.75156 7.33586 9.70507 7.6757 9.71669 7.9921C11.286 7.9921 12.8552 7.9921 14.4361 7.9921C14.4477 7.64054 14.4012 7.27726 14.5407 6.96086C14.7383 6.46867 15.2498 6.11711 15.7845 6.11711C16.7144 6.11711 17.656 6.11711 18.5859 6.11711C18.8998 6.09367 19.1439 6.46867 18.9812 6.74992C18.7254 7.16007 18.4464 7.55851 18.1907 7.96867C18.4581 8.37882 18.7371 8.77726 18.9928 9.19914C19.1439 9.48039 18.8882 9.84367 18.5859 9.82023C17.8071 9.82023 17.0283 9.82023 16.2379 9.82023C16.2379 10.2069 16.2727 10.6171 16.0751 10.9569C15.8543 11.4023 15.366 11.6952 14.8662 11.6952C13.0063 11.6952 11.1465 11.6952 9.28659 11.6952C8.72863 11.7069 8.19392 11.3319 7.99631 10.8046C7.86845 10.4882 7.91494 10.1484 7.90332 9.82023C7.1245 9.82023 6.34568 9.82023 5.55523 9.82023C5.253 9.84367 4.99727 9.48039 5.13676 9.19914C5.3925 8.77726 5.6831 8.37882 5.93883 7.96867C5.70635 7.54679 5.42737 7.16007 5.17164 6.74992ZM6.38055 6.98429C6.55491 7.27726 6.77577 7.53507 6.92689 7.83976C6.96176 8.27336 6.55491 8.5546 6.38055 8.91789C6.89201 8.91789 7.40348 8.91789 7.91494 8.91789C7.94981 8.64835 7.83357 8.32023 8.05443 8.10929C8.26367 7.89835 8.58914 8.01554 8.8565 7.98039C8.86812 7.62882 8.92625 7.1132 8.49615 6.99601C7.78708 6.97257 7.078 6.99601 6.38055 6.98429ZM15.3195 7.98039C15.5869 8.01554 15.9008 7.89835 16.1216 8.10929C16.3425 8.32023 16.2262 8.64835 16.2611 8.91789C16.7726 8.91789 17.284 8.91789 17.7955 8.91789C17.6211 8.63664 17.4119 8.36711 17.2608 8.07414C17.191 7.64054 17.6328 7.34757 17.7955 6.97257C17.0864 6.98429 16.389 6.94914 15.6915 6.98429C15.2382 7.12492 15.2963 7.62882 15.3195 7.98039ZM8.79838 8.87101C8.79838 9.35148 8.79838 9.83195 8.79838 10.3124C8.78676 10.5819 9.03086 10.8163 9.29822 10.8046C11.1581 10.8046 13.0296 10.8046 14.8895 10.8046C15.1452 10.8163 15.3893 10.5702 15.3777 10.3124C15.3777 9.83195 15.3777 9.35148 15.3777 8.87101C13.1807 8.85929 10.9837 8.87101 8.79838 8.87101Z" fill="#1C2436"/>
<path d="M7.79899 13.1602C10.6469 13.1484 13.5065 13.1484 16.3544 13.1602C16.8077 13.2305 16.8077 13.957 16.3544 14.0273C13.5065 14.0391 10.6585 14.0391 7.79899 14.0273C7.34565 13.957 7.34565 13.2305 7.79899 13.1602Z" fill="#1C2436"/>
<path d="M8.73935 15.5039C10.9712 15.4922 13.203 15.4922 15.4349 15.5039C15.8882 15.5742 15.8882 16.3008 15.4349 16.3711C13.203 16.3828 10.9712 16.3828 8.73935 16.3711C8.27438 16.3008 8.27438 15.5742 8.73935 15.5039Z" fill="#1C2436"/>
<path d="M10.9148 1.28901C11.6587 0.667914 12.8444 0.785102 13.4837 1.51166C13.9371 1.94526 14.3904 2.37885 14.8438 2.82416C13.0071 2.82416 11.1589 2.82416 9.32227 2.82416C9.85698 2.30854 10.3684 1.7812 10.9148 1.28901Z" fill="#EBFA9E"/>
<path d="M1.301 10.582C1.78922 10.0898 2.28906 9.62109 2.78889 9.14062C2.78889 10.875 2.78889 12.5977 2.78889 14.3203C2.3123 13.8633 1.82409 13.3945 1.3475 12.9258C0.731415 12.3164 0.719791 11.2266 1.301 10.582Z" fill="#EBFA9E"/>
<path d="M21.3636 9.21094C21.3752 9.19922 21.4101 9.1875 21.4217 9.17578C21.8867 9.66797 22.3865 10.1016 22.8515 10.5937C23.4327 11.2383 23.4211 12.3164 22.805 12.9258C22.1889 13.5352 21.5612 14.1445 20.9335 14.7422C20.9219 14.3086 20.9335 13.875 20.9219 13.4414C20.9219 13.3594 20.9219 13.1836 20.9219 13.1016C21.1427 13.0664 21.3636 12.9023 21.3636 12.6562C21.3636 11.5078 21.3752 10.3594 21.3636 9.21094Z" fill="#EBFA9E"/>
<path d="M3.67169 3.70313C9.28616 3.69141 14.889 3.69141 20.4919 3.70313C20.5035 6.67969 20.4919 9.66797 20.4919 12.6445C20.4802 12.8906 20.6895 13.0781 20.922 13.1016C20.922 13.1836 20.922 13.3594 20.922 13.4414C20.6081 13.7227 20.2943 14.0039 20.0037 14.3203C19.5387 14.8359 18.9575 15.2227 18.4925 15.7383C17.551 16.6641 16.6559 17.6484 15.6213 18.4688C15.2145 18.6094 14.9355 18.1406 14.6565 17.9063C13.3779 16.5938 11.1228 16.5117 9.72788 17.6836C9.4024 17.9414 9.16992 18.3164 8.7747 18.4805C8.49572 18.5859 8.32136 18.293 8.13537 18.1406C6.58935 16.7813 5.22933 15.2227 3.64844 13.8984C3.66006 10.5 3.66006 7.10156 3.67169 3.70313ZM5.1712 6.75C5.42694 7.16016 5.70592 7.54688 5.96165 7.95703C5.69429 8.36719 5.41531 8.76563 5.15958 9.1875C5.02009 9.46875 5.2642 9.83203 5.57805 9.80859C6.35687 9.80859 7.13569 9.80859 7.92613 9.80859C7.93776 10.1367 7.89126 10.4766 8.01913 10.793C8.20511 11.3203 8.75145 11.6953 9.30941 11.6836C11.1693 11.6836 13.0291 11.6836 14.889 11.6836C15.3889 11.6836 15.8771 11.3906 16.0979 10.9453C16.2955 10.5938 16.249 10.1836 16.2607 9.80859C17.0395 9.80859 17.8183 9.80859 18.6088 9.80859C18.9226 9.83203 19.1667 9.46875 19.0156 9.1875C18.7599 8.76563 18.4809 8.36719 18.2135 7.95703C18.4693 7.54688 18.7482 7.14844 19.004 6.73828C19.1667 6.46875 18.9226 6.08203 18.6088 6.10547C17.6788 6.10547 16.7373 6.10547 15.8073 6.10547C15.2726 6.10547 14.7612 6.45703 14.5635 6.94922C14.4124 7.27734 14.4705 7.64062 14.4589 7.98047C12.8897 7.98047 11.3204 7.98047 9.73951 7.98047C9.71626 7.66406 9.76275 7.33594 9.64651 7.03125C9.47215 6.50391 8.93744 6.10547 8.36785 6.11719C7.43792 6.11719 6.50799 6.11719 5.57805 6.11719C5.25257 6.08203 5.00847 6.46875 5.1712 6.75ZM7.79827 13.1602C7.34493 13.2305 7.34493 13.957 7.79827 14.0273C10.6462 14.0391 13.4941 14.0391 16.3537 14.0273C16.807 13.957 16.8186 13.2305 16.3537 13.1602C13.5057 13.1484 10.6578 13.1484 7.79827 13.1602ZM8.73983 15.5039C8.28648 15.5742 8.28648 16.3008 8.73983 16.3711C10.9717 16.3828 13.2035 16.3828 15.4354 16.3711C15.8887 16.3008 15.8887 15.5742 15.4354 15.5039C13.2035 15.4922 10.96 15.4922 8.73983 15.5039Z" fill="#E7D6FF"/>
<path d="M6.38077 6.98436C7.07822 6.99608 7.78729 6.96093 8.48474 6.99608C8.91484 7.11327 8.85671 7.62889 8.84509 7.98046C8.57773 8.01561 8.26388 7.89842 8.04302 8.10936C7.82216 8.3203 7.9384 8.64842 7.90353 8.91796C7.39207 8.91796 6.8806 8.91796 6.36914 8.91796C6.5435 8.55467 6.93873 8.27343 6.91548 7.83983C6.77599 7.54686 6.55513 7.27733 6.38077 6.98436Z" fill="#D6FFD8"/>
<path d="M15.3196 7.98046C15.308 7.62889 15.2499 7.11327 15.68 6.99608C16.3774 6.96093 17.0865 6.99608 17.784 6.98436C17.6212 7.34764 17.1795 7.64061 17.2493 8.08593C17.412 8.37889 17.6096 8.63671 17.784 8.92967C17.2725 8.92967 16.761 8.92967 16.2496 8.92967C16.2147 8.66014 16.331 8.33202 16.1101 8.12108C15.9009 7.89843 15.5754 8.01561 15.3196 7.98046Z" fill="#D6FFD8"/>
<path d="M8.79973 8.87109C10.9967 8.87109 13.182 8.87109 15.379 8.87109C15.379 9.35156 15.379 9.83203 15.379 10.3125C15.3906 10.582 15.1465 10.8164 14.8908 10.8047C13.0309 10.8047 11.1594 10.8047 9.29957 10.8047C9.04384 10.8164 8.79973 10.5703 8.79973 10.3125C8.78811 9.83203 8.78811 9.35156 8.79973 8.87109Z" fill="#FFEFEB"/>
<path d="M20.0154 14.3203C20.306 14.0156 20.6198 13.7227 20.9337 13.4414C20.9337 13.875 20.9337 14.3086 20.9453 14.7422C19.1319 16.5117 17.3069 18.2695 15.4819 20.0273C14.924 19.5 14.3776 18.9375 13.8081 18.4219C12.82 17.5898 11.2624 17.6133 10.2976 18.4805C9.64661 19.0781 9.0189 19.7227 8.36795 20.332C8.11222 20.0859 7.86811 19.8516 7.624 19.6055C7.75187 19.4414 7.77512 19.1836 7.63562 19.0312C6.32209 17.7305 4.96206 16.4648 3.66016 15.1523C3.67178 14.7422 3.66016 14.3203 3.66016 13.9102C5.24104 15.2344 6.60107 16.793 8.14709 18.1523C8.33308 18.3047 8.50744 18.5977 8.78642 18.4922C9.17002 18.3281 9.4025 17.9414 9.7396 17.6953C11.1345 16.5234 13.3896 16.6055 14.6683 17.918C14.9472 18.1406 15.2262 18.6094 15.6331 18.4805C16.6676 17.6602 17.5627 16.6758 18.5042 15.75C18.9692 15.2227 19.5504 14.8359 20.0154 14.3203Z" fill="#E7D6FF"/>
<path d="M0.871094 13.6875C1.21982 14.0156 1.55692 14.3437 1.89402 14.6836C1.87077 14.9883 1.8359 15.2812 1.8359 15.5859C1.84752 18.668 1.82428 21.7617 1.84752 24.8437C1.84752 25.418 1.81265 25.9922 1.92889 26.5664V26.5781C1.56854 26.918 1.21982 27.2578 0.871094 27.5977C0.871094 22.957 0.871094 18.3164 0.871094 13.6875Z" fill="#4DF189"/>
<path d="M16.1113 20.6367C18.5059 18.3164 20.9005 16.0078 23.2951 13.6875C23.2951 18.3164 23.2951 22.957 23.2951 27.5859C20.9005 25.2656 18.5059 22.957 16.1113 20.6367Z" fill="#4DF189"/>
<path d="M1.89406 14.6836C3.60281 16.3242 5.29994 17.9766 7.0087 19.6289C7.18306 19.8164 7.45042 19.7461 7.62478 19.6055C7.86889 19.8516 8.11299 20.0977 8.36873 20.332C6.21825 22.4062 4.0794 24.4922 1.92893 26.5664C1.81269 26.0039 1.84756 25.418 1.84756 24.8438C1.83594 21.7617 1.85919 18.668 1.83594 15.5859C1.84756 15.2812 1.87081 14.9766 1.89406 14.6836Z" fill="#4DF189"/>
<path d="M0.894531 28.8047C1.16189 28.5 1.47574 28.2305 1.75472 27.9492H1.76634C2.21969 28.2188 2.7544 28.1367 3.25424 28.1367C9.44993 28.1367 15.6572 28.125 21.8529 28.1484C22.0738 28.1484 22.2946 28.1016 22.5155 28.0547C22.7596 28.3125 23.0502 28.5352 23.2711 28.8164C23.1665 28.9922 22.9921 29.1445 22.7829 29.1211C15.6572 29.1211 8.51999 29.1211 1.39437 29.1211C1.17351 29.1445 0.999149 28.9805 0.894531 28.8047Z" fill="#4DF189"/>
<path d="M10.7976 19.207C11.4834 18.5273 12.6807 18.5273 13.3666 19.207C16.4237 22.1602 19.4692 25.1133 22.5148 28.0547C22.2939 28.1016 22.0731 28.1484 21.8522 28.1484C15.6565 28.1367 9.44921 28.1484 3.25352 28.1367C2.75368 28.1367 2.21897 28.2188 1.76562 27.9492C4.76466 25.0195 7.78695 22.125 10.7976 19.207Z" fill="#4DF189"/>
<path d="M7.09685 18.5313L6.52148 19.1113L8.25579 20.8597L8.83115 20.2797L7.09685 18.5313Z" fill="#1C2436"/>
<path d="M21.3525 11.6367H20.5039V15.1758H21.3525V11.6367Z" fill="#1C2436"/>
</g>
<defs>
<clipPath id="clip0_974_7287">
<rect width="24.1667" height="30" fill="white"/>
</clipPath>
</defs>
</svg>
