<svg width="65" height="65" viewBox="0 0 65 65" fill="none" xmlns="http://www.w3.org/2000/svg">
<g clip-path="url(#clip0_329_5160)">
<path d="M2.30081 0.162351C2.78811 -8.13582e-05 3.30248 -8.13663e-05 3.78978 -8.13663e-05C11.5595 0.0269907 19.3291 -8.13663e-05 27.0988 -8.13663e-05C28.8314 -0.0542255 30.3745 1.48888 30.3204 3.22149C30.3204 11.8845 30.3204 20.5747 30.3204 29.2377C30.3745 30.9703 28.8044 32.5135 27.0717 32.4593C19.1396 32.4593 11.1804 32.4593 3.24833 32.4593C1.40743 32.5135 -0.189817 30.7808 -0.000312373 28.9399C-0.000312373 20.3581 -0.000312373 11.7763 -0.000312373 3.19442C-0.000312373 1.84082 0.974282 0.54136 2.30081 0.162351ZM2.81518 2.27397C2.19252 2.51762 2.13838 3.22149 2.16545 3.79001C2.19252 12.2906 2.16545 20.7642 2.19252 29.2648C2.16545 29.9687 2.86933 30.4018 3.51905 30.3206C11.2887 30.3206 19.0855 30.3206 26.8552 30.3206C27.6403 30.456 28.3171 29.7521 28.1817 28.9941C28.1817 20.4122 28.2088 11.8304 28.1546 3.22149C28.1817 2.51762 27.4778 2.05739 26.8281 2.16568C19.2479 2.16568 11.6677 2.16568 4.08757 2.16568C3.65442 2.19275 3.22126 2.13861 2.81518 2.27397Z" fill="#C09D0A"/>
<path d="M36.4107 0.378927C37.0333 0.0269907 37.7643 -8.13663e-05 38.4681 -8.13663e-05C46.2378 0.0269907 54.0075 -8.13663e-05 61.7501 -8.13663e-05C63.4827 -0.0542255 65.0258 1.48888 64.9717 3.22149C64.9987 11.8845 64.9987 20.5747 64.9717 29.2377C65.0258 30.9433 63.4827 32.5135 61.7501 32.4593C57.7705 32.4864 53.7909 32.4593 49.8113 32.4593C49.8113 33.5963 49.8113 34.7334 49.8113 35.8433C51.5439 35.3289 53.4931 36.3035 54.0616 38.0362C55.8213 37.4406 57.8246 38.4422 58.3932 40.2019C60.4236 39.471 62.8871 41.0411 62.8059 43.2611C62.7788 48.0528 62.86 52.8446 62.7788 57.6363C62.2103 58.8004 61.3169 59.775 60.6943 60.9391C60.586 61.9949 60.7484 63.0778 60.6131 64.1336C60.5048 64.7292 59.8551 64.9999 59.3136 64.9458C54.4406 64.9458 49.5406 64.9458 44.6676 64.9458C44.1262 64.9999 43.4765 64.7292 43.3682 64.1336C43.2599 63.1319 43.314 62.1303 43.2599 61.1286C42.2311 59.8292 41.0129 58.6651 40.1466 57.2844C38.6306 53.007 37.1957 48.7025 35.7068 44.4252C35.409 43.6942 35.4631 42.8008 35.9775 42.1511C36.4919 41.4472 37.4123 41.3119 38.1974 41.1224C39.6322 40.7434 41.2566 41.4743 41.8521 42.8279C42.3394 43.8837 42.8267 44.9395 43.314 46.0224C43.3411 41.5014 43.314 36.9803 43.3411 32.4593C41.4461 32.4322 39.551 32.4864 37.6289 32.4322C36.0046 32.351 34.6239 30.835 34.678 29.2107C34.651 20.6288 34.678 12.0741 34.678 3.49221C34.5698 2.2469 35.2466 0.974513 36.4107 0.378927ZM36.8438 3.49221C36.8438 11.9928 36.8438 20.4935 36.8438 28.967C36.7626 29.6167 37.1957 30.3206 37.8996 30.2935C39.7134 30.3477 41.5273 30.2935 43.3411 30.3206C43.287 29.1294 43.3952 27.8029 44.3157 26.9637C45.5339 25.6372 47.8621 25.6913 49.0262 27.072C49.8655 27.9383 49.8925 29.1836 49.8655 30.3206C53.8451 30.3206 57.7976 30.3477 61.7772 30.3206C62.481 30.3477 62.9413 29.6438 62.86 28.9941C62.86 20.4935 62.86 11.9928 62.86 3.51929C62.9954 2.7342 62.2915 2.05739 61.5335 2.19275C53.6556 2.19275 45.8047 2.16568 37.9267 2.21983C37.1957 2.16568 36.7355 2.86956 36.8438 3.49221ZM46.1295 28.2631C45.6693 28.4797 45.4527 28.9941 45.5069 29.4543C45.4798 36.6013 45.5339 43.7484 45.4798 50.9224C45.5339 51.9241 44.045 52.3573 43.5306 51.491C42.2041 48.9191 41.0941 46.239 39.7947 43.6401C39.3074 42.882 38.3598 43.3693 37.683 43.5047C39.1449 47.755 40.5798 52.0324 42.0958 56.2827C43.0433 57.7446 44.424 58.9087 45.3715 60.3706C45.5069 61.1557 45.4527 61.9949 45.4798 62.8071C49.8113 62.8071 54.1699 62.8071 58.5014 62.8071C58.5014 61.9949 58.4473 61.1828 58.5556 60.3706C59.1241 59.2065 60.0175 58.2319 60.6401 57.0678C60.7214 52.7633 60.6401 48.4318 60.6943 44.1274C60.6672 43.5588 60.8026 42.8008 60.207 42.4489C59.6385 42.0157 58.691 42.3406 58.5556 43.0716C58.3932 44.371 58.6639 45.7246 58.4202 47.0241C58.0683 47.9445 56.5793 47.8092 56.3898 46.8616C56.2545 44.8854 56.444 42.882 56.3086 40.9058C56.1462 39.8229 54.4136 39.8229 54.2241 40.9058C54.0887 42.882 54.2782 44.8854 54.1428 46.8616C53.9533 47.9174 52.2207 47.9174 52.0583 46.8346C51.9229 44.1274 52.1124 41.4202 51.9771 38.74C51.7876 37.6842 50.082 37.6842 49.8925 38.74C49.7843 41.366 49.8925 43.992 49.8384 46.618C49.8655 47.376 48.9721 47.9174 48.2953 47.5655C47.808 47.3489 47.6456 46.8346 47.6726 46.3473C47.6456 40.6351 47.6997 34.9499 47.6456 29.2377C47.6726 28.4797 46.7793 27.8841 46.1295 28.2631Z" fill="#C09D0A"/>
<path d="M8.71628 3.57344C9.23065 3.35686 9.74502 3.65466 10.0699 4.00659C11.6942 5.63092 13.3185 7.28231 14.9699 8.90664C15.3489 9.25857 15.7009 9.74587 15.5114 10.2602C14.5638 11.8033 12.6417 12.6697 12.1003 14.4835C11.3693 16.92 14.0765 19.4918 16.486 18.6526C18.1644 18.0299 19.0037 16.2973 20.4385 15.3227C20.8716 15.1061 21.386 15.2956 21.7109 15.6476C23.3623 17.2719 24.9595 18.8962 26.6109 20.5205C27.0711 20.9266 27.5855 21.6034 27.1523 22.2261C26.4214 23.1195 25.5551 23.8775 24.7429 24.6896C23.0103 26.4493 20.628 27.5051 18.1644 27.5864C15.5114 27.6946 12.8312 26.6659 10.9633 24.7979C9.28479 23.1195 7.60633 21.4681 5.95493 19.7896C3.92453 17.7321 2.92286 14.7813 3.24773 11.9116C3.49138 9.58344 4.6284 7.36353 6.36101 5.79335C7.1461 5.0624 7.8229 4.16903 8.71628 3.57344ZM9.09529 6.11821C8.85164 6.38893 8.58092 6.63258 8.33727 6.87623C9.60966 8.14862 10.882 9.421 12.1544 10.7205C12.3981 10.4497 12.6688 10.2061 12.9124 9.96245C11.6671 8.66299 10.3677 7.3906 9.09529 6.11821ZM7.33561 18.1111C9.12236 19.925 10.9091 21.7388 12.75 23.5255C15.3219 25.9079 19.518 26.0162 22.3335 23.9587C21.0611 22.6592 19.7617 21.3869 18.4893 20.1145C17.623 20.5747 16.6755 20.9808 15.6738 20.9808C12.8854 21.1161 10.2052 18.7879 9.85331 15.9995C9.6638 14.7001 10.0428 13.4006 10.6925 12.2906C9.42016 10.9912 8.1207 9.7188 6.84831 8.44641C4.73669 11.289 4.89912 15.5393 7.33561 18.1111ZM20.0865 18.6255C21.3589 19.8979 22.6313 21.1703 23.9037 22.4697C24.1474 22.199 24.4181 21.9554 24.6617 21.7117C23.4164 20.4123 22.144 19.1399 20.8446 17.8675C20.6009 18.1111 20.3302 18.3548 20.0865 18.6255Z" fill="#C09D0A"/>
<path d="M41.5013 12.8051C42.5571 8.77132 46.8345 5.95583 50.9494 6.57849C53.8732 6.93042 56.5263 8.93376 57.7445 11.6139C58.5026 13.2382 58.6379 15.0791 58.4484 16.8117C58.2048 18.5173 56.3909 19.7896 54.6854 19.4377C53.9274 19.3294 53.3318 18.8421 52.7633 18.3819C51.166 19.7626 48.6483 19.8979 47.024 18.5173C45.0477 17.0012 44.8853 13.7526 46.6991 12.047C48.4047 10.2332 51.6263 10.3956 53.1423 12.3719C54.1169 13.4548 54.171 14.9167 54.171 16.2974C54.0898 17.4073 55.7954 17.7592 56.2014 16.7576C56.8241 13.8067 55.308 10.5039 52.4926 9.28569C50.408 8.3111 47.782 8.58182 45.9411 9.98957C44.1273 11.289 43.1256 13.5631 43.3151 15.783C43.5046 18.1383 45.1019 20.3311 47.2947 21.1974C49.5417 22.1178 52.0323 21.4952 54.3876 21.7388C55.1185 21.8742 55.4434 22.8488 55.0103 23.4173C54.6312 23.9858 53.9003 23.8505 53.3047 23.8775C50.8141 23.8234 48.161 24.2024 45.887 22.93C42.2864 21.1433 40.3101 16.6493 41.5013 12.8051ZM49.1085 13.1299C48.161 13.4548 47.5384 14.4835 47.6737 15.4581C47.8091 16.5139 48.7566 17.3532 49.8395 17.3261C51.0848 17.3532 52.1948 16.1349 51.9782 14.8896C51.8428 13.5631 50.3539 12.6426 49.1085 13.1299Z" fill="#C09D0A"/>
<path d="M2.27292 34.8146C2.76022 34.6521 3.30166 34.6792 3.81603 34.6521C11.5857 34.6792 19.3283 34.6521 27.098 34.6521C29.1825 34.5709 30.6986 36.7096 30.3466 38.6859C30.3196 46.3743 30.3466 54.0357 30.3466 61.6971C30.4008 63.4297 28.8306 64.9999 27.098 64.9458C19.1659 64.9458 11.2067 64.9458 3.27459 64.9458C1.54198 64.9999 -0.00113099 63.4297 0.0259411 61.6971C0.0259411 53.765 0.0259411 45.8058 0.0259411 37.8737C-0.00113099 36.5201 0.973463 35.2207 2.27292 34.8146ZM2.81436 36.9262C2.32707 37.1428 2.13756 37.6842 2.19171 38.1715C2.19171 45.9412 2.19171 53.7109 2.19171 61.5076C2.05634 62.2927 2.76022 62.9424 3.51824 62.8342C11.3691 62.8342 19.2471 62.8612 27.098 62.8071C27.8019 62.8342 28.2621 62.1303 28.1538 61.4806C28.1538 53.7109 28.1538 45.9412 28.1538 38.1444C28.235 37.4947 27.7748 36.7908 27.098 36.8179C19.4095 36.7908 11.7211 36.8179 4.05968 36.7908C3.6536 36.845 3.22044 36.7908 2.81436 36.9262Z" fill="#C09D0A"/>
<path d="M4.98235 42.3407C5.38843 42.2053 5.84865 42.2595 6.25473 42.2324C12.4001 42.2595 18.5184 42.2324 24.6637 42.2324C25.3135 42.1512 26.0173 42.5843 25.9903 43.2882C26.0173 47.5385 25.9903 51.8159 26.0173 56.0662C26.0985 56.7159 25.6383 57.4198 24.9615 57.3927C18.5454 57.4198 12.1294 57.3927 5.71329 57.4198C5.06356 57.5281 4.33262 57.0679 4.35969 56.364C4.33262 52.1137 4.35969 47.8634 4.35969 43.6131C4.30554 43.0987 4.49505 42.5302 4.98235 42.3407ZM8.28514 44.3982C10.5863 46.4286 12.8874 48.486 15.1885 50.5164C17.4896 48.486 19.7908 46.4286 22.0919 44.3982C17.4626 44.3982 12.8874 44.3982 8.28514 44.3982ZM6.52545 45.7247C6.52545 48.459 6.52545 51.1932 6.52545 53.9005C8.06856 52.5469 9.61167 51.1662 11.1548 49.8126C9.58459 48.459 8.04149 47.1054 6.52545 45.7247ZM23.8245 45.7247C22.2814 47.1054 20.7654 48.459 19.2222 49.8126C20.7654 51.1662 22.2814 52.5198 23.8245 53.9005C23.8245 51.1932 23.8516 48.459 23.8245 45.7247ZM8.28514 55.227C12.8874 55.227 17.4626 55.227 22.0648 55.227C20.5758 53.9005 19.0869 52.601 17.5979 51.2745C16.894 51.87 16.1902 52.7364 15.1614 52.6822C14.1327 52.7093 13.4559 51.87 12.752 51.2474C11.2631 52.601 9.7741 53.9275 8.28514 55.227Z" fill="#C09D0A"/>
</g>
<defs>
<clipPath id="clip0_329_5160">
<rect width="65" height="65" fill="white"/>
</clipPath>
</defs>
</svg>
