<svg width="40" height="40" viewBox="0 0 40 40" fill="none" xmlns="http://www.w3.org/2000/svg">
<path d="M1.88647 38.184C1.88647 39.1853 2.70117 40 3.70259 40H7.21067C7.35637 40 7.51153 39.9419 7.62505 39.8284L12.1824 35.2711C12.287 35.1664 12.3539 35.0168 12.3539 34.8567V27.6754C12.3539 26.6739 11.5392 25.8592 10.5379 25.8592H7.70614V23.4038C7.70614 23.1969 7.87442 23.0286 8.08138 23.0286H19.4142V25.8592H16.5825C15.5811 25.8592 14.7664 26.6739 14.7664 27.6753V38.184C14.7664 39.1853 15.5811 40 16.5825 40H20.0906C20.2366 40 20.392 39.9413 20.5049 39.8284L25.0623 35.2711C25.1654 35.168 25.2338 35.0189 25.2338 34.8567V27.6754C25.2338 26.6739 24.4191 25.8592 23.4178 25.8592H20.5861V23.0287H31.9189C32.1258 23.0287 32.2941 23.1969 32.2941 23.4039V25.8593H29.4625C28.461 25.8593 27.6463 26.674 27.6463 27.6754V38.184C27.6463 39.1853 28.461 40 29.4625 40H32.9705C33.1208 40 33.2733 39.9399 33.3849 39.8284L37.9422 35.2711C38.0482 35.1651 38.1138 35.0138 38.1138 34.8567V28.2248C38.1138 27.9012 37.8515 28.7818 37.5278 28.7818C37.2042 24.7818 36.9419 27.9012 36.9419 28.2248V34.2708H34.2006C33.1993 34.2708 32.3846 35.0855 32.3846 36.0869V38.8281H29.4625C29.1072 38.8281 28.8182 38.5391 28.8182 38.184V27.6754C28.8182 27.3201 29.1072 27.0311 29.4625 27.0311H36.2978C36.6529 27.0311 36.9419 27.3201 36.9419 27.6754V29.4904C36.9419 29.814 37.2042 30.0763 37.5278 30.0763C37.8515 30.0763 38.1138 29.814 38.1138 29.4904V27.6754C38.1138 26.6739 37.2991 25.8592 36.2978 25.8592H33.466V23.4038C33.466 22.5508 32.7719 21.8567 31.9189 21.8567H20.586V18.927H27.0981C27.8577 18.927 28.4757 18.309 28.4757 17.5493V12.9654C28.4757 12.6417 28.2135 12.3795 27.8898 12.3795C27.5661 12.3795 27.3038 9.21317 27.3038 12.9654V17.5493C27.3038 17.6628 27.2115 17.7551 27.0981 17.7551H25.0944V13.7525C25.0944 13.4288 24.8322 13.1665 24.5085 13.1665C24.1848 13.1665 23.9226 13.4288 23.9226 13.7525V17.7551H16.0776V13.7525C16.0776 13.4288 15.8154 13.1665 15.4917 13.1665C15.168 13.1665 14.9057 13.4288 14.9057 13.7525V17.7551H12.9021C12.7887 17.7551 12.6964 17.6628 12.6964 17.5493V13.3419C12.6964 11.6032 14.111 10.1886 15.8497 10.1886H24.1504C25.8892 10.1886 27.3038 11.6032 27.3038 13.3419V13.6596C27.3038 13.9833 27.566 14.2455 27.8897 14.2455C28.2134 14.2455 28.4756 13.9833 28.4756 13.6596V13.3419C28.4756 10.957 26.5354 9.01673 24.1504 9.01673H23.247C24.3747 8.08156 25.0944 6.67046 25.0944 5.09435C25.0944 2.28533 22.8091 0 20.0001 0C17.1911 0 14.9057 2.28533 14.9057 5.09435C14.9057 6.67046 15.6254 8.08156 16.7532 9.01673H15.8497C13.4648 9.01673 11.5245 10.957 11.5245 13.3419V17.5493C11.5245 18.309 12.1425 18.927 12.9021 18.927H19.4142V21.8567H8.0813C7.22825 21.8567 6.53418 22.5508 6.53418 23.4038V25.8592H3.70259C2.70117 25.8592 1.88647 26.6739 1.88647 27.6754V38.184ZM33.5564 36.0869C33.5564 35.7317 33.8454 35.4427 34.2005 35.4427H36.1131L33.5563 37.9995L33.5564 36.0869ZM16.0776 5.09435C16.0776 2.93144 17.8372 1.17189 20.0001 1.17189C22.1629 1.17189 23.9225 2.93144 23.9225 5.09435C23.9225 7.24874 22.1725 9.01673 19.997 9.01673C17.8356 9.01509 16.0776 7.25624 16.0776 5.09435ZM20.6764 37.9995V36.087C20.6764 35.7318 20.9654 35.4428 21.3206 35.4428H23.2332L20.6764 37.9995ZM23.4177 27.0311C23.7729 27.0311 24.0618 27.3201 24.0618 27.6754V34.2708H21.3206C20.3192 34.2708 19.5045 35.0855 19.5045 36.0869V38.8281H16.5824C16.2272 38.8281 15.9383 38.5391 15.9383 38.184V27.6754C15.9383 27.3201 16.2272 27.0311 16.5824 27.0311H23.4177ZM7.79661 37.9995V36.087C7.79661 35.7318 8.0856 35.4428 8.44076 35.4428H10.3534L7.79661 37.9995ZM3.05836 27.6754C3.05836 27.3201 3.34735 27.0311 3.70259 27.0311H10.5379C10.893 27.0311 11.182 27.3201 11.182 27.6754V34.2708H8.44076C7.43942 34.2708 6.62472 35.0855 6.62472 36.0869V38.8281H3.70259C3.34735 38.8281 3.05836 38.5391 3.05836 38.184V27.6754Z" fill="#009207"/>
<path d="M12.2856 18.2857H27.1428L27.7142 17.7143L28.2856 14.8572V13.1429L27.1428 11.4286L26.2856 10.5714L23.4285 9.42859H19.1428H15.9999L13.4285 10.5714L12.2856 12.5714V18.2857Z" fill="#009207"/>
<circle cx="19.9999" cy="5.14284" r="4.57143" fill="#009207"/>
<path d="M2.85707 39.4286H6.85707L7.4285 38.5714V38.2857L7.14279 37.4286V35.7143L7.71422 35.1428V34.8571H7.99993L9.71422 34.5714H11.7142V32.8571V30.8571L11.9999 28.8571L11.7142 27.4286L10.8571 26.8571L10.2856 26.5714L7.71422 26.2857L3.4285 26.5714L2.57136 26.8571V27.7143V28.8571V33.7143L2.28564 37.4286L2.85707 39.4286Z" fill="#009207"/>
<path d="M15.9999 39.4286H19.9999L20.5713 38.5714V38.2857L20.2856 37.4286V35.7143L20.857 35.1428V34.8571H21.1428L22.857 34.5714H24.857V32.8571V30.8571L25.1428 28.8571L24.857 27.4286L23.9999 26.8571L23.4285 26.5714L20.857 26.2857L16.5713 26.5714L15.7142 26.8571V27.7143V28.8571V33.7143L15.4285 37.4286L15.9999 39.4286Z" fill="#009207"/>
<path d="M28.5714 39.4286H32.5714L33.1429 38.5714V38.2857L32.8571 37.4286V35.7143L33.4286 35.1428V34.8571H33.7143L35.4286 34.5714H37.4286V32.8571V30.8571L37.7143 28.8571L37.4286 27.4286L36.5714 26.8571L36 26.5714L33.4286 26.2857L29.1429 26.5714L28.2857 26.8571V27.7143V28.8571V33.7143L28 37.4286L28.5714 39.4286Z" fill="#009207"/>
</svg>
