<svg width="12" height="14" viewBox="0 0 12 14" fill="none" xmlns="http://www.w3.org/2000/svg">
<path fill-rule="evenodd" clip-rule="evenodd" d="M6.1665 0.333252C9.19917 0.333252 11.6665 2.81925 11.6665 5.87525C11.6665 9.63192 7.3625 13.3333 6.1665 13.3333C4.9705 13.3333 0.666504 9.63192 0.666504 5.87525C0.666504 2.81925 3.13384 0.333252 6.1665 0.333252ZM6.1665 1.33325C3.68517 1.33325 1.6665 3.37125 1.6665 5.87525C1.6665 9.06125 5.41584 12.1653 6.1665 12.3306C6.91717 12.1646 10.6665 9.06059 10.6665 5.87525C10.6665 3.37125 8.64784 1.33325 6.1665 1.33325ZM6.16717 3.66659C7.36184 3.66659 8.33384 4.63859 8.33384 5.83392C8.33384 7.02859 7.36184 7.99992 6.16717 7.99992C4.9725 7.99992 4.0005 7.02859 4.0005 5.83392C4.0005 4.63859 4.9725 3.66659 6.16717 3.66659ZM6.16717 4.66659C5.52384 4.66659 5.0005 5.18992 5.0005 5.83392C5.0005 6.47725 5.52384 6.99992 6.16717 6.99992C6.8105 6.99992 7.33384 6.47725 7.33384 5.83392C7.33384 5.18992 6.8105 4.66659 6.16717 4.66659Z" fill="#454C5F"/>
</svg>
