<svg width="373" height="824" viewBox="0 0 373 824" fill="none" xmlns="http://www.w3.org/2000/svg">
<path fill-rule="evenodd" clip-rule="evenodd" d="M372.875 173.285L365.638 179.975C353.066 191.597 352.296 211.21 363.918 223.782L372.875 233.471V231.997L364.653 223.103C353.406 210.937 354.151 191.957 366.317 180.71L372.875 174.647V173.285Z" fill="#D0FFE1"/>
<path fill-rule="evenodd" clip-rule="evenodd" d="M372.875 53.103L145.662 222.072C131.924 232.288 129.069 251.708 139.286 265.446L372.875 579.554V577.878L140.088 264.849C130.201 251.554 132.964 232.761 146.259 222.874L372.875 54.3492V53.103Z" fill="white" fill-opacity="0.3"/>
<path fill-rule="evenodd" clip-rule="evenodd" d="M372.875 0L13.3752 248.511C-0.708235 258.247 -4.23298 277.556 5.50248 291.639L372.875 823.085V821.326L6.32508 291.071C-3.09634 277.441 0.314702 258.755 13.9438 249.334L372.875 1.21567V0Z" fill="#D0FFE1"/>
<path fill-rule="evenodd" clip-rule="evenodd" d="M372.875 14.9304L55.0995 241.941C41.1683 251.893 37.9426 271.255 47.8947 285.186L372.875 740.101V738.381L48.7084 284.605C39.0773 271.123 42.1989 252.386 55.6808 242.755L372.875 16.1594V14.9304Z" fill="white" fill-opacity="0.3"/>
<path fill-rule="evenodd" clip-rule="evenodd" d="M372.875 30.9865L99.7503 234.098C86.012 244.315 83.1571 263.734 93.3737 277.472L372.875 653.318V651.642L94.1762 276.876C84.2891 263.581 87.0519 244.788 100.347 234.9L372.875 32.2327V30.9865Z" fill="#D0FFE1"/>
<path fill-rule="evenodd" clip-rule="evenodd" d="M372.874 69.0103L189.974 216.982C176.664 227.75 174.603 247.27 185.372 260.58L372.874 492.341V490.751L186.149 259.951C175.728 247.07 177.722 228.18 190.603 217.759L372.874 70.2965V69.0103Z" fill="#D0FFE1"/>
<path fill-rule="evenodd" clip-rule="evenodd" d="M372.875 93.1208L232.975 206.304C219.665 217.072 217.604 236.592 228.373 249.902L372.875 428.514V426.924L229.15 249.273C218.729 236.393 220.723 217.503 233.604 207.081L372.875 94.4071V93.1208Z" fill="white" fill-opacity="0.3"/>
<path fill-rule="evenodd" clip-rule="evenodd" d="M372.875 112.063L277.079 196.926C264.264 208.278 263.078 227.871 274.431 240.686L355.992 332.755C360.598 337.954 366.56 341.239 372.875 342.55V341.528C366.839 340.232 361.148 337.068 356.741 332.092L275.179 240.023C264.193 227.621 265.34 208.661 277.742 197.674L372.875 113.399V112.063Z" fill="#D0FFE1"/>
<path fill-rule="evenodd" clip-rule="evenodd" d="M372.875 143.041L321.079 188.925C308.264 200.278 307.078 219.87 318.431 232.685L372.875 294.143V292.635L319.179 232.022C308.193 219.62 309.34 200.66 321.742 189.673L372.875 144.376V143.041Z" fill="white" fill-opacity="0.3"/>
</svg>
