<svg width="100" height="100" viewBox="0 0 100 100" fill="none" xmlns="http://www.w3.org/2000/svg">
<rect width="100" height="100" rx="4" fill="#F6F6F9"/>
<g clip-path="url(#clip0_529_5149)">
<path d="M26.3838 22H52.7881C52.7881 22.376 52.7881 22.7627 52.7881 23.1494C52.7881 23.5361 52.7881 23.9121 52.7881 24.2988C44.0762 24.2988 35.3643 24.2988 26.6523 24.2988C26.2871 24.2988 25.9004 24.3633 25.6426 24.6426C25.3633 24.9004 25.2881 25.2979 25.2988 25.6523C25.2988 34.751 25.2988 43.8496 25.2988 52.9375C25.2988 55.1611 25.2988 57.3848 25.2988 59.6084C25.2881 59.9951 25.3848 60.4141 25.6963 60.6719C26.1045 61.0371 26.6846 60.9512 27.1895 60.9619C42.916 60.9619 58.6318 60.9619 74.3477 60.9619C74.7129 60.9619 75.1104 60.8975 75.3682 60.6182C75.6797 60.3389 75.7119 59.8877 75.7119 59.501C75.7119 57.3203 75.7119 55.1289 75.7119 52.9482C75.7119 51.0361 75.7119 49.124 75.7119 47.2227C76.0986 47.2227 76.4746 47.2227 76.8613 47.2227C77.248 47.2227 77.624 47.2227 78.0107 47.2227V59.877C77.9785 60.8867 77.5166 61.875 76.7217 62.498C76.0664 63.0459 75.207 63.2822 74.3691 63.2607C69.1377 63.2607 63.917 63.2607 58.6855 63.2607C58.9756 65.5488 59.2549 67.8477 59.5449 70.1357C60.3291 70.1465 61.1133 70.125 61.8975 70.1357C62.2842 70.1357 62.6816 70.2969 62.8965 70.6299C63.1113 70.9199 63.1113 71.2959 63.1113 71.6396C63.1113 72.6602 63.1113 73.6914 63.1113 74.7119C63.874 74.7119 64.6367 74.7119 65.3994 74.7119C65.3994 75.4746 65.3994 76.2373 65.3994 77H35.6006C35.6006 76.2373 35.6006 75.4746 35.6006 74.7119C36.3633 74.7119 37.126 74.7119 37.8887 74.7119C37.8994 73.584 37.8779 72.4453 37.8994 71.3174C37.8779 70.7158 38.3828 70.1572 38.9844 70.1465C39.8115 70.1035 40.6387 70.1465 41.4658 70.1357C41.7559 67.8477 42.0352 65.5488 42.3252 63.2607C37.1045 63.2607 31.873 63.2607 26.6523 63.2607C25.8037 63.2715 24.9443 63.0459 24.2891 62.498C23.4941 61.875 23.0322 60.8867 23 59.877V25.3945C23.043 24.6211 23.3008 23.8369 23.8164 23.2461C24.4395 22.4727 25.4062 22.0322 26.3838 22ZM44.6348 63.25C44.3555 65.5381 44.0654 67.8262 43.7754 70.125C48.2549 70.125 52.7344 70.125 57.2246 70.125C56.9453 67.8369 56.6445 65.5488 56.376 63.2607C52.4551 63.2393 48.5449 63.25 44.6348 63.25ZM40.1875 72.4131C40.1875 73.1758 40.1768 73.9385 40.1875 74.7012C47.0625 74.7012 53.9268 74.6904 60.8018 74.7012C60.8125 73.9385 60.8125 73.165 60.8018 72.4023C53.9375 72.4238 47.0625 72.4131 40.1875 72.4131Z" fill="#1C2436"/>
<path d="M61.8975 22H66.5488C67.1611 22.0215 67.666 22.5371 67.6768 23.1387C67.6875 24.1055 67.666 25.0723 67.6875 26.0391C68.0205 26.168 68.3535 26.3076 68.6758 26.4365C69.3311 25.792 69.9648 25.1475 70.6201 24.5029C70.8887 24.2344 71.2539 24.0303 71.6406 24.084C72.1562 24.127 72.5 24.5674 72.8438 24.9004C73.7139 25.7812 74.5947 26.6514 75.4756 27.5322C75.7656 27.8223 75.9805 28.2197 75.8945 28.6387C75.8516 28.9824 75.6045 29.2402 75.3789 29.4766C74.7666 30.0889 74.1543 30.6904 73.5527 31.3135C73.6924 31.6465 73.8213 31.9795 73.9609 32.3125C74.9277 32.3232 75.8945 32.3125 76.8613 32.3232C77.4521 32.334 77.957 32.8174 78 33.4082V38.0596C77.9785 38.6719 77.4629 39.1768 76.8613 39.1982C75.8945 39.209 74.9277 39.1875 73.9609 39.209C73.832 39.542 73.6924 39.875 73.5527 40.1973C74.1973 40.8525 74.8525 41.4971 75.4863 42.1416C75.7549 42.4102 75.9482 42.7754 75.9053 43.1621C75.873 43.5381 75.6152 43.8281 75.3574 44.0859C74.3691 45.0635 73.3916 46.0518 72.4033 47.0293C72.0703 47.373 71.5654 47.502 71.1143 47.3623C70.8887 47.2334 70.6846 47.0723 70.5127 46.8896C69.9004 46.2773 69.2988 45.665 68.6758 45.0635C68.3428 45.2031 68.0205 45.332 67.6875 45.4717C67.666 46.3848 67.6982 47.3086 67.6768 48.2217C67.6768 48.5869 67.5693 48.9736 67.2793 49.2207C66.9785 49.4893 66.5596 49.5215 66.1836 49.5215C64.8193 49.5107 63.4551 49.5215 62.0908 49.5107C61.6934 49.5215 61.2852 49.3818 61.0488 49.0488C60.8232 48.7588 60.8125 48.3721 60.8018 48.0176C60.8018 47.1689 60.8125 46.3203 60.8018 45.4824C60.4688 45.3428 60.1465 45.2139 59.8135 45.0742C59.1582 45.708 58.5137 46.374 57.8584 47.0078C57.5898 47.2764 57.2246 47.4697 56.8379 47.416C56.4619 47.3838 56.1719 47.126 55.9248 46.8789C54.9795 45.9229 54.0342 44.9775 53.0781 44.0322C52.8418 43.7959 52.6162 43.5059 52.584 43.1514C52.5303 42.7646 52.7344 42.3994 53.0029 42.1416C53.6475 41.4863 54.3027 40.8525 54.9365 40.1973C54.7969 39.8643 54.668 39.542 54.5283 39.209C53.6045 39.1875 52.6914 39.209 51.7676 39.1982C51.3809 39.1982 50.9619 39.0586 50.7256 38.7363C50.5 38.4463 50.4893 38.0596 50.4893 37.7051C50.5 36.3838 50.4893 35.0518 50.4893 33.7305C50.4893 33.3867 50.5322 33.0107 50.7793 32.7422C51.0156 32.4521 51.4023 32.334 51.7676 32.3447C52.6914 32.334 53.6045 32.3555 54.5283 32.334C54.6572 32.001 54.7969 31.6787 54.9365 31.3457C54.3242 30.7012 53.6797 30.0781 53.0566 29.4443C52.8955 29.2832 52.7559 29.0898 52.6377 28.8965C52.4873 28.4453 52.6162 27.9404 52.9707 27.6074C53.9482 26.6191 54.9473 25.6416 55.9248 24.6533C56.1719 24.3955 56.4727 24.1377 56.8486 24.1162C57.2354 24.0625 57.6113 24.2666 57.8691 24.5352C58.5244 25.1797 59.1582 25.835 59.8135 26.4795C60.1465 26.3398 60.4688 26.2002 60.8125 26.0713C60.8232 25.1045 60.8125 24.1377 60.8232 23.1709C60.834 22.5479 61.3066 22.043 61.8975 22ZM63.1113 24.2988C63.0791 25.2549 63.165 26.2217 63.0684 27.167C62.9395 27.8008 62.2734 28.0156 61.7363 28.166C61.1025 28.3271 60.5654 28.7031 59.9639 28.9287C59.5557 29.0791 59.083 28.9502 58.7822 28.6494C58.1699 28.0586 57.5791 27.4463 56.9668 26.8447C56.4297 27.3818 55.8818 27.9189 55.3447 28.4668C55.8926 29.0146 56.4512 29.5732 56.999 30.1211C57.2139 30.3359 57.4287 30.5938 57.4717 30.9053C57.5576 31.3887 57.2568 31.8076 57.0635 32.2266C56.7627 32.7529 56.6445 33.3652 56.4082 33.9238C56.2363 34.3535 55.7744 34.6113 55.3232 34.6006C54.4746 34.6113 53.6367 34.6006 52.7881 34.6006C52.7881 35.3633 52.7881 36.126 52.7881 36.8887C53.6689 36.8994 54.5498 36.8779 55.4199 36.8994C55.9248 36.9102 56.3652 37.3076 56.4941 37.7803C56.6982 38.4355 56.9453 39.0801 57.2783 39.6816C57.5576 40.1328 57.5684 40.7559 57.1924 41.1533C56.5908 41.7871 55.957 42.3994 55.334 43.0225C55.8711 43.5596 56.4082 44.1074 56.9561 44.6445C57.5469 44.0645 58.127 43.4629 58.7178 42.8828C59.0186 42.5713 59.4697 42.4102 59.8887 42.5391C60.3076 42.6787 60.6836 42.915 61.0811 43.0977C61.543 43.3018 62.0479 43.3984 62.499 43.624C62.875 43.8174 63.1006 44.2471 63.0898 44.666C63.1006 45.5146 63.0898 46.3525 63.0898 47.2012C63.8525 47.2012 64.6152 47.2012 65.3779 47.2012C65.3887 46.3203 65.3672 45.4395 65.3887 44.5693C65.3994 44.0537 65.7969 43.624 66.2803 43.4951C66.9355 43.291 67.5801 43.0439 68.1816 42.7109C68.6328 42.4316 69.2559 42.4209 69.6533 42.7969C70.2979 43.3984 70.8994 44.043 71.5225 44.6553C72.0596 44.1182 72.6074 43.5811 73.1445 43.0332C72.5752 42.4639 72.0059 41.8945 71.4365 41.3252C71.2109 41.0996 71.0176 40.8096 70.9961 40.4873C70.9639 40.0039 71.2647 39.6064 71.458 39.1875C71.7373 38.6826 71.8447 38.1025 72.0703 37.5762C72.2422 37.1465 72.6934 36.8887 73.1553 36.8887C74.0039 36.8779 74.8525 36.8887 75.6904 36.8887C75.6904 36.126 75.6904 35.3633 75.6904 34.6006C74.7344 34.5684 73.7676 34.6543 72.8223 34.5576C72.1992 34.4287 71.9844 33.7734 71.8232 33.2363C71.6621 32.6025 71.2861 32.0654 71.0498 31.4639C70.8994 31.0557 71.0283 30.583 71.3291 30.2822C71.9199 29.6699 72.5322 29.0791 73.1338 28.4668C72.5967 27.9297 72.0596 27.3818 71.5117 26.8447C70.9424 27.4141 70.373 27.9834 69.8037 28.5527C69.5781 28.7783 69.2881 28.9717 68.9658 28.9932C68.5146 29.0254 68.1387 28.7568 67.752 28.5742C67.2148 28.2734 66.6133 28.1553 66.0547 27.9189C65.625 27.7471 65.3672 27.2852 65.3779 26.834C65.3672 25.9854 65.3779 25.1475 65.3779 24.2988C64.626 24.2881 63.874 24.2881 63.1113 24.2988Z" fill="#1C2436"/>
<path d="M29.7349 27.7578C30.1001 27.7148 30.4761 27.7363 30.8413 27.7363C37.0181 27.7363 43.1841 27.7363 49.3609 27.7363C49.3609 28.123 49.3609 28.499 49.3609 28.8857C49.3609 29.2725 49.3716 29.6592 49.3501 30.0352C43.2486 30.0137 37.1363 30.0352 31.0347 30.0244C31.0239 36.8994 31.0347 43.7744 31.0347 50.6494C30.648 50.6494 30.272 50.6494 29.8853 50.6494C29.5093 50.6494 29.1226 50.6494 28.7359 50.6494C28.7359 43.6777 28.7359 36.7061 28.7359 29.7344C28.7359 29.3691 28.7144 29.0146 28.7788 28.6494C28.8433 28.1875 29.2622 27.8008 29.7349 27.7578Z" fill="#1C2436"/>
<path d="M63.9703 31.1952C65.0767 31.12 66.2154 31.4745 67.0748 32.1728C68.0738 32.9569 68.7291 34.1708 68.8043 35.4491C68.8902 36.5663 68.5357 37.7157 67.8375 38.5859C67.0641 39.5849 65.8609 40.2294 64.5934 40.3153C63.3902 40.412 62.1441 40.0038 61.2418 39.1982C60.0924 38.2099 59.5016 36.62 59.7271 35.1161C59.985 33.0107 61.8648 31.2704 63.9703 31.1952ZM63.648 33.5478C62.8209 33.7626 62.1549 34.4823 62.0045 35.3202C61.8326 36.1259 62.1549 37.0175 62.7994 37.5331C63.4225 38.0595 64.3463 38.1991 65.0982 37.8876C65.8824 37.5761 66.4518 36.8134 66.5162 35.9755C66.5914 35.2021 66.2476 34.4071 65.6246 33.9452C65.0875 33.5048 64.3248 33.3544 63.648 33.5478Z" fill="#1C2436"/>
<path d="M34.29 32.3447C34.6445 32.291 34.999 32.3232 35.3428 32.3125C38.7803 32.3125 42.2285 32.3125 45.666 32.3125C46.0098 32.3125 46.3857 32.3662 46.6543 32.6025C46.9766 32.8711 47.0625 33.3008 47.0518 33.6982C47.0518 35.0947 47.0518 36.502 47.0518 37.8984C47.0518 38.2852 46.9229 38.7041 46.5898 38.9404C46.332 39.1445 45.9775 39.1875 45.6553 39.1875C41.96 39.1875 38.2754 39.1875 34.5801 39.1875C34.1826 39.1982 33.7744 39.0586 33.5381 38.7256C33.3018 38.4355 33.3018 38.0381 33.291 37.6836C33.3018 36.2871 33.2803 34.8906 33.3018 33.4941C33.3125 32.9355 33.7314 32.4092 34.29 32.3447ZM35.6006 34.6006C35.6006 35.3633 35.6006 36.126 35.6006 36.8887C38.6514 36.8887 41.7129 36.8887 44.7637 36.8887C44.7637 36.126 44.7637 35.3633 44.7637 34.6006C41.7129 34.6006 38.6621 34.6006 35.6006 34.6006Z" fill="#1C2436"/>
<path d="M33.3125 41.4756C34.0752 41.4863 34.8486 41.4648 35.6113 41.4971C35.6006 42.249 35.6006 43.001 35.6113 43.7529C34.8486 43.7959 34.0752 43.7529 33.3125 43.7744C33.3125 43.0117 33.3125 42.2383 33.3125 41.4756Z" fill="#1C2436"/>
<path d="M37.8887 41.4863C38.6514 41.4541 39.4141 41.4863 40.1768 41.4648C40.1982 42.2275 40.1875 43.001 40.1875 43.7637C39.4248 43.7529 38.6514 43.7852 37.8887 43.7422C37.8994 43.001 37.8994 42.249 37.8887 41.4863Z" fill="#1C2436"/>
<path d="M33.3125 46.0625C37.8994 46.0625 42.4756 46.0625 47.0625 46.0625C47.0625 46.8252 47.0625 47.5879 47.0625 48.3506C42.4756 48.3506 37.8994 48.3506 33.3125 48.3506C33.3125 47.5879 33.3125 46.8252 33.3125 46.0625Z" fill="#1C2436"/>
<path d="M27.5869 52.9375C28.3496 52.9375 29.1123 52.9375 29.875 52.9375C43.625 52.9375 57.375 52.9375 71.125 52.9375C71.8877 52.9375 72.6504 52.9375 73.4131 52.9375C73.4131 53.7002 73.4131 54.4629 73.4131 55.2256C58.1377 55.2256 42.8623 55.2256 27.5762 55.2256C27.5762 54.4629 27.5869 53.7002 27.5869 52.9375Z" fill="#1C2436"/>
<path d="M52.7988 23.1494C55.4736 23.1494 58.1484 23.1494 60.8232 23.1494C60.8125 24.1162 60.8232 25.083 60.8125 26.0498C60.4795 26.1787 60.1465 26.3184 59.8135 26.458C59.1582 25.8135 58.5244 25.1582 57.8691 24.5137C57.6006 24.2451 57.2354 24.041 56.8486 24.0947C56.4727 24.127 56.1826 24.3848 55.9248 24.6318C54.9473 25.6201 53.9482 26.5977 52.9707 27.5859C52.627 27.9189 52.498 28.4238 52.6377 28.875C51.542 28.875 50.4463 28.875 49.3506 28.875C49.3506 28.499 49.3506 28.1123 49.3506 27.7256C43.1738 27.7256 37.0078 27.7256 30.8311 27.7256C30.4658 27.7256 30.0898 27.7041 29.7246 27.7471C29.252 27.79 28.8438 28.1768 28.7578 28.6387C28.6934 28.9932 28.7256 29.3584 28.7148 29.7236C28.7148 36.6953 28.7148 43.667 28.7148 50.6387C29.1016 50.6387 29.4775 50.6387 29.8643 50.6387C29.8643 51.4014 29.8643 52.1641 29.8643 52.9268C29.1016 52.9268 28.3389 52.9268 27.5762 52.9268C26.8135 52.9268 26.0508 52.9268 25.2881 52.9268C25.2881 43.8281 25.2881 34.7295 25.2881 25.6416C25.2881 25.2764 25.3525 24.8896 25.6318 24.6318C25.8896 24.3525 26.2871 24.2881 26.6416 24.2881C35.3535 24.2881 44.0654 24.2881 52.7773 24.2881C52.7988 23.9121 52.7988 23.5254 52.7988 23.1494Z" fill="white"/>
<path d="M67.6875 23.1387C69.9434 23.1387 72.1992 23.1387 74.4551 23.1387C75.0137 23.1387 75.583 23.3105 76.0127 23.6758C76.5713 24.127 76.8613 24.8359 76.8506 25.5449C76.8506 27.8008 76.8506 30.0566 76.8506 32.3125C75.8838 32.3018 74.917 32.3232 73.9502 32.3018C73.8105 31.9688 73.6816 31.6357 73.542 31.3027C74.1436 30.6904 74.7559 30.0781 75.3682 29.4658C75.5938 29.2295 75.8408 28.9717 75.8838 28.6279C75.9697 28.209 75.7549 27.8008 75.4648 27.5215C74.5947 26.6406 73.7139 25.7705 72.833 24.8896C72.4893 24.5566 72.1455 24.1162 71.6299 24.0732C71.2432 24.0195 70.8779 24.2236 70.6094 24.4922C69.9648 25.1367 69.3203 25.7812 68.665 26.4258C68.332 26.2861 68.0098 26.1572 67.6768 26.0283C67.6768 25.0723 67.6982 24.1055 67.6875 23.1387Z" fill="white"/>
<path d="M63.1113 24.2988C63.874 24.2988 64.6367 24.2988 65.3994 24.2988C65.3994 25.1475 65.3887 25.9854 65.3994 26.834C65.3887 27.2852 65.6465 27.7471 66.0762 27.9189C66.6348 28.1553 67.2471 28.2734 67.7734 28.5742C68.1602 28.7568 68.5469 29.0254 68.9873 28.9932C69.3203 28.9824 69.5996 28.7783 69.8252 28.5527C70.3945 27.9834 70.9639 27.4141 71.5332 26.8447C72.0703 27.3818 72.6182 27.9189 73.1553 28.4668C72.5537 29.0791 71.9414 29.6699 71.3506 30.2822C71.0498 30.583 70.9209 31.0557 71.0713 31.4639C71.3076 32.0654 71.6729 32.6133 71.8447 33.2363C71.9951 33.7734 72.2207 34.4287 72.8438 34.5576C73.7998 34.665 74.7559 34.5791 75.7119 34.6006C75.7119 35.3633 75.7119 36.126 75.7119 36.8887C74.8633 36.8887 74.0146 36.8779 73.1768 36.8887C72.7256 36.8779 72.2637 37.1465 72.0918 37.5762C71.8662 38.1025 71.7588 38.6826 71.4795 39.1875C71.2861 39.6064 70.9854 40.0039 71.0176 40.4873C71.0391 40.8203 71.2324 41.0996 71.458 41.3252C72.0273 41.8945 72.5967 42.4639 73.166 43.0332C72.6289 43.5703 72.0918 44.1074 71.5439 44.6553C70.9102 44.043 70.3086 43.3984 69.6748 42.7969C69.2773 42.4209 68.6543 42.4316 68.2031 42.7109C67.6016 43.0439 66.957 43.291 66.3018 43.4951C65.8184 43.624 65.4209 44.0537 65.4102 44.5693C65.3779 45.4502 65.4102 46.3311 65.3994 47.2012C64.6367 47.2012 63.874 47.2012 63.1113 47.2012C63.1113 46.3525 63.1221 45.5146 63.1113 44.666C63.1221 44.2471 62.8965 43.8174 62.5205 43.624C62.0693 43.4092 61.5645 43.3018 61.1025 43.0977C60.7051 42.915 60.3291 42.6787 59.9102 42.5391C59.4912 42.4102 59.0293 42.582 58.7393 42.8828C58.1484 43.4629 57.5684 44.0645 56.9775 44.6445C56.4404 44.1074 55.9033 43.5703 55.3555 43.0225C55.9678 42.3994 56.6123 41.7871 57.2139 41.1533C57.6006 40.7559 57.5791 40.1328 57.2998 39.6816C56.9668 39.0801 56.7197 38.4355 56.5156 37.7803C56.3867 37.2969 55.957 36.9102 55.4414 36.8994C54.5605 36.8672 53.6797 36.8994 52.8096 36.8887C52.8096 36.126 52.8096 35.3633 52.8096 34.6006C53.6582 34.6006 54.4961 34.6113 55.3447 34.6006C55.7959 34.6113 56.2578 34.3535 56.4297 33.9238C56.666 33.3652 56.7842 32.7637 57.085 32.2266C57.2783 31.8076 57.5791 31.3887 57.4932 30.9053C57.4502 30.5938 57.2354 30.3359 57.0205 30.1211C56.4619 29.5732 55.9141 29.0146 55.3662 28.4668C55.9033 27.9297 56.4404 27.3818 56.9883 26.8447C57.6006 27.4463 58.1914 28.0586 58.8037 28.6494C59.1045 28.9502 59.5771 29.0791 59.9854 28.9287C60.5869 28.6924 61.124 28.3271 61.7578 28.166C62.2949 28.0049 62.9609 27.79 63.0898 27.167C63.165 26.2109 63.0791 25.2441 63.1113 24.2988ZM63.9707 31.1953C61.8652 31.2812 59.9854 33.0215 59.7275 35.1055C59.502 36.6094 60.0928 38.1992 61.2422 39.1875C62.1445 39.9932 63.3906 40.4014 64.5938 40.3047C65.8506 40.2295 67.0645 39.5742 67.8379 38.5752C68.5469 37.7051 68.8906 36.5557 68.8047 35.4385C68.7295 34.1709 68.085 32.9463 67.0752 32.1621C66.2158 31.4639 65.0771 31.1201 63.9707 31.1953Z" fill="#4DF189"/>
<path d="M35.6006 34.6006C38.6514 34.6006 41.7129 34.6006 44.7637 34.6006C44.7637 35.3633 44.7637 36.126 44.7637 36.8887C41.7129 36.8887 38.6514 36.8887 35.6006 36.8887C35.6006 36.1367 35.6006 35.3633 35.6006 34.6006Z" fill="white"/>
<path d="M73.9609 39.1982C74.9277 39.1768 75.8945 39.1982 76.8613 39.1875C76.8613 41.8623 76.8613 44.5371 76.8613 47.2119C76.4746 47.2119 76.0986 47.2119 75.7119 47.2119C75.7119 49.124 75.7119 51.0361 75.7119 52.9375C74.9492 52.9375 74.1865 52.9375 73.4238 52.9375C72.6611 52.9375 71.8984 52.9375 71.1357 52.9375C71.1357 51.0791 71.1357 49.21 71.1357 47.3516C71.5869 47.502 72.0918 47.373 72.4248 47.0186C73.4131 46.041 74.3906 45.0527 75.3789 44.0752C75.6367 43.8174 75.8945 43.5273 75.9268 43.1514C75.9805 42.7646 75.7764 42.3887 75.5078 42.1309C74.8633 41.4756 74.208 40.8418 73.5742 40.1865C73.6924 39.8535 73.8213 39.5205 73.9609 39.1982Z" fill="white"/>
<path d="M44.6348 63.25C48.5449 63.2393 52.4658 63.2393 56.376 63.25C56.6445 65.5381 56.9453 67.8262 57.2246 70.1143C52.7451 70.1143 48.2656 70.1143 43.7754 70.1143C44.0654 67.8369 44.3555 65.5488 44.6348 63.25Z" fill="white"/>
<path d="M49.3506 28.875C50.4463 28.875 51.542 28.875 52.6377 28.875C52.7559 29.0684 52.8955 29.2617 53.0566 29.4229C53.6797 30.0566 54.3242 30.6797 54.9365 31.3242C54.7969 31.6572 54.668 31.9795 54.5283 32.3125C53.6045 32.334 52.6914 32.3018 51.7676 32.3232C51.4023 32.3232 51.0156 32.4307 50.7793 32.7207C50.5322 32.9893 50.4893 33.3652 50.4893 33.709C50.4893 35.0303 50.4893 36.3623 50.4893 37.6836C50.4893 38.0381 50.5 38.4248 50.7256 38.7148C50.9619 39.0479 51.3701 39.1875 51.7676 39.1768C52.6914 39.1875 53.6045 39.166 54.5283 39.1875C54.6572 39.5205 54.7969 39.8428 54.9365 40.1758C54.3027 40.8311 53.6367 41.4756 53.0029 42.1201C52.7344 42.3887 52.541 42.7432 52.584 43.1299C52.6055 43.4844 52.8418 43.7637 53.0781 44.0107C54.0234 44.9561 54.9795 45.9014 55.9248 46.8574C56.1826 47.1045 56.4727 47.3623 56.8379 47.3945C57.2246 47.4482 57.5898 47.2549 57.8584 46.9863C58.5137 46.3418 59.1475 45.6865 59.8135 45.0527C60.1465 45.1924 60.4688 45.3213 60.8018 45.4609C60.8125 46.3096 60.8018 47.1582 60.8018 47.9961C60.8018 48.3506 60.8125 48.7373 61.0488 49.0273C61.2852 49.3604 61.7041 49.5 62.0908 49.4893C63.4551 49.5 64.8193 49.4893 66.1836 49.5C66.5596 49.5 66.9893 49.4785 67.2793 49.1992C67.5693 48.9521 67.6768 48.5654 67.6768 48.2002C67.6875 47.2871 67.666 46.3633 67.6875 45.4502C68.0205 45.3105 68.3428 45.1816 68.6758 45.042C69.2988 45.6436 69.9004 46.2559 70.5127 46.8682C70.6953 47.0508 70.8994 47.2012 71.1143 47.3408C71.1143 49.1992 71.1143 51.0684 71.1143 52.9268C57.3643 52.9268 43.6143 52.9268 29.8643 52.9268C29.8643 52.1641 29.8643 51.4014 29.8643 50.6387C30.251 50.6387 30.627 50.6387 31.0137 50.6387C31.0137 43.7637 31.0137 36.8887 31.0137 30.0137C37.1152 30.0137 43.2275 30.0029 49.3291 30.0244C49.3613 29.6484 49.3613 29.2617 49.3506 28.875ZM34.29 32.3447C33.7314 32.4092 33.3125 32.9355 33.3125 33.4941C33.291 34.8906 33.3125 36.2871 33.3018 37.6836C33.3018 38.0381 33.3125 38.4355 33.5488 38.7256C33.7852 39.0586 34.2041 39.1982 34.5908 39.1875C38.2861 39.1982 41.9707 39.1875 45.666 39.1875C45.9883 39.1875 46.332 39.1553 46.6006 38.9404C46.9336 38.7041 47.0625 38.2852 47.0625 37.8984C47.0625 36.502 47.0625 35.0947 47.0625 33.6982C47.0732 33.3008 46.9766 32.8711 46.665 32.6025C46.3965 32.3555 46.0205 32.3018 45.6768 32.3125C42.2393 32.3125 38.791 32.3125 35.3535 32.3125C34.999 32.3125 34.6445 32.291 34.29 32.3447ZM33.3125 41.4756C33.3018 42.2383 33.3018 43.0117 33.3125 43.7744C34.0752 43.7529 34.8486 43.7959 35.6113 43.7529C35.6006 43.001 35.6006 42.249 35.6113 41.4971C34.8486 41.4648 34.0859 41.4863 33.3125 41.4756ZM37.8887 41.4863C37.8994 42.2383 37.8994 42.9902 37.8887 43.7529C38.6514 43.7959 39.4248 43.7637 40.1875 43.7744C40.1875 43.0117 40.1982 42.2383 40.1768 41.4756C39.4141 41.4971 38.6514 41.4648 37.8887 41.4863ZM33.3125 46.0625C33.3125 46.8252 33.3125 47.5879 33.3125 48.3506C37.8994 48.3506 42.4756 48.3506 47.0625 48.3506C47.0625 47.5879 47.0625 46.8252 47.0625 46.0625C42.4756 46.0625 37.8994 46.0625 33.3125 46.0625Z" fill="#F6F6F9"/>
<path d="M63.6483 33.5478C64.3251 33.3652 65.0878 33.5049 65.6356 33.9346C66.2587 34.3965 66.6024 35.1914 66.5272 35.9648C66.4628 36.8027 65.8827 37.5654 65.1093 37.8769C64.3573 38.1885 63.4335 38.0488 62.8104 37.5225C62.1659 37.0068 61.8436 36.126 62.0155 35.3096C62.1552 34.4717 62.8212 33.7627 63.6483 33.5478Z" fill="#F6F6F9"/>
<path d="M25.2987 52.9375C26.0614 52.9375 26.8241 52.9375 27.5868 52.9375C27.5868 53.7002 27.5868 54.4629 27.5868 55.2256C42.8622 55.2256 58.1376 55.2256 73.4237 55.2256C73.4237 54.4629 73.4237 53.7002 73.4237 52.9375C74.1864 52.9375 74.9491 52.9375 75.7118 52.9375C75.7118 55.1182 75.7118 57.3096 75.7118 59.4902C75.7118 59.8877 75.6796 60.3281 75.3681 60.6074C75.1102 60.8867 74.7128 60.9512 74.3475 60.9512C58.6317 60.9512 42.9052 60.9512 27.1893 60.9512C26.6845 60.9404 26.0936 61.0264 25.6962 60.6611C25.3847 60.4033 25.288 59.9844 25.2987 59.5977C25.288 57.3848 25.2987 55.1611 25.2987 52.9375Z" fill="#F6F6F9"/>
<path d="M40.1875 72.4131C47.0625 72.4131 53.9375 72.4131 60.8018 72.4131C60.8018 73.1758 60.8125 73.9492 60.8018 74.7119C53.9268 74.7012 47.0625 74.7119 40.1875 74.7119C40.1875 73.9385 40.1875 73.1758 40.1875 72.4131Z" fill="#F6F6F9"/>
</g>
<defs>
<clipPath id="clip0_529_5149">
<rect width="55" height="55" fill="white" transform="translate(23 22)"/>
</clipPath>
</defs>
</svg>
