<svg width="100" height="100" viewBox="0 0 100 100" fill="none" xmlns="http://www.w3.org/2000/svg">
<rect width="100" height="100" rx="4" fill="#F6F6F9"/>
<g clip-path="url(#clip0_503_4259)">
<path d="M36.2988 22H37.3516C40.1982 22.0859 43.0127 23.042 45.29 24.75C47.9434 26.7158 49.8662 29.6484 50.5967 32.8711C51.2949 35.9111 50.9297 39.1768 49.5654 41.9912C48.2441 44.7627 45.9775 47.0723 43.2383 48.4473C40.3594 49.9082 36.9648 50.2949 33.8174 49.5645C30.8525 48.8984 28.1562 47.2119 26.2227 44.8809C24.2676 42.5498 23.1396 39.5742 23 36.5449V35.5781C23.0537 34.1172 23.3115 32.6562 23.8057 31.2705C24.9229 28.1445 27.1895 25.4482 30.0898 23.8154C31.9805 22.7305 34.1289 22.1396 36.2988 22ZM32.6572 24.9648C30.0684 25.9746 27.8662 27.9297 26.5557 30.3789C25.3418 32.624 24.8906 35.2773 25.2988 37.8018C25.75 40.6914 27.3184 43.377 29.5957 45.1924C30.0684 42.8291 31.7549 40.7559 33.9678 39.8105C34.8701 39.4346 35.8691 39.1338 36.8574 39.3057L36.0625 39.1875L36.8574 39.0586C35.9766 39.2197 35.0957 38.8975 34.333 38.4785C32.9258 37.6943 31.916 36.2441 31.6689 34.6543C31.4111 33.0859 31.8945 31.4209 32.958 30.25C33.9141 29.1758 35.3105 28.499 36.75 28.4561C38.1465 28.3916 39.5645 28.9072 40.5957 29.8633C41.7988 30.959 42.4648 32.624 42.3145 34.2461C42.1855 35.9648 41.165 37.5869 39.6719 38.4463C38.8877 38.8867 37.9854 39.2305 37.083 39.0586L37.8779 39.1875L37.083 39.3057C37.3301 39.2842 37.5664 39.2627 37.8135 39.252C40.9824 39.5205 43.7324 42.0986 44.3447 45.2031C46.4717 43.4951 47.9971 41.0352 48.5449 38.3496C49.0928 35.75 48.7168 32.957 47.5029 30.5938C46.1387 27.9082 43.7109 25.7812 40.8535 24.8037C38.2109 23.8799 35.2461 23.9336 32.6572 24.9648ZM36.5566 30.626C34.9131 30.7979 33.5918 32.3984 33.7529 34.042C33.8281 35.7607 35.4824 37.2002 37.1904 37.0283C38.9092 36.9531 40.3379 35.3096 40.1768 33.5908C40.1016 31.8076 38.3291 30.3467 36.5566 30.626ZM33.9355 42.2812C32.5498 43.2158 31.6582 44.8271 31.5938 46.4922C34.9023 48.2109 39.0166 48.2002 42.3252 46.4922C42.2822 45.5361 41.9922 44.6016 41.4658 43.7959C40.6387 42.5068 39.2314 41.5938 37.7168 41.3896C36.4062 41.207 35.0205 41.5186 33.9355 42.2812Z" fill="#1C2436"/>
<path d="M51.6062 25.6309C51.7028 25.1582 52.154 24.7822 52.6481 24.793C55.4411 24.7822 58.2341 24.793 61.0271 24.793C62.2194 24.7822 63.4226 24.9541 64.529 25.3731C65.0661 25.5879 65.3132 26.2539 65.0983 26.7803C64.948 27.0811 64.6794 27.3281 64.3464 27.4033C63.9704 27.5 63.6052 27.3174 63.2399 27.2207C61.7683 26.8018 60.2214 26.9844 58.7175 26.9414C60.4362 28.3379 61.6716 30.3252 62.112 32.5059C62.4021 33.8594 62.2946 35.2559 62.3054 36.6201C62.3161 37.2002 61.8005 37.6621 61.2419 37.6944C62.6814 39.5957 64.0993 41.5078 65.528 43.4092C66.9567 41.5078 68.3747 39.5957 69.8142 37.7051C69.2985 37.6621 68.8044 37.2754 68.7614 36.7383C68.7292 35.7285 68.7722 34.7295 68.7185 33.7197C68.6862 33.1934 69.1052 32.7207 69.6208 32.624C70.1794 32.5381 70.7595 32.9463 70.8347 33.5049C70.9206 34.1817 70.8776 34.8584 70.8884 35.5352C71.3718 35.5674 71.8767 35.4707 72.3493 35.6104C72.9939 35.836 73.2517 36.7168 72.822 37.2539C70.7595 40.0147 68.6755 42.7754 66.613 45.5361C66.4196 45.8047 66.2155 46.1055 65.8825 46.2129C65.4314 46.3848 64.8942 46.1914 64.6257 45.8047C62.488 42.958 60.3503 40.1113 58.2233 37.2647C57.7937 36.7276 58.0515 35.836 58.696 35.6211C59.1687 35.4815 59.6628 35.5781 60.1569 35.5459C60.1569 34.7188 60.1892 33.8701 60.0173 33.0537C59.6521 31.0986 58.4704 29.3262 56.8161 28.2197C55.5915 27.3818 54.1091 26.9522 52.6267 26.9414C51.9821 26.9522 51.4343 26.2754 51.6062 25.6309Z" fill="#1C2436"/>
<path d="M67.3113 28.3701C67.7409 28.0049 68.4499 28.0479 68.8152 28.4883C69.2341 28.9395 69.1374 29.7237 68.6325 30.0674C68.2136 30.3575 67.6013 30.3145 67.2468 29.9492C66.8064 29.5303 66.8493 28.7676 67.3113 28.3701Z" fill="#1C2436"/>
<path d="M59.0401 50.0049C61.7578 48.9414 64.8193 48.791 67.6338 49.543C70.0723 50.1875 72.3174 51.5196 74.0791 53.335C76.5176 55.8379 77.9463 59.2647 78.0108 62.7559V63.5186C77.8818 67.0635 76.3565 70.5332 73.8106 73.0147C71.3076 75.4961 67.8486 76.9463 64.3359 77H63.6699C61.3174 76.9248 58.9863 76.2696 56.9561 75.0664C53.2393 72.8965 50.6504 68.9326 50.1777 64.6572C49.8125 61.585 50.5108 58.3838 52.1436 55.752C53.7227 53.1524 56.1826 51.0899 59.0401 50.0049ZM59.6416 52.0674C56.7842 53.2061 54.4209 55.5049 53.1963 58.3194C52.0576 60.8975 51.9072 63.8946 52.7666 66.5801C53.4649 68.8037 54.8399 70.8125 56.666 72.2735C57.1279 69.9746 58.7393 67.9336 60.877 66.9668C61.8223 66.5479 62.875 66.2149 63.917 66.3867L63.1221 66.2686L63.917 66.1397C63.0039 66.3008 62.1123 65.9678 61.3281 65.5274C59.9317 64.7217 58.9326 63.2608 58.7178 61.6494C58.4922 60.1026 58.9756 58.4697 60.0283 57.3096C60.9844 56.2354 62.3701 55.5694 63.7988 55.5264C65.2061 55.4619 66.624 55.9776 67.6553 56.9444C68.8584 58.0401 69.5137 59.7051 69.374 61.3272C69.2451 63.0459 68.2246 64.6572 66.7315 65.5274C65.9473 65.9678 65.0449 66.3115 64.1318 66.1397L64.9268 66.2686L64.1318 66.3867C64.3789 66.3653 64.6152 66.333 64.8623 66.333C68.0313 66.6123 70.7813 69.1797 71.3828 72.2735C73.1983 70.8125 74.584 68.8145 75.2822 66.5908C76.0127 64.3028 76.0127 61.7783 75.2822 59.4903C74.1436 55.8164 71.0928 52.8086 67.3975 51.7237C64.8838 50.9502 62.0908 51.0684 59.6416 52.0674ZM63.3477 57.7393C62.7461 57.8682 62.1983 58.1797 61.7578 58.6094C60.6729 59.6514 60.501 61.4668 61.3711 62.6914C62.1983 63.959 63.9707 64.4746 65.3457 63.8194C66.7744 63.2178 67.5801 61.499 67.1289 60.0166C66.7207 58.416 64.959 57.3418 63.3477 57.7393ZM60.9414 69.3946C59.5879 70.3399 58.7285 71.919 58.6641 73.5625C61.9727 75.2813 66.0869 75.2813 69.3955 73.5625C69.3526 72.6172 69.0625 71.6719 68.5469 70.877C67.6983 69.5557 66.2588 68.6319 64.7012 68.4492C63.3906 68.2881 62.0156 68.6211 60.9414 69.3946Z" fill="#1C2436"/>
<path d="M34.5589 53.2061C34.8275 52.8086 35.3646 52.6153 35.8158 52.7871C36.1703 52.9053 36.3744 53.2383 36.5892 53.5176C38.555 56.1387 40.5208 58.7598 42.4759 61.3701C42.68 61.6494 42.9378 61.918 42.9593 62.2725C43.0345 62.8418 42.5833 63.4111 42.014 63.4541C41.6166 63.4756 41.2191 63.4541 40.8216 63.4649C40.8216 64.292 40.7894 65.1299 40.9613 65.9463C41.348 68.084 42.7337 69.9961 44.6136 71.0596C45.7738 71.7363 47.1166 72.0586 48.4593 72.0694C49.1898 72.1123 49.6625 73.0147 49.2865 73.6377C49.0716 74.0567 48.5882 74.25 48.1371 74.207C45.3441 74.207 42.5404 74.207 39.7474 74.207C38.0394 74.207 36.3207 73.7451 34.8597 72.8643C32.5287 71.5108 30.8207 69.126 30.2835 66.4834C30.0687 65.4951 30.0794 64.4746 30.0902 63.4649C29.6068 63.4326 29.1019 63.5293 28.64 63.3897C27.9847 63.1748 27.7269 62.2832 28.1566 61.7461C30.2943 58.8994 32.432 56.0528 34.5589 53.2061ZM31.1751 61.3057C31.7015 61.3272 32.1849 61.7354 32.2279 62.2725C32.2923 63.6367 32.1097 65.0332 32.4642 66.376C33.0765 68.9111 35.1175 71.0274 37.6205 71.7471C39.1244 72.2197 40.7249 72.0156 42.2718 72.0586C40.1986 70.3936 38.8558 67.8477 38.6947 65.1836C38.6517 64.249 38.6732 63.3145 38.6732 62.3799C38.6625 61.7998 39.1781 61.3272 39.7367 61.3057C38.2972 59.4043 36.8792 57.4922 35.4505 55.5908C34.0326 57.4922 32.6039 59.4043 31.1751 61.3057Z" fill="#1C2436"/>
<path d="M32.6575 24.9649C35.2464 23.9336 38.2112 23.8799 40.8323 24.8037C43.6897 25.7813 46.1174 27.9082 47.4817 30.5938C48.7063 32.957 49.0715 35.7393 48.5237 38.3496C47.9758 41.0352 46.4505 43.4844 44.3235 45.2031C43.7219 42.0986 40.9612 39.5313 37.7923 39.252C37.5452 39.2627 37.3089 39.2949 37.0618 39.3057L37.8567 39.1875L37.0618 39.0586C37.9749 39.2197 38.8772 38.8867 39.6507 38.4463C41.1438 37.5869 42.1751 35.9649 42.2932 34.2461C42.4329 32.624 41.7776 30.959 40.5745 29.8633C39.5432 28.9072 38.136 28.3916 36.7288 28.4561C35.2893 28.499 33.8928 29.1758 32.9368 30.25C31.8733 31.4209 31.3899 33.0967 31.6477 34.6543C31.884 36.2442 32.9046 37.6944 34.3118 38.4785C35.0745 38.8975 35.9553 39.2197 36.8362 39.0586L36.0413 39.1875L36.8362 39.3057C35.8479 39.1338 34.8596 39.4346 33.9465 39.8106C31.7551 40.7666 30.0686 42.8399 29.596 45.2031C27.3186 43.377 25.7503 40.6914 25.2991 37.8125C24.8909 35.2881 25.3421 32.6348 26.5559 30.3897C27.8665 27.9297 30.0686 25.9746 32.6575 24.9649Z" fill="#4DF189"/>
<path d="M59.642 52.0674C62.0912 51.0683 64.8842 50.9502 67.4193 51.7129C71.1147 52.7978 74.1654 55.8056 75.3041 59.4795C76.0346 61.7783 76.0346 64.292 75.3041 66.5801C74.6059 68.8037 73.2309 70.8017 71.4047 72.2627C70.8031 69.1582 68.0531 66.5908 64.8842 66.3223C64.6371 66.333 64.39 66.3652 64.1537 66.376L64.9486 66.2578L64.1537 66.1289C65.0668 66.29 65.9691 65.957 66.7533 65.5166C68.2465 64.6572 69.267 63.0351 69.3959 61.3164C69.5463 59.6943 68.8803 58.0293 67.6772 56.9336C66.6459 55.9775 65.2279 55.4512 63.8207 55.5156C62.392 55.5693 60.9955 56.2353 60.0502 57.2988C58.9975 58.459 58.5033 60.0918 58.7397 61.6387C58.9545 63.2392 59.9535 64.7002 61.35 65.5166C62.1342 65.957 63.0258 66.29 63.9389 66.1289L63.144 66.2578L63.9389 66.376C62.8861 66.1933 61.8441 66.5264 60.8988 66.956C58.7611 67.9336 57.1498 69.9639 56.6879 72.2627C54.8725 70.8017 53.4867 68.8037 52.7885 66.5693C51.9291 63.8838 52.0795 60.8974 53.2182 58.3086C54.4213 55.5049 56.7846 53.206 59.642 52.0674Z" fill="#4DF189"/>
<path d="M64.3467 27.4033C64.6797 27.3281 64.9482 27.0811 65.0986 26.7803C65.915 27.1885 66.667 27.7363 67.3115 28.3809C66.8496 28.7676 66.8066 29.541 67.2471 29.96C67.6016 30.3359 68.2139 30.3682 68.6328 30.0781C69.0947 30.8623 69.4385 31.7324 69.6318 32.624C69.1162 32.71 68.6973 33.1826 68.7295 33.7197C68.7832 34.7295 68.7295 35.7393 68.7725 36.7383C68.8154 37.2754 69.3096 37.6621 69.8252 37.7051C68.3857 39.6064 66.9678 41.5186 65.5391 43.4092C64.1104 41.5078 62.6924 39.5957 61.2529 37.6943C61.8115 37.6621 62.3271 37.2002 62.3164 36.6201C62.3057 35.2451 62.4131 33.8594 62.123 32.5059C61.6719 30.3252 60.4365 28.3379 58.7178 26.9414C60.2217 26.9844 61.7686 26.791 63.2402 27.2207C63.6055 27.3066 63.9707 27.5 64.3467 27.4033Z" fill="#D6FFD8"/>
<path d="M31.1748 61.3057C32.6143 59.4043 34.0322 57.4922 35.4609 55.5908C36.8896 57.4922 38.3184 59.4043 39.7471 61.3057C39.1777 61.3271 38.6729 61.7998 38.6836 62.3799C38.6836 63.3145 38.6621 64.249 38.7051 65.1836C38.8662 67.8477 40.209 70.3936 42.2822 72.0586C40.7354 72.0156 39.1348 72.2197 37.6309 71.7471C35.1279 71.0273 33.0869 68.9111 32.4746 66.376C32.1094 65.0332 32.3027 63.6367 32.2383 62.2725C32.1846 61.7353 31.6904 61.3271 31.1748 61.3057Z" fill="#D6FFD8"/>
<path d="M36.5563 30.626C38.3288 30.3467 40.1012 31.8076 40.1764 33.6016C40.3375 35.3096 38.9088 36.9639 37.1901 37.0391C35.4821 37.211 33.8278 35.7715 33.7526 34.0528C33.5915 32.3985 34.9127 30.7979 36.5563 30.626Z" fill="#D6FFD8"/>
<path d="M33.9355 42.2812C35.0205 41.5185 36.4062 41.207 37.7168 41.3896C39.2422 41.5937 40.6494 42.5068 41.4658 43.7959C41.9922 44.5908 42.2715 45.5361 42.3252 46.4922C39.0166 48.2002 34.9023 48.2002 31.5938 46.4922C31.6582 44.8164 32.5498 43.2158 33.9355 42.2812Z" fill="#EBFA9E"/>
<path d="M63.3477 57.7393C64.959 57.3418 66.7315 58.416 67.1397 60.0166C67.5908 61.499 66.7744 63.2178 65.3565 63.8193C63.9815 64.4746 62.209 63.959 61.3819 62.6914C60.5117 61.4668 60.6836 59.6406 61.7686 58.6094C62.1875 58.1797 62.7461 57.8682 63.3477 57.7393Z" fill="#FFF7D6"/>
<path d="M60.9414 69.3945C62.0156 68.6318 63.3906 68.2881 64.7012 68.4492C66.2588 68.6318 67.709 69.5556 68.5469 70.8769C69.0625 71.6719 69.3525 72.6172 69.3955 73.5625C66.0869 75.2705 61.9727 75.2705 58.6641 73.5625C58.7285 71.9189 59.5986 70.3291 60.9414 69.3945Z" fill="#FFEFEB"/>
</g>
<defs>
<clipPath id="clip0_503_4259">
<rect width="55" height="55" fill="white" transform="translate(23 22)"/>
</clipPath>
</defs>
</svg>
