<svg width="100" height="100" viewBox="0 0 100 100" fill="none" xmlns="http://www.w3.org/2000/svg">
<rect width="100" height="100" rx="4" fill="#F6F6F9"/>
<g clip-path="url(#clip0_529_5122)">
<path d="M44.8496 22H56.1289C56.5693 22.0859 56.9346 22.4941 56.9131 22.9561C56.9131 24.4707 56.9131 25.9854 56.9131 27.5C57.8584 27.5107 58.793 27.4893 59.7383 27.5107C60.2109 27.5322 60.5977 27.9727 60.5762 28.4453C60.5869 31.1846 60.5654 33.9238 60.5869 36.6738C61.1885 36.6738 61.79 36.6631 62.3916 36.6846C62.4346 35.1592 62.3916 33.623 62.4131 32.0977C62.4023 31.6572 62.7461 31.249 63.1758 31.1846C63.5303 31.1523 63.8848 31.1738 64.2393 31.1631C64.25 30.2178 64.2285 29.2725 64.25 28.3271C64.2822 27.8545 64.7334 27.4678 65.2061 27.5C68.5361 27.5 71.877 27.5 75.207 27.5C75.6797 27.4785 76.1201 27.8652 76.1523 28.3379C76.1738 29.2832 76.1523 30.2285 76.1631 31.1631C76.5176 31.1738 76.8721 31.1416 77.2266 31.1846C77.6133 31.2383 77.9033 31.5713 77.9893 31.9365V52.25C77.6777 52.25 77.3769 52.25 77.0762 52.25C76.7754 52.25 76.4639 52.25 76.1631 52.25C76.1523 45.8369 76.1631 39.4131 76.1631 33C72.1885 33 68.2246 33 64.25 33C64.25 38.5 64.25 44 64.25 49.5C63.96 49.5 63.6699 49.5 63.3906 49.5H63.2832C62.9932 49.5 62.7031 49.5 62.4131 49.5C62.4131 45.8369 62.4131 42.1631 62.4131 38.5C60.5762 38.5 58.75 38.5 56.9131 38.5C56.9131 40.3369 56.9131 42.1631 56.9131 44C56.6338 44 56.3545 44 56.0859 44H55.9785C55.6777 44 55.3877 44 55.0869 44C55.0869 37.2754 55.0869 30.5508 55.0869 23.8369C52.0254 23.8369 48.9746 23.8369 45.9238 23.8369C45.9238 30.5615 45.9238 37.2754 45.9238 44C45.623 44 45.3223 44 45.0322 44H44.9248C44.6455 44 44.3662 44 44.0977 44C44.0977 42.1631 44.0977 40.3369 44.0977 38.5C42.2607 38.5 40.4346 38.5 38.5977 38.5C38.5977 40.6377 38.5977 42.7754 38.5977 44.9131C38.2969 44.9131 37.9961 44.9131 37.6953 44.9131C37.6846 47.9316 37.6953 50.9502 37.6846 53.9688C37.7275 54.001 37.8135 54.0439 37.8564 54.0762C38.5439 54.5811 39.124 55.2363 39.5 56.0098C39.9619 56.9873 40.4238 57.9863 40.8965 58.9639C41.3799 57.9541 41.8525 56.9229 42.3467 55.9131C42.7119 55.1826 43.2812 54.5811 43.9258 54.0869C44.2588 53.8828 44.5918 53.6787 44.957 53.5391L45.0537 53.4961C45.6338 53.2813 46.2568 53.1631 46.8799 53.1631C46.4072 52.5293 46.085 51.7773 45.9883 50.9932C45.9131 50.209 45.9668 49.4248 45.9453 48.6406C45.9346 47.4053 46.4287 46.1807 47.3203 45.3213C48.4053 44.2471 50.0381 43.7744 51.5312 44.1182C53.0996 44.4512 54.4316 45.6758 54.9043 47.2012C55.2266 48.1895 55.0977 49.2314 55.1191 50.252C55.1514 51.2939 54.8076 52.3359 54.1846 53.1631C54.8076 53.1738 55.4307 53.2813 56.0107 53.4961L56.0967 53.5391C56.5049 53.6895 56.8594 53.9473 57.2461 54.1406C57.7939 54.6455 58.3418 55.1719 58.6855 55.8594C59.1904 56.8906 59.6631 57.9434 60.168 58.9746C60.6299 57.9863 61.0918 56.998 61.5645 56.0205C61.9297 55.2471 62.5205 54.5918 63.208 54.0869C63.251 54.0547 63.2939 54.0225 63.3477 54.001L63.4336 53.9473C64.25 53.4424 65.1953 53.1846 66.1514 53.1738C65.5176 52.3467 65.1846 51.3047 65.2168 50.2627C65.249 49.2637 65.1094 48.2432 65.4102 47.2764C65.7969 45.9658 66.7959 44.8701 68.0635 44.3545C69.2988 43.8389 70.7705 43.9141 71.9521 44.5479C73.3057 45.2568 74.251 46.6855 74.3584 48.2109C74.4014 48.9307 74.3691 49.6504 74.3799 50.3701C74.3906 51.3691 74.0469 52.3682 73.4453 53.1631C74.4443 53.1631 75.4219 53.5068 76.2275 54.0762C77.3018 54.9141 78 56.2139 78.0537 57.5889V66.1074C77.9893 66.5264 77.6348 66.8809 77.2051 66.9023C76.2705 66.9238 75.3252 66.9023 74.3906 66.9131C74.3906 69.6631 74.3906 72.4023 74.3906 75.1523C75.6152 75.1523 76.8398 75.1523 78.0537 75.1523V77H23V75.1631C24.2246 75.1631 25.4385 75.1631 26.6631 75.1631C26.6631 72.4131 26.6631 69.6738 26.6631 66.9238C25.7285 66.9131 24.7832 66.9346 23.8486 66.9131C23.4189 66.8916 23.0645 66.5371 23 66.1182V57.5889C23.043 56.2246 23.7412 54.9141 24.8262 54.0869C25.6318 53.5068 26.6094 53.1631 27.6084 53.1631C27.2754 52.7012 27.0068 52.1963 26.8457 51.6484C26.5664 50.7031 26.6953 49.7148 26.6631 48.748C26.6309 47.5234 27.082 46.2988 27.9307 45.418C28.8867 44.4082 30.3154 43.8818 31.6904 44.0215C33.0654 44.1504 34.3545 44.9346 35.085 46.1055C35.6221 46.9111 35.8477 47.8994 35.8154 48.8555C35.7832 49.7578 35.9014 50.6816 35.6543 51.5732C35.5039 52.1533 35.2246 52.6904 34.8701 53.1631C35.8369 53.1631 36.793 53.4424 37.6094 53.9473C37.6309 50.9395 37.6094 47.9209 37.6201 44.9131C37.3193 44.9131 37.0186 44.9131 36.7178 44.9131C36.707 40.9385 36.7178 36.9639 36.707 32.9893C32.7324 32.9893 28.7686 32.9893 24.7939 32.9893C24.7832 39.4023 24.7939 45.8262 24.7939 52.2393C24.4932 52.2393 24.1816 52.2393 23.8809 52.2393C23.5801 52.2393 23.2686 52.2393 22.9678 52.2393V31.9365C23.0537 31.5605 23.3438 31.2275 23.7412 31.1738C24.0957 31.1416 24.4502 31.1631 24.8047 31.1523C24.8154 30.207 24.7939 29.2725 24.8154 28.3271C24.8369 27.8545 25.2881 27.457 25.7607 27.4893C29.1016 27.4893 32.4316 27.4893 35.7725 27.4893C36.2451 27.457 36.6963 27.8438 36.7285 28.3271C36.75 29.2725 36.7285 30.207 36.7393 31.1523C37.0938 31.1631 37.4482 31.1309 37.8027 31.1738C38.2432 31.2275 38.5869 31.6465 38.5762 32.0869C38.5869 33.6123 38.5762 35.1377 38.5869 36.6631C39.1885 36.6631 39.7793 36.6523 40.3809 36.6738C40.4453 36.5234 40.4131 36.3408 40.4131 36.1797C40.4131 33.6016 40.4131 31.0234 40.4131 28.4453C40.3916 27.9727 40.7783 27.5322 41.251 27.5107C42.1963 27.4893 43.1416 27.5107 44.0762 27.5C44.0869 25.9531 44.0654 24.4062 44.0869 22.8594C44.0977 22.4297 44.4521 22.0859 44.8496 22ZM26.6631 29.3369C26.6631 29.9492 26.6631 30.5615 26.6631 31.1738C29.4131 31.1738 32.1631 31.1738 34.9131 31.1738C34.9131 30.5615 34.9131 29.9492 34.9131 29.3369C32.1631 29.3369 29.4131 29.3369 26.6631 29.3369ZM42.25 29.3369C42.25 31.7861 42.25 34.2246 42.25 36.6738C42.8623 36.6738 43.4746 36.6846 44.0869 36.6631C44.0762 34.2246 44.0977 31.7754 44.0762 29.3369C43.4639 29.3369 42.8623 29.3369 42.25 29.3369ZM56.9238 29.3369C56.9131 31.7754 56.9238 34.2246 56.9131 36.6631C57.5254 36.6738 58.1377 36.6631 58.75 36.6738C58.75 34.2246 58.75 31.7861 58.75 29.3369C58.1377 29.3369 57.5361 29.3369 56.9238 29.3369ZM66.0869 29.3369C66.0869 29.9492 66.0869 30.5615 66.0869 31.1738C68.8369 31.1738 71.5869 31.1738 74.3369 31.1738C74.3369 30.5615 74.3369 29.9492 74.3369 29.3369C71.5869 29.3369 68.8369 29.3369 66.0869 29.3369ZM30.5732 45.9229C29.4346 46.1914 28.5537 47.2549 28.5 48.4258C28.4893 49.1133 28.4893 49.79 28.5 50.4775C28.5107 51.4336 29.0693 52.3574 29.8965 52.8086C30.627 53.2275 31.5615 53.2705 32.335 52.9375C33.0977 52.6152 33.6992 51.917 33.9033 51.1113C34.0322 50.6279 33.9785 50.1123 33.9893 49.6182C33.9785 48.8877 34.0752 48.125 33.7422 47.4482C33.2373 46.2559 31.8193 45.5791 30.5732 45.9229ZM49.8018 45.9229C48.6094 46.2236 47.707 47.3945 47.75 48.6299C47.7822 49.4141 47.6855 50.2197 47.8145 51.0039C48.0293 52.0459 48.8994 52.9053 49.9521 53.1094C50.9297 53.3242 52.0039 52.9375 52.627 52.1641C53.0996 51.6055 53.293 50.8643 53.25 50.1445C53.207 49.2422 53.4004 48.2754 52.9922 47.4268C52.4658 46.2451 51.0479 45.5684 49.8018 45.9229ZM69.0303 45.9336C67.9131 46.2236 67.043 47.2764 67 48.4365C66.9893 49.1133 66.9893 49.79 67 50.4668C67.0107 51.3799 67.5156 52.2715 68.2891 52.7441C69.0303 53.2168 70.0078 53.292 70.8135 52.9482C71.5869 52.626 72.1992 51.9277 72.4033 51.1113C72.5322 50.6279 72.4785 50.1123 72.4893 49.6182C72.4785 48.8877 72.5752 48.1143 72.2314 47.4268C71.7158 46.2344 70.2871 45.5684 69.0303 45.9336ZM24.8369 57.6533C24.8262 60.124 24.8369 62.6055 24.8369 65.0869C25.4492 65.0869 26.0508 65.0869 26.6631 65.0869C26.6631 62.6377 26.6631 60.1992 26.6631 57.75C27.2754 57.75 27.8877 57.75 28.5 57.75C28.5107 63.5508 28.5 69.3623 28.5 75.1631C29.1123 75.1631 29.7139 75.1631 30.3262 75.1631C30.3262 72.1016 30.3262 69.0508 30.3262 65.9893C30.9385 65.9785 31.5508 65.9893 32.1631 65.9893C32.1631 69.04 32.1738 72.1016 32.1631 75.1523C32.7754 75.1738 33.3877 75.1523 34 75.1631C34 69.6846 34 64.2061 34 58.7275C33.9785 58.373 34.1611 58.0186 34.4727 57.8574C34.9023 57.5996 35.5146 57.793 35.7295 58.2441C36.8682 60.5215 38.0068 62.7881 39.1348 65.0654C39.9941 65.0977 40.8535 65.0762 41.7129 65.0762C40.4131 62.3154 39.1133 59.5654 37.8242 56.8047C37.2979 55.7197 36.127 54.9893 34.9238 55C32.4531 55 29.9717 55 27.501 55C26.1045 55.0107 24.8477 56.2461 24.8369 57.6533ZM43.9258 56.7939C43.249 58.2334 42.5723 59.6729 41.8955 61.123C42.3037 62.0146 42.7334 62.8955 43.1416 63.7871C44.1191 61.6602 45.043 59.501 46.0098 57.3633C46.1602 57.041 46.5039 56.8154 46.8584 56.8369C47.3525 56.8369 47.7715 57.2881 47.75 57.7822C47.75 63.583 47.75 69.373 47.75 75.1738C48.3623 75.1846 48.9746 75.1738 49.5762 75.1738C49.5762 72.4238 49.5762 69.6738 49.5762 66.9238C50.1885 66.9131 50.8008 66.9131 51.4238 66.9238C51.4238 69.6738 51.4238 72.4238 51.4238 75.1738C52.0361 75.1738 52.6484 75.1738 53.25 75.1738C53.25 69.6953 53.25 64.2168 53.25 58.749C53.2285 58.3945 53.4111 58.04 53.7227 57.8682C54.1309 57.6318 54.7002 57.7715 54.9365 58.1689C55.9141 60.0596 56.8271 62.0039 57.8154 63.8838C58.2451 62.96 58.6855 62.0469 59.1045 61.123C58.417 59.6836 57.751 58.2441 57.0635 56.8047C56.5371 55.7197 55.3555 54.9893 54.1416 55C51.6709 55 49.2002 55 46.7295 55C45.5693 55.0215 44.4414 55.7412 43.9258 56.7939ZM63.165 56.8047C61.876 59.5654 60.5654 62.3154 59.2764 65.0762C60.1143 65.0869 60.9521 65.0762 61.8008 65.0762C62.9932 62.498 64.1104 59.877 65.292 57.2881C65.4854 56.9229 65.958 56.7295 66.3555 56.8584C66.7422 56.9658 67.0215 57.3525 67.0107 57.7607C67.0107 63.5615 67.0107 69.3623 67.0107 75.1631C67.623 75.1631 68.2354 75.1738 68.8369 75.1523C68.8369 72.1016 68.8369 69.04 68.8369 65.9893C69.4492 65.9893 70.0615 65.9785 70.6846 66C70.6846 69.0508 70.6846 72.1123 70.6846 75.1631C71.2969 75.1631 71.8984 75.1631 72.5107 75.1631C72.5215 69.0508 72.5 62.9385 72.5107 56.8262C73.123 56.8262 73.7354 56.8262 74.3477 56.8262C74.3584 59.5762 74.3477 62.3262 74.3477 65.0762C74.96 65.0762 75.5723 65.0762 76.1738 65.0762C76.1738 62.6055 76.1846 60.124 76.1738 57.6533C76.1631 56.2461 74.917 55.0107 73.5098 55C71.0391 54.9893 68.5576 55 66.0869 55C64.8623 54.9893 63.6914 55.7197 63.165 56.8047ZM65.1201 62.1758C64.4971 63.5615 63.8848 64.958 63.2617 66.3438C63.1221 66.6768 62.7783 66.9238 62.4131 66.9131C60.8769 66.9131 59.3301 66.9238 57.7939 66.9131C57.375 66.9023 57.0312 66.5693 56.8916 66.1934C56.3223 65.0439 55.7529 63.9053 55.1836 62.7559L55.0762 62.6592C55.0762 66.8271 55.0762 70.9951 55.0762 75.1631C58.4385 75.1631 61.8008 75.1631 65.1631 75.1631C65.1631 70.8447 65.1631 66.5264 65.1631 62.208L65.1201 62.1758ZM45.8379 62.251C45.2363 63.6152 44.6348 64.9795 44.0225 66.333C43.8721 66.6982 43.4746 66.9453 43.0771 66.9131C41.5732 66.9131 40.0801 66.9131 38.5762 66.9131C38.2646 66.9131 37.9639 66.752 37.8027 66.4834C37.126 65.1943 36.5137 63.8623 35.8262 62.584C35.8369 66.7734 35.8262 70.9629 35.8262 75.1631C39.1885 75.1738 42.5508 75.1631 45.9131 75.1631C45.9131 70.834 45.9131 66.5049 45.9131 62.1758L45.8379 62.251Z" fill="#1C2436"/>
<path d="M47.7503 25.6631C48.3626 25.6631 48.9749 25.6631 49.5872 25.6631C49.5872 26.2754 49.5872 26.8877 49.5872 27.5C48.9857 27.5107 48.3734 27.5 47.7718 27.5107C47.7181 26.8984 47.7611 26.2754 47.7503 25.6631Z" fill="#1C2436"/>
<path d="M51.4131 25.6631C52.0254 25.6631 52.6377 25.6631 53.25 25.6631C53.2393 26.2754 53.2607 26.8877 53.2393 27.5C52.627 27.4893 52.0254 27.5 51.4131 27.5C51.4131 26.8877 51.4131 26.2754 51.4131 25.6631Z" fill="#1C2436"/>
<path d="M47.7499 29.3369C48.3622 29.3476 48.9745 29.3154 49.5975 29.3476C49.5868 29.9599 49.5975 30.5615 49.5868 31.1738C48.9745 31.1738 48.3622 31.1738 47.7499 31.1738C47.7391 30.5615 47.7499 29.9492 47.7499 29.3369Z" fill="#1C2436"/>
<path d="M51.4131 29.3262C52.0254 29.3262 52.6377 29.3262 53.25 29.3262C53.25 29.9385 53.2607 30.5508 53.2393 31.1631C52.627 31.1523 52.0254 31.1631 51.4131 31.1631C51.4131 30.5508 51.4131 29.9385 51.4131 29.3262Z" fill="#1C2436"/>
<path d="M47.7499 33C48.3622 33 48.9745 33 49.5868 33C49.5868 33.6123 49.5868 34.2246 49.5868 34.8369C48.9745 34.8369 48.3622 34.8369 47.7499 34.8369C47.7391 34.2246 47.7499 33.6123 47.7499 33Z" fill="#1C2436"/>
<path d="M51.4131 33C52.0254 32.9893 52.6377 33 53.25 33C53.25 33.6123 53.25 34.2246 53.25 34.8369C52.6377 34.8369 52.0254 34.8369 51.4131 34.8369C51.4131 34.2246 51.4131 33.6123 51.4131 33Z" fill="#1C2436"/>
<path d="M26.6631 34.8262C29.4131 34.8262 32.1631 34.8262 34.9131 34.8262C34.9131 35.4385 34.9238 36.0615 34.9023 36.6738C32.1523 36.6631 29.4131 36.6738 26.6631 36.6631C26.6631 36.0615 26.6631 35.4492 26.6631 34.8262Z" fill="#1C2436"/>
<path d="M66.0869 34.8262C67.3115 34.8369 68.5361 34.8047 69.75 34.8369C69.75 35.4385 69.7393 36.0508 69.75 36.6523C68.5254 36.6846 67.3008 36.6523 66.0762 36.6631C66.0762 36.0615 66.0762 35.4385 66.0869 34.8262Z" fill="#1C2436"/>
<path d="M71.5872 34.8262C72.8118 34.8262 74.0364 34.8262 75.261 34.8262C75.261 35.4385 75.261 36.0508 75.261 36.6631C74.0364 36.6738 72.8118 36.6631 71.5872 36.6631C71.5764 36.0615 71.5764 35.4492 71.5872 34.8262Z" fill="#1C2436"/>
<path d="M47.75 38.5C47.75 37.8877 47.75 37.2754 47.75 36.6631C48.3623 36.6631 48.9746 36.6631 49.5869 36.6631C49.5869 37.2754 49.5869 37.8877 49.5869 38.5C48.9746 38.5107 48.3623 38.5 47.75 38.5Z" fill="#1C2436"/>
<path d="M51.4131 36.6631C52.0254 36.6631 52.6377 36.6631 53.25 36.6631C53.2607 37.2754 53.25 37.8877 53.25 38.5C52.6377 38.5 52.0254 38.5 51.4131 38.5C51.4131 37.8877 51.4131 37.2754 51.4131 36.6631Z" fill="#1C2436"/>
<path d="M26.6631 38.5C29.4131 38.5 32.1631 38.5 34.9131 38.5C34.9131 39.1123 34.9131 39.7246 34.9131 40.3369C32.1631 40.3369 29.4131 40.3369 26.6631 40.3369C26.6631 39.7246 26.6631 39.1123 26.6631 38.5Z" fill="#1C2436"/>
<path d="M66.0868 38.5C67.3114 38.5 68.536 38.5 69.7499 38.5C69.7499 39.1123 69.7606 39.7246 69.7499 40.3369C68.5253 40.3369 67.3114 40.3369 66.0868 40.3369C66.0761 39.7246 66.0868 39.1123 66.0868 38.5Z" fill="#1C2436"/>
<path d="M71.5762 38.5C72.8008 38.4893 74.0254 38.5 75.25 38.5C75.25 39.1123 75.25 39.7246 75.25 40.3262C74.0254 40.3369 72.8008 40.3262 71.5762 40.3369C71.5762 39.7246 71.5869 39.1123 71.5762 38.5Z" fill="#1C2436"/>
<path d="M40.4131 40.3262C41.0254 40.3262 41.6377 40.3262 42.25 40.3262C42.25 40.9385 42.25 41.5508 42.25 42.1631C41.6377 42.1631 41.0254 42.1631 40.4131 42.1631C40.4131 41.5615 40.4131 40.9492 40.4131 40.3262Z" fill="#1C2436"/>
<path d="M47.7499 42.1738C47.7499 41.5615 47.7391 40.9492 47.7499 40.3369C48.3622 40.3369 48.9745 40.3369 49.5868 40.3369C49.5868 40.9492 49.5975 41.5615 49.5868 42.1738C48.9745 42.1631 48.3622 42.1738 47.7499 42.1738Z" fill="#1C2436"/>
<path d="M51.4131 40.3262C52.0254 40.3262 52.6377 40.3262 53.25 40.3262C53.2607 40.9385 53.25 41.5508 53.25 42.1631C52.6377 42.1631 52.0254 42.1631 51.4131 42.1631C51.4131 41.5615 51.4131 40.9492 51.4131 40.3262Z" fill="#1C2436"/>
<path d="M58.7498 40.3262C59.3621 40.3262 59.9744 40.3262 60.5867 40.3262C60.5867 40.9385 60.5867 41.5508 60.5867 42.1631C59.9744 42.1631 59.3621 42.1631 58.7605 42.1631C58.739 41.5615 58.7498 40.9492 58.7498 40.3262Z" fill="#1C2436"/>
<path d="M40.4131 44C41.0254 44 41.6377 44 42.25 44C42.25 44.6123 42.25 45.2246 42.25 45.8369C41.6377 45.8369 41.0254 45.8369 40.4131 45.8369C40.4131 45.2246 40.4131 44.6123 40.4131 44Z" fill="#1C2436"/>
<path d="M58.75 44C59.3623 44 59.9746 44 60.5869 44C60.5869 44.6123 60.5869 45.2246 60.5869 45.8369C59.9746 45.8369 59.3623 45.8369 58.75 45.8369C58.75 45.2246 58.75 44.6123 58.75 44Z" fill="#1C2436"/>
<path d="M40.4131 47.6631C41.0254 47.6631 41.6377 47.6631 42.25 47.6631C42.25 48.2754 42.25 48.8877 42.25 49.5C41.6377 49.5 41.0254 49.5 40.4131 49.5C40.4131 48.8877 40.4131 48.2754 40.4131 47.6631Z" fill="#1C2436"/>
<path d="M58.75 47.6631C59.3623 47.6631 59.9746 47.6631 60.5869 47.6631C60.5869 48.2754 60.5869 48.8877 60.5869 49.5C59.9746 49.5 59.3623 49.5 58.75 49.5C58.75 48.8877 58.75 48.2754 58.75 47.6631Z" fill="#1C2436"/>
<path d="M40.4131 51.3369C41.0254 51.3369 41.6377 51.3369 42.25 51.3369C42.25 51.9492 42.25 52.5615 42.25 53.1738C41.6377 53.1738 41.0254 53.1738 40.4131 53.1738C40.4131 52.5615 40.4131 51.9492 40.4131 51.3369Z" fill="#1C2436"/>
<path d="M58.75 51.3369C59.3623 51.3369 59.9746 51.3369 60.5869 51.3369C60.5869 51.9492 60.5869 52.5615 60.5869 53.1738C59.9746 53.1738 59.3623 53.1738 58.75 53.1738C58.75 52.5615 58.75 51.9492 58.75 51.3369Z" fill="#1C2436"/>
<path d="M45.9131 23.8369C48.9639 23.8369 52.0254 23.8369 55.0762 23.8369C55.0762 30.5615 55.0762 37.2754 55.0762 44C55.377 44 55.667 44 55.9678 44C55.9678 47.1689 55.9678 50.3271 55.9678 53.4961C55.3877 53.2812 54.7646 53.1738 54.1416 53.1631C54.7646 52.3252 55.0977 51.2939 55.0762 50.252C55.0439 49.2314 55.1836 48.1895 54.8613 47.2012C54.3887 45.6758 53.0566 44.4404 51.4883 44.1182C49.9951 43.7744 48.3623 44.2471 47.2773 45.3213C46.3857 46.1807 45.8916 47.4053 45.9023 48.6406C45.9131 49.4248 45.8594 50.209 45.9453 50.9932C46.042 51.7773 46.3643 52.5293 46.8369 53.1631C46.2139 53.1738 45.5908 53.2812 45.0107 53.4961C45.0107 50.3271 45.0107 47.1689 45.0107 44C45.3115 44 45.6123 44 45.9023 44C45.9131 37.2754 45.9131 30.5615 45.9131 23.8369ZM47.75 25.6631C47.7607 26.2754 47.7178 26.8984 47.7715 27.5C48.373 27.4893 48.9854 27.5 49.5869 27.4893C49.5869 26.877 49.5869 26.2646 49.5869 25.6523C48.9746 25.6631 48.3623 25.6631 47.75 25.6631ZM51.4131 25.6631C51.4131 26.2754 51.4131 26.8877 51.4131 27.5C52.0254 27.5 52.627 27.5 53.2393 27.5C53.2715 26.8877 53.2393 26.2754 53.25 25.6631C52.6377 25.6631 52.0254 25.6631 51.4131 25.6631ZM47.75 29.3369C47.75 29.9492 47.7393 30.5615 47.75 31.1738C48.3623 31.1738 48.9746 31.1738 49.5869 31.1738C49.5977 30.5615 49.5762 29.96 49.5977 29.3477C48.9746 29.3154 48.3623 29.3369 47.75 29.3369ZM51.4131 29.3262C51.4023 29.9385 51.4131 30.5508 51.4131 31.1631C52.0254 31.1631 52.6377 31.1631 53.2393 31.1631C53.2607 30.5508 53.2393 29.9385 53.25 29.3262C52.6377 29.3262 52.0254 29.3369 51.4131 29.3262ZM47.75 33C47.75 33.6123 47.75 34.2246 47.75 34.8369C48.3623 34.8369 48.9746 34.8369 49.5869 34.8369C49.5869 34.2246 49.5869 33.6123 49.5869 33C48.9746 32.9893 48.3623 33 47.75 33ZM51.4131 33C51.4131 33.6123 51.4131 34.2246 51.4131 34.8369C52.0254 34.8369 52.6377 34.8369 53.25 34.8369C53.2607 34.2246 53.25 33.6123 53.25 33C52.6377 33 52.0254 32.9893 51.4131 33ZM47.75 38.5C48.3623 38.5 48.9746 38.5107 49.5869 38.5C49.5869 37.8877 49.5869 37.2754 49.5869 36.6631C48.9746 36.6631 48.3623 36.6631 47.75 36.6631C47.7393 37.2754 47.75 37.8877 47.75 38.5ZM51.4131 36.6631C51.4131 37.2754 51.4131 37.8877 51.4131 38.5C52.0254 38.5107 52.6377 38.5 53.25 38.5C53.25 37.8877 53.2607 37.2754 53.25 36.6631C52.6377 36.6631 52.0254 36.6631 51.4131 36.6631ZM47.75 42.1738C48.3623 42.1738 48.9746 42.1738 49.5869 42.1738C49.5977 41.5615 49.5869 40.9492 49.5869 40.3369C48.9746 40.3369 48.3623 40.3369 47.75 40.3369C47.7393 40.9385 47.75 41.5508 47.75 42.1738ZM51.4131 40.3262C51.4131 40.9385 51.4131 41.5508 51.4131 42.1631C52.0254 42.1631 52.6377 42.1631 53.25 42.1631C53.25 41.5508 53.25 40.9385 53.25 40.3262C52.6377 40.3262 52.0254 40.3262 51.4131 40.3262Z" fill="#F6F6F9"/>
<path d="M24.8369 33C28.8115 33 32.7754 33 36.75 33C36.7607 36.9746 36.7393 40.9492 36.7607 44.9238C37.0615 44.9238 37.3623 44.9238 37.6631 44.9238C37.6523 47.9316 37.6738 50.9502 37.6523 53.958C36.8359 53.4424 35.8799 53.1738 34.9131 53.1738C35.2676 52.6904 35.5361 52.1533 35.6973 51.584C35.9443 50.7031 35.8262 49.7686 35.8584 48.8662C35.8906 47.8994 35.6543 46.9219 35.1279 46.1162C34.3867 44.9561 33.0977 44.1611 31.7334 44.0322C30.3584 43.8818 28.9189 44.4189 27.9736 45.4287C27.1143 46.3096 26.6631 47.5342 26.7061 48.7588C26.7383 49.7256 26.5986 50.7246 26.8887 51.6592C27.0391 52.207 27.3076 52.7119 27.6514 53.1738C26.6523 53.1738 25.6748 53.5068 24.8691 54.0977C24.5684 54.0977 24.2676 54.0977 23.9668 54.0977C23.9668 53.4854 23.9668 52.873 23.9668 52.2715C24.2676 52.2715 24.5791 52.2715 24.8799 52.2715C24.8369 45.8369 24.8262 39.4131 24.8369 33ZM26.6631 34.8262C26.6631 35.4385 26.6631 36.0508 26.6631 36.6631C29.4131 36.6631 32.1523 36.6523 34.9023 36.6738C34.9238 36.0615 34.9131 35.4385 34.9131 34.8262C32.1631 34.8369 29.4131 34.8262 26.6631 34.8262ZM26.6631 38.5C26.6631 39.1123 26.6631 39.7246 26.6631 40.3369C29.4131 40.3369 32.1631 40.3369 34.9131 40.3369C34.9238 39.7246 34.9131 39.1123 34.9131 38.5C32.1631 38.5 29.4131 38.5 26.6631 38.5Z" fill="#F6F6F9"/>
<path d="M64.25 33C68.2246 33 72.1885 33 76.1631 33C76.1738 39.4131 76.1631 45.8369 76.1631 52.25C76.4639 52.25 76.7754 52.25 77.0762 52.25C77.0762 52.8623 77.0762 53.4746 77.0762 54.0762C76.7754 54.0762 76.4746 54.0762 76.1738 54.0762C75.3682 53.4961 74.3906 53.1523 73.3916 53.1631C73.9932 52.3682 74.3369 51.3691 74.3262 50.3701C74.3154 49.6504 74.3477 48.9307 74.3047 48.2109C74.1973 46.6855 73.252 45.2568 71.8984 44.5479C70.7168 43.9141 69.2451 43.8389 68.0098 44.3545C66.7529 44.8701 65.7432 45.9658 65.3564 47.2764C65.0557 48.2432 65.1953 49.2637 65.1631 50.2627C65.1309 51.3047 65.4746 52.3467 66.0977 53.1738C65.1416 53.1738 64.1963 53.4424 63.3799 53.9473C63.3799 52.4648 63.3799 50.9932 63.3799 49.5107C63.6699 49.5107 63.9492 49.5107 64.2393 49.5107C64.25 44 64.25 38.5 64.25 33ZM66.0869 34.8262C66.0762 35.4385 66.0762 36.0508 66.0869 36.6738C67.3115 36.6631 68.5361 36.6953 69.7607 36.6631C69.75 36.0615 69.7607 35.4492 69.7607 34.8477C68.5361 34.8154 67.3115 34.8477 66.0869 34.8262ZM71.5869 34.8262C71.5869 35.4385 71.5869 36.0508 71.5869 36.6631C72.8115 36.6631 74.0361 36.6631 75.2607 36.6631C75.2607 36.0508 75.2607 35.4385 75.2607 34.8262C74.0254 34.8262 72.8008 34.8262 71.5869 34.8262ZM66.0869 38.5C66.0869 39.1123 66.0869 39.7246 66.0869 40.3369C67.3115 40.3369 68.5254 40.3369 69.75 40.3369C69.7607 39.7246 69.75 39.1123 69.75 38.5C68.5254 38.5 67.3008 38.5 66.0869 38.5ZM71.5762 38.5C71.5762 39.1123 71.5762 39.7246 71.5762 40.3369C72.8008 40.3369 74.0254 40.3477 75.25 40.3262C75.2393 39.7139 75.25 39.1016 75.25 38.5C74.0254 38.5 72.8008 38.5 71.5762 38.5Z" fill="#F6F6F9"/>
<path d="M26.6631 29.3369C29.4131 29.3369 32.1631 29.3369 34.9131 29.3369C34.9131 29.9492 34.9131 30.5615 34.9131 31.1738C32.1631 31.1738 29.4131 31.1738 26.6631 31.1738C26.6631 30.5508 26.6631 29.9385 26.6631 29.3369Z" fill="#F6F6F9"/>
<path d="M66.0868 29.3369C68.8368 29.3369 71.5868 29.3369 74.3368 29.3369C74.3368 29.9492 74.3368 30.5615 74.3368 31.1738C71.5868 31.1738 68.8368 31.1738 66.0868 31.1738C66.0868 30.5508 66.0761 29.9385 66.0868 29.3369Z" fill="#F6F6F9"/>
<path d="M42.25 29.3369C42.8623 29.3369 43.4639 29.3369 44.0762 29.3369C44.0977 31.7754 44.0762 34.2246 44.0869 36.6631C43.4746 36.6738 42.8623 36.6631 42.25 36.6738C42.25 34.2246 42.25 31.7754 42.25 29.3369Z" fill="#F6F6F9"/>
<path d="M56.9238 29.3369C57.5361 29.3369 58.1377 29.3369 58.75 29.3369C58.75 31.7861 58.75 34.2246 58.75 36.6738C58.1377 36.6738 57.5254 36.6846 56.9131 36.6631C56.9238 34.2139 56.9131 31.7754 56.9238 29.3369Z" fill="#F6F6F9"/>
<path d="M38.5869 38.5C40.4238 38.5 42.25 38.5 44.0869 38.5C44.0869 40.3369 44.0869 42.1631 44.0869 44C44.3662 44 44.6455 44 44.9141 44C44.9248 47.1797 44.8926 50.3594 44.9248 53.5391C44.5596 53.6787 44.2266 53.8828 43.8936 54.0869C41.874 54.0869 39.8545 54.0977 37.835 54.0762C37.792 54.0547 37.7061 54.001 37.6631 53.9688C37.6846 50.9502 37.6631 47.9316 37.6738 44.9131C37.9746 44.9131 38.2754 44.9131 38.5762 44.9131C38.5869 42.7754 38.5869 40.6377 38.5869 38.5ZM40.4131 40.3262C40.4131 40.9385 40.4131 41.5508 40.4131 42.1631C41.0254 42.1631 41.6377 42.1631 42.25 42.1631C42.25 41.5508 42.25 40.9385 42.25 40.3262C41.6377 40.3262 41.0254 40.3262 40.4131 40.3262ZM40.4131 44C40.4131 44.6123 40.4131 45.2246 40.4131 45.8369C41.0254 45.8369 41.6377 45.8369 42.25 45.8369C42.25 45.2246 42.25 44.6123 42.25 44C41.6377 44 41.0254 44 40.4131 44ZM40.4131 47.6631C40.4131 48.2754 40.4131 48.8877 40.4131 49.5C41.0254 49.5 41.6377 49.5 42.25 49.5C42.25 48.8877 42.25 48.2754 42.25 47.6631C41.6377 47.6631 41.0254 47.6631 40.4131 47.6631ZM40.4131 51.3369C40.4131 51.9492 40.4131 52.5615 40.4131 53.1738C41.0254 53.1738 41.6377 53.1738 42.25 53.1738C42.25 52.5615 42.25 51.9492 42.25 51.3369C41.6377 51.3262 41.0254 51.3262 40.4131 51.3369Z" fill="#F6F6F9"/>
<path d="M56.9131 38.5C58.75 38.5 60.5762 38.5 62.4131 38.5C62.4131 42.1631 62.4131 45.8369 62.4131 49.5C62.7031 49.5 62.9932 49.5 63.2832 49.5C63.2939 50.9932 63.2617 52.4971 63.2939 53.9902C63.251 54.0225 63.1973 54.0439 63.1543 54.0762C61.2529 54.0762 59.3516 54.0869 57.4609 54.0762C57.3965 54.0869 57.2783 54.1191 57.2139 54.1406C56.8271 53.9473 56.4834 53.6787 56.0645 53.5391C56.0967 50.3594 56.0645 47.1797 56.0859 44C56.3652 44 56.6338 44 56.9131 44C56.9131 42.1631 56.9131 40.3369 56.9131 38.5ZM58.75 40.3262C58.75 40.9385 58.7393 41.5508 58.7607 42.1631C59.373 42.1631 59.9854 42.1631 60.5869 42.1631C60.5869 41.5508 60.5869 40.9385 60.5869 40.3262C59.9746 40.3262 59.3623 40.3262 58.75 40.3262ZM58.75 44C58.75 44.6123 58.75 45.2246 58.75 45.8369C59.3623 45.8369 59.9746 45.8369 60.5869 45.8369C60.5869 45.2246 60.5869 44.6123 60.5869 44C59.9746 44 59.3623 44 58.75 44ZM58.75 47.6631C58.75 48.2754 58.75 48.8877 58.75 49.5C59.3623 49.5 59.9746 49.5 60.5869 49.5C60.5869 48.8877 60.5869 48.2754 60.5869 47.6631C59.9746 47.6631 59.3623 47.6631 58.75 47.6631ZM58.75 51.3369C58.75 51.9492 58.75 52.5615 58.75 53.1738C59.3623 53.1738 59.9746 53.1738 60.5869 53.1738C60.5869 52.5615 60.5869 51.9492 60.5869 51.3369C59.9746 51.3262 59.3623 51.3262 58.75 51.3369Z" fill="#F6F6F9"/>
<path d="M44.9141 44H45.0215C45.0215 47.1689 45.0215 50.3271 45.0215 53.4961L44.9248 53.5391C44.9033 50.3594 44.9248 47.1797 44.9141 44Z" fill="#F6F6F9"/>
<path d="M55.9785 44H56.0859C56.0752 47.1797 56.1074 50.3594 56.0645 53.5391L55.9785 53.4961C55.9785 50.3271 55.9785 47.1689 55.9785 44Z" fill="#F6F6F9"/>
<path d="M30.5731 45.9228C31.8192 45.5791 33.2372 46.2666 33.7528 47.4482C34.0858 48.125 33.9891 48.8877 33.9999 49.6181C33.9891 50.1123 34.0429 50.6279 33.914 51.1113C33.7099 51.917 33.1083 52.6152 32.3456 52.9375C31.5722 53.2812 30.6376 53.2275 29.9071 52.8086C29.0692 52.3467 28.5106 51.4336 28.5106 50.4775C28.5106 49.79 28.4999 49.1133 28.5106 48.4258C28.5536 47.2549 29.4345 46.1914 30.5731 45.9228Z" fill="#4DF189"/>
<path d="M69.0302 45.9336C70.2763 45.5684 71.7157 46.2451 72.2421 47.4268C72.5858 48.1035 72.4891 48.877 72.4999 49.6182C72.4891 50.1123 72.5429 50.6279 72.414 51.1113C72.2099 51.9277 71.5975 52.626 70.8241 52.9482C70.0184 53.292 69.0409 53.2168 68.2997 52.7441C67.5155 52.2715 67.0106 51.3799 67.0106 50.4668C67.0106 49.79 66.9999 49.1133 67.0106 48.4365C67.0429 47.2764 67.913 46.2129 69.0302 45.9336Z" fill="#4DF189"/>
<path d="M24.8368 57.6533C24.8475 56.246 26.0936 55.0107 27.5009 55C29.9716 54.9892 32.453 55 34.9237 55C36.1268 54.9892 37.2977 55.7197 37.8241 56.8046C39.1239 59.5654 40.4237 62.3154 41.7128 65.0761C40.8534 65.0761 39.994 65.0976 39.1347 65.0654C38.0067 62.788 36.8681 60.5107 35.7294 58.2441C35.5145 57.7929 34.9022 57.5996 34.4725 57.8574C34.161 58.0292 33.9784 58.3837 33.9999 58.7275C33.9999 64.206 33.9999 69.6845 33.9999 75.163C33.3876 75.1523 32.7753 75.1738 32.163 75.1523C32.1737 72.1015 32.163 69.04 32.163 65.9892C31.5507 65.9892 30.9384 65.9785 30.3261 65.9892C30.3261 69.0507 30.3261 72.1015 30.3261 75.163C29.7138 75.163 29.1015 75.163 28.4999 75.163C28.4999 69.3623 28.5106 63.5507 28.4999 57.7499C27.8876 57.7499 27.2753 57.7499 26.663 57.7499C26.663 60.1992 26.663 62.6376 26.663 65.0869C26.0507 65.0869 25.4491 65.0869 24.8368 65.0869C24.8368 62.6054 24.8261 60.124 24.8368 57.6533Z" fill="#4DF189"/>
<path d="M63.165 56.8047C63.6914 55.7197 64.8623 54.9893 66.0654 55C68.5361 55 71.0176 55 73.4883 55C74.8955 55.0107 76.1416 56.2461 76.1523 57.6533C76.1631 60.124 76.1523 62.6055 76.1523 65.0762C75.54 65.0762 74.9277 65.0762 74.3262 65.0762C74.3262 62.3262 74.3262 59.5762 74.3262 56.8262C73.7139 56.8262 73.1016 56.8262 72.4893 56.8262C72.4785 62.9385 72.4893 69.0508 72.4893 75.1631C71.877 75.1631 71.2754 75.1631 70.6631 75.1631C70.6631 72.1123 70.6631 69.0508 70.6631 66C70.0508 65.9785 69.4385 65.9893 68.8154 65.9893C68.8154 69.04 68.8154 72.1016 68.8154 75.1523C68.2031 75.1631 67.5908 75.1523 66.9893 75.1631C66.9893 69.3623 66.9893 63.5615 66.9893 57.7607C67 57.3633 66.7207 56.9658 66.334 56.8584C65.9365 56.7295 65.4746 56.9228 65.2705 57.2881C64.0889 59.8769 62.9824 62.498 61.7793 65.0762C60.9414 65.0654 60.1035 65.0762 59.2549 65.0762C60.5762 62.3262 61.876 59.5654 63.165 56.8047Z" fill="#4DF189"/>
<path d="M49.8018 45.9229C51.0479 45.5684 52.4658 46.2451 52.9922 47.4268C53.4004 48.2754 53.207 49.2422 53.25 50.1446C53.293 50.8643 53.0889 51.6055 52.627 52.1641C52.0039 52.9483 50.9297 53.3242 49.9522 53.1094C48.9102 52.9053 48.0293 52.0459 47.8145 51.0039C47.6856 50.2197 47.7822 49.4248 47.75 48.6299C47.707 47.3946 48.5986 46.2237 49.8018 45.9229Z" fill="#4DF189"/>
<path d="M43.9258 56.7939C44.4414 55.7412 45.5586 55.0107 46.7402 55C49.2109 55 51.6816 55 54.1523 55C55.3662 54.9893 56.5479 55.709 57.0742 56.8047C57.751 58.2441 58.4277 59.6836 59.1152 61.123C58.6963 62.0469 58.2559 62.96 57.8262 63.8838C56.8379 61.9932 55.9248 60.0596 54.9473 58.1689C54.7002 57.7715 54.1309 57.6211 53.7334 57.8682C53.4219 58.04 53.2393 58.3945 53.2607 58.749C53.2607 64.2275 53.2607 69.6953 53.2607 75.1738C52.6484 75.1846 52.0469 75.1738 51.4346 75.1738C51.4346 72.4238 51.4346 69.6738 51.4346 66.9238C50.8223 66.9131 50.21 66.9131 49.5869 66.9238C49.5869 69.6738 49.5869 72.4238 49.5869 75.1738C48.9746 75.1738 48.3623 75.1738 47.7607 75.1738C47.7607 69.373 47.7607 63.583 47.7607 57.7822C47.7822 57.2881 47.3633 56.8477 46.8691 56.8369C46.5146 56.8262 46.1602 57.041 46.0205 57.3633C45.0537 59.501 44.1299 61.6494 43.1523 63.7871C42.7441 62.8955 42.3145 62.0146 41.9062 61.123C42.5723 59.6836 43.249 58.2441 43.9258 56.7939Z" fill="#4DF189"/>
<path d="M63.2829 49.5H63.3903C63.3903 50.9824 63.3903 52.4541 63.3903 53.9365L63.3044 53.9902C63.2614 52.4971 63.2936 50.9932 63.2829 49.5Z" fill="#9D9D9B"/>
</g>
<defs>
<clipPath id="clip0_529_5122">
<rect width="55" height="55" fill="white" transform="translate(23 22)"/>
</clipPath>
</defs>
</svg>
