<svg width="24" height="24" viewBox="0 0 24 24" fill="none" xmlns="http://www.w3.org/2000/svg">
<g clip-path="url(#clip0_824_4652)">
<path d="M7.37812 0H8.1375C9.8625 0.0515625 11.6156 0.375 13.1578 1.18125C14.0203 1.64531 14.8453 2.28281 15.2859 3.17813C15.6375 3.86719 15.6469 4.72031 15.3 5.41406C14.8781 6.28125 14.0813 6.9 13.2516 7.34531C11.7141 8.14687 9.96562 8.47031 8.24531 8.52656C6.97969 8.56406 5.70469 8.44219 4.47656 8.13281C3.60469 7.9125 2.74688 7.59375 1.96875 7.125C1.28437 6.70781 0.642188 6.16406 0.276563 5.4375C0.121875 5.1375 0.0375 4.80937 0 4.47656V4.22812C0.0375 3.26719 0.65625 2.4375 1.39219 1.86562C2.15625 1.26094 3.06094 0.848437 3.98906 0.557812C5.08594 0.210937 6.23437 0.0515625 7.37812 0Z" fill="#2A5339"/>
<path d="M0 7.38281C1.03125 8.38125 2.37656 8.99531 3.74531 9.39375C5.70938 9.94219 7.78594 10.0641 9.80625 9.80625C8.96719 10.65 8.29219 11.6531 7.83281 12.75C6.22031 12.7406 4.59844 12.5016 3.09844 11.9016C2.23125 11.5453 1.39219 11.0672 0.764062 10.3594C0.328125 9.88125 0.0234375 9.26719 0 8.61094V7.38281Z" fill="#2A5339"/>
<path d="M12.3607 9.59529C13.5795 8.8781 14.9951 8.50779 16.4107 8.53592C17.7045 8.55467 18.9936 8.91091 20.1139 9.55779C21.0607 10.1015 21.8904 10.8515 22.5326 11.7375C23.4607 13.0078 23.9764 14.5687 24.0045 16.139V16.3922C23.9764 17.9765 23.4561 19.5422 22.5139 20.8219C21.6186 22.0453 20.3623 23.0015 18.9373 23.5265C18.1404 23.8265 17.2873 23.9765 16.4389 24.0047H16.0967C14.6623 23.9672 13.242 23.5359 12.0467 22.7437C10.242 21.5719 8.96231 19.6219 8.63418 17.4937C8.39981 16.0406 8.592 14.5172 9.18731 13.1719C9.8295 11.6812 10.9639 10.4109 12.3607 9.59529ZM15.5623 11.3437C15.5623 11.8547 15.5623 12.3703 15.5623 12.8812C14.9436 13.1015 14.4373 13.6172 14.2498 14.2453C14.0389 14.9156 14.1982 15.689 14.6623 16.2234C15.0561 16.6922 15.6561 16.964 16.2654 16.9687C16.6029 16.964 16.917 17.2359 16.9592 17.5734C17.0295 17.9812 16.6779 18.3844 16.2654 18.375C15.8857 18.3844 15.5623 18.0469 15.5529 17.6719C15.0842 17.6719 14.6201 17.6719 14.1514 17.6719C14.142 18.5437 14.7373 19.3687 15.5576 19.65C15.5623 20.1609 15.5576 20.6765 15.5576 21.1875C16.0264 21.1875 16.4951 21.1875 16.9639 21.1875C16.9639 20.6765 16.9639 20.1656 16.9639 19.65C17.5686 19.4344 18.0654 18.9375 18.2623 18.3234C18.4873 17.6531 18.342 16.8703 17.8873 16.3312C17.4936 15.8484 16.8842 15.5625 16.2607 15.5625C15.8482 15.5719 15.492 15.1687 15.5623 14.7609C15.6092 14.3578 16.0545 14.0578 16.4482 14.1797C16.7482 14.2594 16.9592 14.55 16.9686 14.8547C17.4373 14.8547 17.9014 14.8547 18.3701 14.8547C18.3795 13.9828 17.7842 13.1578 16.9639 12.8765C16.9592 12.3656 16.9639 11.85 16.9639 11.339C16.4998 11.3437 16.0311 11.3437 15.5623 11.3437Z" fill="#2A5339"/>
<path d="M0 11.6016C0.721875 12.3 1.60313 12.8062 2.52656 13.1859C4.06875 13.8094 5.72813 14.0906 7.38281 14.1422C7.16719 15.0563 7.07344 15.9984 7.15781 16.9359C5.74219 16.8656 4.32656 16.6125 3.01406 16.0734C2.2875 15.7687 1.58438 15.375 1.00781 14.8312C0.46875 14.3297 0.065625 13.6594 0 12.9141V11.6016Z" fill="#2A5339"/>
<path d="M0 15.8203C0.642188 16.4391 1.41094 16.9125 2.22188 17.2734C3.83906 17.9859 5.61094 18.3 7.37344 18.3563C7.60781 19.3406 8.00625 20.2875 8.55 21.1406C8.15625 21.1875 7.75781 21.1875 7.35938 21.1734C5.89688 21.1219 4.425 20.8734 3.06094 20.3203C2.2125 19.9688 1.39688 19.5 0.778125 18.8156C0.3375 18.3375 0.0234375 17.7141 0 17.0484V15.8203Z" fill="#2A5339"/>
</g>
<defs>
<clipPath id="clip0_824_4652">
<rect width="24" height="24" fill="white"/>
</clipPath>
</defs>
</svg>
