<svg width="65" height="65" viewBox="0 0 65 65" fill="none" xmlns="http://www.w3.org/2000/svg">
<g clip-path="url(#clip0_329_5123)">
<path d="M30.7838 1.67676C31.3602 0.576394 32.5915 -0.0785841 33.8229 1.32238e-05C37.3336 0.0262123 40.8442 -0.0261859 44.3549 0.0262123C46.2413 0.131009 47.6298 2.17454 47.1058 3.95608C46.7652 5.34463 45.4553 6.2354 44.0667 6.3402C44.0667 7.20477 44.0667 8.04314 44.0667 8.90771C47.263 9.56269 50.3021 10.8726 53.0792 12.6018C53.7604 11.8682 54.4678 11.187 55.1752 10.4797C56.7995 10.4535 58.45 10.8464 59.7862 11.7896C61.8559 13.1782 63.0873 15.6671 62.9825 18.156C62.3799 18.9682 61.5677 19.6231 60.8342 20.3567C63.6899 24.8106 65.2094 30.1028 65.026 35.4212C64.8426 42.1282 61.9345 48.7304 57.0877 53.3938C52.398 57.9787 45.9269 60.7034 39.3771 60.8082C33.9801 60.9654 28.6355 59.2886 24.1292 56.3019C24.5746 57.4809 24.9414 58.8956 24.1554 60.0222C23.3432 61.1225 22.2429 62.3015 20.7495 62.3015C19.8326 62.4587 18.968 61.5417 18.0772 61.9871C17.1078 62.2753 17.1602 63.5067 16.4267 64.083C15.4573 65.0786 13.964 65.0786 12.6802 64.9476C11.5274 64.7904 10.5581 63.952 10.1389 62.8779C9.87689 62.0395 8.80273 61.6203 8.04295 62.0395C6.99499 62.5111 5.68503 62.4063 4.76806 61.6727C3.85109 60.913 2.88173 59.996 2.77693 58.7384C2.54114 57.5595 3.7987 56.3019 2.75073 55.2539C1.75517 54.73 0.628604 54.1798 0.261816 53.027C-0.13117 51.5337 -0.13117 49.6473 1.10019 48.5208C1.67657 47.892 2.80313 47.892 3.06512 46.975C3.51051 46.0843 2.59354 45.2459 2.75073 44.3289C2.75073 42.9666 3.7725 41.9448 4.74186 41.1326C5.65883 40.399 6.96879 40.2681 8.04295 40.7658C8.82893 41.185 9.90309 40.6872 10.1651 39.8489C10.5843 38.6961 11.6846 37.9625 12.8374 37.7791C12.0514 31.7533 13.5448 25.4918 16.8459 20.3829C16.1385 19.6755 15.4311 18.9682 14.7237 18.287C14.6451 16.0863 15.5097 13.8855 17.1864 12.4184C18.6274 11.0822 20.5923 10.4535 22.5311 10.5059C23.2384 11.2132 23.9458 11.9206 24.6532 12.628C27.3779 10.8726 30.417 9.61509 33.6133 8.96011C33.6133 8.09554 33.6133 7.23097 33.6133 6.3664C32.9321 6.2616 32.1985 6.10441 31.6484 5.63282C30.4432 4.71585 30.0764 2.96051 30.7838 1.67676ZM33.1155 2.20074C32.1461 2.59373 32.4605 4.21807 33.5347 4.19187C36.6786 4.21807 39.8225 4.19187 42.9926 4.21807C43.6213 4.16567 44.4859 4.40146 44.9051 3.77269C45.4029 3.14391 44.8789 2.09594 44.0667 2.12214C40.8442 2.09594 37.5956 2.12214 34.3731 2.09594C33.9539 2.12214 33.5085 2.04354 33.1155 2.20074ZM35.6568 6.2878C35.6568 7.04757 35.6568 7.80735 35.6568 8.56712C37.7527 8.33133 39.8487 8.33133 41.9446 8.56712C41.9446 7.80735 41.9446 7.04757 41.9446 6.2878C39.8487 6.2878 37.7527 6.2878 35.6568 6.2878ZM30.7314 11.8944C25.3606 13.7807 20.7233 17.6844 17.92 22.6098C15.2739 27.1685 14.1997 32.5917 14.9595 37.8053C16.3219 38.1459 17.0554 39.3511 17.6318 40.53C17.0292 38.0673 16.6887 35.5522 16.8983 33.0109C17.2388 27.9807 19.4134 23.0814 22.8979 19.4398C26.0679 16.0863 30.3384 13.7545 34.897 12.9424C39.5867 12.0778 44.5383 12.7852 48.7826 14.9597C52.9744 17.0818 56.4589 20.5925 58.5548 24.8106C60.7818 29.2382 61.4105 34.4518 60.3364 39.2987C59.3408 43.8573 56.8257 48.0754 53.315 51.1407C49.6209 54.3894 44.8265 56.3543 39.9011 56.5639C35.3948 56.7997 30.8624 55.5683 27.0635 53.158C26.6967 53.7868 26.2251 54.337 25.6226 54.73C29.6834 57.3761 34.5303 58.7908 39.3771 58.6598C44.6955 58.555 49.9615 56.6163 54.0748 53.2104C58.5024 49.6211 61.5939 44.4075 62.5633 38.7747C63.5065 33.5087 62.6419 27.9545 60.1006 23.2386C57.4545 18.2608 53.0268 14.2785 47.787 12.1826C42.39 10.0343 36.207 9.92948 30.7314 11.8944ZM16.8459 17.2652C17.0554 17.8154 17.6842 18.156 18.051 18.6276C19.4396 16.8198 21.0639 15.2217 22.8717 13.8069C22.4525 13.3878 22.0595 12.9948 21.6403 12.5756C19.23 12.7852 17.0554 14.8025 16.8459 17.2652ZM55.9873 12.6018C55.5943 13.021 55.1752 13.414 54.7822 13.8069C56.5637 15.2217 58.1881 16.846 59.6028 18.6276C60.022 18.2084 60.4936 17.8154 60.8604 17.3176C60.6246 14.8549 58.45 12.759 55.9873 12.6018ZM25.5178 19.8065C26.4871 20.7759 27.4565 21.7715 28.4521 22.7408C27.9543 23.2386 27.4565 23.7364 26.9587 24.2342C25.9893 23.2648 25.02 22.2955 24.0244 21.2999C21.0115 24.6534 19.1776 29.0286 18.9418 33.5349C20.3303 33.5349 21.6927 33.5349 23.0812 33.5349C23.0812 34.2423 23.0812 34.9234 23.0812 35.6308C21.6927 35.6308 20.3041 35.6308 18.9156 35.6308C19.0204 37.2814 19.3348 38.9057 19.8064 40.4776C21.0115 40.2419 22.2429 40.6086 23.0812 41.4732C23.0812 40.923 23.0812 40.3728 23.0812 39.8227C24.4698 39.8227 25.8845 39.8227 27.2731 39.8227C27.2731 35.6308 27.2731 31.4389 27.2731 27.2471C29.369 27.2471 31.465 27.2471 33.5609 27.2471C33.5609 31.4389 33.5609 35.6308 33.5609 39.8227C34.2683 39.8227 34.9494 39.8227 35.6568 39.8227C35.6568 34.2423 35.6568 28.6356 35.6568 23.0552C37.7527 23.0552 39.8487 23.0552 41.9446 23.0552C41.9446 28.6356 41.9446 34.2423 41.9446 39.8227C42.652 39.8227 43.3332 39.8227 44.0405 39.8227C44.0405 36.3382 44.0405 32.8275 44.0405 29.343C46.1365 29.343 48.2324 29.343 50.3283 29.343C50.3283 32.8275 50.3283 36.3382 50.3283 39.8227C51.7169 39.8227 53.1316 39.8227 54.5202 39.8227C54.5202 40.53 54.5202 41.2112 54.5202 41.9186C44.1977 41.9186 33.8491 41.9448 23.5266 41.9186C24.5222 42.888 24.9152 44.4337 24.3126 45.7175C23.9982 46.2676 24.2602 46.8702 24.496 47.3942C25.3344 46.6082 26.1465 45.7699 26.9587 44.9577C27.4565 45.4555 27.9543 45.9533 28.4259 46.451C27.7185 47.1322 27.0373 47.8396 26.3561 48.5208C26.9063 49.1758 27.2469 49.9355 27.3255 50.8001C30.3646 53.0008 34.0325 54.2584 37.7789 54.468C37.7789 53.0794 37.7789 51.6909 37.7789 50.3023C38.4863 50.3023 39.1675 50.3023 39.8749 50.3023C39.8749 51.6909 39.8749 53.0794 39.8749 54.4418C44.3811 54.206 48.7826 52.372 52.1361 49.3591C51.1667 48.3898 50.1973 47.4204 49.2018 46.4248C49.6995 45.9271 50.1973 45.4293 50.6689 44.9577C51.6383 45.9271 52.6076 46.8964 53.6032 47.892C56.6161 44.5385 58.45 40.1371 58.6858 35.6308C57.2973 35.6308 55.9087 35.6308 54.5464 35.6308C54.5464 34.9234 54.5464 34.2423 54.5464 33.5349C55.9349 33.5349 57.2973 33.5349 58.6858 33.5349C58.45 29.0286 56.6161 24.6272 53.6032 21.2737C52.6338 22.2431 51.6645 23.2124 50.6689 24.208C50.1711 23.7102 49.6733 23.2124 49.2018 22.7146C50.1711 21.7453 51.1405 20.7759 52.1361 19.7803C48.7826 16.7674 44.3811 14.9335 39.8749 14.6977C39.8749 16.0863 39.8749 17.4486 39.8749 18.8372C39.1675 18.8372 38.4863 18.8372 37.7789 18.8372C37.7789 17.4486 37.7789 16.0863 37.7789 14.6977C33.2465 14.9597 28.8712 16.7936 25.5178 19.8065ZM37.7527 25.1512C37.7527 30.0504 37.7527 34.9234 37.7527 39.8227C38.4601 39.8227 39.1413 39.8227 39.8487 39.8227C39.8487 34.9234 39.8487 30.0504 39.8487 25.1512C39.1675 25.1512 38.4601 25.1512 37.7527 25.1512ZM29.369 29.343C29.369 32.8275 29.369 36.3382 29.369 39.8227C30.0764 39.8227 30.7576 39.8227 31.465 39.8227C31.465 36.3382 31.465 32.8275 31.465 29.343C30.7838 29.343 30.0764 29.343 29.369 29.343ZM46.1365 31.4389C46.1365 34.2423 46.1365 37.0194 46.1365 39.8227C46.8438 39.8227 47.525 39.8227 48.2324 39.8227C48.2324 37.0194 48.2324 34.2423 48.2324 31.4389C47.5512 31.4389 46.8438 31.4389 46.1365 31.4389ZM12.8898 39.8751C12.1038 40.0061 12.0252 40.9492 11.6322 41.4732C10.8725 42.5212 9.4839 43.0714 8.20015 42.9404C7.49277 42.8618 6.733 42.2068 6.05182 42.7046C5.42304 43.2285 4.45367 43.9883 4.95146 44.9053C5.60643 46.2414 5.16105 47.892 4.19168 48.94C3.6939 49.4901 2.93413 49.6211 2.38394 50.0665C1.96476 50.6429 2.12195 51.4289 2.14815 52.0839C2.30535 52.9222 3.35331 52.9484 3.90349 53.4462C5.03005 54.4156 5.63263 56.1447 5.03005 57.5333C4.87286 57.9787 4.66327 58.5026 5.00386 58.9218C5.52784 59.5506 6.26141 60.4938 7.17838 60.0222C8.59313 59.341 10.3223 59.8126 11.3702 60.8868C11.8418 61.3583 11.9728 62.0657 12.392 62.5635C12.9684 62.9827 13.7282 62.8255 14.4093 62.7993C14.9595 62.7469 15.1691 62.1705 15.3787 61.7513C15.9289 60.389 17.5008 59.6816 18.9156 59.7078C19.7016 59.7078 20.5137 60.4938 21.2735 59.9698C21.9023 59.4458 22.8717 58.7122 22.3739 57.7691C21.7189 56.4329 22.1643 54.7824 23.1074 53.7082C23.579 53.158 24.365 53.027 24.9152 52.5554C25.3344 51.9791 25.1772 51.1931 25.151 50.5381C25.02 49.7521 24.103 49.6735 23.5528 49.2543C22.5049 48.4946 21.9285 47.106 22.0595 45.8223C22.1381 45.1149 22.7931 44.3551 22.2953 43.6739C21.7713 43.019 21.0115 42.0758 20.0683 42.5736C18.7322 43.2285 17.1078 42.7832 16.0337 41.8138C15.4835 41.316 15.3525 40.5562 14.9071 40.0061C14.3307 39.6655 13.5448 39.8227 12.8898 39.8751Z" fill="#741BF2"/>
<path d="M11.9732 44.2242C15.1433 43.412 18.7064 45.0364 20.1735 47.9707C21.1953 49.9094 21.2739 52.3459 20.3569 54.3633C19.3875 56.5378 17.2916 58.1621 14.9599 58.5813C12.3662 59.0791 9.58906 58.0311 7.96472 55.9876C6.10458 53.7345 5.79019 50.3548 7.25734 47.8135C8.22671 46.0319 9.98205 44.6958 11.9732 44.2242ZM12.9163 46.1629C11.1086 46.3987 9.48426 47.6825 8.80309 49.3592C8.01711 51.1932 8.4363 53.4725 9.82485 54.9134C11.0824 56.302 13.1259 56.9046 14.9599 56.433C16.951 55.9614 18.523 54.2061 18.8373 52.1887C19.1255 50.512 18.4968 48.7043 17.2392 47.5253C16.0864 46.4511 14.4621 45.9534 12.9163 46.1629Z" fill="#741BF2"/>
<path d="M12.7067 48.3637C14.4359 47.7611 16.4794 49.0187 16.7414 50.8264C17.082 52.5555 15.6934 54.3633 13.9381 54.4943C12.2613 54.7039 10.6108 53.3415 10.506 51.6648C10.375 50.2238 11.3444 48.7829 12.7067 48.3637ZM13.2307 50.4072C12.5757 50.6692 12.3923 51.6386 12.9163 52.1102C13.4403 52.6865 14.5407 52.3722 14.6716 51.6124C14.9074 50.8002 13.9643 50.0142 13.2307 50.4072Z" fill="#741BF2"/>
</g>
<defs>
<clipPath id="clip0_329_5123">
<rect width="65" height="65" fill="white"/>
</clipPath>
</defs>
</svg>
