<svg width="29" height="24" viewBox="0 0 29 24" fill="none" xmlns="http://www.w3.org/2000/svg">
<g clip-path="url(#clip0_846_5491)">
<path d="M0.793935 0.827028C1.30117 0.303251 2.02895 1.18715e-05 2.75672 1.18715e-05C5.18263 1.18715e-05 16.43 1.18715e-05 18.856 1.18715e-05C19.0434 1.18715e-05 19.2474 -0.0220419 19.4018 0.0992538C19.5507 0.192982 19.6223 0.363899 19.6444 0.529302C19.6499 0.838055 19.3853 1.11924 19.071 1.1027C16.6285 1.10821 5.36458 1.1027 2.92212 1.1027C2.61337 1.09167 2.29359 1.13027 2.01241 1.27913C1.45003 1.5548 1.08063 2.16679 1.09717 2.78981C1.09717 6.8863 1.09717 10.9883 1.09717 15.0848C1.09166 15.5865 1.32323 16.0827 1.71468 16.397C2.01792 16.6451 2.41489 16.7719 2.80634 16.7609C7.20607 16.7609 11.6058 16.7609 16.0055 16.7609C16.2702 15.2778 17.1027 13.9049 18.2936 12.9842C19.3853 12.1296 20.7746 11.6609 22.1585 11.694C23.1123 11.705 24.0662 11.9476 24.9152 12.3887C24.9152 9.24605 24.9152 6.09788 24.9152 2.95522C24.9207 2.67954 24.9042 2.39284 24.7939 2.13923C24.5569 1.54377 23.9504 1.11373 23.3108 1.10821C20.6313 1.1027 17.9518 1.10821 15.2722 1.10821C14.9469 1.13578 14.6713 0.854595 14.6713 0.534815C14.6933 0.25363 14.9249 0.00552531 15.2171 0.00552531C17.8635 1.18716e-05 20.51 0.00552531 23.1564 0.00552531C23.4321 0.00552531 23.7133 0.0275791 23.9835 0.104767C25.1303 0.396979 26.0069 1.49967 26.0179 2.68506C26.0289 6.16955 26.0124 9.65404 26.0234 13.1385C26.5803 13.6017 27.0544 14.1695 27.4128 14.7981C27.8925 15.6196 28.1461 16.5569 28.2233 17.5052V18.1337C28.1516 19.2474 27.8098 20.3446 27.1813 21.2653C26.1723 22.7815 24.4686 23.807 22.6547 23.9669C20.8353 24.1544 18.9607 23.4652 17.6871 22.153C16.5679 21.0283 15.9173 19.4514 15.9173 17.8636C11.5451 17.8636 7.1785 17.8636 2.81185 17.8636C2.051 17.8746 1.29566 17.5658 0.771882 17.0145C0.297726 16.5238 0.0220538 15.8567 0 15.173V2.65198C0.0330806 1.97382 0.314266 1.31221 0.793935 0.827028ZM21.8001 12.7967C20.113 12.8739 18.5141 13.8718 17.6871 15.3384C17.0641 16.419 16.8711 17.7312 17.1468 18.9442C17.4004 20.0965 18.0841 21.1441 19.0214 21.8553C19.8263 22.4673 20.8187 22.8312 21.8277 22.8808C23.0076 22.9414 24.1985 22.572 25.1358 21.8498C25.9683 21.2157 26.5968 20.317 26.9001 19.3191C27.2033 18.3432 27.1978 17.2736 26.8835 16.2977C26.5252 15.1785 25.7643 14.1971 24.7774 13.5686C23.9008 13.0117 22.8422 12.7416 21.8001 12.7967Z" fill="#1C2436"/>
<path d="M12.1956 0.529309C12.2177 0.248124 12.4493 1.87306e-05 12.7415 1.87306e-05C13.0392 -0.0165216 13.2873 0.24261 13.3094 0.529309C13.3149 0.838061 13.0502 1.11925 12.7415 1.09719C12.4327 1.10271 12.1901 0.827035 12.1956 0.529309Z" fill="#1C2436"/>
<path d="M7.07918 3.76016C8.22046 3.68849 9.37828 4.00827 10.3211 4.65886C11.297 5.33149 12.0413 6.34045 12.3666 7.48174C12.7194 8.67264 12.6202 9.99586 12.0909 11.1206C11.5671 12.2398 10.6353 13.1606 9.50509 13.6623C8.33073 14.1916 6.94685 14.2578 5.72838 13.8387C4.54851 13.4418 3.52852 12.5982 2.9055 11.5231C2.29902 10.481 2.07849 9.21847 2.29351 8.02757C2.51956 6.71537 3.28593 5.50792 4.36656 4.73053C5.14947 4.15713 6.1033 3.8153 7.07918 3.76016ZM6.71529 4.90696C5.84968 5.05031 5.0392 5.48587 4.43273 6.11992C3.80971 6.7705 3.41274 7.62509 3.33004 8.51826C3.23631 9.44452 3.46236 10.4149 3.99716 11.1813C4.31143 10.448 4.94547 9.86906 5.68979 9.58236C5.46374 9.23501 5.35898 8.8215 5.37001 8.40799C5.35898 7.9614 5.3645 7.49276 5.57952 7.09028C5.84968 6.53342 6.39 6.1144 6.99647 5.99862C7.55333 5.88284 8.1543 6.02067 8.6064 6.36802C9.08607 6.72639 9.39482 7.31633 9.40585 7.9173C9.40585 8.17643 9.41687 8.43556 9.40033 8.69469C9.37277 9.01447 9.24596 9.3122 9.09709 9.59338C9.84692 9.86354 10.4755 10.459 10.7842 11.1923C11.5175 10.1006 11.6774 8.65058 11.1812 7.4266C10.8063 6.47278 10.0564 5.67333 9.13018 5.23777C8.38586 4.89042 7.53128 4.77464 6.71529 4.90696ZM7.12328 7.10682C6.88069 7.1785 6.67118 7.36044 6.56091 7.592C6.42859 7.86768 6.48372 8.18194 6.4727 8.47415C6.45616 8.83804 6.68221 9.19641 7.01301 9.33976C7.40447 9.52722 7.91171 9.37836 8.14878 9.01447C8.36932 8.69469 8.29213 8.29221 8.29765 7.92832C8.28662 7.35493 7.65809 6.91936 7.12328 7.10682ZM4.86829 12.1351C5.63465 12.7416 6.62707 13.0613 7.60847 13.0062C8.441 12.9676 9.25698 12.6533 9.91308 12.1351C9.81936 11.286 9.07504 10.5693 8.22046 10.5252C7.66911 10.5141 7.11777 10.5141 6.56643 10.5252C5.70633 10.5637 4.96202 11.286 4.86829 12.1351Z" fill="#1C2436"/>
<path d="M14.1972 4.69747C14.3351 4.67542 14.4729 4.68644 14.6107 4.68644C17.4777 4.68644 20.3447 4.68644 23.2117 4.68644C23.5094 4.6699 23.7851 4.92352 23.7851 5.22125C23.7906 5.95453 23.7851 6.68782 23.7851 7.42111C23.7906 7.63062 23.6748 7.83462 23.4874 7.92834C23.333 8.01105 23.1511 7.98899 22.9857 7.99451C20.1021 7.99451 17.2131 7.99451 14.3296 7.99451C14.0153 8.01656 13.7286 7.74089 13.7451 7.42662C13.7451 6.68782 13.7396 5.95453 13.7451 5.21573C13.7562 4.96763 13.9491 4.74158 14.1972 4.69747ZM14.8533 5.78913C14.8533 6.15853 14.8533 6.52242 14.8533 6.89182C17.4612 6.89182 20.0746 6.89182 22.6824 6.89182C22.6824 6.52242 22.6824 6.15853 22.6824 5.78913C20.0746 5.78362 17.4667 5.78913 14.8533 5.78913Z" fill="#1C2436"/>
<path d="M14.1971 9.49416C14.3515 9.47211 14.5114 9.48313 14.6657 9.48313C17.4445 9.48313 20.2178 9.48313 22.9965 9.48313C23.1785 9.48313 23.3825 9.46108 23.5424 9.57686C23.7905 9.73124 23.8677 10.0951 23.7023 10.3322C23.5975 10.4976 23.4045 10.5913 23.2116 10.5858C20.2508 10.5858 17.2956 10.5858 14.3349 10.5858C14.0648 10.6024 13.8001 10.3929 13.7615 10.1227C13.7064 9.84151 13.9159 9.54378 14.1971 9.49416Z" fill="#1C2436"/>
<path d="M14.1972 12.091C14.8533 12.0689 15.5038 12.0855 16.1599 12.08C16.4687 12.0689 16.7389 12.3556 16.7113 12.6589C16.7003 12.9456 16.4356 13.1882 16.1489 13.1771C15.5479 13.1827 14.9415 13.1771 14.335 13.1771C14.0593 13.1937 13.7892 12.9842 13.7561 12.7085C13.7065 12.4328 13.916 12.1406 14.1972 12.091Z" fill="#1C2436"/>
<path d="M21.7118 13.9766C22.1695 13.7726 22.7594 14.0152 22.9358 14.4838C23.1012 14.9525 23.2446 15.4266 23.399 15.8953C23.8897 15.8953 24.3803 15.8897 24.8655 15.9008C25.246 15.9118 25.5988 16.182 25.7091 16.5458C25.8304 16.9152 25.6925 17.3508 25.3783 17.5769C24.9923 17.858 24.6064 18.1392 24.2205 18.4204C24.3693 18.878 24.5237 19.3356 24.667 19.7988C24.7773 20.1682 24.6285 20.5927 24.3087 20.8132C24.0054 21.0338 23.5644 21.0448 23.2556 20.8298C22.8586 20.5541 22.4727 20.2619 22.0757 19.9807C21.6953 20.2564 21.3149 20.5376 20.9344 20.8132C20.6588 21.0228 20.2618 21.0558 19.9531 20.8904C19.6774 20.7526 19.4789 20.4659 19.4513 20.1571C19.4293 19.9697 19.4844 19.7822 19.5451 19.6058C19.6774 19.2143 19.7987 18.8174 19.931 18.4259C19.534 18.1172 19.115 17.8415 18.718 17.5327C18.3542 17.235 18.288 16.6616 18.5692 16.2867C18.7346 16.0496 19.0103 15.9008 19.3025 15.8953C19.7877 15.8897 20.2673 15.8953 20.7525 15.8953C20.9014 15.4431 21.0392 14.991 21.1881 14.5445C21.2653 14.2908 21.4637 14.0813 21.7118 13.9766ZM21.6732 16.623C21.6071 16.8381 21.3976 16.9924 21.177 16.9979C20.7415 17.0035 20.3114 16.9979 19.8759 17.0035C20.2122 17.2736 20.5761 17.5052 20.9179 17.7698C21.1054 17.9077 21.1826 18.1668 21.1054 18.3873C20.973 18.8008 20.8352 19.2088 20.7029 19.6168C21.0613 19.3577 21.4196 19.093 21.778 18.8339C21.9655 18.7016 22.2301 18.7181 22.412 18.856C22.7594 19.1096 23.1123 19.3577 23.4596 19.6168C23.3107 19.2143 23.1894 18.8063 23.0516 18.3984C22.9689 18.1778 23.0461 17.9077 23.2391 17.7698C23.5919 17.5107 23.9448 17.2571 24.2976 17.0035C23.8621 17.0035 23.421 17.009 22.9854 17.0035C22.7484 17.0035 22.5278 16.838 22.4617 16.612C22.3293 16.2095 22.197 15.8015 22.0702 15.399C21.9324 15.8015 21.8111 16.215 21.6732 16.623Z" fill="#1C2436"/>
<path d="M23.3162 1.1082C23.9613 1.11371 24.5678 1.54376 24.7993 2.13921C24.9096 2.39834 24.9262 2.67953 24.9206 2.9552C24.9206 6.09786 24.9206 9.24603 24.9206 12.3887C24.0716 11.9476 23.1233 11.705 22.1639 11.694C20.78 11.6664 19.3907 12.1351 18.299 12.9841C17.1081 13.9049 16.2756 15.2777 16.0109 16.7608C11.6112 16.7608 7.21148 16.7608 2.81175 16.7608C2.4203 16.7664 2.02333 16.6451 1.72009 16.397C1.32864 16.0827 1.09156 15.5865 1.10258 15.0848C1.10258 10.9883 1.10258 6.88628 1.10258 2.7898C1.08604 2.16678 1.45544 1.54927 2.01782 1.27911C2.29349 1.13025 2.61327 1.09166 2.92753 1.10268C5.36447 1.10268 20.6312 1.10268 23.3162 1.1082ZM7.07915 3.76016C6.10327 3.8153 5.14945 4.15713 4.36103 4.73053C3.28039 5.50792 2.51402 6.70985 2.28797 8.02756C2.07295 9.21847 2.29349 10.481 2.89997 11.5231C3.52298 12.6037 4.54297 13.4418 5.72285 13.8387C6.94683 14.2633 8.32519 14.1971 9.49955 13.6623C10.6298 13.1606 11.5616 12.2398 12.0854 11.1206C12.6146 9.99586 12.7139 8.67815 12.361 7.48173C12.0302 6.34045 11.2914 5.33149 10.3155 4.65885C9.37826 4.00827 8.21492 3.68849 7.07915 3.76016ZM14.197 4.69745C13.9544 4.74155 13.7559 4.9676 13.7559 5.21571C13.7504 5.95451 13.7559 6.6878 13.7559 7.4266C13.7394 7.74086 14.0261 8.01654 14.3404 7.99448C17.2239 7.99448 20.1074 7.99448 22.9965 7.99448C23.1619 7.98897 23.3438 8.01654 23.4982 7.92832C23.6856 7.83459 23.8014 7.6306 23.7959 7.42108C23.7959 6.6878 23.8014 5.95451 23.7959 5.22122C23.7959 4.9235 23.5202 4.66988 23.2225 4.68642C20.3555 4.68642 17.4885 4.68642 14.6215 4.68642C14.4727 4.68642 14.3348 4.67539 14.197 4.69745ZM14.197 9.49414C13.9158 9.54376 13.7118 9.83597 13.7614 10.1172C13.8 10.3873 14.0592 10.5968 14.3348 10.5803C17.2956 10.5803 20.2508 10.5803 23.2115 10.5803C23.4044 10.5858 23.5974 10.4921 23.7022 10.3267C23.8676 10.0841 23.7904 9.7257 23.5423 9.57133C23.3824 9.45554 23.1784 9.48311 22.9965 9.4776C20.2177 9.4776 17.4444 9.4776 14.6656 9.4776C14.5058 9.48862 14.3514 9.47208 14.197 9.49414ZM14.197 12.091C13.9158 12.1406 13.7118 12.4328 13.7614 12.714C13.7945 12.9897 14.0647 13.1992 14.3404 13.1826C14.9413 13.1826 15.5478 13.1881 16.1543 13.1826C16.441 13.1937 16.7056 12.9511 16.7166 12.6644C16.7442 12.3611 16.4741 12.0689 16.1653 12.0855C15.5037 12.0855 14.8476 12.0689 14.197 12.091Z" fill="#4DF189"/>
<path d="M6.71546 4.90696C7.53145 4.76913 8.38603 4.88491 9.13035 5.24328C10.0566 5.67884 10.8064 6.47829 11.1813 7.43212C11.6776 8.6561 11.5177 10.1061 10.7844 11.1978C10.4701 10.4645 9.84709 9.86906 9.09727 9.5989C9.24613 9.31771 9.37294 9.01999 9.40051 8.70021C9.41705 8.44108 9.41153 8.18194 9.40602 7.92281C9.39499 7.32185 9.09175 6.73191 8.60657 6.37354C8.15447 6.02619 7.5535 5.88835 6.99665 6.00414C6.39017 6.11992 5.84985 6.53894 5.57969 7.0958C5.36467 7.50379 5.36467 7.96692 5.37018 8.41351C5.35364 8.82702 5.46391 9.24052 5.68996 9.58787C4.94565 9.86906 4.3116 10.448 3.99734 11.1868C3.46253 10.4204 3.23648 9.45004 3.33021 8.52378C3.41842 7.6306 3.81539 6.7705 4.4329 6.12543C5.03938 5.48587 5.84985 5.05031 6.71546 4.90696Z" fill="white"/>
<path d="M14.8533 5.78912C17.4666 5.78912 20.0745 5.78912 22.6824 5.78912C22.6824 6.15852 22.6824 6.52241 22.6824 6.89181C20.0745 6.89181 17.4611 6.89181 14.8533 6.89181C14.8533 6.52241 14.8533 6.15301 14.8533 5.78912Z" fill="white"/>
<path d="M7.12337 7.10682C7.66369 6.92488 8.28671 7.35493 8.29774 7.92281C8.28671 8.2867 8.36941 8.68918 8.14887 9.00896C7.91731 9.37285 7.41007 9.52171 7.01311 9.33425C6.67679 9.1909 6.45625 8.83253 6.47279 8.46864C6.48382 8.17643 6.42868 7.86216 6.561 7.58649C6.67127 7.36044 6.88078 7.1785 7.12337 7.10682Z" fill="#4DF189"/>
<path d="M21.6735 16.623C21.8113 16.215 21.9326 15.8015 22.0759 15.3935C22.2083 15.8015 22.3351 16.204 22.4674 16.6065C22.5336 16.8325 22.7541 16.9979 22.9912 16.9979C23.4267 17.0034 23.8623 16.9979 24.3034 16.9979C23.9505 17.2516 23.5976 17.5052 23.2448 17.7643C23.0518 17.9021 22.9691 18.1723 23.0573 18.3928C23.1952 18.8008 23.3165 19.2088 23.4653 19.6113C23.118 19.3522 22.7706 19.1041 22.4178 18.8504C22.2358 18.7126 21.9712 18.7016 21.7837 18.8284C21.4254 19.0875 21.067 19.3522 20.7086 19.6113C20.8409 19.2033 20.9788 18.7898 21.1111 18.3818C21.1883 18.1613 21.1111 17.9021 20.9236 17.7643C20.5818 17.4997 20.2179 17.2681 19.8816 16.9979C20.3172 16.9924 20.7472 17.0034 21.1828 16.9924C21.3978 16.9924 21.6073 16.838 21.6735 16.623Z" fill="#4DF189"/>
<path d="M4.86841 12.1351C4.96214 11.286 5.70645 10.5638 6.56655 10.5307C7.11789 10.5196 7.66924 10.5196 8.22058 10.5307C9.07516 10.5693 9.81948 11.2915 9.91321 12.1406C9.25711 12.6533 8.44663 12.9676 7.60859 13.0117C6.6272 13.0613 5.63478 12.7416 4.86841 12.1351Z" fill="#E7D6FF"/>
<path d="M21.8001 12.7967C22.8422 12.736 23.9008 13.0117 24.7774 13.5741C25.7698 14.2026 26.5307 15.184 26.8835 16.3032C27.1978 17.2791 27.2033 18.3487 26.9001 19.3246C26.5968 20.3225 25.9628 21.2212 25.1358 21.8553C24.204 22.5775 23.0076 22.9469 21.8277 22.8863C20.8187 22.8422 19.8263 22.4783 19.0214 21.8608C18.0786 21.1496 17.4004 20.102 17.1468 18.9497C16.8711 17.7367 17.0641 16.419 17.6871 15.3439C18.5141 13.8773 20.113 12.8739 21.8001 12.7967ZM21.7119 13.9766C21.4638 14.0813 21.2653 14.2908 21.1881 14.5445C21.0393 14.991 20.8959 15.4431 20.7526 15.8952C20.2674 15.8952 19.7877 15.8897 19.3025 15.8952C19.0158 15.9008 18.7347 16.0496 18.5693 16.2867C18.2936 16.6616 18.3597 17.235 18.7181 17.5327C19.1151 17.8415 19.5341 18.1172 19.9311 18.4259C19.7932 18.8174 19.6719 19.2143 19.5451 19.6058C19.4845 19.7822 19.4294 19.9697 19.4514 20.1571C19.479 20.4659 19.6775 20.7471 19.9531 20.8904C20.2619 21.0558 20.6589 21.0172 20.9345 20.8132C21.315 20.5376 21.6954 20.2619 22.0758 19.9807C22.4728 20.2619 22.8532 20.5541 23.2557 20.8298C23.5644 21.0448 24.0055 21.0393 24.3087 20.8132C24.6285 20.5927 24.7774 20.1682 24.6671 19.7988C24.5238 19.3356 24.3694 18.878 24.2205 18.4204C24.6065 18.1392 24.9924 17.8635 25.3784 17.5768C25.6926 17.3508 25.836 16.9152 25.7092 16.5458C25.5989 16.1819 25.246 15.9118 24.8656 15.9008C24.3749 15.8952 23.8842 15.9008 23.399 15.8952C23.2447 15.4266 23.1013 14.9469 22.9359 14.4838C22.754 14.0152 22.1695 13.7726 21.7119 13.9766Z" fill="#E7D6FF"/>
</g>
<defs>
<clipPath id="clip0_846_5491">
<rect width="28.2288" height="24" fill="white"/>
</clipPath>
</defs>
</svg>
