<svg width="98" height="98" viewBox="0 0 98 98" fill="none" xmlns="http://www.w3.org/2000/svg">
<mask id="mask0_5004_17815" style="mask-type:alpha" maskUnits="userSpaceOnUse" x="0" y="0" width="98" height="98">
<rect width="98" height="98" fill="#D9D9D9"/>
</mask>
<g mask="url(#mask0_5004_17815)">
<path d="M24.5 93.9167C21.0972 93.9167 18.2049 92.7257 15.8229 90.3437C13.441 87.9618 12.25 85.0694 12.25 81.6667C12.25 78.2639 13.441 75.3715 15.8229 72.9896C18.2049 70.6076 21.0972 69.4167 24.5 69.4167C25.4528 69.4167 26.3375 69.5187 27.1542 69.7229C27.9708 69.9271 28.7535 70.1993 29.5021 70.5396L35.3208 63.2917C33.4153 61.1819 32.0882 58.8 31.3396 56.1458C30.591 53.4917 30.4208 50.8375 30.8292 48.1833L22.5604 45.4271C21.4035 47.1285 19.9403 48.4896 18.1708 49.5104C16.4014 50.5312 14.4278 51.0417 12.25 51.0417C8.84722 51.0417 5.95486 49.8507 3.57292 47.4687C1.19097 45.0868 0 42.1944 0 38.7917C0 35.3889 1.19097 32.4965 3.57292 30.1146C5.95486 27.7326 8.84722 26.5417 12.25 26.5417C15.6528 26.5417 18.5451 27.7326 20.9271 30.1146C23.309 32.4965 24.5 35.3889 24.5 38.7917V39.6083L32.7687 42.4667C34.1299 40.0167 35.951 37.941 38.2323 36.2396C40.5107 34.5382 43.0792 33.4493 45.9375 32.9729V24.0917C43.2833 23.3431 41.0879 21.8962 39.3511 19.7511C37.617 17.6087 36.75 15.1083 36.75 12.25C36.75 8.84722 37.941 5.95486 40.3229 3.57292C42.7049 1.19097 45.5972 0 49 0C52.4028 0 55.2951 1.19097 57.6771 3.57292C60.059 5.95486 61.25 8.84722 61.25 12.25C61.25 15.1083 60.3653 17.6087 58.5958 19.7511C56.8264 21.8962 54.6486 23.3431 52.0625 24.0917V32.9729C54.9208 33.4493 57.4906 34.5382 59.7718 36.2396C62.0503 37.941 63.8701 40.0167 65.2313 42.4667L73.5 39.6083V38.7917C73.5 35.3889 74.691 32.4965 77.0729 30.1146C79.4549 27.7326 82.3472 26.5417 85.75 26.5417C89.1528 26.5417 92.0451 27.7326 94.4271 30.1146C96.809 32.4965 98 35.3889 98 38.7917C98 42.1944 96.809 45.0868 94.4271 47.4687C92.0451 49.8507 89.1528 51.0417 85.75 51.0417C83.5722 51.0417 81.5823 50.5312 79.7802 49.5104C77.9753 48.4896 76.5285 47.1285 75.4396 45.4271L67.1708 48.1833C67.5792 50.8375 67.409 53.474 66.6604 56.0927C65.9118 58.7142 64.5847 61.1139 62.6792 63.2917L68.4979 70.4375C69.2465 70.0972 70.0292 69.8413 70.8458 69.6698C71.6625 69.5011 72.5472 69.4167 73.5 69.4167C76.9028 69.4167 79.7951 70.6076 82.1771 72.9896C84.559 75.3715 85.75 78.2639 85.75 81.6667C85.75 85.0694 84.559 87.9618 82.1771 90.3437C79.7951 92.7257 76.9028 93.9167 73.5 93.9167C70.0972 93.9167 67.2049 92.7257 64.8229 90.3437C62.441 87.9618 61.25 85.0694 61.25 81.6667C61.25 80.3055 61.4719 78.9962 61.9156 77.7385C62.3566 76.4781 62.9514 75.3375 63.7 74.3167L57.8813 67.0687C55.091 68.634 52.1142 69.4167 48.951 69.4167C45.7851 69.4167 42.8069 68.634 40.0167 67.0687L34.3 74.3167C35.0486 75.3375 35.6448 76.4781 36.0885 77.7385C36.5295 78.9962 36.75 80.3055 36.75 81.6667C36.75 85.0694 35.559 87.9618 33.1771 90.3437C30.7951 92.7257 27.9028 93.9167 24.5 93.9167Z" fill="#5E81F4"/>
</g>
</svg>
