<svg width="183" height="30" viewBox="0 0 183 30" fill="none" xmlns="http://www.w3.org/2000/svg">
<path d="M44.1394 21.4286V8.22857H49.0234C50.0794 8.22857 50.9531 8.40457 51.6446 8.75657C52.336 9.10857 52.8514 9.59257 53.1909 10.2086C53.5303 10.8246 53.7 11.516 53.7 12.2829C53.7 13.012 53.5366 13.6846 53.2097 14.3006C52.8829 14.904 52.3737 15.3943 51.6823 15.7714C50.9909 16.136 50.1046 16.3183 49.0234 16.3183H46.5531V21.4286H44.1394ZM46.5531 14.3571H48.8726C49.7149 14.3571 50.3183 14.1749 50.6829 13.8103C51.06 13.4331 51.2486 12.924 51.2486 12.2829C51.2486 11.6291 51.06 11.12 50.6829 10.7554C50.3183 10.3783 49.7149 10.1897 48.8726 10.1897H46.5531V14.3571Z" fill="white"/>
<path d="M55.5371 21.4286V12.0754H57.6868L57.9131 13.8291C58.2525 13.2257 58.7114 12.748 59.2897 12.396C59.8805 12.0314 60.5719 11.8491 61.3639 11.8491V14.3949H60.6851C60.1571 14.3949 59.6857 14.4766 59.2708 14.64C58.856 14.8034 58.5291 15.0863 58.2902 15.4886C58.0639 15.8909 57.9508 16.4503 57.9508 17.1669V21.4286H55.5371Z" fill="white"/>
<path d="M67.3359 21.6549C66.4308 21.6549 65.6136 21.4474 64.8845 21.0326C64.1679 20.6177 63.5959 20.0457 63.1685 19.3166C62.7536 18.5749 62.5462 17.72 62.5462 16.752C62.5462 15.784 62.7599 14.9354 63.1873 14.2063C63.6148 13.4646 64.1868 12.8863 64.9034 12.4714C65.6325 12.0566 66.4496 11.8491 67.3548 11.8491C68.2474 11.8491 69.0519 12.0566 69.7685 12.4714C70.4976 12.8863 71.0696 13.4646 71.4845 14.2063C71.9119 14.9354 72.1256 15.784 72.1256 16.752C72.1256 17.72 71.9119 18.5749 71.4845 19.3166C71.0696 20.0457 70.4976 20.6177 69.7685 21.0326C69.0393 21.4474 68.2285 21.6549 67.3359 21.6549ZM67.3359 19.5617C67.9645 19.5617 68.5114 19.3291 68.9765 18.864C69.4416 18.3863 69.6742 17.6823 69.6742 16.752C69.6742 15.8217 69.4416 15.124 68.9765 14.6589C68.5114 14.1811 67.9708 13.9423 67.3548 13.9423C66.7136 13.9423 66.1605 14.1811 65.6954 14.6589C65.2428 15.124 65.0165 15.8217 65.0165 16.752C65.0165 17.6823 65.2428 18.3863 65.6954 18.864C66.1605 19.3291 66.7074 19.5617 67.3359 19.5617Z" fill="white"/>
<path d="M75.6226 10.6234C75.1826 10.6234 74.818 10.4914 74.5289 10.2274C74.2523 9.96343 74.114 9.63029 74.114 9.228C74.114 8.82571 74.2523 8.49886 74.5289 8.24743C74.818 7.98343 75.1826 7.85143 75.6226 7.85143C76.0626 7.85143 76.4209 7.98343 76.6975 8.24743C76.9866 8.49886 77.1312 8.82571 77.1312 9.228C77.1312 9.63029 76.9866 9.96343 76.6975 10.2274C76.4209 10.4914 76.0626 10.6234 75.6226 10.6234ZM72.5112 25.5771V23.5217H73.2466C73.6615 23.5217 73.9569 23.44 74.1329 23.2766C74.3089 23.1131 74.3969 22.8366 74.3969 22.4469V12.0754H76.8106V22.4469C76.8106 23.5783 76.5215 24.3829 75.9432 24.8606C75.3775 25.3383 74.6043 25.5771 73.6237 25.5771H72.5112Z" fill="white"/>
<path d="M83.8741 21.6549C82.9312 21.6549 82.0952 21.4537 81.3661 21.0514C80.6369 20.6491 80.0649 20.0834 79.6501 19.3543C79.2352 18.6251 79.0278 17.7829 79.0278 16.8274C79.0278 15.8594 79.2289 14.9983 79.6312 14.244C80.0461 13.4897 80.6118 12.9051 81.3284 12.4903C82.0575 12.0629 82.9124 11.8491 83.8929 11.8491C84.8106 11.8491 85.6215 12.0503 86.3255 12.4526C87.0295 12.8549 87.5764 13.408 87.9661 14.112C88.3684 14.8034 88.5695 15.5766 88.5695 16.4314C88.5695 16.5697 88.5632 16.7143 88.5507 16.8651C88.5507 17.016 88.5444 17.1731 88.5318 17.3366H81.4226C81.4729 18.0657 81.7244 18.6377 82.1769 19.0526C82.6421 19.4674 83.2015 19.6749 83.8552 19.6749C84.3455 19.6749 84.7541 19.568 85.0809 19.3543C85.4204 19.128 85.6718 18.8389 85.8352 18.4869H88.2866C88.1106 19.0777 87.8152 19.6183 87.4004 20.1086C86.9981 20.5863 86.4952 20.9634 85.8918 21.24C85.3009 21.5166 84.6284 21.6549 83.8741 21.6549ZM83.8929 13.8103C83.3021 13.8103 82.7804 13.98 82.3278 14.3194C81.8752 14.6463 81.5861 15.1491 81.4604 15.828H86.1181C86.0804 15.212 85.8541 14.7217 85.4392 14.3571C85.0244 13.9926 84.5089 13.8103 83.8929 13.8103Z" fill="white"/>
<path d="M94.6013 21.4286C93.6207 21.4286 92.835 21.1897 92.2441 20.712C91.6533 20.2343 91.3579 19.3857 91.3579 18.1663V14.0931H89.755V12.0754H91.3579L91.6407 9.56743H93.7716V12.0754H96.2984V14.0931H93.7716V18.1851C93.7716 18.6377 93.8659 18.952 94.0544 19.128C94.2556 19.2914 94.595 19.3731 95.0727 19.3731H96.2419V21.4286H94.6013Z" fill="white"/>
<path d="M102.921 21.4286V8.22857H105.787L109.992 16.6011L114.141 8.22857H117.007V21.4286H114.593V12.3206L110.916 19.5429H109.012L105.334 12.3206V21.4286H102.921Z" fill="white"/>
<path d="M123.999 21.6549C123.094 21.6549 122.277 21.4474 121.548 21.0326C120.831 20.6177 120.259 20.0457 119.832 19.3166C119.417 18.5749 119.21 17.72 119.21 16.752C119.21 15.784 119.423 14.9354 119.851 14.2063C120.278 13.4646 120.85 12.8863 121.567 12.4714C122.296 12.0566 123.113 11.8491 124.018 11.8491C124.911 11.8491 125.715 12.0566 126.432 12.4714C127.161 12.8863 127.733 13.4646 128.148 14.2063C128.575 14.9354 128.789 15.784 128.789 16.752C128.789 17.72 128.575 18.5749 128.148 19.3166C127.733 20.0457 127.161 20.6177 126.432 21.0326C125.703 21.4474 124.892 21.6549 123.999 21.6549ZM123.999 19.5617C124.628 19.5617 125.175 19.3291 125.64 18.864C126.105 18.3863 126.338 17.6823 126.338 16.752C126.338 15.8217 126.105 15.124 125.64 14.6589C125.175 14.1811 124.634 13.9423 124.018 13.9423C123.377 13.9423 122.824 14.1811 122.359 14.6589C121.906 15.124 121.68 15.8217 121.68 16.752C121.68 17.6823 121.906 18.3863 122.359 18.864C122.824 19.3291 123.371 19.5617 123.999 19.5617Z" fill="white"/>
<path d="M130.947 21.4286V12.0754H133.078L133.267 13.6594C133.556 13.1063 133.971 12.6663 134.511 12.3394C135.064 12.0126 135.712 11.8491 136.454 11.8491C137.61 11.8491 138.509 12.2137 139.15 12.9429C139.791 13.672 140.112 14.7406 140.112 16.1486V21.4286H137.698V16.3749C137.698 15.5703 137.535 14.9543 137.208 14.5269C136.881 14.0994 136.372 13.8857 135.68 13.8857C135.002 13.8857 134.442 14.1246 134.002 14.6023C133.575 15.08 133.361 15.7463 133.361 16.6011V21.4286H130.947Z" fill="white"/>
<path d="M146.587 21.4286C145.607 21.4286 144.821 21.1897 144.23 20.712C143.639 20.2343 143.344 19.3857 143.344 18.1663V14.0931H141.741V12.0754H143.344L143.627 9.56743H145.758V12.0754H148.284V14.0931H145.758V18.1851C145.758 18.6377 145.852 18.952 146.04 19.128C146.242 19.2914 146.581 19.3731 147.059 19.3731H148.228V21.4286H146.587Z" fill="white"/>
<path d="M150.357 21.4286V12.0754H152.507L152.733 13.8291C153.072 13.2257 153.531 12.748 154.109 12.396C154.7 12.0314 155.392 11.8491 156.184 11.8491V14.3949H155.505C154.977 14.3949 154.505 14.4766 154.091 14.64C153.676 14.8034 153.349 15.0863 153.11 15.4886C152.884 15.8909 152.771 16.4503 152.771 17.1669V21.4286H150.357Z" fill="white"/>
<path d="M162.212 21.6549C161.269 21.6549 160.433 21.4537 159.704 21.0514C158.975 20.6491 158.403 20.0834 157.988 19.3543C157.573 18.6251 157.366 17.7829 157.366 16.8274C157.366 15.8594 157.567 14.9983 157.969 14.244C158.384 13.4897 158.95 12.9051 159.667 12.4903C160.396 12.0629 161.251 11.8491 162.231 11.8491C163.149 11.8491 163.96 12.0503 164.664 12.4526C165.368 12.8549 165.915 13.408 166.304 14.112C166.707 14.8034 166.908 15.5766 166.908 16.4314C166.908 16.5697 166.901 16.7143 166.889 16.8651C166.889 17.016 166.883 17.1731 166.87 17.3366H159.761C159.811 18.0657 160.063 18.6377 160.515 19.0526C160.98 19.4674 161.54 19.6749 162.193 19.6749C162.684 19.6749 163.092 19.568 163.419 19.3543C163.759 19.128 164.01 18.8389 164.173 18.4869H166.625C166.449 19.0777 166.153 19.6183 165.739 20.1086C165.336 20.5863 164.833 20.9634 164.23 21.24C163.639 21.5166 162.967 21.6549 162.212 21.6549ZM162.231 13.8103C161.64 13.8103 161.119 13.98 160.666 14.3194C160.213 14.6463 159.924 15.1491 159.799 15.828H164.456C164.419 15.212 164.192 14.7217 163.777 14.3571C163.363 13.9926 162.847 13.8103 162.231 13.8103ZM161.552 11.3211V9.624L165.814 7.32343V9.28457L161.552 11.3211Z" fill="white"/>
<path d="M172.162 21.6549C171.358 21.6549 170.698 21.5291 170.182 21.2777C169.667 21.0137 169.283 20.668 169.032 20.2406C168.781 19.8131 168.655 19.3417 168.655 18.8263C168.655 17.9589 168.994 17.2549 169.673 16.7143C170.352 16.1737 171.37 15.9034 172.728 15.9034H175.104V15.6771C175.104 15.036 174.922 14.5646 174.557 14.2629C174.193 13.9611 173.74 13.8103 173.199 13.8103C172.709 13.8103 172.282 13.9297 171.917 14.1686C171.553 14.3949 171.326 14.7343 171.238 15.1869H168.881C168.944 14.508 169.17 13.9171 169.56 13.4143C169.962 12.9114 170.478 12.528 171.106 12.264C171.735 11.9874 172.439 11.8491 173.218 11.8491C174.551 11.8491 175.601 12.1823 176.367 12.8486C177.134 13.5149 177.518 14.4577 177.518 15.6771V21.4286H175.462L175.236 19.92C174.959 20.4229 174.57 20.8377 174.067 21.1646C173.577 21.4914 172.942 21.6549 172.162 21.6549ZM172.709 19.7691C173.401 19.7691 173.935 19.5429 174.312 19.0903C174.702 18.6377 174.947 18.0783 175.047 17.412H172.992C172.351 17.412 171.892 17.5314 171.615 17.7703C171.339 17.9966 171.201 18.2794 171.201 18.6189C171.201 18.9834 171.339 19.2663 171.615 19.4674C171.892 19.6686 172.257 19.7691 172.709 19.7691Z" fill="white"/>
<path d="M179.821 21.4286V7.85143H182.235V21.4286H179.821Z" fill="white"/>
<path d="M0 4.28571C0 1.91878 1.91878 0 4.28571 0H25.7143C28.0812 0 30 1.91878 30 4.28571V25.7143C30 28.0812 28.0812 30 25.7143 30H4.28571C1.91878 30 0 28.0812 0 25.7143V4.28571Z" fill="#6FB93E"/>
<path d="M23.5767 11.3099C23.4026 11.1349 23.1704 11.0349 22.9299 11.0349C22.6811 11.0349 22.4489 11.1349 22.283 11.3099L15.9801 17.6438C15.806 17.8188 15.7065 18.0522 15.7065 18.3022C15.7065 18.5522 15.806 18.7856 15.9801 18.9523C16.1543 19.1273 16.3865 19.2273 16.627 19.2273C16.8758 19.2273 17.108 19.1273 17.2739 18.9523L23.5767 12.6184C23.9416 12.26 23.9416 11.6766 23.5767 11.3099Z" fill="white"/>
<path d="M22.2747 7.38496C22.1005 7.20994 21.8683 7.10993 21.6278 7.10993C21.379 7.10993 21.1468 7.20994 20.9809 7.38496L15.9801 12.4104C15.806 12.5854 15.7065 12.8188 15.7065 13.0688C15.7065 13.3188 15.806 13.5522 15.9801 13.7188C16.1543 13.8939 16.3865 13.9939 16.627 13.9939C16.8758 13.9939 17.108 13.8939 17.2739 13.7188L22.2747 8.69341C22.4489 8.51839 22.5484 8.28503 22.5484 8.03502C22.5401 7.79333 22.4489 7.55997 22.2747 7.38496Z" fill="white"/>
<path d="M18.8994 5.54264C18.7252 5.36762 18.493 5.27595 18.2442 5.27595C17.9954 5.27595 17.7632 5.37596 17.5973 5.54264L15.9801 7.16778C15.806 7.3428 15.7065 7.57615 15.7065 7.82617C15.7065 8.07619 15.806 8.30956 15.9801 8.47623C16.1543 8.65126 16.3865 8.75125 16.627 8.75125C16.8758 8.75125 17.108 8.65126 17.2739 8.47623L18.8911 6.85109C19.256 6.49272 19.256 5.901 18.8994 5.54264Z" fill="white"/>
<path d="M13.8571 23.3361C13.8571 24.5696 12.862 25.5613 11.6429 25.5613C10.4155 25.5613 9.42857 24.5612 9.42857 23.3361V7.36805C9.42857 6.13461 10.4238 5.14286 11.6429 5.14286C12.8703 5.14286 13.8571 6.14295 13.8571 7.36805V23.3361Z" fill="white"/>
</svg>
