<svg width="80" height="80" viewBox="0 0 80 80" fill="none" xmlns="http://www.w3.org/2000/svg">
<rect width="80" height="80" rx="4" fill="#D6FFD8"/>
<g clip-path="url(#clip0_2110_16625)">
<path d="M27.0399 58.2129C28.495 58.1738 29.9501 58.2129 31.4052 58.1933C31.9032 58.1836 32.4306 58.2715 32.8114 58.6133C33.7489 59.4043 33.7001 61.084 32.6845 61.7871C32.2548 62.0996 31.7177 62.1289 31.2099 62.1094C29.9013 62.0996 28.6024 62.1094 27.2939 62.1094C26.7958 62.1094 26.2782 61.9531 25.9267 61.582C25.2235 60.8594 25.1942 59.6094 25.829 58.8281C26.122 58.4668 26.581 58.2519 27.0399 58.2129ZM27.1376 59.6777C26.7567 59.7558 26.6689 60.3125 26.9618 60.5469C27.1083 60.6738 27.3232 60.6445 27.4989 60.6543C28.8368 60.6445 30.1747 60.6543 31.5028 60.6543C31.7177 60.6738 31.9521 60.5859 32.0302 60.3711C32.1767 60.0683 31.9521 59.6484 31.6005 59.6777C30.1161 59.668 28.622 59.6387 27.1376 59.6777Z" fill="#1C2436"/>
<path d="M27.1392 59.6778C28.6236 59.6387 30.1177 59.668 31.6021 59.668C31.9537 59.6387 32.1783 60.0586 32.0318 60.3614C31.9537 60.5762 31.7193 60.6641 31.5045 60.6446C30.1666 60.6446 28.8287 60.6446 27.5006 60.6446C27.315 60.6348 27.1099 60.6641 26.9634 60.5372C26.6705 60.3223 26.7584 59.7559 27.1392 59.6778Z" fill="#E7D6FF"/>
<path d="M32.1777 40.6446C32.4316 40.4103 32.6366 40.1075 32.9687 39.9806C33.5644 39.8048 34.1698 40.5958 33.7695 41.1036C33.4179 41.5235 32.998 41.8849 32.6171 42.2853C31.2499 43.6524 29.8827 45.0196 28.5156 46.3868C28.33 46.5724 28.0761 46.7579 27.7929 46.7091C27.4804 46.67 27.2753 46.4064 27.0605 46.2013C26.4257 45.5372 25.7421 44.9122 25.1171 44.2384C24.7753 43.8478 25.0878 43.213 25.5566 43.1056C25.83 43.0079 26.1132 43.1642 26.2988 43.3595C26.8261 43.8868 27.3534 44.4142 27.8808 44.9415C29.3066 43.5157 30.7421 42.0802 32.1777 40.6446Z" fill="#1C2436"/>
<path d="M42.3954 17.8223C42.3954 17.1191 41.7802 16.4941 41.077 16.4746C40.2958 16.4453 39.5145 16.4746 38.7431 16.4648C33.8212 16.4648 28.8993 16.4648 23.9774 16.4648C23.5575 16.5137 23.245 16.1328 23.2157 15.7422C22.3368 15.7422 21.4579 15.7422 20.579 15.7422C20.5302 16.0645 20.3544 16.416 20.0028 16.4551C19.2509 16.5137 18.4891 16.4355 17.7274 16.4941C17.0438 16.543 16.4774 17.1582 16.4774 17.8418C16.4579 18.5645 16.4774 19.2871 16.4774 20.0195C24.0653 20.0195 31.6434 20.0195 39.2313 20.0195C40.286 20.0195 41.3505 20.0195 42.4052 20.0195C42.4052 19.2773 42.4149 18.5449 42.3954 17.8223Z" fill="#EBFA9E"/>
<path d="M42.4029 61.9727C42.4029 60.2441 42.4029 58.5059 42.4029 56.7773C41.3385 56.7773 40.2838 56.7773 39.2193 56.7773C31.6314 56.7773 24.0533 56.7773 16.4654 56.7773C16.4654 58.418 16.4654 60.0488 16.4654 61.6895C16.4654 62.0605 16.4459 62.4609 16.6315 62.793C16.8756 63.2617 17.4029 63.5645 17.9303 63.5449C24.8639 63.5449 31.7975 63.5449 38.7311 63.5449C39.483 63.5352 40.235 63.5547 40.9869 63.5449C41.8072 63.5645 42.4908 62.7734 42.4029 61.9727ZM32.6959 61.7969C32.276 62.1094 31.7291 62.1289 31.2213 62.1191C29.9127 62.1191 28.6139 62.1191 27.3053 62.1191C26.8072 62.1191 26.2897 61.9629 25.9381 61.5918C25.235 60.8691 25.2057 59.6191 25.8404 58.8379C26.1334 58.4766 26.5924 58.252 27.0514 58.2129C28.5065 58.1836 29.9615 58.2129 31.4166 58.1934C31.9147 58.1738 32.442 58.2715 32.8229 58.6133C33.7506 59.4043 33.7018 61.084 32.6959 61.7969Z" fill="#EBFA9E"/>
<path d="M16.4648 21.4648C24.0527 21.4648 31.6406 21.4648 39.2188 21.4648C39.2285 22.4805 39.2188 23.4863 39.2285 24.502C32.8125 24.4629 26.3965 24.4922 19.9805 24.4824C19.082 24.4434 18.2617 25.2344 18.252 26.1328C18.252 27.9199 18.2422 29.7168 18.252 31.5039C18.2715 32.3633 19.0234 33.1152 19.8828 33.1348C24.7559 33.1445 29.6191 33.1348 34.4922 33.1348C36.0742 36.1621 37.6758 39.1797 39.2383 42.2168C39.2383 42.6465 39.209 43.0762 39.2188 43.5156C38.6035 43.2031 38.0078 42.8027 37.3047 42.6953C37.1777 41.1719 36.6016 39.6973 35.6543 38.4961C34.5312 37.0508 32.9102 36.0156 31.123 35.6348C29.4531 35.2637 27.6562 35.459 26.1035 36.1816C24.4629 36.9336 23.1055 38.2812 22.3242 39.9121C21.5723 41.4453 21.3574 43.2324 21.6992 44.9023C22.0312 46.6016 22.959 48.1641 24.2676 49.2969C25.5469 50.4102 27.1875 51.1035 28.8867 51.2109C31.2109 51.3965 33.5742 50.4785 35.1758 48.7793C36.5039 49.5313 37.8711 50.2246 39.2578 50.8496V50.8789C39.209 52.3535 39.2578 53.8281 39.2383 55.3027C31.6504 55.3027 24.0723 55.3027 16.4844 55.3027C16.4648 44.0234 16.4648 32.7441 16.4648 21.4648Z" fill="#FFF7D6"/>
<path d="M39.2188 21.4648C40.2832 21.4648 41.3379 21.4648 42.4023 21.4648C42.4023 25.6641 42.4023 29.8633 42.4023 34.0625C41.8457 32.998 41.2891 31.9336 40.7324 30.8691C40.6738 30.7617 40.6152 30.6543 40.625 30.5273C40.6152 29.0625 40.6348 27.5879 40.6152 26.123C40.6055 25.332 39.9902 24.6582 39.2285 24.4922C39.2188 23.4863 39.2285 22.4805 39.2188 21.4648Z" fill="#FFF7D6"/>
<path d="M39.2488 42.207C39.5808 42.8027 39.8835 43.418 40.2058 44.0137C39.8835 43.8379 39.5515 43.6719 39.2292 43.4961C39.2195 43.0762 39.239 42.6465 39.2488 42.207Z" fill="#FFF7D6"/>
<path d="M39.2383 50.8789C40.3027 51.3477 41.3477 51.875 42.4023 52.373C42.4023 53.3496 42.4023 54.3262 42.4023 55.3027C41.3379 55.3027 40.2832 55.3027 39.2188 55.3027C39.248 53.8281 39.1992 52.3535 39.2383 50.8789Z" fill="#FFF7D6"/>
<path d="M19.7177 26.2306C19.6884 26.0255 19.8934 25.9181 20.0692 25.9474C26.329 25.9474 32.579 25.9474 38.8388 25.9474C39.0048 25.9181 39.1708 26.045 39.1513 26.2208C39.161 26.9532 39.1513 27.6857 39.161 28.4279C38.4677 27.8907 37.5595 27.5978 36.6805 27.7345C35.3036 27.92 34.1122 29.0529 33.8583 30.42C33.7704 30.8302 33.7899 31.2501 33.868 31.67C29.2391 31.67 24.62 31.67 19.9911 31.67C19.8348 31.6896 19.7079 31.5529 19.7274 31.4064C19.7177 29.6779 19.7177 27.9493 19.7177 26.2306Z" fill="#D6FFD8"/>
<path d="M63.4766 49.0039C63.3789 48.3887 63.0176 47.8614 62.793 47.2852C62.5 46.5821 62.3535 45.8301 62.1582 45.0977C61.4941 42.5782 60.5469 40.1368 59.3457 37.8223C58.5449 36.2891 57.7441 34.7559 56.9434 33.2227C56.748 32.8418 56.4551 32.4903 56.0547 32.3243C55.2246 31.9532 54.1797 32.3047 53.7109 33.0664C53.5059 33.4473 53.3496 33.9454 53.584 34.3555C54.0234 35.2051 54.4824 36.045 54.9023 36.8946C55.1855 37.4121 54.5996 37.9981 54.0723 37.8907C53.8086 37.8614 53.6426 37.627 53.5254 37.4121C53.1152 36.6211 52.7051 35.8399 52.2949 35.0489C52.1094 34.6485 51.6406 34.4825 51.2305 34.4336C50.1562 34.2969 49.043 35.2832 49.209 36.377C49.6484 37.3145 50.1855 38.2129 50.6348 39.1407C50.8496 39.5313 50.5566 40 50.1562 40.1075C49.8437 40.2246 49.4629 40.0782 49.3262 39.7754C48.9062 38.9844 48.4961 38.1836 48.0762 37.3926C47.793 36.7579 46.9727 36.5625 46.3477 36.709C45.3613 36.9141 44.6289 38.0371 45.0098 39.0137C45.3809 39.7657 45.791 40.5078 46.1816 41.2598C46.2695 41.4453 46.3672 41.6407 46.3184 41.8555C46.2207 42.3047 45.6641 42.5684 45.2539 42.3731C45.0781 42.295 44.9805 42.1192 44.8926 41.9629C42.832 38.0469 40.7812 34.1407 38.7402 30.2246C38.5059 29.7461 38.1055 29.3067 37.5684 29.1895C36.6504 28.9844 35.7031 29.6387 35.4199 30.5079C35.2441 31.0059 35.332 31.5723 35.5762 32.0313C37.9102 36.4942 40.2539 40.9473 42.5879 45.42C42.8223 45.8106 42.5684 46.3379 42.1387 46.4649C41.9141 46.5528 41.6797 46.4551 41.4746 46.3477C40.2148 45.6836 38.9551 45.0196 37.6953 44.3555C37.2852 44.1309 36.7871 44.0235 36.3379 44.17C35.3125 44.4922 34.7363 45.7911 35.1855 46.7676C35.3516 47.1387 35.6738 47.4121 36.0254 47.5879C39.4629 49.2871 42.8906 50.9864 46.3281 52.6856C46.7871 52.92 47.2559 53.1153 47.6758 53.4082C48.291 53.8282 48.8184 54.3848 49.1699 55.0391C49.5605 55.8887 50.2734 56.5918 51.1719 56.8946C52.0117 57.1875 52.9785 57.1289 53.7695 56.7188C55.0391 56.0645 56.2988 55.3907 57.5684 54.7266C57.8516 54.5899 58.125 54.3848 58.4473 54.336C58.75 54.3067 58.9746 54.5313 59.1406 54.7559C59.9121 54.3457 60.6934 53.9356 61.4746 53.5352C61.377 53.2715 61.3281 52.959 61.5234 52.7246C61.6992 52.5293 61.9531 52.4317 62.1582 52.2754C63.1836 51.5723 63.7109 50.2344 63.4766 49.0039Z" fill="#FFEFEB"/>
<path d="M35.838 42.8028C35.6915 40.9571 34.6857 39.1993 33.1818 38.1251C31.922 37.2071 30.3204 36.7774 28.7775 36.9434C27.1173 37.1095 25.545 37.9493 24.4806 39.2384C23.5333 40.3712 22.9962 41.8458 22.9962 43.3204C22.9864 44.922 23.6017 46.5235 24.6954 47.6856C25.7403 48.838 27.215 49.5802 28.7677 49.7364C30.7111 49.9513 32.713 49.1993 34.0704 47.8028C33.5626 47.002 33.3673 45.9962 33.631 45.0782C33.9142 44.004 34.7931 43.1251 35.838 42.8028ZM32.6153 42.2755C31.2482 43.6427 29.881 45.0098 28.5138 46.377C28.3282 46.5626 28.0743 46.7481 27.7911 46.6993C27.4786 46.6602 27.2736 46.3966 27.0587 46.1915C26.4239 45.5274 25.7403 44.9024 25.1153 44.2286C24.7736 43.838 25.0861 43.2032 25.5548 43.0958C25.8282 42.9981 26.1114 43.1544 26.297 43.3497C26.8243 43.877 27.3517 44.4044 27.879 44.9317C29.3146 43.4962 30.7501 42.0704 32.1759 40.6349C32.4298 40.4005 32.6349 40.0977 32.9669 39.9708C33.5626 39.795 34.1681 40.586 33.7677 41.0938C33.4064 41.5235 32.9962 41.8848 32.6153 42.2755Z" fill="#4DF189"/>
<path d="M64.4141 47.3242C63.8965 46.3281 63.7305 45.2051 63.4082 44.1309C62.6953 41.5918 61.6992 39.1406 60.4688 36.8066C59.668 35.293 58.8867 33.7695 58.0762 32.2656C57.3047 30.9277 55.5273 30.4102 54.1113 30.9473C53.1348 31.2793 52.373 32.1191 52.0898 33.1152C51.6797 32.998 51.2598 32.9102 50.8301 32.9395C49.4434 32.998 48.1738 34.0137 47.8027 35.3516C46.3477 34.834 44.6289 35.4785 43.8477 36.7969C43.8574 30.5078 43.8477 24.209 43.8477 17.9199C43.8574 17.1289 43.5449 16.3477 42.9785 15.8008C42.5098 15.332 41.8848 15.0781 41.2402 14.9902H24.8633H23.7695H17.6074C16.25 15.1172 15.1074 16.2695 15 17.6367V62.3926C15.0781 62.9883 15.3027 63.5645 15.7031 64.0137C16.1816 64.5801 16.8945 64.9219 17.627 65H41.2695C42.2656 64.8828 43.1836 64.248 43.5937 63.3301C43.9062 62.6953 43.8574 61.9727 43.8574 61.2891C43.8574 58.5645 43.8574 55.8301 43.8574 53.1055C44.6973 53.5156 45.5273 53.9258 46.3672 54.3457C46.7871 54.5508 47.1777 54.8242 47.4805 55.1758C47.9102 55.625 48.1055 56.2305 48.4961 56.6992C49.5703 58.0957 51.4551 58.7988 53.1836 58.457C53.9551 58.3301 54.6387 57.9297 55.3223 57.5684C56.4355 56.9824 57.5391 56.3965 58.6523 55.8203C58.7793 55.752 58.9258 55.6738 59.0332 55.5566L62.2266 53.8965C62.5488 53.8184 62.8223 53.6035 63.0859 53.418C64.248 52.5684 64.9512 51.1621 65 49.7266V49.502C64.9805 48.7402 64.7656 47.998 64.4141 47.3242ZM16.4746 17.832C16.4746 17.1484 17.041 16.5332 17.7246 16.4844C18.3789 16.4355 22.7148 16.4941 24.3457 16.4648C29.1504 16.4746 33.9453 16.4648 38.75 16.4648C39.5312 16.4746 40.3125 16.4551 41.084 16.4746C41.7871 16.4941 42.4023 17.1191 42.4023 17.8223C42.4219 18.5449 42.4023 19.2773 42.4023 20C41.3379 20 40.2832 20 39.2285 20C31.6406 20 24.0625 20 16.4746 20C16.4746 19.2773 16.4551 18.5547 16.4746 17.832ZM40.6152 26.1328C40.6055 25.3516 39.9902 24.668 39.2285 24.502C32.8125 24.4629 26.3965 24.4922 19.9805 24.4824C19.082 24.4434 18.2617 25.2344 18.2617 26.1328C18.252 27.9199 18.252 29.7168 18.2617 31.5039C18.2813 32.3633 19.0332 33.1152 19.8926 33.1348C24.7656 33.1445 29.6289 33.1348 34.502 33.1348C36.084 36.1621 37.6758 39.1797 39.248 42.2168C39.5801 42.8125 39.8828 43.4277 40.2051 44.0234C39.8828 43.8477 39.5508 43.6816 39.2285 43.5059C38.6133 43.1934 38.0176 42.793 37.3145 42.6855C37.1875 41.1621 36.6113 39.6777 35.6738 38.4863C34.5508 37.041 32.9297 36.0059 31.1426 35.625C29.4727 35.2539 27.6758 35.4492 26.123 36.1719C24.4629 36.9336 23.1055 38.2715 22.3242 39.9023C21.5723 41.4355 21.3574 43.2227 21.6992 44.8926C22.0312 46.5918 22.959 48.1543 24.2676 49.2871C25.5469 50.4004 27.1875 51.0938 28.8867 51.2109C31.2109 51.3965 33.5742 50.4785 35.1758 48.7793C36.5039 49.5312 37.8711 50.2246 39.2578 50.8496V50.8789C40.3223 51.3477 41.3672 51.875 42.4219 52.373C42.4219 53.3496 42.4219 54.3262 42.4219 55.3027C41.3574 55.3027 40.3027 55.3027 39.2383 55.3027C31.6504 55.3027 24.0723 55.3027 16.4844 55.3027C16.4844 44.0234 16.4844 32.7441 16.4844 21.4648C24.0723 21.4648 31.6504 21.4648 39.2383 21.4648C40.3027 21.4648 41.3574 21.4648 42.4219 21.4648C42.4219 25.6641 42.4219 29.8633 42.4219 34.0625C41.8652 32.998 41.3086 31.9336 40.752 30.8691C40.7031 30.7617 40.6348 30.6543 40.6445 30.5273C40.6152 29.0625 40.625 27.5977 40.6152 26.1328ZM33.8574 31.6699C29.2285 31.6699 24.6094 31.6699 19.9805 31.6699C19.8242 31.6895 19.6973 31.5527 19.7168 31.4062C19.707 29.6875 19.707 27.959 19.7168 26.2402C19.6875 26.0352 19.8926 25.9277 20.0684 25.957C26.3281 25.957 32.5781 25.957 38.8379 25.957C39.0039 25.9277 39.1699 26.0547 39.1504 26.2305C39.1602 26.9629 39.1504 27.6953 39.1504 28.4375C38.457 27.9004 37.5488 27.6074 36.6699 27.7441C35.293 27.9297 34.1016 29.0625 33.8477 30.4297C33.7695 30.8301 33.7891 31.2598 33.8574 31.6699ZM34.0723 47.8027C32.7148 49.209 30.7129 49.9512 28.7695 49.7363C27.2266 49.5801 25.7422 48.8379 24.6973 47.6855C23.6035 46.5137 22.9883 44.9219 22.998 43.3203C22.998 41.8359 23.5352 40.3711 24.4824 39.2383C25.5371 37.9492 27.1191 37.1094 28.7793 36.9434C30.332 36.7773 31.9336 37.2168 33.1836 38.125C34.6973 39.1992 35.6934 40.957 35.8398 42.8027C34.7852 43.1348 33.916 44.0039 33.6328 45.0781C33.3691 45.9961 33.5742 47.002 34.0723 47.8027ZM40.9863 63.5352C40.2344 63.5449 39.4824 63.5352 38.7305 63.5352C31.7969 63.5352 24.8633 63.5352 17.9297 63.5352C17.4023 63.5547 16.875 63.2617 16.6309 62.7832C16.4453 62.4414 16.4648 62.0508 16.4648 61.6797C16.4648 60.0391 16.4648 58.4082 16.4648 56.7676C24.043 56.7676 31.6309 56.7676 39.2188 56.7676C40.2832 56.7676 41.3379 56.7676 42.4023 56.7676C42.4023 58.4961 42.4023 60.2344 42.4023 61.9629C42.4902 62.7734 41.8066 63.5645 40.9863 63.5352ZM62.1582 52.2852C62.0215 52.3828 61.8652 52.4609 61.7285 52.5586L58.0566 54.4727C57.998 54.502 57.9395 54.5312 57.8809 54.5605L57.793 54.5996C57.7246 54.6387 57.6465 54.6777 57.5781 54.7168C56.3086 55.3809 55.0488 56.0449 53.7793 56.709C52.9883 57.1191 52.0215 57.1777 51.1816 56.8848C50.2832 56.582 49.5703 55.8789 49.1797 55.0293C48.8184 54.375 48.3008 53.8086 47.6855 53.3984C47.2656 53.1152 46.7871 52.9102 46.3379 52.6758C42.9004 50.9766 39.4727 49.2773 36.0352 47.5781C35.6738 47.4023 35.3613 47.1289 35.1953 46.7578C34.7461 45.7813 35.3223 44.4824 36.3477 44.1602C36.8066 44.0234 37.2949 44.1211 37.7051 44.3457C38.9648 45.0098 40.2246 45.6738 41.4844 46.3379C41.6797 46.4453 41.9238 46.5332 42.1484 46.4551C42.5684 46.3379 42.8223 45.8008 42.5977 45.4102C40.2734 40.9473 37.9199 36.4844 35.5859 32.0215C35.3418 31.5527 35.2637 30.9961 35.4297 30.498C35.7031 29.6289 36.6602 28.9746 37.5781 29.1797C38.1152 29.2969 38.5156 29.7363 38.75 30.2148C40.7812 34.1406 42.832 38.0469 44.8828 41.9531C44.9707 42.1094 45.0684 42.2852 45.2441 42.3633C45.6543 42.5586 46.2109 42.2852 46.3086 41.8457C46.3574 41.6309 46.2598 41.4355 46.1719 41.25C45.7813 40.498 45.3711 39.7656 45 39.0039C44.6191 38.0273 45.3516 36.9043 46.3379 36.6992C46.9629 36.5527 47.7832 36.748 48.0664 37.3828C48.4766 38.1836 48.8867 38.9746 49.3164 39.7656C49.4629 40.0684 49.834 40.2148 50.1465 40.0977C50.5469 40 50.8398 39.5215 50.625 39.1309C50.1758 38.1934 49.6484 37.2949 49.1992 36.3672C49.043 35.2637 50.1562 34.2871 51.2207 34.4238C51.6309 34.4824 52.0996 34.6387 52.2852 35.0391C52.6953 35.8301 53.1055 36.6113 53.5156 37.4023C53.623 37.627 53.7988 37.8516 54.0625 37.8809C54.5898 37.9883 55.1758 37.4121 54.8926 36.8848C54.4727 36.0254 54.0137 35.1953 53.5742 34.3457C53.3398 33.9453 53.4961 33.4375 53.7012 33.0566C54.1797 32.2949 55.2246 31.9531 56.0449 32.3145C56.4453 32.4805 56.748 32.8223 56.9336 33.2129C57.7344 34.7461 58.5449 36.2793 59.3359 37.8125C60.5371 40.127 61.4746 42.5684 62.1484 45.0879C62.3438 45.8203 62.4902 46.5723 62.7832 47.2754C63.0078 47.8516 63.3594 48.3789 63.4668 48.9941C63.7109 50.2344 63.1836 51.5723 62.1582 52.2852Z" fill="#1C2436"/>
</g>
<defs>
<clipPath id="clip0_2110_16625">
<rect width="50" height="50" fill="white" transform="translate(15 15)"/>
</clipPath>
</defs>
</svg>
