<svg width="24" height="24" viewBox="0 0 24 24" fill="none" xmlns="http://www.w3.org/2000/svg">
<g clip-path="url(#clip0_846_5339)">
<path d="M19.8516 13.0781C19.8562 12.7641 20.1234 12.4781 20.4375 12.45C20.6437 12.4219 20.85 12.5109 20.9953 12.6609C21.7219 13.3875 22.4484 14.1141 23.175 14.8406C23.2687 14.9437 23.8687 14.6203 24 14.6531C24 17.4891 24 21.1594 24 23.9953C21.5859 23.9953 18.4125 23.9953 15.9984 23.9953C15.9562 23.8219 16.1672 23.1656 15.9891 23.1C15.5344 22.9219 15.0609 22.7812 14.6062 22.6078C14.2922 22.4906 14.1 22.1297 14.175 21.8016C14.2453 21.4266 14.6578 21.1641 15.0281 21.2578C15.8672 21.4594 16.7062 21.6656 17.5453 21.8672C17.7187 21.9187 17.9156 21.8719 18.0375 21.7312C18.2062 21.5531 18.1922 21.2484 18.0141 21.0797C15.8062 18.8672 13.5937 16.6594 11.3812 14.4469C11.2125 14.2734 10.9969 14.1141 10.9453 13.8609C10.8797 13.5703 11.0344 13.2516 11.3109 13.1297C11.5641 13.0031 11.8875 13.0781 12.0797 13.2844C14.1187 15.3234 16.1578 17.3625 18.1969 19.4016C18.3094 19.5234 18.4828 19.6078 18.6516 19.575C18.9 19.5375 19.0781 19.2797 19.0312 19.0312C18.9984 18.8344 18.825 18.7078 18.6984 18.5719C17.9156 17.7937 17.1375 17.0109 16.3547 16.2281C16.2469 16.1203 16.1297 16.0031 16.0828 15.8531C15.9937 15.5906 16.0875 15.2812 16.3125 15.1219C16.5609 14.9297 16.9453 14.9578 17.1656 15.1875C18.0844 16.0969 18.9937 17.0156 19.9078 17.9297C20.0109 18.0375 20.1516 18.1172 20.3062 18.1031C20.5359 18.0937 20.7328 17.8969 20.7422 17.6719C20.7609 17.5172 20.6812 17.3719 20.5734 17.2687C19.6641 16.3641 18.7594 15.4547 17.8547 14.55C17.7 14.4047 17.6109 14.1891 17.6484 13.9734C17.6859 13.6547 17.9766 13.4016 18.2953 13.4062C18.5062 13.4016 18.6937 13.5187 18.8297 13.6687C19.7203 14.5594 20.6109 15.45 21.5016 16.3406C21.6094 16.4484 21.7453 16.5469 21.9047 16.5328C22.1437 16.5328 22.3594 16.3172 22.3594 16.0781C22.3687 15.9187 22.275 15.7828 22.1672 15.675C21.4781 14.9906 20.7937 14.3016 20.1047 13.6125C19.9453 13.4766 19.8375 13.2844 19.8516 13.0781Z" fill="#E7D6FF"/>
<path d="M1.76248 0H13.4203C13.964 0.0796875 14.4797 0.35625 14.8031 0.80625C15.0515 1.13906 15.1828 1.55156 15.1828 1.96875C15.1875 6.33281 15.1781 10.7016 15.1875 15.0656C15.3469 14.7797 15.5297 14.4984 15.8156 14.325C16.0687 14.1516 16.3734 14.0859 16.6734 14.0578C16.7015 13.725 16.7906 13.3875 17.0015 13.1203C17.2969 12.7172 17.7844 12.4734 18.2812 12.4781C18.5203 12.4734 18.75 12.5484 18.975 12.6188C19.1156 12.2859 19.3219 11.9672 19.6406 11.775C20.2359 11.3719 21.0984 11.4563 21.6094 11.9625C22.2844 12.6328 22.95 13.3078 23.625 13.9781C23.7656 14.1094 23.8969 14.25 24 14.4141V14.6672C23.9203 14.8687 23.7422 14.9953 23.5312 15.0328C23.4 15 23.2687 14.9578 23.175 14.8547C22.4484 14.1281 21.7219 13.4016 20.9953 12.675C20.85 12.5297 20.6437 12.4406 20.4375 12.4641C20.1234 12.4922 19.8562 12.7734 19.8515 13.0922C19.8375 13.2984 19.9406 13.4906 20.0859 13.6312C20.775 14.3156 21.4594 15.0094 22.1484 15.6937C22.2562 15.8016 22.35 15.9375 22.3406 16.0969C22.3406 16.3359 22.1297 16.5516 21.8859 16.5516C21.7265 16.5609 21.5906 16.4672 21.4828 16.3594C20.5922 15.4641 19.7015 14.5781 18.8109 13.6875C18.6703 13.5375 18.4828 13.4203 18.2765 13.425C17.9578 13.4203 17.6625 13.6781 17.6297 13.9922C17.5969 14.2031 17.6859 14.4187 17.8359 14.5687C18.7406 15.4781 19.65 16.3828 20.5547 17.2875C20.6625 17.3906 20.7422 17.5359 20.7234 17.6906C20.714 17.9156 20.5172 18.1125 20.2875 18.1219C20.1328 18.1359 19.9922 18.0562 19.889 17.9484C18.975 17.0344 18.0609 16.1203 17.1469 15.2062C16.9265 14.9812 16.5422 14.9484 16.2937 15.1406C16.0687 15.3 15.9703 15.6141 16.064 15.8719C16.1109 16.0219 16.2281 16.1391 16.3359 16.2469C17.1187 17.025 17.8969 17.8125 18.6797 18.5906C18.8109 18.7266 18.9797 18.8531 19.0125 19.05C19.064 19.2937 18.8812 19.5562 18.6328 19.5938C18.4594 19.6313 18.2906 19.5469 18.1781 19.4203C16.139 17.3812 14.1 15.3422 12.0609 13.3031C11.8687 13.0969 11.55 13.0219 11.2922 13.1484C11.0203 13.2703 10.8609 13.5891 10.9265 13.8797C10.9781 14.1328 11.1937 14.2922 11.3625 14.4656C13.575 16.6781 15.7875 18.8859 17.9953 21.0984C18.1734 21.2672 18.1875 21.5719 18.0187 21.75C17.9015 21.8906 17.7 21.9328 17.5265 21.8859C16.6875 21.6844 15.8484 21.4781 15.0094 21.2766C14.639 21.1828 14.2265 21.4453 14.1562 21.8203C14.0812 22.1484 14.2734 22.5094 14.5875 22.6266C15.0422 22.8 15.5156 22.9406 15.9703 23.1188C16.1484 23.1844 16.2234 23.3719 16.2656 23.5453C16.2281 23.7516 16.1015 23.9297 15.9047 24.0141H15.6703C15.2953 23.8687 14.9203 23.7328 14.5406 23.6109C14.4187 23.5641 14.3203 23.6719 14.2219 23.7234C13.964 23.8922 13.664 23.9719 13.3594 24.0141H1.76248C1.20935 23.9297 0.684351 23.6484 0.360913 23.1797C0.159351 22.9078 0.0562256 22.5797 -0.00471191 22.2469V9.30938C0.0749756 9.1125 0.257788 8.98594 0.464038 8.94844C0.703101 8.98594 0.937476 9.16875 0.932788 9.43125C0.937476 11.4141 0.932788 18.0891 0.937476 20.0719C5.37654 20.0719 9.81091 20.0719 14.25 20.0719C14.25 19.6313 14.25 19.1953 14.25 18.7547C14.2687 18.6516 14.175 18.5859 14.114 18.5203C13.5375 17.9578 12.9797 17.3719 12.3984 16.8141C12.3844 17.4328 12.3984 18.0469 12.3937 18.6656C12.3984 18.9234 12.1687 19.1438 11.9109 19.1297C10.9219 19.1344 9.93748 19.1297 8.94841 19.1297C8.6906 19.1484 8.44685 18.9188 8.45623 18.6562C8.45154 17.6578 8.45154 16.6594 8.45623 15.6609C8.44685 15.4172 8.65779 15.1922 8.90154 15.1922C9.52966 15.1828 10.1531 15.1922 10.7812 15.1875C10.5844 14.9766 10.3547 14.7938 10.2094 14.5406C10.1015 14.3672 10.0453 14.1703 10.0031 13.9734C9.63748 13.9594 9.26716 13.9781 8.90154 13.9641C8.65779 13.9641 8.44685 13.7391 8.45623 13.4953C8.45154 12.4969 8.45154 11.4984 8.45623 10.5C8.44685 10.2375 8.68591 10.0125 8.94841 10.0266C9.93748 10.0266 10.9219 10.0219 11.9109 10.0266C12.164 10.0125 12.3984 10.2375 12.389 10.4906C12.3984 11.1094 12.3844 11.7234 12.3937 12.3422C12.6797 12.5344 12.9094 12.8016 13.1531 13.0406C13.5187 13.4016 13.875 13.7719 14.2453 14.1234C14.25 10.725 14.2453 7.32656 14.2453 3.92813C9.80623 3.92813 5.37185 3.92813 0.932788 3.92813C0.928101 5.91094 0.932788 7.89844 0.928101 9.88125C0.937476 10.1438 0.703101 10.3313 0.459351 10.3687C0.253101 10.3313 0.0702881 10.2047 -0.00939941 10.0078V1.75781C0.0515381 1.41562 0.159351 1.07812 0.374976 0.796875C0.703101 0.35625 1.22341 0.0796875 1.76248 0ZM0.942163 1.87031C0.928101 2.24531 0.937476 2.62031 0.937476 3C5.37654 3 9.81091 3 14.25 3C14.2453 2.625 14.2594 2.24531 14.2453 1.87031C14.2078 1.35938 13.7344 0.928125 13.2234 0.9375C9.46873 0.9375 5.71873 0.9375 1.96873 0.9375C1.4531 0.928125 0.979663 1.35938 0.942163 1.87031ZM9.38904 10.9734C9.39373 11.6578 9.39373 12.3422 9.38904 13.0266C9.64216 13.0266 9.89998 13.0547 10.1484 13.0125C10.3969 12.5203 10.8984 12.1828 11.4468 12.1312C11.4562 11.7422 11.4515 11.3531 11.4468 10.9688C10.7625 10.9688 10.0781 10.9641 9.38904 10.9734ZM9.38904 16.1297C9.39373 16.8141 9.39373 17.4984 9.38904 18.1828C10.0781 18.1922 10.7625 18.1875 11.4515 18.1875C11.4562 17.4984 11.4562 16.8141 11.4515 16.125C10.7672 16.125 10.0781 16.1203 9.38904 16.1297ZM15.1922 19.5938C15.1875 19.8422 15.1828 20.0906 15.1922 20.3391C15.5156 20.4187 15.8437 20.4937 16.1672 20.5734C15.8484 20.2406 15.5156 19.9172 15.1922 19.5938ZM0.937476 21C0.942163 21.375 0.928101 21.7547 0.942163 22.1297C0.979663 22.6406 1.4531 23.0719 1.96404 23.0625C5.60623 23.0625 9.24841 23.0625 12.8906 23.0625C13.125 23.0578 13.364 23.0859 13.5844 22.9922C13.3687 22.7016 13.2281 22.35 13.2234 21.9891C13.2094 21.6375 13.3359 21.3 13.514 21.0047C9.32341 21 5.1281 21 0.937476 21Z" fill="#1C2436"/>
<path d="M3.53433 4.89842C3.6187 4.87498 3.70776 4.87498 3.79683 4.87498C4.75308 4.87967 5.70464 4.87498 6.66089 4.87498C6.91401 4.86092 7.14839 5.08592 7.13901 5.34373C7.1437 6.34686 7.1437 7.3453 7.13901 8.34842C7.14839 8.60155 6.91401 8.82655 6.66089 8.81248C5.67183 8.81248 4.68745 8.81248 3.69839 8.81248C3.43589 8.83123 3.19683 8.60624 3.20151 8.34373C3.19683 7.3453 3.19683 6.34686 3.20151 5.34842C3.20151 5.14686 3.34214 4.95467 3.53433 4.89842ZM4.13901 5.81717C4.13901 6.50155 4.13901 7.18592 4.13901 7.8703C4.82808 7.87967 5.51245 7.87498 6.20151 7.87498C6.2062 7.19061 6.2062 6.50155 6.20151 5.81248C5.51245 5.81248 4.82808 5.8078 4.13901 5.81717Z" fill="#1C2436"/>
<path d="M8.78432 4.89842C8.86869 4.87498 8.95776 4.87498 9.04682 4.87498C10.0031 4.87967 10.9593 4.87498 11.9109 4.87498C12.164 4.86092 12.3984 5.08592 12.389 5.34373C12.3937 6.34686 12.3937 7.3453 12.389 8.34842C12.3937 8.60155 12.164 8.82655 11.9109 8.81248C10.9218 8.81248 9.93744 8.81248 8.94838 8.81248C8.69057 8.83123 8.44682 8.60155 8.45619 8.34373C8.45619 7.3453 8.45619 6.34686 8.45619 5.34842C8.45151 5.14686 8.59213 4.95467 8.78432 4.89842ZM9.38901 5.81717C9.39369 6.50155 9.39369 7.18592 9.38901 7.8703C10.0734 7.87967 10.7624 7.87498 11.4515 7.87498C11.4562 7.19061 11.4562 6.50155 11.4515 5.81717C10.7624 5.81248 10.0781 5.8078 9.38901 5.81717Z" fill="#1C2436"/>
<path d="M3.52971 10.0547C3.63284 10.0266 3.73596 10.0313 3.84377 10.0313C4.78127 10.036 5.72346 10.0313 6.66096 10.0313C6.91409 10.0172 7.14377 10.2422 7.13909 10.4953C7.14377 11.4985 7.14377 12.4969 7.13909 13.5C7.14846 13.7531 6.91409 13.9781 6.66096 13.9688C5.70471 13.9735 4.75315 13.9688 3.7969 13.9688C3.66565 13.9688 3.52034 13.9688 3.41252 13.8844C3.26721 13.7906 3.1969 13.6172 3.20627 13.4531C3.20627 12.4688 3.20627 11.4844 3.20627 10.5C3.20158 10.3031 3.33752 10.111 3.52971 10.0547ZM4.13909 10.9735C4.13909 11.6578 4.13909 12.3422 4.13909 13.0266C4.82815 13.036 5.51252 13.0313 6.20159 13.0313C6.20627 12.3422 6.20627 11.6578 6.20159 10.9688C5.51252 10.9688 4.82815 10.9641 4.13909 10.9735Z" fill="#1C2436"/>
<path d="M0 11.8781C0.0796875 11.6812 0.2625 11.5547 0.46875 11.5172C0.707812 11.5547 0.942187 11.7375 0.9375 12C0.946875 12.2625 0.7125 12.45 0.46875 12.4875C0.2625 12.45 0.084375 12.3234 0 12.1266V11.8781Z" fill="#1C2436"/>
<path d="M3.52964 15.211C3.63276 15.1828 3.73589 15.1875 3.8437 15.1875C4.7812 15.1922 5.72339 15.1875 6.66089 15.1875C6.91401 15.1735 7.1437 15.3985 7.13901 15.6563C7.1437 16.6594 7.1437 17.6578 7.13901 18.661C7.14839 18.9141 6.91401 19.1391 6.66089 19.1297C5.67183 19.1297 4.68745 19.1297 3.69839 19.1297C3.43589 19.1485 3.19683 18.9235 3.20151 18.661C3.19683 17.6625 3.19683 16.6641 3.20151 15.6656C3.20151 15.4594 3.33745 15.2672 3.52964 15.211ZM4.13901 16.1297C4.13901 16.8141 4.13901 17.4985 4.13901 18.1828C4.82339 18.1922 5.51245 18.1875 6.20151 18.1875C6.2062 17.5031 6.2062 16.8141 6.20151 16.1297C5.51245 16.125 4.82339 16.1203 4.13901 16.1297Z" fill="#1C2436"/>
<path d="M7.4672 21.5766C7.79533 21.4781 8.13751 21.825 8.03439 22.1484C7.96408 22.4812 7.49533 22.6125 7.26095 22.3641C6.98908 22.1391 7.12033 21.6469 7.4672 21.5766Z" fill="#1C2436"/>
<path d="M0.942231 1.87031C0.979731 1.35937 1.45317 0.928122 1.96879 0.937497C5.71879 0.937497 9.47348 0.937497 13.2235 0.937497C13.7391 0.928122 14.2079 1.35937 14.2454 1.87031C14.2594 2.24531 14.2454 2.62031 14.25 3C9.81098 3 5.37661 3 0.937544 3C0.942231 2.625 0.928169 2.24531 0.942231 1.87031Z" fill="#4DF189"/>
<path d="M0.937544 21C5.12817 21 9.31879 21 13.5141 21C13.336 21.2953 13.2094 21.6328 13.2235 21.9844C13.2282 22.35 13.3688 22.6969 13.5844 22.9875C13.3641 23.0812 13.125 23.0578 12.8907 23.0578C9.24848 23.0578 5.60629 23.0578 1.96411 23.0578C1.45317 23.0672 0.979731 22.6406 0.942231 22.125C0.928169 21.7547 0.942231 21.375 0.937544 21ZM7.46723 21.5766C7.12036 21.6469 6.98911 22.1344 7.26098 22.3688C7.49536 22.6172 7.96411 22.4859 8.03442 22.1531C8.13754 21.825 7.79536 21.4781 7.46723 21.5766Z" fill="#4DF189"/>
<path d="M0.9375 3.9375C5.37656 3.9375 9.81094 3.9375 14.25 3.9375C14.25 7.33594 14.2547 10.7344 14.25 14.1328C13.8797 13.7812 13.5234 13.4109 13.1578 13.05C12.9094 12.8109 12.6844 12.5437 12.3984 12.3516C12.3938 11.7328 12.4031 11.1141 12.3937 10.5C12.3984 10.2469 12.1687 10.0219 11.9156 10.0359C10.9266 10.0313 9.94219 10.0359 8.95312 10.0359C8.69063 10.0172 8.45156 10.2422 8.46094 10.5094C8.45625 11.5078 8.45625 12.5063 8.46094 13.5047C8.45156 13.7484 8.6625 13.9734 8.90625 13.9734C9.27188 13.9875 9.64219 13.9687 10.0078 13.9828C10.05 14.1797 10.1062 14.3766 10.2141 14.55C10.3594 14.8031 10.5891 14.9859 10.7859 15.1969C10.1578 15.2016 9.52969 15.1922 8.90625 15.2016C8.6625 15.2016 8.45156 15.4266 8.46094 15.6703C8.45625 16.6687 8.45625 17.6672 8.46094 18.6656C8.45156 18.9281 8.69063 19.1531 8.95312 19.1391C9.94219 19.1391 10.9266 19.1391 11.9156 19.1391C12.1687 19.1531 12.4031 18.9281 12.3984 18.675C12.4078 18.0562 12.3938 17.4422 12.4031 16.8234C12.9844 17.3812 13.5422 17.9625 14.1188 18.5297C14.1797 18.5953 14.2734 18.6609 14.2547 18.7641C14.2547 19.2047 14.2547 19.6406 14.2547 20.0812C9.81563 20.0812 5.38125 20.0812 0.942188 20.0812C0.9375 18.0984 0.946875 11.4234 0.9375 9.44062C0.946875 9.17812 0.946875 12.2812 0.9375 12.0187C0.942188 11.7562 0.946875 10.1766 0.9375 9.91406C0.942188 7.90781 0.9375 5.92031 0.9375 3.9375ZM3.53438 4.89844C3.34219 4.95469 3.20156 5.14687 3.20625 5.34844C3.20156 6.34687 3.20156 7.34531 3.20625 8.34375C3.19688 8.60625 3.44062 8.83125 3.70312 8.8125C4.69219 8.8125 5.67656 8.8125 6.66562 8.8125C6.91875 8.82188 7.15312 8.60156 7.14375 8.34844C7.14844 7.34531 7.14844 6.34687 7.14375 5.34375C7.14844 5.09063 6.91875 4.86563 6.66562 4.875C5.70937 4.87031 4.75781 4.875 3.80156 4.875C3.70781 4.875 3.61875 4.87031 3.53438 4.89844ZM8.78437 4.89844C8.59219 4.95469 8.45156 5.14687 8.45625 5.34844C8.45625 6.34687 8.45625 7.34531 8.45625 8.34375C8.44687 8.60625 8.69062 8.83125 8.94844 8.8125C9.9375 8.8125 10.9219 8.8125 11.9109 8.8125C12.1641 8.82656 12.3984 8.60156 12.3891 8.34844C12.3937 7.34531 12.3937 6.34687 12.3891 5.34375C12.3937 5.09063 12.1641 4.86563 11.9109 4.875C10.9547 4.87031 9.99844 4.875 9.04688 4.875C8.95781 4.875 8.86875 4.87031 8.78437 4.89844ZM3.52969 10.0547C3.3375 10.1109 3.19688 10.3031 3.20156 10.5047C3.19688 11.4891 3.20156 12.4734 3.20156 13.4578C3.19219 13.6266 3.26719 13.8 3.40781 13.8891C3.52031 13.9687 3.66094 13.9734 3.79219 13.9734C4.74844 13.9688 5.7 13.9734 6.65625 13.9734C6.90938 13.9828 7.14375 13.7625 7.13437 13.5047C7.13906 12.5016 7.13906 11.5031 7.13437 10.5C7.13906 10.2469 6.90938 10.0219 6.65625 10.0359C5.71875 10.0313 4.77656 10.0359 3.83906 10.0359C3.74063 10.0313 3.63281 10.0266 3.52969 10.0547ZM3.52969 15.2109C3.3375 15.2672 3.19688 15.4594 3.20156 15.6609C3.19688 16.6594 3.19688 17.6578 3.20156 18.6562C3.19219 18.9187 3.43594 19.1438 3.69844 19.125C4.68281 19.125 5.67188 19.125 6.66094 19.125C6.91406 19.1344 7.14844 18.9141 7.13906 18.6562C7.14375 17.6531 7.14375 16.6547 7.13906 15.6516C7.14375 15.3984 6.91406 15.1734 6.66094 15.1828C5.72344 15.1781 4.78125 15.1828 3.84375 15.1828C3.74062 15.1875 3.63281 15.1828 3.52969 15.2109Z" fill="#F9F9F9"/>
<path d="M4.13904 5.8172C4.8281 5.80782 5.51248 5.81251 6.20154 5.81251C6.20623 6.50157 6.20623 7.18595 6.20154 7.87501C5.51248 7.87501 4.8281 7.8797 4.13904 7.87032C4.13904 7.18595 4.13904 6.50157 4.13904 5.8172Z" fill="#FFEFEB"/>
<path d="M9.38904 10.9734C10.0781 10.9641 10.7625 10.9688 11.4515 10.9688C11.4562 11.3578 11.4609 11.7469 11.4515 12.1313C10.9031 12.1828 10.4015 12.5203 10.1531 13.0125C9.90466 13.05 9.64685 13.0219 9.39373 13.0266C9.39373 12.3422 9.39373 11.6578 9.38904 10.9734Z" fill="#FFEFEB"/>
<path d="M9.38904 5.8172C10.0734 5.80782 10.7625 5.81251 11.4515 5.81251C11.4562 6.49689 11.4562 7.18595 11.4515 7.87032C10.7672 7.87032 10.0781 7.8797 9.38904 7.86564C9.39373 7.18595 9.39373 6.50157 9.38904 5.8172Z" fill="#FFEFEB"/>
<path d="M4.13904 16.1297C4.82341 16.1203 5.51248 16.125 6.20154 16.125C6.20623 16.8094 6.20623 17.4984 6.20154 18.1828C5.51716 18.1828 4.8281 18.1875 4.13904 18.1781C4.13904 17.4984 4.13904 16.8141 4.13904 16.1297Z" fill="#FFEFEB"/>
<path d="M4.13904 10.9734C4.8281 10.9641 5.51248 10.9688 6.20154 10.9688C6.20623 11.6531 6.20623 12.3422 6.20154 13.0313C5.51248 13.0313 4.8281 13.0359 4.13904 13.0266C4.13904 12.3422 4.13904 11.6578 4.13904 10.9734Z" fill="#FFEFEB"/>
<path d="M9.38904 16.1297C10.0781 16.1203 10.7625 16.125 11.4515 16.125C11.4562 16.8141 11.4562 17.4984 11.4515 18.1875C10.7625 18.1875 10.0781 18.1922 9.38904 18.1828C9.39373 17.4984 9.39373 16.8141 9.38904 16.1297Z" fill="#FFEFEB"/>
</g>
<defs>
<clipPath id="clip0_846_5339">
<rect width="24" height="24" fill="white"/>
</clipPath>
</defs>
</svg>
