<svg width="56" height="80" viewBox="0 0 56 80" fill="none" xmlns="http://www.w3.org/2000/svg">
<path d="M1.62207 11.9681V65.6881H47.5463V11.9681" fill="#FAF7F5"/>
<path d="M1.62223 65.6881H47.5464V70.6415C47.5464 74.947 44.0561 78.4375 39.7505 78.4375H9.41801C5.11254 78.4375 1.62207 74.9472 1.62207 70.6415V65.6881H1.62223Z" fill="#4DF189"/>
<path d="M32.513 11.9681H1.62207V9.35844C1.62207 5.05281 5.11238 1.5625 9.41785 1.5625H39.7504C44.0558 1.5625 47.5463 5.05281 47.5463 9.35844V11.9681" fill="#4DF189"/>
<path d="M50.7043 22.5764H20.9636C18.9347 22.5764 17.29 24.2211 17.29 26.25V45.472C17.29 47.5009 18.9347 49.1456 20.9636 49.1456H25.9071V55.9741L35.7375 49.1456H50.7043C52.7332 49.1456 54.3779 47.5009 54.3779 45.472V26.25C54.3777 24.2213 52.733 22.5764 50.7043 22.5764Z" fill="#FFF7D6"/>
<path d="M27.0377 73.6253H22.1309C21.2679 73.6253 20.5684 72.9258 20.5684 72.0628C20.5684 71.1998 21.2679 70.5003 22.1309 70.5003H27.0377C27.9007 70.5003 28.6001 71.1998 28.6001 72.0628C28.6002 72.9258 27.9007 73.6253 27.0377 73.6253Z" fill="#1C2436"/>
<path d="M50.7046 21.0139H49.1088V9.35844C49.1088 4.19812 44.9107 0 39.7504 0H9.41801C4.25769 0 0.0595703 4.19812 0.0595703 9.35844V70.6417C0.0595703 75.8019 4.25769 80.0002 9.41801 80.0002H39.7504C44.9105 80.0002 49.1088 75.802 49.1088 70.6417V50.7081H50.7046C53.5916 50.7081 55.9407 48.3592 55.9407 45.472V26.25C55.9405 23.3628 53.5916 21.0139 50.7046 21.0139ZM45.9838 70.6416C45.9838 74.0788 43.1875 76.875 39.7504 76.875H9.41801C5.98082 76.875 3.18457 74.0788 3.18457 70.6416V67.2506H45.9838V70.6416ZM45.9838 64.1256H3.18457V13.5306H32.513C33.3758 13.5306 34.0755 12.8311 34.0755 11.9681C34.0755 11.1052 33.3758 10.4056 32.513 10.4056H3.18457V9.35844C3.18457 5.92125 5.98082 3.125 9.41801 3.125H39.7504C43.1874 3.125 45.9838 5.92125 45.9838 9.35844V21.0141H20.9638C18.0766 21.0141 15.7277 23.363 15.7277 26.2502V45.4723C15.7277 48.3595 18.0766 50.7084 20.9638 50.7084H24.3447V54.4119H14.87C14.0071 54.4119 13.3075 55.1114 13.3075 55.9744C13.3075 56.8373 14.0071 57.5369 14.87 57.5369H36.0935C36.9563 57.5369 37.656 56.8373 37.656 55.9744C37.656 55.1114 36.9563 54.4119 36.0935 54.4119H30.8957L36.2272 50.7084H45.9836V64.1256H45.9838ZM52.8155 45.4722C52.8155 46.6362 51.8686 47.5833 50.7044 47.5833H35.7377C35.4191 47.5833 35.108 47.6808 34.8463 47.8625L27.4697 52.9863V49.1456C27.4697 48.2827 26.7702 47.5831 25.9072 47.5831H20.9638C19.7997 47.5831 18.8527 46.6361 18.8527 45.472V26.25C18.8527 25.0859 19.7997 24.1389 20.9638 24.1389H50.7044C51.8685 24.1389 52.8155 25.0859 52.8155 26.25V45.4722Z" fill="#1C2436"/>
<path d="M46.1863 31.4249H25.4814C24.6185 31.4249 23.9189 30.7253 23.9189 29.8624C23.9189 28.9994 24.6185 28.2999 25.4814 28.2999H46.1863C47.0491 28.2999 47.7488 28.9994 47.7488 29.8624C47.7488 30.7253 47.0491 31.4249 46.1863 31.4249Z" fill="#1C2436"/>
<path d="M46.1863 37.4686H25.4814C24.6185 37.4686 23.9189 36.7691 23.9189 35.9061C23.9189 35.0432 24.6185 34.3436 25.4814 34.3436H46.1863C47.0491 34.3436 47.7488 35.0432 47.7488 35.9061C47.7488 36.7691 47.0491 37.4686 46.1863 37.4686Z" fill="#1C2436"/>
<path d="M37.2104 43.5125H25.4814C24.6185 43.5125 23.9189 42.813 23.9189 41.95C23.9189 41.087 24.6185 40.3875 25.4814 40.3875H37.2104C38.0732 40.3875 38.7729 41.087 38.7729 41.95C38.7729 42.813 38.0733 43.5125 37.2104 43.5125Z" fill="#1C2436"/>
<path d="M39.605 13.5313C38.9517 13.5313 38.3558 13.1078 38.1356 12.4945C37.9192 11.8914 38.1027 11.1908 38.5944 10.7769C39.1078 10.3447 39.8585 10.2863 40.4296 10.6414C40.9763 10.9813 41.2639 11.6414 41.138 12.2736C40.9942 12.9942 40.3403 13.5313 39.605 13.5313Z" fill="#1C2436"/>
</svg>
