<svg width="69" height="60" viewBox="0 0 69 60" fill="none" xmlns="http://www.w3.org/2000/svg">
<g clip-path="url(#clip0_1722_16323)">
<path d="M35.3982 0.169394C32.847 0.423571 30.3535 1.08726 27.9465 1.93451C27.2403 2.16045 26.5196 2.45699 26.0439 3.05007C25.5971 3.61491 25.2224 4.22211 24.79 4.80107C19.0823 12.6665 13.144 20.4047 8.18581 28.7785C5.63465 33.1136 3.27086 37.6182 1.81511 42.4335C1.64215 43.083 1.15209 43.5773 0.820588 44.1421C0.0999207 45.3 -0.28924 46.7686 0.244054 48.0677C0.618801 49.1974 1.54126 50.0447 2.00248 51.132C3.25644 53.6737 5.53375 55.6083 8.01285 56.9781C9.12268 57.557 10.2325 58.1642 11.4721 58.4184C13.1728 58.8138 14.9024 58.9974 16.632 59.195C22.7289 59.7458 28.8401 59.8729 34.9514 59.9717C43.5994 60.0988 52.2474 59.9435 60.8954 59.774C61.6593 59.774 62.4376 59.7458 63.1871 59.5622C65.4644 59.068 67.4247 57.3734 68.1742 55.2129C69.0822 52.3464 68.7939 49.2821 68.3183 46.3591C67.4823 41.8969 64.9312 37.7735 61.3134 34.9635C56.8741 31.4756 50.8349 30.0352 45.2569 31.1649C42.0716 31.8286 38.9295 32.7323 35.9027 33.9044C31.9967 35.4012 28.2204 37.3499 24.9341 39.9623C27.0961 33.509 27.7159 26.6603 29.8635 20.207C30.3535 18.7808 30.9157 17.3687 31.7084 16.0696C32.2849 15.1235 33.0056 14.2198 33.928 13.5702C34.0866 13.4572 34.3749 13.4431 34.4902 13.6408C35.5279 14.954 36.681 16.3097 38.2809 16.9733C39.4484 17.4817 40.76 17.5523 42.0139 17.5382C43.1526 17.6229 44.2768 17.8912 45.4155 18.0042C46.0064 18.9926 46.9433 19.7975 48.0675 20.1506C49.1918 20.3624 50.2151 19.614 50.9934 18.8938C51.7285 18.1313 52.5501 17.1428 52.2618 16.0131C53.4293 14.5869 54.2364 12.9348 54.813 11.1979C54.9427 10.9013 54.7697 10.5907 54.6833 10.3082C54.222 8.76906 53.4581 7.32872 52.4924 6.04372C51.3105 4.43393 49.9701 2.95122 48.817 1.31319C48.6441 1.05901 48.4279 0.776595 48.082 0.776595C43.8877 0.26824 39.6357 -0.296598 35.3982 0.169394Z" fill="white"/>
<path d="M35.3987 0.169394C39.6362 -0.296598 43.8881 0.26824 48.0968 0.776595C48.4428 0.776595 48.659 1.05901 48.8319 1.31319C49.985 2.95122 51.311 4.43393 52.5073 6.04372C53.473 7.34285 54.2369 8.76906 54.6981 10.3082C54.7702 10.6048 54.9432 10.9013 54.8279 11.1979C54.2513 12.9206 53.4442 14.5869 52.2767 16.0131C52.5506 17.1428 51.7434 18.1313 51.0083 18.8938C50.23 19.614 49.2067 20.3483 48.0824 20.1506C46.9582 19.7975 46.0213 18.9926 45.4304 18.0042C44.2917 17.8912 43.1675 17.6229 42.0288 17.5382C40.7604 17.5523 39.4632 17.4958 38.2958 16.9733C36.6959 16.2955 35.5428 14.954 34.505 13.6408C34.3897 13.4572 34.1015 13.4572 33.9429 13.5702C33.0205 14.2198 32.2998 15.1094 31.7233 16.0696C30.945 17.3687 30.3684 18.7667 29.8784 20.207C27.7164 26.6603 27.111 33.509 24.949 39.9623C28.2352 37.364 32.0115 35.4153 35.932 33.9044C38.9588 32.7465 42.1009 31.8286 45.2862 31.1649C50.8642 30.0352 56.9034 31.4756 61.3427 34.9635C64.9749 37.7735 67.5116 41.8969 68.3476 46.3591C68.8232 49.268 69.1115 52.3464 68.2035 55.2129C67.4395 57.3734 65.4793 59.068 63.2164 59.5622C62.4669 59.7458 61.6886 59.774 60.9247 59.774C52.2767 59.9435 43.6287 60.0988 34.9807 59.9717C28.8694 59.887 22.7582 59.7458 16.6613 59.195C14.9317 58.9974 13.1877 58.8138 11.5013 58.4184C10.2618 58.1642 9.13756 57.5711 8.04214 56.9781C5.54864 55.6224 3.28574 53.6879 2.03178 51.132C1.57055 50.0447 0.648098 49.2115 0.273351 48.0677C-0.259943 46.7545 0.129218 45.3 0.849885 44.1421C1.18139 43.5773 1.65703 43.083 1.84441 42.4335C3.31457 37.6182 5.66394 33.1136 8.21511 28.7785C13.1733 20.4189 19.1116 12.6806 24.8193 4.80107C25.2517 4.22211 25.6264 3.61491 26.0732 3.05007C26.5489 2.47111 27.2696 2.16045 27.9758 1.93451C30.354 1.10138 32.8475 0.423571 35.3987 0.169394ZM33.8132 1.59561C31.7377 1.96276 29.7054 2.56996 27.7452 3.29013C26.9669 3.57255 26.6209 4.37744 26.1597 4.98464C20.6106 12.6806 14.802 20.207 9.88705 28.3125C7.3503 32.4923 5.01534 36.8274 3.41546 41.445C3.09837 42.2922 2.95423 43.2242 2.40653 43.9726C1.78675 44.8481 1.13815 45.8225 1.22463 46.938C1.38318 48.3643 2.5939 49.3245 3.11278 50.6095C4.65501 53.6879 7.72505 55.7213 10.8816 56.9922C13.0292 57.6559 15.2921 57.8112 17.5117 58.0654C24.6031 58.6443 31.7377 58.7432 38.8579 58.7855C45.8772 58.7997 52.8965 58.7432 59.9158 58.5878C61.1553 58.5172 62.4381 58.6443 63.6056 58.1925C65.3064 57.5994 66.6756 56.159 67.1513 54.4504C67.7855 52.0075 67.5693 49.4516 67.1945 46.9804C66.6756 43.7467 65.2199 40.6825 63.0291 38.2113C59.5554 34.2715 54.2657 31.8992 48.9472 31.9981C46.3672 31.9698 43.8593 32.69 41.3946 33.3396C37.1283 34.554 32.9772 36.192 29.1865 38.4655C27.2551 39.6234 25.4391 40.9649 23.8392 42.5464C23.5941 42.8571 23.0753 42.9277 22.8302 42.5747C22.5708 42.3205 22.7438 41.9957 22.8735 41.7274C23.7383 39.9482 24.286 38.0277 24.776 36.1214C26.203 30.5154 26.9669 24.7258 28.8983 19.2468C29.7919 16.8321 30.9161 14.3468 33.0349 12.7229C33.6979 12.1299 34.8654 12.144 35.4275 12.8783C36.2058 13.8526 36.9986 14.8552 38.0796 15.5189C38.9876 16.0978 40.083 16.3379 41.1496 16.3238C42.4756 16.2673 43.7872 16.578 45.0844 16.7757C45.1997 16.4368 45.3295 16.0978 45.4304 15.7589C44.1764 15.6601 42.9945 15.1517 42.0144 14.3751C41.2073 14.7705 40.2848 14.8976 39.4056 14.6575C38.6993 14.4457 37.8489 14.2621 37.4454 13.5843C36.9409 12.7512 37.0418 11.7345 37.1427 10.8307C37.2724 10.28 38.1804 10.2659 38.3102 10.8307C38.4255 11.565 38.094 12.4123 38.5696 13.0618C39.4488 13.5702 40.5875 13.8103 41.5243 13.2878C41.6252 12.5817 41.6973 11.8616 41.7982 11.1555C41.8414 10.8166 41.9135 10.4353 41.7117 10.1247C40.9766 8.82555 40.256 7.5123 39.4488 6.24141C39.1606 5.81778 39.6794 5.28118 40.1407 5.43652C40.4433 5.47888 40.5731 5.77542 40.746 6.00135C41.4811 7.17339 42.1441 8.40192 42.8215 9.6022C42.9657 9.8705 43.1531 10.1529 43.1098 10.4777C43.0377 11.2967 42.9224 12.1299 42.8071 12.9489C42.8215 13.1324 42.7062 13.3866 42.8792 13.5137C43.8449 14.3186 45.1709 14.714 46.4249 14.5728C46.6843 13.4996 46.6699 12.3982 46.8573 11.325C46.8861 11.0143 46.987 10.6754 46.7564 10.4212C45.5168 8.62786 44.2773 6.82037 43.0377 5.02701C42.9369 4.84343 42.7927 4.67398 42.7783 4.46217C42.8215 4.09502 43.2107 3.75612 43.5999 3.89733C43.8161 4.0103 43.9458 4.22211 44.0899 4.40568C45.3583 6.26965 46.6411 8.1195 47.9239 9.96935C48.0536 10.167 48.1833 10.3789 48.1545 10.6189C48.0968 11.5933 47.9095 12.5535 47.823 13.5137C48.4428 13.2595 49.1202 13.1889 49.74 13.4713C49.985 12.6382 50.1868 11.791 50.3309 10.9296C50.403 10.6613 50.2877 10.4071 50.1724 10.167C49.1202 8.10538 47.8374 6.18493 46.569 4.25035C46.2375 3.84085 46.6987 3.24776 47.1888 3.33249C47.4771 3.4031 47.6356 3.65727 47.7942 3.88321C48.9616 5.63421 50.1003 7.41345 51.0804 9.2633C51.2966 9.74341 51.6858 10.2376 51.5849 10.7884C51.4263 11.918 51.1236 13.0336 50.821 14.135C51.0804 14.3892 51.3398 14.6434 51.5993 14.8976C52.4785 13.7114 53.1847 12.3699 53.5739 10.9437C53.1415 9.00912 51.9884 7.30048 50.7633 5.7613C49.74 4.50453 48.731 3.23364 47.7653 1.93451C43.1386 1.3838 38.4399 0.776595 33.8132 1.59561ZM48.6878 14.5022C47.7509 14.8552 46.8717 15.5189 46.4825 16.4509C46.3672 16.7333 46.2663 17.0722 46.4393 17.3405C46.9005 18.103 47.6212 18.7667 48.5148 19.0068C49.4805 18.7808 50.23 18.0324 50.7921 17.2558C50.9363 16.9733 51.2245 16.6627 51.066 16.3379C50.7633 15.6177 50.1435 15.0388 49.4517 14.6858C49.2067 14.5869 48.9472 14.4175 48.6878 14.5022Z" fill="#2A5339"/>
<path d="M33.8129 1.5957C38.4396 0.77668 43.1528 1.38388 47.7651 1.9346C48.7308 3.23373 49.7397 4.50462 50.763 5.76138C51.9882 7.30057 53.1412 8.99508 53.5736 10.9438C53.1845 12.37 52.4782 13.7115 51.599 14.8977C51.3396 14.6435 51.0801 14.3893 50.8207 14.1351C51.1234 13.0337 51.426 11.9322 51.5846 10.7884C51.6855 10.2236 51.3107 9.7435 51.0801 9.26338C50.1 7.39942 48.947 5.63429 47.7939 3.88329C47.6353 3.67148 47.4768 3.40318 47.1885 3.33258C46.7129 3.24785 46.2372 3.84093 46.5688 4.25044C47.8371 6.17089 49.1199 8.10546 50.1721 10.1671C50.2874 10.4072 50.4027 10.6614 50.3306 10.9297C50.1865 11.791 49.9847 12.6383 49.7397 13.4714C49.1199 13.189 48.4425 13.2596 47.8227 13.5138C47.9092 12.5394 48.0966 11.5792 48.1542 10.619C48.183 10.3789 48.0677 10.1671 47.9236 9.96943C46.6408 8.11958 45.358 6.25562 44.0897 4.40577C43.9455 4.2222 43.8158 4.01038 43.5996 3.89741C43.2104 3.7562 42.8213 4.09511 42.778 4.46225C42.7925 4.67407 42.9366 4.84352 43.0375 5.02709C44.277 6.82046 45.5166 8.62794 46.7561 10.4213C46.9867 10.6755 46.8858 11.0285 46.857 11.325C46.6696 12.3982 46.6985 13.4997 46.4246 14.5729C45.1562 14.7 43.8446 14.3187 42.8789 13.5138C42.6916 13.3867 42.8069 13.1325 42.8069 12.949C42.9222 12.1299 43.0375 11.3109 43.1095 10.4778C43.1672 10.153 42.9654 9.87059 42.8213 9.60229C42.1294 8.402 41.4808 7.1876 40.7458 6.00144C40.5872 5.78962 40.4431 5.47896 40.1404 5.4366C39.6792 5.28127 39.1603 5.83199 39.4486 6.2415C40.2557 7.49826 40.962 8.82563 41.7115 10.1248C41.9277 10.4354 41.8412 10.8026 41.7979 11.1556C41.6826 11.8616 41.625 12.5818 41.5241 13.2879C40.6016 13.8103 39.4486 13.5703 38.5693 13.0619C38.0937 12.4124 38.4396 11.5651 38.3099 10.8308C38.1802 10.266 37.2721 10.2942 37.1424 10.8308C37.0559 11.7487 36.955 12.7654 37.4451 13.5844C37.8487 14.2622 38.6991 14.4458 39.4053 14.6576C40.2701 14.9118 41.207 14.7706 42.0141 14.3752C42.9798 15.1518 44.1761 15.6602 45.4301 15.759C45.3148 16.0979 45.1995 16.4368 45.0842 16.7757C43.7726 16.578 42.4754 16.2674 41.1493 16.3239C40.0827 16.3239 38.9873 16.0979 38.0793 15.519C36.9983 14.8412 36.2056 13.8386 35.4272 12.8784C34.8651 12.1441 33.6976 12.1441 33.0346 12.723C30.9303 14.3469 29.7916 16.8463 28.898 19.2469C26.9666 24.7258 26.2027 30.5154 24.7758 36.1215C24.2857 38.0278 23.738 39.9483 22.8732 41.7275C22.7435 41.9958 22.5849 42.3347 22.83 42.5748C23.075 42.9278 23.5939 42.8572 23.8389 42.5465C25.4388 40.9791 27.2549 39.6376 29.1863 38.4656C32.977 36.1921 37.128 34.5399 41.3944 33.3396C43.859 32.676 46.367 31.9699 48.947 31.9981C54.2799 31.8993 59.5552 34.2716 63.0288 38.2114C65.2196 40.6684 66.6754 43.7468 67.1942 46.9805C67.569 49.4517 67.7852 52.0076 67.151 54.4505C66.6754 56.1591 65.3061 57.5853 63.6053 58.1925C62.4234 58.6303 61.1406 58.5173 59.9155 58.5879C52.8962 58.7433 45.8769 58.7997 38.8576 58.7856C31.7374 58.7291 24.6172 58.6444 17.5114 58.0655C15.2918 57.8113 13.0289 57.6701 10.8813 56.9923C7.72478 55.7214 4.65474 53.688 3.11251 50.6096C2.57922 49.3387 1.38291 48.3644 1.22436 46.9381C1.1523 45.8367 1.78649 44.8482 2.40626 43.9727C2.95397 43.2243 3.11251 42.2923 3.41519 41.4451C5.01507 36.8275 7.36445 32.4924 9.88678 28.3126C14.8017 20.2071 20.6103 12.6807 26.1595 4.98473C26.6351 4.37753 26.9666 3.58675 27.7449 3.29021C29.7051 2.57004 31.7374 1.96284 33.8129 1.5957Z" fill="#E7D6FF"/>
<path d="M48.6885 14.5022C48.9479 14.4175 49.1929 14.601 49.4235 14.6999C50.1298 15.067 50.7352 15.6319 51.0378 16.352C51.1964 16.6768 50.9081 16.9875 50.764 17.2699C50.2163 18.0466 49.4668 18.7809 48.4867 19.0209C47.6075 18.7667 46.8724 18.1172 46.4112 17.3546C46.2382 17.0722 46.3391 16.7333 46.4544 16.465C46.8724 15.5048 47.7516 14.8552 48.6885 14.5022Z" fill="#E7D6FF"/>
</g>
<defs>
<clipPath id="clip0_1722_16323">
<rect width="68.7805" height="60" fill="white"/>
</clipPath>
</defs>
</svg>
