<svg width="54" height="48" viewBox="0 0 54 48" fill="none" xmlns="http://www.w3.org/2000/svg">
<path d="M10.4821 4.36735C10.455 3.73534 11.0329 3.16653 11.6739 3.20264C21.6326 3.20264 31.6003 3.20264 41.5589 3.20264C41.9923 3.17556 42.4347 3.37419 42.6604 3.74437C42.8952 4.08746 42.841 4.52084 42.841 4.9181C42.841 9.95613 42.832 14.9942 42.841 20.0322C37.4599 22.8582 32.0607 25.6571 26.6616 28.474C21.2714 25.648 15.8632 22.8491 10.4821 20.0231C10.4911 14.8045 10.4731 9.58595 10.4821 4.36735ZM16.116 7.83438C15.5201 7.88855 15.0416 8.48444 15.1138 9.08034C15.1499 9.66721 15.6917 10.1548 16.2785 10.1367C23.1674 10.1457 30.0654 10.1367 36.9543 10.1367C37.2793 10.1548 37.6224 10.0464 37.8662 9.81167C38.2454 9.45955 38.3357 8.84559 38.0739 8.40319C37.8572 8.01495 37.4057 7.78923 36.9633 7.81632C30.0112 7.82535 23.0591 7.79826 16.116 7.83438ZM16.0438 12.4661C15.2402 12.5835 14.8249 13.6308 15.3215 14.2719C15.5562 14.6059 15.9625 14.7775 16.3688 14.7594C23.1133 14.7594 29.8577 14.7594 36.6022 14.7594C36.9724 14.7594 37.3696 14.7955 37.6856 14.5788C38.1551 14.2899 38.3537 13.6398 38.119 13.1433C37.9294 12.6918 37.4418 12.421 36.9633 12.4571C30.255 12.4571 23.5376 12.4571 16.8293 12.4571C16.5675 12.4481 16.3056 12.43 16.0438 12.4661ZM20.4588 17.143C19.9532 17.3326 19.6372 17.9104 19.7546 18.4431C19.8539 19.0029 20.4137 19.4182 20.9735 19.3731C24.7926 19.3731 28.6118 19.3731 32.4309 19.3731C33.0268 19.3911 33.5776 18.8765 33.5866 18.2806C33.6408 17.6396 33.0719 17.0527 32.4309 17.0708C28.6388 17.0617 24.8468 17.0708 21.0547 17.0708C20.8651 17.0617 20.6484 17.0708 20.4588 17.143Z" fill="white"/>
<path d="M4.604 16.9623C5.79579 16.231 6.97856 15.4906 8.17035 14.7593C8.17035 16.1136 8.17035 17.4679 8.17035 18.8222C6.97856 18.1992 5.79579 17.5853 4.604 16.9623Z" fill="white"/>
<path d="M45.1514 14.7505C46.3341 15.4908 47.535 16.2131 48.7087 16.9716C47.5259 17.5945 46.3432 18.2085 45.1514 18.8224C45.1514 17.4681 45.1514 16.1138 45.1514 14.7505Z" fill="white"/>
<path d="M3.54736 19.021C11.0773 22.9575 18.6163 26.885 26.1462 30.8125C26.6248 31.0834 27.1665 30.8576 27.5999 30.5958C34.9944 26.7315 42.3889 22.8853 49.7744 19.021V43.7868C49.6931 44.3465 49.1785 44.816 48.6007 44.798C34.1276 44.807 19.6456 44.798 5.17253 44.798C4.81138 44.798 4.41412 44.8341 4.09812 44.6264C3.80017 44.4549 3.62862 44.1389 3.54736 43.8139V19.021Z" fill="white"/>
</svg>
