<svg width="30" height="26" viewBox="0 0 30 26" fill="none" xmlns="http://www.w3.org/2000/svg">
<path d="M0.950998 1.89003C1.62856 1.07975 2.6484 0.569834 3.70316 0.506967C4.02448 0.479026 4.35279 0.527923 4.6741 0.534908C10.4509 0.534908 16.2276 0.534908 22.0044 0.534908C22.4235 0.548878 22.8356 0.465056 23.2547 0.506967C24.2746 0.576819 25.2525 1.06578 25.9231 1.83415C26.6425 2.64444 27.0058 3.76207 26.887 4.84477C26.8521 5.51535 26.88 6.19291 26.873 6.86349C17.932 6.86349 8.99095 6.86349 0.0499078 6.86349C0.0429226 6.19291 0.0708633 5.52932 0.0359374 4.85874C-0.0967813 3.80398 0.245493 2.70032 0.950998 1.89003Z" fill="#1C2436"/>
<path d="M0.0415571 9.10571C8.9826 9.10571 17.9236 9.10571 26.8647 9.10571C26.8577 9.68548 26.8787 10.2653 26.8577 10.845C26.8298 11.1454 26.4665 11.32 26.2081 11.1803C24.6783 10.5796 22.9739 10.4399 21.3673 10.7822C19.2788 11.2222 17.3788 12.4865 16.1564 14.2398C14.8152 16.1258 14.2774 18.5706 14.7524 20.8408C14.8432 21.1412 14.5568 21.4416 14.2564 21.3997C11.2039 21.3997 8.15835 21.3997 5.10582 21.3997C4.82641 21.3997 4.54002 21.3997 4.26061 21.4276C3.136 21.5254 1.97646 21.0923 1.18014 20.296C0.348906 19.4927 -0.0841763 18.3192 0.0136164 17.1736C0.0415571 16.9082 0.0415571 16.6357 0.0415571 16.3703C0.0415571 13.9534 0.0415571 11.5296 0.0415571 9.10571ZM5.60876 14.3935C5.14773 14.5611 4.8334 15.0501 4.8823 15.5461C4.91722 16.0979 5.43413 16.5659 5.98596 16.5589C7.48079 16.5589 8.96863 16.5589 10.4635 16.5589C10.8337 16.5659 11.1899 16.3633 11.3925 16.056C11.6859 15.6369 11.623 15.0222 11.2598 14.6659C11.0223 14.4075 10.666 14.3027 10.3168 14.3237C8.98959 14.3237 7.66939 14.3237 6.3422 14.3237C6.1047 14.3237 5.84625 14.3027 5.60876 14.3935Z" fill="#1C2436"/>
<path d="M22.7225 12.8498C24.0147 12.759 25.328 13.0873 26.4246 13.7579C27.7239 14.5472 28.7228 15.8185 29.1768 17.2784C29.6029 18.6126 29.554 20.0865 29.0581 21.3927C28.604 22.6011 27.7798 23.6559 26.718 24.3824C25.6283 25.1368 24.2942 25.5279 22.967 25.493C21.6398 25.4581 20.3266 24.9971 19.2788 24.1798C18.252 23.3975 17.4766 22.2868 17.0924 21.0504C16.6174 19.5556 16.7362 17.8861 17.4068 16.4612C18.3498 14.4145 20.4663 12.9755 22.7225 12.8498ZM21.1788 15.5531C20.1799 16.084 19.4255 17.0549 19.16 18.1586C18.9086 19.1574 19.0692 20.2471 19.5792 21.1482C21.4302 19.3041 23.2743 17.4531 25.1254 15.602C23.9239 14.9174 22.3872 14.8895 21.1788 15.5531ZM26.257 17.6277C24.5526 19.3251 22.8552 21.0295 21.1578 22.7269C22.3243 23.3975 23.8261 23.4394 25.0276 22.8177C26.2221 22.217 27.0743 20.9945 27.214 19.6604C27.3187 18.8082 27.1232 17.942 26.725 17.1946C26.5434 17.3203 26.4037 17.481 26.257 17.6277Z" fill="#1C2436"/>
</svg>
