<svg width="253" height="224" viewBox="0 0 253 224" fill="none" xmlns="http://www.w3.org/2000/svg">
<path d="M207 122.223C213.368 182.723 234.168 240.633 110 219.223C52 209.223 13 175.795 13 122.223C13.0004 27.2007 42.7843 77.0058 79.7607 58.1759C106.005 44.8113 123.904 16.3816 152.552 9.54777C224.243 -7.5541 200.971 64.9481 207 122.223Z" fill="#D6FFD8"/>
<path d="M63.2399 180.6L57.1668 177.866C54.9093 176.849 53.4785 174.623 53.4785 172.143V86.0713C53.4785 83.2096 55.4181 80.6978 58.1843 79.9983L187.88 46.4536C189.501 46.0402 191.218 46.2628 192.649 47.1213L200.598 51.7953L201.361 140.347L63.2399 180.6Z" fill="#FFEFEB"/>
<path d="M63.2084 181.109L56.9764 178.279C54.56 177.198 53.002 174.782 53.002 172.111V86.0712C53.002 82.987 55.1005 80.2843 58.0575 79.5212L187.753 45.9766C189.502 45.5314 191.314 45.7858 192.872 46.7079L201.044 51.5408V51.7952L201.807 140.697L201.457 140.792L63.2084 181.109ZM189.47 46.7079C188.993 46.7079 188.484 46.7714 188.007 46.8986L58.3119 80.4433C55.7364 81.111 53.9558 83.4321 53.9558 86.0712V172.143C53.9558 174.432 55.2913 176.499 57.358 177.421L63.272 180.092L200.853 139.997L200.09 52.0814L192.395 47.5345C191.505 46.994 190.487 46.7079 189.47 46.7079Z" fill="#2A5339"/>
<path d="M197.292 144.894L65.4345 180.537C62.4457 181.332 59.5205 179.106 59.5205 175.99V88.2333C59.5205 86.0712 61.0149 84.1635 63.1134 83.6547L196.243 50.6506C199.232 49.9193 202.093 52.2086 202.03 55.2928L200.726 140.442C200.726 142.541 199.295 144.353 197.292 144.894Z" fill="#DBB4B4"/>
<path d="M64.1944 181.173C63.0816 181.173 61.9687 180.791 61.0467 180.092C59.743 179.106 59.0117 177.612 59.0117 175.99V88.2333C59.0117 85.8486 60.6333 83.7501 62.9862 83.2095L196.116 50.2054C197.674 49.8238 199.295 50.1736 200.567 51.1911C201.839 52.2085 202.538 53.7029 202.507 55.3245L201.203 140.474C201.171 142.763 199.581 144.798 197.387 145.402L197.26 144.957L197.387 145.402L65.5617 180.982C65.1165 181.109 64.6714 181.173 64.1944 181.173ZM197.356 51.0003C197.038 51.0003 196.688 51.0321 196.37 51.1275L63.2406 84.1316C61.3328 84.5768 59.9974 86.2937 59.9974 88.2333V176.022C59.9974 177.357 60.6015 178.565 61.6508 179.36C62.7 180.155 64.0355 180.441 65.3073 180.092L197.133 144.448C198.945 143.971 200.217 142.318 200.249 140.442L201.553 55.2927C201.585 53.9891 200.98 52.7491 199.963 51.9224C199.232 51.3182 198.31 51.0003 197.356 51.0003Z" fill="#2A5339"/>
<path d="M197.292 144.894L65.4345 180.537C62.4457 181.332 59.5205 179.106 59.5205 175.99V88.2333C59.5205 86.0712 61.0149 84.1635 63.1134 83.6547L196.243 50.6506C199.232 49.9193 202.093 52.2086 202.03 55.2928L200.726 140.442C200.726 142.541 199.295 144.353 197.292 144.894Z" fill="#E7D6FF"/>
<path d="M64.1944 181.173C63.0816 181.173 61.9687 180.791 61.0467 180.092C59.743 179.106 59.0117 177.612 59.0117 175.99V88.2333C59.0117 85.8486 60.6333 83.7501 62.9862 83.2095L196.116 50.2054C197.674 49.8238 199.295 50.1736 200.567 51.1911C201.839 52.2085 202.538 53.7029 202.507 55.3245L201.203 140.474C201.171 142.763 199.581 144.798 197.387 145.402L197.26 144.957L197.387 145.402L65.5617 180.982C65.1165 181.109 64.6714 181.173 64.1944 181.173ZM197.356 51.0003C197.038 51.0003 196.688 51.0321 196.37 51.1275L63.2406 84.1316C61.3328 84.5768 59.9974 86.2937 59.9974 88.2333V176.022C59.9974 177.357 60.6015 178.565 61.6508 179.36C62.7 180.155 64.0355 180.441 65.3073 180.092L197.133 144.448C198.945 143.971 200.217 142.318 200.249 140.442L201.553 55.2927C201.585 53.9891 200.98 52.7491 199.963 51.9224C199.232 51.3182 198.31 51.0003 197.356 51.0003Z" fill="#2A5339"/>
<path d="M190.647 140.569L72.0487 171.221C69.3779 171.92 66.707 169.981 66.707 167.31V91.8263C66.707 89.9504 68.0425 88.3288 69.9502 87.8837L189.725 60.3166C192.396 59.7125 194.972 61.6838 194.94 64.3229L193.763 136.754C193.763 138.535 192.492 140.124 190.647 140.569Z" fill="white"/>
<path d="M70.9357 171.857C69.8865 171.857 68.8372 171.507 68.0105 170.839C66.8976 169.981 66.2617 168.709 66.2617 167.31V91.8263C66.2617 89.7278 67.7561 87.9154 69.8547 87.4385L189.63 59.8715C191.092 59.5217 192.619 59.8715 193.763 60.8253C194.844 61.7156 195.448 62.9875 195.448 64.3547L194.272 136.754C194.24 138.757 192.809 140.538 190.806 141.046L72.1758 171.698C71.7624 171.793 71.3491 171.857 70.9357 171.857ZM190.743 60.6981C190.457 60.6981 190.139 60.7299 189.852 60.7935L70.0772 88.3606C68.392 88.7421 67.2156 90.1729 67.2156 91.8263V167.31C67.2156 168.391 67.7243 169.377 68.5828 170.076C69.5367 170.807 70.7449 171.062 71.9214 170.744L190.52 140.093C192.11 139.679 193.255 138.28 193.286 136.722L194.463 64.2911C194.495 63.21 193.986 62.2244 193.159 61.5248C192.46 60.9843 191.633 60.6981 190.743 60.6981Z" fill="#2A5339"/>
<path d="M183.052 131.934L74.2383 161.462L74.4881 162.383L183.301 132.854L183.052 131.934Z" fill="#2A5339"/>
<path d="M181.382 97.4795C181.19 97.3185 180.967 97.2542 180.743 97.2542C180.647 97.2542 180.551 97.2542 180.455 97.2863L76.7877 125.685C76.3402 125.814 76.0205 126.2 75.9886 126.683L74.8058 150.607C74.7738 150.961 74.9337 151.283 75.1894 151.508C75.4451 151.734 75.7968 151.798 76.1484 151.701L180.999 123.335C181.478 123.206 181.798 122.787 181.798 122.272V98.3167C181.83 97.9947 181.67 97.6727 181.382 97.4795Z" fill="#4DF189"/>
<path d="M75.9905 152.588C75.5453 152.588 75.1002 152.429 74.7186 152.143C74.2099 151.73 73.9237 151.126 73.9555 150.458L75.132 126.834C75.1638 125.943 75.7679 125.212 76.6264 124.989L179.772 96.9455C180.376 96.7865 181.012 96.9137 181.521 97.2952C182.03 97.6768 182.316 98.2809 182.316 98.9168V122.573C182.316 123.495 181.712 124.29 180.822 124.513L76.531 152.525C76.3402 152.588 76.1812 152.588 75.9905 152.588ZM180.313 97.8358C180.217 97.8358 180.122 97.8358 180.027 97.8676L76.8807 125.912C76.4356 126.039 76.1176 126.42 76.0858 126.897L74.9094 150.522C74.8776 150.871 75.0366 151.189 75.2909 151.412C75.5453 151.634 75.8951 151.698 76.2448 151.603L180.535 123.59C181.012 123.463 181.33 123.05 181.33 122.541V98.885C181.33 98.5353 181.171 98.2491 180.917 98.0265C180.758 97.8994 180.535 97.8358 180.313 97.8358Z" fill="#2A5339"/>
<path d="M101.069 92.1301C100.938 92.0323 100.776 91.9998 100.645 91.9998C100.58 91.9998 100.515 91.9998 100.45 92.0323L76.4884 99.2989C76.1953 99.3967 76 99.6573 76 99.9832V114.516C76 114.744 76.0977 114.94 76.293 115.07C76.4884 115.201 76.6837 115.233 76.9116 115.201L100.841 108.553C101.134 108.455 101.362 108.195 101.362 107.869V92.7166C101.329 92.4885 101.231 92.2604 101.069 92.1301Z" fill="#4DF189"/>
<path d="M77.0083 115.737C76.6586 115.737 76.3088 115.61 76.0226 115.387C75.6093 115.069 75.3867 114.592 75.3867 114.083V99.9025C75.3867 99.1712 75.8637 98.5352 76.5632 98.3445L99.9332 91.254C100.442 91.095 100.982 91.1904 101.396 91.5084C101.809 91.8263 102.063 92.3033 102.063 92.8438V107.629C102.063 108.36 101.555 109.028 100.855 109.219L77.4852 115.705C77.2945 115.705 77.1673 115.737 77.0083 115.737ZM100.41 92.1125C100.346 92.1125 100.283 92.1125 100.219 92.1443L76.8493 99.2348C76.5632 99.3302 76.3724 99.5845 76.3724 99.9025V114.083C76.3724 114.306 76.4678 114.497 76.6586 114.624C76.8493 114.751 77.0401 114.783 77.2627 114.751L100.633 108.265C100.919 108.169 101.141 107.915 101.141 107.597V92.812C101.141 92.5894 101.046 92.3986 100.855 92.2715C100.696 92.1761 100.537 92.1125 100.41 92.1125Z" fill="#2A5339"/>
<path d="M134.749 83.5003L119.85 87.4758L120.096 88.3975L134.995 84.4219L134.749 83.5003Z" fill="#2A5339"/>
<path d="M159.54 77.6809L145.59 81.0049L145.811 81.9328L159.761 78.6088L159.54 77.6809Z" fill="#2A5339"/>
<path d="M184.744 71.538L171.463 74.3579L171.661 75.291L184.942 72.4711L184.744 71.538Z" fill="#2A5339"/>
<path d="M192.3 119.584C184.097 119.584 174.94 117.422 165.083 113.161L165.465 112.271C185.719 121.047 202.666 120.665 215.766 111.158L216.338 111.921C209.724 116.722 202.125 119.298 193.795 119.552C193.286 119.584 192.777 119.584 192.3 119.584Z" fill="#2A5339"/>
<path d="M138.09 95.8008C134.401 75.5786 128.932 60.1894 121.906 50.0465C114.751 39.7764 105.753 34.6573 95.1016 34.8162V33.8624C106.071 33.7352 115.356 38.9815 122.7 49.5059C129.823 59.7442 135.323 75.2606 139.043 95.6418L138.09 95.8008Z" fill="#2A5339"/>
<path d="M219.327 102.955C218.532 93.9249 224.319 82.5738 235.035 79.0127C234.144 78.8537 233.222 78.7583 232.332 78.7583C229.661 78.7583 227.022 79.5214 224.542 81.0158C217.738 85.1175 213.858 94.1157 215.257 102.414C216.084 107.152 218.914 111.254 223.079 113.638C224.86 114.656 226.799 115.324 228.771 115.578C223.334 113.734 219.9 109.251 219.327 102.955Z" fill="#4DF189"/>
<path d="M233.794 100.093L244.096 82.3193L243.746 82.0649C237.323 77.1684 230.137 76.5007 224.032 80.2208C216.91 84.545 212.84 93.9248 214.303 102.605C215.161 107.629 218.182 111.953 222.57 114.465C225.113 115.928 227.911 116.659 230.71 116.659C232.617 116.659 234.557 116.309 236.401 115.641C242.22 113.448 246.576 108.424 247.561 102.828L247.657 102.351L233.794 100.093ZM223.11 113.638C218.945 111.254 216.115 107.184 215.289 102.414C213.858 94.1474 217.769 85.1491 224.573 81.0157C227.053 79.5213 229.692 78.7582 232.363 78.7582C233.253 78.7582 234.175 78.8536 235.066 79.0125C224.319 82.5737 218.563 93.9248 219.358 102.955C219.899 109.25 223.365 113.734 228.834 115.546C226.83 115.292 224.891 114.656 223.11 113.638ZM236.115 114.719C235.193 115.069 234.271 115.292 233.349 115.451C225.813 114.942 220.948 110.236 220.312 102.859C219.517 93.7658 225.622 82.2557 236.91 79.4577C238.913 80.0936 240.916 81.1111 242.887 82.5737L232.268 100.793L246.576 103.082C245.495 108.201 241.457 112.716 236.115 114.719Z" fill="#2A5339"/>
<path d="M246.765 84.7677L238.371 97.4861L250.899 99.0123C253.283 93.8295 252.012 89.4099 246.765 84.7677Z" fill="#4DF189"/>
<path d="M246.988 83.7183L246.575 83.3685L236.718 98.2808L251.471 100.061L251.63 99.7434C254.428 93.9248 252.965 88.8374 246.988 83.7183ZM250.899 99.0121L238.371 97.4859L246.765 84.7675C252.012 89.4097 253.283 93.8294 250.899 99.0121Z" fill="#2A5339"/>
<path d="M88.8689 21.2711L60.348 23.7194L56.4053 19.9675L57.4227 19.3316L85.6257 16.8197L88.4556 19.6495L88.8689 21.2711Z" fill="#4DF189"/>
<path d="M65.5286 61.6521C65.3378 61.6521 65.1152 61.5885 64.9562 61.4295C60.473 57.5186 61.2361 50.9051 62.0628 43.8782C63.0803 35.1343 64.1613 26.1361 55.8944 20.5082C55.5765 20.2856 55.4493 19.9359 55.5447 19.5861C55.64 19.2364 55.9262 18.982 56.3078 18.9502L85.3056 16.2793C85.4964 16.2475 85.719 16.3111 85.8779 16.4383C92.0146 20.6036 91.4104 28.7751 90.8381 36.6605C90.234 44.8321 89.6935 52.5267 96.625 54.9432C97.0065 55.0703 97.2291 55.4201 97.1973 55.8017C97.1655 56.1832 96.8793 56.5012 96.4978 56.5648L65.6558 61.6839C65.624 61.6521 65.5604 61.6521 65.5286 61.6521ZM56.6893 19.8723C65.1788 25.8181 64.0342 35.4841 63.0485 44.0054C62.2536 50.7461 61.4905 57.1371 65.5604 60.6982L95.9572 55.6745C88.7396 52.8764 89.3437 44.5777 89.916 36.5651C90.4566 28.9341 91.0289 21.0805 85.401 17.2332L56.6893 19.8723Z" fill="#2A5339"/>
<path d="M60.6962 25.3093L51.6026 25.818C51.38 20.8897 53.3831 18.4414 58.0254 18.8865L56.1494 19.6814L60.6962 24.7052V25.3093Z" fill="#2A5339"/>
<path d="M42.4134 204.13L42.2227 203.207C81.0137 195.894 102.285 173.319 107.277 134.179L108.231 134.306C105.814 153.383 99.2963 168.836 88.899 180.283C77.993 192.365 62.3177 200.378 42.4134 204.13Z" fill="#2A5339"/>
<path d="M39.2663 191.348C30.6496 195.29 21.238 197.198 12.4941 190.998L14.9106 194.94L19.0441 198.279L22.1919 199.773L24.0996 201.045L27.2474 201.522L29.7911 200.346L31.9214 198.788L35.7687 196.276L38.9483 192.142L39.2663 191.348Z" fill="#4DF189"/>
<path d="M26.3595 202.063C24.7697 202.063 23.1799 201.332 21.5583 199.837C15.2945 197.929 10.9385 192.015 10.9385 185.465C10.9385 177.167 17.6792 170.426 25.9779 170.426C34.2767 170.426 41.0174 177.167 41.0174 185.465C41.0174 191.634 37.1701 197.262 31.415 199.487C29.7299 201.204 28.0447 202.063 26.3595 202.063ZM25.9461 171.38C18.1879 171.38 11.8606 177.707 11.8606 185.465C11.8606 191.634 15.994 197.198 21.9081 198.947L22.0034 198.979L22.0988 199.042C25.0877 201.84 27.9175 201.745 30.7473 198.724L30.8109 198.629L30.9063 198.597C36.3434 196.53 39.9999 191.252 39.9999 185.434C40.0317 177.707 33.7043 171.38 25.9461 171.38Z" fill="#2A5339"/>
<path d="M25.848 215.767C25.7844 215.767 25.7208 215.767 25.6254 215.767C24.7669 215.671 24.0356 214.877 23.4633 213.382C21.4284 212.587 20.2837 211.602 19.9658 210.425C19.7114 209.503 19.9976 208.517 20.7289 207.468C20.2837 206.991 20.0612 206.482 20.0294 205.974C19.9976 205.497 20.1565 205.02 20.5063 204.543C19.8386 203.875 19.4888 203.144 19.457 202.381C19.457 201.3 20.0929 200.219 21.4284 199.074L22.0643 199.805C20.9514 200.759 20.4109 201.618 20.4109 202.381C20.4109 202.985 20.7607 203.557 21.4602 204.13L21.8417 204.448L21.492 204.829C21.1104 205.242 20.9514 205.592 20.9514 205.942C20.9832 206.292 21.2058 206.705 21.6509 207.087L22.0007 207.405L21.7145 207.754C20.9514 208.676 20.6653 209.503 20.8561 210.203C21.1104 211.093 22.1597 211.92 23.972 212.619L24.1628 212.683L24.2264 212.873C24.6716 214.113 25.1803 214.781 25.689 214.845C26.0706 214.908 26.7701 214.622 27.8511 213.032L27.9147 212.937L28.0101 212.873C31.6349 210.997 30.7764 209.217 30.4902 208.613L30.363 208.327L30.5856 208.104C31.5713 207.087 31.9846 206.292 31.8892 205.719C31.8256 205.338 31.4759 204.956 30.84 204.67L30.2676 204.384L30.7128 203.907C31.921 202.667 31.8892 201.363 30.5856 199.36L31.3805 198.851C32.2708 200.219 33.2247 202.222 31.7938 204.13C32.3662 204.543 32.7159 205.02 32.8113 205.592C32.9703 206.451 32.5251 207.405 31.4441 208.549C31.9846 209.98 31.8256 211.951 28.4871 213.7C27.5968 215.099 26.7065 215.767 25.848 215.767Z" fill="#2A5339"/>
<path d="M24.8317 205.497C23.2101 205.497 21.6839 205.02 20.1895 204.098L20.6982 203.303C23.2737 204.924 25.9445 204.988 28.9333 203.493L29.3467 204.352C27.8205 205.083 26.2943 205.497 24.8317 205.497Z" fill="#2A5339"/>
<path d="M25.2456 208.199C23.8466 208.199 22.3204 207.881 20.667 207.246L21.0167 206.355C24.1009 207.532 26.6128 207.563 28.6478 206.387L29.1247 207.214C27.9483 207.85 26.6764 208.199 25.2456 208.199Z" fill="#2A5339"/>
<path d="M26.0405 210.679C23.942 210.679 22.0342 210.075 20.3809 208.899L20.9214 208.136C23.0835 209.694 25.7226 210.107 28.7432 209.408L28.9658 210.33C27.9483 210.552 26.9944 210.679 26.0405 210.679Z" fill="#2A5339"/>
<path d="M33.6077 191.793L32.9082 191.157C35.5155 188.295 35.9606 184.67 34.3072 179.996L35.1975 179.678C36.9781 184.639 36.4375 188.708 33.6077 191.793Z" fill="#2A5339"/>
<path d="M50.9623 181.554L46.6211 182.794L46.8831 183.711L51.2243 182.471L50.9623 181.554Z" fill="#2A5339"/>
<path d="M45.5562 167.917L42.7031 171.579L43.4555 172.165L46.3086 168.504L45.5562 167.917Z" fill="#2A5339"/>
<path d="M39.7473 158.937L36.3896 164.035L37.1862 164.56L40.5439 159.462L39.7473 158.937Z" fill="#2A5339"/>
<path d="M24.9995 155.31L24.3193 162.016L25.2683 162.113L25.9485 155.406L24.9995 155.31Z" fill="#2A5339"/>
<path d="M12.1042 163.429L11.459 164.132L14.5033 166.928L15.1485 166.225L12.1042 163.429Z" fill="#2A5339"/>
<path d="M0.321052 176.537L-0.000976562 177.435L5.71557 179.485L6.03759 178.587L0.321052 176.537Z" fill="#2A5339"/>
<path d="M162.253 91.6992L161.299 91.6674C161.839 69.0924 168.135 49.6969 180.058 34.0215L180.822 34.5938C169.025 50.142 162.793 69.3467 162.253 91.6992Z" fill="#2A5339"/>
<path d="M197.451 32.4951C197.101 32.4951 196.783 32.4633 196.433 32.4315C193.413 32.1135 190.742 30.4283 188.866 27.6303C187.022 24.8958 186.227 21.3983 186.577 17.8371C186.958 14.276 188.453 11.0328 190.837 8.74352C193.222 6.42242 196.211 5.30956 199.231 5.62752C202.252 5.94548 204.923 7.63066 206.799 10.4287C208.643 13.1632 209.438 16.6607 209.088 20.2218C208.707 23.783 207.212 27.0262 204.827 29.3155C202.697 31.3822 200.122 32.4951 197.451 32.4951ZM198.246 6.5814C195.829 6.5814 193.476 7.59887 191.537 9.47483C189.311 11.6369 187.912 14.6576 187.562 17.9961C187.213 21.3347 187.976 24.5779 189.693 27.1533C191.378 29.697 193.826 31.255 196.561 31.5412C199.295 31.8273 201.998 30.8099 204.192 28.6796C206.417 26.5174 207.816 23.4968 208.166 20.1582L208.643 20.2218L208.166 20.1582C208.516 16.8197 207.753 13.5765 206.036 11.001C204.351 8.45736 201.902 6.89936 199.168 6.61319C198.85 6.5814 198.532 6.5814 198.246 6.5814Z" fill="#2A5339"/>
<path d="M183.969 28.2026C181.998 24.26 181.584 19.6178 182.793 15.1027C184.001 10.5877 186.672 6.74041 190.328 4.29213C192.84 2.60695 195.638 1.71666 198.404 1.65307C198.15 1.55768 197.864 1.49409 197.609 1.3987C193.762 0.381232 189.692 1.14433 186.131 3.52903C182.57 5.91372 179.931 9.69743 178.786 14.1171C176.37 23.2425 180.885 32.3679 188.866 34.4982C189.311 34.6254 189.724 34.689 190.169 34.7844C187.562 33.3218 185.4 31.0643 183.969 28.2026Z" fill="#4DF189"/>
<path d="M204.637 21.8752L203.778 21.4301C204.923 19.2044 204.923 17.0105 203.778 14.7847L204.637 14.3396C205.909 16.8515 205.909 19.3634 204.637 21.8752Z" fill="#2A5339"/>
<path d="M222.38 42.1611L211.983 32.3998C211.951 32.4316 211.951 32.4634 211.919 32.527C211.22 33.7034 209.884 34.7209 208.104 35.1342L217.642 46.6443C218.215 47.3439 219.01 47.7572 219.9 47.8208C220.79 47.8844 221.649 47.5982 222.316 46.9941C222.984 46.39 223.366 45.5315 223.397 44.6094C223.397 43.6555 223.048 42.797 222.38 42.1611Z" fill="#4DF189"/>
<path d="M223.015 41.4616L212.363 31.4459C212.777 29.9833 212.3 28.3935 211.06 27.0898C211.728 25.818 212.268 24.4508 212.65 22.9882C215.13 13.6402 210.424 4.26039 202.189 2.09826C201.871 2.00288 201.585 1.93929 201.267 1.87569C200.186 1.27157 199.041 0.794633 197.833 0.476674C193.699 -0.604387 189.343 0.190511 185.56 2.73418C181.808 5.27785 179.041 9.22055 177.801 13.8627C175.258 23.4969 180.091 33.1629 188.58 35.3886C189.757 35.7065 190.997 35.8655 192.205 35.8655C192.396 35.8655 192.586 35.8655 192.777 35.8655C192.904 35.8973 193.063 35.9609 193.191 35.9927C194.367 36.3107 195.543 36.4696 196.72 36.4696C199.009 36.4696 201.33 35.8973 203.492 34.7845L203.461 34.848C204.51 35.1978 205.496 35.3568 206.386 35.3568C206.577 35.3568 206.767 35.3568 206.958 35.325L216.878 47.2802C217.61 48.1705 218.659 48.7111 219.804 48.7746C219.899 48.7746 220.026 48.7746 220.122 48.7746C221.171 48.7746 222.157 48.3931 222.92 47.6936C223.778 46.8987 224.287 45.7858 224.319 44.6094C224.351 43.4011 223.874 42.2565 223.015 41.4616ZM188.835 34.4665C180.854 32.368 176.339 23.2107 178.755 14.0853C179.932 9.66569 182.539 5.88198 186.1 3.49728C189.661 1.11259 193.731 0.34949 197.578 1.36696C197.833 1.43055 198.119 1.52594 198.373 1.62133C195.575 1.68492 192.809 2.5752 190.297 4.26039C186.641 6.70867 183.97 10.556 182.761 15.071C181.553 19.586 181.998 24.2282 183.938 28.1709C185.369 31.0643 187.531 33.3218 190.106 34.7209C189.725 34.6891 189.28 34.5937 188.835 34.4665ZM193.477 35.0388C189.757 34.0531 186.672 31.4777 184.828 27.7576C182.984 24.0374 182.571 19.6178 183.715 15.3254C184.86 11.0329 187.372 7.40818 190.838 5.05528C193.286 3.4019 195.989 2.5752 198.659 2.5752C199.772 2.5752 200.885 2.70239 201.966 3.02035C209.693 5.05528 214.08 13.9263 211.728 22.7338C210.583 27.0263 208.071 30.651 204.605 33.0039C201.171 35.325 197.197 36.0245 193.477 35.0388ZM204.637 34.1167C204.796 34.0214 204.955 33.8942 205.114 33.7988C207.34 32.3044 209.184 30.3012 210.551 27.9801C211.632 29.252 211.823 30.7146 211.06 32.0182C210.138 33.6398 207.658 34.8162 204.637 34.1167ZM222.316 46.9305C221.648 47.5346 220.789 47.8208 219.899 47.7572C219.009 47.6936 218.214 47.2802 217.642 46.5807L208.103 35.0706C209.883 34.6573 211.219 33.6398 211.918 32.4633C211.95 32.4316 211.95 32.3998 211.982 32.3362L222.379 42.0975C223.047 42.7334 223.428 43.5919 223.397 44.514C223.397 45.4679 223.015 46.3264 222.316 46.9305Z" fill="#2A5339"/>
<path d="M139.361 100.38C137.993 100.38 136.849 99.1395 136.849 97.6451C136.849 96.1507 137.961 94.9106 139.361 94.9106C140.76 94.9106 141.872 96.1507 141.872 97.6451C141.872 99.1395 140.728 100.38 139.361 100.38ZM139.361 95.8327C138.502 95.8327 137.803 96.6276 137.803 97.6133C137.803 98.599 138.502 99.3939 139.361 99.3939C140.219 99.3939 140.919 98.599 140.919 97.6133C140.919 96.6276 140.219 95.8327 139.361 95.8327Z" fill="#2A5339"/>
<path d="M161.777 95.1331C160.41 95.1331 159.266 93.893 159.266 92.3986C159.266 90.9042 160.378 89.6642 161.777 89.6642C163.145 89.6642 164.289 90.9042 164.289 92.3986C164.289 93.893 163.145 95.1331 161.777 95.1331ZM161.777 90.6181C160.919 90.6181 160.22 91.413 160.22 92.3986C160.22 93.3843 160.919 94.1792 161.777 94.1792C162.636 94.1792 163.336 93.3843 163.336 92.3986C163.336 91.413 162.636 90.6181 161.777 90.6181Z" fill="#2A5339"/>
<path d="M163.811 114.942C162.443 114.942 161.299 113.702 161.299 112.207C161.299 110.681 162.412 109.473 163.811 109.473C165.178 109.473 166.323 110.713 166.323 112.207C166.291 113.702 165.178 114.942 163.811 114.942ZM163.811 110.395C162.952 110.395 162.253 111.19 162.253 112.176C162.253 113.161 162.952 113.956 163.811 113.956C164.669 113.956 165.369 113.161 165.369 112.176C165.337 111.222 164.637 110.395 163.811 110.395Z" fill="#2A5339"/>
<path d="M107.786 134.719C106.419 134.719 105.274 133.479 105.274 131.985C105.274 130.49 106.387 129.25 107.786 129.25C109.154 129.25 110.298 130.49 110.298 131.985C110.298 133.479 109.154 134.719 107.786 134.719ZM107.786 130.172C106.928 130.172 106.228 130.967 106.228 131.953C106.228 132.939 106.928 133.733 107.786 133.733C108.645 133.733 109.344 132.939 109.344 131.953C109.344 130.967 108.645 130.172 107.786 130.172Z" fill="#2A5339"/>
<path d="M131.665 197.007C130.361 197.548 128.962 197.834 127.531 197.834C127.182 197.834 126.8 197.802 126.45 197.77L116.657 196.785C115.131 196.626 113.764 195.831 112.905 194.591C112.015 193.351 111.729 191.793 112.11 190.298L118.5 166L115.5 167L108.454 192.079C108.009 193.701 108.327 195.418 109.281 196.785C110.234 198.152 111.729 199.042 113.414 199.169L127.754 200.441C128.708 200.537 129.662 200.409 130.52 200.06L153.572 190.998C153.922 190.871 154.145 190.521 154.145 190.139L154.017 187.691L131.665 197.007Z" fill="#4DF189"/>
<path d="M155.162 186.61C155.098 186.292 154.812 186.038 154.494 186.038L135.703 185.402C135.258 185.402 134.844 185.179 134.526 184.861C134.208 184.543 134.081 184.066 134.145 183.621L136.561 160.965L118.5 166L114.661 166.782L107.627 191.856C107.118 193.732 107.468 195.735 108.581 197.357C109.694 198.947 111.474 199.996 113.414 200.155L127.754 201.427C127.976 201.459 128.167 201.459 128.39 201.459C129.248 201.459 130.139 201.3 130.965 200.982L154.017 191.92C154.749 191.634 155.226 190.903 155.194 190.108L155.067 187.246C155.13 187.087 155.194 186.864 155.162 186.61ZM133.159 183.526C133.096 184.225 133.318 184.957 133.795 185.497C134.272 186.038 134.94 186.356 135.639 186.387L153.35 186.992L131.315 196.149C129.821 196.785 128.199 197.007 126.577 196.848L116.784 195.863C115.544 195.735 114.431 195.068 113.7 194.05C112.969 193.033 112.746 191.761 113.032 190.553L118.565 168.137L134.558 169.949L133.159 183.526ZM153.604 191.03L130.552 200.092C129.662 200.409 128.708 200.568 127.786 200.473L113.446 199.201C111.792 199.042 110.266 198.184 109.312 196.817C108.358 195.449 108.04 193.732 108.486 192.111L115.481 167.229L118.247 166.466L112.142 190.33C111.792 191.825 112.079 193.383 112.937 194.623C113.827 195.863 115.195 196.658 116.689 196.817L126.482 197.802C126.832 197.834 127.213 197.866 127.563 197.866C128.962 197.866 130.393 197.58 131.697 197.039L154.049 187.723L154.176 190.171C154.176 190.521 153.954 190.871 153.604 191.03Z" fill="#2A5339"/>
</svg>
