<svg width="24" height="24" viewBox="0 0 24 24" fill="none" xmlns="http://www.w3.org/2000/svg">
<g clip-path="url(#clip0_816_3841)">
<path d="M12.7031 0H13.575C15.3609 0.0328125 17.1422 0.520313 18.6844 1.425C20.8922 2.7 22.6219 4.79531 23.4375 7.21406C23.7797 8.20312 23.9531 9.23906 24 10.2844V11.2969C20.2359 11.2969 16.4672 11.2969 12.7031 11.2969C12.7031 7.53281 12.7031 3.76406 12.7031 0Z" fill="#2A5339"/>
<path d="M8.33887 3.10781C9.30918 2.88281 10.3076 2.84062 11.2967 2.85937C11.2967 5.80781 11.2967 8.76093 11.2967 11.7094C9.01387 9.42187 6.72637 7.14374 4.44824 4.85156C5.61074 4.02187 6.9373 3.4125 8.33887 3.10781Z" fill="#2A5339"/>
<path d="M3.34688 5.75623C4.30312 6.68435 5.23594 7.6406 6.17813 8.5781C7.55156 9.95154 8.925 11.325 10.2984 12.6984C7.75312 15.2437 5.20781 17.789 2.6625 20.3344C2.20312 19.8 1.78594 19.2328 1.42969 18.6234C0.539062 17.1047 0.0328125 15.3515 0 13.5797V13.0969C0.0515625 11.6625 0.398438 10.2375 1.02656 8.94373C1.59375 7.74841 2.39531 6.67498 3.34688 5.75623Z" fill="#2A5339"/>
<path d="M12.2908 12.7031C15.2393 12.7031 18.1877 12.7031 21.1408 12.7031C21.1502 13.5187 21.1361 14.3391 20.9955 15.1453C20.6814 17.0438 19.833 18.8531 18.5768 20.3109C17.3393 21.7547 15.7127 22.8656 13.9033 23.4609C12.9518 23.7891 11.9486 23.9484 10.9455 24H10.4252C7.94551 23.9625 5.51738 22.9688 3.66113 21.3328C6.53926 18.4594 9.41738 15.5813 12.2908 12.7031Z" fill="#2A5339"/>
</g>
<defs>
<clipPath id="clip0_816_3841">
<rect width="24" height="24" fill="white"/>
</clipPath>
</defs>
</svg>
