<svg width="123" height="126" viewBox="0 0 123 126" fill="none" xmlns="http://www.w3.org/2000/svg">
<circle cx="60" cy="63" r="38.5" stroke="#F6F6F9" stroke-width="3"/>
<path d="M45.7653 99.3094C51.3788 101.51 57.4261 102.379 63.4322 101.849C69.4382 101.318 75.2395 99.4021 80.3802 96.2513C85.5209 93.1005 89.861 88.8007 93.0596 83.6896C96.2583 78.5786 98.2283 72.7955 98.815 66.7946C99.4016 60.7938 98.5889 54.7386 96.4407 49.1049C94.2925 43.4711 90.8673 38.4121 86.4342 34.3254C82.001 30.2386 76.6807 27.2354 70.8911 25.5516C65.1016 23.8678 59.0004 23.5493 53.067 24.6212" stroke="#2558E7" stroke-width="10"/>
<circle cx="60" cy="63" r="58.5" stroke="#F6F6F9" stroke-width="3"/>
<path d="M45.1287 6.93893C54.348 4.49332 64.0281 4.35914 73.3117 6.54826C82.5952 8.73738 91.1956 13.1822 98.351 19.4891C105.506 25.796 110.996 33.7702 114.333 42.7054C117.671 51.6406 118.753 61.2609 117.485 70.7143C116.216 80.1678 112.636 89.1624 107.06 96.9015C101.485 104.641 94.0876 110.885 85.5225 115.083C76.9575 119.28 67.4895 121.3 57.9573 120.964C48.425 120.628 39.1228 117.946 30.8744 113.157" stroke="#42DD7D" stroke-width="10"/>
<path d="M40.3821 64.6364V48.2727H41.4304V64.6364H40.3821ZM43.4055 53.5078C43.3459 52.9496 43.0945 52.5149 42.6513 52.2038C42.2124 51.8928 41.6413 51.7372 40.9382 51.7372C40.4439 51.7372 40.0199 51.8118 39.6662 51.9609C39.3125 52.1101 39.0419 52.3125 38.8544 52.5682C38.6669 52.8239 38.571 53.1158 38.5668 53.4439C38.5668 53.7166 38.6286 53.9531 38.7521 54.1534C38.88 54.3537 39.0526 54.5241 39.2699 54.6648C39.4872 54.8011 39.728 54.9162 39.9922 55.0099C40.2564 55.1037 40.5227 55.1825 40.7912 55.2464L42.0185 55.5533C42.5128 55.6683 42.9879 55.8239 43.4439 56.0199C43.9041 56.2159 44.3153 56.4631 44.6776 56.7614C45.044 57.0597 45.3338 57.4197 45.5469 57.8416C45.7599 58.2635 45.8665 58.7578 45.8665 59.3246C45.8665 60.0916 45.6705 60.767 45.2784 61.3509C44.8864 61.9304 44.3196 62.3842 43.5781 62.7124C42.8409 63.0362 41.9482 63.1982 40.8999 63.1982C39.8814 63.1982 38.9972 63.0405 38.2472 62.7251C37.5014 62.4098 36.9176 61.9496 36.4957 61.3445C36.0781 60.7393 35.8523 60.0021 35.8182 59.1328H38.1513C38.1854 59.5888 38.326 59.968 38.5732 60.2706C38.8203 60.5732 39.142 60.799 39.5384 60.9482C39.9389 61.0973 40.3864 61.1719 40.8807 61.1719C41.3963 61.1719 41.848 61.0952 42.2358 60.9418C42.6278 60.7841 42.9347 60.5668 43.1562 60.2898C43.3778 60.0085 43.4908 59.6804 43.495 59.3054C43.4908 58.9645 43.3906 58.6832 43.1946 58.4616C42.9986 58.2358 42.7237 58.0483 42.37 57.8991C42.0206 57.7457 41.6115 57.6094 41.1428 57.4901L39.6534 57.1065C38.5753 56.8295 37.723 56.4098 37.0966 55.8473C36.4744 55.2805 36.1634 54.5284 36.1634 53.5909C36.1634 52.8196 36.3722 52.1442 36.7898 51.5646C37.2116 50.9851 37.7848 50.5355 38.5092 50.2159C39.2337 49.892 40.054 49.7301 40.9702 49.7301C41.8991 49.7301 42.7131 49.892 43.4119 50.2159C44.1151 50.5355 44.6669 50.9808 45.0675 51.5518C45.468 52.1186 45.6747 52.7706 45.6875 53.5078H43.4055ZM52.5062 63.179C51.5559 63.179 50.7122 63.0192 49.975 62.6996C49.242 62.38 48.6667 61.9432 48.2491 61.3892C47.8358 60.831 47.6312 60.1982 47.6355 59.4908C47.6312 58.9411 47.7505 58.4361 47.9934 57.9759C48.2363 57.5156 48.5645 57.1321 48.9778 56.8253C49.3954 56.5142 49.8599 56.3161 50.3713 56.2308V56.1413C49.698 55.9922 49.1525 55.6491 48.7349 55.1122C48.3216 54.571 48.117 53.9467 48.1213 53.2393C48.117 52.5661 48.3045 51.9652 48.6838 51.4368C49.063 50.9084 49.5829 50.4929 50.2434 50.1903C50.9039 49.8835 51.6582 49.7301 52.5062 49.7301C53.3457 49.7301 54.0936 49.8835 54.7498 50.1903C55.4103 50.4929 55.9302 50.9084 56.3095 51.4368C56.693 51.9652 56.8848 52.5661 56.8848 53.2393C56.8848 53.9467 56.6738 54.571 56.252 55.1122C55.8343 55.6491 55.2953 55.9922 54.6348 56.1413V56.2308C55.1461 56.3161 55.6064 56.5142 56.0154 56.8253C56.4288 57.1321 56.7569 57.5156 56.9998 57.9759C57.247 58.4361 57.3706 58.9411 57.3706 59.4908C57.3706 60.1982 57.1618 60.831 56.7441 61.3892C56.3265 61.9432 55.7512 62.38 55.0183 62.6996C54.2896 63.0192 53.4522 63.179 52.5062 63.179ZM52.5062 61.3509C52.9963 61.3509 53.4224 61.2678 53.7846 61.1016C54.1468 60.9311 54.4281 60.6925 54.6284 60.3857C54.8287 60.0788 54.9309 59.7251 54.9352 59.3246C54.9309 58.907 54.8223 58.5384 54.6092 58.2188C54.4004 57.8949 54.1127 57.6413 53.7463 57.4581C53.3841 57.2749 52.9707 57.1832 52.5062 57.1832C52.0375 57.1832 51.6199 57.2749 51.2534 57.4581C50.8869 57.6413 50.5971 57.8949 50.3841 58.2188C50.1752 58.5384 50.073 58.907 50.0772 59.3246C50.073 59.7251 50.171 60.0788 50.3713 60.3857C50.5716 60.6882 50.8528 60.9247 51.215 61.0952C51.5815 61.2656 52.0119 61.3509 52.5062 61.3509ZM52.5062 55.3871C52.9068 55.3871 53.2605 55.3061 53.5673 55.1442C53.8784 54.9822 54.1234 54.7564 54.3024 54.4666C54.4814 54.1768 54.573 53.8423 54.5772 53.4631C54.573 53.0881 54.4835 52.7599 54.3088 52.4787C54.1341 52.1932 53.8912 51.9737 53.5801 51.8203C53.269 51.6626 52.911 51.5838 52.5062 51.5838C52.0929 51.5838 51.7285 51.6626 51.4132 51.8203C51.1021 51.9737 50.8592 52.1932 50.6845 52.4787C50.514 52.7599 50.4309 53.0881 50.4352 53.4631C50.4309 53.8423 50.5162 54.1768 50.6909 54.4666C50.8699 54.7521 51.1149 54.978 51.426 55.1442C51.7413 55.3061 52.1014 55.3871 52.5062 55.3871ZM64.3107 63.2493C63.2582 63.2493 62.3548 62.983 61.6005 62.4503C60.8505 61.9134 60.2731 61.1399 59.8683 60.13C59.4677 59.1158 59.2674 57.8949 59.2674 56.4673C59.2717 55.0398 59.4741 53.8253 59.8746 52.8239C60.2795 51.8182 60.8569 51.0511 61.6069 50.5227C62.3612 49.9943 63.2624 49.7301 64.3107 49.7301C65.359 49.7301 66.2603 49.9943 67.0146 50.5227C67.7688 51.0511 68.3462 51.8182 68.7468 52.8239C69.1516 53.8295 69.354 55.044 69.354 56.4673C69.354 57.8991 69.1516 59.1222 68.7468 60.1364C68.3462 61.1463 67.7688 61.9176 67.0146 62.4503C66.2646 62.983 65.3633 63.2493 64.3107 63.2493ZM64.3107 61.2486C65.1289 61.2486 65.7745 60.8459 66.2475 60.0405C66.7248 59.2308 66.9634 58.0398 66.9634 56.4673C66.9634 55.4276 66.8548 54.554 66.6374 53.8466C66.4201 53.1392 66.1133 52.6065 65.717 52.2486C65.3207 51.8864 64.8519 51.7053 64.3107 51.7053C63.4968 51.7053 62.8533 52.1101 62.3803 52.9197C61.9073 53.7251 61.6687 54.9077 61.6644 56.4673C61.6602 57.5114 61.7646 58.3892 61.9776 59.1009C62.195 59.8125 62.5018 60.3494 62.8981 60.7116C63.2944 61.0696 63.7653 61.2486 64.3107 61.2486ZM76.3166 63.2493C75.264 63.2493 74.3606 62.983 73.6064 62.4503C72.8564 61.9134 72.2789 61.1399 71.8741 60.13C71.4735 59.1158 71.2733 57.8949 71.2733 56.4673C71.2775 55.0398 71.4799 53.8253 71.8805 52.8239C72.2853 51.8182 72.8627 51.0511 73.6127 50.5227C74.367 49.9943 75.2683 49.7301 76.3166 49.7301C77.3649 49.7301 78.2662 49.9943 79.0204 50.5227C79.7747 51.0511 80.3521 51.8182 80.7527 52.8239C81.1575 53.8295 81.3599 55.044 81.3599 56.4673C81.3599 57.8991 81.1575 59.1222 80.7527 60.1364C80.3521 61.1463 79.7747 61.9176 79.0204 62.4503C78.2704 62.983 77.3691 63.2493 76.3166 63.2493ZM76.3166 61.2486C77.1348 61.2486 77.7804 60.8459 78.2534 60.0405C78.7306 59.2308 78.9693 58.0398 78.9693 56.4673C78.9693 55.4276 78.8606 54.554 78.6433 53.8466C78.426 53.1392 78.1191 52.6065 77.7228 52.2486C77.3265 51.8864 76.8578 51.7053 76.3166 51.7053C75.5027 51.7053 74.8592 52.1101 74.3862 52.9197C73.9132 53.7251 73.6745 54.9077 73.6703 56.4673C73.666 57.5114 73.7704 58.3892 73.9835 59.1009C74.2008 59.8125 74.5076 60.3494 74.9039 60.7116C75.3002 61.0696 75.7711 61.2486 76.3166 61.2486Z" fill="#5E81F4"/>
<path d="M37.5284 71.4062V70.2727H44.2827V71.4062H41.5597V79H40.2472V71.4062H37.5284ZM47.4808 79.1321C46.8672 79.1321 46.3317 78.9915 45.8743 78.7102C45.4169 78.429 45.0618 78.0355 44.8089 77.5298C44.5561 77.0241 44.4297 76.4332 44.4297 75.7571C44.4297 75.0781 44.5561 74.4844 44.8089 73.9759C45.0618 73.4673 45.4169 73.0724 45.8743 72.7912C46.3317 72.5099 46.8672 72.3693 47.4808 72.3693C48.0945 72.3693 48.63 72.5099 49.0874 72.7912C49.5447 73.0724 49.8999 73.4673 50.1527 73.9759C50.4055 74.4844 50.532 75.0781 50.532 75.7571C50.532 76.4332 50.4055 77.0241 50.1527 77.5298C49.8999 78.0355 49.5447 78.429 49.0874 78.7102C48.63 78.9915 48.0945 79.1321 47.4808 79.1321ZM47.4851 78.0625C47.8828 78.0625 48.2124 77.9574 48.4737 77.7472C48.7351 77.5369 48.9283 77.2571 49.0533 76.9077C49.1811 76.5582 49.245 76.1733 49.245 75.7528C49.245 75.3352 49.1811 74.9517 49.0533 74.6023C48.9283 74.25 48.7351 73.9673 48.4737 73.7543C48.2124 73.5412 47.8828 73.4347 47.4851 73.4347C47.0845 73.4347 46.7521 73.5412 46.4879 73.7543C46.2266 73.9673 46.032 74.25 45.9041 74.6023C45.7791 74.9517 45.7166 75.3352 45.7166 75.7528C45.7166 76.1733 45.7791 76.5582 45.9041 76.9077C46.032 77.2571 46.2266 77.5369 46.4879 77.7472C46.7521 77.9574 47.0845 78.0625 47.4851 78.0625ZM61.1385 73.0298C61.0561 72.7713 60.9453 72.5398 60.8061 72.3352C60.6697 72.1278 60.5064 71.9517 60.3161 71.8068C60.1257 71.6591 59.9084 71.5469 59.6641 71.4702C59.4226 71.3935 59.157 71.3551 58.8672 71.3551C58.3757 71.3551 57.9325 71.4815 57.5376 71.7344C57.1428 71.9872 56.8303 72.358 56.6001 72.8466C56.3729 73.3324 56.2592 73.9276 56.2592 74.6321C56.2592 75.3395 56.3743 75.9375 56.6044 76.4261C56.8345 76.9148 57.1499 77.2855 57.5504 77.5384C57.951 77.7912 58.407 77.9176 58.9183 77.9176C59.3928 77.9176 59.8061 77.821 60.1584 77.6278C60.5135 77.4347 60.7876 77.1619 60.9808 76.8097C61.1768 76.4545 61.2749 76.0369 61.2749 75.5568L61.6158 75.6207H59.1186V74.5341H62.549V75.527C62.549 76.2599 62.3928 76.8963 62.0803 77.4361C61.7706 77.973 61.3416 78.3878 60.7933 78.6804C60.2479 78.973 59.6229 79.1193 58.9183 79.1193C58.1286 79.1193 57.4354 78.9375 56.8388 78.5739C56.245 78.2102 55.782 77.6946 55.4496 77.027C55.1172 76.3565 54.951 75.5611 54.951 74.6406C54.951 73.9446 55.0476 73.3196 55.2408 72.7656C55.4339 72.2116 55.7053 71.7415 56.0547 71.3551C56.407 70.9659 56.8203 70.669 57.2947 70.4645C57.772 70.2571 58.2933 70.1534 58.8587 70.1534C59.3303 70.1534 59.7692 70.223 60.1754 70.3622C60.5845 70.5014 60.9482 70.6989 61.2663 70.9545C61.5874 71.2102 61.853 71.5142 62.0632 71.8665C62.2734 72.2159 62.4155 72.6037 62.4893 73.0298H61.1385ZM66.8754 79.1321C66.2617 79.1321 65.7262 78.9915 65.2688 78.7102C64.8114 78.429 64.4563 78.0355 64.2035 77.5298C63.9506 77.0241 63.8242 76.4332 63.8242 75.7571C63.8242 75.0781 63.9506 74.4844 64.2035 73.9759C64.4563 73.4673 64.8114 73.0724 65.2688 72.7912C65.7262 72.5099 66.2617 72.3693 66.8754 72.3693C67.489 72.3693 68.0245 72.5099 68.4819 72.7912C68.9393 73.0724 69.2944 73.4673 69.5472 73.9759C69.8001 74.4844 69.9265 75.0781 69.9265 75.7571C69.9265 76.4332 69.8001 77.0241 69.5472 77.5298C69.2944 78.0355 68.9393 78.429 68.4819 78.7102C68.0245 78.9915 67.489 79.1321 66.8754 79.1321ZM66.8796 78.0625C67.2773 78.0625 67.6069 77.9574 67.8683 77.7472C68.1296 77.5369 68.3228 77.2571 68.4478 76.9077C68.5756 76.5582 68.6396 76.1733 68.6396 75.7528C68.6396 75.3352 68.5756 74.9517 68.4478 74.6023C68.3228 74.25 68.1296 73.9673 67.8683 73.7543C67.6069 73.5412 67.2773 73.4347 66.8796 73.4347C66.479 73.4347 66.1467 73.5412 65.8825 73.7543C65.6211 73.9673 65.4265 74.25 65.2987 74.6023C65.1737 74.9517 65.1112 75.3352 65.1112 75.7528C65.1112 76.1733 65.1737 76.5582 65.2987 76.9077C65.4265 77.2571 65.6211 77.5369 65.8825 77.7472C66.1467 77.9574 66.479 78.0625 66.8796 78.0625ZM73.2536 79.1449C72.8388 79.1449 72.4638 79.0682 72.1286 78.9148C71.7933 78.7585 71.5277 78.5327 71.3317 78.2372C71.1385 77.9418 71.0419 77.5795 71.0419 77.1506C71.0419 76.7812 71.1129 76.4773 71.255 76.2386C71.397 76 71.5888 75.8111 71.8303 75.6719C72.0717 75.5327 72.3416 75.4276 72.6399 75.3565C72.9382 75.2855 73.2422 75.2315 73.5518 75.1946C73.9439 75.1491 74.2621 75.1122 74.5064 75.0838C74.7507 75.0526 74.9283 75.0028 75.0391 74.9347C75.1499 74.8665 75.2053 74.7557 75.2053 74.6023V74.5724C75.2053 74.2003 75.1001 73.9119 74.8899 73.7074C74.6825 73.5028 74.3729 73.4006 73.9609 73.4006C73.532 73.4006 73.1939 73.4957 72.9467 73.6861C72.7024 73.8736 72.5334 74.0824 72.4396 74.3125L71.2422 74.0398C71.3842 73.642 71.5916 73.321 71.8643 73.0767C72.1399 72.8295 72.4567 72.6506 72.8146 72.5398C73.1726 72.4261 73.549 72.3693 73.9439 72.3693C74.2053 72.3693 74.4822 72.4006 74.7749 72.4631C75.0703 72.5227 75.3459 72.6335 75.6016 72.7955C75.8601 72.9574 76.0717 73.1889 76.2365 73.4901C76.4013 73.7884 76.4837 74.1761 76.4837 74.6534V79H75.2393V78.1051H75.1882C75.1058 78.2699 74.9822 78.4318 74.8175 78.5909C74.6527 78.75 74.4411 78.8821 74.1825 78.9872C73.924 79.0923 73.6143 79.1449 73.2536 79.1449ZM73.5305 78.1222C73.8828 78.1222 74.1839 78.0526 74.4339 77.9134C74.6868 77.7741 74.8786 77.5923 75.0092 77.3679C75.1428 77.1406 75.2095 76.8977 75.2095 76.6392V75.7955C75.1641 75.8409 75.076 75.8835 74.9453 75.9233C74.8175 75.9602 74.6712 75.9929 74.5064 76.0213C74.3416 76.0469 74.1811 76.071 74.0249 76.0938C73.8686 76.1136 73.7379 76.1307 73.6328 76.1449C73.3857 76.1761 73.1598 76.2287 72.9553 76.3026C72.7536 76.3764 72.5916 76.483 72.4695 76.6222C72.3501 76.7585 72.2905 76.9403 72.2905 77.1676C72.2905 77.483 72.407 77.7216 72.6399 77.8835C72.8729 78.0426 73.1697 78.1222 73.5305 78.1222ZM79.4549 70.2727V79H78.1808V70.2727H79.4549Z" fill="#5E81F4"/>
</svg>
