<svg width="348" height="273" viewBox="0 0 348 273" fill="none" xmlns="http://www.w3.org/2000/svg">
<rect width="348" height="273" rx="4" fill="white"/>
<g clip-path="url(#clip0_2378_844)">
<path d="M272.009 32.983C273.666 32.0438 275.668 31.7522 277.312 30.7769C275.532 31.4762 273.468 31.7082 272.009 32.983Z" fill="#E7D6FF"/>
<path d="M282.26 29.1791C281.185 29.2293 280.199 29.6526 278.781 30.3473C280.928 30.0055 280.928 30.0055 282.26 29.1791Z" fill="#E7D6FF"/>
<path d="M308.075 28.253C306.94 28.3643 305.842 28.4631 304.208 29.2329C305.697 29.4431 306.873 28.7516 308.075 28.253Z" fill="#E7D6FF"/>
<path d="M305.041 31.1663C306.5 30.8214 307.631 30.4686 308.663 29.8273C307.581 30.3244 306.163 29.9684 305.041 31.1663Z" fill="#E7D6FF"/>
<path d="M103.787 88.8028C103.988 88.45 104.142 88.1944 104.211 87.9279C104.211 87.9279 103.692 87.9467 103.475 88.0219C102.874 88.2712 102.661 88.588 102.929 88.7777C103.026 88.8248 103.376 88.784 103.787 88.8028Z" fill="#E7D6FF"/>
<path d="M261.283 33.4358C262.101 33.1112 262.918 32.7867 263.675 32.4025C263.915 32.2787 264.104 31.8898 263.994 31.8067C263.726 31.6169 263.076 31.8427 262.583 32.0544C262.258 32.1673 261.368 32.5169 261.731 32.5122C263.846 32.5452 260.628 33.2994 261.283 33.4358C260.693 33.6004 260.038 33.464 259.61 33.9767C259.55 34.0379 259.914 34.1539 260.143 34.1147C260.904 34.0928 261.397 33.8811 261.283 33.4358Z" fill="#E7D6FF"/>
<path d="M265.889 32.6033C266.865 32.3854 267.44 31.9432 267.943 31.5261C267.064 31.7911 266.16 31.9839 265.889 32.6033Z" fill="#E7D6FF"/>
<path d="M240.294 36.7265C241.724 36.068 243.609 36.0194 245.032 34.7572C243.19 35.3969 241.674 35.9237 240.194 36.438C239.593 36.6873 238.436 36.9679 238.56 37.2079C238.745 37.5074 239.683 37.1812 240.294 36.7265Z" fill="#E7D6FF"/>
<path d="M128.562 79.8718C127.602 80.488 126.173 80.2167 125.446 81.0352C125.362 81.1449 125.449 81.2766 125.57 81.2751C126.935 81.2453 127.626 80.4394 128.562 79.8718Z" fill="#E7D6FF"/>
<path d="M178.227 56.7555C177.301 57.1176 178.038 57.1443 178.173 57.2996C179.153 57.3231 180.032 57.0581 180.821 56.42C180.439 55.7849 179.166 56.4293 178.227 56.7555Z" fill="#E7D6FF"/>
<path d="M155.565 65.4779C154.6 65.6111 153.501 65.7099 152.738 66.5409C153.948 66.646 154.676 65.9482 155.565 65.4779Z" fill="#E7D6FF"/>
<path d="M174.706 57.453C174.73 57.4044 174.499 57.3229 174.342 57.337C173.581 57.3589 173.164 57.787 172.611 58.0598C171.428 58.1476 170.417 58.4988 169.242 59.311C170.594 59.1245 171.652 58.676 172.686 58.2762C173.408 58.0253 174.242 57.9783 174.706 57.453Z" fill="#E7D6FF"/>
<path d="M137.19 71.9832C135.949 72.2529 134.999 72.6637 134.368 73.4085C136.048 73.4712 136.62 72.7876 137.19 71.9832Z" fill="#E7D6FF"/>
<path d="M131.642 75.8107C131.315 75.8028 131.048 75.7338 130.698 75.7746C130.276 75.8404 129.904 76.0505 129.786 76.2936C129.838 76.5586 130.32 76.4316 130.681 76.3062C131.006 76.1933 131.342 75.9957 131.642 75.8107Z" fill="#E7D6FF"/>
<path d="M159.844 68.4775C158.554 68.7237 157.579 69.0624 156.656 69.666C157.766 69.4826 158.889 69.456 159.844 68.4775Z" fill="#E7D6FF"/>
<path d="M108.388 80.6161C109.604 80.2743 110.288 79.9153 110.8 79.2928C109.765 79.5718 108.837 79.8133 108.388 80.6161Z" fill="#E7D6FF"/>
<path d="M133.44 75.6304C132.275 76.2372 131.531 76.6574 130.475 77.2266C132.365 76.6104 132.365 76.6104 133.44 75.6304Z" fill="#E7D6FF"/>
<path d="M167.555 59.6952C166.975 59.6544 166.397 59.8551 165.629 60.3239C166.427 60.2894 166.935 60.3553 167.558 59.9367C167.63 59.9116 167.64 59.7062 167.555 59.6952Z" fill="#E7D6FF"/>
<path d="M144.04 69.8054C144.703 69.6156 145.533 69.3271 145.505 69.0135C145.427 68.5557 144.527 69.1107 144.022 69.2863C143.552 69.4494 143.133 69.7567 142.653 70.0045C142.208 70.2397 141.282 70.6019 141.803 70.7038C142.591 70.8747 143.185 70.0217 144.04 69.8054Z" fill="#E7D6FF"/>
<path d="M157.116 66.798C157.793 66.7651 158.647 66.428 159.245 65.9372C158.967 65.9529 158.702 66.0046 158.46 66.0078C158.385 65.7914 159.295 65.1516 158.355 65.357C158.09 65.4088 156.739 65.5953 156.6 66.1285C156.566 66.2618 157.255 66.2649 157.594 66.3088C157.258 66.5064 156.609 66.8529 157.116 66.798Z" fill="#E7D6FF"/>
<path d="M170.386 59.9241C170.168 59.8786 169.853 59.7861 169.744 59.8237C169.372 60.0338 169.085 60.2549 168.798 60.476C169.075 60.4603 169.341 60.4086 169.654 60.3804C169.918 60.2079 170.146 60.048 170.386 59.9241Z" fill="#E7D6FF"/>
<path d="M299.647 36.7186C299.719 36.6936 299.755 36.6811 299.827 36.656C299.791 36.6686 299.707 36.6576 299.671 36.6701C299.671 36.6701 299.635 36.6826 299.647 36.7186C299.635 36.6826 299.647 36.7186 299.647 36.7186Z" fill="#E7D6FF"/>
<path d="M168.18 108.425C165.58 108.278 164.316 109.647 161.823 110.391C164.493 110.272 166.028 109.335 168.18 108.425Z" fill="#E7D6FF"/>
<path d="M315.966 34.08C317.472 33.6379 318.71 33.1267 319.425 32.2721C319.618 32.2455 319.811 32.2188 319.991 32.1561C320.911 32.2408 321.878 32.2283 322.665 32.3992C323.15 32.5137 323.378 32.3538 323.665 32.1327C323.857 31.9853 323.986 31.6576 323.986 31.6576C322.995 31.7187 323.115 30.6665 321.302 31.6199C321.29 31.5838 321.181 31.6214 321.169 31.5854L300.482 38.7728C300.397 38.7618 300.276 38.7634 300.156 38.765C299.649 38.8198 299.143 38.9954 299.218 39.2118L296.15 40.278C296.734 39.6304 294.714 40.4536 294.626 40.2011C294.452 39.817 294.746 39.149 293.026 39.7871C292.82 39.7777 292.566 39.7448 292.36 39.7354C291.342 39.4829 293.678 38.7523 292.935 38.3634C292.02 38.6409 291.01 38.9921 289.986 39.3073C290.392 37.9133 293.189 37.3457 294.784 36.3469C296.23 35.9659 296.414 35.2148 297.99 34.6268C295.661 34.9106 293.888 36.2136 292.195 36.1148C292.314 35.9925 292.397 35.8827 292.517 35.7604C292.901 35.5864 293.286 35.4123 293.707 35.2257C294.898 34.8118 296.199 34.481 297.206 33.7675C298.782 33.1796 300.601 32.7092 301.933 32.0036C303.434 31.1992 301.772 31.6555 301.337 31.6853C302.641 30.5453 304.912 30.4435 306.566 29.3835C303.24 30.1753 300.333 31.5896 296.677 33.0619C297.803 32.2262 298.828 32.0317 299.027 31.5582C299.075 31.461 299.098 31.4124 299.073 31.3403C300.084 30.989 301.131 30.6253 302.129 30.238C302.274 30.1878 302.355 29.9573 302.475 29.835C302.173 29.8993 301.836 29.9761 301.535 30.0404C300.58 30.089 299.662 30.125 298.708 30.1736C299.03 29.8192 300.162 29.4665 299.916 29.1074C299.842 29.0117 299.216 29.1889 298.83 29.2422C297.734 29.5824 296.687 29.9462 295.591 30.2864C295.05 30.4746 294.496 30.6267 293.99 30.8023C293.424 30.9183 292.845 30.9983 292.278 31.1143C290.77 31.315 290.535 29.9414 288.027 31.3384C286.881 31.5344 285.698 31.6222 284.777 32.4673C282.326 32.6319 279.563 33.9961 277.112 34.1606C276.796 34.0681 276.517 33.9631 276.202 33.8705C275.172 33.7027 274.345 34.2327 273.482 34.7752C270.611 35.2472 267.991 36.4404 265.358 37.5975C263.982 37.712 262.576 38.3219 261.191 38.7625C261.092 38.5947 260.958 38.4394 260.871 38.3077C262.223 38.1212 263.337 37.3701 264.613 36.9671C265.227 36.7539 266.216 36.572 266.248 36.1973C266.326 35.7253 265.317 36.1973 264.75 36.3133C264.063 36.4309 263.916 36.2396 263.732 36.0608C263.707 35.9887 263.658 35.9651 263.633 35.893C264.762 35.2988 265.077 36.3211 266.311 35.4478C266.877 35.3317 267.507 35.396 267.984 34.9068C268.319 34.5885 268.207 34.3847 267.616 34.4286C267.865 34.0993 268.31 33.8641 268.889 33.7841C269.347 33.7057 269.295 34.3706 270.18 33.6587C270.312 33.5725 270.383 33.4266 270.358 33.3545C270.16 33.019 269.498 33.2087 268.848 33.4344C267.91 33.7606 266.935 34.0993 266.009 34.4614C262.387 35.8005 258.605 36.7914 255.132 38.4425L255.096 38.455C254.795 38.5193 254.506 38.6196 254.278 38.7796C251.58 39.5149 248.906 40.2016 246.207 40.937C246.195 40.9009 246.17 40.8288 246.157 40.7927C246.975 40.4682 247.49 40.0871 247.28 39.7155C249.065 39.3784 250.764 39.0304 251.136 37.7697C251.533 37.6317 251.881 37.4702 252.278 37.3322C253.569 37.0861 254.614 36.6016 255.463 35.9022C256.236 35.7956 256.907 36.3303 257.826 35.3644C258.459 34.7404 257.781 34.6525 256.971 34.651C256.524 34.6447 256.076 34.6384 255.629 34.6321C254.149 35.1464 252.633 35.6732 251.152 36.1875C250.936 36.2628 250.719 36.338 250.466 36.4258C249.193 37.0703 247.789 36.8711 246.53 37.6723C245.599 37.6723 244.621 37.7695 244.794 37.1031C245.444 36.8773 246.094 36.6515 246.744 36.4258C248.648 35.9664 250.403 35.1949 252.181 34.3749C249.231 35.198 246.267 35.9851 243.316 36.8083C241.618 37.2771 239.036 37.6486 238.1 39.1461L238.136 39.1336C237.485 39.2386 236.868 39.2104 236.135 39.5459C235.918 39.6212 235.666 39.709 235.436 39.7482C235.339 39.7011 235.278 39.6415 235.24 39.5333C235.064 38.9077 235.223 38.0845 232.854 39.0691C232.609 38.8308 232.044 39.0676 231.526 39.2071C230.294 39.2714 229.15 39.5881 228.205 40.3611C228.024 40.4238 227.844 40.4865 227.663 40.5493C226.273 40.5069 224.88 41.2736 223.508 41.7503C222.858 41.9761 222.209 42.2018 221.595 42.4151C219.424 42.8055 217.205 43.1723 215.592 44.7027C215.641 44.7262 215.798 44.7121 215.883 44.7231C215.847 44.7356 215.81 44.7482 215.774 44.7607L215.628 44.6902C215.135 44.9018 214.702 45.0524 214.374 44.9238C214.434 44.8626 214.494 44.8015 214.517 44.7529C214.505 44.7168 214.444 44.6572 214.371 44.6823C212.998 45.0382 211.625 45.3941 210.287 45.7375C209.818 45.9006 209.385 46.0511 208.915 46.2141C207.712 46.592 206.69 47.0279 206.457 47.7555C205.794 47.9452 205.109 48.1835 204.446 48.3732C203.718 48.1412 202.327 49.0286 201.623 48.7479C201.041 48.5864 200.308 48.922 199.585 49.1728C199.152 49.3234 198.683 49.4864 198.25 49.6369C195.743 50.2249 194.46 52.0046 191.856 52.5455C191.302 52.6976 190.845 52.8967 190.595 53.226C189.922 53.5004 189.151 53.7277 188.77 54.1433C188.553 54.2185 188.349 54.3299 188.132 54.4051C187.985 54.2138 188.101 53.85 187.378 53.9802C187.232 53.9096 187.135 53.8625 186.989 53.792C187.673 53.4329 188.345 53.0378 189.738 52.271C188.041 52.8606 187.174 53.1616 186.308 53.4627C184.129 54.1792 185.906 54.1683 185.861 54.507C185.2 54.8174 184.271 54.9382 184.048 55.4603C183.869 55.6438 183.69 55.8272 183.511 56.0107C183.078 56.1612 182.609 56.3243 182.163 56.4387L182.161 56.318C181.703 56.3964 181.245 56.4748 180.823 56.5406C179.92 56.8542 179.041 57.1192 178.175 57.4202C178.212 57.5284 178.214 57.6492 178.251 57.7574C178.251 57.7574 178.289 57.8656 178.278 57.9502C177.774 58.2466 177.825 58.5116 177.864 58.7405C176.095 59.3551 174.192 59.8145 172.62 60.7647C170.158 62.9944 174.91 60.252 174.341 61.1772C174.379 61.2854 174.416 61.3936 174.454 61.5018C173.564 61.8514 172.503 62.0584 171.87 62.6824C170.571 63.134 169.235 63.5981 167.899 64.0622C167.973 64.1579 168.01 64.2661 168.084 64.3617C168.662 64.161 169.239 63.9603 169.817 63.7596C170.132 63.8521 170.867 63.6373 170.823 63.976C169.884 64.3022 168.823 64.5091 168.287 65.1802C167.796 65.5126 167.242 65.6647 166.592 65.8905C164.859 66.4926 162.812 67.1229 162.779 68.3068C162.082 68.6298 161.385 68.9528 160.688 69.2758C159.758 69.3965 158.903 69.6129 158.258 70.2009C156.922 70.665 155.464 71.0099 154.3 71.7375C153.23 72.1498 152.172 72.5983 151.137 72.9981C150.15 73.3007 149.114 73.5798 148.397 74.1929C146.989 74.6821 146.591 75.7499 144.842 76.0744C144.781 76.0148 144.708 75.9192 144.574 75.8847C144.441 74.9203 142.752 76.1136 141.942 76.112C141.701 76.1151 141.41 76.0947 141.169 76.0979C139.809 76.6106 138.386 76.8222 137.089 77.5153C135.791 78.0876 134.505 78.696 133.243 79.2557C133.525 79.6023 134.627 78.8151 134.826 79.2714C133.96 79.5725 133.094 79.8735 132.227 80.1746C129.667 80.3768 127.22 80.9036 125.236 82.6441C124.267 83.4657 123.865 83.2415 123.498 82.8839C123.409 82.5107 122.913 82.4809 122.083 82.7694C121.058 82.9639 121.481 81.9682 120.062 82.542C118.691 83.1394 121.767 82.6769 119.964 83.4248C119.747 83.5001 119.592 83.6349 119.388 83.7463C117.502 84.7247 115.811 85.7972 113.314 86.1797C112.385 86.3004 110.615 86.7943 109.756 87.6991C108.77 88.1224 107.354 88.9378 106.822 88.9205C103.969 88.8609 102.188 90.49 100.013 91.448C99.5181 91.539 98.8572 91.8494 98.5278 91.6001C100.113 90.8067 100.974 90.0227 100.675 89.2779C100.84 88.9376 100.956 88.5738 101.121 88.2336C102.311 87.6989 103.076 86.9886 102.36 86.7926C101.645 86.5966 101.57 87.4307 100.897 87.7051C99.2643 88.5957 97.5704 89.4268 95.5944 89.9112C95.0528 90.0994 94.4626 90.264 93.9211 90.4522C91.0374 91.8179 88.9124 91.9903 87.4379 91.0071C88.5475 90.8237 89.6557 90.5195 90.2273 89.8359C90.3467 89.7136 89.9782 89.2353 88.9659 89.4658C87.4716 89.8232 86.6067 90.245 86.8573 90.9663C85.4743 91.5277 84.3 92.3399 82.7821 92.746C82.7666 92.4684 82.7511 92.1909 82.7717 91.9008C82.9072 91.1262 82.9072 91.1262 80.4442 92.3053C79.0081 92.4809 77.0792 92.8681 78.6683 91.3864C79.0875 91.0791 79.8457 90.8156 79.8051 90.466C79.1177 90.5836 78.4317 90.8219 77.7332 91.0241C74.845 92.0276 72.0055 93.0546 69.1173 94.0581C65.868 95.187 62.5827 96.3285 59.3335 97.4574C56.698 98.3731 54.086 99.2401 51.4506 100.156C50.3284 100.303 49.3205 100.896 48.261 101.224C45.6557 101.644 43.2257 102.569 40.9086 103.818C41.2726 103.935 41.8031 103.831 42.3446 103.643C42.3446 103.643 42.3085 103.655 42.2724 103.668C41.8849 103.601 41.414 103.643 40.8725 103.831C37.165 105.038 33.8731 106.627 30.7035 108.334C28.964 109.383 27.9009 110.399 27.7323 111.428C27.1561 111.749 26.2756 111.894 26.0038 112.392C24.9097 112.853 24.9628 113.239 25.0881 113.6C24.1032 115.074 21.5959 116.591 21.3235 118.02C20.8196 118.316 20.9795 118.544 20.9699 118.749C20.1897 119.182 18.873 119.235 18.4833 119.977C16.9228 120.842 18.051 121.178 17.7445 121.81C17.1573 122.216 15.8797 122.498 15.9107 123.053C15.3987 123.676 14.3496 124.848 14.5191 124.87C17.3846 124.966 14.8479 126.05 13.843 126.884C13.8349 127.21 13.8143 127.5 13.7701 127.839C13.566 127.95 13.3369 127.989 13.1815 128.124C12.7858 128.383 13.197 128.402 13.3288 128.315C13.916 127.909 15.6233 128.165 15.31 127.263C15.4765 127.044 15.643 126.824 15.7734 126.617C16.158 126.443 16.5426 126.269 16.9758 126.119C17.1328 126.105 17.3258 126.078 17.5063 126.015C17.8578 126.095 18.2093 126.175 18.5843 126.206C18.6219 126.315 18.6595 126.423 18.6846 126.495C18.5557 126.823 18.8946 126.867 19.3779 126.86C19.5865 127.111 19.4591 127.56 20.3646 127.488C20.512 127.679 20.6233 127.883 21.2385 127.79C21.4906 128.632 24.0694 128.019 24.4173 128.788C23.4133 130.672 19.5201 132.51 18.9994 134.389C16.742 135.577 17.1495 136.284 17.7988 136.988C17.6904 137.026 17.6182 137.051 17.5225 137.125L15.0314 137.99C15.1522 137.989 15.2966 137.938 15.3814 137.949C15.0624 138.545 13.7642 139.118 13.6508 139.723C13.5389 140.449 13.4491 141.006 15.344 139.822C17.0895 139.256 18.8224 138.654 20.5318 138.1C21.7556 138.362 22.5962 136.938 23.9144 137.006C23.0664 137.826 23.0031 138.575 21.7079 139.389C20.0361 140.051 19.6354 140.877 18.9444 141.683C16.8394 142.495 14.5634 143.165 13.3839 144.545C13.4731 144.918 13.5624 145.291 13.6516 145.664C13.7467 146.52 11.5128 147.66 11.8497 148.513C11.8401 148.719 11.8305 148.924 11.8085 149.093C10.8501 150.76 11.3961 150.934 14.5871 149.987C15.8758 149.62 17.1504 149.097 18.3713 149.117C19.0913 149.675 19.7987 150.198 20.5186 150.756C19.9771 150.944 19.5689 151.167 19.3914 151.471C17.0322 152.25 18.6517 152.253 19.0533 152.477C19.0799 152.67 19.1064 152.863 19.133 153.056C19.4734 153.221 20.1122 153.08 20.7274 152.987C20.2676 152.945 19.8314 152.854 19.133 153.056C18.2754 154.082 18.4398 154.671 20.3717 154.525C20.5331 154.873 19.1421 155.761 20.8434 155.534C21.578 155.319 22.0378 155.361 22.2228 155.661C22.0062 155.736 21.7895 155.811 21.6341 155.946C21.237 156.084 20.6062 155.899 20.4552 156.396C20.3043 156.893 20.8001 156.923 21.7388 156.597L21.6917 156.694L21.825 156.728C21.8626 156.837 21.8877 156.909 21.8892 157.03C21.7492 157.442 21.9939 157.68 22.8007 157.44C27.6554 156.158 32.5102 154.875 37.3649 153.593C42.4894 152.621 47.4435 150.576 52.4382 148.881C52.7631 148.768 52.7004 148.588 52.3143 148.641C52.354 147.94 51.0042 148.248 50.0972 148.199C50.9371 147.705 52.5021 147.202 51.0601 146.894C50.9503 146.811 50.8405 146.728 50.7668 146.633C52.4075 145.416 49.8427 146.186 49.7174 145.825C49.716 145.704 49.727 145.62 49.7255 145.499C51.2985 144.669 52.1011 146.048 53.8612 144.709C54.693 144.541 55.39 144.218 55.8674 143.729C56.076 143.98 56.983 144.028 57.137 143.773C57.7373 142.473 59.6346 142.46 60.9579 141.96C60.9829 142.032 61.0441 142.092 61.1178 142.187C61.2816 143.707 63.8771 141.512 64.8593 141.777C65.0413 141.835 65.2108 141.857 65.3928 141.915C65.6721 142.02 65.9513 142.125 66.2431 142.266C65.2677 143.534 67.1878 142.423 67.7197 142.44C68.5671 142.55 69.032 142.024 69.6442 141.691C70.468 141.849 71.3279 141.995 72.3438 141.076C72.4513 139.988 74.4208 139.95 75.4899 139.417C75.551 139.477 75.6247 139.572 75.6859 139.632C75.56 140.201 76.0212 140.364 77.2377 140.022C78.6531 140.137 80.1599 139.815 81.7565 138.937C84.6014 139.323 85.7456 139.006 88.0428 137.117C89.571 137.556 90.5169 135.853 91.8822 135.823C93.6601 135.933 95.5405 135.522 97.5342 134.506C97.9313 134.368 98.3159 134.194 98.7491 134.044C100.769 134.151 101.841 132.929 103.295 132.222C103.823 131.877 105.153 131.98 105.014 131.463C104.912 131.054 103.867 131.538 103.218 131.885C102.377 132.258 101.548 132.667 100.707 133.04C101.06 132.311 98.6901 133.175 99.1033 132.385C100.572 131.955 102.065 131.477 103.456 130.59C101.524 130.735 99.7302 131.278 97.9251 131.905C97.5279 132.043 97.1308 132.181 96.7698 132.306C96.1185 132.411 95.8989 132.245 95.8834 131.968C96.3041 131.781 96.7734 131.618 97.2066 131.468C98.4466 131.077 99.6741 130.651 100.95 130.248C101.975 130.053 103.038 129.967 103.729 129.161C105.01 128.19 107.318 128.197 108.404 127.011C108.56 126.997 108.705 126.947 108.873 126.848C108.901 127.162 108.81 127.598 109.522 127.552C110.042 127.534 110.387 127.131 110.613 126.85C111.902 126.483 113.174 125.718 114.443 125.762L114.564 125.76C114.9 125.563 115.223 125.329 115.595 125.119C116.983 124.92 118.386 124.998 119.811 123.978C121.269 123.633 122.641 123.156 123.682 122.309C124.835 121.666 124.793 121.196 124.521 120.765C125.325 120.283 124.324 120.429 124.37 120.211C124.982 119.877 125.594 119.543 126.206 119.209C126.423 119.134 126.652 119.095 126.905 119.007C128.935 119.029 130.9 117.579 132.89 117.251C132.952 117.431 133.015 117.612 133.078 117.792C132.66 118.22 132.194 118.625 131.525 119.261C133.077 118.722 134.196 118.333 135.315 117.944C134.995 118.419 135.699 118.7 134.885 119.266C134.393 119.598 133.782 120.053 134.484 120.092C135.27 120.142 135.506 119.656 135.876 119.326C136.694 119.001 137.476 118.689 138.294 118.364C140.967 117.557 138.659 119.531 140.215 119.354C140.878 119.164 141.178 118.979 140.897 118.753C141.737 117.33 144.561 116.955 146.18 115.907C145.279 115.412 144.519 116.484 143.698 116.568C142.633 116.412 141.505 117.127 140.446 117.455C139.724 117.706 139.014 117.993 138.256 118.256C138.063 118.283 137.906 118.297 137.749 118.311C137.867 118.068 137.985 117.825 138.067 117.594C138.365 117.289 138.663 116.983 138.962 116.677C139.59 116.621 140.23 116.6 140.858 116.544C141.713 116.328 142.581 116.147 143.349 115.678C144.407 115.23 145.857 115.211 146.595 114.308C147.028 114.158 147.461 114.007 147.931 113.844C149.001 113.432 150.12 113.043 151.191 112.63C152.059 112.45 153.281 112.591 153.648 111.898C154.025 111.12 152.235 112.025 151.629 111.912C151.496 111.878 151.243 111.965 151.014 112.005C150.964 111.86 150.914 111.716 150.864 111.572C151.081 110.567 152.902 110.217 154.046 109.9C155.371 109.521 156.575 109.143 157.801 108.596C159.367 108.213 160.835 107.663 162.326 107.064C162.362 107.052 162.349 107.015 162.349 107.015C163.757 106.526 165.228 106.217 166.573 105.548C166.754 105.485 166.898 105.435 167.079 105.372C170.949 104.634 174.691 103.293 178.395 101.724C178.303 102.16 179.837 102.031 178.77 102.806C178.265 102.981 177.711 103.133 177.205 103.309C177.203 103.067 176.958 102.829 176.369 103.114C176.021 103.276 175.856 103.616 175.63 103.897C175.198 104.168 174.753 104.403 174.322 104.675C174.143 104.858 174.168 104.93 174.458 104.951C175.288 104.662 176.119 104.374 176.949 104.085C177.254 104.262 177.043 104.821 177.729 104.582C178.595 104.281 177.914 103.952 178.321 103.608C178.538 103.533 178.754 103.458 179.007 103.37C180.232 102.702 181.643 102.454 182.942 102.003C183.874 102.124 180.044 103.212 182.581 103.058C183.051 103.016 183.522 102.974 183.993 102.931C183.029 103.185 182.114 103.463 182.279 104.052C183.211 104.173 184.179 104.281 185.098 104.366C186.467 104.578 187.486 103.9 188.48 103.151C189.574 102.69 190.559 102.266 190.081 101.705C190.8 101.213 191.978 100.642 190.43 100.614C190.151 100.509 189.872 100.404 189.593 100.299C189.82 100.139 190.035 99.9426 190.299 99.7702C190.881 99.9317 191.627 99.6322 192.349 99.3813C193.946 99.5539 194.897 98.2132 196.344 97.953C197.151 97.7131 197.706 97.6817 197.254 98.2431C196.533 99.5445 198.06 98.933 199.444 98.4924C200.916 98.3043 202.237 97.5626 203.596 97.0499C204.138 96.8618 204.643 96.6862 205.185 96.498C206.478 96.4933 207.494 95.5745 208.687 95.2813C208.867 95.2186 209.048 95.1559 209.228 95.0931C210.145 94.9364 211.316 94.8125 211.743 94.179C212.004 93.7651 211.018 94.1884 210.559 94.2668C210.123 94.1759 209.615 94.11 209.646 93.7352C209.814 93.6364 209.995 93.5737 210.212 93.4985C211.042 93.21 211.908 92.9089 212.739 92.6204C212.991 92.5326 213.244 92.4448 213.497 92.357C215.446 91.6797 217.396 91.0023 219.346 90.325C219.479 90.3595 219.576 90.4065 219.686 90.4896C219.471 90.6856 219.22 90.8942 219.004 91.0902C218.609 91.3489 218.249 91.5951 217.854 91.8538C216.915 92.1799 215.699 92.5217 215.609 93.0784C215.563 93.2963 216.693 92.8228 217.32 92.6456C216.916 93.2305 217.556 93.2101 218.352 93.0549C219.678 92.7962 219.986 92.285 220.125 91.7519C221.195 91.3395 222.266 90.9272 223.336 90.5148C224.91 90.7359 225.923 89.5756 227.223 89.124C228.824 88.6082 230.464 88.3213 232.026 87.5765C233.34 87.2817 234.504 86.6749 235.694 86.1402C236.41 86.3363 237.121 86.1701 237.79 85.5335C239.341 84.8734 241.117 84.8624 242.519 83.8903C243.455 83.3227 244.764 83.5955 245.575 82.788C246.261 82.5497 246.911 82.3239 247.597 82.0856C249.474 81.4333 251.352 80.781 253.193 80.1413C254.571 80.1476 255.551 79.2413 256.791 78.8509C257.441 78.6251 258.103 78.4354 258.789 78.1971C259.475 77.9588 260.161 77.7204 260.811 77.4947C263.41 76.5915 266.144 75.8436 268.521 74.5328C269.351 74.2443 270.218 73.9433 271.084 73.6422C272.511 73.672 273.916 72.9414 275.347 72.4036C275.756 72.1809 276.164 71.9583 276.572 71.7356C277.836 71.2966 279.123 70.809 280.386 70.3699C280.675 70.2696 280.928 70.1818 281.204 70.0454C282.264 69.7177 283.311 69.3539 284.406 69.0137C284.24 69.2332 284.073 69.4527 283.907 69.6722C282.006 70.3731 281.023 71.0379 282.167 71.651C282.458 71.7922 279.804 73.1187 282.585 72.2736C283.717 71.9208 285.442 71.6449 284.672 70.9424C284.146 70.4782 285.614 69.9279 285.476 69.5311C286.076 69.1611 286.674 68.6703 287.438 68.8899C287.793 69.2113 289.212 68.6375 289.447 69.0812C289.062 69.2553 288.485 69.4559 288.306 69.6394C287.888 70.0675 288.597 69.7805 288.911 69.7523C290.3 69.6739 291.38 69.0562 292.412 68.4149C293.099 68.2973 293.774 68.1436 294.462 68.026C295.003 67.8379 295.593 67.6733 295.83 67.3079C296.432 67.0586 297.02 66.7732 297.622 66.5239C298.163 66.3358 298.656 66.1241 298.918 65.8309C300.675 65.1802 302.139 64.3884 303.3 63.4193C304.742 62.7969 305.918 62.1054 306.718 61.2618C307.171 60.8212 307.613 60.3445 308.031 59.9164C309.439 59.4272 309.144 59.0446 309.006 58.6479C309.234 58.488 309.413 58.3045 309.64 58.1446C310.675 57.7448 311.649 57.4061 312.475 56.7554C313.984 55.6249 312.851 55.8569 311.597 56.0905C312.793 55.1089 311.527 55.3065 310.668 55.2814C311.471 54.6793 312.598 53.9643 311.002 53.9125C310.245 53.246 312.779 52.9717 312.869 52.415C312.976 52.2567 313.119 52.0858 313.226 51.9274C313.981 51.4225 314.59 50.847 315.709 50.4582C317.467 49.9282 318.843 48.7632 320.809 48.4842C321.738 48.3634 323.355 48.1251 323.479 47.4352C323.591 46.7092 321.836 47.4806 320.907 47.6013C320.714 47.628 320.568 47.5574 320.411 47.5715C320.176 47.1278 323.142 46.5822 321.724 46.2262C320.488 45.9282 320.208 46.753 319.537 47.2689C318.017 48.4841 318.114 47.4805 317.557 47.3912C318.265 46.9835 319.167 46.6699 319.354 46.1603C319.571 46.085 319.788 46.0098 319.956 45.911C321.447 45.312 323.28 44.9985 324.58 43.617C323.102 44.2521 322.376 43.2109 320.919 44.6064C319.198 45.2445 317.567 46.2559 315.742 46.2433C317.327 45.4499 318.088 44.3774 319.952 43.6891C320.145 43.6624 320.326 43.5997 320.494 43.5009C321.469 43.1622 322.553 42.9067 323.346 42.51C324.511 41.9032 324.039 41.8248 322.954 42.0803C321.808 42.2763 320.824 42.8204 319.753 43.2328C319.091 43.4225 318.275 43.8678 317.812 43.584C318.099 43.3629 318.652 43.09 318.674 42.9207C318.718 42.582 318.178 42.8909 317.781 43.0289C316.819 43.4036 315.869 43.8144 314.955 44.2127C315.639 42.803 317.804 41.9297 320.089 41.0547C319.487 40.2535 317.504 41.1848 316.309 41.2366L316.272 41.2491C314.642 41.3306 313.095 42.3529 311.491 42.6273C311.187 42.4501 310.87 42.2368 310.602 42.0471C312.17 41.7853 311.301 40.915 312.736 40.6187C313.531 40.4634 314.307 40.5983 315.181 39.9711C314.657 39.6277 313.744 40.026 312.901 40.2784C311.848 40.1592 310.695 40.8021 309.551 41.1188C309.06 40.5214 310.507 40.2611 311.192 39.902C312.242 39.7798 312.765 39.0726 313.693 38.8311C314.937 38.8029 315.606 38.1663 316.639 37.6458C315.685 37.6943 315 38.0534 314.314 38.2917C313.31 38.1961 312.506 38.6774 311.715 39.1949C310.848 39.4959 310.006 39.7483 309.139 40.0494C308.607 40.0321 308.075 40.0149 307.543 39.9976C307.554 39.9129 307.589 39.7796 307.6 39.695C308.752 39.0521 310.615 39.1729 311.363 38.0643C311.543 38.0016 311.724 37.9389 311.855 37.8526C313.408 37.3133 315.009 36.7974 316.561 36.258C319.004 35.369 321.496 34.6243 324.121 33.7933C321.919 34.5584 321.1 33.8324 319.471 34.0346C318.76 34.2008 318.085 34.3545 317.361 34.4846C316.278 34.8609 315.195 35.2372 314.112 35.6135C313.089 35.9287 312.114 36.2673 311.091 36.5825C311.004 36.4508 310.918 36.3191 310.844 36.2234C312.185 35.1917 314.1 34.6476 315.966 34.08ZM14.1122 146.757C14.0997 146.721 14.0997 146.721 14.0871 146.685C14.208 146.683 14.3163 146.646 14.4246 146.608C14.3288 146.682 14.1719 146.696 14.1122 146.757ZM18.213 144.12C18.213 144.12 18.1769 144.132 18.1644 144.096C18.2005 144.084 18.2366 144.071 18.2727 144.059C18.2366 144.071 18.2005 144.084 18.213 144.12ZM25.252 133.752C25.2881 133.739 25.3242 133.727 25.3478 133.678C25.3964 133.702 25.4561 133.641 25.4686 133.677C25.409 133.738 25.3242 133.727 25.252 133.752ZM24.0432 124.916C24.0307 124.88 23.9946 124.893 24.0182 124.844C24.2112 124.817 24.3792 124.719 24.5723 124.692C24.4278 124.742 24.2599 124.841 24.0432 124.916ZM29.8028 129.382C29.8028 129.382 29.7903 129.346 29.8264 129.333L29.875 129.357C29.8514 129.406 29.8389 129.369 29.8028 129.382ZM25.6161 117.215C25.6161 117.215 25.6397 117.167 25.6161 117.215C25.6522 117.203 25.6161 117.215 25.6161 117.215ZM27.9727 113.284C27.4171 113.316 26.9007 113.576 26.4203 113.824C26.9869 113.708 27.5284 113.52 27.9837 113.2C27.9476 113.212 27.9602 113.248 27.9727 113.284ZM32.3549 121.705C32.391 121.692 32.3549 121.705 32.3549 121.705V121.705ZM35.5487 119.019C35.6445 118.945 35.7528 118.908 35.7999 118.81C35.8124 118.846 35.825 118.883 35.8375 118.919C35.7292 118.956 35.657 118.981 35.5487 119.019ZM36.2284 116.317C36.1923 116.33 36.1437 116.306 36.0715 116.331C36.1076 116.319 36.1076 116.319 36.1437 116.306C36.2159 116.281 36.3006 116.292 36.3728 116.267C36.3367 116.28 36.3006 116.292 36.2284 116.317Z" fill="#E7D6FF"/>
<path d="M165.411 107.326C163.14 107.428 162.377 108.259 160.998 109.182C163.084 108.781 164.152 108.127 165.411 107.326Z" fill="#E7D6FF"/>
<path d="M169.113 109.597C168.49 110.015 167.867 110.434 166.975 110.663C166.093 110.686 165.376 110.369 164.128 111.086C164.241 111.411 165.457 111.069 165.198 111.604C168.382 111.103 169.668 110.495 169.27 109.582C170.082 108.775 171.794 108.463 173.017 107.674C169.412 108.361 169.04 108.571 169.113 109.597Z" fill="#E7D6FF"/>
<path d="M141.25 119.884C141.695 119.769 142.103 119.547 142.185 119.316C142.36 118.771 141.563 118.805 140.789 118.791C140.574 118.987 140.323 119.195 140.107 119.391C140.352 119.63 140.201 120.127 141.25 119.884Z" fill="#E7D6FF"/>
<path d="M158.738 111.059C158.51 111.219 158.511 111.34 158.717 111.349C160.178 111.246 161.432 111.012 161.467 109.949C160.356 110.012 159.701 110.805 158.738 111.059Z" fill="#E7D6FF"/>
<path d="M114.094 127.783C115.061 126.841 114.608 126.351 114.504 125.821L114.384 125.823C113.969 126.492 112.518 127.441 114.094 127.783Z" fill="#E7D6FF"/>
<path d="M126.83 122.751C127.262 122.48 127.199 122.3 126.861 122.256C126.267 122.179 125.627 122.199 124.969 122.751C124.151 123.076 123.334 123.4 122.48 123.738C122.505 123.81 122.553 123.833 122.578 123.905C123.421 123.653 124.288 123.352 125.131 123.099C125.521 123.408 126.135 123.195 126.83 122.751Z" fill="#E7D6FF"/>
<path d="M172.835 105.636C172.934 105.804 172.987 106.189 173.637 105.964C174.431 105.688 174.306 105.327 174.327 105.037C174.289 104.929 174.264 104.857 174.19 104.761C173.225 104.894 172.552 105.169 172.835 105.636Z" fill="#E7D6FF"/>
<path d="M206.765 97.202C208.232 96.6517 209.207 96.313 210.53 95.8128C208.996 95.8206 207.958 95.979 206.765 97.202Z" fill="#E7D6FF"/>
<path d="M159.662 112.557C160.435 112.45 161.108 112.176 161.692 111.528C160.702 111.589 159.895 111.829 159.261 112.332C159.189 112.358 159.433 112.596 159.662 112.557Z" fill="#E7D6FF"/>
<path d="M178.353 106.144C177.656 106.467 176.832 106.309 176.041 106.826C176.792 107.009 177.574 106.697 178.308 106.483C178.768 106.525 179.074 106.823 179.829 106.318C180.093 106.145 180.294 105.793 180.148 105.722C179.733 105.341 179.001 105.797 178.353 106.144Z" fill="#E7D6FF"/>
<path d="M242.416 85.3407C243.866 85.3219 244.841 84.9832 245.714 84.2353C244.779 84.8029 243.832 84.5253 242.416 85.3407Z" fill="#E7D6FF"/>
<path d="M156.448 110.642C156.503 111.149 156.531 111.462 156.571 111.812C155.936 112.194 155.264 112.59 154.568 113.033C156.442 113.069 157.235 111.743 158.729 111.385C158.741 111.301 158.703 111.193 158.75 111.095L158.714 111.108C158.047 110.935 157.357 110.811 156.448 110.642Z" fill="#E7D6FF"/>
<path d="M62.276 144.938C61.7344 145.126 61.5679 145.345 61.6431 145.562C61.6932 145.706 61.8878 145.8 62.5487 145.49C62.6806 145.403 63.1484 145.12 63.1705 144.95C63.2397 144.684 62.7453 144.775 62.276 144.938Z" fill="#E7D6FF"/>
<path d="M149.64 114.22C149.279 114.346 148.748 114.449 148.789 114.799C148.982 114.772 149.321 114.816 149.453 114.73C149.801 114.568 150.04 114.324 150.34 114.139C150.111 114.178 149.856 114.145 149.64 114.22Z" fill="#E7D6FF"/>
<path d="M150.92 115.109C150.128 115.627 150.398 115.937 151.497 115.839C152.572 115.788 153.658 115.654 154.823 115.047C154.991 114.948 155.168 114.644 155.035 114.609C154.186 114.379 153.015 115.432 152.106 115.263C151.874 115.061 151.579 114.678 150.92 115.109Z" fill="#E7D6FF"/>
<path d="M241.912 86.5669C242.022 86.65 242.372 86.6092 242.637 86.5575C242.938 86.4932 243.202 86.3207 243.055 86.1294C242.861 86.1561 242.607 86.1231 242.342 86.1749C241.968 86.2643 241.753 86.4603 241.912 86.5669Z" fill="#E7D6FF"/>
<path d="M217.424 94.2262C218.732 93.4484 219.315 93.7307 220.152 92.9953C219.356 93.1505 218.716 93.1709 217.424 94.2262Z" fill="#E7D6FF"/>
<path d="M273.745 73.7285C273.938 73.7018 274.192 73.7348 274.324 73.6485C274.564 73.5247 274.9 73.3271 274.898 73.2064C274.92 73.037 274.57 73.0778 274.078 73.2895C274.03 73.3867 273.887 73.5576 273.745 73.7285Z" fill="#E7D6FF"/>
<path d="M114.033 128.774C112.569 128.636 111.087 129.029 109.323 130.006C110.606 130.207 111.661 129.517 112.638 129.299C112.753 129.865 113.763 129.393 114.315 129.12C114.904 128.835 114.432 128.757 114.033 128.774Z" fill="#E7D6FF"/>
<path d="M124.23 124.584C122.371 124.705 121.995 125.604 121.218 126.278C121.162 126.701 119.499 127.037 119.869 127.636C120.84 127.056 122.099 127.184 122.887 126.425C122.983 126.352 122.293 126.228 121.941 126.148C123.407 125.477 125.181 125.224 126.475 124.29C127.256 123.978 128.727 123.669 127.465 123.299C126.309 123.579 125.055 123.813 124.23 124.584Z" fill="#E7D6FF"/>
<path d="M52.8855 146.907C52.6954 147.175 53.069 147.086 53.3342 147.034C53.78 146.919 54.2132 146.769 54.3311 146.526C54.3782 146.429 54.0267 146.349 53.7976 146.388C53.242 146.419 53.052 146.687 52.8855 146.907Z" fill="#E7D6FF"/>
<path d="M129.273 74.8149C130.167 74.8275 130.899 74.3712 131.679 73.9385C130.921 74.2019 130.003 74.2379 129.273 74.8149Z" fill="#E7D6FF"/>
<path d="M292.688 30.0826C293.47 29.7706 294.132 29.5808 294.729 28.9693C293.936 29.366 293.091 29.377 292.688 30.0826Z" fill="#E7D6FF"/>
</g>
<g clip-path="url(#clip1_2378_844)">
<path d="M280.766 107.412C282.422 106.472 284.425 106.181 286.068 105.206C284.288 105.905 282.224 106.137 280.766 107.412Z" fill="#E7D6FF"/>
<path d="M291.016 103.608C289.941 103.658 288.955 104.081 287.538 104.776C289.685 104.434 289.685 104.434 291.016 103.608Z" fill="#E7D6FF"/>
<path d="M316.832 102.682C315.697 102.793 314.598 102.892 312.964 103.662C314.453 103.872 315.629 103.18 316.832 102.682Z" fill="#E7D6FF"/>
<path d="M313.798 105.595C315.256 105.25 316.388 104.897 317.419 104.256C316.337 104.753 314.919 104.397 313.798 105.595Z" fill="#E7D6FF"/>
<path d="M112.544 163.232C112.745 162.879 112.899 162.623 112.968 162.357C112.968 162.357 112.448 162.375 112.232 162.451C111.631 162.7 111.417 163.017 111.685 163.207C111.782 163.254 112.132 163.213 112.544 163.232Z" fill="#E7D6FF"/>
<path d="M270.039 107.865C270.857 107.54 271.675 107.216 272.431 106.831C272.672 106.707 272.86 106.319 272.75 106.236C272.482 106.046 271.832 106.272 271.339 106.483C271.015 106.596 270.125 106.946 270.487 106.941C272.602 106.974 269.385 107.728 270.039 107.865C269.449 108.029 268.795 107.893 268.366 108.406C268.306 108.467 268.67 108.583 268.899 108.544C269.661 108.522 270.153 108.31 270.039 107.865Z" fill="#E7D6FF"/>
<path d="M274.646 107.032C275.622 106.814 276.196 106.372 276.699 105.955C275.82 106.22 274.916 106.413 274.646 107.032Z" fill="#E7D6FF"/>
<path d="M249.05 111.155C250.48 110.497 252.365 110.448 253.788 109.186C251.947 109.826 250.43 110.353 248.95 110.867C248.349 111.116 247.192 111.397 247.316 111.637C247.501 111.936 248.44 111.61 249.05 111.155Z" fill="#E7D6FF"/>
<path d="M137.318 154.301C136.359 154.917 134.929 154.646 134.202 155.464C134.119 155.574 134.205 155.705 134.326 155.704C135.691 155.674 136.382 154.868 137.318 154.301Z" fill="#E7D6FF"/>
<path d="M186.983 131.184C186.057 131.546 186.795 131.573 186.93 131.728C187.909 131.752 188.788 131.487 189.578 130.849C189.195 130.214 187.922 130.858 186.983 131.184Z" fill="#E7D6FF"/>
<path d="M164.321 139.907C163.356 140.04 162.257 140.139 161.494 140.97C162.704 141.075 163.433 140.377 164.321 139.907Z" fill="#E7D6FF"/>
<path d="M183.463 131.882C183.486 131.833 183.256 131.752 183.099 131.766C182.338 131.788 181.92 132.216 181.367 132.489C180.184 132.576 179.173 132.928 177.999 133.74C179.35 133.553 180.408 133.105 181.443 132.705C182.165 132.454 182.998 132.407 183.463 131.882Z" fill="#E7D6FF"/>
<path d="M145.946 146.412C144.705 146.682 143.755 147.092 143.124 147.837C144.805 147.9 145.376 147.216 145.946 146.412Z" fill="#E7D6FF"/>
<path d="M140.398 150.24C140.072 150.232 139.805 150.163 139.455 150.203C139.033 150.269 138.661 150.479 138.543 150.722C138.594 150.987 139.076 150.86 139.437 150.735C139.762 150.622 140.098 150.425 140.398 150.24Z" fill="#E7D6FF"/>
<path d="M168.6 142.906C167.31 143.153 166.335 143.491 165.412 144.095C166.522 143.911 167.646 143.885 168.6 142.906Z" fill="#E7D6FF"/>
<path d="M117.144 155.045C118.36 154.703 119.045 154.344 119.557 153.722C118.521 154.001 117.593 154.242 117.144 155.045Z" fill="#E7D6FF"/>
<path d="M142.197 150.059C141.032 150.666 140.288 151.086 139.231 151.655C141.121 151.039 141.121 151.039 142.197 150.059Z" fill="#E7D6FF"/>
<path d="M176.312 134.124C175.731 134.083 175.153 134.284 174.386 134.753C175.183 134.718 175.691 134.784 176.315 134.365C176.387 134.34 176.396 134.135 176.312 134.124Z" fill="#E7D6FF"/>
<path d="M152.797 144.234C153.459 144.044 154.289 143.756 154.261 143.442C154.183 142.984 153.283 143.54 152.778 143.715C152.309 143.878 151.889 144.186 151.409 144.433C150.965 144.668 150.039 145.031 150.56 145.133C151.347 145.304 151.941 144.451 152.797 144.234Z" fill="#E7D6FF"/>
<path d="M165.873 141.227C166.549 141.194 167.403 140.857 168.001 140.366C167.723 140.382 167.458 140.434 167.216 140.437C167.141 140.22 168.052 139.581 167.112 139.786C166.846 139.838 165.495 140.024 165.357 140.557C165.322 140.691 166.011 140.694 166.35 140.738C166.014 140.935 165.366 141.282 165.873 141.227Z" fill="#E7D6FF"/>
<path d="M179.142 134.353C178.924 134.307 178.609 134.215 178.501 134.253C178.129 134.463 177.841 134.684 177.554 134.905C177.832 134.889 178.097 134.837 178.411 134.809C178.675 134.637 178.902 134.477 179.142 134.353Z" fill="#E7D6FF"/>
<path d="M308.403 111.147C308.475 111.122 308.511 111.11 308.583 111.085C308.547 111.097 308.463 111.086 308.427 111.099C308.427 111.099 308.391 111.111 308.403 111.147C308.391 111.111 308.403 111.147 308.403 111.147Z" fill="#E7D6FF"/>
<path d="M176.937 182.854C174.336 182.707 173.072 184.075 170.58 184.82C173.249 184.701 174.785 183.763 176.937 182.854Z" fill="#E7D6FF"/>
<path d="M324.723 108.509C326.228 108.067 327.467 107.556 328.181 106.701C328.374 106.674 328.567 106.648 328.748 106.585C329.667 106.67 330.634 106.657 331.422 106.828C331.907 106.943 332.134 106.783 332.422 106.562C332.613 106.414 332.742 106.086 332.742 106.086C331.752 106.148 331.872 105.095 330.059 106.049C330.046 106.013 329.938 106.05 329.925 106.014L309.238 113.202C309.154 113.191 309.033 113.192 308.912 113.194C308.405 113.249 307.9 113.424 307.975 113.641L304.906 114.707C305.49 114.059 303.47 114.882 303.382 114.63C303.208 114.246 303.502 113.578 301.782 114.216C301.576 114.207 301.322 114.174 301.117 114.164C300.098 113.912 302.434 113.181 301.692 112.792C300.777 113.07 299.766 113.421 298.742 113.736C299.148 112.342 301.945 111.775 303.54 110.776C304.986 110.395 305.17 109.644 306.746 109.056C304.417 109.339 302.644 110.642 300.951 110.544C301.07 110.421 301.154 110.312 301.273 110.189C301.658 110.015 302.042 109.841 302.463 109.655C303.654 109.241 304.955 108.91 305.962 108.196C307.538 107.608 309.357 107.138 310.69 106.432C312.191 105.628 310.528 106.084 310.094 106.114C311.397 104.974 313.668 104.872 315.323 103.812C311.997 104.604 309.089 106.018 305.433 107.491C306.559 106.655 307.584 106.461 307.784 105.987C307.831 105.89 307.854 105.841 307.829 105.769C308.84 105.418 309.887 105.054 310.886 104.667C311.03 104.617 311.112 104.386 311.231 104.264C310.93 104.328 310.592 104.405 310.291 104.469C309.337 104.518 308.419 104.554 307.465 104.602C307.786 104.248 308.918 103.895 308.672 103.536C308.598 103.441 307.972 103.618 307.586 103.671C306.49 104.011 305.443 104.375 304.348 104.715C303.806 104.903 303.252 105.056 302.747 105.231C302.18 105.347 301.601 105.427 301.034 105.543C299.526 105.744 299.292 104.37 296.783 105.767C295.637 105.963 294.454 106.051 293.534 106.896C291.082 107.061 288.319 108.425 285.868 108.589C285.553 108.497 285.273 108.392 284.958 108.299C283.929 108.132 283.101 108.662 282.238 109.204C279.367 109.676 276.747 110.869 274.115 112.026C272.738 112.141 271.332 112.751 269.947 113.191C269.849 113.024 269.714 112.868 269.628 112.737C270.979 112.55 272.094 111.799 273.37 111.396C273.984 111.183 274.972 111.001 275.004 110.626C275.083 110.154 274.073 110.626 273.507 110.742C272.819 110.86 272.672 110.668 272.488 110.49C272.463 110.417 272.415 110.394 272.39 110.322C273.518 109.728 273.833 110.75 275.067 109.877C275.634 109.761 276.263 109.825 276.74 109.336C277.075 109.017 276.964 108.813 276.372 108.857C276.622 108.528 277.066 108.293 277.645 108.213C278.103 108.135 278.051 108.799 278.937 108.088C279.069 108.001 279.139 107.855 279.114 107.783C278.917 107.448 278.254 107.637 277.605 107.863C276.666 108.189 275.691 108.528 274.765 108.89C271.144 110.229 267.361 111.22 263.889 112.871L263.852 112.884C263.551 112.948 263.262 113.048 263.035 113.208C260.336 113.944 257.662 114.63 254.964 115.366C254.951 115.33 254.926 115.258 254.914 115.222C255.731 114.897 256.246 114.516 256.036 114.144C257.821 113.807 259.521 113.459 259.892 112.198C260.289 112.061 260.638 111.899 261.035 111.761C262.325 111.515 263.37 111.03 264.22 110.331C264.992 110.224 265.663 110.759 266.582 109.793C267.215 109.169 266.537 109.081 265.727 109.08C265.28 109.074 264.833 109.067 264.385 109.061C262.905 109.575 261.389 110.102 259.909 110.616C259.692 110.692 259.475 110.767 259.223 110.855C257.95 111.499 256.545 111.3 255.286 112.101C254.355 112.101 253.378 112.198 253.551 111.532C254.201 111.306 254.85 111.08 255.5 110.855C257.404 110.395 259.159 109.624 260.938 108.804C257.987 109.627 255.024 110.414 252.073 111.237C250.374 111.706 247.793 112.077 246.856 113.575L246.892 113.562C246.241 113.667 245.624 113.639 244.891 113.975C244.675 114.05 244.422 114.138 244.193 114.177C244.096 114.13 244.034 114.07 243.997 113.962C243.82 113.337 243.979 112.513 241.61 113.498C241.366 113.26 240.8 113.496 240.282 113.636C239.05 113.7 237.906 114.017 236.961 114.79C236.78 114.853 236.6 114.915 236.419 114.978C235.029 114.936 233.637 115.702 232.265 116.179C231.615 116.405 230.965 116.631 230.351 116.844C228.181 117.234 225.961 117.601 224.349 119.132C224.397 119.155 224.554 119.141 224.639 119.152C224.603 119.164 224.567 119.177 224.531 119.19L224.385 119.119C223.892 119.331 223.459 119.481 223.131 119.353C223.19 119.291 223.25 119.23 223.274 119.182C223.261 119.146 223.2 119.086 223.128 119.111C221.754 119.467 220.381 119.823 219.044 120.166C218.574 120.329 218.141 120.48 217.672 120.643C216.468 121.021 215.446 121.457 215.213 122.184C214.551 122.374 213.865 122.612 213.202 122.802C212.474 122.57 211.083 123.457 210.379 123.177C209.797 123.015 209.064 123.351 208.342 123.602C207.909 123.752 207.439 123.915 207.006 124.066C204.499 124.654 203.216 126.433 200.612 126.974C200.058 127.126 199.601 127.326 199.352 127.655C198.678 127.929 197.908 128.157 197.526 128.572C197.309 128.647 197.105 128.759 196.889 128.834C196.741 128.643 196.858 128.279 196.134 128.409C195.988 128.338 195.891 128.291 195.745 128.221C196.429 127.862 197.101 127.467 198.494 126.7C196.797 127.289 195.931 127.59 195.064 127.892C192.885 128.608 194.662 128.597 194.618 128.936C193.957 129.246 193.028 129.367 192.805 129.889C192.625 130.073 192.446 130.256 192.267 130.44C191.834 130.59 191.365 130.753 190.919 130.868L190.918 130.747C190.459 130.825 190.001 130.904 189.579 130.969C188.676 131.283 187.797 131.548 186.931 131.849C186.968 131.957 186.97 132.078 187.008 132.186C187.008 132.186 187.045 132.294 187.034 132.379C186.53 132.675 186.582 132.94 186.621 133.169C184.852 133.784 182.948 134.243 181.376 135.194C178.914 137.423 183.666 134.681 183.098 135.606C183.135 135.714 183.173 135.822 183.21 135.931C182.32 136.28 181.259 136.487 180.627 137.111C179.327 137.563 177.991 138.027 176.655 138.491C176.729 138.587 176.767 138.695 176.84 138.791C177.418 138.59 177.996 138.389 178.573 138.188C178.889 138.281 179.623 138.066 179.579 138.405C178.64 138.731 177.579 138.938 177.044 139.609C176.552 139.941 175.998 140.094 175.348 140.319C173.615 140.921 171.569 141.552 171.535 142.736C170.838 143.059 170.141 143.382 169.444 143.705C168.515 143.825 167.659 144.042 167.014 144.63C165.678 145.094 164.22 145.439 163.057 146.166C161.986 146.579 160.928 147.027 159.894 147.427C158.906 147.73 157.871 148.009 157.153 148.622C155.745 149.111 155.347 150.179 153.599 150.503C153.538 150.444 153.464 150.348 153.331 150.314C153.198 149.349 151.508 150.542 150.699 150.541C150.457 150.544 150.167 150.524 149.925 150.527C148.566 151.039 147.142 151.251 145.845 151.944C144.547 152.516 143.261 153.125 141.999 153.685C142.282 154.031 143.384 153.244 143.583 153.7C142.716 154.001 141.85 154.302 140.983 154.603C138.424 154.806 135.977 155.332 133.992 157.073C133.023 157.895 132.622 157.67 132.255 157.313C132.165 156.94 131.67 156.91 130.839 157.198C129.814 157.393 130.237 156.397 128.818 156.971C127.448 157.568 130.524 157.106 128.72 157.854C128.504 157.929 128.348 158.064 128.144 158.175C126.259 159.154 124.568 160.226 122.071 160.609C121.142 160.729 119.371 161.223 118.512 162.128C117.526 162.551 116.11 163.367 115.578 163.349C112.725 163.29 110.945 164.919 108.769 165.877C108.274 165.968 107.614 166.278 107.284 166.029C108.87 165.236 109.73 164.452 109.431 163.707C109.596 163.366 109.712 163.003 109.877 162.662C111.067 162.128 111.832 161.417 111.117 161.221C110.401 161.025 110.327 161.86 109.653 162.134C108.021 163.025 106.327 163.856 104.351 164.34C103.809 164.528 103.219 164.693 102.677 164.881C99.7937 166.247 97.6687 166.419 96.1942 165.436C97.3039 165.253 98.412 164.948 98.9837 164.265C99.103 164.142 98.7346 163.664 97.7222 163.895C96.228 164.252 95.363 164.674 95.6136 165.395C94.2307 165.956 93.0563 166.769 91.5385 167.175C91.523 166.897 91.5075 166.62 91.5281 166.33C91.6636 165.555 91.6636 165.555 89.2005 166.734C87.7645 166.91 85.8355 167.297 87.4247 165.815C87.8439 165.508 88.602 165.244 88.5615 164.895C87.874 165.012 87.1881 165.251 86.4896 165.453C83.6014 166.456 80.7618 167.483 77.8736 168.487C74.6244 169.616 71.339 170.757 68.0898 171.886C65.4543 172.802 62.8424 173.669 60.2069 174.585C59.0847 174.732 58.0768 175.325 57.0173 175.652C54.412 176.073 51.9821 176.998 49.6649 178.247C50.0289 178.363 50.5594 178.26 51.101 178.072C51.101 178.072 51.0649 178.084 51.0288 178.097C50.6412 178.029 50.1704 178.072 49.6288 178.26C45.9213 179.467 42.6294 181.056 39.4598 182.763C37.7203 183.812 36.6572 184.828 36.4886 185.857C35.9125 186.178 35.032 186.322 34.7602 186.821C33.666 187.282 33.7191 187.668 33.8444 188.028C32.8595 189.502 30.3523 191.02 30.0799 192.449C29.5759 192.745 29.7358 192.972 29.7263 193.178C28.946 193.611 27.6293 193.664 27.2397 194.405C25.6792 195.271 26.8073 195.607 26.5009 196.238C25.9137 196.645 24.6361 196.927 24.6671 197.482C24.1551 198.104 23.106 199.277 23.2755 199.299C26.141 199.395 23.6042 200.478 22.5993 201.313C22.5912 201.639 22.5706 201.929 22.5265 202.268C22.3224 202.379 22.0933 202.418 21.9378 202.553C21.5422 202.812 21.9533 202.83 22.0852 202.744C22.6724 202.338 24.3796 202.594 24.0664 201.692C24.2329 201.473 24.3994 201.253 24.5297 201.046C24.9143 200.872 25.2989 200.698 25.7322 200.547C25.8891 200.533 26.0822 200.507 26.2627 200.444C26.6141 200.524 26.9656 200.604 27.3407 200.635C27.3782 200.743 27.4158 200.852 27.4409 200.924C27.312 201.252 27.6509 201.295 28.1343 201.289C28.3428 201.54 28.2154 201.989 29.121 201.916C29.2684 202.108 29.3797 202.312 29.9949 202.219C30.247 203.061 32.8258 202.448 33.1737 203.216C32.1696 205.101 28.2765 206.939 27.7558 208.817C25.4983 210.006 25.9059 210.713 26.5551 211.417C26.4468 211.455 26.3746 211.48 26.2788 211.554L23.7877 212.419C23.9086 212.417 24.053 212.367 24.1377 212.378C23.8187 212.974 22.5205 213.546 22.4071 214.152C22.2952 214.878 22.2054 215.434 24.1004 214.251C25.8458 213.685 27.5788 213.082 29.2881 212.529C30.512 212.791 31.3525 211.367 32.6707 211.435C31.8227 212.255 31.7595 213.004 30.4642 213.818C28.7925 214.48 28.3917 215.306 27.7007 216.112C25.5957 216.924 23.3198 217.594 22.1403 218.973C22.2295 219.347 22.3187 219.72 22.4079 220.093C22.5031 220.949 20.2692 222.089 20.606 222.942C20.5964 223.148 20.5869 223.353 20.5648 223.522C19.6064 225.189 20.1524 225.363 23.3435 224.416C24.6321 224.049 25.9068 223.526 27.1277 223.546C27.8476 224.104 28.555 224.626 29.275 225.185C28.7334 225.373 28.3253 225.595 28.1477 225.9C25.7885 226.679 27.4081 226.682 27.8097 226.906C27.8362 227.099 27.8628 227.292 27.8893 227.485C28.2297 227.65 28.8685 227.508 29.4838 227.416C29.024 227.374 28.5878 227.283 27.8893 227.485C27.0318 228.51 27.1962 229.1 29.1281 228.954C29.2895 229.302 27.8985 230.19 29.5998 229.962C30.3344 229.748 30.7941 229.79 30.9791 230.089C30.7625 230.165 30.5459 230.24 30.3904 230.375C29.9933 230.513 29.3626 230.328 29.2116 230.825C29.0606 231.322 29.5565 231.352 30.4952 231.026L30.448 231.123L30.5814 231.157C30.619 231.265 30.644 231.338 30.6455 231.458C30.5056 231.871 30.7502 232.109 31.557 231.869C36.4118 230.587 41.2665 229.304 46.1212 228.022C51.2457 227.05 56.1998 225.005 61.1945 223.31C61.5194 223.197 61.4568 223.017 61.0707 223.07C61.1104 222.369 59.7606 222.676 58.8536 222.628C59.6935 222.134 61.2584 221.631 59.8164 221.323C59.7066 221.24 59.5968 221.157 59.5231 221.061C61.1639 219.845 58.5991 220.614 58.4738 220.254C58.4723 220.133 58.4833 220.048 58.4819 219.928C60.0549 219.098 60.8574 220.477 62.6175 219.137C63.4494 218.97 64.1464 218.647 64.6238 218.157C64.8323 218.408 65.7393 218.457 65.8933 218.201C66.4937 216.902 68.391 216.889 69.7142 216.389C69.7393 216.461 69.8005 216.521 69.8741 216.616C70.0379 218.136 72.6335 215.94 73.6157 216.205C73.7977 216.263 73.9671 216.285 74.1491 216.343C74.4284 216.449 74.7077 216.554 74.9995 216.695C74.0241 217.963 75.9441 216.852 76.4761 216.869C77.3234 216.979 77.7883 216.453 78.4006 216.119C79.2243 216.278 80.0842 216.424 81.1002 215.505C81.2076 214.417 83.1771 214.379 84.2462 213.846C84.3074 213.905 84.3811 214.001 84.4422 214.061C84.3163 214.63 84.7776 214.793 85.994 214.451C87.4095 214.566 88.9162 214.244 90.5128 213.366C93.3577 213.752 94.502 213.435 96.7991 211.546C98.3273 211.985 99.2732 210.282 100.639 210.252C102.416 210.362 104.297 209.951 106.291 208.935C106.688 208.797 107.072 208.623 107.505 208.473C109.525 208.579 110.598 207.358 112.051 206.651C112.579 206.306 113.91 206.409 113.77 205.892C113.669 205.483 112.623 205.967 111.975 206.314C111.133 206.687 110.304 207.096 109.463 207.469C109.817 206.74 107.446 207.604 107.86 206.814C109.329 206.384 110.822 205.906 112.213 205.018C110.281 205.164 108.487 205.707 106.681 206.334C106.284 206.472 105.887 206.61 105.526 206.735C104.875 206.84 104.655 206.674 104.64 206.397C105.06 206.21 105.53 206.047 105.963 205.896C107.203 205.506 108.43 205.079 109.707 204.676C110.731 204.482 111.794 204.396 112.485 203.59C113.766 202.619 116.075 202.626 117.16 201.44C117.317 201.426 117.461 201.376 117.629 201.277C117.657 201.591 117.566 202.027 118.278 201.981C118.798 201.962 119.143 201.559 119.37 201.279C120.658 200.912 121.93 200.147 123.199 200.191L123.32 200.189C123.656 199.992 123.98 199.758 124.352 199.548C125.739 199.349 127.142 199.427 128.568 198.406C130.026 198.061 131.398 197.585 132.439 196.738C133.591 196.095 133.549 195.625 133.278 195.194C134.082 194.712 133.08 194.858 133.126 194.64C133.738 194.306 134.35 193.972 134.963 193.638C135.179 193.563 135.408 193.524 135.661 193.436C137.692 193.458 139.656 192.007 141.646 191.68C141.709 191.86 141.771 192.04 141.834 192.221C141.416 192.649 140.95 193.053 140.281 193.69C141.833 193.151 142.953 192.762 144.072 192.373C143.751 192.848 144.456 193.129 143.641 193.695C143.15 194.027 142.539 194.482 143.24 194.521C144.026 194.571 144.262 194.085 144.633 193.754C145.451 193.43 146.232 193.118 147.05 192.793C149.723 191.986 147.415 193.96 148.972 193.783C149.634 193.593 149.934 193.408 149.653 193.182C150.494 191.758 153.317 191.384 154.936 190.336C154.035 189.841 153.275 190.913 152.454 190.996C151.389 190.841 150.262 191.556 149.202 191.884C148.48 192.135 147.771 192.422 147.012 192.685C146.819 192.712 146.662 192.726 146.506 192.74C146.623 192.497 146.741 192.254 146.823 192.023C147.121 191.718 147.42 191.412 147.718 191.106C148.346 191.05 148.986 191.029 149.614 190.973C150.469 190.756 151.337 190.576 152.105 190.107C153.163 189.659 154.613 189.64 155.351 188.737C155.785 188.586 156.218 188.436 156.687 188.273C157.758 187.86 158.877 187.472 159.947 187.059C160.815 186.879 162.038 187.02 162.404 186.327C162.781 185.549 160.991 186.454 160.386 186.341C160.252 186.307 160 186.394 159.77 186.434C159.72 186.289 159.67 186.145 159.62 186.001C159.837 184.996 161.658 184.646 162.802 184.329C164.127 183.95 165.331 183.572 166.557 183.025C168.123 182.642 169.591 182.092 171.082 181.493C171.118 181.48 171.106 181.444 171.106 181.444C172.514 180.955 173.984 180.646 175.33 179.977C175.51 179.914 175.655 179.864 175.835 179.801C179.706 179.063 183.448 177.722 187.151 176.153C187.06 176.588 188.593 176.46 187.527 177.234C187.021 177.41 186.467 177.562 185.962 177.738C185.959 177.496 185.714 177.258 185.126 177.543C184.777 177.705 184.612 178.045 184.386 178.326C183.954 178.597 183.51 178.832 183.078 179.103C182.899 179.287 182.924 179.359 183.214 179.379C184.045 179.091 184.875 178.802 185.706 178.514C186.01 178.691 185.799 179.249 186.485 179.011C187.352 178.71 186.671 178.381 187.077 178.037C187.294 177.962 187.511 177.887 187.763 177.799C188.988 177.131 190.399 176.883 191.699 176.432C192.631 176.552 188.801 177.641 191.337 177.487C191.808 177.445 192.279 177.402 192.749 177.36C191.786 177.614 190.871 177.892 191.035 178.481C191.967 178.602 192.935 178.71 193.855 178.795C195.223 179.007 196.242 178.329 197.236 177.58C198.33 177.119 199.316 176.695 198.838 176.134C199.557 175.642 200.734 175.071 199.187 175.043C198.907 174.938 198.628 174.832 198.349 174.727C198.577 174.567 198.792 174.371 199.055 174.199C199.638 174.361 200.383 174.061 201.105 173.81C202.703 173.983 203.653 172.642 205.1 172.382C205.907 172.142 206.462 172.111 206.01 172.672C205.289 173.973 206.816 173.362 208.201 172.921C209.673 172.733 210.993 171.991 212.352 171.479C212.894 171.291 213.399 171.115 213.941 170.927C215.234 170.922 216.25 170.003 217.443 169.71C217.623 169.647 217.804 169.585 217.984 169.522C218.901 169.365 220.072 169.241 220.499 168.608C220.76 168.194 219.774 168.617 219.316 168.696C218.88 168.605 218.371 168.539 218.403 168.164C218.571 168.065 218.751 168.003 218.968 167.927C219.798 167.639 220.665 167.338 221.495 167.049C221.748 166.961 222.001 166.874 222.253 166.786C224.203 166.108 226.152 165.431 228.102 164.754C228.235 164.788 228.333 164.835 228.442 164.918C228.227 165.114 227.976 165.323 227.761 165.519C227.365 165.778 227.006 166.024 226.61 166.283C225.671 166.609 224.455 166.951 224.365 167.507C224.319 167.725 225.45 167.252 226.076 167.074C225.672 167.659 226.313 167.639 227.108 167.484C228.435 167.225 228.742 166.714 228.881 166.181C229.951 165.768 231.022 165.356 232.093 164.944C233.666 165.165 234.679 164.004 235.979 163.553C237.58 163.037 239.22 162.75 240.782 162.005C242.096 161.711 243.261 161.104 244.451 160.569C245.166 160.765 245.877 160.599 246.546 159.962C248.097 159.302 249.874 159.291 251.276 158.319C252.211 157.751 253.52 158.024 254.332 157.217C255.018 156.979 255.668 156.753 256.353 156.514C258.231 155.862 260.108 155.21 261.949 154.57C263.327 154.576 264.307 153.67 265.547 153.28C266.197 153.054 266.859 152.864 267.545 152.626C268.231 152.388 268.917 152.149 269.567 151.923C272.166 151.02 274.901 150.272 277.277 148.962C278.108 148.673 278.974 148.372 279.841 148.071C281.267 148.101 282.672 147.37 284.104 146.832C284.512 146.61 284.92 146.387 285.328 146.164C286.592 145.725 287.879 145.238 289.143 144.799C289.432 144.698 289.684 144.611 289.961 144.474C291.02 144.146 292.067 143.783 293.163 143.442C292.996 143.662 292.83 143.882 292.663 144.101C290.762 144.802 289.779 145.467 290.923 146.08C291.215 146.221 288.56 147.548 291.342 146.702C292.473 146.35 294.198 146.074 293.428 145.371C292.903 144.907 294.37 144.357 294.233 143.96C294.832 143.59 295.43 143.099 296.195 143.319C296.549 143.64 297.968 143.066 298.203 143.51C297.819 143.684 297.241 143.885 297.062 144.068C296.644 144.496 297.354 144.209 297.668 144.181C299.057 144.103 300.137 143.485 301.168 142.844C301.856 142.726 302.53 142.572 303.218 142.455C303.759 142.267 304.35 142.102 304.587 141.737C305.188 141.487 305.777 141.202 306.378 140.953C306.919 140.765 307.412 140.553 307.675 140.26C309.431 139.609 310.896 138.817 312.056 137.848C313.499 137.226 314.675 136.534 315.474 135.691C315.928 135.25 316.369 134.773 316.787 134.345C318.195 133.856 317.9 133.473 317.762 133.077C317.99 132.917 318.169 132.733 318.397 132.573C319.431 132.174 320.406 131.835 321.232 131.184C322.741 130.054 321.607 130.286 320.353 130.519C321.55 129.538 320.283 129.735 319.425 129.71C320.227 129.108 321.354 128.393 319.758 128.341C319.001 127.675 321.536 127.401 321.625 126.844C321.732 126.686 321.875 126.515 321.982 126.356C322.737 125.851 323.346 125.276 324.466 124.887C326.224 124.357 327.599 123.192 329.566 122.913C330.495 122.792 332.111 122.554 332.236 121.864C332.348 121.138 330.593 121.909 329.663 122.03C329.47 122.057 329.324 121.986 329.168 122C328.932 121.557 331.899 121.011 330.48 120.655C329.244 120.357 328.964 121.182 328.294 121.698C326.774 122.913 326.87 121.909 326.313 121.82C327.021 121.412 327.924 121.099 328.111 120.589C328.327 120.514 328.544 120.439 328.712 120.34C330.203 119.741 332.036 119.427 333.337 118.046C331.858 118.681 331.132 117.64 329.675 119.035C327.954 119.673 326.323 120.685 324.498 120.672C326.084 119.879 326.844 118.806 328.709 118.118C328.902 118.091 329.082 118.029 329.25 117.93C330.225 117.591 331.31 117.335 332.102 116.939C333.267 116.332 332.795 116.254 331.71 116.509C330.565 116.705 329.58 117.249 328.51 117.662C327.847 117.851 327.031 118.297 326.568 118.013C326.856 117.792 327.408 117.519 327.43 117.35C327.474 117.011 326.934 117.32 326.537 117.458C325.575 117.832 324.625 118.243 323.712 118.642C324.395 117.232 326.56 116.359 328.845 115.484C328.243 114.682 326.261 115.614 325.065 115.665L325.029 115.678C323.398 115.759 321.852 116.782 320.248 117.056C319.943 116.879 319.627 116.666 319.358 116.476C320.926 116.214 320.057 115.344 321.492 115.048C322.288 114.892 323.063 115.027 323.937 114.4C323.413 114.057 322.5 114.455 321.657 114.707C320.604 114.588 319.452 115.231 318.307 115.548C317.817 114.95 319.264 114.69 319.948 114.331C320.998 114.209 321.521 113.501 322.449 113.26C323.693 113.232 324.362 112.595 325.395 112.075C324.441 112.123 323.757 112.482 323.071 112.721C322.066 112.625 321.263 113.106 320.471 113.624C319.605 113.925 318.762 114.177 317.895 114.478C317.363 114.461 316.831 114.444 316.3 114.426C316.311 114.342 316.345 114.208 316.356 114.124C317.509 113.481 319.371 113.602 320.119 112.493C320.299 112.43 320.48 112.368 320.612 112.281C322.164 111.742 323.765 111.226 325.318 110.687C327.76 109.798 330.253 109.053 332.877 108.222C330.675 108.987 329.856 108.261 328.227 108.463C327.516 108.63 326.841 108.783 326.118 108.913C325.035 109.29 323.952 109.666 322.868 110.042C321.845 110.358 320.87 110.696 319.847 111.011C319.761 110.88 319.674 110.748 319.601 110.652C320.942 109.62 322.857 109.076 324.723 108.509ZM22.8686 221.186C22.856 221.15 22.856 221.15 22.8435 221.114C22.9643 221.112 23.0726 221.075 23.1809 221.037C23.0852 221.111 22.9282 221.125 22.8686 221.186ZM26.9694 218.549C26.9694 218.549 26.9333 218.561 26.9207 218.525C26.9568 218.513 26.9929 218.5 27.029 218.487C26.9929 218.5 26.9568 218.513 26.9694 218.549ZM34.0084 208.181C34.0445 208.168 34.0806 208.156 34.1041 208.107C34.1528 208.131 34.2124 208.07 34.225 208.106C34.1653 208.167 34.0806 208.156 34.0084 208.181ZM32.7996 199.345C32.7871 199.309 32.751 199.321 32.7745 199.273C32.9676 199.246 33.1356 199.147 33.3286 199.121C33.1842 199.171 33.0162 199.27 32.7996 199.345ZM38.5591 203.811C38.5591 203.811 38.5466 203.775 38.5827 203.762L38.6313 203.786C38.6078 203.834 38.5952 203.798 38.5591 203.811ZM34.3725 191.644C34.3725 191.644 34.396 191.596 34.3725 191.644C34.4086 191.632 34.3725 191.644 34.3725 191.644ZM36.7291 187.713C36.1735 187.745 35.657 188.005 35.1766 188.253C35.7432 188.137 36.2848 187.948 36.7401 187.629C36.704 187.641 36.7165 187.677 36.7291 187.713ZM41.1113 196.134C41.1474 196.121 41.1113 196.134 41.1113 196.134V196.134ZM44.305 193.448C44.4008 193.374 44.5091 193.336 44.5563 193.239C44.5688 193.275 44.5813 193.311 44.5938 193.347C44.4855 193.385 44.4133 193.41 44.305 193.448ZM44.9848 190.746C44.9487 190.759 44.9 190.735 44.8278 190.76C44.8639 190.748 44.8639 190.748 44.9 190.735C44.9722 190.71 45.057 190.721 45.1292 190.696C45.0931 190.708 45.057 190.721 44.9848 190.746Z" fill="#E7D6FF"/>
<path d="M174.167 181.755C171.896 181.857 171.133 182.688 169.755 183.611C171.841 183.21 172.908 182.556 174.167 181.755Z" fill="#E7D6FF"/>
<path d="M177.87 184.025C177.246 184.444 176.623 184.863 175.731 185.092C174.849 185.115 174.132 184.798 172.884 185.515C172.997 185.839 174.214 185.498 173.954 186.032C177.139 185.532 178.424 184.924 178.026 184.011C178.838 183.204 180.551 182.892 181.774 182.103C178.169 182.79 177.796 183 177.87 184.025Z" fill="#E7D6FF"/>
<path d="M150.006 194.313C150.452 194.198 150.86 193.976 150.942 193.745C151.116 193.199 150.319 193.234 149.545 193.22C149.33 193.416 149.079 193.624 148.864 193.82C149.108 194.059 148.957 194.556 150.006 194.313Z" fill="#E7D6FF"/>
<path d="M167.494 185.488C167.266 185.648 167.268 185.769 167.473 185.778C168.934 185.675 170.188 185.441 170.224 184.378C169.113 184.441 168.458 185.234 167.494 185.488Z" fill="#E7D6FF"/>
<path d="M122.85 202.212C123.817 201.269 123.364 200.78 123.261 200.25L123.14 200.252C122.725 200.921 121.275 201.87 122.85 202.212Z" fill="#E7D6FF"/>
<path d="M135.587 197.18C136.018 196.909 135.956 196.729 135.617 196.685C135.024 196.608 134.383 196.628 133.726 197.18C132.908 197.505 132.09 197.829 131.236 198.166C131.261 198.239 131.31 198.262 131.335 198.334C132.178 198.082 133.044 197.781 133.887 197.528C134.277 197.837 134.891 197.624 135.587 197.18Z" fill="#E7D6FF"/>
<path d="M181.592 180.065C181.69 180.232 181.743 180.618 182.393 180.392C183.188 180.116 183.062 179.756 183.083 179.466C183.045 179.357 183.02 179.285 182.947 179.19C181.981 179.323 181.308 179.597 181.592 180.065Z" fill="#E7D6FF"/>
<path d="M215.521 171.631C216.989 171.081 217.963 170.742 219.287 170.242C217.752 170.249 216.714 170.408 215.521 171.631Z" fill="#E7D6FF"/>
<path d="M168.419 186.986C169.191 186.879 169.864 186.605 170.449 185.957C169.458 186.018 168.651 186.258 168.017 186.761C167.945 186.786 168.19 187.025 168.419 186.986Z" fill="#E7D6FF"/>
<path d="M187.109 180.573C186.412 180.896 185.588 180.737 184.797 181.255C185.548 181.438 186.33 181.126 187.065 180.911C187.525 180.954 187.83 181.252 188.586 180.747C188.849 180.574 189.05 180.222 188.904 180.151C188.489 179.77 187.757 180.226 187.109 180.573Z" fill="#E7D6FF"/>
<path d="M251.173 159.769C252.623 159.751 253.598 159.412 254.471 158.664C253.535 159.232 252.589 158.954 251.173 159.769Z" fill="#E7D6FF"/>
<path d="M165.205 185.071C165.259 185.577 165.287 185.891 165.328 186.241C164.692 186.623 164.02 187.018 163.324 187.462C165.198 187.498 165.992 186.172 167.486 185.814C167.497 185.73 167.459 185.621 167.506 185.524L167.47 185.537C166.803 185.364 166.113 185.24 165.205 185.071Z" fill="#E7D6FF"/>
<path d="M71.0323 219.366C70.4908 219.555 70.3243 219.774 70.3995 219.991C70.4496 220.135 70.6441 220.229 71.305 219.918C71.4369 219.832 71.9047 219.548 71.9268 219.379C71.9961 219.112 71.5017 219.203 71.0323 219.366Z" fill="#E7D6FF"/>
<path d="M158.396 188.649C158.035 188.775 157.505 188.878 157.545 189.228C157.738 189.201 158.077 189.245 158.209 189.159C158.558 188.997 158.796 188.753 159.096 188.568C158.867 188.607 158.613 188.574 158.396 188.649Z" fill="#E7D6FF"/>
<path d="M159.676 189.538C158.885 190.056 159.155 190.366 160.253 190.267C161.328 190.217 162.414 190.082 163.579 189.476C163.747 189.377 163.925 189.073 163.791 189.038C162.942 188.808 161.771 189.861 160.862 189.692C160.63 189.49 160.335 189.107 159.676 189.538Z" fill="#E7D6FF"/>
<path d="M250.668 160.996C250.778 161.079 251.128 161.038 251.393 160.986C251.694 160.922 251.958 160.75 251.811 160.558C251.618 160.585 251.364 160.552 251.098 160.604C250.725 160.693 250.51 160.889 250.668 160.996Z" fill="#E7D6FF"/>
<path d="M226.18 168.655C227.488 167.877 228.072 168.16 228.909 167.424C228.113 167.579 227.472 167.6 226.18 168.655Z" fill="#E7D6FF"/>
<path d="M282.501 148.157C282.694 148.131 282.948 148.164 283.08 148.077C283.32 147.954 283.656 147.756 283.655 147.635C283.677 147.466 283.327 147.507 282.834 147.718C282.787 147.816 282.644 147.986 282.501 148.157Z" fill="#E7D6FF"/>
<path d="M122.789 203.203C121.325 203.065 119.844 203.458 118.079 204.435C119.363 204.636 120.418 203.946 121.394 203.728C121.51 204.294 122.519 203.822 123.072 203.549C123.66 203.264 123.188 203.186 122.789 203.203Z" fill="#E7D6FF"/>
<path d="M132.987 199.013C131.127 199.134 130.751 200.032 129.974 200.707C129.919 201.13 128.255 201.466 128.625 202.065C129.597 201.484 130.855 201.613 131.644 200.854C131.739 200.78 131.049 200.657 130.697 200.577C132.164 199.905 133.937 199.653 135.231 198.719C136.013 198.407 137.483 198.098 136.222 197.728C135.065 198.008 133.811 198.242 132.987 199.013Z" fill="#E7D6FF"/>
<path d="M61.6418 221.336C61.4518 221.604 61.8253 221.514 62.0906 221.463C62.5363 221.348 62.9695 221.198 63.0874 220.955C63.1346 220.858 62.7831 220.778 62.5539 220.817C61.9984 220.848 61.8083 221.116 61.6418 221.336Z" fill="#E7D6FF"/>
<path d="M138.029 149.244C138.924 149.256 139.655 148.8 140.435 148.367C139.677 148.631 138.759 148.667 138.029 149.244Z" fill="#E7D6FF"/>
<path d="M301.445 104.511C302.227 104.199 302.889 104.01 303.486 103.398C302.693 103.795 301.847 103.806 301.445 104.511Z" fill="#E7D6FF"/>
</g>
<defs>
<clipPath id="clip0_2378_844">
<rect width="334.268" height="50.2449" fill="white" transform="translate(0 117.668) rotate(-19.1593)"/>
</clipPath>
<clipPath id="clip1_2378_844">
<rect width="334.268" height="50.2449" fill="white" transform="translate(8.75635 192.097) rotate(-19.1593)"/>
</clipPath>
</defs>
</svg>
