<svg width="70" height="70" viewBox="0 0 70 70" fill="none" xmlns="http://www.w3.org/2000/svg">
<circle cx="35" cy="35" r="35" fill="#D6FFD8"/>
<g clip-path="url(#clip0_948_7573)">
<path d="M40.7813 16H41.5547C43.8594 16.0625 46.1485 16.8047 48.0313 18.1484C50.0469 19.5625 51.586 21.6328 52.375 23.9609C52.7735 25.125 52.9688 26.3594 53 27.5859V27.9062C52.9532 30.2812 52.1797 32.6328 50.7813 34.5547C48.9532 37.1172 46.0469 38.8906 42.9219 39.3203C40.7813 39.625 38.5469 39.3203 36.5703 38.4453C34.25 37.4297 32.2813 35.6328 31.0469 33.4219C29.836 31.2812 29.3438 28.75 29.6485 26.3125C29.9219 23.9609 30.9453 21.7031 32.5235 19.9375C32.5391 19.9219 32.5547 19.8984 32.5703 19.8828C32.711 20.0078 32.9219 20.1172 32.9922 20.2578C33.1407 20.3906 33.3985 20.4609 33.4375 20.6641C33.4297 20.6719 33.4219 20.6875 33.4063 20.6953C31.9063 22.3672 30.961 24.5312 30.7735 26.7734C30.5782 28.9062 31.0547 31.1016 32.1328 32.9609C33.4532 35.2578 35.6641 37.0469 38.211 37.7969C39.9297 38.3438 41.7969 38.3984 43.5547 38.0156C45.7813 37.5312 47.8282 36.2891 49.3047 34.5547C50.6094 33.0312 51.4688 31.125 51.7344 29.1328C52.0235 27.0234 51.6563 24.8203 50.6797 22.9297C49.586 20.7812 47.7422 19.0312 45.5391 18.0625C43.3203 17.0781 40.7578 16.8984 38.4219 17.5625C36.8828 17.9844 35.4532 18.7891 34.2578 19.8438C34.25 19.8516 33.4532 20.6484 33.4453 20.6562C33.3125 20.5078 33.1328 20.3984 33 20.25C32.875 20.1094 32.6797 20.0312 32.5625 19.8906C32.5782 19.8828 33.4766 18.9766 33.4922 18.9609C35.4766 17.1797 38.1016 16.1328 40.7813 16Z" fill="#1C2436"/>
<path d="M17.5625 22.4376C18.2031 21.8048 19.3359 21.8204 19.9766 22.461C21.8438 24.3204 23.7031 26.1876 25.5625 28.047C25.7891 28.2657 26.0234 28.4923 26.1484 28.7892C26.4531 29.422 26.3203 30.2267 25.8359 30.7267C25.0547 31.5236 24.25 32.3126 23.4609 33.1095C22.8281 33.7501 22.8359 34.8829 23.4766 35.5236C26.7969 38.8439 30.1172 42.1642 33.4375 45.4845C34.1094 46.2032 35.3672 46.1642 36.0078 45.422C36.7578 44.672 37.5078 43.9142 38.2656 43.1642C38.9062 42.5314 40.0313 42.5392 40.6719 43.172C42.6328 45.1251 44.5859 47.0782 46.5312 49.0314C47.1562 49.6564 47.1797 50.7501 46.5859 51.3986C46.1172 51.8907 45.625 52.3595 45.1484 52.8439C44.4922 53.4923 43.875 54.1876 43.0938 54.6954C41.9453 55.4845 40.5781 55.9142 39.1875 56.0001H38.5C36.9453 55.922 35.4062 55.3751 34.1797 54.422C33.7188 54.0782 33.3281 53.6564 32.9219 53.2579C30.4688 50.8048 25.2031 45.547 22.75 43.1017C22.8828 42.9689 23.0156 42.8282 23.1562 42.6954C23.2969 42.5548 23.4375 42.4142 23.5781 42.2736C26.1484 44.8361 31.5312 50.2111 34.1016 52.7814C35.4375 54.2189 37.4375 54.9923 39.3984 54.8048C40.7969 54.6876 42.1484 54.0939 43.1797 53.1407C43.5312 52.8126 43.8594 52.4689 44.2031 52.1329C43.9531 51.8751 43.6953 51.6173 43.4375 51.3673C41.4844 49.4142 39.5312 47.4611 37.5781 45.5079C37.2344 45.8361 36.9141 46.1954 36.5547 46.5079C35.6953 47.2345 34.3984 47.3829 33.3906 46.8673C32.8438 46.6095 32.4531 46.1407 32.0234 45.7267C29.0391 42.7423 26.0547 39.7579 23.0703 36.7736C22.7891 36.4845 22.4766 36.2111 22.2656 35.8673C21.7266 35.0236 21.6719 33.9064 22.1172 33.0079C22.4219 32.3595 23.0156 31.9298 23.4844 31.4142C21.2734 29.2111 19.0703 26.9923 16.8594 24.7892C16.3281 25.3282 15.7578 25.8282 15.3281 26.4611C14.4375 27.7267 14.0312 29.3282 14.2109 30.8595C14.3359 32.1251 14.8594 33.3439 15.6797 34.3204C15.9219 34.6017 16.1875 34.8595 16.4531 35.1251C18.9453 37.6173 21.4297 40.1017 23.9219 42.5939C23.7812 42.7345 23.6406 42.8751 23.5 43.0157C23.3672 43.1486 23.2344 43.2892 23.0938 43.422C20.4453 40.7736 17.8047 38.1329 15.1562 35.4845C13.8672 34.172 13.1094 32.3751 13 30.547V29.8126C13.0938 27.9923 13.8281 26.2111 15.1016 24.9064C15.9219 24.0782 16.7422 23.2579 17.5625 22.4376ZM18.3906 23.2735C18.1484 23.4923 17.9297 23.7345 17.6953 23.9611C19.9062 26.172 22.1094 28.3829 24.3203 30.5861C24.5469 30.3517 24.7891 30.1329 25.0156 29.8829C25.2188 29.6486 25.1641 29.2657 24.9297 29.0626C23.0156 27.1486 21.1016 25.2267 19.1797 23.3204C18.9844 23.1095 18.6172 23.0782 18.3906 23.2735ZM39.1094 43.9767C38.8672 44.1954 38.6406 44.4376 38.4062 44.672C40.6094 46.8829 42.8203 49.0861 45.0312 51.297C45.2578 51.0626 45.5 50.8439 45.7188 50.5939C45.9062 50.3751 45.875 50.0157 45.6641 49.8204C43.7734 47.8829 41.8438 45.9923 39.9297 44.0704C39.7344 43.8361 39.3516 43.7814 39.1094 43.9767Z" fill="#1C2436"/>
<path d="M37.1094 23.5391C40.2422 23.1953 43.375 22.8438 46.5 22.5C46.1562 25.6328 45.8047 28.7656 45.4531 31.8906C44.75 31.1953 44.0547 30.4844 43.3516 29.7891C42.25 30.8906 41.1406 32 40.0391 33.1016C38.6562 31.7188 37.2812 30.3359 35.8984 28.9609C37 27.8594 38.1094 26.75 39.2109 25.6484C38.5078 24.9375 37.8047 24.2422 37.1094 23.5391ZM39.6641 24.4375C40.0625 24.8438 40.4688 25.2422 40.8672 25.6406C39.7656 26.75 38.6562 27.8516 37.5547 28.9531C38.3828 29.7813 39.2109 30.6094 40.0391 31.4375C41.1484 30.3359 42.25 29.2266 43.3594 28.125C43.7578 28.5312 44.1641 28.9297 44.5625 29.3359C44.7656 27.5 44.9687 25.6562 45.1797 23.8203C43.3359 24.0313 41.5 24.2344 39.6641 24.4375Z" fill="#1C2436"/>
<path d="M24.3281 43.8359C24.4687 43.6953 24.6094 43.5547 24.75 43.4141C25.0234 43.6875 25.2969 43.9609 25.5781 44.2422C25.4375 44.3828 25.2969 44.5234 25.1563 44.6641C25.0234 44.7969 24.8906 44.9375 24.75 45.0703C24.4766 44.7969 24.1953 44.5234 23.9219 44.2422C24.0547 44.1094 24.1953 43.9687 24.3281 43.8359Z" fill="#1C2436"/>
<path d="M38.4138 17.5704C40.7497 16.8985 43.3122 17.086 45.531 18.0704C47.7341 19.0391 49.5778 20.7891 50.6716 22.9376C51.6481 24.836 52.0153 27.0313 51.7263 29.1407C51.4606 31.1329 50.6013 33.0391 49.2966 34.5626C47.82 36.2969 45.7731 37.5391 43.5466 38.0235C41.7888 38.4063 39.9216 38.3516 38.2028 37.8048C37.9372 37.6016 37.6247 37.461 37.3435 37.2891C35.2731 36.0626 33.6247 34.1485 32.7185 31.9141C31.781 29.6251 31.6481 27.0235 32.3356 24.6485C32.9997 22.2969 34.4763 20.1954 36.445 18.7579C37.0622 18.2891 37.7341 17.9219 38.4138 17.5704ZM43.031 18.9219C43.0153 19.3126 43.0153 19.711 43.031 20.1016C43.4216 20.1173 43.82 20.1173 44.2106 20.1016C44.2263 19.711 44.2263 19.3126 44.2106 18.9219C43.82 18.9063 43.4294 18.9063 43.031 18.9219ZM45.3747 20.0938C45.3669 20.4844 45.3591 20.8829 45.3747 21.2735C45.7653 21.2891 46.1638 21.2813 46.5544 21.2735C46.57 20.8829 46.57 20.4844 46.5544 20.0938C46.1638 20.0782 45.7731 20.0782 45.3747 20.0938ZM37.1091 23.5391C37.8122 24.2423 38.5153 24.9376 39.2106 25.6485C38.1091 26.7501 36.9997 27.8594 35.8981 28.961C37.281 30.3438 38.6638 31.7188 40.0388 33.1016C41.1481 32.0001 42.2497 30.8907 43.3513 29.7891C44.0544 30.4844 44.7575 31.1876 45.4528 31.8907C45.8044 28.7579 46.1481 25.6329 46.4997 22.5001C43.3669 22.8516 40.2341 23.1954 37.1091 23.5391Z" fill="#EBFA9E"/>
<path d="M34.2259 19.875C35.429 18.8047 36.8665 18 38.4134 17.5703C37.7337 17.9219 37.054 18.2812 36.4446 18.75C34.4759 20.1953 33.0071 22.2969 32.3352 24.6406C31.6477 27.0156 31.7806 29.6172 32.7181 31.9062C33.6165 34.1328 35.2727 36.0547 37.3431 37.2812C37.6321 37.4531 37.9368 37.5938 38.2024 37.7969C35.6556 37.0469 33.4446 35.2578 32.1243 32.9609C31.0462 31.1016 30.5774 28.9141 30.7649 26.7734C30.9602 24.5156 31.9134 22.3438 33.429 20.6641L34.2259 19.875Z" fill="#EBFA9E"/>
<path d="M43.0312 18.9219C43.4219 18.9063 43.8203 18.9063 44.2109 18.9219C44.2266 19.3125 44.2266 19.7109 44.2109 20.1016C43.8203 20.1172 43.4219 20.1172 43.0312 20.1016C43.0234 19.7109 43.0234 19.3125 43.0312 18.9219Z" fill="#E5ECF5"/>
<path d="M45.375 20.0937C45.7656 20.0781 46.1641 20.0781 46.5547 20.0937C46.5625 20.4844 46.5703 20.8828 46.5547 21.2734C46.1641 21.2812 45.7656 21.2891 45.375 21.2734C45.3672 20.8828 45.3672 20.4844 45.375 20.0937Z" fill="#E5ECF5"/>
<path d="M16.8679 24.7891C19.0788 27 21.2819 29.2109 23.4929 31.4141C23.0163 31.9297 22.4304 32.3594 22.1257 33.0078C21.6804 33.8984 21.7351 35.0234 22.2741 35.8672C22.4929 36.2109 22.7976 36.4844 23.0788 36.7734C26.0632 39.7578 29.0476 42.7422 32.0319 45.7266C32.4538 46.1406 32.8444 46.6172 33.3991 46.8672C34.4069 47.3828 35.696 47.2344 36.5632 46.5078C36.9226 46.1953 37.2429 45.8359 37.5866 45.5078C39.5397 47.4609 41.4929 49.4141 43.446 51.3672C42.446 52.2266 41.2038 52.7969 39.9069 52.9922C37.7272 53.3359 35.4147 52.5859 33.8679 51.0078C28.0866 45.2266 22.3054 39.4453 16.5241 33.6641C15.9147 33.0469 15.2663 32.4609 14.7819 31.7344C14.5866 31.4531 14.4538 31.125 14.2272 30.8672C14.0476 29.3281 14.4538 27.7266 15.3444 26.4688C15.7663 25.8281 16.3444 25.3281 16.8679 24.7891Z" fill="#E5ECF5"/>
<path d="M18.3906 23.2734C18.6172 23.0781 18.9844 23.1093 19.1875 23.3281C21.1094 25.2421 23.0156 27.1562 24.9375 29.0703C25.1719 29.2656 25.2266 29.6484 25.0234 29.8906C24.8047 30.1328 24.5625 30.3593 24.3281 30.5937C22.1172 28.3828 19.9062 26.1718 17.7031 23.9687C17.9297 23.7343 18.1484 23.4921 18.3906 23.2734Z" fill="#E8E7EE"/>
<path d="M39.1094 43.9766C39.3516 43.7735 39.7344 43.8282 39.9297 44.0625C41.8359 45.9844 43.7656 47.8829 45.6641 49.8125C45.8828 50.0079 45.9141 50.3672 45.7187 50.586C45.5 50.836 45.2578 51.0547 45.0312 51.2891C42.8203 49.086 40.6094 46.875 38.4062 44.6641C38.6484 44.4454 38.8672 44.2032 39.1094 43.9766Z" fill="#E8E7EE"/>
<path d="M39.6641 24.4375C41.5 24.2344 43.3359 24.0312 45.1797 23.8203C44.9766 25.6562 44.7734 27.5 44.5625 29.3359C44.1641 28.9297 43.7578 28.5312 43.3594 28.125C42.25 29.2266 41.1484 30.3359 40.0391 31.4375C39.2109 30.6094 38.3828 29.7813 37.5547 28.9531C38.6562 27.8516 39.7656 26.7422 40.8672 25.6406C40.4609 25.2422 40.0625 24.8438 39.6641 24.4375Z" fill="#4DF189"/>
<path d="M14.2188 30.8594C14.4453 31.1172 14.5781 31.4453 14.7734 31.7266C15.25 32.4531 15.9062 33.0391 16.5156 33.6563C22.2969 39.4375 28.0781 45.2187 33.8594 51C35.4062 52.5703 37.7266 53.3281 39.8984 52.9844C41.2031 52.7891 42.4453 52.2188 43.4375 51.3594C43.6953 51.6172 43.9531 51.8672 44.2031 52.125C43.8594 52.4609 43.5312 52.8047 43.1797 53.1328C42.1484 54.0859 40.7969 54.6719 39.3984 54.7969C37.4453 54.9844 35.4375 54.2109 34.1016 52.7734C31.5312 50.2031 18.9375 37.6094 16.4453 35.1172C16.1797 34.8516 15.9141 34.6016 15.6719 34.3125C14.8672 33.3516 14.3359 32.125 14.2188 30.8594Z" fill="#B0C5E0"/>
</g>
<defs>
<clipPath id="clip0_948_7573">
<rect width="40" height="40" fill="white" transform="translate(13 16)"/>
</clipPath>
</defs>
</svg>
