<svg width="22" height="19" viewBox="0 0 22 19" fill="none" xmlns="http://www.w3.org/2000/svg">
<g clip-path="url(#clip0_1158_8250)">
<path d="M20.8298 0.0596302C21.005 0.0168855 21.2059 -0.0472315 21.3684 0.0510812C21.5265 0.145119 21.5479 0.354568 21.5051 0.516998C21.1717 2.02161 20.8298 3.52622 20.4964 5.02656C20.4622 5.17617 20.4023 5.35569 20.2399 5.41126C20.0988 5.45828 19.9578 5.37279 19.8552 5.27875C19.4961 4.92825 19.1499 4.56492 18.7866 4.21441C18.684 4.10327 18.5216 4.14602 18.419 4.22723C16.9144 5.27448 15.2986 6.15502 13.6401 6.93724C12.2552 7.58269 10.8275 8.13837 9.3742 8.60001C7.54473 9.16852 5.66824 9.60451 3.76183 9.81823C2.80007 9.93792 1.8255 10.0063 0.855192 9.98066C0.389275 9.98066 -0.0125246 9.55749 0.000298759 9.09585V9.06165C0.0259456 8.79664 0.162728 8.54017 0.389275 8.39056C0.624371 8.21958 0.923583 8.23668 1.19715 8.24523C3.42415 8.20676 5.63404 7.82206 7.77983 7.24073C9.63922 6.7278 11.4559 6.04388 13.1956 5.21464C14.5634 4.55637 15.9013 3.82543 17.158 2.97482C17.2563 2.91925 17.3589 2.77392 17.2478 2.67988C16.94 2.37212 16.6237 2.0729 16.3159 1.76514C16.2176 1.66683 16.1193 1.53005 16.1578 1.38044C16.1962 1.22228 16.3587 1.14962 16.4997 1.11542C17.9445 0.760643 19.3893 0.414411 20.8298 0.0596302Z" fill="#4DF189"/>
<path d="M15.9217 7.68134C16.1183 7.42915 16.4389 7.29237 16.7552 7.30092C18.0931 7.30092 19.4353 7.30092 20.7732 7.30092C20.9613 7.30092 21.1579 7.32229 21.3246 7.41205C21.6537 7.57448 21.8674 7.92071 21.8803 8.28404V18.0469C21.8546 18.5855 21.3545 19.0386 20.8116 19.0044C19.5592 19.0044 18.3025 19.0044 17.0501 19.0044C16.8791 19.0044 16.7082 19.013 16.5372 18.9873C16.1781 18.9317 15.8661 18.6624 15.7507 18.3162C15.678 18.1068 15.6951 17.8845 15.6951 17.6665C15.6951 14.5761 15.6951 11.4813 15.6951 8.3909C15.6951 8.13444 15.7635 7.87797 15.9217 7.68134Z" fill="#4DF189"/>
<path d="M9.2503 9.99367C10.6267 9.98084 12.0031 9.99367 13.3794 9.98939C13.6188 9.98512 13.871 10.045 14.0633 10.1946C14.3284 10.3869 14.478 10.7118 14.4737 11.0366C14.4737 13.2722 14.4737 15.512 14.4737 17.7475C14.4737 17.9185 14.478 18.0938 14.431 18.2605C14.3412 18.5982 14.0591 18.8717 13.7214 18.9615C13.5803 19 13.435 19 13.2897 19C11.9646 19 10.6395 19 9.31442 19C8.95964 19.0085 8.60913 18.8162 8.4296 18.5084C8.32274 18.3331 8.28 18.128 8.28427 17.9228C8.28427 15.7856 8.28427 13.6483 8.28427 11.5111C8.29282 11.2589 8.2629 11.0067 8.31419 10.7588C8.41678 10.3313 8.81431 10.0065 9.2503 9.99367Z" fill="#4DF189"/>
<path d="M1.80352 12.4172C3.06876 12.4001 4.33401 12.4129 5.59925 12.4086C5.89419 12.4172 6.20622 12.3744 6.47979 12.5112C6.83029 12.6736 7.06539 13.0455 7.05684 13.4302C7.06112 14.9391 7.05684 16.4523 7.05684 17.9611C7.07394 18.4185 6.74053 18.8545 6.29599 18.9656C6.13783 19.0041 5.97113 18.9998 5.8087 18.9998C4.49643 18.9998 3.18845 19.0041 1.87619 18.9998C1.50003 18.9998 1.14098 18.7733 0.97855 18.4356C0.884511 18.2518 0.867414 18.0424 0.871688 17.8372C0.875962 16.3582 0.867414 14.875 0.875962 13.396C0.880237 12.8916 1.30341 12.4428 1.80352 12.4172Z" fill="#4DF189"/>
</g>
<defs>
<clipPath id="clip0_1158_8250">
<rect width="21.8853" height="19" fill="white"/>
</clipPath>
</defs>
</svg>
