<svg width="71" height="80" viewBox="0 0 71 80" fill="none" xmlns="http://www.w3.org/2000/svg">
<g clip-path="url(#clip0_283_789)">
<path d="M17.0939 0H53.3595C55.172 0.078125 56.9376 0.8125 58.2345 2.07812C59.6876 3.46875 60.5314 5.46875 60.5157 7.5C60.5157 13.6406 60.5314 19.7969 60.5157 25.9375C60.547 26.5938 59.9689 27.0781 59.3595 27.1562C58.7345 27.1094 58.1407 26.6094 58.172 25.9531C58.1564 19.7031 58.1876 13.4531 58.1564 7.21875C58.0939 4.60938 55.7345 2.32812 53.1251 2.39062C41.297 2.34375 29.4689 2.39062 17.6564 2.35938C16.5939 2.34375 15.5001 2.625 14.6251 3.25C13.2657 4.125 12.4064 5.70312 12.3907 7.34375C12.3751 8.98438 12.3907 10.625 12.3907 12.2656C13.172 12.2031 13.9532 12.1875 14.7345 12.2344C14.7501 10.8125 14.7189 9.39062 14.7501 7.98438C14.8282 6.25 16.3595 4.75 18.0939 4.71875C19.547 4.70312 21.0157 4.70312 22.4845 4.71875C23.4064 4.70312 24.3282 5.23438 24.7189 6.0625C24.9532 6.5 24.922 7.01562 25.047 7.48438C25.1876 7.89062 25.6407 8.09375 26.0626 8.0625C32.2189 8.0625 38.3595 8.0625 44.5157 8.0625C44.9064 8.07812 45.3282 7.90625 45.5001 7.51562C45.6564 7.03125 45.5939 6.48438 45.8439 6.03125C46.2501 5.20312 47.172 4.64062 48.0939 4.6875C49.5626 4.6875 51.0157 4.67188 52.4845 4.70312C54.2657 4.75 55.8282 6.32812 55.8282 8.125C55.8282 18.8438 55.8282 29.5781 55.8282 40.2969C56.6095 40.2812 57.3751 40.2969 58.1564 40.375C58.1564 37.4375 58.1564 34.5 58.1564 31.5469C58.0782 30.8438 58.6564 30.2344 59.3439 30.2031C59.672 30.2812 60.0314 30.375 60.2345 30.6719C60.5314 31 60.5001 31.4531 60.5001 31.8594C60.4845 34.8281 60.5157 37.7969 60.4845 40.7656C63.297 41.5781 65.8595 43.2656 67.6564 45.5781C69.4845 47.8906 70.5157 50.7969 70.5626 53.7344C70.6407 56.5781 69.7657 59.4219 68.1407 61.75C66.3282 64.3906 63.5626 66.3594 60.4845 67.25C60.4689 69.0938 60.5001 70.9375 60.4689 72.7812C60.422 74.9219 59.3751 77.0156 57.6876 78.3438C56.4532 79.3438 54.8907 79.9062 53.3126 79.9844H17.0626C14.2814 79.8438 11.6564 78.0156 10.5939 75.4375C10.0782 74.2656 9.96886 72.9688 10.0157 71.7188C10.0157 60.8594 10.0157 50 10.0157 39.1406C7.20324 38.3125 4.62511 36.6094 2.82824 34.2812C1.20324 32.1875 0.171987 29.5625 0.000112085 26.875C-0.0780129 26.2031 0.515737 25.6875 1.12511 25.5938C1.71886 25.6562 2.28136 26.0781 2.31261 26.7031C2.46886 28.6562 3.09386 30.5625 4.20324 32.1875C6.25011 35.2812 9.84386 37.2656 13.5626 37.3281C17.0626 37.3438 20.5626 37.3281 24.047 37.3281C23.422 36.6562 22.6407 36.0938 22.172 35.2812C21.8595 34.5938 22.0001 33.7344 22.5001 33.1719C24.1564 31.1562 25.1095 28.5469 25.0939 25.9375C25.1095 23.5 24.297 21.0781 22.8282 19.1406C21.1251 16.8594 18.5626 15.2344 15.7501 14.7188C13.4845 14.2969 11.0939 14.5938 8.98449 15.5469C6.34386 16.7188 4.18761 18.9531 3.12511 21.6406C2.93761 22.3281 2.25011 22.7656 1.54699 22.5938C1.01574 22.3438 0.609487 21.75 0.812612 21.1406C2.26574 17.0469 5.84386 13.8438 10.0157 12.6875C10.0157 10.9062 10.0157 9.125 10.0157 7.34375C10.0314 5.4375 10.8126 3.5625 12.1564 2.21875C13.4689 0.890625 15.2657 0.125 17.0939 0ZM17.0782 8.14062C17.0626 9.625 17.0782 11.125 17.0782 12.6094C20.0157 13.3594 22.7032 15.0938 24.547 17.4844C26.5157 20 27.5782 23.2188 27.4532 26.4062C27.3595 29.3125 26.297 32.1719 24.5001 34.4688C25.2501 35.2188 26.0001 35.9375 26.7189 36.7031C27.7657 37.7812 26.797 39.8281 25.297 39.6875C22.547 39.6875 19.8126 39.6875 17.0782 39.6875C17.0782 50.3594 17.0782 61.0469 17.0782 71.7188C17.0314 72.375 17.5939 72.9844 18.2501 72.9688C29.3439 72.9844 40.4532 72.9688 51.547 72.9688C51.9064 72.9688 52.2814 73 52.6251 72.9219C53.1407 72.7812 53.5157 72.25 53.4689 71.7188C53.4689 70.4219 53.4689 69.125 53.4689 67.8125C50.7345 67.8125 48.0001 67.8125 45.2814 67.8125C44.5939 67.8438 43.9064 67.4844 43.5939 66.875C43.2345 66.2188 43.3282 65.3594 43.8439 64.8125C44.5626 64.0625 45.3126 63.3281 46.047 62.5938C44.1095 60.1562 43.0314 57.0312 43.0782 53.9219C43.0939 50.9219 44.1564 47.9375 46.0157 45.5781C47.8751 43.2031 50.547 41.4688 53.4689 40.7344C53.4689 30.1719 53.4689 19.625 53.4689 9.0625C53.4689 8.70312 53.4845 8.32812 53.4376 7.96875C53.3439 7.45312 52.8439 7.03125 52.3282 7.04688C50.8595 7.03125 49.4064 7.04688 47.9376 7.04688C47.9689 8.8125 46.4532 10.4219 44.672 10.4062C38.3751 10.4062 32.0782 10.4219 25.7657 10.4062C24.0157 10.375 22.5626 8.78125 22.5939 7.04688C21.1407 7.04688 19.6876 7.03125 18.2345 7.04688C17.6564 7.01562 17.0939 7.53125 17.0782 8.14062ZM12.3907 72.6562C12.3595 75.2812 14.6876 77.6406 17.3282 77.6562C26.0782 77.6719 34.8439 77.6562 43.5939 77.6562C46.8282 77.6406 50.047 77.6875 53.2814 77.625C55.2189 77.5938 57.0626 76.3125 57.7814 74.5156C58.0782 73.8281 58.1876 73.0781 58.172 72.3438C58.172 70.8125 58.172 69.2812 58.172 67.75C57.3907 67.8281 56.6251 67.8594 55.8439 67.8438C55.8439 69.2344 55.8595 70.6406 55.8439 72.0469C55.7814 73.8438 54.1251 75.3594 52.3439 75.3281C41.0001 75.3281 29.6407 75.3281 18.297 75.3281C16.8907 75.3438 15.5314 74.4375 15.0157 73.125C14.7032 72.3906 14.7657 71.5781 14.7657 70.7969C14.7657 60.4375 14.7657 50.0625 14.7657 39.7031C13.9845 39.7188 13.2032 39.7031 12.422 39.625C12.3751 50.625 12.3751 61.6406 12.3907 72.6562ZM53.5782 43.1406C51.1095 43.875 48.9064 45.5 47.4532 47.625C46.1407 49.5 45.4376 51.7812 45.4532 54.0781C45.4376 56.7031 46.3907 59.3125 48.0626 61.3438C48.6564 62.0156 48.7189 63.0938 48.1564 63.7969C47.6407 64.3906 47.047 64.9062 46.5157 65.4844C49.922 65.4844 53.3126 65.4844 56.7189 65.4844C59.4532 65.4688 62.172 64.4688 64.2345 62.6875C66.5626 60.7188 68.0782 57.7656 68.2345 54.7031C68.3595 52.5156 67.8439 50.2969 66.7501 48.3906C65.5626 46.3125 63.7032 44.625 61.5157 43.6562C59.0314 42.5469 56.1564 42.3438 53.5782 43.1406Z" fill="#1C2436"/>
<path d="M34.8595 4.10942C35.6876 3.73442 36.6876 4.60942 36.4064 5.48442C36.2345 6.29692 35.1251 6.65629 34.5158 6.09379C33.8439 5.56254 34.047 4.37504 34.8595 4.10942Z" fill="#1C2436"/>
<path d="M8.46876 24.9064C9.20314 24.4689 10.2188 25.0782 10.1875 25.922C10.2344 26.7814 9.18751 27.4064 8.45314 26.9532C7.67189 26.5626 7.67189 25.297 8.46876 24.9064Z" fill="#1C2436"/>
<path d="M13.1562 24.9062C13.8906 24.4687 14.9219 25.0781 14.8906 25.9374C14.9219 26.7968 13.8906 27.4062 13.1562 26.9531C12.3594 26.5624 12.3594 25.2968 13.1562 24.9062Z" fill="#1C2436"/>
<path d="M17.8596 24.9063C18.594 24.4688 19.6252 25.0938 19.5784 25.9532C19.6096 26.8438 18.4846 27.4532 17.7659 26.9219C17.0315 26.4688 17.0784 25.2657 17.8596 24.9063Z" fill="#1C2436"/>
<path d="M32.0784 28.0314C32.3128 27.9532 32.5628 27.9689 32.7972 27.9532C37.7034 27.9689 42.5941 27.9532 47.4847 27.9532C48.0472 27.922 48.5784 28.3595 48.6566 28.9064C48.7816 29.5001 48.3597 30.1407 47.7659 30.2657C47.3597 30.3282 46.9534 30.297 46.5472 30.297C41.9066 30.297 37.2659 30.297 32.6409 30.297C32.1566 30.3439 31.6409 30.0939 31.4222 29.6407C31.0941 29.0626 31.4378 28.2501 32.0784 28.0314Z" fill="#1C2436"/>
<path d="M29.7187 32.7344C29.9531 32.6562 30.2031 32.6719 30.4531 32.6562C36.125 32.6719 41.8125 32.6563 47.4843 32.6719C48.1406 32.6406 48.7344 33.2656 48.6719 33.9219C48.6406 34.5313 48.0937 35.0313 47.4843 35.0156C41.75 35.0313 36.0156 35.0156 30.2812 35.0156C29.7968 35.0625 29.2812 34.8125 29.0625 34.3594C28.75 33.75 29.0781 32.9375 29.7187 32.7344Z" fill="#1C2436"/>
<path d="M29.7344 37.4062C29.9688 37.3281 30.2188 37.3438 30.4532 37.3281C36.1407 37.3438 41.8282 37.3281 47.5 37.3438C48.1563 37.3125 48.75 37.9375 48.6875 38.5938C48.6563 39.2031 48.1094 39.7031 47.5 39.6719C41.7657 39.6875 36.0313 39.6719 30.2969 39.6719C29.75 39.7188 29.1875 39.4063 29.0313 38.875C28.7969 38.3125 29.1407 37.6094 29.7344 37.4062Z" fill="#1C2436"/>
<path d="M51.5937 53.0312C52.3281 52.5937 53.3594 53.2031 53.3281 54.0624C53.3594 54.9531 52.25 55.5624 51.5156 55.0468C50.7812 54.6093 50.8281 53.4062 51.5937 53.0312Z" fill="#1C2436"/>
<path d="M56.2969 53.0313C57.0313 52.5938 58.0469 53.2188 58.0157 54.0625C58.0626 54.9688 56.9219 55.5781 56.2032 55.0469C55.4688 54.5938 55.5313 53.3906 56.2969 53.0313Z" fill="#1C2436"/>
<path d="M60.969 53.0314C61.7034 52.5939 62.719 53.2032 62.6878 54.047C62.7346 54.9376 61.6096 55.5626 60.8753 55.0314C60.1565 54.6095 60.2034 53.4064 60.969 53.0314Z" fill="#1C2436"/>
<path d="M22.6877 56.1718C22.922 56.078 23.172 56.0937 23.422 56.0937C28.3127 56.1093 33.2189 56.0937 38.1095 56.0937C38.7814 56.0624 39.3752 56.6874 39.297 57.3437C39.2658 57.953 38.7189 58.453 38.1095 58.4374C33.1564 58.453 28.2033 58.4374 23.2502 58.4374C22.7033 58.4843 22.1408 58.1718 21.9689 57.6405C21.7658 57.0624 22.1095 56.3749 22.6877 56.1718Z" fill="#1C2436"/>
<path d="M22.6877 60.8593C22.9221 60.7655 23.1877 60.7812 23.4221 60.7812C29.1096 60.7968 34.7814 60.7812 40.4689 60.7812C41.1408 60.7499 41.7189 61.3749 41.6564 62.0312C41.6252 62.6405 41.0627 63.1405 40.4689 63.1093C34.7346 63.1249 29.0002 63.1093 23.2658 63.1093C22.6721 63.1718 22.0471 62.7655 21.9533 62.1562C21.8283 61.6249 22.1564 61.0312 22.6877 60.8593Z" fill="#1C2436"/>
<path d="M22.6875 65.5468C22.9219 65.453 23.1719 65.4687 23.4219 65.4687C29.1094 65.4843 34.7813 65.4687 40.4688 65.4687C41.125 65.4374 41.7188 66.0624 41.6563 66.7187C41.625 67.328 41.0625 67.8437 40.4532 67.8124C34.7188 67.828 29 67.8124 23.2657 67.8124C22.7188 67.8593 22.1563 67.5468 21.9844 67.0155C21.7657 66.4374 22.1094 65.7499 22.6875 65.5468Z" fill="#1C2436"/>
<path d="M14.6095 3.21868C15.4845 2.6093 16.5782 2.31243 17.6407 2.32805C29.4689 2.34368 41.2814 2.2968 53.1095 2.3593C55.7345 2.2968 58.0939 4.57805 58.1407 7.18743C58.172 13.4374 58.1407 19.6874 58.1564 25.9218C58.1251 26.5781 58.7032 27.0937 59.3439 27.1249C59.3439 28.1406 59.3439 29.1718 59.3439 30.1874C58.6564 30.2187 58.0782 30.8281 58.1564 31.5312C58.1564 34.4687 58.1564 37.4062 58.1564 40.3593C57.3751 40.2968 56.6095 40.2656 55.8282 40.2812C55.8282 29.5624 55.8282 18.8281 55.8282 8.1093C55.8282 6.31243 54.2657 4.7343 52.4845 4.68743C51.0157 4.65618 49.5626 4.68743 48.0939 4.6718C47.1564 4.62493 46.2501 5.18743 45.8439 6.01555C45.5782 6.46868 45.6407 7.01555 45.5001 7.49993C45.3282 7.87493 44.9064 8.06243 44.5157 8.0468C38.3595 8.0468 32.2189 8.0468 26.0626 8.0468C25.6564 8.07805 25.1876 7.87493 25.047 7.46868C24.922 6.99993 24.9532 6.4843 24.7189 6.0468C24.3126 5.20305 23.4064 4.6718 22.4845 4.70305C21.0157 4.70305 19.5626 4.68743 18.0939 4.70305C16.3595 4.7343 14.8126 6.2343 14.7501 7.96868C14.7189 9.39055 14.7501 10.8124 14.7345 12.2187C13.9532 12.1718 13.172 12.1874 12.3907 12.2499C12.3907 10.6093 12.3751 8.96868 12.3907 7.32805C12.4064 5.70305 13.2657 4.12493 14.6095 3.21868ZM34.8595 4.1093C34.0626 4.39055 33.8595 5.56243 34.5314 6.09368C35.1407 6.65618 36.2501 6.2968 36.422 5.4843C36.672 4.6093 35.6876 3.7343 34.8595 4.1093Z" fill="#E7D6FF"/>
<path d="M12.3906 72.6562C12.375 61.6406 12.375 50.625 12.3906 39.6094C13.1719 39.6875 13.9531 39.7031 14.7344 39.6875C14.7344 50.0469 14.7344 60.4219 14.7344 70.7812C14.7344 71.5625 14.6719 72.375 14.9844 73.1094C15.5 74.4219 16.8594 75.3281 18.2656 75.3125C29.6094 75.3125 40.9688 75.3125 52.3125 75.3125C54.1094 75.3438 55.75 73.8281 55.8125 72.0312C55.8438 70.625 55.8281 69.2344 55.8125 67.8281C56.5938 67.8438 57.375 67.8125 58.1406 67.7344C58.1406 69.2656 58.1406 70.7969 58.1406 72.3281C58.1563 73.0781 58.0313 73.8125 57.75 74.5C57.0313 76.2969 55.1875 77.5938 53.25 77.6094C50.0156 77.6563 46.7969 77.625 43.5625 77.6406C34.8125 77.6406 26.0625 77.6406 17.2969 77.6406C14.6875 77.6406 12.3594 75.2812 12.3906 72.6562Z" fill="#E7D6FF"/>
<path d="M17.0782 8.14073C17.0939 7.53136 17.6407 7.01573 18.2501 7.04698C19.7032 7.03136 21.1564 7.04698 22.6095 7.04698C22.5782 8.78136 24.0314 10.3751 25.7814 10.4064C32.0782 10.422 38.3751 10.422 44.6876 10.4064C46.4689 10.4376 47.9845 8.81261 47.9532 7.04698C49.422 7.04698 50.8751 7.03136 52.3439 7.04698C52.8751 7.04698 53.3595 7.45323 53.4533 7.96886C53.5001 8.32823 53.4845 8.70323 53.4845 9.06261C53.4845 19.6251 53.4845 30.172 53.4845 40.7345C50.5626 41.4845 47.8908 43.2032 46.0314 45.5782C44.172 47.9376 43.1095 50.9064 43.0939 53.922C43.047 57.047 44.1251 60.1564 46.0626 62.5939C45.3282 63.3282 44.5783 64.0626 43.8595 64.8126C43.3439 65.3439 43.2501 66.2189 43.6095 66.8751C43.922 67.4845 44.6251 67.8439 45.297 67.8126C48.0314 67.8126 50.7657 67.8126 53.4845 67.8126C53.4845 69.1095 53.4845 70.4064 53.4845 71.7189C53.5157 72.2501 53.1564 72.7814 52.6407 72.922C52.2814 73.0001 51.922 72.9689 51.5626 72.9689C40.4689 72.9689 29.3595 72.9689 18.2657 72.9689C17.6095 72.9845 17.047 72.3751 17.0939 71.7189C17.0939 61.047 17.0939 50.3595 17.0939 39.6876C19.8439 39.6876 22.5782 39.6876 25.3126 39.6876C26.8126 39.8282 27.7814 37.7657 26.7345 36.7032C26.0001 35.9532 25.2501 35.2189 24.5157 34.4689C26.3126 32.1876 27.3751 29.3282 27.4689 26.4064C27.5939 23.2189 26.547 20.0001 24.5626 17.4845C22.7032 15.0782 20.0314 13.3439 17.0939 12.6095C17.0782 11.1095 17.0626 9.62511 17.0782 8.14073ZM32.0782 28.0314C31.4376 28.2345 31.0939 29.047 31.422 29.6564C31.6407 30.1095 32.1564 30.3439 32.6407 30.3126C37.2814 30.3126 41.9064 30.3126 46.547 30.3126C46.9532 30.3126 47.3595 30.3439 47.7658 30.2814C48.3595 30.172 48.7814 29.5314 48.6564 28.922C48.5626 28.3751 48.0314 27.9376 47.4845 27.9689C42.5939 27.9532 37.6876 27.9689 32.797 27.9689C32.547 27.9689 32.3126 27.9532 32.0782 28.0314ZM29.7189 32.7345C29.0782 32.9532 28.7501 33.7501 29.0626 34.3439C29.2814 34.797 29.797 35.047 30.2814 35.0001C36.0157 35.0001 41.7501 35.0001 47.4845 35.0001C48.0939 35.0314 48.6407 34.5157 48.672 33.9064C48.7345 33.2501 48.1407 32.6251 47.4845 32.6564C41.797 32.6407 36.1251 32.6564 30.4532 32.6407C30.2189 32.6564 29.9532 32.6407 29.7189 32.7345ZM29.7345 37.4064C29.1407 37.5939 28.8126 38.3126 29.0157 38.8907C29.1876 39.422 29.7501 39.7345 30.2814 39.6876C36.0157 39.6876 41.7501 39.6876 47.4845 39.6876C48.0939 39.7189 48.6407 39.2032 48.672 38.6095C48.7345 37.9532 48.1564 37.3282 47.4845 37.3595C41.797 37.3439 36.1095 37.3595 30.4376 37.3439C30.2032 37.3439 29.9532 37.3282 29.7345 37.4064ZM22.6876 56.172C22.1095 56.3751 21.7814 57.0626 21.9845 57.6407C22.1564 58.172 22.7189 58.4845 23.2657 58.4376C28.2189 58.4376 33.172 58.4376 38.1251 58.4376C38.7345 58.4689 39.2814 57.9532 39.3126 57.3439C39.3751 56.6876 38.7814 56.0626 38.1251 56.0939C33.2345 56.0782 28.3282 56.0939 23.4376 56.0939C23.172 56.0939 22.922 56.0782 22.6876 56.172ZM22.6876 60.8595C22.172 61.047 21.8282 61.6251 21.9376 62.172C22.0314 62.7814 22.6564 63.1876 23.2501 63.1251C28.9845 63.1251 34.7189 63.1251 40.4532 63.1251C41.0626 63.1564 41.6095 62.6407 41.6408 62.047C41.7033 61.3907 41.1251 60.7657 40.4532 60.797C34.7657 60.7814 29.0939 60.797 23.4064 60.797C23.172 60.7814 22.922 60.7657 22.6876 60.8595ZM22.6876 65.547C22.1095 65.7501 21.7814 66.4376 21.9845 67.0157C22.1564 67.547 22.7189 67.8595 23.2657 67.8126C29.0001 67.8126 34.7189 67.8126 40.4532 67.8126C41.0626 67.8439 41.6251 67.3282 41.6564 66.7189C41.7189 66.0626 41.1251 65.4376 40.4689 65.4689C34.7814 65.4532 29.1095 65.4689 23.422 65.4689C23.172 65.4689 22.922 65.4532 22.6876 65.547Z" fill="#4DF189"/>
<path d="M9.01562 15.5626C11.1094 14.5938 13.5156 14.3126 15.7812 14.7345C18.5938 15.2345 21.1562 16.8595 22.8594 19.1563C24.3125 21.0938 25.1406 23.5157 25.125 25.9532C25.1406 28.5782 24.2031 31.172 22.5312 33.1876C22.0312 33.7501 21.875 34.6095 22.2031 35.297C22.6562 36.1095 23.4531 36.672 24.0781 37.3438C20.5781 37.3438 17.0781 37.3751 13.5938 37.3438C9.85938 37.2657 6.26562 35.2813 4.21875 32.1876C3.125 30.5626 2.48437 28.6563 2.32812 26.7032C2.3125 26.0782 1.73438 25.6563 1.14062 25.5938C1.17188 24.5782 1.32813 23.5626 1.57813 22.5782C2.28125 22.7501 2.96875 22.3126 3.15625 21.6251C4.21875 18.9532 6.375 16.7345 9.01562 15.5626ZM8.46875 24.9063C7.67188 25.297 7.67188 26.5626 8.45312 26.9532C9.1875 27.4063 10.2344 26.7813 10.1875 25.922C10.2344 25.0782 9.20312 24.4688 8.46875 24.9063ZM13.1562 24.9063C12.3594 25.297 12.3594 26.5626 13.1562 26.9532C13.8906 27.4063 14.9219 26.797 14.8906 25.9376C14.9219 25.0938 13.8906 24.4688 13.1562 24.9063ZM17.8594 24.9063C17.0938 25.2813 17.0312 26.4688 17.7656 26.922C18.4844 27.4532 19.6094 26.8438 19.5781 25.9532C19.6094 25.0938 18.5938 24.4688 17.8594 24.9063Z" fill="#EBFA9E"/>
</g>
<defs>
<clipPath id="clip0_283_789">
<rect width="70.5938" height="80" fill="white"/>
</clipPath>
</defs>
</svg>
