<svg width="22" height="24" viewBox="0 0 22 24" fill="none" xmlns="http://www.w3.org/2000/svg">
<g clip-path="url(#clip0_824_4678)">
<path d="M13.4598 2.5126C13.4598 3.89922 12.3338 5.0252 10.9472 5.0252C9.56055 5.0252 8.43457 3.89922 8.43457 2.5126C8.43457 1.12598 9.56055 0 10.9472 0C12.3338 0 13.4598 1.12598 13.4598 2.5126Z" fill="#2A5339"/>
<path d="M6.38086 7.75673V13.2302H15.5034V7.75673C15.5034 7.02693 15.2114 6.33884 14.7006 5.81755C14.1897 5.29626 13.4912 5.01477 12.7614 5.01477H9.1124C8.3826 5.01477 7.6945 5.30669 7.17321 5.81755C6.65193 6.32841 6.38086 7.02693 6.38086 7.75673Z" fill="#2A5339"/>
<path d="M21.894 16.3788V12.8236C21.894 12.198 21.5812 11.6142 21.0495 11.2806L17.338 8.91394V11.0721L20.0799 12.8132V12.8966L11.4474 18.3909C11.1451 18.5786 10.7593 18.5786 10.457 18.3909L1.8245 12.8966V12.8132L4.56646 11.0721V8.91394L0.844483 11.2806C0.312772 11.6142 0 12.1876 0 12.8132V16.3683C0 16.9939 0.312772 17.5777 0.844483 17.9113L9.96698 23.7185C10.2589 23.9061 10.603 24 10.947 24C11.2911 24 11.6351 23.9061 11.927 23.7185L21.0495 17.9113C21.5812 17.5777 21.894 17.0043 21.894 16.3788Z" fill="#2A5339"/>
</g>
<defs>
<clipPath id="clip0_824_4678">
<rect width="21.894" height="24" fill="white"/>
</clipPath>
</defs>
</svg>
