<svg width="80" height="80" viewBox="0 0 80 80" fill="none" xmlns="http://www.w3.org/2000/svg">
<g clip-path="url(#clip0_283_631)">
<path d="M13.3436 0H14.7186C16.1092 0.125 17.5154 0.359375 18.8279 0.875C22.0154 2.04688 24.7498 4.42188 26.3279 7.4375C27.7498 10.125 28.2029 13.2969 27.6092 16.2656C26.9998 19.4531 25.1717 22.3594 22.6404 24.3438C20.5154 26.0312 17.8748 27.0625 15.1717 27.2969C12.2342 27.5625 9.20293 26.875 6.67168 25.3438C4.15605 23.8438 2.1248 21.5156 1.01543 18.7969C-0.0626957 16.2188 -0.297071 13.3125 0.343554 10.5938C1.03105 7.60938 2.79668 4.89062 5.20293 3C7.51543 1.1875 10.4061 0.140625 13.3436 0ZM5.04668 6.4375C3.3123 8.4375 2.32793 11.0938 2.35918 13.75C2.3748 16.375 3.34355 19.0156 5.10918 20.9688C6.98418 18.25 10.1561 16.5469 13.4373 16.2969C16.4529 16.0469 19.5467 17.0312 21.8436 19C22.3436 19.4375 22.8123 19.9062 23.2186 20.4375C25.0779 18.0469 25.8748 14.8438 25.3748 11.8594C24.6717 7.42188 21.0623 3.64062 16.6717 2.70312C12.4998 1.60937 7.79668 3.14062 5.04668 6.4375ZM6.82793 22.6094C9.59355 24.7031 13.3279 25.5312 16.6873 24.6406C18.4998 24.2812 20.1561 23.3438 21.5623 22.1875C20.2967 20.4219 18.2967 19.1875 16.1561 18.8125C12.6717 18.0312 8.7498 19.5781 6.82793 22.6094Z" fill="#1C2436"/>
<path d="M65.2181 0H66.5931C67.9525 0.125 69.3119 0.34375 70.5931 0.8125C73.7181 1.92188 76.4369 4.1875 78.0462 7.09375C79.6087 9.84375 80.14 13.1562 79.515 16.25C78.9369 19.2656 77.2806 22.0312 74.9525 24C73.0306 25.6563 70.6244 26.7656 68.1244 27.1562C64.8587 27.6875 61.39 27.0469 58.5619 25.3125C55.9369 23.75 53.8587 21.2812 52.7806 18.4219C51.7181 15.6406 51.6244 12.5156 52.515 9.67188C53.3119 7.09375 54.9212 4.78125 57.015 3.07812C59.3431 1.21875 62.265 0.15625 65.2181 0ZM56.9369 6.46875C55.1556 8.5625 54.1712 11.3281 54.2806 14.0625C54.3587 16.5938 55.3431 19.0625 56.9994 20.9688C58.89 18.2812 62.0306 16.5469 65.2962 16.2969C68.3275 16.0312 71.4369 17.0156 73.7494 19C74.2494 19.4375 74.7025 19.9219 75.14 20.4219C77.0462 17.9375 77.8431 14.625 77.2181 11.5312C76.4056 7.14063 72.7181 3.46875 68.3275 2.625C64.2181 1.65625 59.64 3.21875 56.9369 6.46875ZM58.7337 22.6094C61.515 24.7188 65.2806 25.5312 68.6556 24.6406C70.4369 24.25 72.0931 23.3438 73.4837 22.1719C72.1712 20.4219 70.1869 19.1719 68.0306 18.8125C64.5619 18.0469 60.6712 19.5938 58.7337 22.6094Z" fill="#1C2436"/>
<path d="M13.3434 4.76566C14.6246 4.43754 16.0309 4.93754 16.9059 5.90629C18.5778 7.67191 18.7653 10.5938 17.4684 12.625C16.8278 13.6563 15.734 14.4532 14.5153 14.5625C13.2965 14.7032 12.0778 14.125 11.2965 13.2032C9.62464 11.3282 9.56214 8.25004 11.1246 6.25004C11.6715 5.54691 12.4528 4.98441 13.3434 4.76566ZM13.6559 7.12504C12.734 7.59379 12.3434 8.70316 12.3434 9.68754C12.359 10.6407 12.7496 11.6875 13.6403 12.1407C14.2496 12.4375 14.9528 12.0938 15.3278 11.5938C16.1715 10.4688 16.1715 8.76566 15.3121 7.65629C14.9528 7.15629 14.2653 6.84379 13.6559 7.12504Z" fill="#1C2436"/>
<path d="M65.2185 4.78125C66.4997 4.45312 67.906 4.9375 68.7966 5.89062C70.531 7.6875 70.7028 10.7031 69.3122 12.7656C68.656 13.75 67.5778 14.5 66.3903 14.5937C65.1716 14.7187 63.9685 14.125 63.1872 13.2187C61.5778 11.3437 61.4841 8.375 62.9372 6.39062C63.4997 5.60937 64.2966 5 65.2185 4.78125ZM65.7966 7.0625C65.2341 7.20312 64.8435 7.6875 64.5935 8.1875C64.031 9.40625 64.1872 11.0312 65.2341 11.9375C65.7341 12.3906 66.5466 12.3281 67.0153 11.8594C67.9997 10.9219 68.1247 9.29687 67.531 8.10937C67.2185 7.46875 66.5466 6.875 65.7966 7.0625Z" fill="#1C2436"/>
<path d="M42.6877 4.89063C43.4221 4.45313 44.4377 5.07813 44.4065 5.92188C44.4534 6.81251 43.3284 7.45313 42.594 6.90626C41.8596 6.48438 41.9065 5.26563 42.6877 4.89063Z" fill="#1C2436"/>
<path d="M35.9995 5.06254C36.7807 4.64067 37.812 5.39067 37.6713 6.26567C37.6088 7.09379 36.562 7.59379 35.8745 7.12504C35.0932 6.68754 35.1713 5.40629 35.9995 5.06254Z" fill="#1C2436"/>
<path d="M49.4064 5.99994C50.2345 5.59369 51.2658 6.45307 51.0158 7.32807C50.8752 8.18744 49.7033 8.54682 49.0783 7.93744C48.4533 7.42182 48.6408 6.29682 49.4064 5.99994Z" fill="#1C2436"/>
<path d="M29.609 6.49997C30.4527 6.20309 31.359 7.10934 31.0621 7.95309C30.859 8.76559 29.734 9.09372 29.1402 8.49997C28.4683 7.93747 28.7496 6.70309 29.609 6.49997Z" fill="#1C2436"/>
<path d="M43.5469 23.9376C44.0157 22.8126 45.1876 22.0313 46.4063 22.0626C47.2032 22.0469 47.9063 22.4688 48.5938 22.8126C50.4688 23.8282 52.1876 25.1407 53.6251 26.7188C54.6251 27.8594 54.5157 29.7188 53.4532 30.7969C54.8126 32.8594 55.7032 35.2501 56.0157 37.7032C57.5001 37.8907 58.7344 39.2657 58.6719 40.7813C58.4688 43.3282 57.7188 45.8282 56.5157 48.0782C55.8282 49.3282 54.2188 49.8907 52.8907 49.4219C51.0938 51.7813 48.6563 53.6407 45.9063 54.75C45.8907 56.0782 44.9219 57.3438 43.6094 57.6407C41.1407 58.1563 38.5782 58.1563 36.1094 57.6563C34.7032 57.3751 33.7032 56 33.7188 54.5938C31.2188 53.5626 29.0313 51.8594 27.3282 49.7813C25.9219 50.3907 24.1563 49.7813 23.4532 48.4219C22.2501 46.2501 21.4688 43.8438 21.2188 41.3907C21.0782 39.8438 22.3282 38.375 23.8594 38.1875C24.0938 35.6563 24.9376 33.1719 26.3282 31.0313C25.1251 30.0157 24.8907 28.0626 25.9063 26.8438C27.4688 25.0782 29.4063 23.6407 31.5001 22.5782C32.1407 22.2344 32.8594 22.0001 33.5938 22.1094C34.6876 22.2344 35.6407 23.0157 36.0626 24.0313C38.5001 23.4063 41.0782 23.4063 43.5469 23.9376ZM45.7032 24.9063C45.5157 25.5 45.3751 26.2188 44.7188 26.4844C44.2344 26.6094 43.7501 26.4219 43.2813 26.2969C40.8282 25.6876 38.2188 25.7657 35.8126 26.5313C35.4063 26.6876 34.9063 26.6719 34.5626 26.3751C34.0469 25.9688 34.0782 25.2188 33.7657 24.6876C33.5626 24.4063 33.1407 24.3438 32.8594 24.5313C31.0001 25.4219 29.2969 26.6563 27.8907 28.1563C27.6251 28.3907 27.5469 28.8282 27.7969 29.1094C28.2032 29.5313 28.8594 29.7344 29.0782 30.3126C29.2657 30.7501 29.1094 31.2344 28.8282 31.5938C27.2032 33.7969 26.2813 36.4844 26.2032 39.2188C26.2032 39.6407 26.0469 40.0938 25.6719 40.3282C25.2657 40.6251 24.7344 40.5001 24.2657 40.5469C23.9063 40.5313 23.5626 40.8907 23.6094 41.2501C23.8282 43.3594 24.5157 45.4219 25.5469 47.2813C25.6876 47.6094 26.0938 47.7813 26.4219 47.625C26.8282 47.4063 27.1876 46.9844 27.7032 47.0313C28.1563 47.0313 28.5157 47.3438 28.7501 47.7032C30.3907 50.0157 32.7501 51.7813 35.4219 52.7344C35.8751 52.8751 36.2501 53.2501 36.2969 53.7344C36.3751 54.2032 35.9219 54.7344 36.2969 55.1563C36.7032 55.5313 37.3282 55.4532 37.8438 55.5626C39.5938 55.7657 41.3751 55.7188 43.1094 55.3594C43.5313 55.2657 43.6719 54.7501 43.5157 54.3907C43.2657 53.7813 43.6407 53.0313 44.2813 52.8438C47.2032 51.8751 49.7813 49.9219 51.4844 47.3594C51.7032 46.9844 52.0938 46.6875 52.5469 46.6875C52.9844 46.6563 53.2969 46.9688 53.6563 47.1563C53.9688 47.3438 54.4063 47.1719 54.5469 46.8438C55.5313 44.9688 56.1563 42.8907 56.3438 40.7813C56.4063 40.4063 56.0626 40.0313 55.6876 40.0625C55.2501 40.0313 54.7657 40.1563 54.3594 39.9063C53.9532 39.6719 53.7657 39.2032 53.7657 38.7501C53.5938 36.1407 52.6407 33.5782 51.0626 31.4844C50.7813 31.1407 50.5782 30.6719 50.7344 30.2188C50.8751 29.6875 51.4219 29.4688 51.7969 29.125C52.0938 28.8594 52.0313 28.3751 51.7344 28.1251C50.2969 26.6094 48.5626 25.3594 46.6719 24.4844C46.2813 24.2813 45.7969 24.5157 45.7032 24.9063Z" fill="#1C2436"/>
<path d="M6.92203 28.6562C7.73453 28.3437 8.67203 29.1562 8.45328 30.0156C8.31266 30.8593 7.15641 31.25 6.53141 30.6718C5.84391 30.125 6.07828 28.8906 6.92203 28.6562Z" fill="#1C2436"/>
<path d="M71.4532 28.6719C72.1876 28.2344 73.2032 28.8437 73.1876 29.6875C73.2344 30.5625 72.1719 31.1875 71.4376 30.7344C70.6407 30.3437 70.6563 29.0625 71.4532 28.6719Z" fill="#1C2436"/>
<path d="M36.578 30.3124C39.6093 29.2031 43.1718 29.6874 45.7655 31.5937C48.0155 33.2031 49.5624 35.7812 49.8749 38.5312C50.0155 39.8281 49.9061 41.1406 49.578 42.3906C48.5624 46.1093 45.2186 49.0781 41.3905 49.5781C38.8124 49.9531 36.0936 49.2812 34.0155 47.7031C32.078 46.2499 30.6561 44.0937 30.1874 41.7187C29.6874 39.3124 30.1093 36.7343 31.3749 34.6249C31.6249 34.2187 31.8749 33.7187 32.3749 33.5781C32.7499 33.4374 33.1405 33.5781 33.4686 33.7656C33.9374 34.2031 34.0468 34.9531 33.6405 35.4531C32.4843 37.1718 32.078 39.3749 32.5468 41.3906C33.0311 43.5937 34.578 45.5312 36.5936 46.5312C38.4843 47.4843 40.7811 47.5937 42.7499 46.8124C44.8905 45.9843 46.6093 44.1406 47.2655 41.9531C47.9686 39.7031 47.5624 37.1406 46.1561 35.2343C44.703 33.1874 42.203 31.9531 39.6874 32.0781C38.6561 32.0937 37.6561 32.3906 36.703 32.7812C36.1561 33.0156 35.5624 32.7187 35.2499 32.2656C35.1249 31.9062 35.0624 31.4999 35.2499 31.1562C35.4843 30.6562 36.0936 30.4999 36.578 30.3124Z" fill="#1C2436"/>
<path d="M73.0156 35.2188C73.7968 34.7969 74.8281 35.5469 74.6874 36.4219C74.6249 37.25 73.5624 37.75 72.8749 37.2657C72.1249 36.8125 72.2031 35.5625 73.0156 35.2188Z" fill="#1C2436"/>
<path d="M5.65647 35.3437C6.45334 34.9218 7.50022 35.6875 7.32834 36.5781C7.25022 37.4218 6.14084 37.8906 5.46897 37.3593C4.75022 36.875 4.87522 35.6718 5.65647 35.3437Z" fill="#1C2436"/>
<path d="M73.2967 41.9063C73.9529 41.6406 74.7498 42.1094 74.8592 42.7969C75.0154 43.4687 74.4373 44.1719 73.7654 44.1875C73.1561 44.2344 72.5779 43.7344 72.5467 43.125C72.4842 42.6094 72.8123 42.0781 73.2967 41.9063Z" fill="#1C2436"/>
<path d="M5.8282 42.0938C6.62508 41.6563 7.67195 42.4219 7.5157 43.3125C7.43758 44.1719 6.29695 44.6407 5.62508 44.0782C4.93758 43.5782 5.06258 42.4219 5.8282 42.0938Z" fill="#1C2436"/>
<path d="M72.2497 48.5157C73.0934 48.2344 73.984 49.1563 73.6872 50.0001C73.4684 50.8438 72.2809 51.1094 71.7028 50.4688C71.0934 49.8751 71.4215 48.7188 72.2497 48.5157Z" fill="#1C2436"/>
<path d="M7.24973 48.7031C7.92161 48.2656 8.93723 48.7344 9.01536 49.5469C9.18723 50.4219 8.15598 51.2031 7.35911 50.7813C6.51536 50.4375 6.45286 49.125 7.24973 48.7031Z" fill="#1C2436"/>
<path d="M7.59308 54.1563C11.3118 52.2344 15.9056 52.1563 19.7181 53.875C22.7493 55.2188 25.2649 57.6875 26.6399 60.7032C28.0462 63.7344 28.2493 67.2813 27.2181 70.4532C26.2962 73.3125 24.3899 75.8282 21.9056 77.5313C19.7962 79 17.2806 79.7969 14.7337 80H13.2337C12.14 79.9063 11.0306 79.75 9.96808 79.4375C6.78058 78.5157 3.95245 76.4375 2.15558 73.6407C0.671202 71.3282 -0.110048 68.5313 0.0149516 65.7813C0.108702 62.9063 1.18683 60.0782 3.01495 57.8438C3.43683 57.2813 4.31183 57.2969 4.7962 57.7657C5.18683 58.25 5.18683 58.9688 4.74933 59.4375C3.0462 61.5625 2.18683 64.3282 2.38995 67.0313C2.53058 69.4375 3.51495 71.7813 5.09308 73.6094C6.70245 71.3438 9.18683 69.7344 11.89 69.1563C15.3431 68.3907 19.1399 69.3125 21.8274 71.6407C22.3274 72.0782 22.7962 72.5625 23.2181 73.0782C24.5462 71.3438 25.3587 69.2188 25.4837 67.0313C25.6556 64.6094 24.9837 62.1407 23.6243 60.1407C22.0149 57.7188 19.4525 55.9532 16.6087 55.3125C14.015 54.7032 11.2181 55 8.81183 56.1719C8.28058 56.4844 7.62433 56.3438 7.21808 55.9063C6.84308 55.3438 6.95245 54.4688 7.59308 54.1563ZM6.82745 75.25C9.68683 77.4219 13.5462 78.1875 17.015 77.2188C18.7025 76.7813 20.2649 75.9219 21.5931 74.7969C20.2962 73.0625 18.3275 71.8282 16.2025 71.4375C12.6868 70.6719 8.76495 72.2188 6.82745 75.25Z" fill="#1C2436"/>
<path d="M60.1094 53.8594C62.8125 52.6563 65.875 52.3438 68.7656 52.9531C73.3437 53.875 77.3437 57.2813 78.9375 61.6719C80.0156 64.5625 80.0469 67.8438 79.0156 70.7656C78 73.6875 75.9375 76.2188 73.3281 77.8594C71.3125 79.1406 68.9687 79.8281 66.6094 80H65.2187C62.1406 79.8438 59.1094 78.6875 56.75 76.6875C54.5625 74.8438 52.9687 72.3125 52.2969 69.5313C51.5937 66.7031 51.8437 63.6563 53.0156 60.9844C54.375 57.8281 56.9687 55.2344 60.1094 53.8594ZM62.6562 55.4375C59.7812 56.2344 57.2344 58.1875 55.75 60.7813C54.5 62.9375 54.0156 65.5313 54.4062 68C54.7031 70.0625 55.6406 72.0156 56.9687 73.6094C57.4844 73.0156 57.9531 72.375 58.5625 71.8594C60.7187 69.8906 63.6406 68.8281 66.5625 68.9063C69.1719 68.9688 71.7344 69.9375 73.7187 71.625C74.2344 72.0781 74.7031 72.5625 75.125 73.0781C77 70.6406 77.7969 67.4063 77.25 64.3906C76.5156 60.0313 72.9687 56.3281 68.6719 55.3594C66.7187 54.8281 64.6094 54.9063 62.6562 55.4375ZM58.7344 75.2656C61.5 77.3594 65.2187 78.1719 68.5781 77.3125C70.3906 76.9375 72.0937 76.0313 73.5 74.8125C72.1875 73.0781 70.2031 71.8125 68.0469 71.4531C64.5625 70.6875 60.6562 72.2344 58.7344 75.2656Z" fill="#1C2436"/>
<path d="M13.2032 57.4531C14.4845 57.0781 15.922 57.5312 16.8439 58.4844C18.6876 60.3437 18.8282 63.5781 17.2345 65.6406C16.5314 66.5781 15.4064 67.2344 14.2189 67.25C13.0314 67.2812 11.8907 66.6406 11.172 65.7187C9.68761 63.875 9.62511 61.0469 10.9845 59.1094C11.5001 58.3281 12.2814 57.7031 13.2032 57.4531ZM13.7814 59.7344C13.0782 59.9844 12.6564 60.6875 12.4689 61.375C12.172 62.5 12.422 63.875 13.3595 64.625C13.9064 65.0781 14.7345 64.9375 15.1876 64.4219C16.1251 63.4062 16.2032 61.75 15.5157 60.5781C15.172 59.9844 14.4845 59.4844 13.7814 59.7344Z" fill="#1C2436"/>
<path d="M65.219 57.4219C66.5003 57.0937 67.9065 57.5781 68.7972 58.5312C70.5472 60.3594 70.7034 63.4531 69.2503 65.5C68.5628 66.4844 67.4534 67.1875 66.2503 67.2344C65.0472 67.2969 63.8909 66.6875 63.1409 65.7812C61.6097 63.9375 61.5159 61.0781 62.8753 59.125C63.4222 58.3125 64.2503 57.6562 65.219 57.4219ZM65.5472 59.7812C64.469 60.3594 64.1253 61.75 64.3128 62.875C64.4534 63.7031 64.9222 64.5937 65.7659 64.8437C66.5315 65.0469 67.219 64.4375 67.5315 63.7812C68.094 62.6406 67.9847 61.1406 67.1409 60.1875C66.7659 59.75 66.1097 59.5156 65.5472 59.7812Z" fill="#1C2436"/>
<path d="M49.5467 70.6718C50.3592 70.3437 51.2967 71.1718 51.078 72.0312C50.9373 72.875 49.8124 73.2656 49.1717 72.6875C48.4842 72.1562 48.703 70.9218 49.5467 70.6718Z" fill="#1C2436"/>
<path d="M29.4217 71.3125C30.203 70.8281 31.3124 71.5781 31.1561 72.4844C31.0936 73.3594 29.9217 73.8281 29.2655 73.2656C28.5936 72.7969 28.703 71.6719 29.4217 71.3125Z" fill="#1C2436"/>
<path d="M42.8436 72.25C43.6248 71.8125 44.6717 72.5625 44.5311 73.4531C44.4686 74.3281 43.3123 74.8125 42.6561 74.25C41.9686 73.75 42.0779 72.5781 42.8436 72.25Z" fill="#1C2436"/>
<path d="M36.1407 72.4219C36.9688 71.9844 38.0313 72.8594 37.7657 73.7501C37.6094 74.5626 36.5157 74.9376 35.8907 74.4063C35.2188 73.9063 35.3594 72.7344 36.1407 72.4219Z" fill="#1C2436"/>
<path d="M5.04662 6.43754C7.81225 3.14067 12.4997 1.62504 16.6716 2.68754C17.3904 3.34379 18.2497 3.81254 18.9529 4.48442C21.1872 6.50004 22.656 9.34379 22.9685 12.3438C23.2029 14.6094 22.8279 16.9532 21.8279 19C19.531 17.0313 16.4372 16.0469 13.4216 16.2969C10.156 16.5469 6.9685 18.25 5.0935 20.9688C3.3435 19 2.37475 16.375 2.35912 13.75C2.32787 11.0938 3.31225 8.43754 5.04662 6.43754ZM13.3435 4.76567C12.4529 4.96879 11.6716 5.53129 11.1247 6.25004C9.57787 8.23442 9.64037 11.3282 11.2966 13.2188C12.0935 14.125 13.2966 14.7032 14.5154 14.5782C15.7497 14.4532 16.8279 13.6719 17.4685 12.6407C18.7654 10.6094 18.5779 7.68754 16.906 5.92192C16.031 4.95317 14.6247 4.45317 13.3435 4.76567Z" fill="#FFF7D6"/>
<path d="M56.9372 6.46874C59.6404 3.21874 64.2185 1.67187 68.3279 2.64062C70.0779 3.73437 71.7341 5.06249 72.8591 6.81249C75.2966 10.3437 75.6247 15.1562 73.7497 19.0156C71.4372 17.0312 68.3279 16.0469 65.2966 16.3125C62.031 16.5625 58.8904 18.2969 56.9997 20.9844C55.3435 19.0781 54.3591 16.5937 54.281 14.0781C54.156 11.3125 55.156 8.54687 56.9372 6.46874ZM65.2185 4.78124C64.2966 5.01562 63.4997 5.62499 62.9372 6.37499C61.4841 8.35937 61.5622 11.3437 63.1872 13.2031C63.9685 14.1094 65.1716 14.7031 66.3904 14.5781C67.5935 14.4844 68.656 13.7344 69.3122 12.75C70.7029 10.7031 70.531 7.68749 68.7966 5.87499C67.906 4.92187 66.4997 4.43749 65.2185 4.78124Z" fill="#D6FFD8"/>
<path d="M68.3281 2.64062C72.7031 3.48438 76.3906 7.15625 77.2188 11.5469C77.8438 14.625 77.0469 17.9375 75.1406 20.4375C74.7188 19.9219 74.25 19.4531 73.75 19.0156C75.6406 15.1719 75.2969 10.3438 72.8594 6.8125C71.7344 5.0625 70.0781 3.73438 68.3281 2.64062Z" fill="#A8F2AC"/>
<path d="M16.6562 2.6875C21.0312 3.625 24.6563 7.40625 25.3594 11.8438C25.8594 14.8438 25.0781 18.0312 23.2031 20.4219C22.7969 19.9062 22.3125 19.4219 21.8281 18.9844C22.8438 16.9375 23.2031 14.5938 22.9688 12.3281C22.6562 9.32812 21.1875 6.48438 18.9375 4.46875C18.2344 3.8125 17.375 3.35938 16.6562 2.6875Z" fill="#F1E2A3"/>
<path d="M13.6563 7.12502C14.25 6.84377 14.9375 7.15627 15.3125 7.65627C16.1719 8.76565 16.1719 10.4688 15.3281 11.5938C14.9531 12.0938 14.25 12.4375 13.6406 12.1406C12.75 11.7031 12.3594 10.6406 12.3438 9.68752C12.3438 8.70315 12.7344 7.59377 13.6563 7.12502Z" fill="#FFD4C6"/>
<path d="M65.7971 7.06252C66.5471 6.87502 67.219 7.46877 67.5315 8.09377C68.1252 9.28127 68.0002 10.9063 67.0158 11.8438C66.5471 12.3125 65.7346 12.375 65.2346 11.9219C64.1877 11.0156 64.0315 9.37502 64.594 8.17189C64.8283 7.68752 65.2346 7.20314 65.7971 7.06252Z" fill="#FFD4C6"/>
<path d="M13.7813 59.7344C14.4844 59.5 15.1719 59.9844 15.5157 60.5781C16.2032 61.75 16.125 63.4062 15.1875 64.4219C14.7344 64.9375 13.9063 65.0781 13.3594 64.625C12.4219 63.875 12.1719 62.5 12.4688 61.375C12.6563 60.6875 13.0782 59.9844 13.7813 59.7344Z" fill="#C299FC"/>
<path d="M65.5466 59.7813C66.0935 59.5 66.7654 59.75 67.1404 60.1875C67.9841 61.1563 68.0935 62.6563 67.531 63.7813C67.2185 64.4219 66.531 65.0313 65.7654 64.8438C64.9216 64.5938 64.4529 63.7031 64.3122 62.875C64.1247 61.75 64.4685 60.3594 65.5466 59.7813Z" fill="#FFD4C6"/>
<path d="M6.82812 22.6094C8.76562 19.5781 12.6719 18.0312 16.1719 18.8125C16.8125 19.5312 17.7656 19.9531 18.25 20.8125C18.7813 21.7344 18.6094 23.0156 17.7969 23.7187C17.4219 24.0156 17.0469 24.3125 16.6875 24.6406C13.3281 25.5312 9.59375 24.7187 6.82812 22.6094Z" fill="#FFF4F1"/>
<path d="M58.7344 22.6094C60.6562 19.5938 64.5469 18.0313 68.0312 18.7969C68.6719 19.4688 69.5469 19.8907 70.0781 20.6719C70.75 21.6719 70.5156 23.1875 69.5313 23.875C69.2188 24.0938 68.9375 24.3438 68.6719 24.625C65.2813 25.5313 61.5156 24.7344 58.7344 22.6094Z" fill="#FFF4F1"/>
<path d="M6.82812 75.2501C8.76562 72.2032 12.6875 70.6719 16.1875 71.4532C16.75 72.1563 17.625 72.5157 18.125 73.2813C18.6719 74.0626 18.7031 75.1719 18.1562 75.9688C17.7969 76.5001 17.2188 76.7969 16.7188 77.1563C16.7969 77.1719 16.9375 77.2188 17 77.2344C13.5469 78.2032 9.67188 77.4376 6.82812 75.2501Z" fill="#FFF4F1"/>
<path d="M58.7344 75.2657C60.6562 72.2345 64.5625 70.6876 68.0312 71.4532C68.6406 72.1251 69.4844 72.5157 70.0156 73.2501C70.6875 74.1876 70.5625 75.6251 69.6875 76.3907C69.3125 76.6876 68.9219 76.9532 68.5625 77.297C65.2187 78.172 61.5 77.3438 58.7344 75.2657Z" fill="#FFF4F1"/>
<path d="M16.1562 18.8125C18.2969 19.1875 20.2969 20.4219 21.5625 22.1875C20.1406 23.3594 18.4844 24.2812 16.6875 24.6406C17.0313 24.3125 17.4219 24.0312 17.7969 23.7188C18.6094 23.0156 18.7813 21.7344 18.25 20.8125C17.7656 19.9531 16.7969 19.5469 16.1562 18.8125Z" fill="#DBDEDF"/>
<path d="M68.0469 18.8125C70.2031 19.1719 72.1875 20.4219 73.5 22.1719C72.1094 23.3437 70.4531 24.25 68.6719 24.6406C68.9375 24.3594 69.2188 24.1094 69.5312 23.8906C70.5312 23.1875 70.75 21.6875 70.0781 20.6875C69.5625 19.9062 68.6719 19.4844 68.0469 18.8125Z" fill="#DBDEDF"/>
<path d="M16.1875 71.4531C18.3281 71.8438 20.2813 73.0781 21.5781 74.8125C20.25 75.9375 18.6875 76.7969 17 77.2344C16.9219 77.2188 16.7813 77.1875 16.7188 77.1562C17.2188 76.7969 17.7969 76.5 18.1562 75.9688C18.7031 75.1719 18.6719 74.0625 18.125 73.2813C17.625 72.5156 16.75 72.1562 16.1875 71.4531Z" fill="#DBDEDF"/>
<path d="M68.0469 71.4531C70.2031 71.8125 72.1875 73.0625 73.5 74.8125C72.0937 76.0156 70.4062 76.9219 68.5781 77.3125C68.9219 76.9844 69.3125 76.7031 69.7031 76.4063C70.5781 75.6406 70.7188 74.2031 70.0313 73.2656C69.5 72.5156 68.6562 72.1094 68.0469 71.4531Z" fill="#DBDEDF"/>
<path d="M45.7031 24.9063C45.7969 24.5156 46.2812 24.2813 46.6406 24.4844C48.5469 25.3594 50.2656 26.6094 51.7031 28.125C52 28.375 52.0625 28.8594 51.7656 29.125C51.3906 29.4688 50.8438 29.6875 50.7031 30.2188C50.5469 30.6719 50.75 31.125 51.0313 31.4844C52.6094 33.5781 53.5625 36.1406 53.7344 38.75C53.7344 39.2031 53.9063 39.6719 54.3281 39.9063C54.7188 40.1563 55.2031 40.0469 55.6563 40.0625C56.0313 40.0469 56.3594 40.4063 56.3125 40.7813C56.1094 42.8906 55.4844 44.9688 54.5156 46.8438C54.375 47.1719 53.9375 47.3438 53.625 47.1563C53.2656 46.9688 52.9531 46.6563 52.5156 46.6875C52.0625 46.6875 51.6875 46.9844 51.4531 47.3594C49.75 49.9219 47.1719 51.875 44.25 52.8438C43.6094 53.0156 43.2344 53.7656 43.4844 54.3906C43.6406 54.75 43.5 55.25 43.0781 55.3594C41.3438 55.7188 39.5625 55.7813 37.8125 55.5625C38.0312 55.5313 38.2344 55.5 38.4375 55.4375C43.9844 53.5469 48.3906 48.6563 49.6406 42.9375C49.6406 42.75 49.625 42.5781 49.5937 42.3906C49.9219 41.125 50.0312 39.8125 49.8906 38.5313C49.9844 38.25 50.0937 37.9531 50.0469 37.6563C49.7187 33.4531 47.8281 29.3594 44.7344 26.4844C45.375 26.2344 45.5156 25.5156 45.7031 24.9063Z" fill="#2DD269"/>
<path d="M27.859 28.1719C29.2652 26.6719 30.9683 25.4219 32.8277 24.5469C33.1246 24.3594 33.5308 24.4219 33.734 24.7031C34.0621 25.2344 34.0152 25.9687 34.5308 26.3906C34.8746 26.6875 35.3746 26.7031 35.7808 26.5469C38.1871 25.7812 40.7965 25.6875 43.2496 26.3125C43.7183 26.4375 44.2027 26.625 44.6871 26.5C47.7965 29.375 49.6715 33.4688 49.9996 37.6719C50.0465 37.9688 49.9371 38.2656 49.8433 38.5469C49.5308 35.7812 47.984 33.2187 45.734 31.6094C43.1246 29.7031 39.5777 29.2188 36.5465 30.3281C36.0621 30.5312 35.4683 30.6719 35.2183 31.1875C35.0152 31.5312 35.0933 31.9375 35.2183 32.2969C34.5621 32.7187 33.9527 33.2344 33.4215 33.7969C33.0933 33.6094 32.7027 33.4844 32.3277 33.6094C31.8277 33.75 31.5777 34.25 31.3277 34.6562C30.0621 36.7656 29.6402 39.3438 30.1402 41.75C30.6246 44.125 32.0308 46.2969 33.9683 47.7344C36.0465 49.3125 38.7652 49.9844 41.3433 49.6094C45.1715 49.0938 48.5152 46.1406 49.5308 42.4219C49.5621 42.5937 49.5777 42.7812 49.5777 42.9687C48.3277 48.6875 43.9215 53.5938 38.3746 55.4688C38.1715 55.5156 37.9527 55.5625 37.7496 55.5937C37.234 55.4844 36.6246 55.5625 36.2027 55.1875C35.8277 54.7656 36.2965 54.2344 36.2027 53.7656C36.1558 53.2813 35.7808 52.9063 35.3277 52.7656C32.6715 51.8125 30.2965 50.0469 28.6558 47.7344C28.4215 47.375 28.0621 47.0625 27.609 47.0625C27.0933 47.0156 26.734 47.4219 26.3277 47.6562C25.9996 47.8125 25.5933 47.6406 25.4527 47.3125C24.4215 45.4531 23.734 43.3906 23.5152 41.2812C23.4683 40.9062 23.7965 40.5625 24.1715 40.5781C24.6402 40.5469 25.1715 40.6562 25.5777 40.3594C25.9527 40.125 26.109 39.6719 26.109 39.25C26.2027 36.5312 27.1246 33.8281 28.734 31.625C29.0152 31.2656 29.1715 30.7812 28.984 30.3437C28.7652 29.7656 28.109 29.5625 27.7027 29.1406C27.5152 28.8437 27.5933 28.4062 27.859 28.1719Z" fill="#4DF189"/>
<path d="M8.81246 56.1719C11.2187 55 14.0156 54.7032 16.6093 55.3125C17.0156 55.75 17.5468 56.0313 18.0156 56.375C19.9375 57.8282 21.4687 59.8282 22.2968 62.0938C23.4375 65.1719 23.2656 68.7032 21.8281 71.6563C19.1406 69.3282 15.3437 68.4063 11.8906 69.1719C9.17183 69.75 6.68745 71.3594 5.0937 73.625C3.5312 71.7969 2.54683 69.4532 2.39058 67.0469C2.20308 64.3282 3.06246 61.5782 4.74996 59.4532C5.18746 58.9844 5.18746 58.2657 4.79683 57.7813C5.60933 57.1563 6.40621 56.5313 7.21871 55.9219C7.62496 56.3438 8.28121 56.4844 8.81246 56.1719ZM13.2031 57.4532C12.2968 57.7032 11.5156 58.3282 10.9687 59.1094C9.60933 61.0469 9.67183 63.875 11.1562 65.7188C11.8906 66.6407 13.0156 67.2813 14.2031 67.25C15.3906 67.2344 16.5 66.5782 17.2187 65.6407C18.8125 63.5782 18.6718 60.3438 16.8281 58.4844C15.9218 57.5157 14.4843 57.0782 13.2031 57.4532Z" fill="#E7D6FF"/>
<path d="M62.6564 55.4374C64.6096 54.9062 66.7189 54.8281 68.6721 55.3593C68.8908 55.5781 69.0939 55.7968 69.3439 55.9687C71.9064 57.6406 73.8127 60.2812 74.5783 63.2499C75.2971 66.0156 75.0314 69.0625 73.7189 71.625C71.7346 69.9374 69.1564 68.9687 66.5627 68.9062C63.6564 68.8281 60.7189 69.8906 58.5627 71.8593C57.9533 72.375 57.4846 73.0156 56.9689 73.6093C55.6408 72 54.7033 70.0625 54.4064 68C54.0158 65.5312 54.5002 62.9375 55.7502 60.7812C57.2346 58.1875 59.7814 56.2343 62.6564 55.4374ZM65.2189 57.4218C64.2502 57.6562 63.4221 58.3125 62.8596 59.125C61.5002 61.0781 61.5939 63.9375 63.1252 65.7812C63.8752 66.6875 65.0314 67.2968 66.2346 67.2343C67.4377 67.1874 68.5627 66.4687 69.2346 65.5C70.7033 63.4531 70.5471 60.3593 68.7814 58.5312C67.9064 57.5781 66.5158 57.0937 65.2189 57.4218Z" fill="#FFEFEB"/>
<path d="M16.6094 55.3125C19.4531 55.9531 22.0156 57.7187 23.625 60.1406C24.9844 62.1562 25.6562 64.6094 25.4844 67.0312C25.3594 69.2188 24.5469 71.3438 23.2188 73.0781C22.7969 72.5625 22.3281 72.0781 21.8281 71.6406C23.2656 68.6875 23.4375 65.1562 22.2969 62.0781C21.4687 59.8125 19.9375 57.8125 18.0156 56.3594C17.5312 56.0156 17.0156 55.7344 16.6094 55.3125Z" fill="#D4BAF9"/>
<path d="M68.6719 55.3594C72.9688 56.3281 76.5156 60.0313 77.25 64.3906C77.7969 67.4219 77 70.6406 75.125 73.0781C74.6875 72.5469 74.2187 72.0625 73.7187 71.625C75.0312 69.0781 75.2969 66.0156 74.5781 63.25C73.8281 60.2812 71.9062 57.6406 69.3437 55.9688C69.0937 55.7969 68.8906 55.5781 68.6719 55.3594Z" fill="#FFD8CE"/>
</g>
<defs>
<clipPath id="clip0_283_631">
<rect width="79.7812" height="80" fill="white"/>
</clipPath>
</defs>
</svg>
