<svg width="87" height="80" viewBox="0 0 87 80" fill="none" xmlns="http://www.w3.org/2000/svg">
<g clip-path="url(#clip0_280_481)">
<path d="M26.9543 1.97958C28.2234 0.710544 30.0169 -0.000116408 31.8274 0.0168041C37.2927 0.0168041 42.758 -0.000116408 48.2234 0.0168041C49.154 -0.000116408 49.9323 0.879748 49.8816 1.79345C49.8139 2.63948 49.1032 3.38398 48.2403 3.38398C42.7073 3.4009 37.1743 3.36706 31.6413 3.4009C29.8477 3.41782 28.2572 5.02526 28.291 6.83576C28.291 12.8256 28.291 18.8155 28.291 24.7884C28.2741 25.4821 28.2741 26.1928 28.5618 26.8358C29.0863 28.1217 30.423 29.0016 31.8105 28.9677C47.8342 28.9677 63.8579 28.9677 79.8816 28.9677C81.6413 28.9677 83.2318 27.4111 83.2487 25.6344C83.2657 19.3738 83.2487 13.1133 83.2487 6.83576C83.2826 5.02526 81.6751 3.38398 79.8646 3.4009C74.3824 3.38398 68.9171 3.4009 63.4349 3.38398C62.6396 3.43474 61.8613 2.84252 61.709 2.04726C61.709 2.03034 61.6921 1.9965 61.6921 1.97958C61.489 0.964351 62.4027 -0.0677983 63.4518 0.0168041C68.5279 0.0168041 73.6041 0.0168041 78.6971 0.0168041C79.9154 -0.0170369 81.1675 0.016804 82.3181 0.507498C84.7885 1.45504 86.5482 3.92543 86.6497 6.56503V26.0405C86.4636 27.8171 85.6514 29.5261 84.2809 30.6767C83.1134 31.7089 81.5736 32.2672 80.0338 32.3518C80.0338 39.8138 80.0338 47.2588 80.0338 54.7207C80.0338 55.4483 80.0677 56.1928 79.8816 56.9204C79.4755 58.6801 78.1387 60.1691 76.4467 60.7782C74.9915 61.3197 73.401 61.032 71.8782 61.1166C71.7936 62.7072 72.1151 64.3992 71.4552 65.9051C70.6599 67.8679 68.6464 69.2554 66.5313 69.2723C55.1269 69.2892 43.7394 69.2554 32.335 69.2892C25.8545 72.7748 19.4247 76.3451 12.9611 79.8476C11.9459 80.3891 10.5753 79.5769 10.5584 78.4263C10.5415 75.3806 10.5584 72.3349 10.5415 69.2892C8.78173 69.2723 7.022 69.2892 5.26227 69.2723C3.51946 69.2215 1.86125 68.274 0.913706 66.8358C0.406091 66.1082 0.169205 65.2622 0 64.3992V25.6006C0.219966 23.7224 1.42132 21.9796 3.16413 21.1843C4.72081 20.4229 6.49746 20.7613 8.15567 20.6936C8.20643 19.4753 8.07107 18.2402 8.24027 17.0219C8.64636 14.5515 10.8968 12.5887 13.3672 12.521C17.2081 12.4872 21.066 12.521 24.9069 12.5041C24.9069 10.609 24.9069 8.73085 24.9069 6.83576C24.9069 5.02526 25.6514 3.23169 26.9543 1.97958ZM11.5567 17.7664C11.5228 18.7478 11.5567 19.7122 11.5398 20.6936C15.9898 20.6936 20.4399 20.6936 24.9069 20.6936C24.9069 19.1031 24.9069 17.5126 24.9069 15.9051C21.2352 15.9051 17.5635 15.9051 13.8748 15.9051C12.758 15.7698 11.6413 16.6158 11.5567 17.7664ZM3.38409 26.1251C3.36717 38.6462 3.38409 51.1674 3.38409 63.6885C3.29949 64.8222 4.28088 65.8882 5.41455 65.8713C7.66497 65.8882 9.9154 65.8713 12.1827 65.8713C13.0964 65.8374 13.9255 66.6496 13.9086 67.5633C13.9255 70.186 13.9086 72.8087 13.9086 75.4483C19.6277 72.3518 25.313 69.2215 31.0321 66.1082C31.3198 65.939 31.6582 65.8713 31.9966 65.8713C43.4518 65.8713 54.89 65.8713 66.3452 65.8713C67.1743 65.9051 67.9695 65.3806 68.308 64.6361C68.5279 64.1792 68.4772 63.6547 68.4941 63.164C68.4941 52.8764 68.511 42.6056 68.4772 32.3349C56.2098 32.3349 43.9425 32.3349 31.6582 32.3349C28.8156 32.3349 26.1252 30.3383 25.2792 27.631C24.8731 26.4804 24.9408 25.2621 24.9239 24.0608C18.4264 24.0608 11.9459 24.0608 5.44839 24.0608C4.33164 24.0439 3.36717 25.0253 3.38409 26.1251ZM71.8443 32.3518C71.8443 40.8121 71.8443 49.2554 71.8443 57.7156C72.775 57.7325 73.6887 57.7325 74.6193 57.7156C75.736 57.6987 76.6667 56.6835 76.6159 55.5667C76.6159 47.8171 76.6159 40.0845 76.6159 32.3349C75.0254 32.3518 73.4349 32.3518 71.8443 32.3518Z" fill="#1C2436"/>
<path d="M54.0607 1.79343C54.0269 0.896641 54.7544 0.0336964 55.6681 0.0167759C56.6495 -0.0678265 57.5125 0.828959 57.4786 1.79343C57.411 2.63945 56.7003 3.38395 55.8204 3.38395C54.9236 3.43471 54.1284 2.67329 54.0607 1.79343Z" fill="#1C2436"/>
<path d="M33.8578 9.37371C33.807 8.46001 34.6023 7.59706 35.5329 7.61398C36.4804 7.58014 37.2926 8.46001 37.2419 9.39063C37.2419 13.3839 37.2419 17.3771 37.2419 21.3703C38.3079 21.3534 39.3738 21.3534 40.4398 21.3703C41.3197 21.3703 42.098 22.1994 42.0642 23.0793C42.0642 23.9592 41.2859 24.7375 40.4229 24.7375C38.7985 24.7544 37.1742 24.7713 35.5498 24.7375C34.67 24.7375 33.8916 23.9761 33.8916 23.1131C33.8578 18.5277 33.8578 13.9422 33.8578 9.37371Z" fill="#1C2436"/>
<path d="M45.7529 7.78337C46.9204 7.15731 48.3925 8.27406 48.1895 9.56002C48.1895 14.0609 48.1895 18.5786 48.1895 23.0964C48.1895 23.9763 47.428 24.7546 46.5482 24.7546C45.6345 24.8054 44.7885 23.9932 44.8054 23.0795C44.7885 18.5109 44.8054 13.9593 44.8054 9.39081C44.7715 8.73092 45.1438 8.07102 45.7529 7.78337Z" fill="#1C2436"/>
<path d="M52.301 9.86448C51.9795 9.03538 52.4533 8.00323 53.2993 7.71558C54.1453 7.36025 55.1775 7.85094 55.482 8.69697C56.6157 11.9119 57.7155 15.1267 58.8323 18.3586C59.0184 18.1894 59.0184 17.9017 59.1199 17.6817C60.1182 14.6868 61.0996 11.6919 62.1149 8.71389C62.4194 7.83402 63.5362 7.37717 64.3653 7.78326C65.1436 8.10475 65.5666 9.06922 65.279 9.86448C63.79 14.3653 62.301 18.8662 60.7951 23.3501C60.5074 24.2976 59.4584 24.9068 58.4939 24.7037C57.7494 24.5684 57.1402 23.9762 56.9372 23.2655C55.4144 18.7985 53.8577 14.3315 52.301 9.86448Z" fill="#1C2436"/>
<path d="M68.5618 9.37389C68.5618 8.49402 69.3571 7.71568 70.237 7.7326C72.149 7.7326 74.0779 7.7326 75.9899 7.7326C76.9544 7.69876 77.7835 8.61247 77.6651 9.56001C77.6143 10.423 76.819 11.1336 75.9561 11.1167C74.6194 11.1167 73.2657 11.1167 71.929 11.1167C71.929 12.2673 71.929 13.401 71.929 14.5516C73.1642 14.5516 74.3825 14.5346 75.6177 14.5516C76.5314 14.5516 77.3097 15.3976 77.242 16.3113C77.2251 17.1573 76.4806 17.9018 75.6515 17.9187C74.4163 17.9356 73.1642 17.9187 71.929 17.9356C71.929 19.0862 71.929 20.2199 71.929 21.3705C73.3334 21.3874 74.7378 21.3536 76.1591 21.3874C77.1913 21.4551 77.9527 22.6226 77.5805 23.604C77.3605 24.2808 76.6837 24.7715 75.973 24.7546C74.0441 24.7546 72.1151 24.7715 70.2031 24.7546C69.3233 24.7546 68.5449 23.9763 68.5449 23.1133C68.5449 18.5279 68.5449 13.9593 68.5618 9.37389Z" fill="#1C2436"/>
<path d="M15.9896 38.934C17.4279 38.6294 18.9507 38.8494 20.2367 39.5601C21.658 40.3215 22.7409 41.6751 23.1978 43.2318C23.6546 44.7547 23.4854 46.4467 22.7409 47.8511C21.9118 49.4416 20.3551 50.643 18.5954 50.9983C16.6834 51.4382 14.5683 50.8629 13.1301 49.5262C11.3704 47.9695 10.6766 45.3638 11.3873 43.1303C12.0303 41.0491 13.8577 39.3909 15.9896 38.934ZM16.4803 42.3012C15.1775 42.6734 14.2976 44.0778 14.5514 45.4146C14.7544 46.8359 16.1927 47.9526 17.6309 47.7327C19.1368 47.5804 20.3213 46.0745 20.0675 44.5854C19.8644 42.9442 18.037 41.7767 16.4803 42.3012Z" fill="#1C2436"/>
<path d="M34.6024 38.9507C36.2437 38.5954 38.0034 38.9338 39.3909 39.8813C40.9815 40.9642 42.0305 42.8255 42.0813 44.7544C42.1997 47.0894 40.8292 49.4075 38.731 50.4735C36.8698 51.4549 34.5178 51.3703 32.7243 50.2705C31.3875 49.4583 30.3723 48.1385 29.9662 46.6326C29.5094 45.0082 29.7632 43.1977 30.66 41.7764C31.5229 40.3382 32.9781 39.2891 34.6024 38.9507ZM35.11 42.3179C33.8072 42.6901 32.9273 44.0945 33.1811 45.4312C33.3842 46.8526 34.8055 47.9524 36.2437 47.7493C37.7666 47.614 38.9679 46.0742 38.6972 44.5683C38.4772 42.927 36.6667 41.7764 35.11 42.3179Z" fill="#1C2436"/>
<path d="M53.3673 38.917C54.924 38.6124 56.5822 38.917 57.9189 39.7969C59.2387 40.6429 60.2201 42.0134 60.5585 43.5532C60.9646 45.2452 60.6093 47.0896 59.611 48.5109C58.545 50.0676 56.7345 51.0659 54.8394 51.1336C52.4029 51.2689 49.9663 49.7969 48.968 47.5634C48.1389 45.8036 48.2235 43.6547 49.1711 41.9796C50.034 40.406 51.6076 39.2554 53.3673 38.917ZM53.7227 42.318C52.8259 42.5887 52.1152 43.3502 51.8783 44.2469C51.3876 45.8375 52.6567 47.648 54.3149 47.7495C55.9731 47.9694 57.5467 46.3958 57.3436 44.7207C57.2252 43.0117 55.3301 41.7427 53.7227 42.318Z" fill="#1C2436"/>
<path d="M49.8814 1.79346C51.2858 1.79346 52.6733 1.79346 54.0777 1.79346C54.1454 2.67332 54.9407 3.43474 55.8374 3.38398C56.7004 3.38398 57.4111 2.63948 57.4957 1.79346C58.8493 1.79346 60.186 1.79346 61.5396 1.79346C61.6073 1.87806 61.675 1.96266 61.7427 2.06418C61.895 2.85945 62.6733 3.43474 63.4686 3.4009C68.9508 3.4009 74.4161 3.4009 79.8984 3.41782C81.7089 3.4009 83.3163 5.04219 83.2825 6.85268C83.2825 13.1133 83.2994 19.3908 83.2825 25.6513C83.2655 27.4111 81.6919 28.9847 79.9153 28.9847C63.8916 28.9847 47.8679 28.9847 31.8442 28.9847C30.4567 29.0185 29.12 28.1386 28.5955 26.8527C28.3078 26.2097 28.3248 25.4821 28.3248 24.8053C28.3248 18.8155 28.3248 12.8256 28.3248 6.85268C28.2909 5.05911 29.8645 3.43474 31.675 3.41782C37.208 3.4009 42.741 3.41782 48.274 3.4009C49.0862 3.38398 49.7968 2.63948 49.8814 1.79346ZM33.8578 9.37383C33.8578 13.9424 33.8408 18.5278 33.8578 23.1133C33.8578 23.9931 34.653 24.7545 35.516 24.7376C37.1403 24.7715 38.7647 24.7545 40.3891 24.7376C41.2689 24.7376 42.0473 23.9593 42.0303 23.0794C42.0642 22.1995 41.3028 21.3704 40.406 21.3704C39.34 21.3704 38.274 21.3535 37.208 21.3704C37.208 17.3772 37.208 13.384 37.208 9.39075C37.2757 8.46012 36.4466 7.58026 35.499 7.6141C34.6192 7.59718 33.807 8.4432 33.8578 9.37383ZM45.7528 7.78331C45.1437 8.07095 44.7715 8.73085 44.8053 9.39075C44.8053 13.9593 44.8053 18.5109 44.8053 23.0794C44.7884 23.9931 45.6344 24.8053 46.5481 24.7545C47.428 24.7376 48.1894 23.9593 48.1894 23.0963C48.2063 18.5955 48.1894 14.0777 48.1894 9.55996C48.3755 8.274 46.9204 7.14033 45.7528 7.78331ZM52.3011 9.86452C53.8408 14.3315 55.3975 18.7985 56.9542 23.2655C57.1572 23.9762 57.7664 24.5684 58.5109 24.7038C59.4753 24.9237 60.5244 24.2977 60.8121 23.3501C62.3011 18.8493 63.807 14.3654 65.296 9.86452C65.5836 9.06926 65.1606 8.10479 64.3823 7.78331C63.5363 7.37721 62.4364 7.83407 62.1319 8.71393C61.1166 11.6919 60.1352 14.7038 59.1369 17.6818C59.0354 17.9017 59.0354 18.1894 58.8493 18.3586C57.7325 15.1437 56.6327 11.9119 55.499 8.69701C55.2114 7.85099 54.1623 7.36029 53.3163 7.71562C52.4534 8.00327 51.9796 9.03542 52.3011 9.86452ZM68.5616 9.37383C68.5447 13.9424 68.5447 18.5109 68.5616 23.0963C68.5616 23.9762 69.34 24.7376 70.2199 24.7376C72.1488 24.7545 74.0777 24.7545 75.9897 24.7376C76.7004 24.7376 77.3772 24.2638 77.5972 23.587C77.9694 22.6056 77.208 21.4381 76.1759 21.3704C74.7715 21.3366 73.3671 21.3704 71.9457 21.3535C71.9457 20.2029 71.9457 19.0693 71.9457 17.9187C73.1809 17.9017 74.4161 17.9356 75.6682 17.9017C76.5143 17.8848 77.2588 17.1234 77.2588 16.2943C77.3265 15.3975 76.5312 14.5515 75.6344 14.5346C74.3992 14.5177 73.1809 14.5346 71.9457 14.5346C71.9288 13.384 71.9457 12.2503 71.9457 11.0997C73.2825 11.0997 74.6361 11.0997 75.9728 11.0997C76.8358 11.1166 77.6141 10.406 77.6818 9.54303C77.7833 8.59549 76.9542 7.68178 76.0067 7.71562C74.0946 7.71562 72.1657 7.71562 70.2537 7.71562C69.3569 7.71562 68.5447 8.49397 68.5616 9.37383Z" fill="#E7D6FF"/>
<path d="M11.5565 17.7664C11.6411 16.6327 12.7578 15.7867 13.8746 15.9051C17.5463 15.9051 21.2181 15.9051 24.9067 15.9051C24.9067 17.4956 24.9067 19.0862 24.9067 20.6936C20.4566 20.6936 16.0066 20.6936 11.5396 20.6936C11.5565 19.7122 11.5226 18.7308 11.5565 17.7664Z" fill="#FFF7D6"/>
<path d="M71.8442 32.3518C73.4348 32.3518 75.0253 32.3518 76.6158 32.3518C76.6158 40.1014 76.6158 47.834 76.6158 55.5836C76.6666 56.6834 75.719 57.7156 74.6192 57.7325C73.6886 57.7325 72.7749 57.7494 71.8442 57.7325C71.8612 49.2554 71.8442 40.7951 71.8442 32.3518Z" fill="#FFF7D6"/>
<path d="M3.38415 26.1251C3.35031 25.0422 4.3317 24.0439 5.41461 24.0777C11.9121 24.0777 18.4095 24.0777 24.8901 24.0777C24.8901 25.2791 24.8224 26.4974 25.2454 27.648C26.0914 30.3552 28.7818 32.3519 31.6244 32.3519C43.8918 32.3519 56.1591 32.3519 68.4434 32.3519C68.4603 42.6395 68.4434 52.9102 68.4603 63.181C68.4603 63.6716 68.4941 64.1962 68.2742 64.653C67.9527 65.4145 67.1405 65.9221 66.3114 65.8882C54.8731 65.8882 43.418 65.8882 31.9628 65.8882C31.6244 65.8882 31.286 65.9559 30.9984 66.1251C25.2962 69.2385 19.594 72.3688 13.8748 75.4652C13.8748 72.8425 13.8748 70.2199 13.8748 67.5803C13.8918 66.6666 13.0627 65.8544 12.149 65.8882C9.89853 65.8713 7.64811 65.8882 5.38077 65.8882C4.24709 65.9052 3.26571 64.8392 3.35031 63.7055C3.38415 51.1674 3.38415 38.6463 3.38415 26.1251ZM15.9899 38.9339C13.8579 39.3738 12.0305 41.049 11.3875 43.1302C10.66 45.3637 11.3706 47.9525 13.1303 49.5261C14.5686 50.8629 16.6667 51.4381 18.5957 50.9982C20.3554 50.626 21.9121 49.4246 22.7412 47.851C23.4857 46.4466 23.6549 44.7546 23.198 43.2317C22.7412 41.675 21.6583 40.3383 20.2369 39.56C18.9679 38.8493 17.4281 38.6293 15.9899 38.9339ZM34.6024 38.9508C32.9781 39.3062 31.5229 40.3383 30.66 41.7596C29.7632 43.1979 29.5263 44.9914 29.9662 46.6158C30.3723 48.1217 31.3875 49.4415 32.7243 50.2537C34.5178 51.3535 36.8698 51.4381 38.731 50.4568C40.8292 49.4077 42.1828 47.0896 42.0813 44.7376C42.0305 42.8087 40.9814 40.9475 39.3909 39.8645C38.0204 38.917 36.2437 38.5955 34.6024 38.9508ZM53.3672 38.917C51.6075 39.2554 50.0508 40.406 49.171 41.9627C48.2234 43.6547 48.1388 45.8036 48.9679 47.5464C49.9662 49.7799 52.4028 51.2689 54.8393 51.1167C56.7344 51.049 58.5449 50.0337 59.6109 48.494C60.6092 47.0727 60.9645 45.2283 60.5584 43.5363C60.2031 41.9965 59.2217 40.6429 57.9188 39.7799C56.5821 38.917 54.907 38.6124 53.3672 38.917Z" fill="#4DF189"/>
<path d="M16.4805 42.301C18.0541 41.7765 19.8646 42.944 20.0507 44.5853C20.3045 46.0743 19.1201 47.5971 17.6142 47.7325C16.1759 47.9355 14.7377 46.8357 14.5347 45.4144C14.2978 44.0946 15.1776 42.6732 16.4805 42.301Z" fill="#FAF7F5"/>
<path d="M35.1099 42.318C36.6666 41.7765 38.4771 42.9271 38.6801 44.5684C38.9508 46.0743 37.7495 47.631 36.2267 47.7494C34.8053 47.9356 33.3671 46.8526 33.164 45.4313C32.9272 44.0946 33.807 42.6902 35.1099 42.318Z" fill="#FAF7F5"/>
<path d="M53.7225 42.3179C55.3469 41.7427 57.2419 43.0117 57.3435 44.7207C57.5465 46.3789 55.9729 47.9525 54.3147 47.7494C52.6565 47.6479 51.3875 45.8374 51.8782 44.2469C52.115 43.3501 52.8257 42.5887 53.7225 42.3179Z" fill="#FAF7F5"/>
</g>
<defs>
<clipPath id="clip0_280_481">
<rect width="86.6328" height="80" fill="white"/>
</clipPath>
</defs>
</svg>
