<svg width="55" height="65" viewBox="0 0 55 65" fill="none" xmlns="http://www.w3.org/2000/svg">
<g clip-path="url(#clip0_329_5195)">
<path d="M25.0858 0.101613C31.4081 -0.43159 37.9081 1.32036 43.0624 5.05278C45.2714 6.627 47.2518 8.50591 48.9022 10.6641C53.0663 15.92 55.0722 22.7754 54.5136 29.4532C53.9296 37.1465 49.8925 44.5352 43.6718 49.1309C42.8593 49.7149 41.6405 49.0293 41.6913 48.0391C41.6405 47.379 42.2245 46.9727 42.6815 46.6172C47.3788 42.9102 50.6034 37.4258 51.619 31.5352C52.4823 26.6602 51.7968 21.5821 49.7655 17.1133C47.4804 12.0606 43.4179 7.82036 38.4667 5.30669C33.8202 2.94536 28.3866 2.05669 23.2577 2.94536C18.7128 3.68169 14.3964 5.73833 10.9686 8.78521C6.57607 12.6446 3.60537 18.1036 2.84365 23.8926C1.57412 32.2969 5.1288 41.1836 11.7811 46.4649C12.3143 46.8965 13.0507 47.4043 12.8729 48.2168C12.7714 49.1817 11.5018 49.6387 10.7655 49.004C6.04287 45.4493 2.56435 40.2696 0.990131 34.5567C-0.533306 29.1485 -0.30479 23.2833 1.59951 18.0274C3.12294 13.7364 5.81435 9.85161 9.24208 6.85552C13.6093 2.94536 19.246 0.533253 25.0858 0.101613Z" fill="#798F07"/>
<path d="M24.6552 10.6132C28.0067 10.08 31.5106 10.5625 34.5575 12.0351C38.9247 14.0918 42.3017 18.1035 43.5712 22.7754C44.9677 27.7265 43.952 33.2871 40.829 37.375C40.3974 37.9082 39.9657 38.6445 39.204 38.6699C38.3915 38.7207 37.6806 37.832 37.9345 37.0449C38.1376 36.5117 38.5438 36.1308 38.8739 35.6738C41.413 32.2714 42.2001 27.7011 41.1083 23.6132C40.0927 19.6777 37.2743 16.2754 33.6181 14.4726C30.1903 12.7461 26.0263 12.5175 22.4208 13.8379C18.8153 15.1328 15.7938 17.9511 14.245 21.455C12.1884 26 12.7216 31.6367 15.7177 35.6484C16.0477 36.1054 16.454 36.5117 16.6571 37.0195C16.911 37.832 16.1747 38.7207 15.3368 38.6445C14.7274 38.6191 14.3466 38.1113 13.9911 37.6543C11.4774 34.5058 10.2079 30.3925 10.4364 26.3808C10.6141 22.4707 12.2645 18.6367 14.9306 15.7675C17.4696 13.0507 20.9481 11.1972 24.6552 10.6132Z" fill="#798F07"/>
<path d="M20.8194 26.6603C21.0733 23.4356 24.0694 20.7188 27.294 20.795C30.5186 20.7442 33.4893 23.4356 33.7432 26.6603C34.0225 29.1231 32.7022 31.5606 30.6455 32.8556C34.2256 42.9103 37.8311 52.9649 41.4112 63.0196C41.7158 63.6544 41.5381 64.5431 40.8779 64.8477C40.3194 65.1778 39.6592 64.9239 39.2529 64.4923C35.2666 60.506 31.2803 56.5196 27.294 52.5587C23.4346 56.4181 19.5752 60.252 15.7412 64.1114C15.335 64.4923 14.9287 64.9747 14.3194 65.0001C13.5322 65.0509 12.8467 64.2384 13.0244 63.4767C13.1514 62.8927 13.4053 62.3341 13.6084 61.7501C17.0615 52.127 20.4893 42.4786 23.9424 32.8556C21.8604 31.5606 20.5401 29.0978 20.8194 26.6603ZM26.6084 23.461C24.6787 23.7657 23.1807 25.7208 23.4092 27.6505C23.5361 29.6817 25.5166 31.3575 27.5225 31.1544C29.6553 31.0782 31.4072 28.9962 31.1279 26.8888C31.001 24.7306 28.7412 23.0294 26.6084 23.461ZM22.6221 44.2052C24.1709 45.754 25.7197 47.3028 27.2686 48.877C28.8174 47.3282 30.3662 45.7794 31.9151 44.2052C30.6709 40.7013 29.4268 37.2228 28.1572 33.7188C27.5479 33.7696 26.9385 33.7696 26.3545 33.7188C25.1358 37.2228 23.8916 40.7013 22.6221 44.2052ZM17.4678 58.6778C20.1338 56.0118 22.7998 53.3458 25.4658 50.7052C24.1963 49.4356 22.9522 48.1661 21.6826 46.922C20.2608 50.8321 18.8643 54.7677 17.4678 58.6778ZM29.1221 50.7052C31.7881 53.3712 34.4541 56.0372 37.1201 58.6778C35.7236 54.7423 34.3272 50.8321 32.9053 46.8966C31.6612 48.1661 30.3916 49.4356 29.1221 50.7052Z" fill="#798F07"/>
</g>
<defs>
<clipPath id="clip0_329_5195">
<rect width="54.5898" height="65" fill="white"/>
</clipPath>
</defs>
</svg>
