<svg width="62" height="60" viewBox="0 0 62 60" fill="none" xmlns="http://www.w3.org/2000/svg">
<g clip-path="url(#clip0_376_2450)">
<path d="M0.657137 0.0478072C1.11132 -0.023906 1.5655 0.0239028 2.01969 0.0119506C19.0396 0.0119506 36.0595 0.0119506 53.0794 0.0119506C53.6173 -0.0597626 54.1312 0.406373 54.0954 0.956174C54.1073 6.25099 54.0954 11.5458 54.0954 16.8406C56.3902 18.5618 58.2787 20.8446 59.5097 23.4502C60.5854 25.6972 61.1472 28.1833 61.195 30.6693V31.243C61.1352 35.247 59.6532 39.2032 57.0715 42.251C56.199 43.3028 55.183 44.2351 54.0954 45.0717C54.0954 49.7331 54.0954 54.3825 54.0954 59.0438C54.1312 59.5936 53.6292 60.0598 53.0794 59.988C35.701 59.988 18.3225 59.988 0.955942 59.988C0.489806 60.0239 0.107336 59.6773 0.0117188 59.2351V29.4861C0.0953841 29.0438 0.477854 28.745 0.908133 28.6853C1.38622 28.745 1.82845 29.1275 1.80455 29.6295C1.8165 36.2869 1.80455 48.9084 1.80455 55.5657C1.80455 56.4502 1.80455 57.3227 1.80455 58.1952C18.6452 58.1952 35.4739 58.1952 52.3145 58.1952C52.3145 57.3227 52.3145 56.4382 52.3145 55.5657C52.3145 53.5219 52.3145 51.4781 52.3145 49.4343C52.3145 48.3705 52.3145 47.3068 52.3145 46.2311C50.1631 47.4382 47.7727 48.2271 45.3225 48.4542C41.4858 48.8367 37.5416 47.9044 34.2786 45.8486C34.0516 46.0637 33.8245 46.3267 33.4779 46.3147C32.4141 46.3386 31.3504 46.3147 30.2986 46.3267C26.5814 46.3267 22.8524 46.3267 19.1352 46.3267C18.6332 46.3626 18.1671 45.9084 18.191 45.4064C18.191 44.9163 18.6452 44.51 19.1233 44.5339C22.195 44.5219 25.2787 44.5339 28.3504 44.5339C29.7129 44.5339 31.0635 44.5339 32.4261 44.5339C29.9639 42.502 28.0635 39.8008 26.9998 36.7888C26.0077 36.7888 25.0277 36.7888 24.0356 36.7888C22.3982 36.7888 20.7607 36.7888 19.1233 36.7888C18.6571 36.8127 18.2149 36.4303 18.191 35.9641C18.1312 35.4502 18.5974 34.9721 19.1233 35.008C20.6053 34.996 22.0874 35.008 23.5814 35.008C24.5496 35.008 25.5177 35.008 26.4858 35.008C26.3663 34.4701 26.2707 33.9323 26.187 33.3944C25.2428 33.3944 24.2986 33.3944 23.3424 33.3944C21.9081 33.3825 20.4739 33.4064 19.0396 33.3825C18.5376 33.3705 18.1312 32.8805 18.203 32.3904C18.2388 31.9243 18.681 31.5777 19.1352 31.6016C20.4858 31.5896 21.8484 31.6016 23.199 31.6016C24.1432 31.6016 25.0755 31.6016 26.0197 31.6016C25.9241 28.9482 26.438 26.2829 27.5018 23.8566C26.4739 23.8566 25.4579 23.8566 24.43 23.8566C22.6611 23.8566 20.9042 23.8566 19.1352 23.8566C18.6332 23.8924 18.1551 23.4502 18.191 22.9482C18.179 22.4582 18.6452 22.0398 19.1233 22.0757C21.179 22.0757 23.2229 22.0757 25.2787 22.0757C26.3304 22.0757 27.3703 22.0757 28.4221 22.0757C28.7567 21.5259 29.1153 20.988 29.4978 20.4622C25.9958 20.4622 22.4818 20.4502 18.9798 20.4502C18.5137 20.4024 18.1551 19.9602 18.203 19.494C18.2269 19.0279 18.6691 18.6454 19.1352 18.6693C21.8723 18.6574 24.6093 18.6693 27.3464 18.6693C28.5775 18.6693 29.8085 18.6693 31.0396 18.6693C33.8125 15.8367 37.5536 13.9602 41.4978 13.494C45.2149 13.0398 49.0635 13.8048 52.3145 15.6693C52.3145 14.6056 52.3145 13.5418 52.3145 12.4781C52.3145 11.1514 52.3145 9.8247 52.3145 8.49801C48.5018 8.49801 44.689 8.49801 40.8763 8.49801C40.3504 8.54581 39.932 8.10358 39.8842 7.60159C39.944 7.0996 40.3504 6.65737 40.8763 6.70518C44.689 6.69323 48.5018 6.70518 52.3145 6.70518C52.3145 5.07968 52.3145 3.44223 52.3145 1.81673C35.4739 1.81673 18.6452 1.81673 1.80455 1.81673C1.80455 3.44223 1.80455 5.07968 1.80455 6.70518C13.5177 6.70518 30.0237 6.70518 41.7368 6.70518C42.2627 6.65737 42.6691 7.0996 42.7289 7.60159C42.681 8.10358 42.2627 8.54581 41.7368 8.49801C30.0237 8.49801 13.5296 8.49801 1.8165 8.49801C1.8165 16.1952 1.8165 23.8805 1.8165 31.5777C1.87626 32.1155 1.43403 32.5578 0.920085 32.6056C0.501759 32.5458 0.131241 32.2709 0.0236709 31.8526V0.776891C0.0834319 0.44223 0.298571 0.11952 0.657137 0.0478072ZM41.5336 15.2869C36.7767 15.8845 32.4022 18.8008 29.9759 22.9363C28.3384 25.6972 27.5854 28.9602 27.8364 32.1633C28.0874 35.7012 29.6053 39.1315 32.0316 41.7251C34.2428 44.1155 37.2189 45.8008 40.4101 46.4462C43.183 47.0199 46.0994 46.8287 48.7767 45.8964C52.5894 44.5817 55.8285 41.749 57.6571 38.1633C59.8444 33.9681 59.9639 28.7809 57.9918 24.4781C56.5336 21.2271 53.9281 18.502 50.7488 16.8884C47.94 15.4183 44.6771 14.8685 41.5336 15.2869Z" fill="#1C2436"/>
<path d="M21.42 3.38236C21.8861 3.3226 22.3642 3.33455 22.8423 3.35845C23.404 3.3704 23.8223 4.00387 23.6192 4.52977C23.4877 4.96005 23.0096 5.18714 22.5793 5.13933C22.0415 5.09152 21.3721 5.29471 20.9658 4.84052C20.5235 4.38634 20.7865 3.51383 21.42 3.38236Z" fill="#1C2436"/>
<path d="M26.3197 3.37046C26.8217 3.3346 27.3476 3.32265 27.8496 3.38241C28.4831 3.51388 28.734 4.38639 28.2799 4.84058C27.9691 5.21109 27.4432 5.12743 27.0129 5.13938C26.5946 5.13938 26.0687 5.19914 25.7819 4.80472C25.3516 4.32663 25.6743 3.45412 26.3197 3.37046Z" fill="#1C2436"/>
<path d="M31.098 3.38235C31.5642 3.32259 32.0542 3.34649 32.5203 3.35845C32.9984 3.3704 33.3809 3.83653 33.3331 4.31462C33.3092 4.73295 32.9387 5.11542 32.5203 5.12737C32.114 5.15127 31.7076 5.13932 31.3012 5.12737C30.847 5.13932 30.4407 4.7449 30.4287 4.29072C30.3928 3.88434 30.6916 3.46602 31.098 3.38235Z" fill="#1C2436"/>
<path d="M7.07548 15.3227C7.29062 15.2271 7.52966 15.251 7.7687 15.239C9.9201 15.251 12.0715 15.239 14.2229 15.251C14.701 15.2271 15.1432 15.6454 15.1432 16.1235C15.1552 18.3944 15.1552 20.6773 15.1432 22.9482C15.1552 23.4382 14.7249 23.8685 14.2348 23.8446C11.9639 23.8565 9.70496 23.8565 7.43404 23.8446C6.95596 23.8565 6.52568 23.4263 6.54958 22.9362C6.53763 20.7012 6.54958 18.4781 6.54958 16.243C6.50177 15.8725 6.71691 15.4781 7.07548 15.3227ZM8.33046 17.0438C8.33046 18.7171 8.33046 20.3904 8.33046 22.0637C10.0038 22.0637 11.6771 22.0637 13.3504 22.0637C13.3504 20.3904 13.3504 18.7171 13.3504 17.0438C11.6771 17.0438 10.0038 17.0438 8.33046 17.0438Z" fill="#1C2436"/>
<path d="M18.6812 15.3466C18.8963 15.239 19.1353 15.2629 19.3624 15.251C20.9521 15.2629 22.5537 15.239 24.1433 15.2629C24.7051 15.251 25.1473 15.8486 24.9919 16.3745C24.8963 16.8048 24.4541 17.0797 24.0238 17.0438C22.3266 17.0319 20.6294 17.0677 18.9322 17.0319C18.0955 16.9362 17.9162 15.6693 18.6812 15.3466Z" fill="#1C2436"/>
<path d="M42.8257 18.7053C46.0169 18.4901 49.2799 19.5897 51.6703 21.7172C52.1006 22.0758 52.0289 22.8288 51.5628 23.1156C51.2042 23.3666 50.7022 23.283 50.4034 22.9842C48.5628 21.4065 46.1723 20.4981 43.746 20.4742C41.7859 20.4383 39.8138 20.9762 38.1404 22.0041C36.1683 23.1993 34.6026 25.0758 33.7898 27.2391C32.8217 29.7491 32.8815 32.6415 33.9572 35.1037C34.8894 37.267 36.5747 39.1077 38.6663 40.2073C40.5667 41.2232 42.7898 41.6296 44.9293 41.3547C46.9612 41.1037 48.9094 40.2192 50.4512 38.8686C52.1126 37.4344 53.2958 35.4742 53.7978 33.3348C54.3835 30.8367 54.013 28.1236 52.7699 25.8885C52.5309 25.53 52.4831 25.028 52.7819 24.7053C53.1285 24.263 53.9054 24.2989 54.2042 24.7889C55.6624 27.263 56.1883 30.263 55.6863 33.0838C55.3038 35.2591 54.3118 37.3268 52.8655 38.9881C51.2759 40.8288 49.1245 42.1913 46.7699 42.8128C44.1524 43.518 41.2958 43.3268 38.7978 42.2511C35.8337 40.9961 33.4193 38.534 32.2241 35.5579C31.0528 32.6774 31.0289 29.3547 32.1882 26.4622C33.24 23.773 35.2839 21.4901 37.8297 20.1395C39.3596 19.3029 41.0807 18.8009 42.8257 18.7053Z" fill="#1C2436"/>
<path d="M42.8238 24.6813C43.0509 23.9402 44.1983 23.9044 44.4851 24.6215C44.6525 25.1952 44.5329 25.8048 44.5688 26.4024C45.023 26.4144 45.4891 26.3546 45.9194 26.498C46.7321 26.761 47.3178 27.6215 47.2102 28.4701C47.1266 29.0319 46.4453 29.3785 45.9433 29.1155C45.5728 28.9602 45.4413 28.5657 45.3935 28.1952C44.521 28.1952 43.6485 28.1713 42.776 28.2072C42.023 28.2789 41.6285 29.2709 42.1066 29.8446C42.513 30.3944 43.266 30.2271 43.8517 30.251C44.6166 30.2151 45.4293 30.3108 46.0628 30.8008C47.0309 31.494 47.4612 32.8327 47.0668 33.9681C46.7202 35.0558 45.6803 35.8327 44.5568 35.9044C44.521 36.49 44.6405 37.0996 44.4732 37.6614C44.2102 38.3426 43.1345 38.3546 42.8477 37.6733C42.6684 37.0996 42.7999 36.4781 42.764 35.8924C42.1664 35.8924 41.521 35.9522 41.007 35.5936C40.3975 35.2112 39.9791 34.4343 40.1465 33.7171C40.3019 33.1673 41.007 32.9044 41.4851 33.2271C41.7959 33.4064 41.8795 33.7649 41.9393 34.0996C42.7401 34.1116 43.5528 34.1116 44.3536 34.0996C44.8676 34.1235 45.3457 33.741 45.4174 33.2391C45.513 32.7132 45.1305 32.1514 44.5927 32.0677C43.8397 31.9841 43.0748 32.1155 42.3337 31.9841C41.2222 31.757 40.3019 30.7889 40.1465 29.6653C39.9791 28.6733 40.4094 27.6096 41.2102 27C41.6524 26.6414 42.2142 26.4622 42.776 26.4024C42.7879 25.8167 42.7042 25.2311 42.8238 24.6813Z" fill="#1C2436"/>
<path d="M7.10039 28.255C7.39919 28.1474 7.70995 28.1952 8.0207 28.1832C10.0884 28.1952 12.1681 28.1713 14.2358 28.1952C14.7498 28.1713 15.192 28.6494 15.1442 29.1514C15.1442 31.3864 15.1442 33.6215 15.1442 35.8566C15.1801 36.3466 14.7498 36.8127 14.2478 36.7888C11.9649 36.8008 9.69401 36.8008 7.42309 36.7888C6.93305 36.8008 6.51473 36.3346 6.55058 35.8566C6.55058 33.6215 6.55058 31.3984 6.55058 29.1633C6.51473 28.7809 6.74182 28.3984 7.10039 28.255ZM8.33146 29.988C8.33146 31.6613 8.33146 33.3346 8.33146 35.0079C10.0048 35.0079 11.6781 35.0079 13.3514 35.0079C13.3514 33.3346 13.3514 31.6613 13.3514 29.988C11.6781 29.988 10.0048 29.9761 8.33146 29.988Z" fill="#1C2436"/>
<path d="M18.1809 29.1514C18.1211 28.6375 18.5992 28.1594 19.1131 28.1952C20.7984 28.1833 22.4836 28.1833 24.1689 28.1952C24.8502 28.2072 25.2805 29.0917 24.8382 29.6295C24.4558 30.1554 23.7506 29.9522 23.2008 29.9881C21.8382 29.9881 20.4757 29.9881 19.1131 29.9881C18.647 30.012 18.2048 29.6295 18.1809 29.1514Z" fill="#1C2436"/>
<path d="M7.31437 41.1514C9.62114 41.1275 11.9279 41.1395 14.2347 41.1395C14.7367 41.1156 15.167 41.5697 15.1431 42.0598C15.1431 44.3307 15.155 46.5897 15.1431 48.8606C15.1431 49.3387 14.7128 49.757 14.2347 49.7331C11.9638 49.7331 9.6809 49.745 7.40998 49.7331C6.90799 49.7331 6.51357 49.255 6.54943 48.765C6.54943 46.5299 6.54943 44.3068 6.54943 42.0717C6.51357 41.6295 6.86018 41.1873 7.31437 41.1514ZM8.3303 42.9323C8.3303 44.6056 8.3303 46.267 8.3303 47.9403C10.0036 47.9403 11.6769 47.9403 13.3502 47.9403C13.3502 46.267 13.3502 44.5936 13.3502 42.9323C11.6769 42.9323 10.0036 42.9323 8.3303 42.9323Z" fill="#1C2436"/>
<path d="M18.9204 41.1633C20.6654 41.1275 22.4104 41.1514 24.1555 41.1514C24.6814 41.1394 25.1236 41.6892 25.016 42.2032C24.9443 42.6573 24.4901 42.98 24.0359 42.9322C22.3985 42.9322 20.761 42.9322 19.1236 42.9322C18.6933 42.9561 18.275 42.6334 18.2033 42.2032C18.0957 41.737 18.4423 41.2231 18.9204 41.1633Z" fill="#1C2436"/>
<path d="M18.4554 48.2032C18.6825 47.9522 19.041 47.9403 19.3637 47.9403C23.6426 47.9522 27.9335 47.9403 32.2243 47.9403C32.7263 47.9522 33.2402 47.8805 33.7422 48C34.2083 48.1435 34.4115 48.6693 34.3279 49.1235C34.1486 49.494 33.79 49.7809 33.3597 49.7331C28.6506 49.7331 23.9534 49.7331 19.2442 49.7331C18.9813 49.7331 18.6944 49.7092 18.5032 49.518C18.0968 49.2072 18.0848 48.5498 18.4554 48.2032Z" fill="#1C2436"/>
<path d="M1.79297 1.80469C18.6336 1.80469 35.4623 1.80469 52.3029 1.80469C52.3029 3.43019 52.3029 5.06764 52.3029 6.69313C48.4902 6.69313 13.5061 6.69313 1.79297 6.69313C1.79297 5.05568 1.79297 3.43019 1.79297 1.80469ZM21.4185 3.38238C20.785 3.51385 20.5221 4.38636 20.9762 4.84054C21.3826 5.29473 22.0519 5.09154 22.5898 5.13935C23.0201 5.18716 23.4981 4.96007 23.6296 4.52979C23.8328 4.00389 23.4145 3.37042 22.8527 3.35847C22.3627 3.33457 21.8846 3.32262 21.4185 3.38238ZM26.3189 3.37042C25.6734 3.45409 25.3507 4.3266 25.793 4.80469C26.0798 5.18716 26.5938 5.13935 27.024 5.13935C27.4543 5.1274 27.9802 5.21106 28.291 4.84054C28.7452 4.38636 28.4822 3.51385 27.8607 3.38238C27.3468 3.32262 26.8209 3.33457 26.3189 3.37042ZM31.0997 3.38238C30.6934 3.47799 30.3946 3.88437 30.4304 4.3027C30.4424 4.75688 30.8487 5.1513 31.3029 5.13935C31.7093 5.1513 32.1157 5.1513 32.5221 5.13935C32.9523 5.1274 33.3109 4.74493 33.3348 4.3266C33.3826 3.86046 32.9882 3.39433 32.5221 3.37042C32.0559 3.33457 31.5778 3.32262 31.0997 3.38238Z" fill="#D6FFD8"/>
<path d="M8.33203 17.0437C10.0053 17.0437 11.6786 17.0437 13.352 17.0437C13.352 18.717 13.352 20.3903 13.352 22.0636C11.6786 22.0636 10.0053 22.0636 8.33203 22.0636C8.33203 20.3903 8.33203 18.717 8.33203 17.0437Z" fill="#FFEFEB"/>
<path d="M40.8645 8.48607C44.6772 8.49803 48.49 8.48607 52.3027 8.48607C52.3027 9.81277 52.3027 11.1395 52.3027 12.4662C49.0039 10.9602 45.3226 10.2669 41.7131 10.6375C36.0716 11.1156 30.7051 14.1156 27.3346 18.6574C24.5975 18.6574 21.8605 18.6454 19.1234 18.6574C18.6573 18.6335 18.215 19.016 18.1911 19.4821C18.1433 19.9482 18.5139 20.3905 18.968 20.4383C20.0915 20.6175 21.227 20.498 22.3505 20.5219C23.5577 20.5458 24.7648 20.4741 25.972 20.5578C25.7449 21.0598 25.5059 21.5498 25.2788 22.0638C23.223 22.0638 21.1792 22.0638 19.1234 22.0638C18.6334 22.0279 18.1792 22.4462 18.1911 22.9363C18.1672 23.4502 18.6334 23.8805 19.1354 23.8446C20.9043 23.8566 22.6613 23.8446 24.4302 23.8446C24.0119 25.2191 23.5457 26.5936 23.4262 28.0399C23.6772 28.0877 23.9282 28.1355 24.1792 28.1833C22.4939 28.1713 20.8087 28.1713 19.1234 28.1833C18.6095 28.1474 18.1314 28.6255 18.1911 29.1395C18.215 29.6056 18.6573 29.9881 19.1234 29.9642C20.486 29.9761 21.8485 29.9642 23.2111 29.9642C23.1991 30.502 23.1991 31.0399 23.1991 31.5777C21.8485 31.5777 20.486 31.5777 19.1354 31.5777C18.6812 31.5538 18.239 31.9124 18.2031 32.3666C18.1314 32.8566 18.5378 33.3466 19.0397 33.3586C20.474 33.3825 21.9083 33.3586 23.3425 33.3705C23.4262 33.9084 23.5099 34.4462 23.5816 34.9841C22.0995 34.9841 20.6174 34.9721 19.1234 34.9841C18.6095 34.9482 18.1314 35.4263 18.1911 35.9403C18.215 36.4064 18.6573 36.7889 19.1234 36.765C20.7609 36.7769 22.3983 36.765 24.0358 36.765C24.8963 39.6215 26.4023 42.263 28.3505 44.51C25.2788 44.51 22.1951 44.51 19.1234 44.51C18.6334 44.4741 18.1911 44.8925 18.1911 45.3825C18.1553 45.8845 18.6214 46.3387 19.1354 46.3028C22.8525 46.3028 26.5816 46.3028 30.2987 46.3028C30.8605 46.9243 31.5776 47.3785 32.223 47.9164C27.9322 47.9164 23.6533 47.9164 19.3625 47.9164C19.0517 47.9164 18.6931 47.9283 18.4541 48.1793C18.0836 48.5259 18.1075 49.1833 18.5019 49.506C18.6931 49.6972 18.98 49.7211 19.2429 49.7211C23.9521 49.7211 28.6493 49.7211 33.3585 49.7211C33.7888 49.7689 34.1473 49.4701 34.3266 49.1116C38.9402 51.502 44.474 51.9921 49.4461 50.498C50.4262 50.2112 51.3704 49.8168 52.3147 49.4223C52.3147 51.4662 52.3147 53.51 52.3147 55.5538C40.0637 55.5299 27.8007 55.5538 15.5497 55.5419C10.972 55.5538 6.38238 55.5299 1.80469 55.5538C1.80469 48.9084 1.80469 16.1713 1.80469 8.47412C13.5178 8.47412 25.231 8.47412 36.9441 8.47412C37.4581 8.53388 40.3386 8.53388 40.8645 8.48607ZM7.0756 15.3227C6.71704 15.4781 6.5019 15.8725 6.53776 16.255C6.53776 18.4901 6.53776 20.7132 6.53776 22.9482C6.51385 23.4263 6.94413 23.8566 7.42222 23.8566C9.69313 23.8685 11.9521 23.8685 14.223 23.8566C14.7131 23.8685 15.1433 23.4502 15.1314 22.9602C15.1314 20.6893 15.1433 18.4064 15.1314 16.1355C15.1433 15.6574 14.7011 15.2391 14.2111 15.263C12.0597 15.251 9.90827 15.263 7.75688 15.251C7.52979 15.251 7.29074 15.2391 7.0756 15.3227ZM18.6812 15.3466C17.9162 15.6693 18.0955 16.9482 18.9322 17.0319C20.6294 17.0797 22.3266 17.0438 24.0238 17.0438C24.4541 17.0797 24.8844 16.8048 24.9919 16.3745C25.1473 15.8367 24.7051 15.2391 24.1433 15.263C22.5537 15.251 20.9521 15.263 19.3625 15.251C19.1354 15.251 18.8963 15.2391 18.6812 15.3466ZM7.09951 28.255C6.74094 28.3984 6.51385 28.7689 6.53776 29.1514C6.53776 31.3865 6.53776 33.6096 6.53776 35.8446C6.5019 36.3347 6.92023 36.7889 7.41027 36.7769C9.68118 36.7889 11.9641 36.7889 14.235 36.7769C14.737 36.7889 15.1553 36.3347 15.1314 35.8446C15.1314 33.6096 15.1314 31.3745 15.1314 29.1395C15.1672 28.6375 14.737 28.1594 14.223 28.1833C12.1553 28.1713 10.0756 28.1833 8.00788 28.1713C7.70907 28.1952 7.38636 28.1594 7.09951 28.255ZM7.31465 41.1514C6.86046 41.1873 6.51385 41.6295 6.53776 42.0717C6.5258 44.3068 6.53776 46.5299 6.53776 48.765C6.48995 49.255 6.89632 49.7331 7.39831 49.7331C9.66923 49.745 11.9521 49.7331 14.223 49.7331C14.7011 49.757 15.1433 49.3387 15.1314 48.8606C15.1433 46.5897 15.1314 44.3307 15.1314 42.0598C15.1553 41.5697 14.725 41.1156 14.223 41.1395C11.9282 41.1395 9.62142 41.1275 7.31465 41.1514ZM18.9202 41.1634C18.4421 41.2351 18.0955 41.7371 18.2031 42.2032C18.2748 42.6335 18.6931 42.9562 19.1234 42.9323C20.7609 42.9442 22.3983 42.9323 24.0358 42.9323C24.4899 42.9681 24.9441 42.6574 25.0158 42.2032C25.1354 41.6773 24.6931 41.1395 24.1553 41.1514C22.3983 41.1395 20.6533 41.1156 18.9202 41.1634Z" fill="#F6F6F9"/>
<path d="M41.7144 10.6375C45.324 10.2789 49.0172 10.9602 52.3041 12.4781C52.3041 13.5419 52.3041 14.6056 52.3041 15.6694C49.0531 13.8048 45.2045 13.0279 41.4873 13.4941C37.5431 13.9483 33.8021 15.8248 31.0292 18.6694C29.7981 18.6694 28.567 18.6694 27.3359 18.6694C30.7065 14.1036 36.073 11.1156 41.7144 10.6375Z" fill="#E8E7EE"/>
<path d="M18.9688 20.4382C22.4707 20.4382 25.9847 20.4382 29.4867 20.4502C29.1042 20.9761 28.7456 21.5139 28.411 22.0637C27.3592 22.0637 26.3193 22.0637 25.2676 22.0637C25.4946 21.5617 25.7337 21.0597 25.9608 20.5578C24.7536 20.4741 23.5464 20.5458 22.3393 20.5219C21.2277 20.498 20.0923 20.6175 18.9688 20.4382Z" fill="#E8E7EE"/>
<path d="M24.4303 23.8567C25.4462 23.8567 26.4741 23.8567 27.502 23.8567C26.4383 26.283 25.9243 28.9483 26.0199 31.6017C25.0757 31.6017 24.1434 31.6017 23.1992 31.6017C23.1992 31.0639 23.1992 30.526 23.2112 29.9882C23.761 29.9523 24.4661 30.1555 24.8486 29.6296C25.2909 29.0917 24.8606 28.2192 24.1793 28.1953C23.9283 28.1475 23.6773 28.0997 23.4263 28.0519C23.5339 26.6057 24.012 25.2312 24.4303 23.8567Z" fill="#E8E7EE"/>
<path d="M23.332 33.3945C24.2763 33.3945 25.2205 33.3945 26.1767 33.3945C26.2603 33.9324 26.3559 34.4702 26.4755 35.0081C25.5073 35.0081 24.5392 35.0081 23.5711 35.0081C23.4874 34.4702 23.4157 33.9324 23.332 33.3945Z" fill="#E8E7EE"/>
<path d="M24.0352 36.8008C25.0272 36.8008 26.0073 36.8008 26.9993 36.8008C28.063 39.8127 29.9634 42.5139 32.4256 44.5458C31.063 44.5458 29.7124 44.5458 28.3499 44.5458C26.3897 42.2988 24.8838 39.6574 24.0352 36.8008Z" fill="#E8E7EE"/>
<path d="M33.4644 46.3267C33.7991 46.3387 34.0381 46.0877 34.2652 45.8606C37.5282 47.9164 41.4724 48.8486 45.3091 48.4662C47.7712 48.2391 50.1617 47.4502 52.3011 46.2431C52.3011 47.3068 52.3011 48.3706 52.3011 49.4463C51.3569 49.8407 50.4126 50.2351 49.4326 50.522C44.4605 52.004 38.9266 51.514 34.313 49.1235C34.3967 48.6694 34.1935 48.1435 33.7274 48C33.2254 47.8925 32.7115 47.9642 32.2095 47.9403C31.564 47.4024 30.8469 46.9602 30.2852 46.3267C31.3489 46.3267 32.4007 46.3506 33.4644 46.3267Z" fill="#E8E7EE"/>
<path d="M1.79297 55.5657C6.37066 55.5418 10.9603 55.5657 15.538 55.5537C27.789 55.5657 40.0519 55.5418 52.3029 55.5657C52.3029 56.4382 52.3029 57.3226 52.3029 58.1951C35.4623 58.1951 18.6336 58.1951 1.79297 58.1951C1.79297 57.3226 1.79297 56.4382 1.79297 55.5657Z" fill="#E8E7EE"/>
<path d="M41.5336 15.287C44.677 14.8686 47.9399 15.4304 50.7607 16.8766C53.9399 18.4901 56.5336 21.2152 58.0037 24.4662C59.9758 28.769 59.8443 33.9563 57.669 38.1515C55.8403 41.7372 52.5894 44.5818 48.7886 45.8846C46.1232 46.8168 43.1949 47.0081 40.422 46.4344C37.2188 45.777 34.2547 44.1037 32.0316 41.7133C29.6053 39.1196 28.0874 35.6894 27.8364 32.1515C27.5854 28.9483 28.3384 25.6854 29.9758 22.9244C32.4021 18.789 36.7766 15.8726 41.5336 15.287ZM42.8244 18.7053C41.0794 18.8129 39.3583 19.3029 37.8045 20.1276C35.2587 21.4782 33.2268 23.7611 32.1631 26.4503C31.0156 29.3427 31.0276 32.6654 32.1989 35.5459C33.3941 38.522 35.8204 40.9842 38.7726 42.2392C41.2706 43.3148 44.1272 43.5061 46.7447 42.8009C49.0993 42.1794 51.2507 40.8168 52.8403 38.9762C54.2866 37.3029 55.2786 35.2471 55.6611 33.0718C56.1631 30.2511 55.6372 27.2511 54.179 24.777C53.8802 24.287 53.1152 24.2511 52.7567 24.6933C52.4459 25.028 52.5057 25.518 52.7447 25.8766C53.9997 28.1236 54.3702 30.8248 53.7726 33.3228C53.2826 35.4623 52.0874 37.4224 50.426 38.8567C48.8842 40.2073 46.936 41.0798 44.9041 41.3427C42.7646 41.6296 40.5415 41.2232 38.6411 40.1953C36.5615 39.0838 34.8642 37.2551 33.932 35.0917C32.8563 32.6296 32.7965 29.7372 33.7646 27.2272C34.5774 25.0639 36.1431 23.1993 38.1152 21.9921C39.7886 20.9643 41.7607 20.4264 43.7208 20.4623C46.1471 20.4862 48.5376 21.3945 50.3782 22.9722C50.677 23.271 51.179 23.3547 51.5376 23.1037C52.0156 22.8168 52.0754 22.0639 51.6451 21.7053C49.2786 19.5897 46.0156 18.4901 42.8244 18.7053ZM42.8244 22.4105C39.9798 22.6376 37.3264 24.4065 36.0117 26.9403C35.1033 28.6256 34.8045 30.6336 35.1511 32.522C35.4858 34.3627 36.4539 36.0838 37.8403 37.3388C39.2866 38.6535 41.187 39.4423 43.1232 39.538C45.0953 39.6455 47.1152 39.0479 48.6929 37.8527C50.2228 36.7292 51.3463 35.0798 51.8483 33.2392C52.2905 31.6376 52.2547 29.9045 51.7407 28.3268C51.0834 26.283 49.6372 24.5021 47.7487 23.4623C46.2786 22.6137 44.5336 22.2551 42.8244 22.4105Z" fill="#4DF189"/>
<path d="M42.8261 22.4104C44.5353 22.255 46.2803 22.6255 47.7743 23.4622C49.6508 24.502 51.109 26.2829 51.7664 28.3267C52.2803 29.9044 52.3162 31.6375 51.8739 33.239C51.3719 35.0677 50.2484 36.7171 48.7186 37.8526C47.1289 39.0478 45.1209 39.6454 43.1488 39.5378C41.2006 39.4422 39.3002 38.6534 37.866 37.3386C36.4676 36.0837 35.4994 34.3745 35.1767 32.5219C34.8182 30.6335 35.1289 28.6374 36.0373 26.9402C37.3401 24.4064 39.9815 22.6374 42.8261 22.4104ZM42.8261 24.6813C42.7066 25.243 42.7903 25.8167 42.7664 26.3904C42.2046 26.4502 41.6429 26.6295 41.2006 26.988C40.3998 27.5976 39.9696 28.6614 40.1369 29.6534C40.2923 30.7769 41.2126 31.745 42.3241 31.9721C43.0652 32.1155 43.8301 31.9841 44.5831 32.0558C45.109 32.1394 45.5034 32.7012 45.4078 33.2271C45.3361 33.7291 44.846 34.1116 44.3441 34.0877C43.5433 34.0996 42.7305 34.0996 41.9297 34.0877C41.87 33.7649 41.7863 33.3944 41.4755 33.2151C41.0094 32.8924 40.2923 33.1554 40.1369 33.7052C39.9696 34.4343 40.3879 35.1992 40.9974 35.5817C41.5114 35.9402 42.1568 35.8805 42.7544 35.8805C42.7903 36.4661 42.6588 37.0877 42.8381 37.6614C43.1249 38.3426 44.2006 38.3307 44.4636 37.6494C44.6309 37.0757 44.5114 36.4661 44.5472 35.8924C45.6708 35.8088 46.7225 35.0319 47.0572 33.9562C47.4516 32.8327 47.0213 31.4821 46.0532 30.7888C45.4317 30.2988 44.619 30.2032 43.8421 30.239C43.2564 30.2151 42.5034 30.3944 42.097 29.8327C41.619 29.259 42.0134 28.2669 42.7664 28.1952C43.6389 28.1594 44.5114 28.1833 45.3839 28.1833C45.4317 28.5418 45.5632 28.9482 45.9337 29.1036C46.4357 29.3665 47.117 29.0199 47.2006 28.4582C47.3082 27.6096 46.7106 26.749 45.9098 26.4861C45.4795 26.3426 45.0134 26.4024 44.5592 26.3904C44.5233 25.8048 44.6429 25.1833 44.4755 24.6096C44.2006 23.9044 43.0532 23.9402 42.8261 24.6813Z" fill="#4DF189"/>
<path d="M8.33203 29.988C10.0053 29.988 11.6786 29.988 13.352 29.988C13.352 31.6613 13.352 33.3347 13.352 35.008C11.6786 35.008 10.0053 35.008 8.33203 35.008C8.33203 33.3347 8.33203 31.6613 8.33203 29.988Z" fill="#E7D6FF"/>
<path d="M8.33203 42.9324C10.0053 42.9324 11.6786 42.9324 13.352 42.9324C13.352 44.6057 13.352 46.279 13.352 47.9403C11.6786 47.9403 10.0053 47.9403 8.33203 47.9403C8.33203 46.267 8.33203 44.6057 8.33203 42.9324Z" fill="#EBFA9E"/>
</g>
<defs>
<clipPath id="clip0_376_2450">
<rect width="61.1952" height="60" fill="white"/>
</clipPath>
</defs>
</svg>
