<svg width="348" height="273" viewBox="0 0 348 273" fill="none" xmlns="http://www.w3.org/2000/svg">
<rect width="348" height="273" rx="4" fill="white"/>
<g clip-path="url(#clip0_2378_4)">
<path d="M266.514 47.8591C268.027 47.001 269.857 46.7346 271.359 45.8436C269.732 46.4825 267.847 46.6945 266.514 47.8591Z" fill="#D6FFD8"/>
<path d="M275.879 44.3838C274.897 44.4296 273.996 44.8164 272.701 45.451C274.663 45.1388 274.663 45.1388 275.879 44.3838Z" fill="#D6FFD8"/>
<path d="M299.465 43.5377C298.428 43.6394 297.425 43.7296 295.931 44.433C297.292 44.625 298.366 43.9932 299.465 43.5377Z" fill="#D6FFD8"/>
<path d="M296.693 46.1994C298.025 45.8843 299.059 45.562 300.002 44.976C299.013 45.4302 297.718 45.1049 296.693 46.1994Z" fill="#D6FFD8"/>
<path d="M112.822 98.8575C113.006 98.5352 113.147 98.3017 113.21 98.0581C113.21 98.0581 112.735 98.0753 112.537 98.1441C111.988 98.3718 111.793 98.6612 112.038 98.8346C112.127 98.8775 112.447 98.8403 112.822 98.8575Z" fill="#D6FFD8"/>
<path d="M256.714 48.273C257.461 47.9764 258.208 47.6799 258.9 47.3289C259.119 47.2158 259.291 46.8605 259.191 46.7846C258.946 46.6112 258.352 46.8175 257.902 47.0109C257.605 47.114 256.792 47.4335 257.123 47.4292C259.056 47.4593 256.116 48.1483 256.714 48.273C256.175 48.4234 255.577 48.2987 255.185 48.7672C255.131 48.8231 255.463 48.9291 255.673 48.8933C256.368 48.8732 256.818 48.6798 256.714 48.273Z" fill="#D6FFD8"/>
<path d="M260.923 47.5123C261.815 47.3132 262.34 46.9092 262.799 46.5281C261.996 46.7702 261.17 46.9464 260.923 47.5123Z" fill="#D6FFD8"/>
<path d="M237.538 51.2794C238.845 50.6777 240.567 50.6334 241.867 49.4802C240.184 50.0646 238.799 50.5459 237.447 51.0158C236.898 51.2436 235.841 51.5 235.954 51.7192C236.123 51.9928 236.98 51.6948 237.538 51.2794Z" fill="#D6FFD8"/>
<path d="M135.457 90.698C134.58 91.2609 133.274 91.0131 132.61 91.7609C132.534 91.8612 132.613 91.9815 132.723 91.9801C133.971 91.9529 134.602 91.2165 135.457 90.698Z" fill="#D6FFD8"/>
<path d="M180.832 69.5783C179.986 69.9092 180.66 69.9335 180.783 70.0754C181.678 70.0969 182.481 69.8548 183.203 69.2717C182.853 68.6915 181.69 69.2803 180.832 69.5783Z" fill="#D6FFD8"/>
<path d="M160.128 77.5473C159.246 77.669 158.242 77.7593 157.545 78.5185C158.65 78.6145 159.316 77.9771 160.128 77.5473Z" fill="#D6FFD8"/>
<path d="M177.616 70.2156C177.637 70.1712 177.427 70.0967 177.283 70.1096C176.588 70.1297 176.206 70.5208 175.701 70.77C174.62 70.8502 173.697 71.1711 172.624 71.9132C173.858 71.7427 174.825 71.333 175.77 70.9677C176.43 70.7385 177.191 70.6956 177.616 70.2156Z" fill="#D6FFD8"/>
<path d="M143.34 83.4907C142.206 83.7371 141.338 84.1124 140.761 84.7929C142.297 84.8502 142.819 84.2256 143.34 83.4907Z" fill="#D6FFD8"/>
<path d="M138.271 86.9876C137.973 86.9804 137.729 86.9173 137.409 86.9546C137.023 87.0147 136.684 87.2067 136.576 87.4288C136.623 87.6709 137.063 87.5548 137.393 87.4402C137.69 87.3371 137.997 87.1566 138.271 86.9876Z" fill="#D6FFD8"/>
<path d="M164.037 80.2879C162.859 80.5128 161.968 80.8223 161.125 81.3738C162.138 81.2062 163.165 81.1819 164.037 80.2879Z" fill="#D6FFD8"/>
<path d="M117.025 91.3781C118.137 91.0658 118.762 90.7377 119.23 90.169C118.283 90.424 117.436 90.6446 117.025 91.3781Z" fill="#D6FFD8"/>
<path d="M139.914 86.8229C138.85 87.3773 138.17 87.7612 137.205 88.2812C138.931 87.7183 138.931 87.7183 139.914 86.8229Z" fill="#D6FFD8"/>
<path d="M171.082 72.264C170.552 72.2268 170.024 72.4101 169.323 72.8385C170.051 72.807 170.515 72.8672 171.085 72.4847C171.151 72.4617 171.16 72.2741 171.082 72.264Z" fill="#D6FFD8"/>
<path d="M149.598 81.501C150.204 81.3276 150.962 81.0641 150.937 80.7775C150.865 80.3592 150.043 80.8663 149.582 81.0268C149.153 81.1758 148.77 81.4565 148.331 81.6829C147.925 81.8978 147.079 82.2287 147.555 82.3218C148.274 82.478 148.817 81.6986 149.598 81.501Z" fill="#D6FFD8"/>
<path d="M161.545 78.7536C162.163 78.7235 162.943 78.4155 163.49 77.9671C163.236 77.9814 162.993 78.0287 162.773 78.0316C162.704 77.8339 163.536 77.2494 162.677 77.437C162.435 77.4843 161.2 77.6548 161.074 78.1418C161.042 78.2636 161.671 78.2665 161.981 78.3066C161.674 78.4871 161.082 78.8037 161.545 78.7536Z" fill="#D6FFD8"/>
<path d="M173.669 72.4733C173.469 72.4318 173.181 72.3473 173.082 72.3816C172.742 72.5736 172.48 72.7756 172.217 72.9776C172.471 72.9633 172.713 72.916 173 72.8902C173.241 72.7326 173.449 72.5865 173.669 72.4733Z" fill="#D6FFD8"/>
<path d="M291.765 51.2722C291.831 51.2493 291.864 51.2378 291.93 51.2149C291.897 51.2264 291.819 51.2163 291.786 51.2278C291.786 51.2278 291.753 51.2393 291.765 51.2722C291.753 51.2393 291.765 51.2722 291.765 51.2722Z" fill="#D6FFD8"/>
<path d="M171.654 116.785C169.278 116.65 168.123 117.901 165.846 118.581C168.284 118.473 169.687 117.616 171.654 116.785Z" fill="#D6FFD8"/>
<path d="M306.675 48.8614C308.05 48.4575 309.181 47.9905 309.834 47.2097C310.011 47.1854 310.187 47.161 310.352 47.1037C311.192 47.1811 312.075 47.1696 312.795 47.3258C313.238 47.4304 313.446 47.2843 313.708 47.0823C313.883 46.9476 314.001 46.6482 314.001 46.6482C313.096 46.7041 313.206 45.7428 311.549 46.6138C311.538 46.5808 311.439 46.6152 311.428 46.5823L292.528 53.1489C292.45 53.1388 292.34 53.1403 292.229 53.1417C291.766 53.1918 291.305 53.3523 291.373 53.55L288.57 54.5241C289.103 53.9324 287.258 54.6845 287.177 54.4538C287.019 54.1028 287.287 53.4926 285.715 54.0756C285.527 54.067 285.295 54.0369 285.107 54.0283C284.177 53.7976 286.311 53.1301 285.633 52.7748C284.797 53.0283 283.873 53.3492 282.938 53.6371C283.309 52.3636 285.864 51.845 287.322 50.9325C288.642 50.5844 288.811 49.8982 290.251 49.361C288.123 49.6203 286.503 50.8107 284.956 50.7204C285.065 50.6087 285.141 50.5084 285.25 50.3967C285.602 50.2376 285.953 50.0786 286.337 49.9082C287.426 49.53 288.615 49.2277 289.534 48.5759C290.974 48.0387 292.636 47.609 293.854 46.9643C295.225 46.2295 293.706 46.6463 293.309 46.6735C294.5 45.632 296.575 45.539 298.086 44.5706C295.048 45.294 292.392 46.5861 289.051 47.9312C290.08 47.1677 291.016 46.9901 291.199 46.5574C291.242 46.4686 291.263 46.4242 291.24 46.3583C292.164 46.0374 293.12 45.7051 294.033 45.3512C294.165 45.3054 294.239 45.0948 294.348 44.9831C294.073 45.0418 293.765 45.112 293.489 45.1707C292.618 45.2151 291.779 45.248 290.907 45.2924C291.201 44.9687 292.235 44.6464 292.01 44.3183C291.943 44.2309 291.371 44.3928 291.018 44.4415C290.017 44.7523 289.06 45.0847 288.06 45.3955C287.565 45.5674 287.059 45.7064 286.597 45.8668C286.079 45.9728 285.55 46.0459 285.032 46.1519C283.654 46.3352 283.44 45.0802 281.148 46.3566C280.101 46.5357 279.02 46.6159 278.18 47.388C275.94 47.5384 273.416 48.7847 271.176 48.9351C270.888 48.8506 270.633 48.7546 270.345 48.67C269.404 48.5167 268.648 49.0009 267.859 49.4966C265.237 49.9277 262.843 51.0179 260.438 52.0751C259.18 52.1796 257.895 52.7369 256.631 53.1394C256.54 52.9861 256.417 52.8443 256.338 52.724C257.573 52.5535 258.591 51.8673 259.757 51.4992C260.318 51.3043 261.221 51.1382 261.25 50.7958C261.322 50.3646 260.4 50.7958 259.882 50.9018C259.254 51.0092 259.12 50.8344 258.952 50.6711C258.929 50.6052 258.885 50.5837 258.862 50.5178C259.893 49.9749 260.181 50.9089 261.308 50.111C261.826 50.005 262.401 50.0638 262.837 49.6168C263.142 49.326 263.041 49.1397 262.5 49.1798C262.728 48.879 263.134 48.6641 263.663 48.5911C264.082 48.5195 264.034 49.1269 264.843 48.4765C264.964 48.3977 265.028 48.2645 265.006 48.1986C264.825 47.892 264.22 48.0653 263.626 48.2716C262.769 48.5696 261.878 48.879 261.032 49.2099C257.723 50.4333 254.267 51.3386 251.095 52.847L251.062 52.8585C250.787 52.9172 250.523 53.0089 250.315 53.155C247.85 53.8269 245.406 54.4543 242.941 55.1261C242.93 55.0932 242.907 55.0273 242.895 54.9943C243.642 54.6978 244.113 54.3497 243.921 54.0101C245.551 53.7022 247.104 53.3842 247.444 52.2324C247.806 52.1063 248.125 51.9588 248.488 51.8327C249.666 51.6078 250.622 51.1652 251.398 50.5262C252.103 50.4288 252.716 50.9174 253.556 50.0349C254.134 49.4647 253.515 49.3845 252.775 49.3831C252.366 49.3773 251.958 49.3716 251.549 49.3658C250.197 49.8357 248.811 50.317 247.459 50.7869C247.261 50.8556 247.063 50.9244 246.832 51.0046C245.669 51.5934 244.386 51.4114 243.236 52.1435C242.385 52.1434 241.492 52.2322 241.65 51.6234C242.244 51.4171 242.838 51.2108 243.431 51.0045C245.171 50.5848 246.774 49.88 248.399 49.1308C245.703 49.8829 242.996 50.602 240.3 51.354C238.748 51.7823 236.389 52.1218 235.534 53.4899L235.567 53.4785C234.972 53.5744 234.408 53.5486 233.739 53.8552C233.541 53.9239 233.31 54.0042 233.1 54.04C233.012 53.997 232.956 53.9426 232.921 53.8437C232.76 53.2721 232.905 52.52 230.741 53.4196C230.517 53.2018 230.001 53.4182 229.528 53.5456C228.402 53.6044 227.357 53.8937 226.493 54.6C226.328 54.6573 226.163 54.7146 225.999 54.7719C224.728 54.7332 223.456 55.4337 222.203 55.8692C221.609 56.0754 221.015 56.2817 220.454 56.4765C218.471 56.8332 216.444 57.1684 214.97 58.5666C215.015 58.5881 215.158 58.5752 215.236 58.5852C215.203 58.5967 215.17 58.6081 215.137 58.6196L215.003 58.5551C214.553 58.7485 214.157 58.886 213.858 58.7685C213.912 58.7127 213.967 58.6568 213.988 58.6124C213.977 58.5794 213.921 58.525 213.855 58.5479C212.6 58.8731 211.345 59.1983 210.124 59.512C209.695 59.661 209.299 59.7985 208.87 59.9475C207.77 60.2927 206.837 60.6909 206.624 61.3557C206.019 61.529 205.392 61.7467 204.787 61.9201C204.122 61.708 202.851 62.5188 202.207 62.2624C201.676 62.1148 201.006 62.4214 200.346 62.6506C199.95 62.7881 199.522 62.9371 199.126 63.0746C196.836 63.6118 195.663 65.2377 193.284 65.7319C192.778 65.8709 192.361 66.0528 192.132 66.3537C191.517 66.6043 190.813 66.8121 190.464 67.1917C190.267 67.2604 190.08 67.3622 189.882 67.4309C189.748 67.2561 189.854 66.9238 189.193 67.0427C189.06 66.9782 188.971 66.9352 188.837 66.8707C189.463 66.5427 190.077 66.1817 191.349 65.4812C189.799 66.0198 189.007 66.2948 188.215 66.5699C186.225 67.2245 187.848 67.2146 187.807 67.524C187.204 67.8076 186.355 67.9179 186.151 68.395C185.987 68.5626 185.824 68.7302 185.66 68.8978C185.264 69.0353 184.836 69.1843 184.428 69.2889L184.427 69.1786C184.008 69.2502 183.59 69.3218 183.204 69.382C182.379 69.6685 181.576 69.9106 180.785 70.1856C180.819 70.2844 180.82 70.3948 180.855 70.4936C180.855 70.4936 180.889 70.5925 180.879 70.6698C180.418 70.9406 180.466 71.1827 180.501 71.3918C178.885 71.9534 177.146 72.3731 175.71 73.2412C173.46 75.2783 177.802 72.7728 177.282 73.618C177.317 73.7169 177.351 73.8157 177.385 73.9146C176.572 74.234 175.603 74.4231 175.025 74.9933C173.837 75.4058 172.617 75.8299 171.397 76.2539C171.464 76.3413 171.498 76.4401 171.566 76.5275C172.093 76.3441 172.621 76.1608 173.149 75.9774C173.437 76.062 174.108 75.8657 174.068 76.1751C173.21 76.4731 172.241 76.6622 171.751 77.2753C171.302 77.579 170.796 77.718 170.203 77.9243C168.619 78.4743 166.749 79.0502 166.718 80.1318C166.082 80.4269 165.445 80.722 164.808 81.0171C163.959 81.1274 163.178 81.3251 162.588 81.8623C161.368 82.2863 160.035 82.6015 158.973 83.2662C157.994 83.6429 157.028 84.0526 156.083 84.4179C155.181 84.6944 154.234 84.9494 153.579 85.5095C152.292 85.9564 151.929 86.932 150.332 87.2285C150.276 87.1741 150.208 87.0867 150.086 87.0552C149.965 86.1741 148.422 87.2643 147.682 87.2629C147.461 87.2657 147.196 87.2471 146.975 87.2499C145.733 87.7184 144.433 87.9118 143.248 88.5449C142.062 89.0678 140.887 89.6236 139.734 90.135C139.992 90.4516 140.999 89.7325 141.181 90.1494C140.389 90.4244 139.597 90.6995 138.806 90.9745C136.467 91.1593 134.232 91.6406 132.418 93.2307C131.533 93.9814 131.166 93.7765 130.831 93.4499C130.75 93.1089 130.297 93.0817 129.538 93.3453C128.602 93.5229 128.988 92.6132 127.691 93.1375C126.439 93.6833 129.25 93.2607 127.602 93.944C127.404 94.0128 127.262 94.136 127.076 94.2377C125.353 95.1316 123.808 96.1115 121.527 96.461C120.678 96.5713 119.06 97.0225 118.276 97.8491C117.375 98.2359 116.081 98.9808 115.595 98.965C112.989 98.9105 111.362 100.399 109.374 101.274C108.922 101.357 108.318 101.641 108.017 101.413C109.466 100.688 110.252 99.972 109.979 99.2915C110.13 98.9806 110.236 98.6483 110.387 98.3374C111.474 97.8489 112.172 97.2 111.519 97.0209C110.865 96.8418 110.797 97.6039 110.182 97.8546C108.69 98.6683 107.143 99.4276 105.337 99.8702C104.843 100.042 104.303 100.192 103.809 100.364C101.174 101.612 99.2325 101.77 97.8854 100.871C98.8992 100.704 99.9116 100.426 100.434 99.8013C100.543 99.6896 100.206 99.2526 99.2814 99.4632C97.9162 99.7898 97.126 100.175 97.3549 100.834C96.0914 101.347 95.0185 102.089 93.6318 102.46C93.6176 102.206 93.6034 101.953 93.6223 101.688C93.746 100.98 93.746 100.98 91.4957 102.057C90.1837 102.218 88.4214 102.572 89.8733 101.218C90.2563 100.937 90.9489 100.696 90.9119 100.377C90.2838 100.484 89.6571 100.702 89.019 100.887C86.3802 101.804 83.7859 102.742 81.1472 103.659C78.1786 104.69 75.1771 105.733 72.2085 106.765C69.8006 107.601 67.4143 108.393 65.0065 109.23C63.9812 109.364 63.0604 109.906 62.0924 110.205C59.7121 110.589 57.4921 111.434 55.3751 112.576C55.7076 112.682 56.1923 112.588 56.6871 112.416C56.6871 112.416 56.6541 112.427 56.6211 112.439C56.267 112.377 55.8369 112.416 55.3421 112.588C51.9548 113.691 48.9472 115.142 46.0514 116.702C44.4622 117.66 43.4909 118.589 43.3369 119.528C42.8105 119.822 42.0061 119.954 41.7577 120.409C40.7581 120.83 40.8066 121.183 40.9211 121.512C40.0212 122.859 37.7306 124.246 37.4817 125.551C37.0213 125.822 37.1674 126.029 37.1586 126.217C36.4458 126.612 35.2428 126.661 34.8868 127.339C33.4611 128.129 34.4918 128.436 34.2118 129.013C33.6753 129.384 32.5081 129.642 32.5364 130.149C32.0686 130.718 31.1102 131.79 31.265 131.81C33.883 131.897 31.5654 132.887 30.6473 133.649C30.6399 133.947 30.6211 134.212 30.5807 134.522C30.3943 134.623 30.1849 134.659 30.0429 134.782C29.6814 135.019 30.0571 135.036 30.1776 134.957C30.714 134.586 32.2738 134.82 31.9876 133.996C32.1397 133.795 32.2918 133.595 32.411 133.406C32.7623 133.247 33.1137 133.088 33.5095 132.95C33.6529 132.937 33.8293 132.913 33.9942 132.856C34.3153 132.929 34.6364 133.002 34.9791 133.03C35.0134 133.129 35.0478 133.228 35.0707 133.294C34.9529 133.593 35.2626 133.634 35.7042 133.628C35.8947 133.857 35.7783 134.267 36.6056 134.201C36.7403 134.376 36.842 134.562 37.404 134.477C37.6344 135.247 39.9904 134.687 40.3082 135.389C39.3909 137.111 35.8341 138.789 35.3583 140.506C33.2959 141.592 33.6682 142.238 34.2614 142.881C34.1624 142.915 34.0965 142.938 34.0089 143.006L31.733 143.796C31.8434 143.795 31.9754 143.749 32.0528 143.759C31.7614 144.303 30.5753 144.826 30.4717 145.379C30.3695 146.043 30.2874 146.551 32.0187 145.47C33.6134 144.952 35.1966 144.402 36.7583 143.897C37.8765 144.136 38.6444 142.835 39.8487 142.897C39.074 143.646 39.0162 144.331 37.8329 145.074C36.3055 145.679 35.9394 146.434 35.308 147.17C33.3849 147.912 31.3055 148.524 30.2279 149.785C30.3094 150.125 30.3909 150.466 30.4724 150.807C30.5593 151.59 28.5184 152.631 28.8261 153.41C28.8174 153.598 28.8087 153.786 28.7885 153.94C27.9129 155.463 28.4117 155.622 31.3272 154.757C32.5045 154.422 33.669 153.943 34.7845 153.962C35.4422 154.472 36.0886 154.949 36.7463 155.459C36.2516 155.631 35.8786 155.835 35.7164 156.112C33.561 156.824 35.0407 156.827 35.4076 157.032C35.4318 157.208 35.4561 157.385 35.4803 157.561C35.7914 157.711 36.375 157.582 36.9371 157.498C36.517 157.459 36.1185 157.376 35.4803 157.561C34.6969 158.498 34.8471 159.036 36.6121 158.903C36.7596 159.221 35.4887 160.032 37.0431 159.824C37.7142 159.628 38.1343 159.667 38.3033 159.94C38.1054 160.009 37.9075 160.078 37.7654 160.201C37.4026 160.327 36.8263 160.158 36.6884 160.612C36.5505 161.066 37.0035 161.094 37.8611 160.796L37.818 160.884L37.9399 160.916C37.9742 161.015 37.9971 161.081 37.9985 161.191C37.8706 161.568 38.0941 161.786 38.8312 161.566C43.2667 160.395 47.7021 159.223 52.1375 158.051C56.8193 157.163 61.3455 155.295 65.9088 153.747C66.2056 153.643 66.1484 153.479 65.7957 153.527C65.8319 152.887 64.5987 153.168 63.77 153.123C64.5374 152.672 65.9672 152.212 64.6497 151.931C64.5494 151.855 64.4491 151.78 64.3818 151.692C65.8808 150.58 63.5375 151.284 63.4231 150.954C63.4217 150.844 63.4318 150.767 63.4304 150.656C64.8676 149.899 65.6008 151.158 67.2089 149.934C67.9689 149.781 68.6057 149.486 69.0418 149.039C69.2324 149.268 70.061 149.313 70.2017 149.079C70.7502 147.892 72.4836 147.88 73.6926 147.423C73.7155 147.489 73.7714 147.544 73.8387 147.631C73.9883 149.019 76.3597 147.014 77.2571 147.256C77.4233 147.309 77.5782 147.329 77.7444 147.382C77.9996 147.478 78.2547 147.574 78.5213 147.703C77.6302 148.862 79.3844 147.846 79.8704 147.862C80.6446 147.962 81.0693 147.482 81.6286 147.177C82.3813 147.322 83.1669 147.455 84.0951 146.615C84.1933 145.621 85.9926 145.587 86.9694 145.1C87.0252 145.154 87.0926 145.242 87.1485 145.296C87.0334 145.816 87.4548 145.965 88.5662 145.653C89.8594 145.757 91.236 145.464 92.6947 144.662C95.2939 145.014 96.3393 144.725 98.438 142.998C99.8342 143.4 100.698 141.844 101.946 141.817C103.57 141.917 105.288 141.542 107.11 140.613C107.472 140.487 107.824 140.328 108.22 140.191C110.065 140.288 111.045 139.172 112.373 138.526C112.855 138.211 114.071 138.306 113.943 137.833C113.85 137.459 112.895 137.902 112.303 138.218C111.534 138.559 110.777 138.933 110.008 139.274C110.331 138.608 108.166 139.397 108.543 138.675C109.885 138.283 111.249 137.846 112.52 137.035C110.755 137.168 109.116 137.664 107.467 138.237C107.104 138.363 106.741 138.489 106.411 138.603C105.816 138.699 105.616 138.548 105.601 138.294C105.986 138.123 106.415 137.975 106.81 137.837C107.943 137.48 109.065 137.091 110.231 136.723C111.167 136.545 112.138 136.466 112.769 135.73C113.94 134.843 116.049 134.849 117.04 133.766C117.183 133.753 117.315 133.707 117.469 133.617C117.494 133.903 117.411 134.302 118.062 134.26C118.537 134.243 118.852 133.875 119.059 133.618C120.236 133.283 121.398 132.584 122.558 132.624L122.668 132.623C122.975 132.442 123.271 132.229 123.611 132.037C124.878 131.855 126.16 131.927 127.463 130.994C128.795 130.679 130.048 130.243 130.999 129.47C132.052 128.882 132.014 128.453 131.766 128.059C132.5 127.619 131.585 127.752 131.627 127.553C132.186 127.248 132.746 126.943 133.305 126.638C133.503 126.569 133.712 126.533 133.943 126.453C135.799 126.473 137.593 125.148 139.411 124.848C139.469 125.013 139.526 125.178 139.583 125.343C139.201 125.734 138.775 126.103 138.164 126.685C139.582 126.192 140.605 125.837 141.627 125.482C141.335 125.916 141.978 126.172 141.234 126.689C140.785 126.993 140.227 127.408 140.868 127.444C141.586 127.49 141.801 127.046 142.14 126.744C142.887 126.447 143.601 126.162 144.349 125.866C146.791 125.128 144.682 126.931 146.104 126.77C146.709 126.596 146.983 126.427 146.727 126.221C147.495 124.92 150.074 124.578 151.553 123.621C150.731 123.168 150.036 124.148 149.286 124.224C148.313 124.082 147.283 124.735 146.315 125.035C145.655 125.264 145.007 125.526 144.314 125.767C144.138 125.791 143.994 125.804 143.851 125.817C143.959 125.595 144.066 125.373 144.141 125.162C144.414 124.883 144.686 124.604 144.959 124.324C145.532 124.273 146.117 124.254 146.691 124.202C147.472 124.005 148.265 123.84 148.967 123.412C149.933 123.002 151.258 122.985 151.933 122.16C152.329 122.022 152.724 121.885 153.153 121.736C154.131 121.359 155.154 121.004 156.132 120.627C156.925 120.462 158.042 120.591 158.376 119.958C158.721 119.247 157.086 120.074 156.532 119.971C156.41 119.939 156.18 120.019 155.97 120.055C155.924 119.923 155.879 119.792 155.833 119.66C156.031 118.742 157.695 118.422 158.74 118.133C159.95 117.786 161.05 117.441 162.17 116.941C163.602 116.591 164.942 116.089 166.305 115.541C166.338 115.53 166.326 115.497 166.326 115.497C167.613 115.05 168.956 114.768 170.186 114.156C170.35 114.099 170.482 114.053 170.647 113.996C174.183 113.321 177.602 112.096 180.986 110.662C180.902 111.061 182.303 110.943 181.329 111.651C180.867 111.811 180.361 111.95 179.899 112.111C179.897 111.89 179.673 111.672 179.135 111.933C178.817 112.081 178.666 112.391 178.459 112.648C178.065 112.896 177.659 113.111 177.265 113.358C177.101 113.526 177.124 113.592 177.389 113.611C178.148 113.347 178.906 113.083 179.665 112.82C179.943 112.982 179.751 113.492 180.377 113.274C181.169 112.999 180.547 112.698 180.918 112.384C181.116 112.316 181.314 112.247 181.545 112.167C182.664 111.556 183.953 111.33 185.14 110.917C185.992 111.028 182.493 112.022 184.81 111.882C185.24 111.843 185.67 111.804 186.1 111.766C185.22 111.998 184.384 112.251 184.534 112.79C185.386 112.9 186.27 112.999 187.11 113.076C188.361 113.27 189.291 112.651 190.199 111.966C191.199 111.545 192.1 111.158 191.663 110.645C192.32 110.196 193.395 109.674 191.982 109.648C191.727 109.552 191.471 109.456 191.216 109.36C191.424 109.214 191.621 109.035 191.862 108.878C192.394 109.025 193.075 108.751 193.735 108.522C195.194 108.68 196.062 107.455 197.384 107.217C198.121 106.998 198.629 106.969 198.216 107.482C197.557 108.671 198.952 108.113 200.217 107.71C201.562 107.538 202.768 106.861 204.01 106.392C204.505 106.22 204.967 106.06 205.462 105.888C206.643 105.884 207.571 105.044 208.661 104.776C208.826 104.719 208.991 104.662 209.156 104.604C209.993 104.461 211.063 104.348 211.453 103.769C211.692 103.391 210.791 103.778 210.372 103.85C209.974 103.766 209.509 103.706 209.538 103.364C209.692 103.274 209.856 103.216 210.054 103.148C210.813 102.884 211.605 102.609 212.363 102.345C212.594 102.265 212.825 102.185 213.056 102.105C214.837 101.486 216.618 100.867 218.399 100.248C218.521 100.28 218.61 100.323 218.71 100.399C218.514 100.578 218.284 100.768 218.088 100.947C217.726 101.184 217.398 101.409 217.036 101.645C216.179 101.943 215.067 102.255 214.985 102.764C214.944 102.963 215.976 102.53 216.548 102.368C216.18 102.903 216.765 102.884 217.492 102.742C218.703 102.506 218.985 102.039 219.111 101.552C220.089 101.175 221.067 100.798 222.045 100.422C223.483 100.624 224.409 99.5635 225.596 99.151C227.059 98.6797 228.557 98.4175 229.984 97.7371C231.185 97.4678 232.249 96.9134 233.336 96.4249C233.99 96.604 234.639 96.4522 235.25 95.8705C236.667 95.2674 238.29 95.2574 239.571 94.3693C240.426 93.8507 241.622 94.1 242.364 93.3622C242.99 93.1445 243.584 92.9382 244.211 92.7205C245.926 92.1245 247.641 91.5286 249.323 90.9442C250.582 90.9499 251.477 90.1219 252.61 89.7652C253.204 89.5589 253.809 89.3856 254.436 89.1678C255.063 88.9501 255.689 88.7324 256.283 88.5261C258.658 87.701 261.156 87.0177 263.327 85.8201C264.086 85.5565 264.878 85.2814 265.669 85.0064C266.973 85.0337 268.256 84.3661 269.564 83.8747C269.937 83.6713 270.31 83.4679 270.683 83.2645C271.837 82.8634 273.013 82.4179 274.168 82.0168C274.432 81.9251 274.663 81.8449 274.915 81.7202C275.883 81.4208 276.84 81.0885 277.84 80.7776C277.688 80.9782 277.536 81.1788 277.384 81.3793C275.647 82.0197 274.749 82.6271 275.794 83.1872C276.061 83.3162 273.636 84.5281 276.177 83.756C277.211 83.4337 278.787 83.1816 278.083 82.5397C277.603 82.1157 278.944 81.6129 278.818 81.2504C279.366 80.9123 279.912 80.464 280.611 80.6645C280.934 80.9582 282.231 80.4339 282.446 80.8394C282.094 80.9984 281.567 81.1817 281.403 81.3493C281.021 81.7404 281.67 81.4783 281.956 81.4525C283.225 81.3809 284.212 80.8165 285.154 80.2306C285.783 80.1231 286.399 79.9827 287.027 79.8753C287.522 79.7034 288.061 79.553 288.278 79.2192C288.827 78.9914 289.365 78.7307 289.914 78.503C290.409 78.3311 290.859 78.1377 291.099 77.8698C292.704 77.2753 294.042 76.5519 295.102 75.6665C296.42 75.0978 297.494 74.4661 298.225 73.6953C298.639 73.2928 299.043 72.8573 299.424 72.4662C300.711 72.0193 300.441 71.6697 300.315 71.3072C300.523 71.1611 300.687 70.9935 300.895 70.8474C301.84 70.4821 302.73 70.1727 303.485 69.5782C304.864 68.5453 303.828 68.7573 302.683 68.9707C303.776 68.074 302.619 68.2544 301.834 68.2315C302.567 67.6814 303.597 67.0281 302.139 66.9808C301.447 66.372 303.763 66.1213 303.845 65.6127C303.942 65.4681 304.073 65.3119 304.17 65.1672C304.86 64.7059 305.417 64.1802 306.44 63.8249C308.046 63.3407 309.302 62.2763 311.099 62.0214C311.948 61.9111 313.425 61.6934 313.539 61.063C313.641 60.3997 312.037 61.1045 311.189 61.2148C311.012 61.2392 310.879 61.1747 310.735 61.1876C310.521 60.7822 313.231 60.2837 311.935 59.9585C310.805 59.6862 310.55 60.4398 309.937 60.9111C308.548 62.0213 308.636 61.1045 308.128 61.0228C308.774 60.6503 309.599 60.3638 309.77 59.8982C309.968 59.8295 310.166 59.7607 310.319 59.6705C311.682 59.1232 313.356 58.8368 314.544 57.5747C313.194 58.1548 312.53 57.2036 311.199 58.4786C309.627 59.0616 308.137 59.9856 306.469 59.9741C307.918 59.2492 308.613 58.2694 310.316 57.6405C310.493 57.6161 310.658 57.5588 310.811 57.4686C311.702 57.1591 312.693 56.9257 313.417 56.5632C314.481 56.0088 314.05 55.9372 313.059 56.1707C312.012 56.3497 311.113 56.8468 310.134 57.2236C309.529 57.3969 308.783 57.8038 308.361 57.5445C308.623 57.3425 309.128 57.0932 309.148 56.9385C309.189 56.629 308.695 56.9112 308.332 57.0373C307.453 57.3797 306.586 57.755 305.751 58.1189C306.375 56.831 308.353 56.033 310.441 55.2337C309.891 54.5016 308.08 55.3526 306.987 55.3998L306.954 55.4113C305.464 55.4857 304.052 56.4198 302.586 56.6704C302.308 56.5085 302.019 56.3137 301.773 56.1403C303.206 55.9011 302.412 55.106 303.723 54.8353C304.45 54.6935 305.158 54.8167 305.957 54.2437C305.478 53.9299 304.644 54.2938 303.874 54.5244C302.912 54.4155 301.859 55.0029 300.813 55.2922C300.365 54.7464 301.687 54.5086 302.312 54.1806C303.272 54.0688 303.75 53.4227 304.597 53.2021C305.734 53.1764 306.345 52.5948 307.289 52.1192C306.417 52.1636 305.792 52.4916 305.165 52.7093C304.248 52.6219 303.513 53.0617 302.79 53.5345C301.999 53.8095 301.229 54.0401 300.437 54.3152C299.951 54.2994 299.465 54.2836 298.979 54.2679C298.989 54.1905 299.021 54.0687 299.031 53.9914C300.083 53.404 301.785 53.5144 302.468 52.5015C302.633 52.4442 302.798 52.3869 302.919 52.3082C304.337 51.8154 305.8 51.3441 307.218 50.8513C309.45 50.0391 311.727 49.3586 314.125 48.5994C312.113 49.2985 311.365 48.6352 309.876 48.8199C309.227 48.9718 308.61 49.1122 307.949 49.2311C306.959 49.5749 305.97 49.9187 304.98 50.2625C304.045 50.5504 303.155 50.8598 302.22 51.1477C302.141 51.0274 302.062 50.9071 301.995 50.8197C303.22 49.877 304.97 49.38 306.675 48.8614ZM30.8933 151.806C30.8818 151.773 30.8818 151.773 30.8704 151.74C30.9808 151.739 31.0797 151.704 31.1787 151.67C31.0912 151.737 30.9478 151.75 30.8933 151.806ZM34.6399 149.396C34.6399 149.396 34.6069 149.408 34.5954 149.375C34.6284 149.363 34.6614 149.352 34.6944 149.341C34.6614 149.352 34.6284 149.363 34.6399 149.396ZM41.0709 139.924C41.1038 139.913 41.1368 139.901 41.1584 139.857C41.2028 139.878 41.2573 139.822 41.2688 139.855C41.2142 139.911 41.1368 139.901 41.0709 139.924ZM39.9665 131.851C39.955 131.819 39.9221 131.83 39.9436 131.786C40.12 131.761 40.2734 131.671 40.4498 131.647C40.3179 131.692 40.1644 131.783 39.9665 131.851ZM45.2286 135.932C45.2286 135.932 45.2171 135.899 45.2501 135.887L45.2945 135.909C45.273 135.953 45.2615 135.92 45.2286 135.932ZM41.4035 124.816C41.4035 124.816 41.425 124.772 41.4035 124.816C41.4365 124.805 41.4035 124.816 41.4035 124.816ZM43.5565 121.225C43.049 121.253 42.5771 121.491 42.1382 121.717C42.6559 121.611 43.1506 121.439 43.5666 121.147C43.5336 121.159 43.5451 121.192 43.5565 121.225ZM47.5602 128.918C47.5932 128.906 47.5602 128.918 47.5602 128.918V128.918ZM50.4781 126.464C50.5656 126.396 50.6646 126.362 50.7077 126.273C50.7191 126.306 50.7306 126.339 50.742 126.372C50.6431 126.406 50.5771 126.429 50.4781 126.464ZM51.0992 123.995C51.0662 124.007 51.0218 123.985 50.9558 124.008C50.9888 123.997 50.9888 123.997 51.0217 123.985C51.0877 123.962 51.1651 123.972 51.2311 123.95C51.1981 123.961 51.1651 123.972 51.0992 123.995Z" fill="#D6FFD8"/>
<path d="M169.123 115.781C167.049 115.874 166.351 116.633 165.092 117.477C166.998 117.11 167.973 116.513 169.123 115.781Z" fill="#D6FFD8"/>
<path d="M172.506 117.855C171.936 118.238 171.367 118.62 170.552 118.829C169.747 118.851 169.092 118.561 167.951 119.216C168.054 119.513 169.166 119.2 168.929 119.689C171.838 119.232 173.013 118.676 172.649 117.842C173.391 117.105 174.955 116.819 176.073 116.099C172.779 116.726 172.439 116.918 172.506 117.855Z" fill="#D6FFD8"/>
<path d="M147.049 127.254C147.456 127.149 147.829 126.946 147.904 126.735C148.063 126.237 147.335 126.268 146.628 126.255C146.431 126.434 146.202 126.625 146.005 126.804C146.229 127.022 146.091 127.476 147.049 127.254Z" fill="#D6FFD8"/>
<path d="M163.026 119.192C162.818 119.338 162.82 119.448 163.008 119.457C164.342 119.362 165.488 119.149 165.52 118.177C164.505 118.235 163.907 118.959 163.026 119.192Z" fill="#D6FFD8"/>
<path d="M122.239 134.471C123.122 133.61 122.708 133.163 122.614 132.679L122.504 132.68C122.125 133.292 120.799 134.158 122.239 134.471Z" fill="#D6FFD8"/>
<path d="M133.875 129.874C134.27 129.626 134.212 129.461 133.903 129.421C133.361 129.351 132.776 129.369 132.175 129.874C131.427 130.17 130.68 130.467 129.9 130.775C129.923 130.841 129.967 130.862 129.99 130.928C130.76 130.697 131.552 130.422 132.322 130.192C132.679 130.474 133.24 130.279 133.875 129.874Z" fill="#D6FFD8"/>
<path d="M175.906 114.237C175.996 114.39 176.045 114.742 176.639 114.536C177.364 114.284 177.25 113.954 177.269 113.689C177.234 113.59 177.211 113.525 177.144 113.437C176.262 113.559 175.647 113.81 175.906 114.237Z" fill="#D6FFD8"/>
<path d="M206.905 106.531C208.246 106.028 209.137 105.719 210.346 105.262C208.943 105.269 207.996 105.414 206.905 106.531Z" fill="#D6FFD8"/>
<path d="M163.871 120.56C164.577 120.462 165.192 120.212 165.726 119.62C164.821 119.676 164.084 119.895 163.504 120.355C163.438 120.378 163.662 120.596 163.871 120.56Z" fill="#D6FFD8"/>
<path d="M180.947 114.701C180.31 114.996 179.558 114.851 178.835 115.324C179.521 115.492 180.236 115.207 180.907 115.01C181.327 115.049 181.606 115.321 182.296 114.86C182.537 114.702 182.721 114.38 182.588 114.315C182.208 113.967 181.539 114.384 180.947 114.701Z" fill="#D6FFD8"/>
<path d="M239.477 95.6945C240.802 95.6773 241.693 95.3679 242.49 94.6846C241.635 95.2032 240.771 94.9496 239.477 95.6945Z" fill="#D6FFD8"/>
<path d="M160.935 118.811C160.985 119.273 161.01 119.56 161.047 119.879C160.466 120.229 159.853 120.59 159.217 120.995C160.929 121.028 161.654 119.816 163.019 119.49C163.029 119.412 162.995 119.313 163.038 119.225L163.005 119.236C162.396 119.078 161.765 118.965 160.935 118.811Z" fill="#D6FFD8"/>
<path d="M74.8965 150.144C74.4018 150.316 74.2497 150.516 74.3183 150.714C74.3641 150.846 74.5419 150.932 75.1457 150.648C75.2662 150.569 75.6936 150.31 75.7138 150.155C75.777 149.912 75.3253 149.995 74.8965 150.144Z" fill="#D6FFD8"/>
<path d="M154.714 122.079C154.384 122.194 153.9 122.289 153.937 122.608C154.113 122.584 154.423 122.624 154.543 122.545C154.862 122.398 155.08 122.174 155.354 122.005C155.144 122.041 154.912 122.011 154.714 122.079Z" fill="#D6FFD8"/>
<path d="M155.884 122.892C155.161 123.365 155.407 123.648 156.411 123.558C157.393 123.512 158.385 123.389 159.45 122.835C159.603 122.744 159.765 122.466 159.643 122.435C158.868 122.224 157.798 123.187 156.968 123.032C156.755 122.847 156.486 122.498 155.884 122.892Z" fill="#D6FFD8"/>
<path d="M239.016 96.8147C239.117 96.8906 239.436 96.8534 239.679 96.8061C239.954 96.7474 240.195 96.5898 240.06 96.415C239.884 96.4394 239.652 96.4093 239.409 96.4566C239.068 96.5382 238.872 96.7173 239.016 96.8147Z" fill="#D6FFD8"/>
<path d="M216.643 103.812C217.838 103.102 218.371 103.36 219.136 102.688C218.409 102.83 217.824 102.848 216.643 103.812Z" fill="#D6FFD8"/>
<path d="M268.099 85.0852C268.276 85.0609 268.508 85.091 268.628 85.0122C268.848 84.899 269.155 84.7185 269.154 84.6082C269.174 84.4535 268.854 84.4907 268.404 84.6841C268.361 84.7729 268.23 84.9291 268.099 85.0852Z" fill="#D6FFD8"/>
<path d="M122.183 135.376C120.846 135.25 119.492 135.61 117.88 136.502C119.053 136.686 120.016 136.055 120.908 135.856C121.014 136.373 121.936 135.942 122.441 135.693C122.979 135.432 122.548 135.36 122.183 135.376Z" fill="#D6FFD8"/>
<path d="M131.5 131.548C129.801 131.659 129.457 132.48 128.747 133.096C128.697 133.482 127.177 133.789 127.515 134.336C128.403 133.806 129.552 133.924 130.273 133.23C130.36 133.163 129.729 133.05 129.408 132.977C130.748 132.364 132.368 132.133 133.55 131.279C134.264 130.994 135.608 130.712 134.455 130.374C133.399 130.63 132.253 130.844 131.5 131.548Z" fill="#D6FFD8"/>
<path d="M66.3171 151.943C66.1434 152.188 66.4847 152.106 66.7271 152.059C67.1343 151.954 67.5301 151.817 67.6378 151.595C67.6809 151.506 67.3598 151.433 67.1504 151.469C66.6429 151.497 66.4692 151.742 66.3171 151.943Z" fill="#D6FFD8"/>
<path d="M136.106 86.0779C136.924 86.0894 137.592 85.6725 138.305 85.2771C137.612 85.5178 136.773 85.5507 136.106 86.0779Z" fill="#D6FFD8"/>
<path d="M285.407 45.2091C286.121 44.9241 286.727 44.7507 287.272 44.192C286.547 44.5545 285.775 44.5645 285.407 45.2091Z" fill="#D6FFD8"/>
</g>
<g clip-path="url(#clip1_2378_4)">
<path d="M274.514 115.859C276.027 115.001 277.857 114.735 279.359 113.844C277.732 114.482 275.847 114.694 274.514 115.859Z" fill="#D6FFD8"/>
<path d="M283.879 112.384C282.897 112.43 281.996 112.816 280.701 113.451C282.663 113.139 282.663 113.139 283.879 112.384Z" fill="#D6FFD8"/>
<path d="M307.465 111.538C306.428 111.639 305.425 111.73 303.931 112.433C305.292 112.625 306.366 111.993 307.465 111.538Z" fill="#D6FFD8"/>
<path d="M304.693 114.199C306.025 113.884 307.059 113.562 308.002 112.976C307.013 113.43 305.718 113.105 304.693 114.199Z" fill="#D6FFD8"/>
<path d="M120.822 166.858C121.006 166.535 121.147 166.302 121.21 166.058C121.21 166.058 120.735 166.075 120.537 166.144C119.988 166.372 119.793 166.661 120.038 166.835C120.127 166.878 120.447 166.84 120.822 166.858Z" fill="#D6FFD8"/>
<path d="M264.714 116.273C265.461 115.976 266.208 115.68 266.9 115.329C267.119 115.216 267.291 114.86 267.191 114.784C266.946 114.611 266.352 114.817 265.902 115.011C265.605 115.114 264.792 115.433 265.123 115.429C267.056 115.459 264.116 116.148 264.714 116.273C264.175 116.423 263.577 116.299 263.185 116.767C263.131 116.823 263.463 116.929 263.673 116.893C264.368 116.873 264.818 116.68 264.714 116.273Z" fill="#D6FFD8"/>
<path d="M268.923 115.512C269.815 115.313 270.34 114.909 270.799 114.528C269.996 114.77 269.17 114.946 268.923 115.512Z" fill="#D6FFD8"/>
<path d="M245.538 119.28C246.845 118.678 248.567 118.633 249.867 117.48C248.184 118.065 246.799 118.546 245.447 119.016C244.898 119.244 243.841 119.5 243.954 119.719C244.123 119.993 244.98 119.695 245.538 119.28Z" fill="#D6FFD8"/>
<path d="M143.457 158.698C142.58 159.261 141.274 159.013 140.61 159.761C140.534 159.861 140.613 159.981 140.723 159.98C141.971 159.953 142.602 159.217 143.457 158.698Z" fill="#D6FFD8"/>
<path d="M188.832 137.578C187.986 137.909 188.66 137.933 188.783 138.075C189.678 138.097 190.481 137.855 191.203 137.272C190.853 136.691 189.69 137.28 188.832 137.578Z" fill="#D6FFD8"/>
<path d="M168.128 145.547C167.246 145.669 166.242 145.759 165.545 146.519C166.65 146.615 167.316 145.977 168.128 145.547Z" fill="#D6FFD8"/>
<path d="M185.616 138.216C185.637 138.171 185.427 138.097 185.283 138.11C184.588 138.13 184.206 138.521 183.701 138.77C182.62 138.85 181.697 139.171 180.624 139.913C181.858 139.743 182.825 139.333 183.77 138.968C184.43 138.739 185.191 138.696 185.616 138.216Z" fill="#D6FFD8"/>
<path d="M151.34 151.491C150.206 151.737 149.338 152.112 148.761 152.793C150.297 152.85 150.819 152.226 151.34 151.491Z" fill="#D6FFD8"/>
<path d="M146.271 154.988C145.973 154.98 145.729 154.917 145.409 154.955C145.023 155.015 144.684 155.207 144.576 155.429C144.623 155.671 145.063 155.555 145.393 155.44C145.69 155.337 145.997 155.157 146.271 154.988Z" fill="#D6FFD8"/>
<path d="M172.037 148.288C170.859 148.513 169.968 148.822 169.125 149.374C170.138 149.206 171.165 149.182 172.037 148.288Z" fill="#D6FFD8"/>
<path d="M125.025 159.378C126.137 159.066 126.762 158.738 127.23 158.169C126.283 158.424 125.436 158.645 125.025 159.378Z" fill="#D6FFD8"/>
<path d="M147.914 154.823C146.85 155.377 146.17 155.761 145.205 156.281C146.931 155.718 146.931 155.718 147.914 154.823Z" fill="#D6FFD8"/>
<path d="M179.082 140.264C178.552 140.227 178.024 140.41 177.323 140.838C178.051 140.807 178.515 140.867 179.085 140.485C179.151 140.462 179.16 140.274 179.082 140.264Z" fill="#D6FFD8"/>
<path d="M157.598 149.501C158.204 149.328 158.962 149.064 158.937 148.778C158.865 148.359 158.043 148.866 157.582 149.027C157.153 149.176 156.77 149.457 156.331 149.683C155.925 149.898 155.079 150.229 155.555 150.322C156.274 150.478 156.817 149.699 157.598 149.501Z" fill="#D6FFD8"/>
<path d="M169.545 146.754C170.163 146.723 170.943 146.416 171.49 145.967C171.236 145.981 170.993 146.029 170.773 146.032C170.704 145.834 171.536 145.249 170.677 145.437C170.435 145.484 169.2 145.655 169.074 146.142C169.042 146.264 169.671 146.266 169.981 146.307C169.674 146.487 169.082 146.804 169.545 146.754Z" fill="#D6FFD8"/>
<path d="M181.669 140.473C181.469 140.432 181.181 140.347 181.082 140.382C180.742 140.574 180.48 140.776 180.217 140.978C180.471 140.963 180.713 140.916 181 140.89C181.241 140.733 181.449 140.587 181.669 140.473Z" fill="#D6FFD8"/>
<path d="M299.765 119.272C299.831 119.249 299.864 119.238 299.93 119.215C299.897 119.226 299.819 119.216 299.786 119.228C299.786 119.228 299.753 119.239 299.765 119.272C299.753 119.239 299.765 119.272 299.765 119.272Z" fill="#D6FFD8"/>
<path d="M179.654 184.785C177.278 184.65 176.123 185.901 173.846 186.581C176.284 186.473 177.687 185.616 179.654 184.785Z" fill="#D6FFD8"/>
<path d="M314.675 116.861C316.05 116.457 317.181 115.99 317.834 115.21C318.011 115.185 318.187 115.161 318.352 115.104C319.192 115.181 320.075 115.17 320.795 115.326C321.238 115.43 321.446 115.284 321.708 115.082C321.883 114.948 322.001 114.648 322.001 114.648C321.096 114.704 321.206 113.743 319.549 114.614C319.538 114.581 319.439 114.615 319.428 114.582L300.528 121.149C300.45 121.139 300.34 121.14 300.229 121.142C299.766 121.192 299.305 121.352 299.373 121.55L296.57 122.524C297.103 121.932 295.258 122.684 295.177 122.454C295.019 122.103 295.287 121.493 293.715 122.076C293.527 122.067 293.295 122.037 293.107 122.028C292.177 121.798 294.311 121.13 293.633 120.775C292.797 121.028 291.873 121.349 290.938 121.637C291.309 120.364 293.864 119.845 295.322 118.933C296.642 118.584 296.811 117.898 298.251 117.361C296.123 117.62 294.503 118.811 292.956 118.72C293.065 118.609 293.141 118.508 293.25 118.397C293.602 118.238 293.953 118.079 294.337 117.908C295.426 117.53 296.615 117.228 297.534 116.576C298.974 116.039 300.636 115.609 301.854 114.964C303.225 114.229 301.706 114.646 301.309 114.674C302.5 113.632 304.575 113.539 306.086 112.571C303.048 113.294 300.392 114.586 297.051 115.931C298.08 115.168 299.016 114.99 299.199 114.557C299.242 114.469 299.263 114.424 299.24 114.358C300.164 114.037 301.12 113.705 302.033 113.351C302.165 113.305 302.239 113.095 302.348 112.983C302.073 113.042 301.765 113.112 301.489 113.171C300.618 113.215 299.779 113.248 298.907 113.292C299.201 112.969 300.235 112.646 300.01 112.318C299.943 112.231 299.371 112.393 299.018 112.441C298.017 112.752 297.06 113.085 296.06 113.396C295.565 113.567 295.059 113.706 294.597 113.867C294.079 113.973 293.55 114.046 293.032 114.152C291.654 114.335 291.44 113.08 289.148 114.357C288.101 114.536 287.02 114.616 286.18 115.388C283.94 115.538 281.416 116.785 279.176 116.935C278.888 116.851 278.633 116.755 278.345 116.67C277.404 116.517 276.648 117.001 275.859 117.497C273.237 117.928 270.843 119.018 268.438 120.075C267.18 120.18 265.895 120.737 264.631 121.139C264.54 120.986 264.417 120.844 264.338 120.724C265.573 120.554 266.591 119.867 267.757 119.499C268.318 119.304 269.221 119.138 269.25 118.796C269.322 118.365 268.4 118.796 267.882 118.902C267.254 119.009 267.12 118.834 266.952 118.671C266.929 118.605 266.885 118.584 266.862 118.518C267.893 117.975 268.181 118.909 269.308 118.111C269.826 118.005 270.401 118.064 270.837 117.617C271.142 117.326 271.041 117.14 270.5 117.18C270.728 116.879 271.134 116.664 271.663 116.591C272.082 116.519 272.034 117.127 272.843 116.476C272.964 116.398 273.028 116.264 273.006 116.199C272.825 115.892 272.22 116.065 271.626 116.272C270.769 116.57 269.878 116.879 269.032 117.21C265.723 118.433 262.267 119.339 259.095 120.847L259.062 120.858C258.787 120.917 258.523 121.009 258.315 121.155C255.85 121.827 253.406 122.454 250.941 123.126C250.93 123.093 250.907 123.027 250.895 122.994C251.642 122.698 252.113 122.35 251.921 122.01C253.551 121.702 255.104 121.384 255.444 120.232C255.806 120.106 256.125 119.959 256.488 119.833C257.666 119.608 258.622 119.165 259.398 118.526C260.103 118.429 260.716 118.917 261.556 118.035C262.134 117.465 261.515 117.384 260.775 117.383C260.366 117.377 259.958 117.372 259.549 117.366C258.197 117.836 256.811 118.317 255.459 118.787C255.261 118.856 255.063 118.924 254.832 119.005C253.669 119.593 252.386 119.411 251.236 120.143C250.385 120.143 249.492 120.232 249.65 119.623C250.244 119.417 250.838 119.211 251.431 119.005C253.171 118.585 254.774 117.88 256.399 117.131C253.703 117.883 250.996 118.602 248.3 119.354C246.748 119.782 244.389 120.122 243.534 121.49L243.567 121.478C242.972 121.574 242.408 121.549 241.739 121.855C241.541 121.924 241.31 122.004 241.1 122.04C241.012 121.997 240.956 121.943 240.921 121.844C240.76 121.272 240.905 120.52 238.741 121.42C238.517 121.202 238.001 121.418 237.528 121.546C236.402 121.604 235.357 121.894 234.493 122.6C234.328 122.657 234.163 122.715 233.999 122.772C232.728 122.733 231.456 123.434 230.203 123.869C229.609 124.075 229.015 124.282 228.454 124.477C226.471 124.833 224.444 125.168 222.97 126.567C223.015 126.588 223.158 126.575 223.236 126.585C223.203 126.597 223.17 126.608 223.137 126.62L223.003 126.555C222.553 126.749 222.157 126.886 221.858 126.769C221.912 126.713 221.967 126.657 221.988 126.612C221.977 126.579 221.921 126.525 221.855 126.548C220.6 126.873 219.345 127.198 218.124 127.512C217.695 127.661 217.299 127.798 216.87 127.947C215.77 128.293 214.837 128.691 214.624 129.356C214.019 129.529 213.392 129.747 212.787 129.92C212.122 129.708 210.851 130.519 210.207 130.262C209.676 130.115 209.006 130.421 208.346 130.651C207.95 130.788 207.522 130.937 207.126 131.075C204.836 131.612 203.663 133.238 201.284 133.732C200.778 133.871 200.361 134.053 200.132 134.354C199.517 134.604 198.813 134.812 198.464 135.192C198.267 135.26 198.08 135.362 197.882 135.431C197.748 135.256 197.854 134.924 197.193 135.043C197.06 134.978 196.971 134.935 196.837 134.871C197.463 134.543 198.077 134.182 199.349 133.481C197.799 134.02 197.007 134.295 196.215 134.57C194.225 135.225 195.848 135.215 195.807 135.524C195.204 135.808 194.355 135.918 194.151 136.395C193.987 136.563 193.824 136.73 193.66 136.898C193.264 137.035 192.836 137.184 192.428 137.289L192.427 137.179C192.008 137.25 191.59 137.322 191.204 137.382C190.379 137.668 189.576 137.911 188.785 138.186C188.819 138.284 188.82 138.395 188.855 138.494C188.855 138.494 188.889 138.592 188.879 138.67C188.418 138.941 188.466 139.183 188.501 139.392C186.885 139.953 185.146 140.373 183.71 141.241C181.46 143.278 185.802 140.773 185.282 141.618C185.317 141.717 185.351 141.816 185.385 141.915C184.572 142.234 183.603 142.423 183.025 142.993C181.837 143.406 180.617 143.83 179.397 144.254C179.464 144.341 179.498 144.44 179.566 144.528C180.093 144.344 180.621 144.161 181.149 143.977C181.437 144.062 182.108 143.866 182.068 144.175C181.21 144.473 180.241 144.662 179.751 145.275C179.302 145.579 178.796 145.718 178.203 145.924C176.619 146.474 174.749 147.05 174.718 148.132C174.082 148.427 173.445 148.722 172.808 149.017C171.959 149.127 171.178 149.325 170.588 149.862C169.368 150.286 168.035 150.601 166.973 151.266C165.994 151.643 165.028 152.053 164.083 152.418C163.181 152.694 162.234 152.949 161.579 153.509C160.292 153.956 159.929 154.932 158.332 155.229C158.276 155.174 158.208 155.087 158.086 155.055C157.965 154.174 156.422 155.264 155.682 155.263C155.461 155.266 155.196 155.247 154.975 155.25C153.733 155.718 152.433 155.912 151.248 156.545C150.062 157.068 148.887 157.624 147.734 158.135C147.992 158.452 148.999 157.733 149.181 158.149C148.389 158.424 147.597 158.699 146.806 158.975C144.467 159.159 142.232 159.641 140.418 161.231C139.533 161.981 139.166 161.777 138.831 161.45C138.75 161.109 138.297 161.082 137.538 161.345C136.602 161.523 136.988 160.613 135.691 161.137C134.439 161.683 137.25 161.261 135.602 161.944C135.404 162.013 135.262 162.136 135.076 162.238C133.353 163.132 131.808 164.111 129.527 164.461C128.678 164.571 127.06 165.022 126.276 165.849C125.375 166.236 124.081 166.981 123.595 166.965C120.989 166.911 119.362 168.399 117.374 169.274C116.922 169.357 116.318 169.641 116.017 169.413C117.466 168.688 118.252 167.972 117.979 167.292C118.13 166.981 118.236 166.648 118.387 166.337C119.474 165.849 120.172 165.2 119.519 165.021C118.865 164.842 118.797 165.604 118.182 165.855C116.69 166.668 115.143 167.428 113.337 167.87C112.843 168.042 112.303 168.192 111.809 168.364C109.174 169.612 107.233 169.77 105.885 168.871C106.899 168.704 107.912 168.426 108.434 167.801C108.543 167.69 108.206 167.253 107.281 167.463C105.916 167.79 105.126 168.175 105.355 168.834C104.091 169.347 103.018 170.089 101.632 170.46C101.618 170.206 101.603 169.953 101.622 169.688C101.746 168.98 101.746 168.98 99.4957 170.057C98.1837 170.218 96.4214 170.572 97.8733 169.218C98.2563 168.937 98.9489 168.696 98.9119 168.377C98.2838 168.484 97.6571 168.702 97.019 168.887C94.3802 169.804 91.7859 170.742 89.1472 171.659C86.1786 172.69 83.1771 173.733 80.2085 174.765C77.8006 175.601 75.4143 176.393 73.0065 177.23C71.9812 177.364 71.0604 177.906 70.0924 178.205C67.7121 178.589 65.4921 179.434 63.3751 180.576C63.7076 180.682 64.1923 180.588 64.6871 180.416C64.6871 180.416 64.6541 180.427 64.6211 180.439C64.267 180.377 63.8369 180.416 63.3421 180.588C59.9548 181.691 56.9472 183.142 54.0514 184.702C52.4622 185.66 51.4909 186.589 51.3369 187.528C50.8105 187.822 50.0061 187.954 49.7577 188.409C48.7581 188.83 48.8066 189.183 48.9211 189.512C48.0212 190.859 45.7306 192.246 45.4817 193.551C45.0213 193.822 45.1674 194.029 45.1586 194.217C44.4458 194.612 43.2428 194.661 42.8868 195.339C41.4611 196.129 42.4918 196.436 42.2118 197.013C41.6753 197.384 40.5081 197.642 40.5364 198.149C40.0686 198.718 39.1102 199.79 39.265 199.81C41.883 199.897 39.5654 200.887 38.6473 201.649C38.6399 201.947 38.6211 202.212 38.5807 202.522C38.3943 202.623 38.1849 202.659 38.0429 202.782C37.6814 203.019 38.0571 203.036 38.1776 202.957C38.714 202.586 40.2738 202.82 39.9876 201.996C40.1397 201.795 40.2918 201.595 40.411 201.406C40.7623 201.247 41.1137 201.088 41.5095 200.95C41.6529 200.937 41.8293 200.913 41.9942 200.856C42.3153 200.929 42.6364 201.002 42.9791 201.03C43.0134 201.129 43.0478 201.228 43.0707 201.294C42.9529 201.593 43.2626 201.634 43.7042 201.628C43.8947 201.857 43.7783 202.267 44.6056 202.201C44.7403 202.376 44.842 202.562 45.404 202.477C45.6344 203.247 47.9904 202.687 48.3082 203.389C47.3909 205.111 43.8341 206.789 43.3583 208.506C41.2959 209.592 41.6682 210.238 42.2614 210.881C42.1624 210.915 42.0965 210.938 42.0089 211.006L39.733 211.796C39.8434 211.795 39.9754 211.749 40.0528 211.759C39.7614 212.303 38.5753 212.826 38.4717 213.379C38.3695 214.043 38.2874 214.551 40.0187 213.47C41.6134 212.952 43.1966 212.402 44.7583 211.897C45.8765 212.136 46.6444 210.835 47.8487 210.897C47.074 211.646 47.0162 212.331 45.8329 213.074C44.3055 213.679 43.9394 214.434 43.308 215.17C41.3849 215.912 39.3055 216.524 38.2279 217.785C38.3094 218.125 38.3909 218.466 38.4724 218.807C38.5593 219.59 36.5184 220.631 36.8261 221.41C36.8174 221.598 36.8087 221.786 36.7885 221.94C35.9129 223.463 36.4117 223.622 39.3272 222.757C40.5045 222.422 41.669 221.943 42.7845 221.962C43.4422 222.472 44.0886 222.949 44.7463 223.459C44.2516 223.631 43.8786 223.835 43.7164 224.112C41.561 224.824 43.0407 224.827 43.4076 225.032C43.4318 225.208 43.4561 225.385 43.4803 225.561C43.7914 225.711 44.375 225.582 44.9371 225.498C44.517 225.459 44.1185 225.376 43.4803 225.561C42.6969 226.498 42.8471 227.036 44.6121 226.903C44.7596 227.221 43.4887 228.032 45.0431 227.824C45.7142 227.628 46.1343 227.667 46.3033 227.94C46.1054 228.009 45.9075 228.078 45.7654 228.201C45.4026 228.327 44.8263 228.158 44.6884 228.612C44.5505 229.066 45.0035 229.094 45.8611 228.796L45.818 228.884L45.9399 228.916C45.9742 229.015 45.9971 229.081 45.9985 229.191C45.8706 229.568 46.0941 229.786 46.8312 229.566C51.2667 228.395 55.7021 227.223 60.1375 226.051C64.8193 225.163 69.3455 223.295 73.9088 221.747C74.2056 221.643 74.1484 221.479 73.7957 221.527C73.8319 220.887 72.5987 221.168 71.77 221.123C72.5374 220.672 73.9672 220.212 72.6497 219.931C72.5494 219.855 72.4491 219.78 72.3818 219.692C73.8808 218.58 71.5375 219.284 71.4231 218.954C71.4217 218.844 71.4318 218.767 71.4304 218.656C72.8676 217.899 73.6008 219.158 75.2089 217.934C75.9689 217.781 76.6057 217.486 77.0418 217.039C77.2324 217.268 78.061 217.313 78.2017 217.079C78.7502 215.892 80.4836 215.88 81.6926 215.423C81.7155 215.489 81.7714 215.544 81.8387 215.631C81.9883 217.019 84.3597 215.014 85.2571 215.256C85.4233 215.309 85.5782 215.329 85.7444 215.382C85.9996 215.478 86.2547 215.574 86.5213 215.703C85.6302 216.862 87.3844 215.846 87.8704 215.862C88.6446 215.962 89.0693 215.482 89.6286 215.177C90.3813 215.322 91.1669 215.455 92.0951 214.615C92.1933 213.621 93.9926 213.587 94.9694 213.1C95.0252 213.154 95.0926 213.242 95.1485 213.296C95.0334 213.816 95.4548 213.965 96.5662 213.653C97.8594 213.757 99.236 213.464 100.695 212.662C103.294 213.014 104.339 212.725 106.438 210.998C107.834 211.4 108.698 209.844 109.946 209.817C111.57 209.917 113.288 209.542 115.11 208.613C115.472 208.487 115.824 208.328 116.22 208.191C118.065 208.288 119.045 207.172 120.373 206.526C120.855 206.211 122.071 206.306 121.943 205.833C121.85 205.459 120.895 205.902 120.303 206.218C119.534 206.559 118.777 206.933 118.008 207.274C118.331 206.608 116.166 207.397 116.543 206.675C117.885 206.283 119.249 205.846 120.52 205.035C118.755 205.168 117.116 205.664 115.467 206.237C115.104 206.363 114.741 206.489 114.411 206.603C113.816 206.699 113.616 206.548 113.601 206.294C113.986 206.123 114.415 205.975 114.81 205.837C115.943 205.48 117.065 205.091 118.231 204.723C119.167 204.545 120.138 204.466 120.769 203.73C121.94 202.843 124.049 202.849 125.04 201.766C125.183 201.753 125.315 201.707 125.469 201.617C125.494 201.903 125.411 202.302 126.062 202.26C126.537 202.243 126.852 201.875 127.059 201.618C128.236 201.283 129.398 200.584 130.558 200.624L130.668 200.623C130.975 200.442 131.271 200.229 131.611 200.037C132.878 199.855 134.16 199.927 135.463 198.994C136.795 198.679 138.048 198.243 138.999 197.47C140.052 196.882 140.014 196.453 139.766 196.059C140.5 195.619 139.585 195.752 139.627 195.553C140.186 195.248 140.746 194.943 141.305 194.638C141.503 194.569 141.712 194.533 141.943 194.453C143.799 194.473 145.593 193.148 147.411 192.848C147.469 193.013 147.526 193.178 147.583 193.343C147.201 193.734 146.775 194.103 146.164 194.685C147.582 194.192 148.605 193.837 149.627 193.482C149.335 193.916 149.978 194.172 149.234 194.689C148.785 194.993 148.227 195.408 148.868 195.444C149.586 195.49 149.801 195.046 150.14 194.744C150.887 194.447 151.601 194.162 152.349 193.866C154.791 193.128 152.682 194.931 154.104 194.77C154.709 194.596 154.983 194.427 154.727 194.221C155.495 192.92 158.074 192.578 159.553 191.621C158.731 191.168 158.036 192.148 157.286 192.224C156.313 192.082 155.283 192.735 154.315 193.035C153.655 193.264 153.007 193.526 152.314 193.767C152.138 193.791 151.994 193.804 151.851 193.817C151.959 193.595 152.066 193.373 152.141 193.162C152.414 192.883 152.686 192.604 152.959 192.324C153.532 192.273 154.117 192.254 154.691 192.202C155.472 192.005 156.265 191.84 156.967 191.412C157.933 191.002 159.258 190.985 159.933 190.16C160.329 190.022 160.724 189.885 161.153 189.736C162.131 189.359 163.154 189.004 164.132 188.627C164.925 188.462 166.042 188.591 166.376 187.958C166.721 187.247 165.086 188.074 164.532 187.971C164.41 187.939 164.18 188.019 163.97 188.055C163.924 187.923 163.879 187.792 163.833 187.66C164.031 186.742 165.695 186.422 166.74 186.133C167.95 185.786 169.05 185.441 170.17 184.941C171.602 184.591 172.942 184.089 174.305 183.541C174.338 183.53 174.326 183.497 174.326 183.497C175.613 183.05 176.956 182.768 178.186 182.156C178.35 182.099 178.482 182.053 178.647 181.996C182.183 181.321 185.602 180.096 188.986 178.662C188.902 179.061 190.303 178.943 189.329 179.651C188.867 179.811 188.361 179.95 187.899 180.111C187.897 179.89 187.673 179.672 187.135 179.933C186.817 180.081 186.666 180.391 186.459 180.648C186.065 180.896 185.659 181.111 185.265 181.358C185.101 181.526 185.124 181.592 185.389 181.611C186.148 181.347 186.906 181.083 187.665 180.82C187.943 180.982 187.751 181.492 188.377 181.274C189.169 180.999 188.547 180.698 188.918 180.384C189.116 180.316 189.314 180.247 189.545 180.167C190.664 179.556 191.953 179.33 193.14 178.917C193.992 179.028 190.493 180.022 192.81 179.882C193.24 179.843 193.67 179.804 194.1 179.766C193.22 179.998 192.384 180.251 192.534 180.79C193.386 180.9 194.27 180.999 195.11 181.076C196.361 181.27 197.291 180.651 198.199 179.966C199.199 179.545 200.1 179.158 199.663 178.645C200.32 178.196 201.395 177.674 199.982 177.648C199.727 177.552 199.471 177.456 199.216 177.36C199.424 177.214 199.621 177.035 199.862 176.878C200.394 177.025 201.075 176.751 201.735 176.522C203.194 176.68 204.062 175.455 205.384 175.217C206.121 174.998 206.629 174.969 206.216 175.482C205.557 176.671 206.952 176.113 208.217 175.71C209.562 175.538 210.768 174.861 212.01 174.392C212.505 174.22 212.967 174.06 213.462 173.888C214.643 173.884 215.571 173.044 216.661 172.776C216.826 172.719 216.991 172.662 217.156 172.604C217.993 172.461 219.063 172.348 219.453 171.769C219.692 171.391 218.791 171.778 218.372 171.85C217.974 171.766 217.509 171.706 217.538 171.364C217.692 171.274 217.856 171.216 218.054 171.148C218.813 170.884 219.605 170.609 220.363 170.345C220.594 170.265 220.825 170.185 221.056 170.105C222.837 169.486 224.618 168.867 226.399 168.248C226.521 168.28 226.61 168.323 226.71 168.399C226.514 168.578 226.284 168.768 226.088 168.947C225.726 169.184 225.398 169.409 225.036 169.645C224.179 169.943 223.067 170.255 222.985 170.764C222.944 170.963 223.976 170.53 224.548 170.368C224.18 170.903 224.765 170.884 225.492 170.742C226.703 170.506 226.985 170.039 227.111 169.552C228.089 169.175 229.067 168.798 230.045 168.422C231.483 168.624 232.409 167.564 233.596 167.151C235.059 166.68 236.557 166.418 237.984 165.737C239.185 165.468 240.249 164.913 241.336 164.425C241.99 164.604 242.639 164.452 243.25 163.871C244.667 163.267 246.29 163.257 247.571 162.369C248.426 161.851 249.622 162.1 250.364 161.362C250.99 161.144 251.584 160.938 252.211 160.72C253.926 160.125 255.641 159.529 257.323 158.944C258.582 158.95 259.477 158.122 260.61 157.765C261.204 157.559 261.809 157.386 262.436 157.168C263.063 156.95 263.689 156.732 264.283 156.526C266.658 155.701 269.156 155.018 271.327 153.82C272.086 153.556 272.878 153.281 273.669 153.006C274.973 153.034 276.256 152.366 277.564 151.875C277.937 151.671 278.31 151.468 278.683 151.264C279.837 150.863 281.013 150.418 282.168 150.017C282.432 149.925 282.663 149.845 282.915 149.72C283.883 149.421 284.84 149.088 285.84 148.778C285.688 148.978 285.536 149.179 285.384 149.379C283.647 150.02 282.749 150.627 283.794 151.187C284.061 151.316 281.636 152.528 284.177 151.756C285.211 151.434 286.787 151.182 286.083 150.54C285.603 150.116 286.944 149.613 286.818 149.25C287.366 148.912 287.912 148.464 288.611 148.665C288.934 148.958 290.231 148.434 290.446 148.839C290.094 148.998 289.567 149.182 289.403 149.349C289.021 149.74 289.67 149.478 289.956 149.452C291.225 149.381 292.212 148.816 293.154 148.231C293.783 148.123 294.399 147.983 295.027 147.875C295.522 147.703 296.061 147.553 296.278 147.219C296.827 146.991 297.365 146.731 297.914 146.503C298.409 146.331 298.859 146.138 299.099 145.87C300.704 145.275 302.042 144.552 303.102 143.667C304.42 143.098 305.494 142.466 306.225 141.695C306.639 141.293 307.043 140.857 307.424 140.466C308.711 140.019 308.441 139.67 308.315 139.307C308.523 139.161 308.687 138.994 308.895 138.847C309.84 138.482 310.73 138.173 311.485 137.578C312.864 136.545 311.828 136.757 310.683 136.971C311.776 136.074 310.619 136.254 309.834 136.231C310.567 135.681 311.597 135.028 310.139 134.981C309.447 134.372 311.763 134.121 311.845 133.613C311.942 133.468 312.073 133.312 312.17 133.167C312.86 132.706 313.417 132.18 314.44 131.825C316.046 131.341 317.302 130.276 319.099 130.021C319.948 129.911 321.425 129.693 321.539 129.063C321.641 128.4 320.037 129.105 319.189 129.215C319.012 129.239 318.879 129.175 318.735 129.188C318.521 128.782 321.231 128.284 319.935 127.958C318.805 127.686 318.55 128.44 317.937 128.911C316.548 130.021 316.636 129.104 316.128 129.023C316.774 128.65 317.599 128.364 317.77 127.898C317.968 127.829 318.166 127.761 318.319 127.67C319.682 127.123 321.356 126.837 322.544 125.575C321.194 126.155 320.53 125.204 319.199 126.479C317.627 127.062 316.137 127.986 314.469 127.974C315.918 127.249 316.613 126.269 318.316 125.64C318.493 125.616 318.658 125.559 318.811 125.469C319.702 125.159 320.693 124.926 321.417 124.563C322.481 124.009 322.05 123.937 321.059 124.171C320.012 124.35 319.113 124.847 318.134 125.224C317.529 125.397 316.783 125.804 316.361 125.544C316.623 125.342 317.128 125.093 317.148 124.938C317.189 124.629 316.695 124.911 316.332 125.037C315.453 125.38 314.586 125.755 313.751 126.119C314.375 124.831 316.353 124.033 318.441 123.234C317.891 122.502 316.08 123.353 314.987 123.4L314.954 123.411C313.464 123.486 312.052 124.42 310.586 124.67C310.308 124.509 310.019 124.314 309.773 124.14C311.206 123.901 310.412 123.106 311.723 122.835C312.45 122.693 313.158 122.817 313.957 122.244C313.478 121.93 312.644 122.294 311.874 122.524C310.912 122.416 309.859 123.003 308.813 123.292C308.365 122.746 309.687 122.509 310.312 122.181C311.272 122.069 311.75 121.423 312.597 121.202C313.734 121.176 314.345 120.595 315.289 120.119C314.417 120.164 313.792 120.492 313.165 120.709C312.248 120.622 311.513 121.062 310.79 121.534C309.999 121.81 309.229 122.04 308.437 122.315C307.951 122.299 307.465 122.284 306.979 122.268C306.989 122.191 307.021 122.069 307.031 121.991C308.083 121.404 309.785 121.514 310.468 120.502C310.633 120.444 310.798 120.387 310.919 120.308C312.337 119.815 313.8 119.344 315.218 118.851C317.45 118.039 319.727 117.359 322.125 116.599C320.113 117.298 319.365 116.635 317.876 116.82C317.227 116.972 316.61 117.112 315.949 117.231C314.959 117.575 313.97 117.919 312.98 118.262C312.045 118.55 311.155 118.86 310.22 119.148C310.141 119.027 310.062 118.907 309.995 118.82C311.22 117.877 312.97 117.38 314.675 116.861ZM38.8933 219.806C38.8818 219.773 38.8818 219.773 38.8704 219.74C38.9808 219.739 39.0797 219.704 39.1787 219.67C39.0912 219.737 38.9478 219.75 38.8933 219.806ZM42.6399 217.396C42.6399 217.396 42.6069 217.408 42.5954 217.375C42.6284 217.363 42.6614 217.352 42.6944 217.341C42.6614 217.352 42.6284 217.363 42.6399 217.396ZM49.0709 207.924C49.1038 207.913 49.1368 207.901 49.1584 207.857C49.2028 207.878 49.2573 207.822 49.2688 207.855C49.2142 207.911 49.1368 207.901 49.0709 207.924ZM47.9665 199.851C47.955 199.819 47.9221 199.83 47.9436 199.786C48.12 199.761 48.2734 199.671 48.4498 199.647C48.3179 199.692 48.1644 199.783 47.9665 199.851ZM53.2286 203.932C53.2286 203.932 53.2171 203.899 53.2501 203.887L53.2945 203.909C53.273 203.953 53.2615 203.92 53.2286 203.932ZM49.4035 192.816C49.4035 192.816 49.425 192.772 49.4035 192.816C49.4365 192.805 49.4035 192.816 49.4035 192.816ZM51.5565 189.225C51.049 189.253 50.5771 189.491 50.1382 189.717C50.6559 189.611 51.1506 189.439 51.5666 189.147C51.5336 189.159 51.5451 189.192 51.5565 189.225ZM55.5602 196.918C55.5932 196.906 55.5602 196.918 55.5602 196.918V196.918ZM58.4781 194.464C58.5656 194.396 58.6646 194.362 58.7077 194.273C58.7191 194.306 58.7306 194.339 58.742 194.372C58.6431 194.406 58.5771 194.429 58.4781 194.464ZM59.0992 191.995C59.0662 192.007 59.0218 191.985 58.9558 192.008C58.9888 191.997 58.9888 191.997 59.0217 191.985C59.0877 191.962 59.1651 191.972 59.2311 191.95C59.1981 191.961 59.1651 191.972 59.0992 191.995Z" fill="#D6FFD8"/>
<path d="M177.123 183.781C175.049 183.874 174.351 184.633 173.092 185.477C174.998 185.11 175.973 184.513 177.123 183.781Z" fill="#D6FFD8"/>
<path d="M180.506 185.855C179.936 186.238 179.367 186.62 178.552 186.829C177.747 186.851 177.092 186.561 175.951 187.216C176.054 187.513 177.166 187.2 176.929 187.689C179.838 187.232 181.013 186.676 180.649 185.842C181.391 185.105 182.955 184.819 184.073 184.099C180.779 184.726 180.439 184.918 180.506 185.855Z" fill="#D6FFD8"/>
<path d="M155.049 195.254C155.456 195.149 155.829 194.946 155.904 194.735C156.063 194.237 155.335 194.268 154.628 194.255C154.431 194.434 154.202 194.625 154.005 194.804C154.229 195.022 154.091 195.476 155.049 195.254Z" fill="#D6FFD8"/>
<path d="M171.026 187.192C170.818 187.338 170.82 187.448 171.008 187.457C172.342 187.362 173.488 187.149 173.52 186.177C172.505 186.235 171.907 186.959 171.026 187.192Z" fill="#D6FFD8"/>
<path d="M130.239 202.471C131.122 201.61 130.708 201.163 130.614 200.679L130.504 200.68C130.125 201.292 128.799 202.158 130.239 202.471Z" fill="#D6FFD8"/>
<path d="M141.875 197.874C142.27 197.626 142.212 197.461 141.903 197.421C141.361 197.351 140.776 197.369 140.175 197.874C139.427 198.17 138.68 198.467 137.9 198.775C137.923 198.841 137.967 198.862 137.99 198.928C138.76 198.697 139.552 198.422 140.322 198.192C140.679 198.474 141.24 198.279 141.875 197.874Z" fill="#D6FFD8"/>
<path d="M183.906 182.237C183.996 182.39 184.045 182.742 184.639 182.536C185.364 182.284 185.25 181.954 185.269 181.689C185.234 181.59 185.211 181.525 185.144 181.437C184.262 181.559 183.647 181.81 183.906 182.237Z" fill="#D6FFD8"/>
<path d="M214.905 174.531C216.246 174.028 217.137 173.719 218.346 173.262C216.943 173.269 215.996 173.414 214.905 174.531Z" fill="#D6FFD8"/>
<path d="M171.871 188.56C172.577 188.462 173.192 188.212 173.726 187.62C172.821 187.676 172.084 187.895 171.504 188.355C171.438 188.378 171.662 188.596 171.871 188.56Z" fill="#D6FFD8"/>
<path d="M188.947 182.701C188.31 182.996 187.558 182.851 186.835 183.324C187.521 183.492 188.236 183.207 188.907 183.01C189.327 183.049 189.606 183.321 190.296 182.86C190.537 182.702 190.721 182.38 190.588 182.315C190.208 181.967 189.539 182.384 188.947 182.701Z" fill="#D6FFD8"/>
<path d="M247.477 163.694C248.802 163.677 249.693 163.368 250.49 162.685C249.635 163.203 248.771 162.95 247.477 163.694Z" fill="#D6FFD8"/>
<path d="M168.935 186.811C168.985 187.273 169.01 187.56 169.047 187.879C168.466 188.229 167.853 188.59 167.217 188.995C168.929 189.028 169.654 187.816 171.019 187.49C171.029 187.412 170.995 187.313 171.038 187.225L171.005 187.236C170.396 187.078 169.765 186.965 168.935 186.811Z" fill="#D6FFD8"/>
<path d="M82.8965 218.144C82.4018 218.316 82.2497 218.516 82.3183 218.714C82.3641 218.846 82.5419 218.932 83.1457 218.648C83.2662 218.569 83.6936 218.31 83.7138 218.155C83.777 217.912 83.3253 217.995 82.8965 218.144Z" fill="#D6FFD8"/>
<path d="M162.714 190.079C162.384 190.194 161.9 190.289 161.937 190.608C162.113 190.584 162.423 190.624 162.543 190.545C162.862 190.398 163.08 190.174 163.354 190.005C163.144 190.041 162.912 190.011 162.714 190.079Z" fill="#D6FFD8"/>
<path d="M163.884 190.892C163.161 191.365 163.407 191.648 164.411 191.558C165.393 191.512 166.385 191.389 167.45 190.835C167.603 190.744 167.765 190.466 167.643 190.435C166.868 190.224 165.798 191.187 164.968 191.032C164.755 190.847 164.486 190.498 163.884 190.892Z" fill="#D6FFD8"/>
<path d="M247.016 164.815C247.117 164.891 247.436 164.853 247.679 164.806C247.954 164.747 248.195 164.59 248.06 164.415C247.884 164.439 247.652 164.409 247.409 164.457C247.068 164.538 246.872 164.717 247.016 164.815Z" fill="#D6FFD8"/>
<path d="M224.643 171.812C225.838 171.102 226.371 171.36 227.136 170.688C226.409 170.83 225.824 170.848 224.643 171.812Z" fill="#D6FFD8"/>
<path d="M276.099 153.085C276.276 153.061 276.508 153.091 276.628 153.012C276.848 152.899 277.155 152.719 277.154 152.608C277.174 152.453 276.854 152.491 276.404 152.684C276.361 152.773 276.23 152.929 276.099 153.085Z" fill="#D6FFD8"/>
<path d="M130.183 203.376C128.846 203.25 127.492 203.61 125.88 204.502C127.053 204.686 128.016 204.055 128.908 203.856C129.014 204.373 129.936 203.942 130.441 203.693C130.979 203.432 130.548 203.36 130.183 203.376Z" fill="#D6FFD8"/>
<path d="M139.5 199.548C137.801 199.659 137.457 200.48 136.747 201.096C136.697 201.482 135.177 201.789 135.515 202.336C136.403 201.806 137.552 201.924 138.273 201.23C138.36 201.163 137.729 201.05 137.408 200.977C138.748 200.364 140.368 200.133 141.55 199.279C142.264 198.994 143.608 198.712 142.455 198.374C141.399 198.63 140.253 198.844 139.5 199.548Z" fill="#D6FFD8"/>
<path d="M74.3171 219.943C74.1434 220.188 74.4847 220.106 74.7271 220.059C75.1343 219.954 75.5301 219.817 75.6378 219.595C75.6809 219.506 75.3598 219.433 75.1504 219.469C74.6429 219.497 74.4692 219.742 74.3171 219.943Z" fill="#D6FFD8"/>
<path d="M144.106 154.078C144.924 154.089 145.592 153.672 146.305 153.277C145.612 153.518 144.773 153.551 144.106 154.078Z" fill="#D6FFD8"/>
<path d="M293.407 113.209C294.121 112.924 294.727 112.751 295.272 112.192C294.547 112.555 293.775 112.565 293.407 113.209Z" fill="#D6FFD8"/>
</g>
<defs>
<clipPath id="clip0_2378_4">
<rect width="305.396" height="45.905" fill="white" transform="translate(18 125.229) rotate(-19.1593)"/>
</clipPath>
<clipPath id="clip1_2378_4">
<rect width="305.396" height="45.905" fill="white" transform="translate(26 193.229) rotate(-19.1593)"/>
</clipPath>
</defs>
</svg>
