<svg width="24" height="24" viewBox="0 0 24 24" fill="none" xmlns="http://www.w3.org/2000/svg">
<path d="M0.0050293 1.14499C0.0150293 0.524985 0.580029 -0.0100146 1.19503 -1.46159e-05C6.00003 -1.46159e-05 10.8 -1.46159e-05 15.605 -1.46159e-05C16.225 -0.0100146 16.785 0.524985 16.8 1.14499C16.805 2.22999 16.805 3.31999 16.805 4.40499C16.805 4.87999 16.5 5.32999 16.065 5.50999C15.795 5.62999 15.495 5.59999 15.21 5.60499C15.205 5.86999 15.205 6.13499 15.21 6.39999C15.53 6.39999 15.875 6.37499 16.165 6.54499C16.43 6.67499 16.605 6.92499 16.735 7.18499C16.89 7.22999 17.05 7.20999 17.21 7.21999C18.38 7.25499 19.555 7.36499 20.705 7.59499C21.495 7.75999 22.29 7.96499 23.005 8.34999C23.36 8.54499 23.71 8.79499 23.895 9.16499C24.03 9.42499 24 9.71999 24 10.005C24 13.74 24 17.47 24 21.205C24 21.5 24.03 21.815 23.875 22.075C23.615 22.535 23.13 22.805 22.665 23.02C21.735 23.43 20.735 23.625 19.735 23.775C17.545 24.075 15.315 24.075 13.125 23.785C12.02 23.615 10.9 23.41 9.89503 22.905C9.50503 22.7 9.11003 22.44 8.90503 22.04C8.76503 21.78 8.80003 21.48 8.80003 21.2C8.80003 20.265 8.80503 19.335 8.80003 18.4C6.41503 18.395 4.03503 18.4 1.65003 18.4C1.34503 18.395 1.03003 18.43 0.745029 18.305C0.305029 18.13 2.9297e-05 17.675 2.9297e-05 17.205C2.9297e-05 16.135 2.9297e-05 15.065 2.9297e-05 13.995C-0.0049707 13.52 0.305029 13.07 0.740029 12.89C1.01003 12.77 1.31003 12.8 1.59503 12.795C1.60003 12.53 1.60003 12.265 1.59503 12C1.31003 11.995 1.01003 12.025 0.740029 11.905C0.305029 11.73 2.9297e-05 11.275 2.9297e-05 10.805C2.9297e-05 9.73499 2.9297e-05 8.66499 2.9297e-05 7.59999C-0.0049707 7.12499 0.300029 6.67499 0.740029 6.49499C1.01003 6.37499 1.31003 6.40499 1.59503 6.39999C1.60003 6.13499 1.60003 5.86999 1.59503 5.60499C1.31003 5.59999 1.01003 5.62999 0.740029 5.50999C0.305029 5.32999 2.9297e-05 4.87999 2.9297e-05 4.40499C2.9297e-05 3.31999 -0.0049707 2.22999 0.0050293 1.14499ZM0.945029 0.894985C0.820029 0.989985 0.795029 1.14999 0.800029 1.29999C0.805029 2.33499 0.795029 3.36999 0.805029 4.40499C0.800029 4.63999 1.02003 4.82499 1.25003 4.79999C5.74003 4.79999 10.23 4.79999 14.72 4.79999C15.015 4.79999 15.315 4.80499 15.61 4.79999C15.82 4.80499 16.01 4.61499 16.005 4.40499C16.01 3.34999 16.005 2.29999 16.005 1.24499C16.025 1.03499 15.87 0.819985 15.655 0.804985C15.345 0.789985 15.03 0.799985 14.72 0.799985C10.295 0.799985 5.87003 0.799985 1.45003 0.799985C1.28003 0.804985 1.08503 0.769985 0.945029 0.894985ZM2.40003 5.59999C2.40003 5.86499 2.40003 6.12999 2.40003 6.39999C2.67003 6.40499 2.93503 6.40499 3.20003 6.39999C3.46503 6.40499 3.73003 6.40499 3.99503 6.39999C4.00003 6.13499 4.00003 5.86999 3.99503 5.60499C3.73003 5.59999 3.46503 5.59999 3.20003 5.60499C2.93503 5.59999 2.67003 5.59999 2.40003 5.59999ZM4.80503 5.59999C4.80003 5.86499 4.80003 6.12999 4.80503 6.39499C7.20503 6.39999 9.60503 6.39999 12 6.39499C12.005 6.12999 12.005 5.86499 12 5.59999C9.60003 5.59999 7.20003 5.59999 4.80503 5.59999ZM12.8 5.59999C12.8 5.86499 12.8 6.12999 12.8 6.39999C13.065 6.40499 13.335 6.40499 13.6 6.39999C13.865 6.40499 14.13 6.40499 14.395 6.39999C14.4 6.13499 14.4 5.86999 14.395 5.60499C14.13 5.59999 13.865 5.59999 13.6 5.60499C13.335 5.59999 13.07 5.59999 12.8 5.59999ZM0.805029 7.59499C0.800029 8.62999 0.805029 9.66499 0.800029 10.7C0.795029 10.835 0.815029 10.985 0.920029 11.08C1.01503 11.185 1.16503 11.2 1.30003 11.2C3.80003 11.195 6.30003 11.2 8.80503 11.2C8.81003 10.65 8.80003 10.095 8.81003 9.54499C8.83503 9.08499 9.19003 8.73499 9.55503 8.49499C10.26 8.04499 11.08 7.82499 11.885 7.63499C13.11 7.37499 14.36 7.23999 15.61 7.22499C15.26 7.19999 14.905 7.20999 14.555 7.19999C10.12 7.19999 5.68503 7.19999 1.25003 7.19999C1.02003 7.17499 0.795029 7.36499 0.805029 7.59499ZM12.16 8.39499C11.465 8.54998 10.76 8.73499 10.13 9.07499C9.93503 9.18999 9.72003 9.30999 9.62003 9.51999C9.55503 9.68499 9.71003 9.82999 9.82503 9.92499C10.255 10.245 10.77 10.42 11.28 10.58C12.41 10.91 13.58 11.065 14.755 11.145C16.64 11.255 18.545 11.2 20.405 10.85C20.59 10.81 20.78 10.785 20.955 10.72C21.22 10.68 21.48 10.6 21.735 10.52C22.15 10.385 22.565 10.225 22.93 9.96999C23.055 9.87499 23.19 9.76499 23.21 9.59999C23.195 9.44999 23.07 9.33999 22.96 9.24999C22.625 9.00499 22.24 8.85499 21.85 8.71999C21.555 8.62499 21.26 8.52499 20.955 8.47999C20.59 8.35499 20.2 8.30999 19.82 8.23999C18.445 8.02999 17.045 7.96999 15.655 8.00499C14.475 8.04999 13.305 8.15499 12.16 8.39499ZM9.60003 10.735C9.59503 11.675 9.60003 12.615 9.60003 13.555C9.59003 13.685 9.67503 13.8 9.77003 13.88C10.015 14.085 10.31 14.225 10.605 14.35C11.535 14.715 12.52 14.9 13.505 15.03C15.24 15.24 17 15.25 18.745 15.095C19.85 14.975 20.965 14.805 22.015 14.42C22.3 14.32 22.58 14.195 22.835 14.03C23 13.915 23.21 13.78 23.205 13.555C23.205 12.615 23.205 11.675 23.205 10.74C22.82 10.96 22.415 11.13 22 11.275C20.675 11.69 19.29 11.87 17.905 11.955C16.01 12.06 14.1 11.985 12.235 11.63C11.32 11.45 10.405 11.205 9.60003 10.735ZM2.40003 12C2.40003 12.265 2.40003 12.53 2.40003 12.8C2.67003 12.805 2.93503 12.805 3.20003 12.8C3.46503 12.805 3.73003 12.805 3.99503 12.8C4.00003 12.535 4.00003 12.27 3.99503 12.005C3.73003 12 3.46503 12 3.20003 12.005C2.93503 12 2.67003 12 2.40003 12ZM4.80503 12C4.80003 12.265 4.80003 12.53 4.80503 12.795C6.13503 12.795 7.47003 12.795 8.80003 12.795C8.80503 12.53 8.80503 12.265 8.80003 12C7.46503 12 6.13503 12 4.80503 12ZM0.805029 13.995C0.800029 15.015 0.805029 16.03 0.800029 17.05C0.800029 17.19 0.795029 17.345 0.895029 17.455C0.980029 17.56 1.11503 17.6 1.24503 17.6C3.76503 17.6 6.28003 17.6 8.80003 17.6C8.80003 16.265 8.80003 14.935 8.80003 13.6C6.28503 13.6 3.76503 13.6 1.24503 13.6C1.02003 13.575 0.795029 13.765 0.805029 13.995ZM9.60003 14.735C9.59503 15.675 9.60003 16.615 9.60003 17.555C9.58503 17.715 9.71003 17.835 9.82003 17.93C10.135 18.175 10.51 18.325 10.885 18.46C12.16 18.895 13.505 19.065 14.845 19.155C16.155 19.235 17.47 19.215 18.78 19.09C19.875 18.97 20.97 18.8 22.005 18.42C22.335 18.3 22.66 18.16 22.945 17.95C23.07 17.855 23.205 17.73 23.195 17.555C23.195 16.615 23.195 15.675 23.195 14.74C22.815 14.96 22.405 15.135 21.99 15.275C20.315 15.795 18.545 15.96 16.8 16C15.005 16.02 13.195 15.895 11.45 15.46C10.81 15.29 10.175 15.07 9.60003 14.735ZM9.60503 18.735C9.60003 19.675 9.60503 20.615 9.60503 21.555C9.59003 21.74 9.75003 21.87 9.88503 21.97C10.28 22.25 10.745 22.415 11.2 22.56C12.355 22.91 13.555 23.065 14.75 23.15C16.15 23.24 17.555 23.22 18.95 23.075C19.53 23.005 20.115 22.935 20.68 22.79C21.2 22.7 21.71 22.545 22.2 22.355C22.475 22.24 22.745 22.115 22.98 21.935C23.095 21.845 23.215 21.72 23.2 21.56C23.2 20.62 23.2 19.68 23.2 18.745C22.82 18.965 22.41 19.14 21.995 19.285C20.35 19.785 18.615 19.95 16.9 19.995C15.56 20.02 14.22 19.95 12.895 19.745C11.76 19.565 10.605 19.315 9.60503 18.735Z" fill="#1C2436"/>
<path d="M1.87009 1.62498C1.97509 1.59498 2.09009 1.59998 2.20009 1.59998C2.67009 1.60498 3.13509 1.59498 3.60509 1.60498C3.81509 1.59998 4.00509 1.78498 4.00009 1.99998C4.00509 2.49998 4.00009 2.99998 4.00009 3.50498C4.00509 3.64998 3.98009 3.81498 3.85509 3.90498C3.74509 4.00498 3.59009 3.99998 3.45009 3.99998C2.98009 3.99498 2.51009 3.99998 2.04509 3.99998C1.91509 4.00498 1.78009 3.95998 1.69509 3.85498C1.58009 3.72998 1.60009 3.55498 1.60009 3.39998C1.60509 2.92998 1.59509 2.46498 1.60509 1.99498C1.60009 1.82998 1.71009 1.67498 1.87009 1.62498ZM2.40009 2.39998C2.40009 2.66498 2.40009 2.92998 2.40009 3.19498C2.66509 3.19998 2.93009 3.19998 3.20009 3.19498C3.20009 2.92998 3.20009 2.66498 3.20009 2.39498C2.93509 2.39998 2.67009 2.39998 2.40009 2.39998Z" fill="#1C2436"/>
<path d="M5.07004 1.62498C5.17504 1.59498 5.29004 1.59998 5.40004 1.59998C5.85004 1.60498 6.30504 1.59998 6.75504 1.59998C6.88504 1.59498 7.02504 1.63998 7.10504 1.74498C7.20504 1.85498 7.20004 2.00998 7.20004 2.14998C7.19504 2.61998 7.20004 3.08998 7.20004 3.55498C7.20504 3.68498 7.16004 3.81998 7.05504 3.90498C6.94504 4.00498 6.79004 3.99998 6.65004 3.99998C6.18004 3.99498 5.71504 3.99998 5.24504 3.99998C5.11504 4.00498 4.98004 3.95998 4.89504 3.85498C4.78004 3.72998 4.80004 3.55498 4.80004 3.39998C4.80504 2.92998 4.79504 2.46498 4.80504 1.99498C4.80004 1.82998 4.91004 1.67498 5.07004 1.62498ZM5.60004 2.39998C5.59504 2.66498 5.59504 2.92998 5.60004 3.19498C5.86504 3.19998 6.13004 3.19998 6.39504 3.19498C6.40004 2.92998 6.40004 2.66498 6.39504 2.39998C6.13504 2.39998 5.87004 2.39998 5.60004 2.39998Z" fill="#1C2436"/>
<path d="M8 1.59998C9.865 1.59998 11.73 1.59998 13.6 1.59998C13.6 1.86498 13.6 2.12998 13.6 2.39998C11.735 2.39998 9.87 2.39998 8 2.39998C8 2.13498 8 1.86498 8 1.59998Z" fill="#1C2436"/>
<path d="M14.4 1.59997C14.535 1.59997 14.67 1.59497 14.8 1.59497C14.93 1.59497 15.065 1.59497 15.195 1.59997C15.2 1.86497 15.2 2.12997 15.195 2.39497C15.065 2.39497 14.93 2.39997 14.8 2.39997C14.665 2.39997 14.535 2.39997 14.4 2.39497C14.4 2.13497 14.4 1.86997 14.4 1.59997Z" fill="#1C2436"/>
<path d="M8 3.19998C9.865 3.19998 11.73 3.19998 13.6 3.19998C13.6 3.46498 13.6 3.72998 13.6 3.99998C11.735 3.99998 9.87 3.99998 8 3.99998C8 3.73498 8 3.46498 8 3.19998Z" fill="#1C2436"/>
<path d="M14.4 3.19998C14.535 3.19998 14.665 3.19498 14.8 3.19498C14.93 3.19498 15.065 3.19498 15.195 3.19998C15.2 3.46498 15.2 3.72998 15.195 3.99498C15.065 3.99498 14.93 3.99998 14.8 3.99998C14.665 3.99998 14.53 3.99998 14.4 3.99498C14.4 3.73498 14.4 3.46998 14.4 3.19998Z" fill="#1C2436"/>
<path d="M1.87005 8.02498C2.32505 7.96998 2.79005 8.01498 3.25005 7.99998C3.46005 8.00998 3.71505 7.94998 3.88505 8.11998C4.00505 8.22998 4.00505 8.39998 4.00505 8.54998C4.00005 9.03498 4.01005 9.51998 4.00005 10.005C4.00505 10.215 3.81505 10.405 3.60505 10.4C3.07005 10.405 2.53505 10.405 2.00005 10.4C1.79005 10.405 1.60005 10.22 1.60505 10.005C1.60005 9.48498 1.60505 8.96498 1.60005 8.44998C1.58505 8.26498 1.69005 8.07998 1.87005 8.02498ZM2.40005 8.79998C2.39505 9.06498 2.39505 9.32998 2.40005 9.59498C2.66505 9.59998 2.93005 9.59998 3.20005 9.59498C3.20505 9.32998 3.20505 9.06498 3.20005 8.79498C2.93505 8.79998 2.67005 8.79998 2.40005 8.79998Z" fill="#1C2436"/>
<path d="M5.07001 8.02498C5.52501 7.96998 5.99001 8.01498 6.45001 7.99998C6.66001 8.00998 6.91501 7.94998 7.08501 8.11998C7.20501 8.22998 7.20501 8.39998 7.20501 8.54998C7.20001 9.03498 7.21001 9.51998 7.20001 10.005C7.20501 10.215 7.02001 10.405 6.80501 10.4C6.30501 10.405 5.80001 10.4 5.30001 10.405C5.15501 10.41 4.99001 10.385 4.89501 10.26C4.78501 10.135 4.80001 9.95998 4.80001 9.80498C4.80501 9.33498 4.79501 8.86998 4.80501 8.39998C4.80001 8.22998 4.91001 8.07498 5.07001 8.02498ZM5.60001 8.79998C5.59501 9.06498 5.59501 9.32998 5.60001 9.59498C5.86501 9.59998 6.13001 9.59998 6.39501 9.59498C6.40001 9.32998 6.40001 9.06498 6.39501 8.79998C6.13501 8.79998 5.87001 8.79998 5.60001 8.79998Z" fill="#1C2436"/>
<path d="M16 13.2C16.265 13.2 16.53 13.2 16.8 13.2C16.8 13.465 16.8 13.73 16.8 14C16.535 14 16.27 14 16 14C16 13.735 16 13.465 16 13.2Z" fill="#1C2436"/>
<path d="M1.86997 14.425C2.32497 14.37 2.78997 14.42 3.24997 14.4C3.45997 14.41 3.71497 14.35 3.88497 14.52C4.00497 14.63 4.00497 14.8 4.00497 14.95C3.99997 15.435 4.00997 15.92 3.99997 16.405C4.00497 16.615 3.81497 16.805 3.60497 16.8C3.10497 16.805 2.59997 16.8 2.09997 16.805C1.95497 16.81 1.79497 16.785 1.69997 16.66C1.58497 16.535 1.60497 16.36 1.60497 16.205C1.60997 15.735 1.59997 15.27 1.60997 14.8C1.59997 14.63 1.70997 14.475 1.86997 14.425ZM2.39997 15.2C2.39997 15.465 2.39997 15.73 2.39997 16C2.66497 16.005 2.92997 16.005 3.19997 16C3.19997 15.735 3.19997 15.47 3.19997 15.2C2.93497 15.2 2.66997 15.2 2.39997 15.2Z" fill="#1C2436"/>
<path d="M5.07 14.425C5.525 14.37 5.99 14.42 6.45 14.4C6.66 14.41 6.915 14.35 7.08 14.52C7.2 14.63 7.2 14.8 7.2 14.95C7.195 15.435 7.205 15.92 7.195 16.405C7.2 16.615 7.01 16.805 6.8 16.8C6.3 16.805 5.795 16.8 5.295 16.805C5.15 16.81 4.985 16.785 4.89 16.66C4.78 16.535 4.795 16.36 4.795 16.205C4.8 15.735 4.79 15.27 4.8 14.8C4.8 14.63 4.91 14.475 5.07 14.425ZM5.6 15.2C5.595 15.465 5.595 15.73 5.6 15.995C5.865 16 6.13 16 6.395 15.995C6.4 15.73 6.4 15.465 6.395 15.2C6.135 15.2 5.87 15.2 5.6 15.2Z" fill="#1C2436"/>
<path d="M16 17.6C16.265 17.6 16.53 17.6 16.8 17.6C16.8 17.865 16.8 18.13 16.8 18.4C16.535 18.4 16.27 18.4 16 18.4C16 18.135 16 17.865 16 17.6Z" fill="#1C2436"/>
<path d="M16 21.2C16.265 21.2 16.53 21.2 16.8 21.2C16.8 21.465 16.8 21.73 16.8 22C16.535 22 16.27 22 16 22C16 21.735 16 21.465 16 21.2Z" fill="#1C2436"/>
<path d="M0.945044 0.894977C1.08504 0.769977 1.28004 0.804977 1.45004 0.799977C5.87004 0.804977 10.295 0.799977 14.715 0.799977C14.795 1.05998 14.815 1.32998 14.805 1.59998C14.67 1.59998 14.535 1.59998 14.405 1.60498C14.4 1.86998 14.4 2.13498 14.405 2.39998C14.54 2.39998 14.67 2.40498 14.805 2.40498C14.805 2.66998 14.805 2.93498 14.805 3.19998C14.67 3.19998 14.54 3.19998 14.405 3.20498C14.4 3.46998 14.4 3.73498 14.405 3.99998C14.54 3.99998 14.675 4.00498 14.805 4.00498C14.815 4.27498 14.795 4.54498 14.715 4.79998C10.225 4.79998 5.73504 4.79998 1.24504 4.79998C1.02004 4.81998 0.795044 4.63498 0.800044 4.40498C0.795044 3.36998 0.800044 2.33498 0.795044 1.29998C0.795044 1.14998 0.820044 0.989977 0.945044 0.894977ZM1.87004 1.62498C1.71504 1.67498 1.60504 1.83498 1.60504 1.99998C1.59504 2.46998 1.60504 2.93498 1.60004 3.40498C1.60004 3.55998 1.58504 3.73498 1.69504 3.85998C1.78004 3.96498 1.91504 4.00498 2.04504 4.00498C2.51504 4.00498 2.98504 4.00498 3.45004 4.00498C3.59004 4.00498 3.74504 4.00998 3.85504 3.90998C3.97504 3.81498 4.00504 3.65498 4.00004 3.50998C4.00004 2.99998 4.00504 2.49998 4.00004 1.99498C4.00504 1.78498 3.81504 1.59498 3.60504 1.59998C3.13504 1.58998 2.67004 1.59998 2.20004 1.59498C2.09004 1.59998 1.97504 1.58998 1.87004 1.62498ZM5.07004 1.62498C4.91504 1.67498 4.80004 1.83498 4.80504 1.99998C4.79504 2.46998 4.80504 2.93498 4.80004 3.40498C4.80004 3.55998 4.78504 3.73998 4.89504 3.85998C4.98004 3.96498 5.11504 4.00498 5.24504 4.00498C5.71504 4.00498 6.18504 4.00498 6.65004 4.00498C6.79004 4.00498 6.94504 4.00998 7.05504 3.90998C7.16004 3.82498 7.20004 3.68998 7.20004 3.55998C7.20004 3.08998 7.20004 2.61998 7.20004 2.15498C7.20004 2.01498 7.20504 1.85998 7.10504 1.74998C7.02004 1.64498 6.88504 1.59998 6.75504 1.60498C6.30504 1.60498 5.85004 1.60998 5.40004 1.60498C5.29004 1.59998 5.17504 1.58998 5.07004 1.62498ZM8.00004 1.59998C7.99504 1.86498 7.99504 2.12998 8.00004 2.39998C9.86504 2.39998 11.73 2.39998 13.6 2.39998C13.6 2.13498 13.6 1.86998 13.6 1.59998C11.735 1.59998 9.87004 1.59998 8.00004 1.59998ZM8.00004 3.19998C7.99504 3.46498 7.99504 3.72998 8.00004 3.99998C9.86504 3.99998 11.73 3.99998 13.6 3.99998C13.6 3.73498 13.6 3.46998 13.6 3.19998C11.735 3.19998 9.87004 3.19998 8.00004 3.19998Z" fill="#FFF7D6"/>
<path d="M0.805049 7.59499C0.800049 7.35999 1.02005 7.17499 1.25005 7.19999C5.68505 7.19999 10.12 7.19999 14.555 7.19999C14.905 7.20999 15.26 7.19999 15.61 7.22499C14.36 7.24499 13.105 7.37499 11.885 7.63499C11.08 7.81999 10.26 8.04499 9.55505 8.49499C9.19505 8.73499 8.83505 9.08499 8.81005 9.54499C8.80005 10.095 8.81005 10.645 8.80505 11.2C6.30505 11.205 3.80505 11.2 1.30005 11.2C1.16505 11.205 1.01505 11.185 0.920049 11.08C0.815049 10.985 0.800049 10.835 0.800049 10.7C0.805049 9.66999 0.795049 8.62999 0.805049 7.59499ZM1.87005 8.02499C1.69505 8.07999 1.59005 8.26499 1.60005 8.44499C1.60005 8.96499 1.59505 9.48499 1.60505 9.99999C1.60005 10.21 1.79005 10.4 2.00005 10.395C2.53505 10.4 3.07005 10.4 3.60505 10.395C3.81505 10.4 4.00505 10.21 4.00005 9.99999C4.01005 9.51499 4.00005 9.02999 4.00505 8.54499C4.00505 8.39499 4.00505 8.22499 3.88505 8.11499C3.72005 7.94499 3.46505 8.00999 3.25005 7.99499C2.79005 8.01499 2.32505 7.96999 1.87005 8.02499ZM5.07005 8.02499C4.91505 8.07499 4.80005 8.23499 4.80505 8.39999C4.80005 8.86999 4.80505 9.33499 4.80005 9.80499C4.80005 9.95999 4.78505 10.135 4.89505 10.26C4.99005 10.38 5.15005 10.41 5.30005 10.405C5.80005 10.4 6.30505 10.41 6.80505 10.4C7.01505 10.405 7.20505 10.215 7.20005 10.005C7.20505 9.51999 7.20005 9.03499 7.20505 8.54999C7.20505 8.39999 7.20505 8.22999 7.08505 8.11999C6.92005 7.94999 6.66505 8.01499 6.45005 7.99999C5.99005 8.01499 5.52505 7.96999 5.07005 8.02499Z" fill="#FFF7D6"/>
<path d="M0.805104 13.995C0.800104 13.76 1.0201 13.575 1.2501 13.6C3.7701 13.6 6.2851 13.6 8.8051 13.6C8.8051 14.93 8.8051 16.265 8.8051 17.6C6.2901 17.6 3.7701 17.6 1.2501 17.6C1.1201 17.605 0.980104 17.56 0.900104 17.455C0.800104 17.345 0.805104 17.19 0.805104 17.05C0.805104 16.035 0.795104 15.015 0.805104 13.995ZM1.8701 14.425C1.7151 14.475 1.6001 14.635 1.6051 14.8C1.5951 15.27 1.6051 15.735 1.6001 16.205C1.6001 16.36 1.5851 16.535 1.6951 16.66C1.7901 16.78 1.9501 16.81 2.0951 16.805C2.6001 16.8 3.1001 16.81 3.6001 16.8C3.8101 16.805 4.0001 16.615 3.9951 16.405C4.0051 15.92 3.9951 15.435 4.0001 14.95C4.0001 14.8 4.0001 14.63 3.8801 14.52C3.7151 14.35 3.4601 14.415 3.2451 14.4C2.7901 14.415 2.3251 14.37 1.8701 14.425ZM5.0701 14.425C4.9151 14.475 4.8001 14.635 4.8051 14.8C4.7951 15.27 4.8051 15.735 4.8001 16.205C4.8001 16.36 4.7851 16.535 4.8951 16.66C4.9901 16.78 5.1501 16.81 5.3001 16.805C5.8001 16.8 6.3051 16.81 6.8051 16.8C7.0151 16.805 7.2051 16.615 7.2001 16.405C7.2051 15.92 7.2001 15.435 7.2051 14.95C7.2051 14.8 7.2051 14.63 7.0851 14.52C6.9201 14.35 6.6651 14.415 6.4551 14.4C5.9901 14.415 5.5251 14.37 5.0701 14.425Z" fill="#FFF7D6"/>
<path d="M14.7151 0.799996C15.0251 0.804996 15.3401 0.789996 15.6501 0.804996C15.8651 0.819996 16.0201 1.035 16.0001 1.245C16.0001 2.3 16.0051 3.35 16.0001 4.405C16.0051 4.615 15.8151 4.805 15.6051 4.8C15.3101 4.81 15.0101 4.8 14.7151 4.8C14.7951 4.54 14.8151 4.27 14.8051 4.005C14.9351 4.005 15.0701 4.005 15.2001 4C15.2051 3.735 15.2051 3.47 15.2001 3.205C15.0701 3.205 14.9351 3.2 14.8051 3.2C14.8051 2.935 14.8051 2.67 14.8051 2.405C14.9351 2.405 15.0701 2.405 15.2001 2.4C15.2051 2.135 15.2051 1.87 15.2001 1.605C15.0701 1.605 14.9351 1.6 14.8051 1.6C14.8151 1.33 14.7951 1.06 14.7151 0.799996Z" fill="#FFF7D6"/>
<path d="M2.40002 2.39999C2.66502 2.39499 2.93002 2.39499 3.20002 2.39999C3.20502 2.66499 3.20502 2.92999 3.20002 3.19999C2.93502 3.19999 2.67002 3.19999 2.40002 3.19999C2.40002 2.93499 2.40002 2.66499 2.40002 2.39999Z" fill="#FFF7D6"/>
<path d="M2.40002 8.79998C2.66502 8.79498 2.93002 8.79498 3.20002 8.79998C3.20002 9.06498 3.20002 9.32998 3.20002 9.59998C2.93502 9.60498 2.67002 9.60498 2.40002 9.59998C2.40002 9.33498 2.40002 9.06498 2.40002 8.79998Z" fill="#FFF7D6"/>
<path d="M2.79999 16.165C3.11203 16.165 3.36499 15.912 3.36499 15.6C3.36499 15.288 3.11203 15.035 2.79999 15.035C2.48794 15.035 2.23499 15.288 2.23499 15.6C2.23499 15.912 2.48794 16.165 2.79999 16.165Z" fill="#FFF7D6"/>
<path d="M5.59998 2.39999C5.86498 2.39499 6.12998 2.39499 6.39498 2.39999C6.39998 2.66499 6.39998 2.92999 6.39498 3.19499C6.12998 3.19999 5.86498 3.19999 5.59998 3.19499C5.59998 2.93499 5.59998 2.66499 5.59998 2.39999Z" fill="#FFF7D6"/>
<path d="M5.59998 8.79998C5.86498 8.79498 6.12998 8.79498 6.39498 8.79998C6.39998 9.06498 6.39998 9.32998 6.39498 9.59498C6.12998 9.59998 5.86498 9.59998 5.59998 9.59498C5.59998 9.33498 5.59998 9.06498 5.59998 8.79998Z" fill="#FFF7D6"/>
<path d="M5.59998 15.2C5.86498 15.195 6.12998 15.195 6.39498 15.2C6.39998 15.465 6.39998 15.73 6.39498 15.995C6.12998 16 5.86498 16 5.59998 15.995C5.59998 15.735 5.59998 15.465 5.59998 15.2Z" fill="#FFF7D6"/>
<path d="M2.40002 5.6C2.67002 5.6 2.93502 5.595 3.20002 5.6C3.20002 5.865 3.20002 6.13 3.20002 6.395C2.93502 6.4 2.66502 6.4 2.40002 6.395C2.40002 6.135 2.40002 5.865 2.40002 5.6Z" fill="#FFF7D6"/>
<path d="M12.8 5.6C13.065 5.6 13.335 5.595 13.6 5.6C13.6 5.865 13.6 6.13 13.6 6.395C13.335 6.4 13.065 6.4 12.8 6.395C12.8 6.135 12.8 5.865 12.8 5.6Z" fill="#FFF7D6"/>
<path d="M2.40002 12C2.67002 11.995 2.93502 11.995 3.20002 12C3.20002 12.265 3.20002 12.53 3.20002 12.795C2.93502 12.8 2.66502 12.8 2.40002 12.795C2.40002 12.535 2.40002 12.265 2.40002 12Z" fill="#FFF7D6"/>
<path d="M3.20504 5.59997C3.47004 5.59497 3.73504 5.59497 4.00004 5.59997C4.00504 5.86497 4.00504 6.12997 4.00004 6.39497C3.73504 6.39997 3.47004 6.39997 3.20504 6.39497C3.20004 6.13497 3.20004 5.86997 3.20504 5.59997Z" fill="#FFF7D6"/>
<path d="M13.6051 5.59997C13.8701 5.59497 14.1351 5.59497 14.4001 5.59997C14.4051 5.86497 14.4051 6.12997 14.4001 6.39497C14.1351 6.39997 13.8701 6.39997 13.6051 6.39497C13.6001 6.13497 13.6001 5.86997 13.6051 5.59997Z" fill="#FFF7D6"/>
<path d="M3.20504 12C3.47004 11.995 3.73504 11.995 4.00004 12C4.00504 12.265 4.00504 12.53 4.00004 12.795C3.73504 12.8 3.47004 12.8 3.20504 12.795C3.20004 12.535 3.20004 12.27 3.20504 12Z" fill="#FFF7D6"/>
<path d="M12.16 8.39499C13.305 8.15499 14.48 8.04499 15.65 8.00999C17.04 7.97499 18.435 8.02999 19.815 8.24499C20.195 8.31499 20.585 8.35999 20.95 8.48499C21.24 8.73999 21.635 8.86999 21.865 9.19499C22.035 9.40499 22.06 9.72499 21.905 9.94999C21.685 10.31 21.265 10.455 20.955 10.72C20.78 10.79 20.59 10.81 20.405 10.85C18.545 11.2 16.64 11.255 14.755 11.145C13.585 11.065 12.41 10.91 11.28 10.58C10.77 10.425 10.255 10.245 9.82499 9.92499C9.70999 9.82999 9.55499 9.68499 9.61999 9.51999C9.71999 9.30999 9.93499 9.18999 10.13 9.07499C10.76 8.73499 11.46 8.54999 12.16 8.39499Z" fill="#4DF189"/>
<path d="M21.995 11.275C22.41 11.13 22.82 10.955 23.2 10.74C23.205 11.68 23.2 12.62 23.2 13.555C23.21 13.78 22.995 13.92 22.83 14.03C22.575 14.195 22.295 14.315 22.01 14.42C21.98 13.37 22.015 12.32 21.995 11.275Z" fill="#4DF189"/>
<path d="M21.995 15.275C22.41 15.13 22.82 14.955 23.2 14.74C23.205 15.68 23.2 16.62 23.2 17.555C23.21 17.725 23.075 17.855 22.95 17.95C22.665 18.16 22.34 18.3 22.01 18.42C21.98 17.37 22.02 16.32 21.995 15.275Z" fill="#4DF189"/>
<path d="M21.9949 19.275C22.4099 19.13 22.8199 18.955 23.1999 18.735C23.2049 19.675 23.1999 20.615 23.1999 21.55C23.2099 21.71 23.0899 21.83 22.9799 21.925C22.7449 22.105 22.4749 22.235 22.1999 22.345C21.7099 22.535 21.1999 22.695 20.6799 22.78C21.0799 22.555 21.5399 22.39 21.8349 22.025C21.9999 21.84 22.0099 21.58 22.0049 21.345C21.9949 20.66 22.0099 19.965 21.9949 19.275Z" fill="#4DF189"/>
<path d="M20.9451 8.47998C21.2551 8.51998 21.5451 8.62498 21.8401 8.71998C22.2301 8.85498 22.6151 9.00998 22.9501 9.24998C23.0601 9.33998 23.1851 9.44498 23.2001 9.59998C23.1801 9.76498 23.0451 9.87498 22.9201 9.96998C22.5601 10.22 22.1451 10.38 21.7251 10.52C21.4701 10.6 21.2101 10.685 20.9451 10.72C21.2551 10.455 21.6701 10.31 21.8951 9.94998C22.0501 9.72498 22.0251 9.40498 21.8551 9.19498C21.6301 8.86498 21.2351 8.73498 20.9451 8.47998Z" fill="#4DF189"/>
<path d="M9.60004 10.735C10.405 11.21 11.32 11.45 12.225 11.635C14.09 11.985 16 12.065 17.895 11.96C19.275 11.875 20.665 11.695 21.99 11.28C22.015 12.33 21.975 13.375 22.005 14.425C20.955 14.805 19.845 14.98 18.735 15.1C16.995 15.26 15.235 15.245 13.495 15.035C12.51 14.905 11.525 14.72 10.595 14.355C10.3 14.23 10.005 14.095 9.76004 13.885C9.66504 13.805 9.58004 13.69 9.59004 13.56C9.60004 12.615 9.60004 11.675 9.60004 10.735ZM16 13.2C16 13.465 16 13.73 16 14C16.265 14 16.53 14 16.8 14C16.8 13.735 16.8 13.47 16.8 13.2C16.535 13.2 16.27 13.2 16 13.2Z" fill="#4DF189"/>
<path d="M9.60003 14.735C10.175 15.07 10.805 15.29 11.445 15.455C13.19 15.89 15 16.015 16.795 15.995C18.545 15.955 20.31 15.795 21.985 15.27C22.01 16.32 21.97 17.365 22 18.415C20.965 18.795 19.865 18.965 18.775 19.085C17.47 19.21 16.15 19.23 14.84 19.15C13.5 19.06 12.155 18.89 10.88 18.455C10.505 18.32 10.13 18.17 9.81503 17.925C9.70003 17.835 9.58003 17.71 9.59503 17.55C9.60003 16.615 9.60003 15.675 9.60003 14.735ZM16 17.6C16 17.865 16 18.13 16 18.4C16.265 18.4 16.53 18.4 16.8 18.4C16.8 18.135 16.8 17.87 16.8 17.6C16.535 17.6 16.27 17.6 16 17.6Z" fill="#4DF189"/>
<path d="M9.60507 18.735C10.6101 19.32 11.7651 19.565 12.8951 19.745C14.2201 19.95 15.5651 20.015 16.9001 19.995C18.6151 19.95 20.3451 19.785 21.9901 19.275C22.0051 19.965 21.9901 20.66 22.0001 21.35C22.0001 21.585 21.9951 21.845 21.8301 22.03C21.5351 22.395 21.0751 22.56 20.6751 22.785C20.1101 22.93 19.5251 23 18.9451 23.07C17.5501 23.215 16.1451 23.235 14.7451 23.145C13.5451 23.06 12.3451 22.905 11.1951 22.555C10.7351 22.41 10.2751 22.245 9.88007 21.965C9.74507 21.865 9.59007 21.735 9.60007 21.55C9.60007 20.615 9.60007 19.675 9.60507 18.735ZM16.0001 21.2C16.0001 21.465 16.0001 21.73 16.0001 22C16.2651 22 16.5301 22 16.8001 22C16.8001 21.735 16.8001 21.47 16.8001 21.2C16.5351 21.2 16.2701 21.2 16.0001 21.2Z" fill="#4DF189"/>
</svg>
