<svg width="80" height="80" viewBox="0 0 80 80" fill="none" xmlns="http://www.w3.org/2000/svg">
<path d="M0.0164388 3.81667C0.0497721 1.75 1.93311 -0.0333312 3.98311 2.14286e-06C19.9998 2.14286e-06 35.9998 2.14286e-06 52.0164 2.14286e-06C54.0831 -0.0333312 55.9498 1.75 55.9998 3.81667C56.0164 7.43334 56.0164 11.0667 56.0164 14.6833C56.0164 16.2667 54.9998 17.7667 53.5498 18.3667C52.6498 18.7667 51.6498 18.6667 50.6998 18.6833C50.6831 19.5667 50.6831 20.45 50.6998 21.3333C51.7664 21.3333 52.9164 21.25 53.8831 21.8167C54.7664 22.25 55.3498 23.0833 55.7831 23.95C56.2998 24.1 56.8331 24.0333 57.3664 24.0667C61.2664 24.1833 65.1831 24.55 69.0164 25.3167C71.6498 25.8667 74.2998 26.55 76.6831 27.8333C77.8664 28.4833 79.0331 29.3167 79.6498 30.55C80.0998 31.4167 79.9998 32.4 79.9998 33.35C79.9998 45.8 79.9998 58.2333 79.9998 70.6833C79.9998 71.6667 80.0998 72.7167 79.5831 73.5833C78.7164 75.1167 77.0998 76.0167 75.5498 76.7333C72.4498 78.1 69.1164 78.75 65.7831 79.25C58.4831 80.25 51.0498 80.25 43.7498 79.2833C40.0664 78.7167 36.3331 78.0333 32.9831 76.35C31.6831 75.6667 30.3664 74.8 29.6831 73.4667C29.2164 72.6 29.3331 71.6 29.3331 70.6667C29.3331 67.55 29.3498 64.45 29.3331 61.3333C21.3831 61.3167 13.4498 61.3333 5.49977 61.3333C4.48311 61.3167 3.4331 61.4333 2.48311 61.0167C1.01644 60.4333 -0.000227865 58.9167 -0.000227865 57.35C-0.000227865 53.7833 -0.000227865 50.2167 -0.000227865 46.65C-0.0168945 45.0667 1.01644 43.5667 2.46644 42.9667C3.36644 42.5667 4.36644 42.6667 5.31644 42.65C5.33311 41.7667 5.33311 40.8833 5.31644 40C4.36644 39.9833 3.36644 40.0833 2.46644 39.6833C1.01644 39.1 -0.000227865 37.5833 -0.000227865 36.0167C-0.000227865 32.45 -0.000227865 28.8833 -0.000227865 25.3333C-0.0168945 23.75 0.999772 22.25 2.46644 21.65C3.36644 21.25 4.36644 21.35 5.31644 21.3333C5.33311 20.45 5.33311 19.5667 5.31644 18.6833C4.36644 18.6667 3.36644 18.7667 2.46644 18.3667C1.01644 17.7667 -0.000227865 16.2667 -0.000227865 14.6833C-0.000227865 11.0667 -0.0168945 7.43334 0.0164388 3.81667ZM3.14977 2.98334C2.73311 3.3 2.64977 3.83334 2.66644 4.33334C2.68311 7.78334 2.64977 11.2333 2.68311 14.6833C2.66644 15.4667 3.39977 16.0833 4.16644 16C19.1331 16 34.0998 16 49.0664 16C50.0498 16 51.0498 16.0167 52.0331 16C52.7331 16.0167 53.3664 15.3833 53.3498 14.6833C53.3664 11.1667 53.3498 7.66667 53.3498 4.15C53.4164 3.45 52.8998 2.73334 52.1831 2.68334C51.1498 2.63334 50.0998 2.66667 49.0664 2.66667C34.3164 2.66667 19.5664 2.66667 4.83311 2.66667C4.26644 2.68334 3.61644 2.56667 3.14977 2.98334ZM7.99977 18.6667C7.99977 19.55 7.99977 20.4333 7.99977 21.3333C8.89977 21.35 9.7831 21.35 10.6664 21.3333C11.5498 21.35 12.4331 21.35 13.3164 21.3333C13.3331 20.45 13.3331 19.5667 13.3164 18.6833C12.4331 18.6667 11.5498 18.6667 10.6664 18.6833C9.7831 18.6667 8.89977 18.6667 7.99977 18.6667ZM16.0164 18.6667C15.9998 19.55 15.9998 20.4333 16.0164 21.3167C24.0164 21.3333 32.0164 21.3333 39.9998 21.3167C40.0164 20.4333 40.0164 19.55 39.9998 18.6667C31.9998 18.6667 23.9998 18.6667 16.0164 18.6667ZM42.6664 18.6667C42.6664 19.55 42.6664 20.4333 42.6664 21.3333C43.5498 21.35 44.4498 21.35 45.3331 21.3333C46.2164 21.35 47.0998 21.35 47.9831 21.3333C47.9998 20.45 47.9998 19.5667 47.9831 18.6833C47.0998 18.6667 46.2164 18.6667 45.3331 18.6833C44.4498 18.6667 43.5664 18.6667 42.6664 18.6667ZM2.68311 25.3167C2.66644 28.7667 2.68311 32.2167 2.66644 35.6667C2.64977 36.1167 2.71644 36.6167 3.06644 36.9333C3.38311 37.2833 3.88311 37.3333 4.33311 37.3333C12.6664 37.3167 20.9998 37.3333 29.3498 37.3333C29.3664 35.5 29.3331 33.65 29.3664 31.8167C29.4498 30.2833 30.6331 29.1167 31.8498 28.3167C34.1998 26.8167 36.9331 26.0833 39.6164 25.45C43.6998 24.5833 47.8664 24.1333 52.0331 24.0833C50.8664 24 49.6831 24.0333 48.5164 24C33.7331 24 18.9498 24 4.16644 24C3.39977 23.9167 2.64977 24.55 2.68311 25.3167ZM40.5331 27.9833C38.2164 28.5 35.8664 29.1167 33.7664 30.25C33.1164 30.6333 32.3998 31.0333 32.0664 31.7333C31.8498 32.2833 32.3664 32.7667 32.7498 33.0833C34.1831 34.15 35.8998 34.7333 37.5998 35.2667C41.3664 36.3667 45.2664 36.8833 49.1831 37.15C55.4664 37.5167 61.8164 37.3333 68.0164 36.1667C68.6331 36.0333 69.2664 35.95 69.8498 35.7333C70.7331 35.6 71.5998 35.3333 72.4498 35.0667C73.8331 34.6167 75.2164 34.0833 76.4331 33.2333C76.8498 32.9167 77.2998 32.55 77.3664 32C77.3164 31.5 76.8998 31.1333 76.5331 30.8333C75.4164 30.0167 74.1331 29.5167 72.8331 29.0667C71.8498 28.75 70.8664 28.4167 69.8498 28.2667C68.6331 27.85 67.3331 27.7 66.0664 27.4667C61.4831 26.7667 56.8164 26.5667 52.1831 26.6833C48.2498 26.8333 44.3498 27.1833 40.5331 27.9833ZM31.9998 35.7833C31.9831 38.9167 31.9998 42.05 31.9998 45.1833C31.9664 45.6167 32.2498 46 32.5664 46.2667C33.3831 46.95 34.3664 47.4167 35.3498 47.8333C38.4498 49.05 41.7331 49.6667 45.0164 50.1C50.7998 50.8 56.6664 50.8333 62.4831 50.3167C66.1664 49.9167 69.8831 49.35 73.3831 48.0667C74.3331 47.7333 75.2664 47.3167 76.1164 46.7667C76.6664 46.3833 77.3664 45.9333 77.3498 45.1833C77.3498 42.05 77.3498 38.9167 77.3498 35.8C76.0664 36.5333 74.7164 37.1 73.3331 37.5833C68.9164 38.9667 64.2998 39.5667 59.6831 39.85C53.3664 40.2 46.9998 39.95 40.7831 38.7667C37.7331 38.1667 34.6831 37.35 31.9998 35.7833ZM7.99977 40C7.99977 40.8833 7.99977 41.7667 7.99977 42.6667C8.89977 42.6833 9.7831 42.6833 10.6664 42.6667C11.5498 42.6833 12.4331 42.6833 13.3164 42.6667C13.3331 41.7833 13.3331 40.9 13.3164 40.0167C12.4331 40 11.5498 40 10.6664 40.0167C9.7831 40 8.89977 40 7.99977 40ZM16.0164 40C15.9998 40.8833 15.9998 41.7667 16.0164 42.65C20.4498 42.65 24.8998 42.65 29.3331 42.65C29.3498 41.7667 29.3498 40.8833 29.3331 40C24.8831 40 20.4498 40 16.0164 40ZM2.68311 46.65C2.66644 50.05 2.68311 53.4333 2.66644 56.8333C2.66644 57.3 2.64977 57.8167 2.98311 58.1833C3.26644 58.5333 3.71644 58.6667 4.14977 58.6667C12.5498 58.6667 20.9331 58.6667 29.3331 58.6667C29.3331 54.2167 29.3331 49.7833 29.3331 45.3333C20.9498 45.3333 12.5498 45.3333 4.14977 45.3333C3.39977 45.25 2.64977 45.8833 2.68311 46.65ZM31.9998 49.1167C31.9831 52.25 31.9998 55.3833 31.9998 58.5167C31.9498 59.05 32.3664 59.45 32.7331 59.7667C33.7831 60.5833 35.0331 61.0833 36.2831 61.5333C40.5331 62.9833 45.0164 63.55 49.4831 63.85C53.8498 64.1167 58.2331 64.05 62.5998 63.6333C66.2498 63.2333 69.8998 62.6667 73.3498 61.4C74.4498 61 75.5331 60.5333 76.4831 59.8333C76.8998 59.5167 77.3498 59.1 77.3164 58.5167C77.3164 55.3833 77.3164 52.25 77.3164 49.1333C76.0498 49.8667 74.6831 50.45 73.2998 50.9167C67.7164 52.65 61.8164 53.2 55.9998 53.3333C50.0164 53.4 43.9831 52.9833 38.1664 51.5333C36.0331 50.9667 33.9164 50.2333 31.9998 49.1167ZM32.0164 62.45C31.9998 65.5833 32.0164 68.7167 32.0164 71.85C31.9664 72.4667 32.4998 72.9 32.9498 73.2333C34.2664 74.1667 35.8164 74.7167 37.3331 75.2C41.1831 76.3667 45.1831 76.8833 49.1664 77.1667C53.8331 77.4667 58.5164 77.4 63.1664 76.9167C65.0998 76.6833 67.0498 76.45 68.9331 75.9667C70.6664 75.6667 72.3664 75.15 73.9998 74.5167C74.9164 74.1333 75.8164 73.7167 76.5998 73.1167C76.9831 72.8167 77.3831 72.4 77.3331 71.8667C77.3331 68.7333 77.3331 65.6 77.3331 62.4833C76.0664 63.2167 74.6998 63.8 73.3164 64.2833C67.8331 65.95 62.0498 66.5 56.3331 66.65C51.8664 66.7333 47.3998 66.5 42.9831 65.8167C39.1998 65.2167 35.3498 64.3833 32.0164 62.45Z" fill="#1C2436"/>
<path d="M6.23305 5.41668C6.58305 5.31668 6.96639 5.33335 7.33305 5.33335C8.89972 5.35001 10.4497 5.31668 12.0164 5.35001C12.7164 5.33335 13.3497 5.95001 13.3331 6.66668C13.3497 8.33335 13.3331 10 13.3331 11.6833C13.3497 12.1667 13.2664 12.7167 12.8497 13.0167C12.4831 13.35 11.9664 13.3333 11.4997 13.3333C9.93305 13.3167 8.36639 13.3333 6.81639 13.3333C6.38305 13.35 5.93305 13.2 5.64972 12.85C5.26639 12.4333 5.33305 11.85 5.33305 11.3333C5.34972 9.76668 5.31639 8.21668 5.34972 6.65001C5.33305 6.10001 5.69972 5.58335 6.23305 5.41668ZM7.99972 8.00001C7.99972 8.88335 7.99972 9.76668 7.99972 10.65C8.88305 10.6667 9.76639 10.6667 10.6664 10.65C10.6664 9.76668 10.6664 8.88335 10.6664 7.98335C9.78305 8.00001 8.89972 8.00001 7.99972 8.00001Z" fill="#1C2436"/>
<path d="M16.8996 5.41667C17.2496 5.31667 17.6329 5.33334 17.9996 5.33334C19.4996 5.35 21.0162 5.33334 22.5162 5.33334C22.9496 5.31667 23.4162 5.46667 23.6829 5.81667C24.0162 6.18334 23.9996 6.7 23.9996 7.16667C23.9829 8.73334 23.9996 10.3 23.9996 11.85C24.0162 12.2833 23.8662 12.7333 23.5162 13.0167C23.1496 13.35 22.6329 13.3333 22.1662 13.3333C20.5996 13.3167 19.0496 13.3333 17.4829 13.3333C17.0496 13.35 16.5996 13.2 16.3162 12.85C15.9329 12.4333 15.9996 11.85 15.9996 11.3333C16.0162 9.76667 15.9829 8.21667 16.0162 6.65001C15.9996 6.10001 16.3662 5.58334 16.8996 5.41667ZM18.6662 8C18.6496 8.88334 18.6496 9.76667 18.6662 10.65C19.5496 10.6667 20.4329 10.6667 21.3162 10.65C21.3329 9.76667 21.3329 8.88334 21.3162 8C20.4496 8 19.5662 8 18.6662 8Z" fill="#1C2436"/>
<path d="M26.6665 5.33334C32.8832 5.33334 39.0998 5.33334 45.3332 5.33334C45.3332 6.21668 45.3332 7.10001 45.3332 8.00001C39.1165 8.00001 32.8998 8.00001 26.6665 8.00001C26.6665 7.11668 26.6665 6.21668 26.6665 5.33334Z" fill="#1C2436"/>
<path d="M48 5.33335C48.45 5.33335 48.9 5.31668 49.3333 5.31668C49.7667 5.31668 50.2167 5.31668 50.65 5.33335C50.6667 6.21668 50.6667 7.10001 50.65 7.98335C50.2167 7.98335 49.7667 8.00001 49.3333 8.00001C48.8833 8.00001 48.45 8.00001 48 7.98335C48 7.11668 48 6.23335 48 5.33335Z" fill="#1C2436"/>
<path d="M26.6665 10.6667C32.8832 10.6667 39.0998 10.6667 45.3332 10.6667C45.3332 11.55 45.3332 12.4333 45.3332 13.3333C39.1165 13.3333 32.8998 13.3333 26.6665 13.3333C26.6665 12.45 26.6665 11.55 26.6665 10.6667Z" fill="#1C2436"/>
<path d="M48 10.6667C48.45 10.6667 48.8833 10.65 49.3333 10.65C49.7667 10.65 50.2167 10.65 50.65 10.6667C50.6667 11.55 50.6667 12.4333 50.65 13.3167C50.2167 13.3167 49.7667 13.3333 49.3333 13.3333C48.8833 13.3333 48.4333 13.3333 48 13.3167C48 12.45 48 11.5667 48 10.6667Z" fill="#1C2436"/>
<path d="M6.23334 26.75C7.75001 26.5667 9.3 26.7167 10.8333 26.6667C11.5333 26.7 12.3833 26.5 12.95 27.0667C13.35 27.4333 13.35 28 13.35 28.5C13.3333 30.1167 13.3667 31.7333 13.3333 33.35C13.35 34.05 12.7167 34.6833 12.0167 34.6667C10.2333 34.6833 8.45 34.6833 6.66667 34.6667C5.96667 34.6833 5.33334 34.0667 5.35 33.35C5.33334 31.6167 5.35 29.8833 5.33334 28.1667C5.28334 27.55 5.63334 26.9333 6.23334 26.75ZM8 29.3333C7.98334 30.2167 7.98334 31.1 8 31.9833C8.88334 32 9.76667 32 10.6667 31.9833C10.6833 31.1 10.6833 30.2167 10.6667 29.3167C9.78334 29.3333 8.9 29.3333 8 29.3333Z" fill="#1C2436"/>
<path d="M16.8999 26.75C18.4165 26.5667 19.9665 26.7167 21.4999 26.6667C22.1999 26.7 23.0499 26.5 23.6165 27.0667C24.0165 27.4333 24.0165 28 24.0165 28.5C23.9999 30.1167 24.0332 31.7333 23.9999 33.35C24.0165 34.05 23.3999 34.6833 22.6832 34.6667C21.0165 34.6833 19.3332 34.6667 17.6665 34.6833C17.1832 34.7 16.6332 34.6167 16.3165 34.2C15.9499 33.7833 15.9999 33.2 15.9999 32.6833C16.0165 31.1167 15.9832 29.5667 16.0165 28C15.9999 27.4333 16.3665 26.9167 16.8999 26.75ZM18.6665 29.3333C18.6499 30.2167 18.6499 31.1 18.6665 31.9833C19.5499 32 20.4332 32 21.3165 31.9833C21.3332 31.1 21.3332 30.2167 21.3165 29.3333C20.4499 29.3333 19.5665 29.3333 18.6665 29.3333Z" fill="#1C2436"/>
<path d="M53.333 44C54.2163 44 55.0997 44 55.9997 44C55.9997 44.8833 55.9997 45.7667 55.9997 46.6667C55.1163 46.6667 54.233 46.6667 53.333 46.6667C53.333 45.7833 53.333 44.8833 53.333 44Z" fill="#1C2436"/>
<path d="M6.23299 48.0833C7.74966 47.9 9.29965 48.0667 10.833 48C11.533 48.0333 12.383 47.8333 12.9497 48.4C13.3497 48.7667 13.3497 49.3333 13.3497 49.8333C13.333 51.45 13.3663 53.0667 13.333 54.6833C13.3497 55.3833 12.7163 56.0167 12.0163 56C10.3497 56.0167 8.66632 56 6.99965 56.0167C6.51632 56.0333 5.98299 55.95 5.66632 55.5333C5.28299 55.1167 5.34965 54.5333 5.34965 54.0167C5.36632 52.45 5.33299 50.9 5.36632 49.3333C5.33299 48.7667 5.69966 48.25 6.23299 48.0833ZM7.99965 50.6667C7.99965 51.55 7.99965 52.4333 7.99965 53.3333C8.88299 53.35 9.76632 53.35 10.6663 53.3333C10.6663 52.45 10.6663 51.5667 10.6663 50.6667C9.78299 50.6667 8.89965 50.6667 7.99965 50.6667Z" fill="#1C2436"/>
<path d="M16.8999 48.0833C18.4166 47.9 19.9666 48.0667 21.4999 48C22.1999 48.0333 23.0499 47.8333 23.5999 48.4C23.9999 48.7667 23.9999 49.3333 23.9999 49.8333C23.9833 51.45 24.0166 53.0667 23.9833 54.6833C23.9999 55.3833 23.3666 56.0167 22.6666 56C20.9999 56.0167 19.3166 56 17.6499 56.0167C17.1666 56.0333 16.6166 55.95 16.2999 55.5333C15.9333 55.1167 15.9833 54.5333 15.9833 54.0167C15.9999 52.45 15.9666 50.9 15.9999 49.3333C15.9999 48.7667 16.3666 48.25 16.8999 48.0833ZM18.6666 50.6667C18.6499 51.55 18.6499 52.4333 18.6666 53.3167C19.5499 53.3333 20.4333 53.3333 21.3166 53.3167C21.3333 52.4333 21.3333 51.55 21.3166 50.6667C20.4499 50.6667 19.5666 50.6667 18.6666 50.6667Z" fill="#1C2436"/>
<path d="M53.333 58.6667C54.2163 58.6667 55.0997 58.6667 55.9997 58.6667C55.9997 59.55 55.9997 60.4333 55.9997 61.3333C55.1163 61.3333 54.233 61.3333 53.333 61.3333C53.333 60.45 53.333 59.55 53.333 58.6667Z" fill="#1C2436"/>
<path d="M53.333 70.6667C54.2163 70.6667 55.0997 70.6667 55.9997 70.6667C55.9997 71.55 55.9997 72.4333 55.9997 73.3333C55.1163 73.3333 54.233 73.3333 53.333 73.3333C53.333 72.45 53.333 71.55 53.333 70.6667Z" fill="#1C2436"/>
<path d="M3.1499 2.98333C3.61657 2.56666 4.26657 2.68333 4.83324 2.66666C19.5666 2.68333 34.3166 2.66666 49.0499 2.66666C49.3166 3.53333 49.3832 4.43333 49.3499 5.33333C48.8999 5.33333 48.4499 5.33333 48.0166 5.34999C47.9999 6.23333 47.9999 7.11666 48.0166 7.99999C48.4666 7.99999 48.8999 8.01666 49.3499 8.01666C49.3499 8.89999 49.3499 9.78333 49.3499 10.6667C48.8999 10.6667 48.4666 10.6667 48.0166 10.6833C47.9999 11.5667 47.9999 12.45 48.0166 13.3333C48.4666 13.3333 48.9166 13.35 49.3499 13.35C49.3832 14.25 49.3166 15.15 49.0499 16C34.0832 16 19.1166 16 4.1499 16C3.3999 16.0667 2.6499 15.45 2.66657 14.6833C2.6499 11.2333 2.66657 7.78333 2.6499 4.33333C2.6499 3.83333 2.73324 3.29999 3.1499 2.98333ZM6.23324 5.41666C5.71657 5.58333 5.3499 6.11666 5.3499 6.66666C5.31657 8.23333 5.3499 9.78333 5.33324 11.35C5.33324 11.8667 5.28324 12.45 5.6499 12.8667C5.93324 13.2167 6.38324 13.35 6.81657 13.35C8.38324 13.35 9.9499 13.35 11.4999 13.35C11.9666 13.35 12.4832 13.3667 12.8499 13.0333C13.2499 12.7167 13.3499 12.1833 13.3332 11.7C13.3332 9.99999 13.3499 8.33333 13.3332 6.64999C13.3499 5.94999 12.7166 5.31666 12.0166 5.33333C10.4499 5.29999 8.8999 5.33333 7.33324 5.31666C6.96657 5.33333 6.58324 5.29999 6.23324 5.41666ZM16.8999 5.41666C16.3832 5.58333 15.9999 6.11666 16.0166 6.66666C15.9832 8.23333 16.0166 9.78333 15.9999 11.35C15.9999 11.8667 15.9499 12.4667 16.3166 12.8667C16.5999 13.2167 17.0499 13.35 17.4832 13.35C19.0499 13.35 20.6166 13.35 22.1666 13.35C22.6332 13.35 23.1499 13.3667 23.5166 13.0333C23.8666 12.75 23.9999 12.3 23.9999 11.8667C23.9999 10.3 23.9999 8.73333 23.9999 7.18333C23.9999 6.71666 24.0166 6.19999 23.6832 5.83333C23.3999 5.48333 22.9499 5.33333 22.5166 5.34999C21.0166 5.34999 19.4999 5.36666 17.9999 5.34999C17.6332 5.33333 17.2499 5.29999 16.8999 5.41666ZM26.6666 5.33333C26.6499 6.21666 26.6499 7.09999 26.6666 7.99999C32.8832 7.99999 39.0999 7.99999 45.3332 7.99999C45.3332 7.11666 45.3332 6.23333 45.3332 5.33333C39.1166 5.33333 32.8999 5.33333 26.6666 5.33333ZM26.6666 10.6667C26.6499 11.55 26.6499 12.4333 26.6666 13.3333C32.8832 13.3333 39.0999 13.3333 45.3332 13.3333C45.3332 12.45 45.3332 11.5667 45.3332 10.6667C39.1166 10.6667 32.8999 10.6667 26.6666 10.6667Z" fill="#FFF7D6"/>
<path d="M2.68317 25.3167C2.6665 24.5333 3.39984 23.9167 4.1665 24C18.9498 24 33.7332 24 48.5165 24C49.6832 24.0333 50.8665 24 52.0332 24.0833C47.8665 24.15 43.6832 24.5833 39.6165 25.45C36.9332 26.0667 34.1998 26.8167 31.8498 28.3167C30.6498 29.1167 29.4498 30.2833 29.3665 31.8167C29.3332 33.65 29.3665 35.4833 29.3498 37.3333C21.0165 37.35 12.6832 37.3333 4.33317 37.3333C3.88317 37.35 3.38317 37.2833 3.0665 36.9333C2.7165 36.6167 2.6665 36.1167 2.6665 35.6667C2.68317 32.2333 2.64984 28.7667 2.68317 25.3167ZM6.23317 26.75C5.64984 26.9333 5.29984 27.55 5.33317 28.15C5.33317 29.8833 5.3165 31.6167 5.34984 33.3333C5.33317 34.0333 5.9665 34.6667 6.6665 34.65C8.44984 34.6667 10.2332 34.6667 12.0165 34.65C12.7165 34.6667 13.3498 34.0333 13.3332 33.3333C13.3665 31.7167 13.3332 30.1 13.3498 28.4833C13.3498 27.9833 13.3498 27.4167 12.9498 27.05C12.3998 26.4833 11.5498 26.7 10.8332 26.65C9.29984 26.7167 7.74984 26.5667 6.23317 26.75ZM16.8998 26.75C16.3832 26.9167 15.9998 27.45 16.0165 28C15.9998 29.5667 16.0165 31.1167 15.9998 32.6833C15.9998 33.2 15.9498 33.7833 16.3165 34.2C16.6332 34.6 17.1665 34.7 17.6665 34.6833C19.3332 34.6667 21.0165 34.7 22.6832 34.6667C23.3832 34.6833 24.0165 34.05 23.9998 33.35C24.0165 31.7333 23.9998 30.1167 24.0165 28.5C24.0165 28 24.0165 27.4333 23.6165 27.0667C23.0665 26.5 22.2165 26.7167 21.4998 26.6667C19.9665 26.7167 18.4165 26.5667 16.8998 26.75Z" fill="#FFF7D6"/>
<path d="M2.68327 46.65C2.66661 45.8667 3.39994 45.25 4.16661 45.3333C12.5666 45.3333 20.9499 45.3333 29.3499 45.3333C29.3499 49.7667 29.3499 54.2167 29.3499 58.6667C20.9666 58.6667 12.5666 58.6667 4.16661 58.6667C3.73327 58.6833 3.26661 58.5333 2.99994 58.1833C2.66661 57.8167 2.68327 57.3 2.68327 56.8333C2.68327 53.45 2.64994 50.05 2.68327 46.65ZM6.23327 48.0833C5.71661 48.25 5.33327 48.7833 5.34994 49.3333C5.3166 50.9 5.34994 52.45 5.33327 54.0167C5.33327 54.5333 5.28327 55.1167 5.64994 55.5333C5.9666 55.9333 6.49994 56.0333 6.98327 56.0167C8.6666 56 10.3333 56.0333 11.9999 56C12.6999 56.0167 13.3333 55.3833 13.3166 54.6833C13.3499 53.0667 13.3166 51.45 13.3333 49.8333C13.3333 49.3333 13.3333 48.7667 12.9333 48.4C12.3833 47.8333 11.5333 48.05 10.8166 48C9.29994 48.05 7.74994 47.9 6.23327 48.0833ZM16.8999 48.0833C16.3833 48.25 15.9999 48.7833 16.0166 49.3333C15.9833 50.9 16.0166 52.45 15.9999 54.0167C15.9999 54.5333 15.9499 55.1167 16.3166 55.5333C16.6333 55.9333 17.1666 56.0333 17.6666 56.0167C19.3333 56 21.0166 56.0333 22.6833 56C23.3833 56.0167 24.0166 55.3833 23.9999 54.6833C24.0166 53.0667 23.9999 51.45 24.0166 49.8333C24.0166 49.3333 24.0166 48.7667 23.6166 48.4C23.0666 47.8333 22.2166 48.05 21.5166 48C19.9666 48.05 18.4166 47.9 16.8999 48.0833Z" fill="#FFF7D6"/>
<path d="M49.0498 2.66666C50.0831 2.68333 51.1331 2.63333 52.1665 2.68333C52.8831 2.73333 53.3998 3.45 53.3331 4.15C53.3331 7.66666 53.3498 11.1667 53.3331 14.6833C53.3498 15.3833 52.7165 16.0167 52.0165 16C51.0331 16.0333 50.0331 16 49.0498 16C49.3165 15.1333 49.3831 14.2333 49.3498 13.35C49.7831 13.35 50.2331 13.35 50.6665 13.3333C50.6831 12.45 50.6831 11.5667 50.6665 10.6833C50.2331 10.6833 49.7831 10.6667 49.3498 10.6667C49.3498 9.78333 49.3498 8.9 49.3498 8.01666C49.7831 8.01666 50.2331 8.01666 50.6665 8C50.6831 7.11666 50.6831 6.23333 50.6665 5.35C50.2331 5.35 49.7831 5.33333 49.3498 5.33333C49.3831 4.43333 49.3165 3.53333 49.0498 2.66666Z" fill="#FFF7D6"/>
<path d="M7.99951 7.99999C8.88285 7.98332 9.76618 7.98332 10.6662 7.99999C10.6828 8.88332 10.6828 9.76665 10.6662 10.6667C9.78285 10.6667 8.89951 10.6667 7.99951 10.6667C7.99951 9.78332 7.99951 8.88332 7.99951 7.99999Z" fill="#FFF7D6"/>
<path d="M7.99951 29.3333C8.88285 29.3167 9.76618 29.3167 10.6662 29.3333C10.6662 30.2167 10.6662 31.1 10.6662 32C9.78285 32.0167 8.89951 32.0167 7.99951 32C7.99951 31.1167 7.99951 30.2167 7.99951 29.3333Z" fill="#FFF7D6"/>
<path d="M9.33304 53.8833C10.3732 53.8833 11.2164 53.0401 11.2164 52C11.2164 50.9599 10.3732 50.1167 9.33304 50.1167C8.2929 50.1167 7.44971 50.9599 7.44971 52C7.44971 53.0401 8.2929 53.8833 9.33304 53.8833Z" fill="#FFF7D6"/>
<path d="M18.6665 7.99999C19.5498 7.98332 20.4332 7.98332 21.3165 7.99999C21.3332 8.88332 21.3332 9.76665 21.3165 10.65C20.4332 10.6667 19.5498 10.6667 18.6665 10.65C18.6665 9.78332 18.6665 8.88332 18.6665 7.99999Z" fill="#FFF7D6"/>
<path d="M18.6665 29.3333C19.5498 29.3167 20.4332 29.3167 21.3165 29.3333C21.3332 30.2167 21.3332 31.1 21.3165 31.9833C20.4332 32 19.5498 32 18.6665 31.9833C18.6665 31.1167 18.6665 30.2167 18.6665 29.3333Z" fill="#FFF7D6"/>
<path d="M18.6665 50.6666C19.5498 50.65 20.4332 50.65 21.3165 50.6666C21.3332 51.55 21.3332 52.4333 21.3165 53.3166C20.4332 53.3333 19.5498 53.3333 18.6665 53.3166C18.6665 52.45 18.6665 51.55 18.6665 50.6666Z" fill="#FFF7D6"/>
<path d="M8 18.6667C8.9 18.6667 9.78333 18.65 10.6667 18.6667C10.6667 19.55 10.6667 20.4333 10.6667 21.3167C9.78333 21.3333 8.88333 21.3333 8 21.3167C8 20.45 8 19.55 8 18.6667Z" fill="#FFF7D6"/>
<path d="M42.6665 18.6667C43.5498 18.6667 44.4498 18.65 45.3332 18.6667C45.3332 19.55 45.3332 20.4333 45.3332 21.3167C44.4498 21.3333 43.5498 21.3333 42.6665 21.3167C42.6665 20.45 42.6665 19.55 42.6665 18.6667Z" fill="#FFF7D6"/>
<path d="M8 40C8.9 39.9834 9.78333 39.9834 10.6667 40C10.6667 40.8834 10.6667 41.7667 10.6667 42.65C9.78333 42.6667 8.88333 42.6667 8 42.65C8 41.7834 8 40.8834 8 40Z" fill="#FFF7D6"/>
<path d="M10.6829 18.6667C11.5662 18.65 12.4496 18.65 13.3329 18.6667C13.3496 19.55 13.3496 20.4333 13.3329 21.3167C12.4496 21.3333 11.5662 21.3333 10.6829 21.3167C10.6662 20.45 10.6662 19.5667 10.6829 18.6667Z" fill="#FFF7D6"/>
<path d="M45.3494 18.6667C46.2327 18.65 47.1161 18.65 47.9994 18.6667C48.0161 19.55 48.0161 20.4333 47.9994 21.3167C47.1161 21.3333 46.2327 21.3333 45.3494 21.3167C45.3327 20.45 45.3327 19.5667 45.3494 18.6667Z" fill="#FFF7D6"/>
<path d="M10.6829 40C11.5662 39.9834 12.4496 39.9834 13.3329 40C13.3496 40.8834 13.3496 41.7667 13.3329 42.65C12.4496 42.6667 11.5662 42.6667 10.6829 42.65C10.6662 41.7834 10.6662 40.9 10.6829 40Z" fill="#FFF7D6"/>
<path d="M40.5331 27.9833C44.3497 27.1833 48.2664 26.8167 52.1664 26.7C56.7997 26.5833 61.4497 26.7667 66.0497 27.4833C67.3164 27.7167 68.6164 27.8667 69.8331 28.2833C70.7997 29.1333 72.1164 29.5667 72.8831 30.65C73.4497 31.35 73.5331 32.4167 73.0164 33.1667C72.2831 34.3667 70.8831 34.85 69.8497 35.7333C69.2664 35.9667 68.6331 36.0333 68.0164 36.1667C61.8164 37.3333 55.4664 37.5167 49.1831 37.15C45.2831 36.8833 41.3664 36.3667 37.5997 35.2667C35.8997 34.75 34.1831 34.15 32.7497 33.0833C32.3664 32.7667 31.8497 32.2833 32.0664 31.7333C32.3997 31.0333 33.1164 30.6333 33.7664 30.25C35.8664 29.1167 38.1997 28.5 40.5331 27.9833Z" fill="#4DF189"/>
<path d="M73.3164 37.5833C74.6997 37.1 76.0664 36.5167 77.3331 35.8C77.3497 38.9333 77.3331 42.0667 77.3331 45.1833C77.3664 45.9333 76.6497 46.4 76.0997 46.7667C75.2497 47.3167 74.3164 47.7167 73.3664 48.0667C73.2664 44.5667 73.3831 41.0667 73.3164 37.5833Z" fill="#4DF189"/>
<path d="M73.3164 50.9167C74.6997 50.4333 76.0664 49.85 77.3331 49.1333C77.3497 52.2667 77.3331 55.4 77.3331 58.5167C77.3664 59.0833 76.9164 59.5167 76.4997 59.8333C75.5497 60.5333 74.4664 61 73.3664 61.4C73.2664 57.9 73.3997 54.4 73.3164 50.9167Z" fill="#4DF189"/>
<path d="M73.3164 64.25C74.6998 63.7666 76.0664 63.1833 77.3331 62.45C77.3498 65.5833 77.3331 68.7166 77.3331 71.8333C77.3664 72.3666 76.9664 72.7666 76.5998 73.0833C75.8164 73.6833 74.9164 74.1166 73.9998 74.4833C72.3664 75.1166 70.6664 75.65 68.9331 75.9333C70.2664 75.1833 71.7998 74.6333 72.7831 73.4166C73.3331 72.8 73.3664 71.9333 73.3498 71.15C73.3164 68.8666 73.3664 66.55 73.3164 64.25Z" fill="#4DF189"/>
<path d="M69.8164 28.2667C70.8497 28.4 71.8164 28.75 72.7997 29.0667C74.0997 29.5167 75.3831 30.0333 76.4997 30.8333C76.8664 31.1333 77.2831 31.4833 77.3331 32C77.2664 32.55 76.8164 32.9167 76.3997 33.2333C75.1997 34.0667 73.8164 34.6 72.4164 35.0667C71.5664 35.3333 70.6997 35.6167 69.8164 35.7333C70.8497 34.85 72.2331 34.3667 72.9831 33.1667C73.4997 32.4167 73.4164 31.35 72.8497 30.65C72.0997 29.55 70.7831 29.1167 69.8164 28.2667Z" fill="#4DF189"/>
<path d="M31.9999 35.7833C34.6832 37.3667 37.7332 38.1667 40.7499 38.7833C46.9665 39.95 53.3332 40.2167 59.6499 39.8667C64.2499 39.5833 68.8832 38.9833 73.2999 37.6C73.3832 41.1 73.2499 44.5833 73.3499 48.0833C69.8499 49.35 66.1499 49.9333 62.4499 50.3333C56.6499 50.8667 50.7832 50.8167 44.9832 50.1167C41.6999 49.6833 38.4165 49.0667 35.3165 47.85C34.3332 47.4333 33.3499 46.9833 32.5332 46.2833C32.2165 46.0167 31.9332 45.6333 31.9665 45.2C31.9999 42.05 31.9999 38.9167 31.9999 35.7833ZM53.3332 44C53.3332 44.8833 53.3332 45.7667 53.3332 46.6667C54.2165 46.6667 55.0999 46.6667 55.9999 46.6667C55.9999 45.7833 55.9999 44.9 55.9999 44C55.1165 44 54.2332 44 53.3332 44Z" fill="#4DF189"/>
<path d="M31.9999 49.1167C33.9166 50.2333 36.0166 50.9667 38.1499 51.5167C43.9666 52.9667 49.9999 53.3833 55.9833 53.3167C61.8166 53.1833 67.6999 52.65 73.2833 50.9C73.3666 54.4 73.2333 57.8833 73.3333 61.3833C69.8833 62.65 66.2166 63.2167 62.5833 63.6167C58.2333 64.0333 53.8333 64.1 49.4666 63.8333C44.9999 63.5333 40.5166 62.9667 36.2666 61.5167C35.0166 61.0667 33.7666 60.5667 32.7166 59.75C32.3333 59.45 31.9333 59.0333 31.9833 58.5C31.9999 55.3833 31.9999 52.25 31.9999 49.1167ZM53.3333 58.6667C53.3333 59.55 53.3333 60.4333 53.3333 61.3333C54.2166 61.3333 55.0999 61.3333 55.9999 61.3333C55.9999 60.45 55.9999 59.5667 55.9999 58.6667C55.1166 58.6667 54.2333 58.6667 53.3333 58.6667Z" fill="#4DF189"/>
<path d="M32.0167 62.45C35.3667 64.4 39.2167 65.2166 42.9834 65.8166C47.4001 66.5 51.8834 66.7166 56.3334 66.65C62.0501 66.5 67.8167 65.95 73.3001 64.25C73.3501 66.55 73.3001 68.8666 73.3334 71.1666C73.3334 71.95 73.3167 72.8166 72.7667 73.4333C71.7834 74.65 70.2501 75.2 68.9167 75.95C67.0334 76.4333 65.0834 76.6666 63.1501 76.9C58.5001 77.3833 53.8167 77.45 49.1501 77.15C45.1501 76.8666 41.1501 76.35 37.3167 75.1833C35.7834 74.7 34.2501 74.15 32.9334 73.2166C32.4834 72.8833 31.9667 72.45 32.0001 71.8333C32.0001 68.7166 32.0001 65.5833 32.0167 62.45ZM53.3334 70.6666C53.3334 71.55 53.3334 72.4333 53.3334 73.3333C54.2167 73.3333 55.1001 73.3333 56.0001 73.3333C56.0001 72.45 56.0001 71.5666 56.0001 70.6666C55.1167 70.6666 54.2334 70.6666 53.3334 70.6666Z" fill="#4DF189"/>
</svg>
