<svg width="263" height="263" viewBox="0 0 263 263" fill="none" xmlns="http://www.w3.org/2000/svg">
<g clip-path="url(#clip0_1233_13226)">
<path d="M61.8671 263C58.2949 263 54.1014 260.774 53.3766 256.58C51.6163 244.31 54.5155 231.16 61.3494 220.495C65.1287 214.49 70.2541 209.209 76.5703 204.86L77.088 204.498L77.0362 203.877C76.622 200.615 77.3986 197.354 79.1589 194.972C80.0907 193.73 81.1779 192.694 82.3169 191.555C82.9382 190.934 83.6112 190.313 84.1807 189.64L84.5949 189.174L84.3878 188.604C83.5077 185.964 83.663 183.065 84.8537 180.58L85.2679 179.699L84.4396 179.233C83.2488 178.509 82.0581 177.836 80.8156 177.163C79.8319 176.593 78.8482 176.024 77.8128 175.454C76.7774 174.781 75.6902 174.678 74.7065 174.678C74.4476 174.678 74.1888 174.678 73.9299 174.678C73.7228 174.678 73.464 174.678 73.2569 174.678C73.1533 174.678 73.0498 174.678 72.9463 174.678C67.6656 174.678 62.4366 174.678 57.2077 174.678H36.6026C32.3055 174.678 28.0085 174.678 23.7632 174.678H22.3136C20.6569 174.678 18.9484 174.626 17.3435 174.108C13.5124 172.917 10.4061 169.707 9.26713 165.928C8.69764 164.168 8.74941 162.356 8.74941 160.389C8.74941 159.923 8.74941 159.405 8.74941 158.939C8.74941 139.266 8.74941 119.593 8.74941 99.9193C8.74941 80.2461 8.74941 60.5728 8.74941 40.8996C8.74941 40.0195 8.74941 39.1394 8.74941 38.2593C8.74941 36.6543 8.80118 34.9976 8.64587 33.3409L8.59409 32.6679L7.97283 32.4608C3.72756 30.9594 0.414173 26.6624 0 21.9512V11.0274C0.569488 5.28071 5.4878 0.465945 11.1827 0H198.803C203.359 0.414173 207.501 3.52047 209.106 7.71398C210.038 9.94016 209.986 12.2699 209.986 14.8067C209.986 15.428 209.986 15.9974 209.986 16.6187C209.986 17.24 209.986 17.913 209.986 18.5343C210.038 20.9675 210.038 23.2972 209.157 25.3681C207.967 28.578 205.223 31.2701 201.806 32.5644L201.133 32.8232V33.548C201.133 42.4528 201.133 51.461 201.133 60.314V61.8154L202.531 61.2459C216.457 55.8098 231.057 53.0659 246.019 53.0659C248.349 53.0659 250.73 53.1177 253.112 53.273C256.787 53.3766 260.308 55.7581 261.809 59.1232C262.689 61.0388 262.793 63.1614 262.896 65.4394C262.948 66.1642 262.948 66.889 263 67.6138V72.2732C262.379 92.6195 256.321 113.846 245.553 133.623C232.972 156.713 214.283 177.836 188.397 198.13L187.776 198.596C187.776 198.596 189.95 204.239 190.882 206.672C192.487 210.814 194.04 214.956 195.645 219.046V219.098V219.149C197.975 224.016 196.939 230.073 193.212 233.645C189.174 237.684 185.187 241.67 181.201 245.656C177.784 249.073 174.367 252.49 170.95 255.907C169.552 257.305 167.999 258.91 166.083 259.79C164.479 260.567 162.667 260.981 160.803 260.981C158.111 260.981 155.47 260.101 153.399 258.496C151.329 256.994 150.086 254.768 148.792 252.387C148.429 251.714 148.015 251.041 147.653 250.368C146.255 247.986 144.857 245.553 143.563 243.171C141.388 239.34 139.162 235.354 136.832 231.523L136.367 230.694L135.538 231.109C134.14 231.782 132.535 232.144 130.982 232.144C129.792 232.144 128.601 231.937 127.462 231.575L126.841 231.368L126.375 231.833C125.96 232.248 125.546 232.662 125.08 233.128C122.958 235.25 120.783 237.477 118.039 238.512C117.004 238.926 115.813 239.133 114.312 239.133C113.535 239.133 112.707 239.081 112.086 239.03L111.464 238.978L111.102 239.496C103.957 250.005 92.9301 257.926 80.8156 261.24C77.5539 262.172 74.2406 262.638 71.0825 263.052L61.8671 263ZM79.573 211.021C73.1533 215.629 67.9244 221.738 64.5075 228.675C60.5211 236.7 58.8644 246.122 59.8998 255.182L60.0033 256.011L60.8317 256.114C62.5919 256.321 64.4039 256.425 66.2159 256.425C81.5921 256.425 96.3988 248.711 104.941 236.338L105.459 235.613L104.838 234.992C100.126 230.332 95.3634 225.569 90.7557 220.91C87.4941 217.648 84.1807 214.335 80.9191 211.073L80.2978 210.452L79.573 211.021ZM181.045 203.566C169.086 212.264 156.402 220.185 143.356 227.122L142.424 227.64C142.424 227.64 145.53 233.128 146.824 235.354C149.827 240.635 152.985 246.122 156.092 251.507C156.972 253.163 158.784 254.199 160.803 254.199C162.304 254.199 163.65 253.629 164.634 252.594C169.552 247.676 174.626 242.654 179.441 237.787C182.443 234.784 185.446 231.782 188.397 228.831C190.054 227.278 190.623 224.793 189.795 222.773C188.138 218.425 186.43 213.972 184.773 209.623C184.048 207.76 183.323 205.896 182.599 204.032L182.133 202.79L181.045 203.566ZM109.963 230.591C110.947 231.73 112.448 232.351 114.001 232.351C115.192 232.351 116.331 231.989 117.211 231.264C118.298 230.384 119.23 229.4 120.162 228.417C120.421 228.158 120.68 227.899 120.939 227.64L121.663 226.915L120.939 226.19C115.865 221.169 110.843 216.095 105.821 211.073C100.489 205.741 95.1563 200.408 89.8238 195.076L89.099 194.351L88.3742 195.127C87.96 195.542 87.4941 196.007 87.0799 196.422C86.3033 197.146 85.5268 197.923 84.802 198.803C83.1453 200.926 83.4559 204.239 85.5268 206.103C93.6031 214.231 101.783 222.411 109.963 230.591ZM128.653 224.327C129.222 225 129.999 225.414 130.879 225.414C131.552 225.414 132.225 225.207 132.846 224.793C162.667 210.245 188.656 191.71 210.038 169.656C226.501 152.571 238.823 134.451 246.537 115.813L246.795 115.192L246.33 114.726C238.357 106.701 230.332 98.7285 222.359 90.7557C215.37 83.7665 208.381 76.7774 201.34 69.7364L200.874 69.2705L200.253 69.5293C187.517 74.81 175.04 82.2134 163.081 91.4805C148.74 102.611 135.124 116.486 122.544 132.639C110.325 148.429 99.7122 165.618 91.0146 183.634C90.2898 184.877 90.5486 186.481 91.6876 187.413L104.009 199.735C112.241 207.915 120.421 216.147 128.653 224.327ZM64.611 160.026C68.8045 162.459 73.1016 164.893 77.2433 167.274C80.6602 169.242 84.0772 171.157 87.4941 173.124L88.426 173.642L88.9437 172.71C95.8811 159.56 103.854 146.876 112.5 135.02L113.276 133.933L112.034 133.467C105.096 130.775 98.9356 128.394 93.1372 126.219C92.5677 126.012 91.9465 125.857 91.2734 125.857C89.7203 125.857 88.2189 126.53 87.1835 127.669C83.7148 131.138 80.2461 134.606 76.7774 138.075C72.3768 142.476 67.8209 147.031 63.3685 151.536C62.1778 152.623 61.6083 154.331 61.8671 156.092C62.126 157.748 63.1614 159.25 64.611 160.026ZM46.8016 167.895C51.461 167.895 56.1205 167.895 60.7799 167.895H64.7146L61.2976 165.928C57.8807 164.013 55.551 160.492 55.085 156.765C54.5673 153.089 55.9134 149.206 58.5537 146.566C63.7827 141.337 69.0116 136.056 74.2923 130.827L82.1098 122.958C84.4913 120.473 87.8565 118.971 91.1181 118.971C91.2734 118.971 91.4287 118.971 91.5323 118.971C93.7067 119.023 95.7258 119.8 97.9002 120.628C98.3661 120.835 98.8321 120.99 99.3498 121.197C102.197 122.285 104.993 123.372 107.84 124.459C110.843 125.598 113.794 126.737 116.797 127.876L117.522 128.135L117.988 127.514C129.792 112.5 141.44 100.23 153.658 90.0827C166.135 79.573 179.648 71.0825 193.781 64.7146L194.403 64.4557V63.7827C194.403 58.9161 194.403 53.9978 194.403 49.1313C194.403 44.1612 194.403 39.1911 194.403 34.1693V33.1339H15.5833V34.1693C15.5833 57.9843 15.5833 81.851 15.5833 105.666C15.5833 123.579 15.5833 141.44 15.5833 159.353C15.5833 159.716 15.5833 160.078 15.5833 160.44C15.5833 161.476 15.5315 162.511 15.7386 163.598V163.65C16.3081 165.98 18.586 167.74 21.0193 167.74C21.1228 167.74 21.1746 167.74 21.2781 167.74C24.6433 167.74 28.0602 167.74 31.4772 167.74L46.8016 167.895ZM246.071 59.848C233.697 59.848 221.376 61.9189 209.365 66.0606L207.811 66.5783L249.436 108.203L249.954 106.65C254.82 92.6195 256.891 77.5539 255.907 63.1614C255.855 61.5047 254.406 60.1069 252.697 60.1069C250.523 59.9516 248.297 59.848 246.071 59.848ZM197.198 26.5071C197.354 26.5071 197.509 26.5071 197.716 26.5071C200.667 26.5071 203.204 24.0738 203.256 21.2264C203.307 17.9648 203.307 14.9102 203.256 11.9593C203.204 9.11181 200.667 6.73031 197.768 6.73031C197.612 6.73031 197.457 6.73031 197.302 6.73031C136.781 6.73031 76.2079 6.73031 15.635 6.73031H15.3762C15.0656 6.73031 14.8067 6.73031 14.4961 6.73031C14.1854 6.73031 13.8748 6.73031 13.5642 6.73031C12.9947 6.73031 12.2699 6.73031 11.4933 6.83386C8.80118 7.19626 6.73031 9.6813 6.88563 12.3734V14.289C6.88563 16.5669 6.83386 18.9484 6.9374 21.2781C6.9374 24.022 9.47421 26.5071 12.3217 26.5071C12.4252 26.5071 12.5287 26.5071 12.5805 26.5071C39.0358 26.5071 65.4394 26.5071 91.8947 26.5071H197.198Z" fill="#2A5339"/>
<path d="M69.8914 68.5974H69.6326C65.9568 68.5974 62.281 66.7853 60.0031 63.8344C57.3109 60.4692 56.6897 55.5509 58.3981 51.6162C60.1066 47.5263 64.1448 44.5753 68.4936 44.2129C76.57 44.1611 85.0605 44.1611 96.0879 44.1611C101.369 44.1611 106.649 44.1611 111.93 44.1611C117.211 44.1611 122.491 44.1611 127.772 44.1611C131.759 44.1611 135.797 44.1611 139.783 44.1611C139.99 44.1611 140.094 44.1611 140.249 44.1611C143.925 44.1611 147.394 45.7661 149.672 48.5099C152.674 51.9269 153.399 57.2076 151.535 61.3493C149.672 65.6464 145.167 68.5974 140.508 68.5974H140.353C130.257 68.5974 120.213 68.5974 110.118 68.5974H69.8914Z" fill="#4DF189"/>
<path d="M182.496 167.688C174.782 167.688 166.913 164.893 160.959 159.974C154.953 155.108 150.76 148.222 149.103 140.663C147.447 133.001 148.482 124.977 152.054 117.936C156.765 108.513 166.084 101.576 176.439 99.7638C178.406 99.3496 180.477 99.1943 182.496 99.1943C193.937 99.1943 205.172 105.303 211.126 114.674C215.578 121.508 217.494 130.05 216.355 138.127C215.371 145.582 211.799 152.571 206.414 157.852C200.823 163.391 193.057 166.963 185.188 167.585C184.36 167.636 183.376 167.688 182.496 167.688Z" fill="#4DF189"/>
</g>
<defs>
<clipPath id="clip0_1233_13226">
<rect width="263" height="263" fill="white"/>
</clipPath>
</defs>
</svg>
