<svg width="48" height="48" viewBox="0 0 48 48" fill="none" xmlns="http://www.w3.org/2000/svg">
<g clip-path="url(#clip0_641_3255)">
<path d="M1.24854 1.34515C2.07112 0.48386 3.25176 -0.00968823 4.44209 -1.08057e-05C12.4453 -1.08057e-05 20.4389 -1.08057e-05 28.4421 -1.08057e-05C29.2937 0.00966661 30.184 -0.0677527 30.9969 0.241925C32.6324 0.78386 33.8614 2.3516 33.9679 4.06451C34.0066 4.91612 33.9679 5.75805 33.9873 6.60967C32.8066 6.8516 31.7614 7.65483 31.2872 8.76773C30.6002 8.50644 29.8453 8.44838 29.1195 8.59354C29.1098 8.10967 29.1485 7.63547 29.1002 7.1516C29.0324 6.65805 28.5485 6.29031 28.055 6.31934C20.6614 6.31934 13.2776 6.31934 5.88402 6.31934C5.34209 6.29031 4.82918 6.79354 4.85822 7.35483C4.84854 8.57418 4.85822 9.80322 4.85822 11.0226C4.85822 11.3129 4.85822 11.6322 5.05176 11.8742C5.25499 12.1839 5.64209 12.329 6.00983 12.3C12.7937 12.3 19.5776 12.3 26.3711 12.3C26.4195 12.7548 26.5163 13.2097 26.7292 13.6258C27.1163 14.4484 27.8614 15 28.4711 15.6484C27.8905 16.0064 27.3872 16.5 27.0776 17.1097C25.8292 17.1387 24.5808 17.1 23.3324 17.129C22.7614 17.1581 22.355 17.729 22.4131 18.2806C22.4518 18.8032 22.326 19.3645 22.5098 19.8677C22.6743 20.2161 23.0421 20.4484 23.4292 20.4484C24.6679 20.4581 25.9066 20.4484 27.1356 20.4581C27.3195 20.7581 27.5324 21.029 27.7743 21.2806C26.9227 22.2484 26.0614 23.1968 25.2582 24.2032C24.6098 24.2226 23.9614 24.1839 23.3131 24.2226C22.8389 24.2516 22.4324 24.6677 22.4034 25.1419C22.384 25.6355 22.384 26.1193 22.4034 26.6129C22.4034 26.9322 22.626 27.1935 22.8485 27.3968C22.0453 28.6258 21.2421 29.8645 20.6808 31.229C19.7518 33.4742 19.4131 35.9903 19.8485 38.3903C20.0034 39.271 20.2647 40.1226 20.6034 40.9548C15.2227 40.9548 9.83241 40.9548 4.45176 40.9548C3.23241 40.9645 2.01305 40.4419 1.19047 39.5419C0.41628 38.729 -0.00952608 37.6064 0.00982876 36.4839C0.000151341 25.8097 0.000151341 15.1355 0.000151341 4.4516C-0.00952608 3.30967 0.445313 2.16773 1.24854 1.34515ZM6.59047 17.1581C6.18402 17.2355 5.84531 17.5839 5.8066 18C5.76789 18.4839 5.78725 18.9677 5.79693 19.4516C5.77757 19.9839 6.25176 20.4774 6.78402 20.4677C8.00338 20.4774 9.23241 20.4677 10.4614 20.4774C10.8292 20.4968 11.2066 20.3516 11.4195 20.0322C11.6808 19.6645 11.584 19.2 11.6034 18.7839C11.584 18.3774 11.6711 17.9129 11.4098 17.5645C11.2066 17.2645 10.8292 17.1193 10.4711 17.1484C9.16467 17.1484 7.87757 17.1 6.59047 17.1581ZM14.7485 17.1968C14.3034 17.3516 14.0518 17.8355 14.0905 18.3C14.1389 18.8613 13.9647 19.4903 14.255 20.0032C14.4485 20.3226 14.826 20.4871 15.2034 20.4774C16.4227 20.4774 17.6518 20.4871 18.8711 20.4774C19.3647 20.4968 19.8292 20.1097 19.8872 19.6161C19.926 19.2774 19.8969 18.929 19.9066 18.5903C19.8969 18.2613 19.9356 17.9129 19.7518 17.6226C19.5679 17.3226 19.2292 17.129 18.8808 17.1387C17.7195 17.129 16.5582 17.1387 15.3969 17.129C15.1743 17.129 14.9518 17.1193 14.7485 17.1968ZM6.7066 24.2322C6.23241 24.2613 5.81628 24.6871 5.79693 25.1613C5.77757 25.6452 5.77757 26.129 5.79693 26.6129C5.81628 27.1161 6.27112 27.5419 6.77435 27.5419C7.93564 27.5516 9.09693 27.5419 10.2582 27.5516C10.5098 27.5516 10.7808 27.5613 11.0131 27.4548C11.3711 27.2903 11.5937 26.9129 11.5937 26.5258C11.6034 26.071 11.6131 25.6064 11.584 25.1516C11.5647 24.629 11.0808 24.2032 10.5582 24.2226C9.27112 24.2226 7.98402 24.2129 6.7066 24.2322ZM15.0195 24.2322C14.5356 24.2613 14.1098 24.6774 14.1002 25.1613C14.0808 25.6452 14.0808 26.129 14.1002 26.6032C14.1098 27.1161 14.5743 27.5613 15.0872 27.5516C16.3453 27.5613 17.6131 27.5613 18.8711 27.5516C19.384 27.571 19.8679 27.1355 19.8872 26.6226C19.9066 26.129 19.9066 25.6355 19.8872 25.1516C19.8679 24.6387 19.3937 24.2129 18.8808 24.2226C17.5937 24.2226 16.3066 24.2129 15.0195 24.2322ZM6.41628 31.3935C6.03886 31.5387 5.77757 31.9258 5.78725 32.3226C5.77757 32.8064 5.76789 33.2903 5.79693 33.7742C5.84531 34.2968 6.34854 34.6935 6.86144 34.6548C8.05176 34.6548 9.25177 34.6548 10.4421 34.6548C10.8002 34.6742 11.1776 34.5387 11.3808 34.229C11.6131 33.929 11.5743 33.5419 11.5743 33.1935C11.5647 32.8355 11.6034 32.4774 11.5453 32.129C11.4679 31.6548 11.0034 31.2968 10.5292 31.3161C9.39693 31.3064 8.27435 31.3161 7.14209 31.3064C6.90983 31.3161 6.65822 31.2968 6.41628 31.3935ZM14.7292 31.3839C14.3518 31.529 14.0905 31.9161 14.0905 32.3226C14.0808 32.7677 14.0808 33.2226 14.0905 33.6677C14.0905 34.1903 14.5647 34.6548 15.0872 34.6451C16.3453 34.6548 17.6034 34.6548 18.8614 34.6451C19.384 34.6645 19.8679 34.2097 19.8776 33.6774C19.8872 33.1935 19.8969 32.7193 19.8679 32.2355C19.8389 31.7226 19.3647 31.2968 18.8518 31.3161C17.7292 31.3064 16.5969 31.3161 15.4743 31.3064C15.2324 31.3161 14.9711 31.2968 14.7292 31.3839Z" fill="white"/>
<path d="M32.6325 9.67738C32.826 8.84512 33.5906 8.18706 34.4518 8.12899C35.2841 8.05157 36.1164 8.56448 36.4551 9.31932C36.5518 9.55157 36.6002 9.80319 36.7164 10.0258C36.9777 10.5 37.6454 10.6935 38.1099 10.4032C38.4777 10.1903 38.8744 10.0354 39.3002 10.0548C40.1325 10.0451 40.9357 10.6258 41.197 11.4193C41.4486 12.1354 41.2551 12.9774 40.7131 13.5096C40.1518 14.0806 39.5906 14.6419 39.0196 15.2032C36.0777 15.2032 33.1357 15.2032 30.2035 15.2032C29.6228 14.6129 29.0325 14.0419 28.4518 13.4516C27.8712 12.8419 27.7551 11.8548 28.1615 11.1193C28.6551 10.1419 29.9906 9.7548 30.9293 10.3064C31.2389 10.5 31.6164 10.6258 31.9744 10.4709C32.3131 10.3548 32.5551 10.0354 32.6325 9.67738Z" fill="white"/>
<path d="M29.9223 16.7806C32.719 16.7322 35.5158 16.7709 38.3223 16.7613C38.7868 16.7709 39.2803 16.7129 39.7255 16.8967C40.5771 17.2161 41.1287 18.1742 40.9545 19.0645C40.819 19.9838 39.9481 20.729 39.0094 20.7096C36.0674 20.7096 33.1255 20.7096 30.1932 20.7096C29.1964 20.729 28.2771 19.8774 28.2287 18.8806C28.1319 17.8645 28.9255 16.8871 29.9223 16.7806Z" fill="white"/>
<path d="M23.1199 29.8839C24.8134 27.0677 26.9425 24.5419 29.1296 22.1032C29.4779 22.1903 29.836 22.258 30.2038 22.258C32.7489 22.258 35.2941 22.258 37.8489 22.258C38.5941 22.2484 39.3489 22.3161 40.0747 22.1032C42.3586 24.6484 44.5747 27.2903 46.307 30.2516C47.265 31.9161 47.8941 33.7839 47.9908 35.7097C48.1167 37.9935 47.4586 40.3064 46.1908 42.2129C44.507 44.7677 41.836 46.6064 38.9037 47.4387C36.9005 48.029 34.7908 48.1064 32.7199 47.9129C29.1779 47.5355 25.7425 45.7839 23.5457 42.9484C21.9683 40.9355 21.0973 38.3613 21.2134 35.8064C21.3005 33.6968 22.0167 31.6645 23.1199 29.8839ZM33.8812 27.0097C33.5715 27.3677 33.6876 27.871 33.6586 28.2968C32.536 28.529 31.4521 29.1968 30.9296 30.2516C30.3876 31.3451 30.4844 32.7871 31.307 33.7258C31.8586 34.3645 32.6328 34.7516 33.436 34.9839C34.4134 35.2645 35.4779 35.2839 36.3586 35.8451C36.9005 36.1742 37.2102 36.8419 37.065 37.4613C36.9489 37.9355 36.5231 38.2451 36.0973 38.4193C35.2263 38.7774 34.2102 38.8258 33.3392 38.4774C32.7973 38.2548 32.3038 37.8387 32.1005 37.2774C31.9941 36.9968 31.9167 36.6774 31.6554 36.5032C31.2392 36.1935 30.5812 36.3581 30.3586 36.8226C30.1167 37.2968 30.3876 37.8193 30.5812 38.2548C31.1618 39.4451 32.3812 40.1806 33.6489 40.4322C33.7457 40.829 33.5812 41.3032 33.8521 41.6516C34.1618 42.1064 34.8876 42.1452 35.2457 41.729C35.5747 41.3806 35.4586 40.8774 35.4876 40.4419C36.6489 40.2581 37.8489 39.7161 38.4876 38.6806C39.107 37.6645 39.0005 36.3 38.3618 35.3226C37.7908 34.4516 36.8134 33.9484 35.8263 33.6774C35.0618 33.4548 34.2392 33.4161 33.4941 33.1064C33.107 32.9516 32.7296 32.7097 32.536 32.3322C32.2457 31.7516 32.4296 31.0064 32.9134 30.5903C33.9489 29.7193 35.7199 29.8161 36.5715 30.9097C36.8425 31.229 36.9102 31.7129 37.307 31.9064C37.7618 32.1581 38.4005 31.9161 38.565 31.4226C38.7296 30.9871 38.4683 30.5516 38.2554 30.1839C37.665 29.1774 36.6102 28.5193 35.4779 28.2871C35.4586 27.8516 35.565 27.3387 35.2457 26.9903C34.8876 26.5935 34.2102 26.6032 33.8812 27.0097Z" fill="white"/>
</g>
<defs>
<clipPath id="clip0_641_3255">
<rect width="48" height="48" fill="white"/>
</clipPath>
</defs>
</svg>
