<svg width="48" height="50" viewBox="0 0 48 50" fill="none" xmlns="http://www.w3.org/2000/svg">
<g clip-path="url(#clip0_338_955)">
<path d="M7.06293 0H8.26411C8.6645 0.0292969 8.93793 0.351562 8.99653 0.732422C8.93793 1.04492 8.74262 1.38672 8.40082 1.43555C7.70747 1.51367 6.98481 1.39648 6.31098 1.5918C5.33442 1.8457 4.47504 2.53906 4.03559 3.45703C3.75239 4.01367 3.6645 4.64844 3.6645 5.27344C3.6645 8.39844 3.6645 11.5234 3.6645 14.6484C3.6645 15.2832 3.6645 15.9375 3.88911 16.5332C4.34809 17.8418 5.64692 18.7988 7.03364 18.8477C8.45942 18.8867 9.89497 18.8477 11.3305 18.8672C11.6332 18.8672 11.9653 19.0234 12.0727 19.3262C12.2289 19.9023 12.2094 20.5176 12.3559 21.1035C12.561 21.9727 12.9809 22.8418 13.7329 23.3691C14.0844 23.6328 14.5239 23.7402 14.934 23.8574C14.3774 22.9199 14.2309 21.7969 14.3774 20.7324C14.4457 20.2539 14.4848 19.7559 14.6606 19.2969C14.7778 18.9941 15.1098 18.8379 15.4321 18.8477C16.936 18.8477 18.4497 18.8477 19.9536 18.8477C20.8032 18.877 21.6821 18.7402 22.3852 18.252C23.3911 17.5977 23.9965 16.416 23.977 15.2148C23.977 11.8262 23.9868 8.4375 23.977 5.05859C23.9868 3.98438 23.4985 2.91016 22.6489 2.23633C21.8872 1.60156 20.8715 1.39648 19.9047 1.44531C17.0727 1.44531 10.2504 1.45508 7.4184 1.44531C6.99848 1.46484 6.68598 1.11328 6.63715 0.722656C6.69575 0.341797 6.96918 0.0195313 7.36958 -0.00976562H20.5493C21.2231 0.0292969 21.8969 0.15625 22.5122 0.449219C23.7036 0.986328 24.6411 2.01172 25.1293 3.21289C25.8618 2.88086 26.6528 2.68555 27.4633 2.70508C31.7211 2.70508 35.9887 2.70508 40.2465 2.70508C41.1157 2.69531 41.9946 2.82227 42.7661 3.24219C44.436 4.05273 45.5883 5.84961 45.5688 7.71484C45.5786 11.1035 45.5688 14.4922 45.5688 17.8809C45.5786 18.7402 45.4125 19.6094 44.9829 20.3613C44.1137 22.041 42.2387 23.1348 40.354 23.0566C39.2504 23.0566 38.1469 23.0566 37.0532 23.0566C36.8676 24.5801 36.3403 26.1914 35.0805 27.1582C33.8793 28.0957 32.2485 28.2715 30.7934 27.9688C30.5493 27.9199 30.2954 27.8125 30.1586 27.5879C29.8657 27.1777 30.061 26.5137 30.559 26.3574C30.9594 26.2207 31.4379 26.1035 31.6625 25.6934C32.1118 24.8926 32.0043 23.9258 31.8774 23.0566C30.4321 23.0566 28.9965 23.0566 27.5512 23.0566C26.7993 23.0566 26.0375 22.9395 25.354 22.627C24.1332 22.0996 23.1567 21.0645 22.6684 19.834C21.9946 20.1367 21.2719 20.3418 20.5297 20.3418C18.9965 20.3516 17.4633 20.3418 15.9301 20.3418C15.8129 21.2012 15.7055 22.1582 16.1352 22.959C16.3598 23.3984 16.8676 23.5059 17.2973 23.6621C17.8051 23.8477 17.9418 24.5801 17.5707 24.9609C17.2582 25.293 16.7602 25.293 16.3403 25.3516C14.9438 25.5176 13.4301 25.1465 12.395 24.1504C11.3696 23.1543 10.9301 21.7188 10.7543 20.332C9.55317 20.332 8.36176 20.3418 7.16059 20.332C5.67622 20.3223 4.2309 19.5703 3.3227 18.4082C2.62934 17.5391 2.22895 16.4453 2.23872 15.332C2.22895 11.9531 2.23872 8.56445 2.23872 5.18555C2.23872 4.42383 2.3559 3.64258 2.6977 2.94922C3.42036 1.25 5.18793 0.0390625 7.06293 0ZM25.4321 4.72656C25.4516 8.23242 25.4321 11.7285 25.4418 15.2344C25.4516 16.1426 25.2172 17.0508 24.768 17.8418C24.5336 18.252 24.2016 18.584 23.8989 18.9453C24.2993 20.4297 25.7055 21.5625 27.2485 21.582C28.9379 21.6016 30.6372 21.582 32.3266 21.5918C32.6293 21.5723 32.9614 21.7188 33.0883 22.002C33.2739 22.4609 33.3129 22.959 33.3813 23.4473C33.5278 24.5215 33.3911 25.6543 32.8247 26.5918C33.2348 26.4746 33.6645 26.377 34.0161 26.1133C34.7778 25.5859 35.1977 24.707 35.4125 23.8281C35.5493 23.2812 35.5493 22.7148 35.6665 22.168C35.725 21.8164 36.0766 21.5723 36.4282 21.5918C37.6293 21.582 38.8305 21.5918 40.0317 21.5918C40.559 21.5918 41.1059 21.5918 41.6137 21.416C42.7172 21.084 43.6254 20.166 43.9477 19.0527C44.0844 18.6426 44.104 18.2129 44.1137 17.7832C44.1137 14.4629 44.1137 11.1328 44.1137 7.8125C44.1235 6.68945 43.5961 5.56641 42.6879 4.90234C41.9555 4.32617 40.9985 4.14062 40.0805 4.18945C36.0375 4.18945 32.0043 4.18945 27.9614 4.18945C27.0629 4.13086 26.1743 4.24805 25.4321 4.72656Z" fill="#1C2436"/>
<path d="M9.35667 4.85349C10.8508 4.18942 12.6379 4.66794 13.8196 5.73239C14.7571 4.91208 16.0266 4.41403 17.2864 4.58005C18.3313 4.69724 19.2883 5.332 19.8547 6.21091C20.5774 7.29489 20.7727 8.69138 20.4407 9.95114C20.1282 11.1816 19.386 12.2461 18.5364 13.164C17.4231 14.3066 16.0852 15.2148 14.6887 15.9765C14.2492 16.2597 13.6633 16.3672 13.1946 16.1035C11.1633 15.0293 9.19066 13.6621 7.95042 11.6797C7.19847 10.4883 6.81761 9.01364 7.16917 7.62692C7.44261 6.43552 8.23362 5.3613 9.35667 4.85349ZM9.54222 6.41598C8.77073 7.01169 8.41917 8.04684 8.51683 8.99411C8.60472 10.0097 9.13206 10.9375 9.77659 11.709C10.675 12.7636 11.8078 13.6035 12.9993 14.3164C13.2727 14.4726 13.5461 14.6289 13.8293 14.7851C15.4211 13.8867 17.0032 12.8515 18.1164 11.3769C18.7805 10.5078 19.2493 9.40427 19.1028 8.28122C18.9856 7.43161 18.5266 6.56247 17.716 6.20114C17.1301 5.91794 16.4563 6.00583 15.8606 6.17184C15.4309 6.34763 15.05 6.60153 14.7082 6.90427C14.4348 7.15817 14.0637 7.32419 13.6828 7.27536C13.1067 7.22653 12.7746 6.69919 12.3059 6.43552C11.4856 5.94724 10.343 5.82028 9.54222 6.41598Z" fill="#1C2436"/>
<path d="M28.7305 8.81833C32.1484 8.7988 35.5566 8.81833 38.9746 8.80856C39.3457 8.77927 39.7363 8.99411 39.8144 9.37497C39.9414 9.83395 39.5312 10.3027 39.0625 10.2636C35.6738 10.2734 32.2949 10.2636 28.9062 10.2636C28.5254 10.3027 28.1055 10.0683 28.0566 9.66794C27.9492 9.25778 28.3008 8.82809 28.7305 8.81833Z" fill="#1C2436"/>
<path d="M28.7313 11.7481C32.1102 11.7286 35.4793 11.7481 38.8582 11.7383C39.161 11.7286 39.5125 11.7774 39.6883 12.0508C39.9227 12.3633 39.8446 12.8418 39.5223 13.0664C39.3074 13.2227 39.0242 13.2032 38.7703 13.2129C35.45 13.2032 32.1297 13.2227 28.8094 13.2032C28.4578 13.2227 28.0965 12.9688 28.0477 12.6075C27.95 12.1875 28.3016 11.7579 28.7313 11.7481Z" fill="#1C2436"/>
<path d="M28.7311 14.6778C32.11 14.6582 35.4889 14.6778 38.8581 14.668C39.1608 14.6582 39.5124 14.7071 39.6882 14.9903C39.9225 15.3028 39.8347 15.7813 39.5124 15.9961C39.2975 16.1524 39.0046 16.1328 38.7507 16.1328C35.4597 16.1231 32.1784 16.1328 28.8874 16.1328C28.5554 16.1524 28.194 16.0059 28.0671 15.6739C27.8815 15.2344 28.2429 14.6875 28.7311 14.6778Z" fill="#1C2436"/>
<path d="M6.8369 27.041C8.0283 26.6015 9.36619 26.5527 10.5869 26.8945C12.1494 27.3339 13.5166 28.4277 14.2881 29.8535C15.0986 31.3183 15.2451 33.1249 14.708 34.7167C14.2588 36.0742 13.3017 37.2265 12.1006 37.9882C13.8486 38.662 15.3623 39.8925 16.4072 41.4453C17.4326 39.8828 18.9658 38.662 20.7041 37.9882C19.5908 37.2851 18.6924 36.2499 18.2139 35.0292C17.5498 33.3984 17.6474 31.4745 18.4873 29.9218C19.2002 28.5839 20.4209 27.5195 21.8564 27.0214C23.0283 26.6015 24.3369 26.5624 25.5381 26.9042C27.081 27.3339 28.4287 28.3984 29.2002 29.7949C30.0596 31.2988 30.206 33.1738 29.6299 34.7949C29.1709 36.123 28.2236 37.246 27.0517 37.9882C28.7998 38.662 30.3232 39.8828 31.3486 41.4453C32.3838 39.8828 33.9072 38.662 35.6553 37.9882C34.542 37.2851 33.6435 36.2597 33.1553 35.0292C32.5107 33.4179 32.5889 31.5234 33.3896 29.9902C34.0928 28.6132 35.333 27.5292 36.7978 27.0214C38.0674 26.5722 39.4834 26.5624 40.7627 26.9921C42.2275 27.4804 43.4873 28.5546 44.2099 29.9218C45.0205 31.4257 45.1377 33.2812 44.542 34.8828C44.083 36.1718 43.1455 37.2656 41.9931 37.998C42.8135 38.33 43.6045 38.7499 44.3076 39.2968C44.5224 39.4726 44.7764 39.6484 44.874 39.9218C44.9619 40.166 44.8447 40.4199 44.7373 40.6347C44.5615 40.7421 44.3662 40.8691 44.1514 40.8495C43.8974 40.8398 43.6924 40.664 43.4873 40.5175C42.3642 39.6093 40.958 39.0429 39.5127 38.916C37.7353 38.7499 35.8896 39.2578 34.4541 40.3124C33.4873 40.996 32.7158 41.9335 32.1592 42.9785C32.5986 44.1015 32.8428 45.2929 32.8135 46.5038C32.8037 47.0996 32.6084 47.666 32.3349 48.1933C32.7549 48.4179 33.2139 48.5546 33.6924 48.5449C36.8467 48.5449 40.001 48.5449 43.165 48.5449C43.7607 48.5351 44.3857 48.6035 44.9424 48.3691C45.6943 48.0663 46.2412 47.3046 46.2803 46.4941C46.3193 45.3613 46.0752 44.2285 45.5869 43.2031C45.4795 42.9492 45.3232 42.6757 45.3916 42.3925C45.4404 42.1874 45.5967 42.041 45.7334 41.8945C46.0752 41.7773 46.5146 41.8163 46.7002 42.1679C47.4033 43.457 47.7549 44.9316 47.7451 46.3964C47.7451 47.4804 47.2178 48.5351 46.3681 49.2089C45.7529 49.707 44.9717 49.9706 44.1806 50.0097H33.4482C32.6865 49.9804 31.9639 49.7167 31.3389 49.2871C30.7236 49.7167 29.9912 49.9804 29.2392 50.0097H18.5068C17.7451 49.9804 17.0224 49.7167 16.4072 49.2871C15.792 49.7167 15.0596 49.9804 14.3076 50.0097H3.57518C2.12986 49.9804 0.762677 49.0331 0.254864 47.6855C-0.145527 46.6503 0.000957844 45.5078 0.206036 44.4531C0.35252 43.8574 0.50877 43.2519 0.801739 42.705C0.97752 42.373 1.39744 42.3339 1.72947 42.412C2.03221 42.6367 2.22752 43.0273 2.06151 43.3886C1.67088 44.3749 1.42674 45.4296 1.47557 46.4941C1.51463 47.3046 2.0615 48.0566 2.81346 48.3593C3.3115 48.5742 3.86815 48.5253 4.39549 48.5351C7.35447 48.5351 10.3135 48.5351 13.2724 48.5351C14.0049 48.5546 14.7763 48.5644 15.4209 48.1738C14.8838 47.246 14.874 46.1425 15.0303 45.1074C15.1279 44.3749 15.333 43.6523 15.5967 42.9589C15.0693 42.0019 14.3955 41.123 13.5361 40.4492C12.5107 39.6484 11.2705 39.1113 9.97166 38.9453C7.82322 38.623 5.54783 39.3066 3.95604 40.7812C3.76072 40.9374 3.57518 41.1425 3.32127 41.1816C3.09666 41.2304 2.88182 41.1132 2.69627 41.0156C2.47166 40.7226 2.38377 40.2734 2.67674 39.9902C3.54588 39.1015 4.6201 38.4472 5.77244 37.9882C4.70799 37.3144 3.82908 36.3281 3.33104 35.1562C2.62791 33.5351 2.67674 31.621 3.47752 30.0488C4.16111 28.6621 5.38182 27.5585 6.8369 27.041ZM6.07518 29.1308C5.05955 29.912 4.40525 31.1425 4.31736 32.4316C4.21971 33.6328 4.62986 34.873 5.42088 35.7812C6.24119 36.7578 7.49119 37.3339 8.76072 37.4023C10.1181 37.4413 11.4853 36.8749 12.3838 35.8398C13.0576 35.0878 13.4775 34.1113 13.5361 33.1054C13.6338 31.9042 13.2236 30.664 12.4228 29.7558C11.5439 28.7109 10.1865 28.1347 8.82908 28.1445C7.84276 28.1738 6.85643 28.5058 6.07518 29.1308ZM23.624 28.1445C21.5732 28.2226 19.7178 29.8242 19.3369 31.8359C19.0635 33.1738 19.415 34.6191 20.2842 35.6738C21.0654 36.6601 22.2764 37.2851 23.5361 37.373C24.9717 37.4902 26.4463 36.8749 27.3838 35.7714C28.2236 34.8144 28.6338 33.496 28.4678 32.2265C28.3408 31.0156 27.6865 29.8632 26.7295 29.1113C25.8506 28.4374 24.7275 28.0859 23.624 28.1445ZM38.6533 28.1347C37.6865 28.1835 36.7197 28.5156 35.9678 29.1308C34.9521 29.912 34.2978 31.1425 34.2099 32.4316C34.1123 33.6328 34.5224 34.873 35.3135 35.7812C36.1338 36.7578 37.374 37.3339 38.6435 37.4023C40.0303 37.4413 41.4267 36.8554 42.3154 35.7812C43.1748 34.7949 43.5752 33.4374 43.3896 32.1386C43.2334 30.957 42.5986 29.8535 41.6611 29.1308C40.8213 28.4472 39.7275 28.1152 38.6533 28.1347ZM18.2236 41.4648C17.0322 42.8417 16.3584 44.6679 16.417 46.4843C16.456 47.5878 17.4521 48.5253 18.5459 48.5253C21.7685 48.5449 24.9912 48.5253 28.2139 48.5351C28.6435 48.5351 29.0732 48.5546 29.4931 48.5058C30.2353 48.3984 30.8896 47.871 31.1728 47.1874C31.3877 46.6894 31.3486 46.1328 31.2998 45.6054C31.1338 43.8085 30.2744 42.0995 28.9463 40.8788C27.7549 39.7656 26.1826 39.0429 24.542 38.9257C22.1885 38.6523 19.7568 39.6679 18.2236 41.4648Z" fill="#1C2436"/>
<path d="M7.25644 30.625C7.76425 30.3906 8.36972 30.8984 8.24277 31.4355C8.17441 31.9531 7.48105 32.207 7.09042 31.875C6.65097 31.5625 6.75839 30.8008 7.25644 30.625Z" fill="#1C2436"/>
<path d="M9.91329 30.7032C10.2258 30.459 10.6555 30.586 10.9289 30.8301C10.9875 31.0157 11.0363 31.2012 11.0656 31.3965C10.968 31.8262 10.5188 32.1485 10.0891 31.9825C9.5422 31.8164 9.43478 31.0059 9.91329 30.7032Z" fill="#1C2436"/>
<path d="M22.1978 30.625C22.7057 30.3906 23.3209 30.8984 23.1842 31.4355C23.1158 31.9531 22.4225 32.1972 22.0318 31.8652C21.5924 31.5625 21.6998 30.8105 22.1978 30.625Z" fill="#1C2436"/>
<path d="M24.8449 30.7129C25.1574 30.4687 25.5773 30.5859 25.8605 30.8105C25.9191 31.0058 25.9777 31.2109 26.0168 31.416C25.9093 31.8359 25.4699 32.1484 25.0402 31.9824C24.4933 31.8261 24.3761 31.0156 24.8449 30.7129Z" fill="#1C2436"/>
<path d="M37.1404 30.625C37.6482 30.3906 38.2634 30.8984 38.1267 31.4355C38.0584 31.9433 37.3748 32.1972 36.9744 31.8652C36.5349 31.5722 36.6326 30.8105 37.1404 30.625Z" fill="#1C2436"/>
<path d="M39.7861 30.7128C40.0986 30.4687 40.5283 30.5957 40.8115 30.83C40.8701 31.0156 40.9092 31.2109 40.9482 31.4062C40.8506 31.8554 40.3525 32.1679 39.9131 31.9628C39.415 31.7578 39.3369 31.0058 39.7861 30.7128Z" fill="#1C2436"/>
<path d="M9.49365 34.209C10.1382 34.1504 10.7144 33.8477 11.3198 33.6426C11.5249 33.6816 11.7593 33.7305 11.896 33.8965C12.1792 34.1895 12.1401 34.7266 11.7983 34.9512C11.4272 35.2051 10.978 35.3418 10.5483 35.4688C9.10303 35.9375 7.50146 35.7129 6.16357 35.0293C5.71435 34.8242 5.62646 34.1602 5.99756 33.8477C6.25146 33.6035 6.64209 33.6426 6.93506 33.7891C7.7456 34.1406 8.62451 34.3359 9.49365 34.209Z" fill="#1C2436"/>
<path d="M25.0005 34.0918C25.4302 33.9844 25.8305 33.7695 26.2602 33.6426C26.8071 33.6426 27.2368 34.2676 26.9341 34.7559C26.5923 35.1953 25.9966 35.3027 25.4985 35.4785C24.3657 35.8398 23.1352 35.791 22.0219 35.4102C21.6313 35.2734 21.2016 35.1562 20.8891 34.8633C20.5669 34.5312 20.7036 33.916 21.1235 33.7402C21.4751 33.5645 21.8364 33.7793 22.1587 33.9063C23.0571 34.2773 24.0727 34.3555 25.0005 34.0918Z" fill="#1C2436"/>
<path d="M39.953 34.0918C40.3827 33.9844 40.7733 33.7695 41.203 33.6426C41.4373 33.6816 41.6912 33.7402 41.828 33.9551C42.0623 34.2578 42.0037 34.7363 41.6912 34.9609C41.3202 35.2148 40.8807 35.3418 40.451 35.4785C39.0252 35.9375 37.453 35.7227 36.1248 35.0781C35.8905 34.9609 35.6854 34.7559 35.6659 34.4824C35.5975 34.0527 35.9979 33.623 36.4373 33.6719C36.701 33.7207 36.9452 33.8379 37.1893 33.9355C38.0584 34.2773 39.0448 34.3457 39.953 34.0918Z" fill="#1C2436"/>
<path d="M9 1.45508C9.53711 1.45508 9.96289 1.5 10.5 1.5C10.5 1.5 10.9952 1.48438 11.4054 1.45508C14.2374 1.46484 17.0694 1.45508 19.8917 1.45508C21.0147 2.25586 21.7569 3.57422 21.7569 4.9707C21.7862 8.26172 21.7569 11.5527 21.7667 14.8438C21.7765 15.6543 21.6886 16.4941 21.3077 17.2266C21.005 17.8906 20.4679 18.3984 19.9308 18.877C18.4269 18.877 16.9132 18.877 15.4093 18.877C15.0968 18.8672 14.755 19.0137 14.6378 19.3262C14.462 19.7852 14.423 20.2734 14.3546 20.7617C14.2081 21.8262 14.3546 22.9492 14.9112 23.8867C14.4913 23.7695 14.0616 23.6621 13.7101 23.3984C12.9581 22.8711 12.548 22.002 12.3331 21.1328C12.1866 20.5469 12.2062 19.9414 12.0499 19.3555C11.9425 19.0527 11.6202 18.8867 11.3077 18.8965C9.87217 18.877 8.44639 18.916 7.01084 18.877C5.62412 18.8281 4.3253 17.8613 3.86631 16.5625C3.63194 15.957 3.63194 15.3125 3.6417 14.6777C3.6417 11.5527 3.6417 8.42773 3.6417 5.30273C3.6417 4.67773 3.72959 4.04297 4.0128 3.48633C4.45225 2.56836 5.31162 1.875 6.28819 1.62109C6.97178 1.42578 7.68467 1.54297 8.37803 1.46484L9 1.45508ZM9.35459 4.85352C8.23155 5.36133 7.44053 6.43555 7.16709 7.61719C6.81553 9.00391 7.19639 10.4785 7.94834 11.6699C9.18858 13.6426 11.1612 15.0195 13.1925 16.0938C13.671 16.3574 14.2472 16.25 14.6866 15.9668C16.0831 15.2051 17.421 14.3066 18.5343 13.1543C19.3839 12.2363 20.1261 11.1719 20.4386 9.94141C20.7706 8.69141 20.5851 7.28516 19.8526 6.20117C19.2765 5.33203 18.3292 4.6875 17.2843 4.57031C16.0343 4.39453 14.755 4.90234 13.8175 5.72266C12.6358 4.67773 10.839 4.18945 9.35459 4.85352Z" fill="#4DF189"/>
<path d="M25.4297 4.72653C26.1719 4.24801 27.0703 4.13082 27.9297 4.17965C31.9727 4.17965 36.0059 4.17965 40.0488 4.17965C40.6543 4.69723 41.2207 5.28317 41.5234 6.03512C41.9141 6.90426 41.8945 7.87106 41.8848 8.79879C41.8848 11.6308 41.8848 14.4629 41.8848 17.2949C41.8945 18.1347 41.8652 18.9941 41.5039 19.7656C41.1914 20.5078 40.6348 21.1132 40 21.5918C38.7988 21.5918 37.5977 21.582 36.3965 21.5918C36.0449 21.5722 35.6934 21.8164 35.6348 22.1679C35.5176 22.7148 35.5273 23.2812 35.3809 23.8281C35.1758 24.707 34.7461 25.5859 33.9844 26.1132C33.6328 26.3672 33.2031 26.4746 32.793 26.5918C33.3594 25.6543 33.4961 24.5215 33.3496 23.4472C33.2813 22.959 33.2422 22.4609 33.0566 22.0019C32.9297 21.709 32.5977 21.5722 32.2949 21.5918C30.5957 21.582 28.9063 21.6015 27.2168 21.582C25.6738 21.5625 24.2676 20.4297 23.8672 18.9453C24.1699 18.5839 24.502 18.2519 24.7363 17.8418C25.1953 17.0605 25.4297 16.1425 25.4102 15.2343C25.4297 11.7285 25.4395 8.22262 25.4297 4.72653ZM28.7305 8.81832C28.3008 8.82809 27.9492 9.25778 28.0469 9.6777C28.1055 10.0781 28.5156 10.3125 28.8965 10.2734C32.2852 10.2734 35.6641 10.2832 39.0527 10.2734C39.5215 10.3125 39.9316 9.84371 39.8047 9.38473C39.7266 9.00387 39.3359 8.78903 38.9648 8.81832C35.5566 8.81832 32.1387 8.79879 28.7305 8.81832ZM28.7305 11.748C28.3008 11.7578 27.9492 12.1875 28.0469 12.6074C28.0957 12.9687 28.457 13.2226 28.8086 13.2031C32.1289 13.2129 35.4492 13.2031 38.7695 13.2129C39.0234 13.2031 39.3066 13.2324 39.5215 13.0664C39.8438 12.8515 39.9219 12.3632 39.6875 12.0507C39.5117 11.7773 39.1504 11.7285 38.8574 11.7382C35.4785 11.748 32.1094 11.7285 28.7305 11.748ZM28.7305 14.6777C28.2422 14.6777 27.8809 15.2246 28.0762 15.6738C28.2031 16.0058 28.5645 16.1523 28.8965 16.1328C32.1875 16.1328 35.4688 16.1328 38.7598 16.1328C39.0137 16.123 39.2969 16.1523 39.5215 15.9961C39.8438 15.7812 39.9316 15.2929 39.6973 14.9902C39.5215 14.7168 39.1699 14.6582 38.8672 14.6679C35.4883 14.6777 32.1094 14.6582 28.7305 14.6777Z" fill="#4DF189"/>
<path d="M19.8926 1.46485C20.8594 1.42579 21.875 1.6211 22.6367 2.25587C23.4863 2.9297 23.9746 4.00392 23.9648 5.07813C23.9746 8.46681 23.9746 11.8457 23.9648 15.2344C23.9844 16.4258 23.3789 17.6172 22.373 18.2715C21.6699 18.7598 20.7813 18.8965 19.9414 18.8672C20.4785 18.3887 21.0059 17.8809 21.3184 17.2168C21.6992 16.4844 21.7871 15.6445 21.7773 14.834C21.7676 11.543 21.7871 8.25196 21.7676 4.96095C21.7578 3.58399 21.0156 2.26563 19.8926 1.46485Z" fill="#3DE67B"/>
<path d="M40.0488 4.17968C40.9668 4.14062 41.9238 4.32616 42.6562 4.89257C43.5742 5.55663 44.1016 6.67968 44.082 7.80273C44.0918 11.123 44.082 14.4531 44.082 17.7734C44.0723 18.2031 44.0527 18.6328 43.916 19.043C43.5938 20.1562 42.6855 21.0644 41.582 21.4062C41.0742 21.582 40.5273 21.582 40 21.582C40.6348 21.0937 41.1914 20.498 41.5039 19.7559C41.8555 18.9844 41.8945 18.1152 41.8848 17.2851C41.8848 14.4531 41.8848 11.6211 41.8848 8.78905C41.8945 7.86132 41.9141 6.88476 41.5234 6.02538C41.2207 5.27343 40.6543 4.68749 40.0488 4.17968Z" fill="#38E176"/>
<path d="M9.54236 6.41602C10.3431 5.82032 11.4857 5.93751 12.306 6.43555C12.7748 6.69922 13.1166 7.2168 13.683 7.2754C14.0638 7.33399 14.4252 7.15821 14.7084 6.9043C15.0502 6.60157 15.431 6.34766 15.8607 6.17188C16.0365 6.29883 16.222 6.42579 16.3392 6.6211C17.0033 7.65626 17.0912 8.99415 16.6908 10.1465C16.3685 11.0938 15.7631 11.9238 15.0697 12.6367C14.4447 13.2715 13.7806 13.8867 13.0092 14.3164C11.8275 13.6035 10.6849 12.7734 9.7865 11.709C9.14197 10.9375 8.61462 10.0195 8.52673 8.99415C8.41931 8.04688 8.77087 7.01172 9.54236 6.41602Z" fill="#FFC0CF"/>
<path d="M19.3371 31.8457C19.7179 29.834 21.5734 28.2227 23.6242 28.1543C24.132 28.3887 24.5519 28.7695 24.923 29.1797C25.3429 29.6484 25.7336 30.1855 25.8605 30.8105C25.5773 30.5957 25.1574 30.4785 24.8449 30.7129C24.3761 31.0156 24.4933 31.8262 25.0304 31.9824C25.4601 32.1484 25.8996 31.8262 26.007 31.416C26.0461 31.416 26.1144 31.416 26.1437 31.416C26.3097 32.1484 26.3097 32.9004 26.2609 33.6426C25.8312 33.7695 25.4406 33.9844 25.0011 34.0918C24.0636 34.3555 23.048 34.2773 22.1593 33.8965C21.8371 33.7695 21.466 33.5547 21.1242 33.7305C20.7043 33.9062 20.5773 34.5215 20.8898 34.8535C21.2023 35.1465 21.6222 35.2637 22.0226 35.4004C23.1359 35.7813 24.3664 35.8301 25.4992 35.4688C25.3527 35.791 25.1769 36.1035 24.923 36.3574C24.5226 36.7676 24.1027 37.207 23.5265 37.373C22.2765 37.2852 21.0656 36.6504 20.2746 35.6738C19.4152 34.6289 19.0636 33.1738 19.3371 31.8457ZM22.1984 30.625C21.7004 30.8105 21.5929 31.5625 22.0324 31.8652C22.423 32.1973 23.1164 31.9434 23.1847 31.4355C23.3215 30.8984 22.7062 30.3906 22.1984 30.625Z" fill="#E7D6FF"/>
<path d="M18.2242 41.4649C19.7574 39.668 22.1891 38.6524 24.5524 38.9161C24.8551 39.1016 25.1481 39.3067 25.441 39.4922C27.7848 40.9962 29.2692 43.7891 29.1227 46.5821C29.0934 47.3243 28.6832 47.9786 28.2145 48.5352C24.9918 48.5352 21.7692 48.545 18.5465 48.5255C17.443 48.5255 16.4567 47.588 16.4176 46.4844C16.359 44.6583 17.0328 42.8321 18.2242 41.4649Z" fill="#E7D6FF"/>
<path d="M15.8594 6.17188C16.4648 6.01563 17.1387 5.92774 17.7148 6.20118C18.5254 6.56251 18.9844 7.43165 19.1016 8.28126C19.248 9.39454 18.7793 10.4981 18.1152 11.377C17.002 12.8516 15.4199 13.8867 13.8281 14.7852C13.5547 14.6387 13.2813 14.4727 12.998 14.3164C13.7793 13.877 14.4434 13.2715 15.0586 12.6367C15.752 11.9238 16.3574 11.0938 16.6797 10.1465C17.0801 8.99415 16.9922 7.65626 16.3281 6.6211C16.2207 6.42579 16.0352 6.29883 15.8594 6.17188Z" fill="#FFA9BD"/>
<path d="M23.623 28.1445C24.7266 28.0859 25.8496 28.4375 26.7188 29.1211C27.6855 29.873 28.3301 31.0156 28.457 32.2363C28.6133 33.4961 28.2031 34.8242 27.373 35.7812C26.4453 36.8847 24.9707 37.4902 23.5254 37.3828C24.0918 37.2168 24.5215 36.7773 24.9219 36.3671C25.166 36.1132 25.3418 35.8007 25.498 35.4785C25.9961 35.3027 26.5918 35.1953 26.9336 34.7558C27.2363 34.2675 26.8066 33.6425 26.2598 33.6425C26.3184 32.9003 26.3086 32.1484 26.1426 31.416C26.1035 31.416 26.0352 31.416 26.0059 31.416C25.9668 31.2109 25.918 31.0058 25.8496 30.8105C25.7227 30.1855 25.332 29.6484 24.9121 29.1796C24.5508 28.7597 24.1309 28.3886 23.623 28.1445Z" fill="#DCC4FF"/>
<path d="M24.5508 38.916C26.1816 39.0332 27.7539 39.7559 28.9551 40.8691C30.2734 42.0898 31.1328 43.7988 31.3086 45.5957C31.3574 46.123 31.3965 46.6797 31.1816 47.1777C30.9082 47.8711 30.2441 48.3984 29.502 48.4961C29.0723 48.5547 28.6426 48.5254 28.2227 48.5254C28.6914 47.9687 29.1016 47.3242 29.1309 46.5723C29.2773 43.7793 27.8027 40.9863 25.4492 39.4824C25.1367 39.3066 24.8535 39.1016 24.5508 38.916Z" fill="#DCC4FF"/>
<path d="M6.07475 29.1309C6.856 28.5059 7.84233 28.1738 8.82865 28.1348C9.69779 28.8672 10.6451 29.668 10.9185 30.8301C10.6451 30.5859 10.2154 30.4687 9.90287 30.7031C9.43412 31.0059 9.54154 31.8164 10.0787 31.9727C10.5083 32.1387 10.9673 31.8164 11.0552 31.3867C11.0943 31.3867 11.1626 31.3965 11.2017 31.3965C11.3579 32.1289 11.3482 32.8809 11.3091 33.6328C10.7037 33.8281 10.1275 34.1406 9.48295 34.1992C8.61381 34.3262 7.7349 34.1406 6.94389 33.7793C6.65092 33.6328 6.26029 33.5937 6.00639 33.8379C5.63529 34.1602 5.72318 34.8242 6.1724 35.0195C7.51029 35.7031 9.11186 35.9277 10.5572 35.459C10.2056 36.2891 9.47318 36.8652 8.76029 37.3828C7.49076 37.3242 6.24076 36.7383 5.42045 35.7617C4.62943 34.8535 4.21928 33.6133 4.31693 32.4121C4.40482 31.1426 5.05912 29.9121 6.07475 29.1309ZM7.25639 30.625C6.75834 30.8105 6.65092 31.5625 7.09037 31.875C7.481 32.207 8.17436 31.9531 8.24272 31.4355C8.37943 30.8984 7.7642 30.3906 7.25639 30.625Z" fill="#FFF7D6"/>
<path d="M3.94564 40.7813C5.54721 39.3164 7.8226 38.6329 9.96127 38.9454C9.88314 38.9551 9.71713 38.9649 9.639 38.9747C10.9378 39.6582 12.0902 40.6446 12.8714 41.8848C13.7894 43.2911 14.2777 44.9903 14.1507 46.67C14.1117 47.3829 13.682 47.9883 13.2523 48.5254C10.2933 48.5254 7.33432 48.5254 4.37533 48.5254C3.84799 48.5157 3.29135 48.5645 2.7933 48.3497C2.04135 48.0469 1.49447 47.295 1.45541 46.4844C1.40658 45.42 1.65072 44.3653 2.04135 43.3789C2.20736 43.0079 2.01205 42.6172 1.70932 42.4024C1.99252 41.9141 2.31478 41.4454 2.66635 41.0059C2.86166 41.1036 3.06674 41.2207 3.29135 41.1719C3.57455 41.1426 3.7601 40.9375 3.94564 40.7813Z" fill="#FFF7D6"/>
<path d="M8.83789 28.1348C10.1953 28.125 11.5527 28.7012 12.4316 29.7461C13.2324 30.6543 13.6426 31.8945 13.5449 33.0957C13.4766 34.1016 13.0664 35.0781 12.3926 35.8301C11.4941 36.8555 10.127 37.4219 8.76953 37.3926C9.48242 36.875 10.2148 36.2988 10.5664 35.4688C10.9961 35.332 11.4355 35.2051 11.8164 34.9512C12.1582 34.7168 12.1875 34.1895 11.9141 33.8965C11.7676 33.7305 11.543 33.6816 11.3379 33.6426C11.377 32.9004 11.3867 32.1484 11.2305 31.4062C11.1914 31.4062 11.123 31.3965 11.084 31.3965C11.0547 31.2012 11.0059 31.0156 10.9473 30.8301C10.6543 29.668 9.70703 28.8672 8.83789 28.1348Z" fill="#FDEDAC"/>
<path d="M9.64844 38.9746C9.72656 38.9648 9.89258 38.9551 9.9707 38.9453C11.2695 39.1113 12.5098 39.6484 13.5352 40.4492C14.3945 41.123 15.0781 42.002 15.5957 42.959C15.332 43.6523 15.127 44.3652 15.0293 45.1074C14.873 46.1426 14.8926 47.2461 15.4199 48.1738C14.7754 48.5645 14.0039 48.5547 13.2715 48.5352C13.7012 47.998 14.1211 47.3926 14.1699 46.6797C14.2969 45 13.7988 43.3008 12.8906 41.8945C12.0996 40.6445 10.9473 39.668 9.64844 38.9746Z" fill="#FDEDAC"/>
<path d="M38.6523 28.1347C39.7266 28.1152 40.8203 28.4472 41.6602 29.1211C42.5977 29.8437 43.2422 30.957 43.3887 32.1289C43.5742 33.4179 43.1738 34.7851 42.3145 35.7714C41.416 36.8359 40.0195 37.4316 38.6426 37.3925C39.3555 36.875 40.0977 36.3086 40.4492 35.4687C40.8789 35.332 41.3184 35.205 41.6895 34.9511C42.002 34.7363 42.0605 34.248 41.8262 33.9453C41.6895 33.7402 41.4258 33.6718 41.2012 33.6328C41.2695 32.8906 41.2598 32.1289 41.0937 31.3964C41.0547 31.3964 40.9863 31.3964 40.957 31.3964C40.918 31.2011 40.8789 31.0156 40.8203 30.8203C40.5273 29.6679 39.5898 28.8086 38.6523 28.1347Z" fill="#B8FCBB"/>
<path d="M39.502 38.9062C40.9473 39.0332 42.3438 39.5996 43.4766 40.5078C43.6719 40.6543 43.877 40.8301 44.1406 40.8398C44.3555 40.8594 44.5508 40.7324 44.7266 40.625C45.0977 41.0156 45.4395 41.4453 45.7324 41.8945C45.5957 42.041 45.4297 42.1875 45.3906 42.3926C45.3223 42.6758 45.4785 42.9492 45.5859 43.2031C46.0742 44.2188 46.3086 45.3613 46.2793 46.4941C46.2402 47.3145 45.6934 48.0664 44.9414 48.3691C44.375 48.6035 43.7598 48.5352 43.1641 48.5449C43.4961 48.1348 43.8184 47.7051 43.9746 47.1875C44.1602 46.5234 44.0918 45.8301 44.0137 45.1562C43.7402 43.125 42.627 41.2305 41.0352 39.9512C40.5371 39.5508 39.9902 39.2676 39.502 38.9062Z" fill="#B8FCBB"/>
<path d="M35.9576 29.1309C36.7193 28.5156 37.6763 28.1934 38.6431 28.1348C39.5806 28.8086 40.5181 29.668 40.8013 30.8301C40.5181 30.5859 40.0884 30.4687 39.7759 30.7129C39.3267 31.0059 39.4048 31.7676 39.9029 31.9629C40.3326 32.1777 40.8404 31.8555 40.938 31.4062C40.9771 31.4062 41.0455 31.4062 41.0747 31.4062C41.2408 32.1387 41.2505 32.9004 41.1822 33.6426C40.7622 33.7695 40.3619 33.9844 39.9322 34.0918C39.024 34.3457 38.0376 34.2773 37.1685 33.9258C36.9244 33.8281 36.6802 33.7109 36.4165 33.6621C35.9771 33.6133 35.5767 34.043 35.6451 34.4727C35.6646 34.7461 35.8697 34.9512 36.104 35.0684C37.4322 35.7129 39.0044 35.9277 40.4302 35.4688C40.0787 36.2988 39.3365 36.875 38.6236 37.3926C37.354 37.334 36.1138 36.748 35.2935 35.7715C34.5025 34.8633 34.0923 33.6328 34.19 32.4219C34.2876 31.1426 34.9419 29.9121 35.9576 29.1309ZM37.1392 30.625C36.6314 30.8105 36.5337 31.5723 36.9732 31.875C37.3638 32.207 38.0474 31.9531 38.1255 31.4453C38.2622 30.8984 37.647 30.3906 37.1392 30.625Z" fill="#D6FFD8"/>
<path d="M34.4336 40.3027C35.8789 39.248 37.7148 38.75 39.4922 38.9062C39.9805 39.2675 40.5371 39.5507 41.0059 39.9414C42.5977 41.2207 43.7109 43.1152 43.9844 45.1464C44.0723 45.8203 44.1309 46.5136 43.9453 47.1777C43.7988 47.6953 43.4668 48.125 43.1348 48.5351C39.9805 48.5351 36.8262 48.5351 33.6621 48.5351C33.1836 48.5449 32.7246 48.4082 32.3047 48.1835C32.5684 47.6562 32.7734 47.0898 32.7832 46.4941C32.8125 45.2929 32.5684 44.0918 32.1289 42.9687C32.7051 41.9238 33.4668 40.9863 34.4336 40.3027Z" fill="#D6FFD8"/>
</g>
<defs>
<clipPath id="clip0_338_955">
<rect width="47.7344" height="50" fill="white"/>
</clipPath>
</defs>
</svg>
