<svg width="114" height="112" viewBox="0 0 114 112" fill="none" xmlns="http://www.w3.org/2000/svg">
<mask id="mask0_541_2812" style="mask-type:alpha" maskUnits="userSpaceOnUse" x="0" y="0" width="114" height="112">
<rect width="114" height="112" rx="4" fill="#4DF189"/>
</mask>
<g mask="url(#mask0_541_2812)">
<path d="M75.1426 89.6858C75.3711 89.5715 75.5426 89.4001 75.714 89.2858C75.5426 89.4001 75.314 89.5143 75.1426 89.6858Z" fill="#2A5339"/>
<path d="M92.1138 77C92.0567 77.0571 91.9995 77.1143 91.9424 77.2286C91.9995 77.1143 92.0567 77.0571 92.1138 77Z" fill="#2A5339"/>
<path d="M91.6572 77.5714C91.7715 77.4571 91.8287 77.3428 91.9429 77.2285C91.8287 77.3428 91.7144 77.4571 91.6572 77.5714Z" fill="#2A5339"/>
<path d="M95.8282 72.7714C95.714 72.9428 95.4854 73.1142 95.3711 73.3428C95.5425 73.1714 95.6568 72.9428 95.8282 72.7714Z" fill="#2A5339"/>
<path d="M106.628 31.5143C106.628 31.4571 106.628 31.4571 106.685 31.4C107.485 29.5714 106.914 27.5714 107.028 25.6857C107.085 24.8857 107.085 24.1428 106.457 23.5143H106.685L106.914 23.4571C106.914 22.4857 106.914 21.5143 106.914 20.4857C106.685 20.3714 106.571 20.2 106.457 19.9714C106.4 19.8571 106.342 19.8 106.342 19.6857C106.742 19 106.4 18.3143 106.514 17.6286C106.514 17.1143 106.457 16.6 106.457 16.0857C106 15.6286 105.885 15.0571 106 14.4286C106 14.0857 105.942 13.8 105.942 13.4571C105.371 12.8286 105.428 12.0286 105.428 11.2857C105.028 10.8286 104.914 10.2571 104.971 9.6857C104.914 9.39999 104.914 9.11427 104.857 8.77142C104.514 8.65713 104.285 8.4857 104.4 8.0857C104.171 7.79999 104.285 7.45713 104.4 7.11427C103.714 6.54285 102.514 6.19999 103.371 4.8857L103.257 4.77142L103.314 4.59999C102.685 3.97142 101.942 3.39999 102.171 2.37142C101.085 2.37142 100.685 1.79999 101.085 0.714273C100.857 0.599987 100.742 0.371418 100.8 0.0857029L100.628 -0.0285835V-0.200012C100.285 -0.314297 100.114 -0.485725 100.057 -0.885727C99.771 -1.00001 99.6567 -1.22858 99.6567 -1.5143C99.2567 -1.68573 99.0281 -2.02858 98.971 -2.42858C98.6853 -2.54287 98.6281 -2.77144 98.571 -3.05716C98.2853 -3.1143 98.0567 -3.22858 97.9995 -3.5143C97.7138 -3.57144 97.5424 -3.80001 97.4853 -4.08573C97.1996 -4.14287 96.971 -4.3143 96.971 -4.60001C96.6853 -4.65716 96.5138 -4.88573 96.4567 -5.17144C95.5995 -5.34287 95.0281 -5.85716 94.7995 -6.65716C94.6281 -6.65716 94.4567 -6.7143 94.2853 -6.7143C94.2853 -6.82858 94.2281 -6.94287 94.2281 -7.05716C94.2281 -7.1143 94.2281 -7.17144 94.2281 -7.17144C93.9424 -7.22858 93.7138 -7.45716 93.5995 -7.74287C93.4281 -7.68573 93.371 -7.74287 93.3138 -7.85716C92.571 -7.80001 92.1138 -8.25716 91.7138 -8.82859C91.371 -8.82859 91.1424 -9.00001 91.0281 -9.28573C90.571 -9.5143 90.0567 -9.74287 89.5995 -9.97144C89.2567 -9.9143 89.0853 -10.0857 89.0281 -10.3714C88.7424 -10.4286 88.5138 -10.6 88.3995 -10.8857C88.2281 -10.8286 88.1138 -10.8857 87.9995 -11C87.7138 -10.9429 87.5424 -11.1143 87.4281 -11.3429C86.9138 -11.4572 86.2853 -11.4572 85.9424 -11.9714C85.1995 -12.0286 84.3424 -11.9143 84.171 -12.9429C83.9995 -12.8857 83.8853 -12.9429 83.771 -13.1143C83.6567 -13.1143 83.5424 -13.1143 83.4281 -13.0572C83.371 -13.0572 83.3138 -13.0572 83.2567 -13.0572C83.1995 -13.1714 83.1424 -13.3429 83.0853 -13.4572C82.9138 -13.4 82.7995 -13.4572 82.6853 -13.5714C82.2281 -13.5143 81.771 -13.3429 81.5424 -13.8572C81.1424 -13.9714 80.7424 -14.0857 80.5138 -14.4857C80.0567 -14.4857 79.6567 -14.6 79.4853 -15.0572C79.0853 -15.1143 78.7424 -15.2857 78.4567 -15.6286C77.9424 -15.5714 77.4853 -15.6286 77.1424 -16.0857H76.8567L76.7424 -16.2C76.3996 -16.1429 76.1138 -16.3143 75.9995 -16.6572L75.8281 -16.6L75.7138 -16.7143C75.1995 -16.6572 74.7424 -16.7143 74.3996 -17.1714L74.2281 -17.1143L74.1138 -17.2286C73.5995 -17.1714 73.1996 -17.2857 72.9138 -17.6857C72.7424 -17.6286 72.6281 -17.6857 72.5138 -17.8C72.0567 -17.7429 71.5995 -17.7429 71.3138 -18.2C71.1424 -18.0857 71.0281 -18.1429 70.9138 -18.2572C70.3996 -18.1429 69.9995 -18.2572 69.7138 -18.7143C69.5424 -18.6 69.4281 -18.6572 69.371 -18.7714C68.7424 -18.6 68.2281 -18.8286 67.771 -19.2286C67.1996 -19.2857 66.5138 -19.1714 66.0567 -19.7429C65.8281 -19.6286 65.5995 -19.5714 65.3138 -19.7429C64.2281 -19.3429 63.3138 -19.6857 62.4567 -20.3143C61.0281 -20.6 59.4281 -20.1429 58.0567 -20.8286H57.8853C57.5995 -20.4857 57.3138 -20.4857 57.0853 -20.8857C56.3995 -20.8286 55.7138 -20.7714 55.0281 -20.9429C54.6853 -20.9429 54.3424 -20.8857 53.9995 -20.8857C53.8281 -20.8857 53.6567 -20.8857 53.4853 -20.8857C53.3138 -20.8857 53.1424 -20.8857 52.971 -20.8857C52.6281 -20.7143 52.2853 -20.7143 51.8853 -20.8286C51.5424 -20.8286 51.1996 -20.7714 50.8567 -20.7714C50.6281 -20.4286 50.4567 -20.4857 50.2853 -20.8286C49.9424 -20.8286 49.5995 -20.7714 49.2567 -20.7714C48.8567 -20.3714 48.5138 -20.3714 48.171 -20.8286C46.7424 -20.8286 45.3138 -20.8286 43.8853 -20.8286L43.9424 -20.7143C43.7138 -20.7143 43.5424 -20.7143 43.3138 -20.7143L43.371 -20.8286C43.0281 -20.8286 42.6281 -20.8286 42.2853 -20.7714L42.171 -20.6572L41.9995 -20.7143C41.5424 -20.1429 41.0853 -20.3143 40.6281 -20.7714C40.3424 -20.7714 40.0567 -20.7714 39.8281 -20.7714C38.6281 -20.0857 37.2567 -20.4857 35.9995 -20.3714C35.7138 -20.4286 35.371 -20.4286 35.0853 -20.3714C34.9138 -20.2572 34.7424 -20.0857 34.571 -19.9714C34.5138 -19.9143 34.4567 -19.9143 34.3996 -19.8572C33.8853 -19.8572 33.3138 -19.8572 32.7996 -19.8572C32.4567 -19.8572 32.171 -19.8572 31.8281 -19.8572C31.1996 -19.2286 30.3996 -19.4572 29.6567 -19.4572C29.3138 -19.4 28.971 -19.4 28.6853 -19.3429C28.0567 -18.7143 27.2567 -18.9429 26.5138 -18.8857C26.3424 -18.7714 26.171 -18.7143 25.9996 -18.8286C25.8281 -18.6572 25.5996 -18.4857 25.4281 -18.3143C25.371 -18.3143 25.371 -18.3143 25.3138 -18.3143C25.1996 -18.3714 25.0281 -18.3714 24.9138 -18.4286C24.7996 -18.2572 24.6853 -18.2 24.5138 -18.2572C24.2853 -18.1429 24.1138 -17.9714 23.9424 -17.8572C23.8853 -17.8 23.8281 -17.8 23.771 -17.7429C23.5996 -17.7429 23.4281 -17.7429 23.2567 -17.7429C23.1996 -17.7429 23.0853 -17.8 23.0281 -17.8C22.9138 -17.8572 22.7996 -17.8572 22.7424 -17.9143C22.6281 -17.7429 22.4567 -17.7429 22.2853 -17.8C22.2281 -17.7429 22.2281 -17.6286 22.171 -17.5714C22.171 -17.5143 22.1138 -17.4572 22.1138 -17.4H21.8853L21.7138 -17.2857H21.6567C21.3138 -17.2857 21.0281 -17.2286 20.6853 -17.2286C20.5138 -16.6 19.9995 -16.7714 19.5424 -16.7714C19.4853 -16.7143 19.4853 -16.6572 19.4853 -16.6C19.4281 -16.5429 19.4281 -16.4286 19.371 -16.3714C19.0853 -16.3714 18.7996 -16.3714 18.4567 -16.3143C18.3424 -16.1429 18.2281 -16.1429 18.0567 -16.2C17.9424 -15.9143 17.7138 -15.7429 17.371 -15.8C17.3138 -15.6286 17.1996 -15.5714 17.0281 -15.6286C16.9138 -15.3429 16.6853 -15.1714 16.3424 -15.1714C16.2281 -14.8857 16.0567 -14.7143 15.771 -14.7143C15.7138 -14.4286 15.6567 -14.2 15.2567 -14.2572L15.1424 -14.0857H14.9138C14.7996 -13.8 14.6853 -13.5143 14.6281 -13.2286C14.5138 -13.2286 14.3424 -13.1714 14.171 -13.1714C13.9996 -13.1143 13.8281 -13.1143 13.6567 -13.0572C13.4853 -12.8857 13.3138 -12.7714 13.0853 -12.6C13.0281 -12.4857 13.0281 -12.3714 13.0281 -12.2572V-12.2C12.8567 -12.1429 12.6853 -12.0857 12.5138 -12.0857L12.4567 -12.0286C12.171 -11.4 11.6567 -11.0572 11.0281 -10.8286C10.971 -10.5429 10.7996 -10.3714 10.5138 -10.2572C10.4567 -9.97144 10.2281 -9.80001 9.94241 -9.74287C9.88527 -9.45716 9.71384 -9.28573 9.42812 -9.22859C9.37098 -8.94287 9.19955 -8.7143 8.91384 -8.7143C8.79955 -8.42859 8.57098 -8.3143 8.28527 -8.3143C8.05669 -7.85716 7.71384 -7.5143 7.19955 -7.28573C7.08527 -6.77144 6.62812 -6.7143 6.22812 -6.65716C6.11384 -6.37144 5.88527 -6.25716 5.59955 -6.25716C5.54241 -5.97144 5.37098 -5.80001 5.08527 -5.80001L5.02812 -5.74287C4.85669 -5.34287 4.57098 -5.17144 4.17098 -5.05716C4.05669 -4.77144 3.88527 -4.60001 3.59955 -4.60001C3.48527 -4.3143 3.31384 -4.20001 3.02812 -4.14287L3.14241 -4.02858C3.08527 -3.74287 2.97098 -3.5143 2.62812 -3.5143C2.57098 -3.17144 2.39955 -3.05716 2.05669 -3.05716L1.99955 -3.00001C1.65669 -2.42859 1.25669 -1.97144 0.628122 -1.80001C0.57098 -1.5143 0.342407 -1.34287 0.056694 -1.34287C-0.000450134 -1.05715 -0.171877 -0.885727 -0.45759 -0.828585C-0.514734 -0.54287 -0.743305 -0.371441 -1.02902 -0.314297C-1.08616 -0.0285835 -1.25759 0.199987 -1.54331 0.199987C-1.82902 0.885702 -2.40045 1.17142 -3.08616 1.34284C-3.20045 1.62856 -3.37188 1.79999 -3.65759 1.79999C-3.77188 2.0857 -3.94331 2.19999 -4.22902 2.25713C-4.28616 2.54284 -4.45759 2.71427 -4.74331 2.77142L-4.85759 2.8857C-4.91473 3.17142 -5.02902 3.39999 -5.37188 3.34284L-5.25759 3.45713C-5.94331 3.45713 -6.00045 4.14285 -6.40045 4.4857C-6.34331 4.65713 -6.34331 4.82856 -6.40045 4.99999C-6.40045 4.99999 -6.45759 4.99999 -6.51473 4.99999C-6.62902 5.05713 -6.74331 5.11427 -6.91473 5.05713C-6.91473 5.11427 -6.97188 5.17142 -6.97188 5.2857C-6.97188 5.34285 -7.02902 5.39999 -7.02902 5.51427C-7.31473 5.57142 -7.60045 5.62856 -7.88616 5.6857C-7.9433 5.97142 -8.11473 6.14285 -8.40045 6.19999C-8.45759 6.4857 -8.62902 6.71427 -8.91473 6.71427C-9.08616 7.2857 -9.37188 7.6857 -9.9433 7.79999C-10.0576 8.0857 -10.229 8.19999 -10.5147 8.31427C-10.5719 8.59999 -10.7433 8.77142 -11.029 8.8857C-11.0862 9.17142 -11.3147 9.34285 -11.6004 9.39999C-11.6576 9.6857 -11.8862 9.85713 -12.1719 9.91427C-12.229 10.2 -12.4004 10.3714 -12.6862 10.4286C-12.7433 10.7143 -12.9147 10.8857 -13.2004 10.9428C-13.2004 11.2857 -13.3147 11.5143 -13.7147 11.5143C-13.829 11.8 -14.0576 11.8571 -14.3433 11.9714C-14.3433 12.1428 -14.3433 12.2571 -14.4004 12.4286C-14.4576 12.4286 -14.5147 12.4286 -14.5719 12.4857C-14.6862 12.4857 -14.7433 12.5428 -14.8576 12.5428C-14.9147 12.8286 -15.0862 13.0571 -15.3719 13.1143C-15.5433 13.3428 -15.7147 13.5714 -15.8862 13.8C-15.829 13.9143 -15.8862 14.0286 -16.0004 14.1428C-16.0004 14.4857 -15.9433 14.7714 -15.7147 14.9428C-15.6004 15 -15.5433 15.0571 -15.3719 15.1143C-15.1433 15.3428 -14.8576 15.7428 -15.0862 15.9714C-15.3719 16.3714 -15.829 16.0857 -16.229 16.0286C-16.229 15.9143 -16.2862 15.8 -16.2862 15.6857C-16.3433 15.4571 -16.4004 15.2857 -16.4576 15.0571C-16.5147 15.1143 -16.629 15.1714 -16.6862 15.1714C-16.7433 15.2286 -16.8576 15.2857 -16.9147 15.2857C-16.9147 15.4571 -16.9719 15.5714 -17.0862 15.6857C-17.0862 15.8 -17.029 15.9143 -17.029 16.0286C-17.029 16.0857 -17.029 16.1428 -16.9719 16.2C-17.0862 16.3714 -17.0862 16.4857 -17.029 16.6571H-16.9719H-17.029L-17.2576 16.6L-17.4862 16.6571C-17.4862 17.1143 -17.6004 17.4571 -18.0004 17.6857C-18.0004 18.0286 -18.1147 18.2571 -18.4576 18.3714C-18.4004 18.5428 -18.4576 18.6571 -18.629 18.7714C-18.629 19.0571 -18.629 19.4 -18.629 19.6857C-18.7433 19.7428 -18.8004 19.7428 -18.9147 19.8C-18.9719 19.8 -19.029 19.8571 -19.0862 19.8571C-19.1433 20.4286 -19.1433 20.9428 -19.2004 21.5143C-19.2004 21.6286 -19.2004 21.7428 -19.2004 21.9143C-19.3147 21.9143 -19.4862 21.9714 -19.6004 21.9714C-19.6576 22.4286 -19.6004 22.8857 -20.0576 23.1714C-19.8862 23.5714 -19.829 23.9714 -20.0576 24.3714C-19.5433 24.6571 -19.429 24.9428 -19.9433 25.2286C-20.1719 26.9428 -20.1719 28.6571 -20.0576 30.3714C-19.3719 30.5428 -19.6004 31.0571 -19.6004 31.5143C-19.3147 31.5714 -19.1433 31.8 -19.0862 32.0286C-18.7433 32.0286 -18.4576 32.1428 -18.2862 32.4857L-18.1147 32.4286L-18.0004 32.5428C-17.029 31.9714 -15.8862 33.0571 -14.9719 32.2H-14.9147C-14.8576 32.2571 -14.8576 32.3143 -14.8004 32.3714C-14.5719 32.7143 -14.1719 32.5428 -13.829 32.4286C-13.9433 32.3143 -14.0576 32.2 -14.1719 32.0857C-13.6576 31.1143 -13.2004 30.0857 -13.6576 28.9428C-12.8004 28.0286 -13.3719 27.1143 -13.6004 26.2C-13.6576 26.0286 -13.6576 25.9143 -13.6576 25.7428C-13.6004 24.9428 -12.6862 24.1428 -13.7147 23.4C-13.7147 23.6286 -13.8862 23.9143 -14.1147 23.7428C-14.4576 23.3428 -14.4004 22.8286 -14.1147 22.4286C-13.8862 22.1428 -13.6576 22.1428 -13.8862 22.3714C-13.8862 22.3714 -13.7719 22.4857 -13.7719 22.5428C-13.3719 22.4286 -13.2004 22.2 -13.2004 21.8C-13.1433 17.8571 -11.1433 14.9428 -8.28616 12.4286C-6.97188 11.2857 -5.9433 9.79999 -4.62902 8.65713C-0.343306 4.94285 3.59955 0.82856 8.17098 -2.60001C10.7995 -4.60001 13.371 -6.7143 15.771 -9.05716C19.371 -12.5429 23.8281 -14.7143 28.8567 -15.6286C29.9424 -15.8 31.0853 -16.0286 32.171 -16.4286C33.0281 -16.7143 33.9424 -16.9429 34.971 -16.7714C36.571 -16.4857 38.171 -17.5714 39.7138 -17.5714C44.3996 -17.6286 49.0853 -17.9714 53.771 -17.9714C58.8567 -17.9143 63.8853 -17.5143 68.8567 -16.7714C68.9138 -16.7714 68.971 -16.7714 68.971 -16.7714C69.0281 -16.7714 69.0853 -16.7714 69.1424 -16.7714C69.1995 -16.7714 69.2567 -16.7714 69.371 -16.7143C70.2853 -16.2 71.0853 -15.2857 72.3424 -15.9714C72.3996 -15.9714 72.3996 -15.9143 72.4567 -15.9143H72.5138L72.571 -15.8572C72.5138 -15.8572 72.4567 -15.9143 72.3996 -15.9143H72.3424C75.0853 -13.8 78.3996 -12.8857 81.4281 -11.4C81.6567 -11.2286 81.8853 -11.1143 82.1138 -10.9429C83.771 -9.85716 85.6567 -9.28573 87.4281 -8.37144C88.4567 -7.80001 88.9138 -6.25716 90.4567 -6.65716V-6.60001C90.3996 -6.48573 90.3996 -6.3143 90.4567 -6.20001C90.3996 -6.14287 90.4567 -6.08573 90.3995 -6.02858C90.2853 -5.68573 90.3996 -5.62858 90.571 -5.62858C90.7424 -5.62858 90.971 -5.68573 91.0853 -5.62858C91.5995 -5.1143 91.771 -4.25716 92.5138 -3.97144C92.571 -3.68573 92.7995 -3.45716 93.0853 -3.40001C93.0853 -3.34287 93.0853 -3.34287 93.1424 -3.28573C93.1995 -3.1143 93.2567 -3.00001 93.4281 -2.88573C93.4853 -2.82858 93.5424 -2.77144 93.6567 -2.77144C95.8281 0.085701 97.5424 3.22856 99.1424 6.37142C99.8853 7.91427 100.057 9.91427 100.685 11.6286C102.114 15.3428 102.171 19.1714 102.285 23C102.285 23.1143 102.285 23.1714 102.342 23.2857C102.742 25.4571 102.342 27.6286 102.342 29.8C102.114 30.3143 102.171 30.8286 102.285 31.3428C102.285 31.4571 102.342 31.5143 102.342 31.6286C102.514 32.1428 102.685 32.6 102.8 33.1143C102.342 33.4571 102 33.8 102.8 34.1428C102.4 37.1714 101.942 40.1428 101.828 43.2286C101.828 43.5714 102 43.9143 102.057 44.2C102 44.2 101.942 44.2571 101.885 44.2571C101.6 44.3714 101.314 44.6 101.314 44.8286C101.314 49.4571 100.057 53.7428 98.3995 57.9714C98.5138 58.2571 98.6853 58.3714 98.9138 58.3714C99.1424 58.3714 99.4281 58.3714 99.5995 58.4857C99.4281 59.5143 98.3996 58.7714 97.9995 59.2857C97.9424 60.3714 97.5424 61.3428 96.971 62.2571C95.771 64.2571 94.8567 66.3714 93.8281 68.4857C93.8281 68.4857 93.8853 68.4286 93.8853 68.4857C93.8853 68.5428 93.8281 68.5428 93.8281 68.6C93.8281 68.7143 93.8281 68.8286 93.8281 68.9428C93.771 68.9428 93.7138 68.9428 93.6567 68.9428C93.6567 68.8857 93.6567 68.8857 93.6567 68.8286C93.3138 69.4 92.9138 69.9714 92.6281 70.5428C92.5138 70.7714 92.4567 70.9428 92.3995 71.1714C91.771 71 91.371 71.4 91.0853 71.8571C89.5424 74.4857 86.571 75.8571 84.971 78.5428C84.4567 79.4 83.1424 79.7428 82.2281 80.4286C80.571 81.6286 79.0281 82.9428 77.3138 84.0286C77.0853 84.2 76.8567 84.3143 76.571 84.4857C75.5424 84.7714 74.7996 85.4571 73.9995 86.0857C73.771 86.1428 73.5995 86.2 73.371 86.3143C72.571 86.6 71.8853 86.9428 71.3138 87.4571C71.0853 87.6857 70.8567 87.9143 70.6853 88.2C69.5995 88.0857 68.571 88.5428 67.7138 89.0571C64.571 91 60.9138 91.5714 57.6567 93.1714C56.3424 93.8 54.9138 94.2 53.4853 94.6C52.5138 94.8857 51.371 94.9428 51.0853 96.2571C51.0281 96.5428 50.6281 96.6571 50.4567 96.4857C49.1424 95.0571 48.171 96.8286 46.971 96.7714C46.8567 97.1143 47.5996 97.5143 47.0281 97.8571C46.3996 98.2 46.171 97.6286 45.8853 97.2857C45.9424 97.2857 45.9424 97.2857 45.9995 97.2286C46.1138 97.1714 46.2281 97.1143 46.2853 97C46.2853 96.9428 46.3424 96.8857 46.3424 96.8286C46.171 96.8857 46.0567 96.9428 45.9424 97C45.8853 97.0571 45.8281 97.1143 45.8281 97.2286C45.8281 97.2286 45.8281 97.2286 45.8281 97.2857V97.2286C44.8567 97 43.9424 97.4571 43.0853 97.7428C41.5424 98.3714 39.9424 98.3143 38.4567 98.8286H38.3996C37.5995 98.8286 36.8567 99.1143 36.1138 99.3428C35.9995 99.4 35.9424 99.4 35.8281 99.4571C35.0853 99.6286 34.4567 100.2 33.5996 100.143C33.1996 100.143 32.171 99.7428 32.4567 100.257C32.7996 101 32.3996 100.771 32.171 100.943C31.8853 101.114 31.8853 101.114 31.4281 100.429C31.1996 100.029 30.8567 100.143 30.5138 100.143C29.0853 99.9143 28.2281 101.286 26.971 101.514C26.9138 101.514 26.8567 101.571 26.7996 101.571C25.8853 101.686 25.371 100.886 24.571 100.657C22.7424 100.2 20.971 99.7428 19.1996 100.6C18.8567 100.771 18.5138 100.771 18.2281 100.6C16.5138 99.3428 14.3996 99.4 12.4567 99.1714C11.4281 99.0571 10.2853 98.2 9.59955 98.6C8.28526 99.3428 7.82812 97.9143 7.02812 97.9714C4.34241 98.1428 2.17098 96.6571 -0.286163 96.1428C-2.91473 95.5714 -5.48616 94.7714 -8.05759 94.0857C-8.11473 93.9714 -8.11473 93.9143 -8.11473 93.8C-8.11473 93.7428 -8.11473 93.7428 -8.17188 93.6857C-8.68616 93.6857 -9.08616 93.5714 -9.31473 93.0571C-9.71473 93 -10.1719 92.9428 -10.5719 92.8857C-10.629 92.8857 -10.6862 92.8857 -10.7433 92.8857C-11.7147 92.3143 -12.5719 91.5143 -13.6004 91C-13.7147 90.9428 -13.829 90.8857 -13.9433 90.8286C-15.2004 90.3143 -16.229 89.8 -17.029 88.4286C-17.8862 87 -19.3719 85.9714 -20.1147 84.3714C-21.5433 81.2857 -22.8004 78.2 -22.1147 74.6C-21.829 73 -22.0004 71.3428 -21.9433 69.6857C-21.7719 69.3428 -21.6576 68.9428 -21.5433 68.6C-21.2004 67.2857 -21.1433 65.9143 -20.9147 64.6C-20.9147 64.5428 -20.9147 64.4286 -20.8576 64.3714C-20.2862 63.7428 -20.229 62.8857 -20.3433 62.1428C-20.5147 60.8857 -20.3433 59.8 -19.4862 58.8286C-19.2576 58.5428 -19.429 58.2 -19.829 57.9714C-19.7719 57.8571 -19.7147 57.8 -19.6004 57.6857C-19.4862 57.5143 -19.3147 57.2857 -19.3147 57.1143C-19.1433 56.2 -18.6862 55.0571 -19.029 54.4857C-19.8862 53.1714 -17.2576 53.2857 -18.3433 52.2C-18.3433 52.0857 -18.3433 51.9714 -18.3433 51.8571C-18.3433 51.7428 -18.3433 51.6857 -18.3433 51.5714C-17.7147 50.2571 -16.8576 49 -17.5433 47.4571C-17.0862 47.4 -16.5719 47.4 -17.0862 46.7143C-16.9147 46.4286 -16.5719 46.2 -16.629 45.8C-16.629 45.1143 -17.029 44.8286 -17.6576 44.7143H-17.7147C-17.4862 44.2571 -16.9719 44.3714 -16.629 44.1428C-16.1719 43.9714 -16.0576 43.6857 -16.229 43.2286C-16.229 43.1714 -16.229 43.1714 -16.229 43.1714C-15.9433 41.6286 -15.6004 40.0286 -15.2576 38.4857C-15.9433 38.0286 -14.9719 37.7428 -15.1433 37.3428C-15.1433 37.2857 -15.1433 37.2857 -15.0862 37.2286C-14.8004 36.6 -14.8576 35.9143 -15.0862 35.2857C-14.3433 33.0571 -14.3433 33 -16.3433 33.0571C-16.629 33.0571 -16.8576 33.1714 -17.0862 33.2286C-17.0862 33.5714 -17.1433 33.9143 -17.1433 34.2571C-16.1719 34.8857 -17.2004 35.5143 -17.2576 36.1428C-17.2576 36.2 -17.2576 36.3143 -17.2004 36.3714C-17.3719 36.4286 -17.4862 36.4286 -17.6576 36.4857C-17.6576 36.6571 -17.6576 36.7714 -17.7719 36.9428C-17.6576 38.2 -17.7147 39.4 -18.229 40.6L-18.1719 40.6571C-18.229 40.6571 -18.229 40.6571 -18.2862 40.6571C-18.4576 40.8286 -18.629 41 -18.8004 41.1714C-18.8004 41.3428 -18.8004 41.5143 -18.8004 41.6857C-18.8004 41.8571 -18.8004 42.0286 -18.8004 42.2C-18.5147 43.0571 -19.3719 43.8571 -18.9147 44.6571C-19.029 44.7143 -19.2004 44.8286 -19.2576 44.9428C-19.3147 45.0571 -19.3719 45.1714 -19.3147 45.4C-19.4862 45.6286 -19.6576 45.8571 -19.829 46.0286C-19.7719 46.2 -19.829 46.3714 -20.0004 46.4857C-19.9433 47 -19.9433 47.5143 -19.8862 48.0286C-20.4576 48.2 -20.1719 49.0571 -20.8004 49.1143C-20.7433 49.3428 -20.7433 49.5714 -20.5147 49.6286L-20.5719 49.8L-20.4576 49.9143C-20.7433 50.0857 -20.9719 50.3143 -20.9719 50.6571C-21.0862 50.7143 -21.2576 50.7714 -21.3719 50.8286C-21.2576 50.9428 -21.2576 51 -21.3719 51.1143C-20.9147 51.5714 -20.9147 52.0286 -21.3719 52.4857C-21.3147 52.6571 -21.3719 52.8286 -21.5433 52.8857C-21.5433 53.1714 -21.6576 53.3428 -21.9433 53.4C-22.0576 53.9714 -21.9433 54.6 -22.4004 55.0571C-22.3433 55.4 -22.1719 55.7428 -22.5147 56.0857C-22.5147 56.6571 -22.4576 57.2857 -22.4576 57.8571C-22.4576 57.9714 -22.4576 58.0286 -22.4576 58.1428C-22.629 58.1428 -22.7433 58.2 -22.9147 58.2C-22.9719 58.4857 -23.0862 58.7714 -23.429 58.8857V59C-22.9719 59.2857 -22.8576 59.5143 -23.3719 59.8C-23.3719 60.3143 -23.429 60.8286 -23.429 61.3428C-23.5433 61.4 -23.7147 61.4 -23.829 61.4571C-23.8862 62.2571 -24.0004 63.0571 -24.0576 63.8C-24.1147 63.8 -24.1719 63.8571 -24.229 63.8571C-24.3433 63.8571 -24.4004 63.9143 -24.5147 63.9714C-24.4004 65.9143 -24.9147 67.7428 -25.1433 69.6286C-25.1433 69.8571 -25.2004 70.0857 -25.2004 70.2571C-26.0004 70.6 -25.2576 71.6857 -26.0576 72.0857C-26.0576 72.3714 -26.0576 72.6571 -26.0576 72.9428C-25.3147 74.2 -25.9433 75.5143 -25.9433 76.7714C-25.9433 77.8 -26.0576 78.8286 -26.1719 79.8571C-26.0004 79.9143 -26.0004 80.0286 -26.0576 80.2C-25.029 80.5428 -25.2004 81.2857 -25.5433 82.0286L-25.429 82.1428L-25.5433 82.2571C-25.2004 82.7714 -23.429 82.2571 -24.4576 83.7428V83.8C-23.9433 84.1428 -24.0576 84.6 -24.0576 85.1143C-23.8862 85.1714 -23.829 85.3428 -23.8862 85.4571C-23.5433 85.5714 -23.429 85.8 -23.3719 86.1428C-22.8576 86.5428 -22.4004 87 -22.229 87.6286C-21.9433 87.7429 -21.7719 87.9143 -21.7147 88.2C-21.429 88.2571 -21.2576 88.4286 -21.1433 88.7143C-20.6862 88.7714 -20.229 89.2286 -19.7719 88.7143L-19.829 88.6571C-19.829 88.6571 -19.7719 88.6571 -19.7147 88.6571C-19.6004 88.6 -19.4862 88.5428 -19.3147 88.4286C-19.3147 88.8857 -19.5433 88.7143 -19.7147 88.6571C-19.7147 88.6571 -19.7147 88.6571 -19.7719 88.6571C-19.5433 89 -19.2576 89.4 -19.029 89.7428C-18.5147 89.9143 -18.5719 90.3714 -18.4576 90.7714C-18.0576 90.8286 -17.6004 90.7714 -17.3719 91.2857C-17.0862 91.3428 -16.9147 91.5143 -16.8004 91.8C-16.4576 92.0286 -16.1719 92.2 -15.829 92.4286C-15.5433 92.4857 -15.2004 92.5428 -14.9147 92.6V92.6571C-14.9147 92.7714 -14.9147 92.8857 -14.8576 93C-14.4004 93 -14.0576 93.1143 -13.829 93.5143C-13.3719 93.5143 -12.9719 93.5714 -12.6862 94.0286C-12.5147 94.0286 -12.3433 93.9714 -12.1719 93.9714L-12.229 94.1428C-11.9433 94.1428 -11.6576 94.2 -11.429 94.3714C-11.3147 94.4286 -11.2576 94.4857 -11.2004 94.6H-11.1433C-10.7433 94.6 -10.2862 94.6571 -10.0576 95.0571H-9.77188L-9.54331 95.1714C-9.20045 95 -8.80045 95 -8.40045 95.0571C-8.22902 95.0571 -8.11473 95.1143 -7.9433 95.1143C-7.82902 95.2286 -7.82902 95.4 -7.88616 95.5714C-7.60045 95.6286 -7.42902 95.8571 -7.31473 96.1428H-7.08616L-6.91473 96.2571C-6.45759 96.2 -6.00045 96.2 -5.71473 96.6571C-5.42902 96.7143 -5.08616 96.7714 -4.80045 96.8286C-4.51473 96.7714 -4.28616 96.9428 -4.17188 97.2286L-3.94331 97.1714L-3.77188 97.2857C-3.31473 97.1714 -2.91473 97.3428 -2.62902 97.7428L-2.40045 97.6857L-2.22902 97.8C-1.77188 97.7428 -1.31473 97.8 -1.02902 98.2571C-0.743305 98.3143 -0.40045 98.3714 -0.114735 98.4286C0.228123 98.3714 0.456694 98.4857 0.628122 98.7714C0.913836 98.8286 1.19955 98.8286 1.42812 98.8857C2.05669 98.8857 2.68526 98.7714 3.19955 99.2857H3.42812L3.59955 99.4571C4.05669 99.4 4.51384 99.4571 4.85669 99.8571C5.31384 99.8 5.82812 99.7428 6.28527 100.029C6.68526 100.029 7.08527 100.029 7.37098 100.429C8.28527 100.486 9.25669 100.314 10.0567 100.943C10.2281 101 10.3996 101 10.571 101.057C11.3138 101.114 12.1138 100.829 12.7424 101.457L12.971 101.4L13.1996 101.514C13.8281 101.514 14.5138 101.343 15.0281 101.914C15.3138 101.914 15.5996 101.971 15.8281 101.971C15.9995 101.686 16.2281 101.686 16.3996 101.971C16.571 101.971 16.7424 102.029 16.9138 102.029C17.4853 102.029 18.1138 101.914 18.571 102.486C19.0853 102.486 19.5424 102.486 20.0567 102.486C21.4853 102.6 23.0281 102.029 24.3996 103C24.7424 102.886 25.0853 102.829 25.371 103.057C25.9424 103 26.5138 103.057 26.971 102.543C27.0281 102.543 27.0853 102.543 27.1424 102.543C27.2567 102.543 27.371 102.6 27.4853 102.543C27.4853 102.6 27.5424 102.6 27.5424 102.657C27.5996 102.771 27.6567 102.829 27.7138 102.943H27.8853C27.9424 102.829 27.9995 102.714 28.0567 102.6C28.0567 102.6 28.0567 102.543 28.1138 102.543C28.4567 102.714 28.9138 102.543 29.1424 102.943C29.4853 102.943 29.8281 102.886 30.1138 102.886C30.571 102.486 30.971 102.314 31.4281 102.943C31.6567 102.943 31.8853 102.943 32.1138 102.943C33.371 102.314 34.6853 102.657 35.9995 102.543C36.2853 102.486 36.571 102.486 36.9138 102.429C37.0853 102.029 37.4853 102.029 37.771 101.971C37.8853 101.971 37.9995 101.914 38.1138 101.914C38.2853 101.914 38.4567 101.914 38.6281 101.971C38.7424 101.971 38.8567 101.971 38.9138 101.971C39.1424 101.971 39.4281 101.971 39.6567 101.971C39.9995 101.8 40.3424 101.571 40.7424 101.4C40.7424 101.343 40.7424 101.286 40.7996 101.229C40.7996 101.171 40.8567 101.057 40.8567 101C42.571 100.771 44.3424 100.543 46.0567 100.314C46.8567 99.4571 47.771 99.0571 48.9138 99.7428H49.0853C49.7138 99.1714 50.3424 98.6571 51.2567 99.0571C51.371 98.7714 51.5424 98.6571 51.8853 98.7143C52.0567 98.6571 52.2281 98.6571 52.3996 98.6C52.6853 98.2 53.0853 98.2 53.4853 98.2571C53.771 98.0286 54.0567 98.0286 54.3996 98.1428C55.0281 97.4571 55.9424 97.5714 56.6853 97.2857C56.8567 97.2286 57.0281 97.1714 57.1996 97.1143C57.3138 97 57.4853 96.9428 57.6567 97C58.0567 96.4286 58.7424 96.6571 59.3138 96.5428C59.9424 96.0286 60.571 95.5143 61.4853 95.4571L61.6567 95.4L61.8281 95.4571C62.1138 95 62.571 95 62.971 95.0571L63.1996 94.8857H63.4281C63.7138 94.4857 64.0567 94.3143 64.5138 94.3143C64.9138 93.7428 65.5424 93.7428 66.1138 93.7428C67.4281 92.8286 68.9138 92.3143 70.3424 91.6286C70.571 91.0571 70.8567 91.1714 71.1424 91.5714H71.1996C71.4853 90.7143 72.2281 90.6 72.971 90.4857C72.971 90.0286 72.971 89.5143 73.7138 89.5714C74.171 89.5714 74.6281 89.4571 75.1424 89.4C75.1995 89.1143 75.4281 88.9428 75.7138 89L75.8281 88.8286L75.9995 88.8857C76.3424 87.5714 77.4281 87.9143 78.3424 87.9143L78.4567 87.8L78.6281 87.8571C78.7424 87.5714 78.971 87.3428 79.3138 87.2857C79.4281 87 79.5995 86.8857 79.8853 86.8286C79.9424 86.6571 79.9424 86.5428 79.9424 86.3714C79.9995 86.3714 80.1138 86.3714 80.171 86.3714C80.2853 86.3714 80.3424 86.3714 80.4567 86.3143C80.6281 85.8 81.0281 85.8 81.4853 85.7428C81.5996 85.4571 81.771 85.2857 82.0567 85.2286C82.1138 84.8857 82.2853 84.7714 82.6281 84.7143C82.7996 84.2571 83.2567 84.2 83.6567 84.1428C83.7138 83.8571 83.8853 83.6286 84.2281 83.6286C85.1424 82.9428 86.0567 82.2571 86.9138 81.5714C86.9138 81.2286 87.0853 81.1143 87.4281 81.1143L87.5424 80.9428H87.7138C87.8853 80.6571 88.171 80.5428 88.4567 80.4857C88.5138 80.2 88.6281 79.9714 88.971 79.9143C89.1424 79.4 89.6567 79.1714 89.9995 78.8286C89.9995 78.4857 90.2281 78.3143 90.5138 78.3143C90.571 78.0286 90.7995 77.8571 91.0853 77.8571L91.1424 77.8C91.1995 77.5143 91.3138 77.3428 91.5995 77.2857V77.2286C91.6567 76.9428 91.771 76.7143 92.0567 76.6571C92.0567 76.3143 92.2281 76.1428 92.571 76.0857C92.6281 75.8 92.7995 75.6286 93.0853 75.5714C93.1424 75.2857 93.3138 75.1143 93.5995 75.0571C93.6567 74.7714 93.8281 74.6 94.1138 74.5428C94.171 74.2571 94.3424 74.0857 94.6281 74.0286C94.7424 73.6286 94.8567 73.2857 95.3138 73.1143L95.371 73.0571C95.371 72.7714 95.5424 72.6 95.8281 72.4857C95.8281 72.3143 95.8281 72.1428 95.8853 71.9714C95.9424 71.9714 95.9995 71.9143 96.1138 71.9143C96.171 71.9143 96.2853 71.8571 96.3424 71.8571C96.3996 71.5714 96.571 71.2857 96.8567 71.1714C96.7995 71 96.8567 70.8857 97.0281 70.8857C97.0281 70.6 97.1424 70.4286 97.4281 70.3143C97.4281 69.9714 97.5995 69.7428 97.9424 69.6286C97.8853 69.4571 97.8853 69.3428 98.0567 69.2857C97.9995 68.9428 98.1138 68.7714 98.4567 68.6571C98.571 68.2571 98.6853 67.8571 99.0853 67.6857C99.0853 67.4 99.2567 67.1714 99.4853 67.0571C99.7138 66.1428 99.8281 65.1714 100.628 64.4857C100.8 64.3143 100.971 64.0857 101.142 63.8571C101.2 63.6857 101.257 63.5714 101.314 63.4C101.257 63.1143 101.371 62.8857 101.657 62.7714C101.6 62.6 101.6 62.4857 101.771 62.3714C101.714 62.0286 101.885 61.8 102.171 61.6857C102.114 61.5143 102.114 61.4 102.285 61.3428C102.285 60.4857 102.228 59.5714 102.228 58.7143C102.4 58.7143 102.571 58.7143 102.742 58.6571C102.971 58.5428 103.085 58.3143 103.314 58.2571L103.371 58.2C103.371 57.8571 103.485 57.6286 103.771 57.5143C103.657 57.4 103.657 57.2857 103.771 57.1714C103.828 56.5428 103.485 55.8571 104.285 55.4571C104.228 55.2857 104.228 55.1714 104.4 55.0571C104.4 54.4857 104.171 53.8 104.8 53.3428C104.742 53.1714 104.742 53.0571 104.914 52.9428C104.971 52.1428 104.8 51.3428 105.371 50.6571C105.257 50.3143 105.257 50.0286 105.485 49.7429C105.485 49.2857 105.485 48.8286 105.485 48.3714C105.485 48.3714 105.485 48.3714 105.485 48.3143H105.542C105.657 48.2571 105.771 48.1428 105.885 48.0857C105.885 47.7429 105.942 47.4571 105.942 47.1143C105.828 46.6 105.714 46.1428 105.6 45.6286C105.657 45.6286 105.657 45.5714 105.657 45.5714C105.828 45.5143 105.885 45.3428 105.885 45.2286C105.885 45.1714 105.885 45.1143 105.885 45.0571C106.057 44.8286 106.228 44.6 106.4 44.3714C106.4 43.6857 106.228 43 106.514 42.3714C106.742 41.2857 106.057 40.0857 106.914 39.0571C107.028 37.6857 106.628 36.3143 107.028 34.9428C107.028 34.7714 107.028 34.6 107.028 34.4286C107.028 34.0857 107.028 33.7428 107.028 33.3428C106.914 32.8857 107.028 32.2 106.628 31.5143ZM-17.429 31.2857C-17.829 31.3428 -18.0576 31.0571 -18.2862 30.8286C-18.5147 30.4857 -18.229 30.3714 -18.0004 30.3714C-17.6004 30.3143 -17.3719 30.5428 -17.3147 30.9428C-17.3147 31.0571 -17.3719 31.2857 -17.429 31.2857ZM-11.6004 13.9143C-11.829 13.5143 -12.2862 13.4571 -12.6862 13.4571C-12.3433 12.9428 -12.229 11.9714 -11.3719 12.5428C-10.8576 12.8857 -10.8004 13.5714 -11.6004 13.9143ZM-9.48616 11.3428C-9.60045 11.3428 -9.77188 11.2286 -9.88616 11.1143C-9.60045 10.7714 -9.65759 10.1428 -9.1433 9.91427C-9.02902 10.0286 -8.74331 10.1428 -8.80045 10.1428C-8.97188 10.6571 -8.80045 11.2857 -9.48616 11.3428ZM90.3424 -7.34287C90.2853 -7.40001 90.171 -7.45716 90.1138 -7.5143C90.171 -7.57144 90.2281 -7.62859 90.2853 -7.68573C90.3424 -7.62859 90.3996 -7.57144 90.4567 -7.5143C90.3996 -7.45716 90.3996 -7.40001 90.3424 -7.34287ZM-16.2862 38.7143C-16.2862 38.6 -16.3433 38.4286 -16.2862 38.3143C-16.2862 38.2571 -16.1719 38.2 -16.1147 38.1428C-16.0576 38.2571 -16.0004 38.4286 -15.9433 38.5428C-16.0576 38.6 -16.1719 38.6571 -16.2862 38.7143ZM-16.2862 36.1428C-16.0004 36.0286 -16.0004 36.1428 -16.0004 36.3714C-16.0004 36.4857 -16.0576 36.5428 -16.0004 36.6571C-16.0004 36.7143 -15.9433 36.7143 -15.9433 36.7714H-15.8862V36.8286C-15.8862 37 -15.8862 37.1143 -15.8862 37.2857C-16.4004 37.1143 -16.1147 36.4857 -16.4576 36.2C-16.4004 36.2 -16.3433 36.2 -16.2862 36.1428ZM-18.5147 46.9428C-18.3433 46.9428 -18.229 47 -18.1147 47.1143C-18.0576 47.1714 -18.0576 47.2286 -18.0004 47.3428C-18.0004 47.4 -17.9433 47.4 -17.9433 47.4571C-18.0576 47.6286 -18.1147 47.9143 -18.4004 47.8571C-18.4576 47.8571 -18.4576 47.8 -18.5147 47.7429C-18.5719 47.6286 -18.629 47.5714 -18.629 47.4571C-18.5719 47.2286 -18.5147 47.0571 -18.5147 46.9428ZM-18.7433 48.6V48.7714L-18.8576 48.6571L-18.7433 48.6ZM-22.229 60.8857C-22.1147 60.7714 -22.0004 60.6 -21.8862 60.6C-21.6004 60.5428 -21.429 60.7143 -21.4862 61C-21.5433 61.2286 -21.7147 61.2857 -21.8862 61.1714C-22.0004 61.1714 -22.1147 61 -22.229 60.8857ZM37.1996 100.143L37.0281 100.257L36.8567 100.143L36.6281 100.257C36.6853 100.143 36.6853 100.029 36.6853 99.9143C36.7424 99.9714 36.7996 99.9714 36.8567 99.9714C36.8567 99.9714 36.8567 99.9714 36.9138 99.9714C37.0281 99.9714 37.1424 99.9714 37.2567 100.029C37.3138 100.086 37.4281 100.086 37.4281 100.257L37.1996 100.143ZM41.3138 99.0571C41.0853 99 41.0281 98.8857 41.2567 98.8286C41.3138 98.8286 41.4281 98.8286 41.4853 98.8286C41.5424 98.8286 41.5424 98.9428 41.5424 99C41.4853 99.0571 41.371 99.1143 41.3138 99.0571ZM77.8853 87C77.8281 86.9428 77.771 86.8857 77.6567 86.8286C77.771 86.7143 77.8853 86.6571 77.9995 86.5428C78.1138 86.6571 78.2853 86.7143 78.2853 86.8286C78.2853 87.0571 78.0567 87.1143 77.8853 87ZM101.371 61C101.142 61 101.142 60.4857 101.257 60.1428H101.314C101.371 60.2 101.428 60.1428 101.428 60.1428C101.485 60.1428 101.542 60.2 101.6 60.1428C101.6 60.4857 101.714 61 101.371 61ZM103.085 56.2L102.914 56.0857L103.085 56.0286V56.2ZM103.828 32.4857V32.5428C103.828 32.5428 103.828 32.5428 103.828 32.4857C103.828 32.5428 103.828 32.5428 103.828 32.4857ZM103.714 44.2C103.714 44.1428 103.771 44.1428 103.771 44.1428C103.771 44.2 103.771 44.2 103.714 44.2ZM103.771 44.2571C103.828 44.2571 103.828 44.2571 103.885 44.2571C103.828 44.2571 103.771 44.2571 103.771 44.2571ZM103.885 46.1428C103.6 45.8 103.828 45.4 104.342 45.2857C104.4 45.5714 104.457 45.7429 104.742 45.8C104.514 46.0857 104.285 46.6571 103.885 46.1428ZM104.457 34.1428C103.6 34.2 103.771 33.6286 103.828 33.1143C104 33.1143 104.171 33.0571 104.285 32.9428C104.628 33.0571 105.257 32.7714 105.257 33.4C105.371 33.9714 104.914 34.1428 104.457 34.1428ZM105.371 31.9714C105.371 31.9143 105.371 31.9143 105.371 31.8571C105.428 31.8571 105.485 31.9143 105.542 31.9143C105.485 31.9143 105.428 31.9714 105.371 31.9714Z" fill="#2A5339"/>
<path d="M102.114 62.0286C102 62.2571 101.828 62.4857 101.714 62.7143C101.885 62.4857 102.057 62.3143 102.114 62.0286Z" fill="#2A5339"/>
<path d="M103.713 57.7999C103.599 58.0285 103.428 58.2571 103.313 58.4856C103.485 58.2571 103.656 58.0856 103.713 57.7999Z" fill="#2A5339"/>
<path d="M0.113338 38.7143C0.799052 39.2286 -0.000947893 39.4 -0.458091 39.5143C-0.515234 40.3143 -0.572377 41.1143 -0.400949 41.8572C0.627623 45.5714 1.94191 49.2286 3.59905 52.7143C4.97048 55.6857 6.74191 58.4286 8.68477 61C11.4276 64.6572 14.3419 68.2 18.6276 70.2572C21.3133 71.5714 24.1705 72.4286 27.0276 73.2857C27.6562 73 28.1705 73.2286 28.6276 73.6857C34.2276 74.3143 39.8276 74.4286 45.4848 74.4286C50.3419 74.4286 54.6276 73.1143 58.9705 71.4C63.8848 69.4572 67.8276 66.0857 71.2562 62.2C74.799 58.1429 77.2562 53.4 79.0276 48.2572C82.3419 38.5429 83.4276 28.6 82.1133 18.4857C81.6562 15.2286 81.8276 11.6857 79.8276 8.7143C79.6562 8.48573 79.7133 8.3143 79.8276 8.02859C80.2848 6.94287 79.7133 5.97145 79.3133 5.00002C78.6276 3.34287 77.4276 1.9143 76.799 0.428588C75.3705 -2.8857 72.4562 -4.37141 69.7133 -5.74284C66.6276 -7.2857 63.0848 -8.19998 59.599 -8.42856C58.6848 -8.4857 57.0276 -9.34284 56.2276 -7.6857C55.9419 -7.74284 55.6562 -7.6857 55.4848 -7.79998C54.4562 -8.37141 53.8848 -8.59998 53.599 -8.14284C52.799 -6.99998 51.6562 -7.22855 50.6848 -7.45713C50.0562 -7.57141 49.5419 -7.85713 49.0276 -7.34284C48.6848 -6.99998 48.3419 -6.71427 47.8848 -6.8857C45.9991 -7.57141 44.2848 -6.54284 42.5133 -6.19998C41.8276 -5.91427 41.0276 -5.74284 40.2848 -5.57141C39.4848 -5.39998 38.2848 -5.39998 38.1705 -4.14284C38.0562 -4.19998 37.8848 -4.19998 37.7705 -4.14284C37.4848 -4.54284 37.0848 -4.59998 36.6848 -4.4857C36.5133 -4.4857 36.3419 -4.4857 36.1705 -4.4857C35.5419 -4.14284 34.5705 -4.14284 34.4562 -3.17141C34.3419 -3.22855 34.2276 -3.17141 34.1133 -3.11427C33.8848 -3.57141 33.6562 -3.51427 33.4848 -3.05713C33.1419 -3.05713 32.9705 -2.82856 32.799 -2.54284C32.6276 -2.59998 32.5133 -2.54284 32.4562 -2.37141C31.6562 -1.79998 30.5133 -2.14284 29.7133 -1.45713C28.799 -1.97141 28.0562 -2.14284 27.6562 -0.885697C26.7419 -0.657125 26.6848 0.88573 25.199 0.48573C24.5705 0.314301 23.8848 1.40002 24.0562 2.42859C24.5133 2.60002 24.7419 3.05716 25.5419 2.7143C26.4562 2.3143 27.3705 1.85716 28.2848 1.5143C30.1133 0.714303 31.5991 -0.828554 33.5991 -1.34284C34.1133 -1.57141 34.6276 -1.74284 35.1419 -1.97141C35.599 -1.91427 35.999 -2.14284 36.3419 -2.37141H36.5705L36.7419 -2.4857C37.0848 -2.42855 37.3705 -2.59998 37.5419 -2.8857C37.7133 -2.8857 37.9419 -2.8857 38.1133 -2.8857C38.5705 -2.59998 39.0276 -2.25713 39.4276 -2.8857C39.8848 -2.94284 40.2848 -2.99998 40.5133 -3.45713C44.3419 -4.02855 48.0562 -5.34284 51.9419 -5.6857C53.2562 -5.79998 54.7419 -5.74284 55.9419 -6.54284C57.2562 -6.42856 58.5133 -6.25713 59.8276 -6.25713C62.799 -6.25713 63.6562 -6.02855 65.999 -4.99998C71.599 -2.4857 74.6848 2.14287 75.6562 7.80002C76.3419 11.8 77.2562 15.7429 77.7133 19.8C77.8848 21.3429 77.3133 22.6572 77.5419 24.0857C78.1133 27.9714 77.4848 31.8 76.799 35.6286C75.8276 40.9429 74.0562 46.0857 72.0562 51.1143C68.6848 59.5143 62.7419 65.2286 54.3419 68.4857C50.5133 69.9715 46.5705 70.8857 42.3419 70.8286C38.1705 70.7714 34.0562 71.0572 29.8276 70.7715C25.7133 70.4286 22.4562 68.7714 19.5991 65.9715C17.0276 63.4572 14.9705 60.5429 12.9705 57.5714C9.25619 51.9714 6.62762 45.9714 5.48477 39.4C5.14191 37.2857 5.54191 35.2857 6.39905 33.2286C7.54191 30.5429 9.42762 28.3143 10.7419 25.7429C13.3705 23.0572 15.9419 20.3714 18.5705 17.7429C19.5419 16.7714 19.9419 15.6286 19.9991 14.3143C18.9133 13.9143 17.9991 13.9143 17.1419 14.6C16.7419 14.9429 16.3419 15.5714 15.9991 15.5714C13.5419 15.3429 12.4562 17.4 11.1419 18.7714C8.51334 21.1714 5.94191 23.5714 4.28477 26.7143C4.05619 26.7714 3.94191 26.9429 3.88477 27.1143C3.88477 27.1714 3.82762 27.2286 3.82762 27.2857C3.48477 27.8 3.02762 28.2572 2.74191 28.7714C1.42762 31.1714 -0.515235 33.2857 -0.515235 36.2572C-0.515235 37.1143 -0.915234 37.9714 0.113338 38.7143ZM80.2276 25.1143C80.1705 25.0572 80.0562 25 80.0562 24.9429C80.0562 24.8286 80.1705 24.7143 80.2276 24.6C80.2848 24.6572 80.3419 24.7143 80.399 24.7714C80.3419 24.8857 80.2848 25 80.2276 25.1143ZM80.1133 22.4857C80.399 22.5429 80.5705 22.7143 80.5133 23C80.4562 23.2286 80.399 23.5143 80.0562 23.3429C79.8276 23.2286 79.599 23.1143 79.6562 22.6572C79.6562 22.5429 79.8276 22.4286 80.1133 22.4857ZM74.9133 51.6286C74.9705 51.7429 75.0276 51.8572 75.0276 51.9714C75.0276 52.0286 74.9133 52.0857 74.8562 52.1429C74.799 52.0286 74.7419 51.9143 74.6848 51.8C74.7419 51.7429 74.8562 51.6857 74.9133 51.6286ZM7.14191 48.0286L7.19905 48.2H7.02762L7.14191 48.0286ZM6.62762 27.8C6.68476 27.8 6.74191 27.9143 6.79905 27.9714C6.74191 28.0286 6.74191 28.0857 6.68477 28.1429C6.57048 28.0857 6.51334 28.0286 6.39905 27.9714C6.51334 27.9143 6.57048 27.8 6.62762 27.8ZM3.42762 45.7429C3.65619 45.6857 3.94191 45.6857 4.05619 46.0286C3.99905 46.1429 3.94191 46.3143 3.82762 46.3714C3.59905 46.4286 3.31334 46.4286 3.25619 46.1429C3.19905 45.9714 3.31334 45.7429 3.42762 45.7429Z" fill="#2A5339"/>
<path d="M22.6855 2.71423C22.6855 2.77138 22.6855 2.77138 22.6855 2.71423C22.6855 2.77138 22.6855 2.77138 22.6855 2.71423C22.7427 2.77138 22.7427 2.77138 22.7427 2.71423C22.7427 2.77138 22.6855 2.71423 22.6855 2.71423Z" fill="#2A5339"/>
<path d="M21.0282 3.17138C20.9139 4.59995 19.7139 4.42852 18.9139 4.88566C17.8854 5.45709 17.0282 6.19995 16.3425 7.05709C15.5997 7.97138 14.1139 7.85709 13.7139 9.17138C12.1139 9.39995 11.7139 11.0571 10.5711 11.9142C9.99965 12.3142 9.82822 13.1142 9.08537 13.2857C8.11394 13.5142 8.11394 14.3714 7.94251 15.0571C8.22822 14.9999 8.57108 14.8857 8.79965 15.1714C8.91394 15.3999 8.68537 15.5714 8.45679 15.6285C8.39965 15.6285 8.39965 15.5714 8.34251 15.5714C8.11394 15.4571 7.94251 15.3428 7.94251 15.0571C7.31394 15.1714 6.85679 15.3999 6.91394 16.1428C6.45679 16.0285 6.39965 16.3142 6.28537 16.6571C6.45679 16.5428 6.68537 16.3714 6.85679 16.2571C6.85679 16.3142 6.85679 16.4285 6.91394 16.4857L6.68537 16.4285C6.57108 16.4857 6.39965 16.5428 6.28537 16.6571C5.99965 16.6571 5.88537 16.8857 5.77108 17.1142C5.42822 17.3428 5.14251 17.7428 5.31394 18.1428C5.54251 18.7142 5.99965 18.1428 6.34251 18.2571C7.08537 18.8857 7.59965 18.3714 7.88537 17.7999C8.11394 17.3999 8.11394 16.7714 7.37108 16.6571C7.2568 16.7714 7.14251 16.9428 6.91394 16.7714C7.02822 16.7142 7.08537 16.7142 7.19965 16.6571C7.25679 16.6571 7.31394 16.6571 7.37108 16.5999C7.48537 15.9142 8.05679 16.2571 8.45679 16.0857C10.5711 15.7428 10.9711 13.6285 12.2854 12.4285C13.9425 11.2857 15.5425 10.1428 16.9711 8.71423C18.7425 7.68566 19.7711 5.39995 21.7711 4.99995C23.7711 4.59995 22.9711 3.68566 22.6854 2.71423C22.1711 3.17138 21.0854 2.65709 21.0282 3.17138ZM10.5711 12.4285C10.6854 12.5428 10.8568 12.5428 10.9711 12.4857C10.8568 12.8285 10.7425 12.4857 10.5711 12.4285Z" fill="#2A5339"/>
<path d="M3.14207 21.9715C1.42778 21.9715 1.48492 23.5715 1.14207 24.5429C0.970639 25.0572 1.99921 25.2858 2.57064 24.8858C3.19921 24.4286 3.59921 23.7429 3.65635 22.9429C4.45635 22.7143 4.9135 22.3143 4.68493 21.4C5.37064 20.6572 5.54207 19.6858 4.68493 19.1715C4.05635 18.7715 3.82778 19.6858 3.59921 20.2C2.9135 20.6572 3.82778 21.5143 3.14207 21.9715Z" fill="#2A5339"/>
<path d="M70.514 17.6856C70.1711 17.0571 69.8854 16.4856 69.5425 15.8571C67.6568 12.3142 65.4854 9.11421 61.5425 7.6285C59.9997 6.25707 58.114 5.57136 56.1711 5.05707C55.7711 4.88564 55.3711 4.48564 54.9711 4.54279C53.4283 4.71422 51.9997 4.88564 50.4568 4.48564C50.114 4.37136 49.6568 4.8285 49.314 4.99993C48.2854 5.11422 47.714 6.31421 46.8568 6.48564C45.4854 6.77136 45.1425 7.68565 44.6854 8.65707C44.3997 8.25707 43.9997 8.19993 43.5997 8.48564C42.6283 8.99993 42.114 9.79993 41.7711 10.8285C40.514 11.2856 39.9997 12.5999 38.7426 13.2285C34.7426 15.2856 31.1997 18.0285 28.514 21.7428C26.8568 24.0285 25.2568 26.3142 25.2568 29.3428C25.314 33.5714 25.8854 37.7428 27.0854 41.7999C27.3711 42.7714 27.7711 43.5714 28.7997 44.1999C29.5426 44.6571 28.914 46.1428 29.5997 47.2285C31.4283 50.1999 34.514 50.9999 37.3711 52.2571C39.8283 53.3999 42.514 52.7142 45.1426 52.8856C46.2283 52.9428 47.314 53.3999 48.3426 53.2285C50.914 52.7714 53.3711 51.8571 55.9425 51.4571C58.6283 51.0571 60.6283 49.2856 62.3426 47.6285C67.5426 42.7142 71.8854 37.1142 72.3426 29.4571C72.514 26.0285 72.3425 22.6571 70.9711 19.4571C70.914 18.7714 71.4283 18.0285 70.514 17.6856ZM43.8283 10.3142C43.8283 10.2571 43.8854 10.1999 43.8854 10.1428C43.8854 10.0856 43.9426 10.0285 43.9426 10.0285C43.9426 9.97136 43.9997 9.85707 43.9997 9.79993C44.114 9.79993 44.2283 9.79993 44.3426 9.79993C44.3997 9.91422 44.3997 10.0285 44.4568 10.1999C44.514 10.4285 44.5711 10.6571 44.6283 10.8856C44.6854 11.1714 44.7997 11.4571 44.8568 11.7428C43.1997 11.8571 43.1997 11.8571 43.8283 10.3142ZM32.0568 26.6571C32.0568 26.6571 31.9426 26.5428 31.8854 26.4856C31.8854 26.4285 31.9426 26.3714 31.9426 26.3142C31.9997 26.3142 32.0568 26.3142 32.114 26.3142C32.2854 26.4285 32.2283 26.5428 32.0568 26.6571ZM41.714 50.8285C41.3711 50.8285 41.2568 50.5999 41.2568 50.3142C41.2568 50.0285 41.5426 49.9142 41.7711 49.9714C41.8854 50.0285 42.0568 50.1428 42.114 50.3142C42.1711 50.5999 41.9426 50.7714 41.714 50.8285ZM62.2854 40.2571C61.9426 40.6571 61.6568 41.1142 61.3711 41.5142C61.1425 41.6285 60.9711 41.7428 60.7997 41.9142C60.7997 41.9714 60.7425 41.9714 60.6854 42.0285C60.514 42.1999 60.3997 42.3714 60.3426 42.5999C59.9997 42.6571 59.8283 42.7714 59.8854 43.1714C55.5426 47.0571 50.3425 48.5999 44.6854 48.8856C43.314 48.9428 41.8854 48.7142 40.5711 48.9999C38.4568 49.4571 37.5997 48.1428 36.6283 46.7714C34.0568 42.9999 33.314 38.7142 32.8568 34.3142C32.7426 33.1714 32.6283 32.0285 32.514 30.9428C32.1711 28.3142 33.1425 25.8571 34.9711 23.9714C37.9425 20.8285 40.914 17.4571 44.6283 15.2856C47.3711 13.6856 49.8854 11.4571 53.314 11.1142C53.714 11.0571 54.2283 10.8285 54.3997 10.4856C54.914 9.57136 54.0568 9.79993 53.5997 9.68564C53.1426 9.34279 52.6283 9.2285 52.1711 9.2285C51.314 9.11422 50.3997 9.34279 49.5425 9.45707C48.514 9.6285 47.4854 9.74279 46.4568 9.74279C46.1711 9.74279 45.9426 9.74279 45.6568 9.74279C46.7426 8.8285 48.1711 8.37136 49.0283 7.17136C49.5426 6.48564 50.4568 6.8285 51.1425 6.48564C51.2568 6.37136 51.3711 6.25707 51.4854 6.14279H51.5425C51.9997 6.08564 52.4568 6.0285 52.9711 5.97136C55.1997 5.91422 56.8568 7.17136 58.5711 8.31422C58.914 8.54279 59.2568 8.71422 59.5997 8.88564C59.714 8.94279 59.8283 8.99993 59.9425 9.05707C60.2283 9.68564 60.914 10.0285 61.3711 10.4856C62.9711 12.1428 64.3425 13.9142 65.1426 16.0856C65.1426 16.1999 65.1997 16.2571 65.1997 16.3714C65.2568 16.6571 65.2568 16.9428 65.3711 17.2285C65.4283 17.3999 65.5425 17.5714 65.714 17.6856C66.7425 20.3714 67.0283 23.2285 67.1997 26.0285C67.3711 31.4571 65.714 36.1428 62.2854 40.2571ZM49.8854 10.1999L49.9997 10.0285L50.114 10.1999L49.9997 10.1428L49.8854 10.1999Z" fill="#2A5339"/>
<path d="M23.8281 2.42859C23.8281 2.48573 23.8281 2.42859 23.8281 2.42859C23.8853 2.42859 23.8853 2.42859 23.8281 2.42859Z" fill="#2A5339"/>
<path d="M22.7422 2.77144C23.1422 2.88572 23.6565 3.17144 23.8279 2.48572C23.3136 2.14286 23.085 2.60001 22.7422 2.77144Z" fill="#2A5339"/>
<path d="M42.1705 53.4H41.999L42.0562 53.5143L42.1705 53.4Z" fill="#2A5339"/>
<path d="M0.914145 27.5143C0.857002 27.4572 0.79986 27.3429 0.742717 27.3429C0.685574 27.3429 0.628432 27.4 0.571289 27.4572C0.628432 27.5143 0.685574 27.6286 0.742717 27.6286C0.79986 27.6286 0.857002 27.5143 0.914145 27.5143Z" fill="#2A5339"/>
</g>
</svg>
