<svg width="20" height="20" viewBox="0 0 20 20" fill="none" xmlns="http://www.w3.org/2000/svg">
<g clip-path="url(#clip0_1158_8263)">
<path d="M6.59074 1.4857C7.93049 0.952897 9.39439 0.740812 10.8324 0.870132C12.4774 1.01497 14.0809 1.62019 15.4052 2.60302C14.9345 3.03753 14.4999 3.50826 14.0344 3.95312C12.8912 3.18754 11.5256 2.74786 10.1496 2.72717C8.4426 2.68578 6.72523 3.27548 5.40617 4.36177C4.49576 5.10148 3.76639 6.06362 3.30601 7.14473C2.72666 8.50001 2.57148 10.0312 2.8715 11.4744C3.14566 12.8245 3.82329 14.0763 4.77509 15.0643C5.60274 15.9074 6.62695 16.5592 7.74945 16.9213C8.9185 17.3041 10.191 17.3817 11.3963 17.1386C13.2016 16.792 14.862 15.7212 15.9173 14.2159C17.2312 12.4106 17.6191 9.97425 16.9467 7.84823C16.7811 7.26888 16.507 6.73091 16.2173 6.20329C16.688 5.7636 17.1226 5.2877 17.5933 4.84801C18.333 5.97051 18.8554 7.24819 19.052 8.58277C19.1193 8.59312 19.171 8.6345 19.0727 8.65519C19.171 9.47766 19.202 10.3105 19.0934 11.133C18.8399 13.2021 17.8571 15.1729 16.3466 16.611C14.9448 17.9662 13.0981 18.8508 11.1635 19.0939C8.90298 19.3939 6.54418 18.8094 4.68715 17.48C3.75087 16.823 2.94392 15.985 2.31801 15.0281C1.43346 13.678 0.921356 12.0848 0.843764 10.476C0.714444 8.15343 1.50588 5.78429 3.03703 4.03071C3.994 2.90821 5.23547 2.03918 6.59074 1.4857Z" fill="#4DF189"/>
<path d="M17.3551 1.51147C17.4844 1.57872 17.5775 1.6977 17.681 1.80115C17.981 2.10117 18.281 2.40637 18.5862 2.70122C18.6328 2.74777 18.669 2.7995 18.7052 2.85123C15.7981 5.75317 12.891 8.65511 9.99421 11.5622C8.50962 10.088 7.04055 8.59821 5.55078 7.12913C5.92322 6.70496 6.35256 6.32218 6.74052 5.91352C6.79225 5.87214 6.85433 5.76869 6.92675 5.83076C7.95096 6.84463 8.95965 7.87401 9.98904 8.88271C11.9806 6.89636 13.9669 4.90483 15.9533 2.91848C16.4188 2.44775 16.8999 1.99254 17.3551 1.51147Z" fill="#4DF189"/>
<path d="M9.90636 3.38932C10.1288 3.3169 10.3771 3.5083 10.3771 3.74107C10.3823 4.15489 10.3823 4.56872 10.3823 4.98254C10.3823 5.13255 10.346 5.30843 10.2064 5.38602C10.046 5.49465 9.81325 5.44292 9.69944 5.29291C9.62185 5.17394 9.62702 5.01875 9.62702 4.88426C9.6322 4.50664 9.62703 4.12386 9.6322 3.74624C9.62703 3.58071 9.74083 3.41518 9.90636 3.38932Z" fill="#4DF189"/>
<path d="M3.64327 9.64337C4.05192 9.60199 4.46575 9.6382 4.87957 9.62268C5.06062 9.61751 5.29857 9.61751 5.3865 9.81408C5.53651 10.0417 5.36064 10.3727 5.08648 10.3727C4.65714 10.3831 4.22262 10.3727 3.78811 10.3779C3.62258 10.3883 3.45188 10.2951 3.39498 10.1348C3.31739 9.93822 3.43636 9.6951 3.64327 9.64337Z" fill="#4DF189"/>
<path d="M14.7736 9.65858C14.9133 9.60168 15.0736 9.62754 15.2185 9.62237C15.5806 9.62754 15.9478 9.60685 16.3099 9.63271C16.5686 9.6534 16.7082 9.98446 16.5686 10.1965C16.491 10.3414 16.3099 10.3879 16.1547 10.3776C15.7254 10.3724 15.296 10.3879 14.8667 10.3672C14.515 10.331 14.4477 9.7879 14.7736 9.65858Z" fill="#4DF189"/>
<path d="M9.86691 14.5833C10.0893 14.5005 10.3687 14.6661 10.3738 14.9144C10.3842 15.3489 10.379 15.7782 10.379 16.2127C10.3894 16.3783 10.3014 16.5541 10.1359 16.6059C9.9083 16.7041 9.61862 16.5179 9.62896 16.2645C9.62379 15.8351 9.62896 15.4058 9.62379 14.9764C9.61345 14.8006 9.71173 14.635 9.86691 14.5833Z" fill="#4DF189"/>
</g>
<defs>
<clipPath id="clip0_1158_8263">
<rect width="20" height="20" fill="white"/>
</clipPath>
</defs>
</svg>
