<svg width="140" height="150" viewBox="0 0 140 150" fill="none" xmlns="http://www.w3.org/2000/svg">
<g clip-path="url(#clip0_592_4075)">
<path d="M3.08776 2.78075C4.99001 0.937379 7.64068 -0.031169 10.2914 7.44555e-05C42.0994 7.44555e-05 73.9074 7.44555e-05 105.715 7.44555e-05C108.366 0.0625614 111.142 -0.31236 113.636 0.781162C117.254 2.28085 119.78 6.06131 119.748 9.99799C119.78 34.1492 119.748 58.3317 119.748 82.5141C118.906 82.5141 118.096 82.5141 117.254 82.5141C116.412 82.5141 115.601 82.5141 114.759 82.5141C114.759 63.3619 114.759 44.1784 114.759 25.0261C78.1797 25.0261 41.5693 25.0261 4.99001 25.0261C4.99001 55.7697 4.99001 86.4821 4.99001 117.226C4.89646 119.1 5.89436 120.944 7.54713 121.85C8.95042 122.693 10.6344 122.475 12.1936 122.506C31.4343 122.506 50.6439 122.506 69.8846 122.506C69.8846 123.349 69.8846 124.162 69.8846 125.005C69.8846 125.849 69.8846 126.661 69.8846 127.505C50.0202 127.505 30.1558 127.505 10.3225 127.505C7.32884 127.567 4.30395 126.255 2.40171 123.912C0.811307 122.068 0.0316983 119.631 0.0628826 117.194C0.000513938 81.5768 0.000513937 45.928 0.000513937 10.3104C-0.0618548 7.52976 1.06078 4.71784 3.08776 2.78075ZM7.92134 5.46769C6.17502 6.24877 4.99001 8.0609 4.99001 9.99799C4.99001 13.341 4.99001 16.6529 4.99001 19.9959C41.5693 19.9959 78.1797 19.9959 114.759 19.9959C114.759 16.5591 114.79 13.1223 114.728 9.65431C114.634 7.12359 112.327 4.93655 109.801 4.99903C77.2441 4.99903 44.7189 5.03028 12.1624 4.99903C10.7591 5.03028 9.23108 4.84282 7.92134 5.46769Z" fill="#1C2436"/>
<path d="M9.98047 10.0293C11.6332 10.0293 13.286 10.0293 14.97 10.0293C14.97 11.6852 14.97 13.3411 14.97 15.0283C13.3172 15.0283 11.6644 15.0283 9.98047 15.0283C9.98047 13.3411 9.98047 11.6852 9.98047 10.0293Z" fill="#1C2436"/>
<path d="M22.4535 16.0278C24.3997 16.0278 25.9774 14.4472 25.9774 12.4973C25.9774 10.5475 24.3997 8.9668 22.4535 8.9668C20.5074 8.9668 18.9297 10.5475 18.9297 12.4973C18.9297 14.4472 20.5074 16.0278 22.4535 16.0278Z" fill="#1C2436"/>
<path d="M29.9375 10.0293C31.5903 10.0293 33.2742 10.0293 34.927 10.0293C34.927 11.6852 34.927 13.3411 34.927 15.0283C33.2742 15.0283 31.6215 15.0283 29.9375 15.0283C29.9375 13.3411 29.9375 11.6852 29.9375 10.0293Z" fill="#1C2436"/>
<path d="M124.738 12.5288C126.391 12.5288 128.044 12.5288 129.728 12.5288C129.728 29.1816 129.728 45.8344 129.728 62.5184C128.075 62.5184 126.391 62.5184 124.738 62.5184C124.738 45.8344 124.738 29.1816 124.738 12.5288Z" fill="#1C2436"/>
<path d="M14.1278 32.6494C14.5956 32.4932 15.0946 32.5244 15.5623 32.4932C28.6598 32.5244 41.7884 32.4932 54.8858 32.5244C56.3203 32.4932 57.5053 33.8679 57.3494 35.3051C57.3494 48.4586 57.3494 61.5809 57.3494 74.7344C57.5053 76.1403 56.3203 77.5463 54.8858 77.515C41.5701 77.5463 28.2544 77.5463 14.9386 77.515C13.473 77.5463 12.3192 76.1716 12.4751 74.7344C12.4751 61.5809 12.4751 48.4586 12.4751 35.3051C12.3815 34.1803 13.0364 32.9931 14.1278 32.6494ZM17.4646 37.5234C17.4646 49.1772 17.4646 60.831 17.4646 72.5161C19.1173 72.5161 20.8013 72.5161 22.4541 72.5161C22.4541 70.579 22.3605 68.5794 22.9218 66.7048C23.6703 63.8616 25.5413 61.4246 27.849 59.675C25.5725 57.1443 24.3563 53.5825 25.2295 50.2082C26.1962 45.8029 30.4373 42.3974 34.959 42.4911C39.4807 42.3974 43.753 45.8029 44.6885 50.2395C45.5305 53.5825 44.3143 57.113 42.069 59.6438C44.3767 61.3934 46.2477 63.8304 46.9962 66.6735C47.5575 68.5481 47.4639 70.5477 47.4639 72.4848C49.1167 72.4848 50.8006 72.4848 52.4534 72.4848C52.4534 60.831 52.4534 49.1772 52.4534 37.4921C40.7593 37.4921 29.0963 37.4921 17.4646 37.5234ZM33.4933 47.7087C31.1233 48.3649 29.5329 50.9268 30.0007 53.3326C30.4061 56.0508 33.3374 58.0503 36.0193 57.363C38.6699 56.8318 40.4786 53.895 39.7614 51.3017C39.1689 48.6148 36.1128 46.8339 33.4933 47.7087ZM33.1815 62.7056C30.7179 63.268 28.6286 65.1739 27.849 67.5796C27.2876 69.1418 27.4747 70.8602 27.4436 72.4848C32.4331 72.4848 37.4226 72.4848 42.4121 72.4848C42.5056 70.1103 42.5056 67.4859 40.9464 65.5175C39.2312 63.1743 36.0193 61.987 33.1815 62.7056Z" fill="#1C2436"/>
<path d="M67.3594 37.4922C69.0121 37.4922 70.6961 37.4922 72.3489 37.4922C72.3489 39.1481 72.3489 40.8352 72.3489 42.4911C70.6961 42.4911 69.0121 42.4911 67.3594 42.4911C67.3594 40.8352 67.3594 39.1793 67.3594 37.4922Z" fill="#1C2436"/>
<path d="M92.307 43.5222C104.001 43.5222 113.481 41.9415 113.481 39.9917C113.481 38.0418 104.001 36.4612 92.307 36.4612C80.6128 36.4612 71.1328 38.0418 71.1328 39.9917C71.1328 41.9415 80.6128 43.5222 92.307 43.5222Z" fill="#1C2436"/>
<path d="M87.3175 53.52C102.904 53.52 115.539 51.9393 115.539 49.9895C115.539 48.0397 102.904 46.459 87.3175 46.459C71.731 46.459 59.0957 48.0397 59.0957 49.9895C59.0957 51.9393 71.731 53.52 87.3175 53.52Z" fill="#1C2436"/>
<path d="M87.3175 63.5181C102.904 63.5181 115.539 61.9374 115.539 59.9875C115.539 58.0377 102.904 56.457 87.3175 56.457C71.731 56.457 59.0957 58.0377 59.0957 59.9875C59.0957 61.9374 71.731 63.5181 87.3175 63.5181Z" fill="#1C2436"/>
<path d="M87.3175 73.5161C102.904 73.5161 115.539 71.9354 115.539 69.9856C115.539 68.0357 102.904 66.4551 87.3175 66.4551C71.731 66.4551 59.0957 68.0357 59.0957 69.9856C59.0957 71.9354 71.731 73.5161 87.3175 73.5161Z" fill="#1C2436"/>
<path d="M124.738 67.5171C126.391 67.5171 128.044 67.5171 129.728 67.5171C129.728 69.173 129.728 70.8289 129.728 72.516C128.075 72.516 126.391 72.516 124.738 72.516C124.738 70.8289 124.738 69.173 124.738 67.5171Z" fill="#1C2436"/>
<path d="M14.9688 82.4829C16.6215 82.4829 18.3055 82.4829 19.9582 82.4829C19.9582 84.1388 19.9582 85.826 19.9582 87.4819C18.3055 87.4819 16.6215 87.4819 14.9688 87.4819C14.9688 85.826 14.9688 84.1701 14.9688 82.4829Z" fill="#1C2436"/>
<path d="M24.9473 82.4829C34.9263 82.4829 44.9053 82.4829 54.8842 82.4829C54.8842 84.1388 54.8842 85.826 54.8842 87.4819C44.9053 87.4819 34.9263 87.4819 24.9473 87.4819C24.9473 85.826 24.9473 84.1701 24.9473 82.4829Z" fill="#1C2436"/>
<path d="M109.893 86.1384C112.419 85.6385 115.07 86.1384 117.253 87.5131C119.311 88.8254 120.839 90.9187 121.494 93.2619C122.398 96.3238 123.24 99.4169 124.145 102.51C126.951 102.541 129.758 102.479 132.565 102.541C135.184 102.635 137.648 104.197 138.833 106.54C139.986 108.696 139.986 111.383 138.833 113.539C137.648 115.851 135.153 117.444 132.565 117.507C129.945 117.569 127.357 117.507 124.737 117.538C124.737 128.38 124.737 139.19 124.737 150.031C123.084 150.031 121.401 150.094 119.748 149.969C119.779 139.159 119.748 128.348 119.779 117.569C115.164 117.569 110.548 117.538 105.933 117.601C106.931 118.694 107.991 119.725 109.052 120.787C107.929 122.006 106.744 123.162 105.528 124.318C103.47 122.256 101.38 120.163 99.322 118.069C98.7607 117.476 98.1058 116.945 97.3574 116.601C91.6506 113.758 85.9751 110.915 80.2995 108.071C79.021 107.415 77.3058 107.29 76.0585 108.103C74.6552 109.04 74.4992 111.227 75.7154 112.352C78.4285 115.132 81.2351 117.882 83.9793 120.662C85.1331 121.694 84.7277 123.381 85.1331 124.724C85.7256 127.036 87.316 129.067 89.4365 130.161C91.5883 131.192 93.8959 131.879 96.0476 132.91C96.952 133.347 97.3574 134.378 97.3262 135.347C97.3574 140.221 97.295 145.095 97.3574 149.969C95.7046 150.125 94.0207 150.031 92.3679 150.031C92.3367 145.595 92.4302 141.127 92.3367 136.69C90.528 135.972 88.7193 135.347 87.0042 134.472C83.4492 132.566 80.8297 129.005 80.1748 125.005C80.0501 124.318 80.0189 123.537 79.4264 123.037C77.5865 121.256 75.8402 119.319 73.9067 117.601C70.1023 117.413 66.2666 117.601 62.4621 117.507C61.6513 117.507 60.9652 117.007 60.3104 116.57C58.6264 115.414 56.9425 114.32 55.2897 113.164C53.7928 111.977 51.7659 112.695 50.0195 112.508C50.0195 110.852 50.0195 109.165 50.0195 107.509C51.454 107.478 52.8885 107.634 54.2918 107.415C56.1005 106.353 57.8156 105.072 59.5619 103.947C60.4663 103.385 61.3395 102.541 62.4621 102.51C64.302 102.448 66.1418 102.51 67.9505 102.479C67.6699 101.354 67.3892 100.198 67.4828 99.042C67.6387 96.2926 69.385 93.7306 71.8486 92.5121C73.1895 91.8247 74.7175 91.6998 76.1832 91.4498C87.3472 89.7002 98.6359 87.9193 109.893 86.1384ZM75.0606 96.6987C73.5637 96.8237 72.254 98.1359 72.3475 99.6669C72.3475 101.26 73.8444 102.604 75.4348 102.479C83.2309 102.479 90.9958 102.51 98.7919 102.479C101.006 100.229 103.251 97.9797 105.496 95.7302C106.713 96.8862 107.898 98.0422 109.02 99.2607C107.96 100.323 106.9 101.354 105.902 102.448C110.237 102.479 114.602 102.479 118.937 102.448C118.157 99.7293 117.44 97.0424 116.598 94.3555C115.881 92.0435 113.355 90.5438 110.985 91.0124C99.0101 92.887 87.0354 94.8241 75.0606 96.6987ZM63.0858 107.571C61.9008 108.228 60.8093 109.009 59.6867 109.79C59.5308 110.352 60.2792 110.508 60.591 110.821C61.6825 111.414 62.5868 112.508 63.8966 112.477C65.9547 112.477 68.0441 112.477 70.1023 112.477C69.728 110.821 69.8216 109.134 70.2582 107.478C67.8882 107.54 65.4558 107.353 63.0858 107.571ZM90.6527 107.54C93.0851 108.915 95.6422 110.04 98.137 111.352C99.1661 111.821 100.164 112.57 101.349 112.477C109.145 112.445 116.941 112.477 124.737 112.477C124.737 110.821 124.737 109.134 124.737 107.478C113.355 107.509 102.004 107.415 90.6527 107.54ZM129.727 107.509C129.727 109.165 129.727 110.821 129.727 112.508C130.662 112.508 131.598 112.539 132.533 112.477C133.656 112.383 134.56 111.414 134.685 110.321C134.872 109.009 133.843 107.665 132.533 107.571C131.598 107.446 130.662 107.509 129.727 107.509Z" fill="#1C2436"/>
<path d="M13.7833 102.572C14.9683 100.01 18.7728 99.3856 20.7063 101.448C21.9536 102.854 22.515 104.728 23.4193 106.322C24.7602 105.478 26.07 104.541 27.4109 103.697C29.0013 102.666 31.2466 102.885 32.6187 104.166C33.7413 105.228 34.8328 106.353 35.9242 107.478C38.9179 107.509 41.9116 107.478 44.9053 107.478C44.9053 109.134 44.9053 110.821 44.9053 112.477C41.7869 112.445 38.6684 112.508 35.5188 112.445C32.837 112.352 31.4649 109.727 29.5938 108.196C28.1593 109.134 26.7872 110.102 25.3215 111.008C23.5752 112.07 21.1117 111.664 19.8331 110.071C18.9288 108.884 18.4298 107.415 17.6814 106.134C16.6835 108.54 15.7168 110.977 14.7812 113.383C13.222 112.82 11.6628 112.164 10.1348 111.539C11.3821 108.571 12.5048 105.541 13.7833 102.572Z" fill="#1C2436"/>
<path d="M7.92156 5.46773C9.23131 4.84286 10.7282 5.03032 12.1626 4.99908C44.7191 4.99908 77.2444 4.99908 109.801 4.99908C112.327 4.93659 114.634 7.12363 114.728 9.65436C114.79 13.0911 114.728 16.5279 114.759 19.996C78.1799 19.996 41.6007 19.996 4.99023 19.996C4.99023 16.6529 4.99023 13.3411 4.99023 9.99804C4.99023 8.06094 6.17524 6.24882 7.92156 5.46773ZM9.97973 10.0293C9.97973 11.6852 9.97973 13.3411 9.97973 15.0282C11.6325 15.0282 13.2853 15.0282 14.9692 15.0282C14.9692 13.3723 14.9692 11.7164 14.9692 10.0293C13.3165 9.99803 11.6325 9.99803 9.97973 10.0293ZM19.9587 10.0293C19.9587 11.6852 19.9587 13.3411 19.9587 15.0282C21.6115 15.0282 23.2643 15.0282 24.9482 15.0282C24.9482 13.3723 24.9482 11.7164 24.9482 10.0293C23.2954 9.99803 21.6115 9.99803 19.9587 10.0293ZM29.9377 10.0293C29.9377 11.6852 29.9377 13.3411 29.9377 15.0282C31.5905 15.0282 33.2433 15.0282 34.9272 15.0282C34.9272 13.3723 34.9272 11.7164 34.9272 10.0293C33.2744 9.99803 31.5905 9.99803 29.9377 10.0293Z" fill="#4DF189"/>
<path d="M17.4647 37.5234C29.0965 37.5234 40.7594 37.5234 52.3912 37.5234C52.3912 49.1773 52.3912 60.8311 52.3912 72.5162C50.7384 72.5162 49.0545 72.5162 47.4017 72.5162C47.4017 70.5791 47.4952 68.5795 46.9339 66.7049C46.1855 63.8617 44.3456 61.4247 42.0068 59.6751C44.2521 57.1444 45.4683 53.6138 44.6263 50.2708C43.6908 45.8342 39.4185 42.4287 34.8968 42.5224C30.375 42.4287 26.134 45.8342 25.1672 50.2395C24.2941 53.6138 25.5415 57.1444 27.7867 59.7063C25.4791 61.456 23.608 63.8929 22.8596 66.7361C22.2983 68.6107 22.423 70.6103 22.3918 72.5474C20.7391 72.5474 19.0863 72.5474 17.4023 72.5474C17.4647 60.8311 17.4647 49.1773 17.4647 37.5234Z" fill="#4DF189"/>
<path d="M63.0863 107.571C65.4563 107.353 67.8887 107.54 70.2899 107.478C69.8533 109.102 69.7597 110.821 70.134 112.477C68.0758 112.477 65.9864 112.508 63.9283 112.477C62.6185 112.508 61.7142 111.383 60.6227 110.821C60.3109 110.508 59.5625 110.383 59.7184 109.79C60.8098 109.04 61.9013 108.228 63.0863 107.571Z" fill="#4DF189"/>
<path d="M90.6543 107.54C102.005 107.415 113.388 107.509 124.739 107.478C124.739 109.134 124.739 110.79 124.739 112.477C116.943 112.477 109.147 112.477 101.351 112.477C100.166 112.571 99.1676 111.821 98.1385 111.352C95.6438 110.071 93.0867 108.915 90.6543 107.54Z" fill="#4DF189"/>
<path d="M4.99013 24.9946C41.5694 24.9946 78.1798 24.9946 114.759 24.9946C114.759 44.1469 114.759 63.3304 114.759 82.4826C115.601 82.4826 116.412 82.4826 117.254 82.4826C117.254 84.1698 117.254 85.8257 117.254 87.4816C115.102 86.1069 112.42 85.607 109.894 86.1069C98.6367 87.8878 87.348 89.6999 76.0593 91.4495C74.5936 91.6995 73.0656 91.8245 71.7246 92.5118C69.2611 93.6991 67.5459 96.2923 67.3588 99.0417C67.2653 100.229 67.5459 101.354 67.8266 102.478C65.9867 102.51 64.1468 102.447 62.3381 102.51C61.2155 102.541 60.3424 103.385 59.438 103.947C57.6605 105.072 55.9765 106.384 54.1678 107.415C52.7645 107.602 51.3301 107.446 49.8956 107.509C49.8956 109.165 49.8956 110.852 49.8956 112.508C51.6419 112.695 53.6689 111.977 55.1657 113.164C56.8497 114.32 58.5337 115.413 60.1864 116.569C60.8413 117.007 61.5274 117.507 62.3381 117.507C66.1426 117.6 69.9783 117.413 73.7828 117.6C75.7162 119.319 77.4314 121.256 79.3024 123.037C79.8949 123.505 79.9261 124.318 80.0509 125.005C76.6518 125.068 73.2215 125.005 69.8224 125.036C69.8224 124.193 69.8224 123.38 69.8224 122.537C50.5816 122.537 31.3721 122.537 12.1313 122.537C10.5721 122.506 8.88817 122.724 7.48488 121.881C5.86329 120.975 4.83421 119.131 4.92776 117.257C4.99013 86.4818 4.99013 55.7382 4.99013 24.9946ZM14.1271 32.6493C13.0357 32.993 12.3808 34.149 12.4744 35.305C12.4744 48.4585 12.4744 61.5808 12.4744 74.7343C12.3185 76.1402 13.5035 77.5462 14.9379 77.5149C28.2537 77.5462 41.5694 77.5462 54.8851 77.5149C56.3196 77.5462 57.5046 76.1715 57.3486 74.7343C57.3486 61.5808 57.3486 48.4585 57.3486 35.305C57.5046 33.899 56.3196 32.4931 54.8851 32.5243C41.7877 32.4931 28.6902 32.5243 15.5928 32.4931C15.0939 32.5243 14.5949 32.4931 14.1271 32.6493ZM67.3588 37.492C67.3588 39.1479 67.3588 40.8351 67.3588 42.491C69.0116 42.491 70.6955 42.491 72.3483 42.491C72.3483 40.8351 72.3483 39.1479 72.3483 37.492C70.6955 37.492 69.0116 37.492 67.3588 37.492ZM77.3378 37.492C77.3378 39.1479 77.3378 40.8351 77.3378 42.491C87.3168 42.491 97.2958 42.491 107.275 42.491C107.275 40.8351 107.275 39.1479 107.275 37.492C97.2958 37.492 87.3168 37.492 77.3378 37.492ZM67.3588 47.4899C67.3588 49.1458 67.3588 50.833 67.3588 52.4889C80.6745 52.4889 93.9591 52.4889 107.275 52.4889C107.275 50.833 107.275 49.1458 107.275 47.4899C93.9591 47.4899 80.6745 47.4899 67.3588 47.4899ZM67.3588 57.4879C67.3588 59.1438 67.3588 60.8309 67.3588 62.4868C80.6745 62.4868 93.9591 62.4868 107.275 62.4868C107.275 60.8309 107.275 59.1438 107.275 57.4879C93.9591 57.4879 80.6745 57.4879 67.3588 57.4879ZM67.3588 67.4858C67.3588 69.1417 67.3588 70.8288 67.3588 72.4847C80.6745 72.4847 93.9591 72.4847 107.275 72.4847C107.275 70.8288 107.275 69.1417 107.275 67.4858C93.9591 67.4858 80.6745 67.4858 67.3588 67.4858ZM14.9691 82.4826C14.9691 84.1386 14.9691 85.8257 14.9691 87.4816C16.6219 87.4816 18.3058 87.4816 19.9586 87.4816C19.9586 85.8257 19.9586 84.1386 19.9586 82.4826C18.3058 82.4826 16.6219 82.4826 14.9691 82.4826ZM24.9481 82.4826C24.9481 84.1386 24.9481 85.8257 24.9481 87.4816C34.9271 87.4816 44.9061 87.4816 54.8851 87.4816C54.8851 85.8257 54.8851 84.1386 54.8851 82.4826C44.9061 82.4826 34.9271 82.4826 24.9481 82.4826ZM13.7841 102.572C12.5056 105.54 11.3829 108.571 10.1667 111.57C11.7259 112.195 13.254 112.851 14.8132 113.414C15.7487 110.977 16.7154 108.571 17.7133 106.165C18.4618 107.446 18.9607 108.915 19.8651 110.102C21.1436 111.695 23.6072 112.101 25.3535 111.039C26.8192 110.133 28.1913 109.165 29.6258 108.227C31.4656 109.789 32.8689 112.383 35.5508 112.476C38.6692 112.539 41.7877 112.476 44.9373 112.508C44.9373 110.852 44.9373 109.165 44.9373 107.509C41.9436 107.509 38.9499 107.509 35.9562 107.509C34.8647 106.384 33.7733 105.259 32.6506 104.197C31.2785 102.916 29.0333 102.697 27.4429 103.728C26.1019 104.572 24.7922 105.509 23.4513 106.353C22.5157 104.728 21.9856 102.885 20.7382 101.479C18.7736 99.3854 14.9691 100.01 13.7841 102.572Z" fill="white"/>
<path d="M129.727 107.509C130.662 107.509 131.598 107.478 132.533 107.54C133.843 107.665 134.872 109.008 134.685 110.289C134.56 111.383 133.625 112.352 132.533 112.445C131.598 112.539 130.662 112.476 129.727 112.476C129.727 110.821 129.727 109.165 129.727 107.509Z" fill="white"/>
<path d="M33.4906 47.7088C36.1101 46.834 39.1662 48.6149 39.7587 51.3018C40.4759 53.9262 38.6672 56.8631 36.0166 57.363C33.3347 58.0504 30.4346 56.0508 29.998 53.3326C29.5614 50.9269 31.1518 48.3649 33.4906 47.7088Z" fill="white"/>
<path d="M33.1795 62.7056C36.0173 61.987 39.2293 63.143 40.9132 65.5488C42.4724 67.5171 42.4724 70.1103 42.3789 72.5161C37.3894 72.5161 32.3999 72.5161 27.4104 72.5161C27.4416 70.8602 27.2545 69.173 27.8158 67.6108C28.6266 65.1738 30.7471 63.268 33.1795 62.7056Z" fill="white"/>
<path d="M75.0615 96.6986C87.0363 94.824 99.0111 92.8869 110.986 91.0123C113.356 90.5436 115.882 92.0433 116.599 94.3553C117.41 97.0423 118.158 99.7604 118.938 102.447C114.603 102.479 110.237 102.479 105.903 102.447C106.901 101.354 107.992 100.292 109.021 99.2606C107.899 98.0421 106.714 96.886 105.497 95.73C103.283 97.9796 101.007 100.198 98.7928 102.479C90.9967 102.51 83.2318 102.479 75.4357 102.479C73.8453 102.604 72.3485 101.26 72.3485 99.6667C72.2549 98.1358 73.5647 96.8236 75.0615 96.6986Z" fill="white"/>
<path d="M76.0273 108.009C77.2746 107.196 78.9898 107.353 80.2683 107.977C85.9439 110.821 91.6194 113.695 97.3262 116.507C98.0746 116.851 98.7295 117.382 99.2908 117.975C101.349 120.069 103.438 122.131 105.496 124.224C106.713 123.099 107.866 121.912 109.02 120.694C107.96 119.631 106.9 118.6 105.902 117.507C110.517 117.444 115.132 117.507 119.748 117.475C119.748 128.286 119.779 139.096 119.717 149.875C112.232 149.812 104.779 149.812 97.295 149.875C97.2638 145.001 97.295 140.127 97.2638 135.253C97.295 134.284 96.8896 133.253 95.9852 132.816C93.8335 131.754 91.5259 131.098 89.3742 130.067C87.2536 128.973 85.6632 126.942 85.0707 124.63C84.6653 123.287 85.0707 121.6 83.9169 120.569C81.1727 117.788 78.3661 115.07 75.653 112.258C74.468 111.133 74.624 108.946 76.0273 108.009Z" fill="white"/>
</g>
<defs>
<clipPath id="clip0_592_4075">
<rect width="139.706" height="150" fill="white"/>
</clipPath>
</defs>
</svg>
