<svg width="24" height="24" viewBox="0 0 24 24" fill="none" xmlns="http://www.w3.org/2000/svg">
<path d="M14.2475 9.65084C14.9187 9.30508 15.5187 8.81694 15.9966 8.22711C16.1695 8.61355 16.4034 8.97965 16.5458 9.37626C16.5865 9.87457 16.5865 10.3729 16.739 10.8508C16.7797 10.8305 16.8712 10.8 16.9119 10.7898C16.9831 10.9627 17.0543 11.1356 17.1255 11.3085C16.9119 11.3898 16.6882 11.3491 16.4848 11.2983C15.7526 11.1152 15 11.0136 14.2475 10.922C14.2373 10.4949 14.2373 10.0678 14.2475 9.65084Z" fill="white"/>
<path d="M9.56949 0.620334C10.9831 -0.162716 12.7729 -0.203394 14.2271 0.50847C15.3864 1.06779 16.2915 2.09491 16.7695 3.28474C17.1559 3.48813 17.6746 3.42711 17.9898 3.76271C18.3356 4.06779 18.3051 4.5661 18.3051 4.98305C18.2949 5.44067 18.3864 5.97966 18.0407 6.34576C17.7153 6.72203 17.1763 6.67118 16.7695 6.8644C16.6576 7.06779 16.5763 7.29152 16.4847 7.50508C16.7085 7.5661 16.922 7.62711 17.1458 7.68813C17.7458 6.78305 18.7424 6.1322 19.8305 6.01017C21.3966 5.77627 23.0136 6.70169 23.6644 8.13559C24.2542 9.39661 24.061 10.983 23.1661 12.0508C22.861 12.4373 22.4542 12.7322 22.0373 12.9864C22.0068 12.9254 21.9356 12.7932 21.8949 12.7322C21.8847 12.7017 21.8542 12.6508 21.8441 12.6203C22.4237 12.2847 22.9322 11.8068 23.2271 11.2068C23.8475 10.0373 23.6644 8.50169 22.7695 7.51525C21.8136 6.38644 20.0644 6.05084 18.7627 6.75254C18.1322 7.04745 17.6847 7.59661 17.2983 8.15593C16.9525 8.0644 16.617 7.96271 16.2712 7.86101C16.4847 8.33898 16.7593 8.78644 16.9424 9.27457C16.9831 9.75254 16.9729 10.2407 17.1153 10.6983C17.0441 10.7288 16.9729 10.7491 16.9017 10.7797C16.861 10.8 16.7695 10.8305 16.7288 10.8407C16.5763 10.3627 16.5763 9.8644 16.5356 9.3661C16.3932 8.95932 16.1695 8.60339 15.9864 8.21694C15.5085 8.80678 14.9186 9.29491 14.2373 9.64067C14.2271 10.0576 14.2271 10.4847 14.2271 10.9017C14.9797 10.9932 15.7322 11.0949 16.4644 11.278C16.678 11.3288 16.9017 11.3695 17.1051 11.2881C17.8576 11.0542 18.6102 10.6475 19.4136 10.7898C20.4915 10.9424 21.3661 11.9186 21.417 13.0068C21.3864 14.1661 21.2034 15.3051 21.1424 16.4542C21.2034 17.7153 21.3254 18.9661 21.3966 20.2271C21.5492 21.9356 20.2678 23.6136 18.5797 23.9186C18.0407 24.0203 17.5017 23.9898 16.9627 23.9898C13.5356 23.9898 10.1085 23.9898 6.68136 23.9898C6.07119 23.9797 5.43051 24 4.85085 23.7661C3.84407 23.4102 3.04068 22.5559 2.71525 21.5491C2.43051 20.7254 2.58305 19.8407 2.64407 18.9864C2.68475 18.1424 2.78644 17.2983 2.80678 16.4542C2.75593 15.4068 2.60339 14.3593 2.54237 13.3017C2.48136 12.5797 2.78644 11.8475 3.32542 11.3695C3.89492 10.861 4.71864 10.6373 5.46102 10.8203C5.98983 10.9627 6.48814 11.1763 7.00678 11.3186C7.16949 11.3695 7.3322 11.2881 7.49492 11.2678C8.23729 11.0949 8.98983 10.983 9.75254 10.8814C9.75254 10.4644 9.75254 10.0475 9.74237 9.6305C8.79661 9.15254 8.00339 8.38983 7.49492 7.4644C7.39322 7.25084 7.32203 7.00677 7.15932 6.83389C6.75254 6.66101 6.24407 6.69152 5.93898 6.33559C5.64407 6.02033 5.66441 5.56271 5.66441 5.1661C5.68475 4.67796 5.59322 4.11864 5.96949 3.74237C6.30509 3.41694 6.81356 3.46779 7.21017 3.27457C7.67797 2.1661 8.49153 1.18983 9.56949 0.620334ZM10.1593 0.793216C10.1797 1.17966 10.1797 1.57627 10.1695 1.97288C10.6983 1.82033 11.2373 1.71864 11.7864 1.68813C11.7966 1.26101 11.8068 0.844063 11.7966 0.416945C11.2373 0.437284 10.6678 0.549148 10.1593 0.793216ZM12.1932 0.406775C12.2034 0.833894 12.2136 1.25084 12.2136 1.67796C12.7627 1.71864 13.3017 1.8 13.8305 1.96271C13.8 1.5661 13.8915 1.14915 13.8 0.762707C13.2915 0.538978 12.7322 0.437284 12.1932 0.406775ZM7.53559 3.66101C7.91186 3.66101 8.28814 3.65084 8.66441 3.66101C8.7661 3.27457 8.81695 2.85762 9 2.50169C9.22373 2.33898 9.48814 2.23728 9.74237 2.11525C9.74237 1.72881 9.74237 1.35254 9.74237 0.966097C8.71525 1.55593 7.9017 2.52203 7.53559 3.66101ZM14.2475 0.976267C14.2373 1.35254 14.2373 1.72881 14.2373 2.11525C14.4915 2.23728 14.7661 2.33898 14.9898 2.50169C15.1729 2.85762 15.2237 3.2644 15.3153 3.65084C15.6915 3.65084 16.0678 3.65084 16.4542 3.66101C16.0983 2.52203 15.2746 1.55593 14.2475 0.976267ZM9.31525 2.79661C8.85763 4.27118 8.85763 5.88813 9.31525 7.36271C10.9424 8.2983 13.0475 8.28813 14.6847 7.36271C14.7661 7.07796 14.8373 6.79322 14.8983 6.50847C14.278 6.50847 13.6576 6.50847 13.0271 6.50847C12.8746 6.83389 12.6508 7.18983 12.2746 7.27118C11.6136 7.49491 10.8814 6.85423 10.9729 6.17288C11.0339 5.57288 11.6949 5.09491 12.2746 5.2983C12.6508 5.38983 12.8746 5.73559 13.0271 6.06101C13.6678 6.06101 14.3186 6.06101 14.9695 6.06101C15.0915 4.96271 15.0203 3.83389 14.6847 2.77627C13.0576 1.87118 10.9424 1.86101 9.31525 2.79661ZM6.14237 4.30169C6.09153 4.82033 6.09153 5.34915 6.14237 5.85762C6.25424 6.25423 6.7322 6.28474 7.0678 6.3661C6.86441 5.51186 6.84407 4.62711 7.07797 3.77288C6.7322 3.8644 6.26441 3.90508 6.14237 4.30169ZM16.9322 3.79322C17.1458 4.63728 17.1458 5.52203 16.9322 6.3661C17.278 6.30508 17.7458 6.2644 17.8576 5.86779C17.9085 5.34915 17.9085 4.82033 17.8576 4.30169C17.7356 3.90508 17.2678 3.8644 16.9322 3.79322ZM7.41356 4.06779C7.3017 4.60678 7.28136 5.15593 7.3322 5.69491C7.74915 5.70508 8.1661 5.70508 8.57288 5.69491C8.5322 5.14576 8.56271 4.59661 8.61356 4.05762C8.21695 4.05762 7.82034 4.05762 7.41356 4.06779ZM15.3763 4.05762C15.4373 4.65762 15.4475 5.25762 15.4068 5.84745C15.3966 5.90847 15.3864 6.0305 15.3864 6.09152C15.7729 6.08135 16.1695 6.11186 16.5559 6.07118C16.5763 6.02033 16.617 5.90847 16.6373 5.84745C16.7186 5.24745 16.7085 4.64745 16.5763 4.05762C16.1797 4.05762 15.7729 4.05762 15.3763 4.05762ZM11.8169 5.71525C11.3898 5.83728 11.2373 6.42711 11.5627 6.7322C11.8576 7.06779 12.478 6.91525 12.5898 6.48813C12.7525 6.04067 12.2542 5.55254 11.8169 5.71525ZM7.42373 6.11186C7.62712 6.94576 8.0339 7.72881 8.6339 8.33898C9.49831 9.24406 10.7492 9.77288 12 9.75254C13.4746 9.77288 14.9186 9.0305 15.7831 7.8305C15.7627 7.74915 15.7119 7.59661 15.6915 7.51525C15.7525 7.3322 15.9356 7.37288 16.0881 7.36271C16.2305 7.08813 16.3525 6.80338 16.4542 6.51864C16.0881 6.52881 15.7119 6.4983 15.3458 6.52881C15.1932 6.83389 15.1932 7.21017 15.061 7.52542C15.0102 7.73898 14.7763 7.8 14.6034 7.89152C12.8542 8.74576 10.6678 8.69491 9.01017 7.66779C8.77627 7.17966 8.71525 6.64067 8.61356 6.11186C8.21695 6.10169 7.82034 6.10169 7.42373 6.11186ZM10.1797 9.83389C10.1797 10.1797 10.1695 10.5153 10.1695 10.861C11.3797 10.7695 12.6 10.7695 13.8203 10.861C13.8203 10.5153 13.8305 10.1695 13.8407 9.83389C12.661 10.2712 11.3492 10.2814 10.1797 9.83389ZM2.97966 13.1085C2.98983 13.8203 3.1017 14.5322 3.15254 15.2542C3.21356 15.6102 3.15254 15.9966 3.29492 16.3322C3.81356 16.5458 4.37288 16.6271 4.92203 16.678C4.95254 16.1186 4.69831 15.4475 5.12542 14.9898C5.45085 14.5729 6.02034 14.6136 6.48814 14.6339C6.32542 13.6475 6.43729 12.6305 6.81356 11.7051C6.14237 11.5322 5.49153 11.1458 4.77966 11.2068C3.80339 11.2475 2.95932 12.1424 2.97966 13.1085ZM9.30508 11.3695C9.54915 12.4576 9.85424 13.5356 10.1085 14.6339C11.3695 14.6542 12.6305 14.6542 13.8915 14.6339C14.1458 13.5458 14.4407 12.4576 14.6949 11.3695C12.9051 11.1254 11.0847 11.1152 9.30508 11.3695ZM17.1864 11.7152C17.5627 12.6305 17.6746 13.6475 17.5119 14.6339C17.9492 14.6237 18.478 14.6034 18.7932 14.9797C19.2203 15.4373 19.0068 16.1085 19.0271 16.6678C19.5763 16.6373 20.1254 16.5356 20.6441 16.3424C20.7864 16.322 20.7763 16.1593 20.7864 16.0576C20.8576 15.1119 20.9695 14.1661 21.0305 13.2102C21.0814 12.2644 20.3492 11.3695 19.4136 11.2271C18.6305 11.0847 17.9186 11.5119 17.1864 11.7152ZM7.28136 11.7661C6.80339 12.6305 6.75254 13.6678 6.91525 14.6237C7.84068 14.6237 8.77627 14.6339 9.70169 14.6339C9.42712 13.5661 9.17288 12.4881 8.88814 11.4203C8.35932 11.5424 7.81017 11.6136 7.28136 11.7661ZM14.2983 14.6339C15.2237 14.6136 16.1593 14.6441 17.0847 14.6237C17.2576 13.6576 17.1763 12.6305 16.7288 11.7458C16.1898 11.6237 15.6508 11.522 15.1119 11.4203C14.8169 12.4881 14.5627 13.5661 14.2983 14.6339ZM5.71525 15.0814C5.42034 15.1627 5.25763 15.4678 5.29831 15.7627C5.4 18.1729 5.5017 20.5729 5.62373 22.983C5.60339 23.339 5.94915 23.6237 6.29492 23.5932C10.0983 23.583 13.9017 23.5932 17.7051 23.583C18.0814 23.5932 18.3356 23.2271 18.3051 22.8712C18.3966 20.6644 18.5085 18.4576 18.6 16.261C18.6 15.9152 18.7322 15.478 18.4373 15.2136C18.2746 15.0305 18.0102 15.061 17.7966 15.0508C14.1356 15.0508 10.4644 15.0508 6.80339 15.0508C6.43729 15.061 6.07119 15.0102 5.71525 15.0814ZM3.2339 16.7593C3.1322 17.878 3.06102 18.9966 3 20.1254C3.72203 20.522 4.42373 20.939 5.14576 21.3356C5.09492 19.922 5.01356 18.5186 4.96271 17.1051C4.37288 17.0441 3.79322 16.9322 3.2339 16.7593ZM18.9661 17.0949C18.9051 18.5288 18.8339 19.9525 18.7831 21.3763C19.5254 20.9593 20.2576 20.5322 21.0102 20.1153C20.9492 18.9864 20.8678 17.8678 20.7763 16.739C20.1763 16.922 19.5763 17.0237 18.9661 17.0949ZM2.97966 20.5729C3.01017 21.9153 3.98644 23.1356 5.28814 23.4915C5.19661 22.9322 5.17627 22.3627 5.15593 21.8034C4.41356 21.3966 3.7017 20.9695 2.97966 20.5729ZM18.7932 21.8542C18.7017 22.4034 18.7729 22.9729 18.6203 23.522C18.9864 23.4 19.3627 23.2678 19.678 23.0339C20.4814 22.4847 20.9797 21.539 21.0203 20.5729C20.278 20.9898 19.5254 21.4068 18.7932 21.8542Z" fill="#1C2436"/>
<path d="M2.73563 2.85762C3.7119 2.58304 4.7797 2.75592 5.64411 3.27457C5.6136 3.32542 5.56275 3.40677 5.53224 3.45762C5.50173 3.4983 5.45089 3.57965 5.43055 3.6305C4.80004 3.2644 4.06783 3.07118 3.33563 3.17287C2.18648 3.27457 1.12885 4.06779 0.681394 5.13559C0.437326 5.68474 0.376309 6.30508 0.437326 6.89491C0.56953 7.92203 1.22038 8.85762 2.12546 9.35592C3.04072 9.8644 4.20004 9.88474 5.1458 9.43728C5.81699 9.14237 6.29495 8.57287 6.70173 7.98304C7.078 8.13559 7.45428 8.30847 7.82038 8.47118C7.86105 8.49152 7.95258 8.5322 8.00343 8.55253C7.95258 8.68474 7.90173 8.80677 7.84072 8.93898C7.50512 8.78643 7.1797 8.64406 6.84411 8.48135C6.15258 9.48813 4.98309 10.1797 3.74241 10.1695C2.25766 10.2203 0.823767 9.24406 0.264445 7.87118C-0.183013 6.79321 -0.0914874 5.50169 0.528852 4.51525C1.02716 3.70169 1.83055 3.11186 2.73563 2.85762Z" fill="#1C2436"/>
<path d="M10.7085 3.29491C11.2474 3.06101 11.8881 3.6 11.8068 4.16949C11.7559 4.63729 11.2474 5.01356 10.7796 4.86101C10.4237 4.76949 10.1695 4.4339 10.1593 4.06779C10.1593 3.7322 10.383 3.40678 10.7085 3.29491ZM10.8101 3.69152C10.5254 3.80339 10.4847 4.24067 10.7491 4.40339C10.9424 4.5661 11.2576 4.45423 11.3593 4.23051C11.5424 3.91525 11.1254 3.50847 10.8101 3.69152Z" fill="#1C2436"/>
<path d="M12.7322 3.2949C13.1695 3.11185 13.6983 3.41693 13.8102 3.86439C13.9525 4.32202 13.5763 4.82032 13.1186 4.88134C12.6102 4.9627 12.122 4.46439 12.1932 3.96609C12.2441 3.661 12.4576 3.3966 12.7322 3.2949ZM12.8339 3.69151C12.5593 3.80337 12.5085 4.24066 12.7729 4.39321C13.0169 4.60676 13.4441 4.37287 13.4237 4.05761C13.4441 3.78304 13.0881 3.54914 12.8339 3.69151Z" fill="#1C2436"/>
<path d="M1.84069 6.91525C2.11527 6.90508 2.38984 6.91525 2.66442 6.92542C2.65425 7.05763 2.64408 7.18983 2.64408 7.32203C2.3695 7.34237 2.08476 7.3322 1.81018 7.31186C1.82035 7.17966 1.83052 7.04746 1.84069 6.91525Z" fill="#1C2436"/>
<path d="M3.44751 6.92542C3.70175 6.91525 3.94581 6.89492 4.20005 6.90508C4.35259 6.97627 4.2509 7.17966 4.28141 7.31186C4.00683 7.32203 3.72209 7.32203 3.44751 7.31186C3.44751 7.17966 3.44751 7.05763 3.44751 6.92542Z" fill="#1C2436"/>
<path d="M5.07458 6.91524C5.33899 6.90507 5.61357 6.8949 5.87797 6.8949C5.88814 7.0271 5.88814 7.16947 5.89831 7.31185C5.62374 7.32202 5.35933 7.33219 5.08475 7.34235C5.08475 7.19998 5.08475 7.05761 5.07458 6.91524Z" fill="#1C2436"/>
<path d="M18.0916 9.76272C18.3661 9.74238 18.6407 9.74238 18.9153 9.76272C18.9153 9.89492 18.9255 10.0271 18.9255 10.1492C18.6509 10.1695 18.3661 10.1695 18.0916 10.1492C18.0916 10.0271 18.0916 9.89492 18.0916 9.76272Z" fill="#1C2436"/>
<path d="M19.739 9.76272C20.0034 9.75255 20.278 9.75255 20.5525 9.77289C20.5525 9.9051 20.5525 10.0373 20.5525 10.1695C20.2678 10.1797 19.9932 10.1797 19.7186 10.1695C19.7186 10.0271 19.7288 9.89493 19.739 9.76272Z" fill="#1C2436"/>
<path d="M21.3662 9.75253C21.6306 9.7627 21.895 9.7627 22.1594 9.7627C22.1594 9.90508 22.1594 10.0474 22.1594 10.1797C21.8848 10.1797 21.6102 10.1797 21.3458 10.1593C21.356 10.0271 21.356 9.88474 21.3662 9.75253Z" fill="#1C2436"/>
<path d="M10.3831 12.2542C11.461 12.2542 12.539 12.2644 13.617 12.2542C13.617 12.3864 13.617 12.5186 13.617 12.6509C12.539 12.6407 11.461 12.6509 10.3831 12.6509C10.3729 12.5186 10.3831 12.3864 10.3831 12.2542Z" fill="#1C2436"/>
<path d="M10.7899 13.5864C11.5933 13.5864 12.3967 13.5864 13.2103 13.5864C13.2103 13.7186 13.2103 13.8508 13.2103 13.983C12.4069 13.983 11.5933 13.9729 10.7899 13.983C10.7899 13.8407 10.7899 13.7085 10.7899 13.5864Z" fill="#1C2436"/>
<path d="M11.5424 17.9593C12.356 17.6847 13.2814 18.2847 13.3729 19.1288C13.5051 19.9322 12.8136 20.7559 11.9899 20.7356C11.2882 20.7864 10.6271 20.2068 10.5458 19.5153C10.4339 18.8441 10.8915 18.1525 11.5424 17.9593ZM11.6238 18.3458C11.156 18.5085 10.8407 19.0271 10.9526 19.5254C11.0339 20.0136 11.5119 20.3797 12 20.3593C12.6407 20.3492 13.1593 19.6475 12.9458 19.0373C12.7932 18.478 12.1526 18.1424 11.6238 18.3458Z" fill="#1C2436"/>
<path d="M10.1594 0.793202C10.6679 0.559304 11.2374 0.44744 11.7967 0.416931C11.8069 0.84405 11.7967 1.261 11.7865 1.68812C11.2374 1.71863 10.6984 1.82032 10.1696 1.97286C10.1798 1.57625 10.1798 1.17964 10.1594 0.793202Z" fill="#4DF189"/>
<path d="M12.1932 0.406769C12.7424 0.437277 13.2915 0.538972 13.8 0.762701C13.8915 1.14914 13.8 1.56609 13.8305 1.9627C13.3017 1.79999 12.7627 1.70846 12.2136 1.67796C12.2136 1.26101 12.2034 0.833887 12.1932 0.406769Z" fill="#4DF189"/>
<path d="M7.53564 3.661C7.89158 2.52202 8.71531 1.56609 9.74242 0.976257C9.75259 1.3627 9.75259 1.73897 9.74242 2.12541C9.48819 2.24744 9.22378 2.34914 9.00005 2.51185C8.817 2.86778 8.76615 3.28473 8.66446 3.67117C8.29836 3.65083 7.91192 3.65083 7.53564 3.661Z" fill="#4DF189"/>
<path d="M14.2475 0.976257C15.2746 1.56609 16.0983 2.52202 16.4543 3.661C16.078 3.661 15.7017 3.661 15.3153 3.65083C15.2237 3.26439 15.1729 2.85761 14.9898 2.50168C14.7559 2.3288 14.4915 2.23727 14.2373 2.11524C14.2373 1.7288 14.2373 1.35253 14.2475 0.976257Z" fill="#4DF189"/>
<path d="M10.8102 3.69151C11.1255 3.50846 11.5424 3.92541 11.3594 4.24067C11.2577 4.46439 10.9526 4.57626 10.7492 4.41355C10.4848 4.24067 10.5255 3.80338 10.8102 3.69151Z" fill="#4DF189"/>
<path d="M12.8339 3.69153C13.0881 3.54915 13.4339 3.77288 13.4237 4.05763C13.4441 4.37288 13.017 4.60678 12.7729 4.39322C12.5187 4.24068 12.5593 3.81356 12.8339 3.69153Z" fill="#4DF189"/>
<path d="M11.817 5.71524C12.2645 5.55253 12.7526 6.04067 12.5899 6.48812C12.478 6.92541 11.8577 7.07795 11.5628 6.73219C11.2272 6.42711 11.3899 5.82711 11.817 5.71524Z" fill="#4DF189"/>
<path d="M15.4068 5.8576C15.8136 5.8576 16.2204 5.8576 16.6373 5.8576C16.617 5.90845 16.5763 6.02032 16.556 6.08133C16.1695 6.12201 15.7729 6.0915 15.3865 6.10167C15.3865 6.04066 15.3966 5.91862 15.4068 5.8576Z" fill="#4DF189"/>
<path d="M7.42383 6.11185C7.82044 6.11185 8.21705 6.11185 8.61366 6.11185C8.70518 6.64066 8.77637 7.17964 9.01027 7.66778C10.6781 8.68473 12.8645 8.74575 14.6035 7.89151C14.7662 7.78981 15.0103 7.73897 15.0611 7.52541C15.2035 7.21015 15.1933 6.83388 15.3459 6.5288C15.712 6.49829 16.0882 6.51863 16.4543 6.51863C16.3526 6.81354 16.2306 7.09829 16.0882 7.36269C15.9357 7.37286 15.7425 7.33219 15.6916 7.51524C15.712 7.59659 15.7628 7.74914 15.7831 7.83049C14.9289 9.03049 13.4747 9.77286 12.0001 9.75253C10.7493 9.76269 9.50857 9.23388 8.634 8.33897C8.034 7.71863 7.62722 6.93558 7.42383 6.11185Z" fill="#4DF189"/>
<path d="M10.1797 9.83389C11.3492 10.2814 12.6713 10.261 13.8407 9.83389C13.8306 10.1797 13.8306 10.5152 13.8204 10.861C12.6102 10.7593 11.3899 10.7695 10.1696 10.861C10.1696 10.5152 10.1696 10.1797 10.1797 9.83389Z" fill="#4DF189"/>
<path d="M7.28141 11.7661C7.81023 11.6136 8.35938 11.5322 8.88819 11.4305C9.17294 12.4983 9.42718 13.5763 9.70175 14.6441C8.77633 14.6441 7.84073 14.6339 6.91531 14.6339C6.7526 13.678 6.80345 12.6305 7.28141 11.7661Z" fill="#4DF189"/>
<path d="M14.2983 14.6339C14.5729 13.5661 14.817 12.4881 15.1119 11.4203C15.6509 11.522 16.2 11.6237 16.7288 11.7457C17.1661 12.6305 17.2577 13.6576 17.0848 14.6237C16.1492 14.644 15.2238 14.6237 14.2983 14.6339Z" fill="#4DF189"/>
<path d="M9.31527 2.79661C10.9424 1.86102 13.0576 1.87119 14.6848 2.79661C15.0102 3.85424 15.0915 4.98305 14.9695 6.08136C14.3187 6.08136 13.678 6.08136 13.0271 6.08136C12.8746 5.74576 12.6509 5.41017 12.2746 5.31864C11.6848 5.12542 11.0339 5.59322 10.9729 6.19322C10.8814 6.87458 11.6136 7.51525 12.2746 7.29153C12.6509 7.2 12.8746 6.85424 13.0271 6.52881C13.6475 6.52881 14.2678 6.52881 14.8983 6.52881C14.8271 6.81356 14.7559 7.09831 14.6848 7.38305C13.0576 8.30848 10.9424 8.30848 9.31527 7.38305C8.85764 5.88814 8.85764 4.27119 9.31527 2.79661ZM10.7085 3.29492C10.3831 3.40678 10.1593 3.7322 10.1593 4.0678C10.1797 4.42373 10.4339 4.76949 10.7797 4.86102C11.2373 5.01356 11.7458 4.63729 11.8068 4.16949C11.8881 3.58983 11.2475 3.06102 10.7085 3.29492ZM12.7322 3.29492C12.4475 3.39661 12.2339 3.67119 12.1932 3.9661C12.1119 4.47458 12.6102 4.96271 13.1187 4.88136C13.5763 4.82034 13.9526 4.32203 13.8102 3.86441C13.7085 3.41695 13.1695 3.11187 12.7322 3.29492Z" fill="#4DF189"/>
<path d="M6.14238 4.30169C6.26442 3.90508 6.73221 3.86441 7.07798 3.78305C6.85425 4.62712 6.86442 5.52203 7.06781 6.37627C6.73221 6.29491 6.25425 6.26441 6.14238 5.8678C6.09154 5.34915 6.09154 4.82034 6.14238 4.30169Z" fill="#4DF189"/>
<path d="M16.9323 3.79321C17.278 3.8644 17.7356 3.90508 17.8577 4.29152C17.9085 4.81016 17.9085 5.33898 17.8577 5.85762C17.7458 6.25423 17.2678 6.29491 16.9323 6.35592C17.1356 5.52203 17.1458 4.63728 16.9323 3.79321Z" fill="#4DF189"/>
<path d="M7.41362 4.06779C7.81023 4.06779 8.21701 4.06779 8.61362 4.05762C8.56277 4.5966 8.54243 5.14575 8.58311 5.69491C8.16616 5.69491 7.74921 5.69491 7.34243 5.69491C7.29158 5.14575 7.30175 4.5966 7.41362 4.06779Z" fill="#4DF189"/>
<path d="M15.3763 4.05762C15.773 4.05762 16.1797 4.05762 16.5763 4.06779C16.7085 4.65762 16.7085 5.26779 16.6374 5.85762C16.2306 5.85762 15.8238 5.85762 15.4069 5.85762C15.4475 5.25762 15.4374 4.65762 15.3763 4.05762Z" fill="#4DF189"/>
<path d="M2.97971 13.1085C2.96954 12.1322 3.80344 11.2475 4.77971 11.2068C5.50174 11.1458 6.14242 11.5322 6.8136 11.7051C6.43733 12.6305 6.32547 13.6475 6.48818 14.6339C6.02038 14.6237 5.45089 14.5831 5.12547 14.9898C4.69835 15.4576 4.94242 16.1186 4.92208 16.678C4.37293 16.6271 3.8136 16.5458 3.29496 16.3322C3.15259 15.9966 3.2136 15.6102 3.15259 15.2542C3.10174 14.5424 2.98988 13.8305 2.97971 13.1085Z" fill="#4DF189"/>
<path d="M9.30518 11.3695C11.0848 11.1153 12.9052 11.1254 14.695 11.3593C14.4509 12.4576 14.1459 13.5356 13.8916 14.6237C12.6306 14.6441 11.3696 14.6441 10.1086 14.6237C9.85433 13.5458 9.54924 12.4678 9.30518 11.3695ZM10.3831 12.2542C10.3831 12.3865 10.3831 12.5187 10.3831 12.6509C11.4611 12.6509 12.5391 12.6407 13.617 12.6509C13.617 12.5187 13.617 12.3865 13.617 12.2542C12.5391 12.2644 11.4611 12.2644 10.3831 12.2542ZM10.7899 13.5865C10.7899 13.7187 10.7899 13.8509 10.7899 13.9831C11.5933 13.9729 12.4069 13.9831 13.2103 13.9831C13.2103 13.8509 13.2103 13.7187 13.2103 13.5865C12.3967 13.5865 11.5933 13.5865 10.7899 13.5865Z" fill="#4DF189"/>
<path d="M17.1865 11.7153C17.9187 11.5119 18.6306 11.0848 19.4136 11.2271C20.3492 11.3695 21.0814 12.2746 21.0306 13.2102C20.9696 14.1559 20.8577 15.1017 20.7865 16.0576C20.7662 16.1593 20.7865 16.322 20.6442 16.3424C20.1255 16.5356 19.5764 16.6373 19.0272 16.6678C18.9967 16.1085 19.2204 15.4373 18.7933 14.9797C18.4882 14.5932 17.9594 14.6237 17.5119 14.6339C17.6645 13.6475 17.5628 12.6305 17.1865 11.7153Z" fill="#4DF189"/>
<path d="M3.23394 16.7593C3.79326 16.9424 4.37292 17.0542 4.95258 17.1051C5.0136 18.5186 5.08478 19.922 5.13563 21.3356C4.4136 20.939 3.7119 20.522 2.98987 20.1254C3.06105 18.9966 3.13224 17.878 3.23394 16.7593Z" fill="#4DF189"/>
<path d="M18.9662 17.0949C19.5763 17.0237 20.1763 16.922 20.7662 16.739C20.8577 17.8678 20.9391 18.9864 21.0001 20.1153C20.2577 20.5322 19.5153 20.9593 18.7729 21.3763C18.834 19.9525 18.9052 18.5186 18.9662 17.0949Z" fill="#4DF189"/>
<path d="M2.97974 20.5729C3.71194 20.9695 4.4238 21.3966 5.14584 21.8034C5.17635 22.3729 5.18652 22.9322 5.27804 23.4915C3.98652 23.1356 3.01024 21.9152 2.97974 20.5729Z" fill="#4DF189"/>
<path d="M18.7932 21.8542C19.5254 21.4068 20.278 20.9898 21.0204 20.5729C20.9797 21.539 20.4915 22.4847 19.678 23.0339C19.3627 23.2678 18.9865 23.4 18.6204 23.522C18.7729 22.9729 18.7017 22.4034 18.7932 21.8542Z" fill="#4DF189"/>
<path d="M0.681392 5.13559C1.12885 4.06779 2.18648 3.27457 3.3458 3.1627C4.06783 3.06101 4.81021 3.25423 5.44071 3.62033C5.47122 3.57965 5.52207 3.4983 5.54241 3.44745C5.69495 3.54914 5.84749 3.65084 5.98987 3.75253C5.6136 4.12881 5.69495 4.68813 5.68478 5.17626C5.68478 5.57287 5.66444 6.0305 5.95936 6.34576C6.26444 6.70169 6.77292 6.67118 7.1797 6.84406C7.34241 7.01694 7.4136 7.26101 7.51529 7.47457C7.60682 7.81016 7.69834 8.13559 7.83054 8.46101C7.45427 8.2983 7.08817 8.12542 6.7119 7.97287C6.30512 8.5627 5.82716 9.1322 5.15597 9.42711C4.21021 9.88474 3.04071 9.8644 2.12546 9.35592C1.22038 8.85762 0.569528 7.92203 0.437324 6.89491C0.366138 6.30508 0.427155 5.68474 0.681392 5.13559ZM1.84071 6.91525C1.83054 7.04745 1.82038 7.17965 1.81021 7.31186C2.08478 7.3322 2.36953 7.34237 2.6441 7.32203C2.6441 7.18982 2.65427 7.05762 2.66444 6.92542C2.38987 6.90508 2.11529 6.90508 1.84071 6.91525ZM3.44749 6.92542C3.44749 7.05762 3.44749 7.18982 3.44749 7.31186C3.72207 7.32203 4.00682 7.32203 4.28139 7.31186C4.25088 7.17965 4.35258 6.97626 4.20004 6.90508C3.9458 6.89491 3.70173 6.90508 3.44749 6.92542ZM5.07461 6.91525C5.07461 7.05762 5.08478 7.18982 5.08478 7.3322C5.35936 7.32203 5.62376 7.32203 5.89834 7.30169C5.88817 7.15932 5.878 7.02711 5.878 6.88474C5.6136 6.90508 5.34919 6.90508 5.07461 6.91525Z" fill="#EBFA9E"/>
<path d="M18.7627 6.7627C20.0644 6.06101 21.8136 6.3966 22.7695 7.52541C23.6543 8.51185 23.8475 10.0474 23.2271 11.2169C22.9322 11.8271 22.4237 12.2949 21.8441 12.6305C21.8543 12.661 21.8848 12.7119 21.8949 12.7424C21.8339 12.9458 21.6102 12.9661 21.4373 13.0068C21.3865 11.9186 20.5119 10.9525 19.4339 10.7898C18.6204 10.6474 17.878 11.0542 17.1254 11.2881C17.0543 11.1152 16.9831 10.9424 16.9119 10.7695C16.9831 10.739 17.0543 10.7186 17.1254 10.6881C16.9831 10.2203 17.0034 9.74236 16.9526 9.2644C16.7695 8.77626 16.4949 8.3288 16.2814 7.85084C16.617 7.95253 16.9627 8.05423 17.3085 8.14575C17.6949 7.61694 18.1322 7.06779 18.7627 6.7627ZM18.0915 9.7627C18.0915 9.8949 18.0915 10.0271 18.0915 10.1593C18.3661 10.1695 18.6509 10.1695 18.9254 10.1593C18.9254 10.0271 18.9153 9.8949 18.9153 9.77287C18.6407 9.74236 18.3661 9.75253 18.0915 9.7627ZM19.739 9.7627C19.7288 9.8949 19.7187 10.0271 19.7085 10.1593C19.9932 10.1797 20.2678 10.1797 20.5424 10.1593C20.5424 10.0271 20.5424 9.8949 20.5424 9.7627C20.278 9.75253 20.0034 9.74236 19.739 9.7627ZM21.3661 9.75253C21.3559 9.88474 21.3458 10.0271 21.3458 10.1593C21.6204 10.1695 21.8848 10.1797 22.1593 10.1797C22.1593 10.0373 22.1593 9.8949 22.1593 9.7627C21.8949 9.75253 21.6305 9.75253 21.3661 9.75253Z" fill="#EBFA9E"/>
<path d="M5.71532 15.0814C6.07125 15.0102 6.44753 15.061 6.80346 15.061C10.4645 15.0509 14.1357 15.061 17.7967 15.061C18.0204 15.0712 18.2746 15.0407 18.4374 15.2237C18.7323 15.4881 18.6102 15.9254 18.6001 16.2712C18.4984 18.478 18.3967 20.6746 18.3052 22.8814C18.3357 23.2271 18.0713 23.6034 17.7052 23.5932C13.9018 23.5932 10.0984 23.5932 6.29498 23.6034C5.94922 23.6339 5.60346 23.3492 5.6238 22.9932C5.50176 20.5831 5.3899 18.1831 5.29837 15.7729C5.24753 15.4678 5.42041 15.1627 5.71532 15.0814ZM11.5424 17.9593C10.8916 18.1525 10.4441 18.8441 10.556 19.5153C10.6475 20.2068 11.2984 20.7763 12.0001 20.7356C12.8238 20.7559 13.5052 19.9322 13.3831 19.1288C13.2814 18.2847 12.3458 17.6847 11.5424 17.9593Z" fill="#E7D6FF"/>
<path d="M11.6238 18.3458C12.1526 18.1424 12.8034 18.478 12.9458 19.0271C13.1594 19.6373 12.6407 20.3491 12 20.3491C11.5119 20.3797 11.0339 20.0034 10.9526 19.5152C10.8407 19.0271 11.1458 18.5085 11.6238 18.3458Z" fill="#E7D6FF"/>
</svg>
