<svg width="70" height="70" viewBox="0 0 70 70" fill="none" xmlns="http://www.w3.org/2000/svg">
<circle cx="35" cy="35" r="35" fill="white"/>
<g clip-path="url(#clip0_224_1212)">
<path d="M42.3838 32.1345L33.3082 41.2099C32.661 41.8573 31.611 41.8573 30.9637 41.2099L26.6164 36.8628C25.9691 36.2154 25.9691 35.1656 26.6164 34.5181C27.2639 33.871 28.3141 33.871 28.961 34.5181L32.1361 37.6931L40.0392 29.7899C40.6864 29.1427 41.7364 29.1427 42.3838 29.7899C43.0309 30.4371 43.0309 31.4872 42.3838 32.1345ZM34.4996 18.7363C30.0305 21.3753 25.3557 23.3723 20.312 24.7541V32.2765C20.312 46.3897 32.5179 52.2639 34.4996 52.2639C36.4816 52.2639 48.6879 46.3897 48.6879 32.2765V24.7541C43.9308 23.4507 38.9541 21.3664 34.4996 18.7363Z" fill="#4DF189"/>
<path d="M33.3081 41.2101L42.3837 32.1347C43.0308 31.4873 43.0308 30.4372 42.3837 29.7901C41.7363 29.1429 40.6863 29.1429 40.0391 29.7901L32.136 37.6933L28.9608 34.5182C28.3139 33.8712 27.2638 33.8712 26.6163 34.5182C25.969 35.1657 25.969 36.2156 26.6163 36.863L30.9636 41.2101C31.6109 41.8574 32.6609 41.8574 33.3081 41.2101Z" fill="#EBFA9E"/>
<path d="M48.8822 24.0437C44.0667 22.7243 39.2228 20.6697 34.8743 18.1023C34.6433 17.9659 34.3567 17.9659 34.1257 18.1023C29.6518 20.7435 25.0696 22.6869 20.1174 24.0437C19.7974 24.1313 19.5757 24.4221 19.5757 24.7538V32.2765C19.5757 40.0232 23.1494 45.1509 26.1475 48.0884C29.3752 51.251 33.1349 53 34.5 53C35.8649 53 39.6247 51.251 42.8523 48.0884C45.8504 45.151 49.4239 40.0232 49.4239 32.2765V24.7538C49.4239 24.4221 49.2022 24.1313 48.8822 24.0437ZM47.9515 32.2764C47.9515 39.5118 44.6182 44.2966 41.8218 47.0366C38.6478 50.1466 35.2542 51.5274 34.5 51.5274C33.7458 51.5274 30.352 50.1466 27.178 47.0366C24.3816 44.2965 21.0482 39.5118 21.0482 32.2764V25.3127C25.784 23.9681 30.1944 22.0915 34.5001 19.5894C38.6984 22.0251 43.3288 23.995 47.9515 25.3124V32.2764Z" fill="#1C2436"/>
<path d="M27.9739 25.2303C27.8249 24.8519 27.3974 24.666 27.019 24.8151C25.7037 25.3334 24.3538 25.8104 23.0066 26.233C22.6996 26.3294 22.4907 26.6137 22.4907 26.9354V29.7786C22.4907 30.1852 22.8204 30.5148 23.227 30.5148C23.6335 30.5148 23.9632 30.1852 23.9632 29.7786V27.4735C25.1717 27.0825 26.3789 26.65 27.5587 26.1851C27.9371 26.0361 28.123 25.6087 27.9739 25.2303Z" fill="#1C2436"/>
<path d="M29.3727 25.3701C29.4715 25.3701 29.5717 25.3502 29.6679 25.3082L29.6815 25.3024C30.0539 25.1391 30.2217 24.7055 30.0585 24.3332C29.8951 23.9607 29.459 23.7922 29.0869 23.9553L29.075 23.9604C28.7023 24.1232 28.534 24.5564 28.6968 24.929C28.8176 25.2056 29.0886 25.3701 29.3727 25.3701Z" fill="#1C2436"/>
<path d="M43.2719 41.7401C42.9316 41.5177 42.4754 41.6133 42.2528 41.9537C41.6461 42.8823 40.9343 43.7715 40.137 44.5964C39.4813 45.2747 38.7707 45.9068 38.0251 46.4753C37.7019 46.7218 37.6397 47.1837 37.8861 47.5071C38.0311 47.6971 38.2503 47.7971 38.4721 47.7971C38.6278 47.7971 38.7847 47.7479 38.918 47.6462C39.7222 47.0329 40.4885 46.3512 41.1955 45.6199C42.0576 44.7282 42.828 43.7657 43.4855 42.7591C43.708 42.4187 43.6122 41.9625 43.2719 41.7401Z" fill="#1C2436"/>
<path d="M36.3151 47.6298L36.2728 47.6547C35.921 47.8584 35.8007 48.3088 36.0044 48.6606C36.1409 48.8965 36.3881 49.0281 36.6423 49.0281C36.7674 49.0281 36.8944 48.9962 37.0104 48.9289L37.0591 48.9002C37.41 48.6947 37.5279 48.2438 37.3224 47.8929C37.1168 47.5421 36.6657 47.4245 36.3151 47.6298Z" fill="#1C2436"/>
<path d="M29.4817 33.9975C29.0296 33.5453 28.4284 33.2965 27.789 33.2965C27.1495 33.2965 26.5482 33.5454 26.096 33.9975C25.1627 34.931 25.1627 36.4499 26.096 37.3834L30.4434 41.7306C30.8955 42.1826 31.4967 42.4315 32.1362 42.4315C32.7757 42.4315 33.3769 42.1826 33.8291 41.7305L42.9046 32.6549C43.8378 31.7212 43.8378 30.2025 42.9044 29.2693C42.4523 28.8172 41.8511 28.5684 41.2115 28.5684C40.572 28.5684 39.9708 28.8173 39.5186 29.2693L32.1361 36.6518L29.4817 33.9975ZM40.5598 30.3106C40.7338 30.1366 40.9653 30.0408 41.2116 30.0408C41.4579 30.0408 41.6893 30.1366 41.8634 30.3106C42.2226 30.6698 42.2226 31.2545 41.8632 31.6139L32.7879 40.6893C32.614 40.8632 32.3824 40.959 32.1362 40.959C31.89 40.959 31.6584 40.8632 31.4844 40.6893L27.1372 36.3422C26.7778 35.9828 26.7778 35.3981 27.137 35.0388C27.3111 34.8649 27.5426 34.769 27.7889 34.769C28.0352 34.769 28.2666 34.8647 28.4406 35.0387L31.6155 38.2137C31.7536 38.3517 31.9408 38.4292 32.1361 38.4292C32.3313 38.4292 32.5185 38.3517 32.6566 38.2137L40.5598 30.3106Z" fill="#1C2436"/>
</g>
<defs>
<clipPath id="clip0_224_1212">
<rect width="35" height="35" fill="white" transform="translate(17 18)"/>
</clipPath>
</defs>
</svg>
