<svg width="131" height="130" viewBox="0 0 131 130" fill="none" xmlns="http://www.w3.org/2000/svg">
<g clip-path="url(#clip0_594_4405)">
<path d="M15.4379 9.34373C17.1645 8.58201 19.1957 10.3086 18.7895 12.1367C18.5356 13.914 16.1996 14.8281 14.8285 13.7109C13.2035 12.6445 13.6098 9.90233 15.4379 9.34373Z" fill="#1C2436"/>
<path d="M25.5436 9.34372C27.2701 8.582 29.3522 10.3593 28.8951 12.1875C28.6412 13.914 26.3561 14.8281 24.9342 13.7109C23.36 12.6445 23.7154 9.95309 25.5436 9.34372Z" fill="#1C2436"/>
<path d="M35.6995 9.34372C37.4261 8.582 39.5081 10.3593 39.0511 12.1875C38.7971 13.914 36.4612 14.8281 35.0901 13.7109C33.5159 12.6445 33.9221 9.90231 35.6995 9.34372Z" fill="#1C2436"/>
<path d="M55.5054 9.34373C56.6226 9.03904 57.7906 9.19139 58.9586 9.1406C77.0875 9.19139 95.1656 9.1406 113.295 9.1406C115.123 8.83592 116.849 10.7656 116.138 12.5429C115.681 13.9648 114.056 14.3203 112.736 14.2187C93.9468 14.2187 75.1578 14.2695 56.3687 14.1679C53.6773 14.2695 53.0172 10.1562 55.5054 9.34373Z" fill="#1C2436"/>
<path d="M13.8135 32.0938C18.1299 31.9414 22.4971 31.9414 26.8643 32.0938C29.5557 32.3477 29.6064 36.7148 26.915 37.0195C22.5478 37.1211 18.1807 37.1211 13.8135 37.0195C11.1221 36.7148 11.1221 32.3477 13.8135 32.0938Z" fill="#1C2436"/>
<path d="M34.8375 32.2969C36.4117 31.4844 38.4937 32.754 38.4429 34.5313C38.5445 36.3086 36.3609 37.6797 34.7867 36.7657C32.9586 36.004 32.9586 33.0586 34.8375 32.2969Z" fill="#1C2436"/>
<path d="M40.7775 40.7265C42.047 36.8164 46.2618 34.0742 50.3751 34.6328C54.4884 34.9883 58.0431 38.543 58.4493 42.6562C58.754 44.5351 58.2462 46.414 57.4337 48.1406C63.3243 53.9805 69.1134 59.9219 75.0548 65.7109C77.6954 64.4414 80.8439 64.5429 83.4337 65.8633C89.0704 60.2773 94.6056 54.6406 100.242 49.1054C98.6173 46.6172 98.0079 43.418 99.0743 40.625C100.547 36.3086 105.524 33.6172 109.942 34.8867C114.817 36.0039 118.016 41.6406 116.391 46.3633C115.02 51.2383 109.129 54.1836 104.457 52.1523C98.5157 57.789 92.879 63.7305 87.0392 69.4687C87.9532 71.3984 88.4103 73.582 87.9532 75.7148C87.2423 79.625 83.6876 82.7734 79.7267 83.0273C75.6134 83.4336 71.5001 80.6406 70.3322 76.6797C69.4689 74.1914 69.9259 71.3984 71.1954 69.1133C65.4064 63.3242 59.6173 57.5351 53.8283 51.7461C51.1876 53.1172 48.0392 53.168 45.3986 51.9492C40.3204 56.9765 35.2931 62.0547 30.215 67.082C31.8907 70.2305 31.6368 74.3437 29.3517 77.1367C27.1173 80.082 22.9532 81.3515 19.3986 80.1836C15.4376 78.9648 12.6447 74.8008 13.1017 70.6367C13.4064 66.3711 17.0626 62.7148 21.3282 62.4101C23.1564 62.1562 24.9845 62.7148 26.6603 63.4258C31.5861 58.4492 36.5626 53.4726 41.5392 48.5469C40.3204 46.1601 39.8126 43.3164 40.7775 40.7265ZM47.9884 39.8633C45.1954 40.7773 44.4337 44.8906 46.7697 46.7187C48.8517 48.6992 52.6603 47.5312 53.3204 44.7383C54.2853 41.7422 50.8829 38.5937 47.9884 39.8633ZM106.336 39.8633C104.406 40.5234 103.238 42.7578 103.797 44.6875C104.305 46.7695 106.59 48.1406 108.672 47.582C110.906 47.0742 112.379 44.4844 111.516 42.3008C110.856 40.2695 108.367 39.0508 106.336 39.8633ZM20.5157 67.793C17.7736 68.9101 17.3165 73.125 19.8048 74.75C22.09 76.5781 25.8478 75.0039 26.2032 72.1094C26.8634 69.0625 23.3087 66.3203 20.5157 67.793ZM77.34 70.2305C74.6993 71.2969 74.1408 75.2578 76.4259 77.0351C78.6095 79.0664 82.5704 77.6445 83.0275 74.6992C83.7384 71.6016 80.1329 68.7578 77.34 70.2305Z" fill="#1C2436"/>
<path d="M13.864 44.2812C18.0788 44.1289 22.2937 44.1797 26.5085 44.2305C28.4382 44.1797 29.7077 46.668 28.489 48.1914C27.5749 49.5625 25.7976 49.2578 24.4265 49.3086C20.7702 49.207 17.114 49.5117 13.4577 49.1563C11.0202 48.4453 11.3249 44.4844 13.864 44.2812Z" fill="#1C2436"/>
<path d="M97.0446 89.4258C97.0446 88.0039 98.3141 87.1914 99.5329 86.8867C100.904 87.1406 102.275 88.2578 102.021 89.832C101.92 91.1523 100.701 91.8633 99.5329 92.168C98.2633 91.9141 96.943 90.8984 97.0446 89.4258Z" fill="#1C2436"/>
<path d="M6.70312 8.07419C8.42969 5.68748 11.4766 4.8242 14.2695 5.0781C48.4453 5.12888 82.6211 5.0781 116.797 5.0781C119.691 4.92576 122.687 6.49998 124.008 9.08982C125.48 11.9336 124.77 15.2344 124.922 18.2812C84.957 18.2812 45.043 18.2812 5.07812 18.2812C5.28125 14.8789 4.41797 11.0195 6.70312 8.07419ZM15.4375 9.34373C13.6094 9.90232 13.2031 12.6445 14.8281 13.7109C16.1992 14.8281 18.5352 13.914 18.7891 12.1367C19.1953 10.3086 17.1133 8.58201 15.4375 9.34373ZM25.543 9.34373C23.7148 9.9531 23.3594 12.6445 24.9336 13.7109C26.3047 14.8281 28.5898 13.914 28.8945 12.1875C29.3516 10.3594 27.2695 8.58201 25.543 9.34373ZM35.6992 9.34373C33.8711 9.90232 33.5156 12.6445 35.0898 13.7109C36.4609 14.8281 38.7969 13.914 39.0508 12.1875C39.5078 10.3594 37.4766 8.58201 35.6992 9.34373ZM55.5039 9.34373C52.9648 10.1562 53.6758 14.2695 56.3164 14.1679C75.1055 14.2695 93.9453 14.1679 112.734 14.2187C114.055 14.3203 115.68 13.9648 116.137 12.5429C116.848 10.7656 115.121 8.83591 113.293 9.1406C95.1641 9.1406 77.0351 9.1406 58.957 9.1406C57.8398 9.19138 56.6211 9.03904 55.5039 9.34373Z" fill="#4DF189"/>
<path d="M106.335 39.8634C108.366 39.0509 110.855 40.2696 111.566 42.3517C112.429 44.5353 110.956 47.1251 108.722 47.6329C106.64 48.1915 104.355 46.8204 103.847 44.7384C103.187 42.7579 104.405 40.5235 106.335 39.8634Z" fill="#4DF189"/>
<path d="M102.121 70.2305C105.828 70.2305 109.535 70.2305 113.242 70.2305C113.293 88.4609 113.242 106.691 113.242 124.973C109.535 124.973 105.777 124.973 102.07 124.973C102.02 115.832 102.121 106.691 102.02 97.5508C102.07 96.1289 100.75 95.3164 99.5312 95.0117C99.5312 94.0977 99.5312 93.1836 99.5312 92.2695C100.699 91.9648 101.918 91.2539 102.02 89.9336C102.273 88.3594 100.902 87.2422 99.5312 86.9883C99.5312 85.7188 99.5312 84.5 99.5312 83.2305C100.648 82.9258 101.969 82.2148 102.02 80.8945C102.223 77.2383 102.02 73.7344 102.121 70.2305Z" fill="#4DF189"/>
<path d="M47.9876 39.8632C50.9329 38.5936 54.3352 41.7421 53.3196 44.7382C52.6595 47.5311 48.8509 48.6991 46.7688 46.7186C44.4329 44.8905 45.1438 40.7772 47.9876 39.8632Z" fill="#4DF189"/>
<path d="M45.2461 73.9883C48.9531 73.9883 52.7109 73.9883 56.418 73.9883C56.418 90.9492 56.418 107.91 56.418 124.922C52.7109 124.922 48.9531 124.922 45.2461 124.922C45.2461 107.961 45.2461 91 45.2461 73.9883Z" fill="#4DF189"/>
<path d="M20.5157 67.7929C23.2579 66.3202 26.8633 69.0624 26.2032 72.1093C25.8985 75.0038 22.0899 76.578 19.8047 74.7499C17.3672 73.1249 17.7735 68.91 20.5157 67.7929Z" fill="#4DF189"/>
<path d="M16.8086 102.07C20.5156 102.07 24.2734 102.07 27.9805 102.07C27.9805 109.688 27.9805 117.305 27.9805 124.922C24.2734 124.922 20.5156 124.922 16.8086 124.922C16.8086 117.305 16.8086 109.688 16.8086 102.07Z" fill="#4DF189"/>
<path d="M77.3392 70.2305C80.1322 68.7578 83.7377 71.6016 82.9759 74.6992C82.5697 77.6445 78.558 79.0664 76.3744 77.0352C74.14 75.2578 74.6986 71.2969 77.3392 70.2305Z" fill="#4DF189"/>
<path d="M79.2695 131.016C83.6447 131.016 87.1914 121.694 87.1914 110.195C87.1914 98.6966 83.6447 89.375 79.2695 89.375C74.8944 89.375 71.3477 98.6966 71.3477 110.195C71.3477 121.694 74.8944 131.016 79.2695 131.016Z" fill="#4DF189"/>
<path d="M127.969 125.023C124.77 124.82 121.57 125.023 118.371 124.922C118.371 120.555 118.371 116.188 118.371 111.82C121.824 112.125 125.684 111.516 127.918 108.621C130.152 106.133 130.102 102.629 130 99.5313C130 71.6016 130 43.6212 130 15.6915C130 13.4571 130.152 11.2227 129.441 9.08991C128.273 5.02741 124.922 1.72663 120.91 0.558664C118.422 -0.253836 115.781 0.0508513 113.242 7.00094e-05C79.7266 7.00094e-05 46.211 7.00094e-05 12.6954 7.00094e-05C7.5157 7.00094e-05 2.58992 3.45319 0.863358 8.37897C-0.152267 10.918 0.0508576 13.6602 0.0508576 16.3008C0.0508576 44.5352 0.0508576 72.8204 0.0508576 101.055C-0.101486 103.949 0.457108 107.047 2.58992 109.18C4.87508 111.719 8.48054 112.074 11.6798 111.871C11.7305 116.238 11.6798 120.606 11.6798 124.973C8.63289 124.973 5.58601 124.922 2.53914 125.023C0.914139 124.973 -0.355392 126.75 0.15242 128.273C0.507889 129.543 1.8282 130.152 3.04695 130.051C44.1798 130.051 85.3633 130.051 126.496 130.051C127.613 130.102 128.934 129.949 129.543 128.934C130.609 127.512 129.695 125.227 127.969 125.023ZM6.7032 8.07429C8.42976 5.68757 11.4766 4.82429 14.2696 5.07819C48.4454 5.12898 82.6212 5.07819 116.797 5.07819C119.691 4.92585 122.688 6.50007 124.008 9.08991C125.481 11.9337 124.77 15.2344 124.922 18.2813C84.9571 18.2813 45.043 18.2813 5.0782 18.2813C5.28133 14.879 4.41804 11.0196 6.7032 8.07429ZM27.9805 124.922C24.2735 124.922 20.5157 124.922 16.8087 124.922C16.8087 117.305 16.8087 109.688 16.8087 102.07C20.5157 102.07 24.2735 102.07 27.9805 102.07C27.9805 109.688 27.9805 117.305 27.9805 124.922ZM56.418 124.922C52.711 124.922 48.9532 124.922 45.2462 124.922C45.2462 107.961 45.2462 91.0001 45.2462 73.9883C48.9532 73.9883 52.711 73.9883 56.418 73.9883C56.418 91.0001 56.418 107.961 56.418 124.922ZM84.8555 124.922C81.1485 124.922 77.3907 124.922 73.6837 124.922C73.6837 115.121 73.6837 105.27 73.6837 95.4688C77.3907 95.4688 81.1485 95.4688 84.8555 95.4688C84.8555 105.32 84.8555 115.121 84.8555 124.922ZM113.293 124.922C109.586 124.922 105.828 124.922 102.121 124.922C102.121 117.508 102.121 110.094 102.121 102.68V78.6094C102.172 75.8165 102.07 73.0235 102.121 70.2305C105.828 70.2305 109.535 70.2305 113.242 70.2305C113.293 88.461 113.293 106.691 113.293 124.922ZM115.781 65.1524C110.551 65.1016 105.27 65.1524 100.039 65.1524C98.6173 65.0001 97.0938 66.0157 97.043 67.4883C96.9923 70.3829 96.9923 73.2774 96.9923 76.1719V102.68C96.9415 110.094 96.9923 117.508 96.9923 124.922C94.6055 124.922 92.2696 124.922 89.8829 124.922C89.8829 114.41 89.8829 103.898 89.8829 93.3868C90.0352 91.9141 88.918 90.3907 87.3946 90.3907C81.961 90.3399 76.5274 90.3399 71.0938 90.3907C69.5704 90.3399 68.4024 91.9141 68.6055 93.3868C68.6055 103.898 68.6055 114.41 68.6055 124.922C66.2188 124.922 63.8829 124.922 61.4962 124.922C61.4962 107.301 61.4962 89.7305 61.4962 72.1094C61.6993 70.586 60.5821 68.9102 58.9571 68.961C53.5743 68.9102 48.1407 68.9102 42.7071 68.961C41.2852 68.9102 40.1173 70.1797 40.168 71.6016C40.1173 89.3751 40.168 107.148 40.168 124.922C37.7813 124.922 35.4454 124.922 33.0587 124.922C33.0587 116.797 33.0587 108.672 33.0587 100.547C33.0587 99.5821 33.0587 98.4649 32.2969 97.754C31.4337 96.8907 30.1134 96.9922 28.9962 96.9922C24.0704 97.043 19.1446 96.9415 14.2188 97.043C12.8985 97.043 11.7305 98.211 11.7305 99.4805C11.629 101.918 11.7305 104.356 11.6798 106.742C10.004 106.641 8.12508 107.098 6.65242 106.031C5.53523 105.27 4.97664 103.898 5.0782 102.578C5.0782 76.1719 5.0782 49.7657 5.0782 23.3087C45.043 23.3087 84.9571 23.3087 124.922 23.3087C124.922 49.7149 124.922 76.1212 124.922 102.527C125.074 104.406 123.805 106.285 121.926 106.59C120.707 106.742 119.539 106.691 118.32 106.691C118.32 93.7422 118.32 80.8438 118.32 67.9454C118.473 66.5235 117.305 65.1524 115.781 65.1524Z" fill="#1C2436"/>
</g>
<defs>
<clipPath id="clip0_594_4405">
<rect width="130.051" height="130" fill="white"/>
</clipPath>
</defs>
</svg>
