<svg width="60" height="60" viewBox="0 0 60 60" fill="none" xmlns="http://www.w3.org/2000/svg">
<g clip-path="url(#clip0_376_2310)">
<path d="M24.7852 0H35.2031C35.8125 0.046875 36.3281 0.5625 36.3164 1.17188C36.3516 2.71875 36.3047 4.26562 36.3398 5.8125C38.543 6.38672 40.6641 7.27734 42.6328 8.41406C43.6055 7.44141 44.5898 6.45703 45.5625 5.48438C45.8672 5.19141 46.1836 4.83984 46.6289 4.81641C47.0391 4.75781 47.4141 4.99219 47.6953 5.27344C49.9688 7.53516 52.2305 9.80859 54.5039 12.0703C54.832 12.3867 55.207 12.75 55.1953 13.2422C55.2188 13.6758 54.9258 14.0273 54.6445 14.3203C53.625 15.3398 52.6055 16.3477 51.5977 17.3672C52.7344 19.3477 53.625 21.457 54.1992 23.6602C55.7461 23.6836 57.3047 23.6484 58.8516 23.6836C59.4609 23.6719 59.9531 24.1992 60.0117 24.7852V35.2031C59.9648 35.8008 59.4609 36.3281 58.8398 36.3164C57.293 36.3516 55.7461 36.3164 54.1992 36.3281C53.6133 38.5312 52.7227 40.6523 51.5859 42.6328C52.5586 43.582 53.5078 44.5547 54.4687 45.5039C54.8086 45.8438 55.2188 46.2305 55.1953 46.7461C55.207 47.1445 54.9492 47.4727 54.6797 47.7422C52.3359 50.0859 49.9922 52.4297 47.6484 54.7734C47.2148 55.2656 46.4062 55.3242 45.9375 54.8555C44.8125 53.7773 43.7344 52.6523 42.6211 51.5625C40.6406 52.6875 38.5312 53.5781 36.3281 54.1641C36.3164 55.7227 36.3398 57.2812 36.3164 58.8398C36.3164 59.4492 35.8008 59.9531 35.2148 60H24.7969C24.4688 59.9414 24.1289 59.8125 23.9297 59.5312C23.6836 59.2383 23.6836 58.8398 23.6719 58.4766C23.6719 57.0352 23.6719 55.6055 23.6719 54.1641C21.4805 53.5781 19.3711 52.6875 17.3906 51.5625C16.3242 52.6289 15.2578 53.6953 14.1914 54.7617C13.9102 55.043 13.5117 55.2656 13.1016 55.1836C12.6328 55.1367 12.3164 54.75 12.0117 54.4453C9.75 52.1719 7.47656 49.9102 5.21484 47.6367C4.72266 47.2031 4.66406 46.3945 5.14453 45.9258C6.22266 44.8008 7.35938 43.7227 8.44922 42.5859C7.30078 40.6289 6.43359 38.5078 5.84766 36.3281C4.28906 36.3164 2.73047 36.3398 1.17188 36.3164C0.5625 36.3164 0.0585938 35.8008 0.0117188 35.2031V24.7852C0.0585938 24.1875 0.574219 23.6602 1.18359 23.6719C2.74219 23.6484 4.28906 23.6719 5.84766 23.6602C6.43359 21.457 7.3125 19.3477 8.44922 17.3789C7.42969 16.3594 6.41016 15.3398 5.37891 14.3203C5.08594 14.0391 4.80469 13.6875 4.82813 13.2539C4.81641 12.8555 5.07422 12.5156 5.34375 12.2461C7.65234 9.92578 9.97266 7.59375 12.3047 5.27344C12.5625 5.02734 12.8672 4.80469 13.2422 4.81641C13.6758 4.79297 14.0273 5.07422 14.3203 5.36719C15.3398 6.38672 16.3594 7.40625 17.3789 8.42578C19.3477 7.28906 21.4688 6.39844 23.6719 5.8125C23.6836 4.38281 23.6719 2.95312 23.6719 1.52344C23.6836 1.16016 23.6836 0.773438 23.918 0.480469C24.1172 0.1875 24.457 0.0585938 24.7852 0ZM26.0156 2.34375C26.0039 3.83203 26.0391 5.32031 26.0039 6.80859C25.9922 7.38281 25.5 7.81641 24.9609 7.92188C22.6523 8.47266 20.4258 9.33984 18.3984 10.5703C17.9883 10.793 17.5898 11.1211 17.1094 11.0742C16.7578 11.0508 16.4766 10.8398 16.2422 10.6055C15.2461 9.60938 14.2617 8.625 13.2656 7.62891C11.3906 9.50391 9.50391 11.3789 7.62891 13.2656C8.625 14.2617 9.60938 15.2461 10.6055 16.2422C10.8398 16.4766 11.0625 16.7695 11.0742 17.1211C11.1094 17.6133 10.7812 18.0117 10.5703 18.4219C9.63281 19.957 8.92969 21.6211 8.37891 23.3203C8.20312 23.9414 8.0625 24.5742 7.86328 25.1836C7.72266 25.6875 7.20703 26.0156 6.69141 26.0039C5.23828 26.0156 3.78516 26.0039 2.33203 26.0039C2.33203 28.6641 2.33203 31.3125 2.33203 33.9727C3.82031 33.9844 5.30859 33.9609 6.79688 33.9844C7.37109 33.9844 7.82812 34.4648 7.93359 35.0039C8.33203 36.6211 8.84766 38.2266 9.58594 39.7148C9.94922 40.5938 10.5117 41.3789 10.9453 42.2344C11.2031 42.6914 11.0742 43.2773 10.6992 43.6289C9.67969 44.6719 8.63672 45.6914 7.61719 46.7227C9.49219 48.5977 11.3672 50.4727 13.2539 52.3594C14.3086 51.3164 15.3398 50.25 16.4062 49.2188C16.8281 48.7969 17.5078 48.8203 17.9766 49.1484C19.4062 50.0156 20.9062 50.7773 22.4883 51.3164C23.3672 51.6797 24.3047 51.832 25.207 52.125C25.7109 52.2773 26.0273 52.793 26.0039 53.3086C26.0156 54.75 26.0039 56.1914 26.0039 57.6445C28.6641 57.6445 31.3125 57.6445 33.9727 57.6445C33.9727 56.2031 33.9727 54.75 33.9727 53.3086C33.9492 52.793 34.2891 52.2656 34.793 52.125C35.6836 51.8438 36.6094 51.6797 37.4766 51.3281C38.9297 50.8359 40.3242 50.168 41.6367 49.3711C42.0234 49.1602 42.4102 48.8672 42.8789 48.9023C43.2305 48.9258 43.5117 49.1367 43.7578 49.3711C44.7539 50.3672 45.7383 51.3516 46.7344 52.3477C48.6094 50.4727 50.4844 48.5977 52.3711 46.7109C51.3398 45.6797 50.3086 44.6602 49.2891 43.6172C48.9375 43.2773 48.8203 42.7148 49.043 42.2695C49.4766 41.4141 50.0391 40.6289 50.4141 39.7383C51.1758 38.2148 51.6914 36.5977 52.0898 34.9453C52.207 34.3828 52.7109 33.9375 53.2969 33.9609C54.75 33.9492 56.1914 33.9609 57.6445 33.9609C57.6445 31.3008 57.6445 28.6523 57.6445 25.9922C56.1914 25.9922 54.75 26.0039 53.2969 25.9805C52.793 25.9922 52.2891 25.6523 52.1484 25.1484C51.8672 24.2695 51.7148 23.3672 51.375 22.5117C50.8945 21.0938 50.25 19.7227 49.4766 18.4336C49.2891 18.1055 49.0664 17.7891 48.9609 17.4258C48.8437 17.0039 49.0195 16.5586 49.3359 16.2656C50.3438 15.2461 51.3516 14.2383 52.3594 13.2305C50.4844 11.3555 48.6094 9.48047 46.7227 7.59375C45.6914 8.61328 44.6719 9.65625 43.6289 10.6758C43.207 11.1211 42.5156 11.1094 42.0352 10.7812C40.2891 9.70312 38.4141 8.83594 36.4453 8.26172C35.8711 8.09766 35.2734 7.98047 34.7109 7.78125C34.2539 7.61719 33.9727 7.13672 33.9727 6.65625C33.9609 5.21484 33.9727 3.76172 33.9727 2.32031C31.3242 2.34375 28.6758 2.34375 26.0156 2.34375Z" fill="#1C2436"/>
<path d="M28.8534 12.246C28.8183 11.6601 29.287 11.0859 29.8729 11.0273C30.5761 10.8984 31.2675 11.5312 31.2206 12.246C31.1737 12.7734 30.7753 13.2421 30.248 13.3125C29.5683 13.4648 28.9003 12.914 28.8534 12.246Z" fill="#1C2436"/>
<path d="M18.048 15.2461C20.2043 13.5 22.7355 12.2344 25.4308 11.5781C26.0402 11.4375 26.6613 11.8828 26.8019 12.4805C26.9308 13.1601 26.4152 13.7695 25.7707 13.8984C22.0675 14.8594 18.7277 17.1445 16.5129 20.2617C13.9699 23.7656 12.8918 28.3008 13.5949 32.5781C14.1574 36.3164 16.091 39.7969 18.88 42.3398C20.9425 40.2656 23.0402 38.2148 25.091 36.1172C24.0246 36.2109 22.9347 36.2695 21.88 36C19.6886 35.5195 17.7433 34.0312 16.7121 32.0273C15.7863 30.2812 15.5519 28.1719 16.091 26.2734C16.3136 25.4766 17.4386 25.2187 18.0011 25.8047C19.1261 26.9062 20.2394 28.043 21.3644 29.1562C22.173 28.9453 22.9699 28.7226 23.7668 28.5117C23.9894 27.7031 24.2004 26.9062 24.4113 26.0976C23.3918 25.0781 22.3722 24.0586 21.3527 23.0391C21.0949 22.7812 20.8019 22.5 20.755 22.125C20.6496 21.5742 21.0011 20.9648 21.5519 20.8125C23.1105 20.3789 24.8097 20.4609 26.3332 21.0117C28.3605 21.7383 30.048 23.3555 30.8566 25.3594C31.4543 26.7539 31.548 28.3125 31.3605 29.8008C33.1066 28.1484 34.759 26.4023 36.4816 24.7266C36.7511 24.4453 37.1379 24.3516 37.4894 24.2344C39.8449 23.4492 42.2004 22.6406 44.5558 21.8555C42.7511 18.6797 39.9269 16.0781 36.5519 14.6601C35.7785 14.2734 34.923 14.1211 34.1379 13.7812C33.6457 13.5703 33.3996 12.9961 33.4933 12.4805C33.6222 11.9883 34.0675 11.5898 34.5832 11.5781C35.0754 11.5781 35.5207 11.8125 35.9894 11.9297C39.7394 13.1484 43.0793 15.6094 45.3761 18.8086C47.6261 21.8906 48.9035 25.6641 48.9855 29.4844C49.0441 32.3555 48.4699 35.2383 47.2629 37.8398C45.3879 41.9531 41.9894 45.3398 37.8761 47.2031C33.505 49.2187 28.3488 49.4531 23.8136 47.8594C19.1965 46.2773 15.2472 42.8086 13.0675 38.4375C10.6535 33.7031 10.3957 27.9141 12.3761 22.9805C13.5363 19.9922 15.5285 17.2852 18.048 15.2461ZM24.5988 22.9805C25.2316 23.6367 25.8879 24.2695 26.5324 24.9141C26.8488 25.2187 26.9777 25.6992 26.8371 26.1328C26.5207 27.3398 26.1925 28.5469 25.8644 29.7422C25.759 30.1758 25.4074 30.5273 24.9738 30.6211C23.7668 30.9492 22.5597 31.2773 21.3527 31.5937C20.9308 31.7226 20.4621 31.582 20.1574 31.2773C19.5129 30.6562 18.8918 30 18.2472 29.3789C18.4933 30.7617 19.3136 32.0391 20.4621 32.8594C21.7277 33.7617 23.3918 34.0781 24.9152 33.7148C25.3722 33.5859 25.8879 33.668 26.2277 34.0312C29.8957 37.6875 33.5402 41.3437 37.2082 45C38.5324 44.3555 39.7746 43.5469 40.8996 42.5859C37.0324 38.707 33.1535 34.8398 29.2863 30.9726C28.923 30.6328 28.841 30.1055 28.9816 29.6484C29.3215 28.2187 29.0519 26.6719 28.255 25.4414C27.4347 24.1406 26.0754 23.2617 24.5988 22.9805ZM43.384 30.832C43.2668 31.1836 42.9738 31.4297 42.716 31.6875C41.1457 33.2578 39.5754 34.8281 38.0168 36.3867C39.5285 37.8984 41.0402 39.4101 42.5402 40.9101C43.6652 39.5742 44.6379 38.0976 45.3058 36.4805C46.9816 32.625 47.0636 28.1367 45.6105 24.1992C44.8605 26.4258 44.134 28.6289 43.384 30.832ZM39.4933 26.0625C40.2433 26.8242 41.005 27.5742 41.7668 28.3359C42.13 27.1875 42.5285 26.0625 42.9035 24.9258C41.7668 25.2891 40.6418 25.6758 39.4933 26.0625ZM33.0832 31.4766C34.1847 32.5547 35.2629 33.6562 36.3644 34.7461C37.7824 33.3281 39.2004 31.9102 40.6183 30.4922C39.5285 29.3906 38.4269 28.3125 37.3488 27.2109C35.9074 28.6289 34.4894 30.0469 33.0832 31.4766ZM20.7433 43.793C21.0949 44.0156 21.4465 44.2383 21.798 44.4492C22.8293 43.4297 23.8371 42.3984 24.8683 41.3906C25.3488 40.875 26.2746 40.9219 26.6613 41.5312C27.0011 41.9883 26.9074 42.6562 26.509 43.043C25.7004 43.875 24.8566 44.6953 24.0363 45.5156C24.4113 45.6445 24.798 45.7734 25.173 45.9141C26.7668 44.3086 28.3722 42.7148 29.966 41.1094C28.8761 40.0195 27.7863 38.9297 26.6847 37.8281C24.716 39.8086 22.7355 41.8125 20.7433 43.793ZM27.9152 46.5C30.2121 46.7812 32.5793 46.5937 34.7941 45.9258C33.7394 44.8711 32.6965 43.8164 31.6418 42.7734C30.3996 44.0039 29.1574 45.2461 27.9152 46.5Z" fill="#1C2436"/>
<path d="M26.0156 2.34375C28.6758 2.34375 31.3242 2.34375 33.9844 2.34375C33.9844 3.78516 33.9727 5.23828 33.9844 6.67969C33.9727 7.16016 34.2656 7.64062 34.7227 7.80469C35.2852 8.00391 35.8828 8.12109 36.457 8.28516C38.4258 8.85937 40.3008 9.72656 42.0469 10.8047C42.5273 11.1445 43.2305 11.1445 43.6406 10.6992C44.6836 9.67969 45.7031 8.64844 46.7344 7.61719C48.6094 9.49219 50.4844 11.3672 52.3711 13.2539C51.3633 14.2617 50.3438 15.2695 49.3477 16.2891C49.043 16.582 48.8672 17.0273 48.9727 17.4492C49.0898 17.8125 49.3125 18.1289 49.4883 18.457C50.2617 19.7461 50.8945 21.1172 51.3867 22.5352C51.7266 23.3906 51.8789 24.293 52.1602 25.1719C52.3008 25.6758 52.793 26.0039 53.3086 26.0039C54.7617 26.0156 56.2031 26.0039 57.6562 26.0156C57.6562 28.6758 57.6562 31.3242 57.6562 33.9844C56.2031 33.9844 54.7617 33.9727 53.3086 33.9844C52.7227 33.9609 52.207 34.4062 52.1016 34.9688C51.6914 36.6094 51.1758 38.2383 50.4258 39.7617C50.0508 40.6523 49.4883 41.4375 49.0547 42.293C48.8203 42.7383 48.9492 43.3008 49.3008 43.6406C50.3203 44.6836 51.3516 45.7031 52.3828 46.7344C50.5078 48.6094 48.6328 50.4844 46.7461 52.3711C45.75 51.3867 44.7656 50.3906 43.7695 49.3945C43.5352 49.1602 43.2422 48.9375 42.8906 48.9258C42.4219 48.8789 42.0352 49.1719 41.6484 49.3945C40.3359 50.1914 38.9414 50.8594 37.4883 51.3516C36.6211 51.7031 35.6953 51.8555 34.8047 52.1484C34.3008 52.2891 33.9609 52.8164 33.9844 53.332C33.9727 54.7734 33.9844 56.2266 33.9844 57.668C31.3242 57.668 28.6758 57.668 26.0156 57.668C26.0156 56.2266 26.0273 54.7852 26.0156 53.332C26.0391 52.8164 25.7227 52.3008 25.2188 52.1484C24.3164 51.8555 23.3789 51.7031 22.5 51.3398C20.918 50.8008 19.418 50.0391 17.9883 49.1719C17.5195 48.8438 16.8398 48.8203 16.418 49.2422C15.3516 50.2734 14.3203 51.3398 13.2656 52.3828C11.3906 50.5078 9.50391 48.6328 7.62891 46.7461C8.66016 45.7148 9.69141 44.6953 10.7109 43.6523C11.0859 43.3008 11.2031 42.7148 10.957 42.2578C10.5234 41.4141 9.96094 40.6289 9.59766 39.7383C8.85938 38.2383 8.34375 36.6445 7.94531 35.0273C7.83984 34.4883 7.38281 34.0078 6.80859 34.0078C5.32031 33.9727 3.83203 34.0078 2.34375 33.9961C2.34375 31.3359 2.34375 28.6875 2.34375 26.0273C3.79688 26.0273 5.25 26.0391 6.70312 26.0273C7.21875 26.0391 7.73437 25.7109 7.875 25.207C8.07422 24.5859 8.20312 23.9531 8.39062 23.3438C8.94141 21.6328 9.64453 19.9688 10.582 18.4453C10.8047 18.0352 11.1328 17.6367 11.0859 17.1445C11.0742 16.793 10.8516 16.5 10.6172 16.2656C9.62109 15.2695 8.63672 14.2852 7.64062 13.2891C9.51562 11.4141 11.3906 9.53906 13.2773 7.65234C14.2734 8.64844 15.2578 9.63281 16.2539 10.6289C16.4883 10.8633 16.7813 11.0742 17.1211 11.0977C17.6133 11.1445 18.0117 10.8164 18.4102 10.5938C20.4375 9.36328 22.6641 8.48438 24.9727 7.94531C25.5117 7.83984 26.0039 7.40625 26.0156 6.83203C26.0391 5.32031 26.0039 3.83203 26.0156 2.34375ZM28.8516 12.2461C28.1602 12.2344 27.4805 12.3867 26.8008 12.4805C26.6719 11.8828 26.0508 11.4375 25.4297 11.5781C22.7344 12.2344 20.2031 13.5 18.0469 15.2461C15.5273 17.2969 13.5352 19.9922 12.3633 23.0273C10.3828 27.9609 10.6406 33.75 13.0547 38.4844C15.2227 42.8672 19.1719 46.3242 23.8008 47.9062C28.3359 49.5 33.4922 49.2656 37.8633 47.25C41.9766 45.3867 45.3867 42 47.25 37.8867C48.4688 35.2852 49.0312 32.3906 48.9727 29.5312C48.8906 25.7227 47.6133 21.9375 45.3633 18.8555C43.0664 15.6562 39.7266 13.1953 35.9766 11.9766C35.5078 11.8477 35.0625 11.625 34.5703 11.625C34.0547 11.6367 33.6094 12.0352 33.4805 12.5273C32.7305 12.4219 31.9687 12.2461 31.207 12.2461C31.2539 11.5312 30.5742 10.8984 29.8594 11.0273C29.2734 11.0859 28.8164 11.6484 28.8516 12.2461Z" fill="#4DF189"/>
<path d="M39.4922 26.0625C40.6289 25.6875 41.7656 25.3008 42.9023 24.9141C42.5273 26.0508 42.1289 27.1875 41.7656 28.3242C41.0156 27.5742 40.2539 26.8125 39.4922 26.0625Z" fill="#4DF189"/>
<path d="M26.8016 12.4804C27.4813 12.3866 28.161 12.2343 28.8524 12.246C28.8993 12.9257 29.579 13.4647 30.247 13.3124C30.7743 13.2421 31.1727 12.7616 31.2196 12.246C31.9813 12.2343 32.743 12.4218 33.493 12.5272C33.3993 13.0429 33.6454 13.6171 34.1376 13.828C34.9227 14.1679 35.7782 14.3202 36.5516 14.7069C39.9266 16.1249 42.7509 18.7265 44.5556 21.9022C42.2001 22.6874 39.8446 23.496 37.4891 24.2812C37.1376 24.3983 36.7509 24.5038 36.4813 24.7733C34.7704 26.4491 33.1063 28.1952 31.3602 29.8476C31.5477 28.3476 31.454 26.8007 30.8563 25.4062C30.0477 23.414 28.3602 21.7968 26.3329 21.0585C24.8095 20.496 23.122 20.4257 21.5516 20.8593C21.0009 21.0116 20.6493 21.6093 20.7548 22.1718C20.8134 22.5468 21.0946 22.828 21.3524 23.0858C22.372 24.1054 23.3915 25.1249 24.411 26.1444C24.2001 26.953 23.9891 27.7499 23.7665 28.5585C22.9696 28.7694 22.161 28.9921 21.3641 29.203C20.2391 28.0897 19.1259 26.953 18.0009 25.8515C17.4384 25.2538 16.3134 25.5233 16.0907 26.3202C15.5516 28.2187 15.786 30.328 16.7118 32.0741C17.7431 34.0663 19.6884 35.5546 21.8798 36.0468C22.9345 36.3163 24.0126 36.2577 25.0907 36.164C23.0399 38.2616 20.954 40.3124 18.8798 42.3866C16.1024 39.8437 14.1571 36.3632 13.5946 32.6249C12.8915 28.3476 13.9579 23.8124 16.5126 20.3085C18.7274 17.1913 22.0673 14.9062 25.7704 13.9452C26.4149 13.7694 26.9305 13.1601 26.8016 12.4804Z" fill="white"/>
<path d="M43.3828 30.832C44.1328 28.6289 44.8594 26.4141 45.6211 24.2109C47.0625 28.1484 46.9922 32.6367 45.3164 36.4922C44.6367 38.1094 43.6758 39.5859 42.5508 40.9219C41.0391 39.4102 39.5273 37.8984 38.0273 36.3984C39.5977 34.8281 41.168 33.2578 42.7266 31.6992C42.9727 31.4414 43.2656 31.1953 43.3828 30.832Z" fill="white"/>
<path d="M27.9141 46.5C29.1562 45.2578 30.3984 44.0156 31.6406 42.7734C32.6953 43.8281 33.75 44.8828 34.793 45.9258C32.5781 46.582 30.2227 46.7695 27.9141 46.5Z" fill="white"/>
<path d="M24.5977 22.9805C26.0742 23.2617 27.4453 24.1406 28.2422 25.418C29.0391 26.6484 29.2969 28.207 28.9687 29.625C28.8281 30.082 28.9102 30.6211 29.2734 30.9492C33.1406 34.8281 37.0195 38.6953 40.8867 42.5625C39.7617 43.5234 38.5195 44.332 37.1953 44.9766C33.5391 41.3203 29.8828 37.6641 26.2148 34.0078C25.8867 33.6445 25.3594 33.5625 24.9023 33.6914C23.3906 34.0547 21.7266 33.7383 20.4492 32.8359C19.2891 32.0273 18.4805 30.75 18.2344 29.3555C18.8789 29.9766 19.5 30.6328 20.1445 31.2539C20.4492 31.5703 20.918 31.6992 21.3398 31.5703C22.5469 31.2539 23.7539 30.9258 24.9609 30.5977C25.3945 30.4922 25.7461 30.1523 25.8516 29.7188C26.1797 28.5117 26.4961 27.3164 26.8242 26.1094C26.9531 25.6875 26.8359 25.207 26.5195 24.8906C25.8867 24.2695 25.2305 23.6367 24.5977 22.9805Z" fill="#E7D6FF"/>
<path d="M33.082 31.4766C34.4883 30.0469 35.918 28.6289 37.3359 27.2109C38.4141 28.3125 39.5156 29.3906 40.6055 30.4922C39.1875 31.9102 37.7813 33.3281 36.3516 34.7461C35.2617 33.6563 34.1836 32.5547 33.082 31.4766Z" fill="#FFF7D6"/>
<path d="M20.7422 43.793C22.7344 41.8008 24.7148 39.8086 26.707 37.8281C27.7969 38.918 28.8867 40.0078 29.9883 41.1094C28.3945 42.7148 26.7891 44.3086 25.1953 45.9141C24.8086 45.7852 24.4336 45.6563 24.0586 45.5156C24.8789 44.6836 25.7109 43.875 26.5312 43.043C26.9297 42.6562 27.0234 41.9883 26.6836 41.5313C26.2969 40.9336 25.3711 40.875 24.8906 41.3906C23.8594 42.3984 22.8516 43.4297 21.8203 44.4492C21.4453 44.2383 21.0938 44.0156 20.7422 43.793Z" fill="#FFF7D6"/>
<path d="M30.0352 13.3711C34.4766 13.3711 38.6484 15.1055 41.7891 18.2344C44.9297 21.375 46.6523 25.5469 46.6523 29.9883C46.6523 34.4297 44.918 38.6016 41.7891 41.7422C38.6484 44.8828 34.4766 46.6055 30.0352 46.6055C25.5937 46.6055 21.4219 44.8828 18.2812 41.7422C15.1406 38.6016 13.418 34.4297 13.418 29.9883C13.418 25.5469 15.1523 21.375 18.2812 18.2344C21.4219 15.0938 25.5937 13.3711 30.0352 13.3711ZM30.0352 11.0273C19.5586 11.0273 11.0742 19.5234 11.0742 29.9883C11.0742 40.4648 19.5703 48.9492 30.0352 48.9492C40.5 48.9492 48.9961 40.4531 48.9961 29.9883C48.9961 19.5117 40.5117 11.0273 30.0352 11.0273Z" fill="#1C2436"/>
</g>
<defs>
<clipPath id="clip0_376_2310">
<rect width="60" height="60" fill="white"/>
</clipPath>
</defs>
</svg>
