<svg width="72" height="72" viewBox="0 0 72 72" fill="none" xmlns="http://www.w3.org/2000/svg">
<g clip-path="url(#clip0_1228_12980)">
<path d="M40.3587 0.771773C26.8593 -2.70096 11.9052 7.50326 4.14411 19.3514C-4.75296 32.9393 1.86631 54.8376 13.5026 64.6117C16.0464 66.7475 19.1461 68.427 22.9791 69.7223C27.1675 71.1478 31.5448 71.8462 35.8869 71.8462C43.4053 71.8462 50.7938 69.746 56.7331 65.6944C69.1379 57.2351 74.8702 40.584 70.3805 26.0843C66.4343 13.3713 56.3363 4.85278 40.3583 0.771097L40.3587 0.771773ZM55.0702 63.2511C46.4511 69.131 34.5383 70.5392 23.931 66.9306C20.453 65.7475 17.6602 64.2508 15.4131 62.352C4.69983 53.3547 -1.46987 33.3187 6.61645 20.9672C12.7273 11.6385 24.1211 3.06022 34.9279 3.06022C36.5192 3.06022 38.087 3.24375 39.6306 3.63989C54.5374 7.45521 63.9263 15.2992 67.5517 26.9638C71.6101 40.0374 66.2386 55.6303 55.0697 63.2494L55.0702 63.2511Z" fill="#4DF189"/>
<path d="M23.2209 36.0101C23.9603 36.0101 24.6938 35.8861 25.3797 35.6378C27.5446 34.8508 29.2425 32.822 29.7159 30.4795C30.5794 26.1789 28.0535 23.2686 25.1552 22.2923C22.2272 21.2868 18.1807 22.0619 16.2463 26.0719V26.0778C14.9866 28.6744 16.1869 31.78 17.9444 33.6966C19.3104 35.1823 21.2863 36.0101 23.2209 36.0101ZM18.9083 27.3679C20.0735 24.9661 22.4101 24.4815 24.2145 25.0962C25.8234 25.6462 27.3617 27.1905 26.8111 29.894C26.539 31.2547 25.5744 32.4199 24.3683 32.8577C22.9667 33.3542 21.1979 32.8697 20.133 31.7036C19.0562 30.5205 18.2929 28.6575 18.9083 27.3681V27.3679Z" fill="#4DF189"/>
<path d="M43.0901 33.4616C43.2321 33.5091 43.3859 33.5329 43.5278 33.5329C44.1551 33.5329 44.7407 33.1308 44.9354 32.4916C45.6042 30.3678 46.2671 28.5277 47.6219 27.5162C48.8465 26.6111 50.6741 26.5405 51.9701 27.3565C53.2654 28.1784 53.981 29.8646 53.6734 31.3613C53.5137 32.1602 54.0287 32.9405 54.8268 33.1062C55.6139 33.2481 56.412 32.745 56.5717 31.9528C57.1216 29.2552 55.8799 26.3449 53.5485 24.866C51.2239 23.3693 48.0595 23.5053 45.8531 25.15C43.6171 26.8122 42.7534 29.5866 42.1203 31.6155C41.8722 32.3965 42.3098 33.2184 43.0903 33.4614L43.0901 33.4616Z" fill="#4DF189"/>
<path d="M55.6495 42.0272C54.8037 41.8495 54.0584 42.3705 53.8987 43.1628C53.1533 46.6705 50.7046 49.8593 47.5098 51.4742C46.522 51.9772 45.4096 52.3734 44.0965 52.7107C35.8387 54.805 26.3264 52.0538 20.47 45.8663C19.6118 44.9611 19.1859 44.1155 19.3694 43.6658C19.6772 42.9084 19.3101 42.0508 18.5534 41.7432C17.7844 41.4236 16.926 41.796 16.6303 42.5533C16.1694 43.6948 16.0862 45.5467 18.3224 47.9011C23.4807 53.3491 30.869 56.3841 38.3049 56.3841C40.4935 56.3841 42.682 56.124 44.8297 55.5792C46.3502 55.1951 47.6634 54.7158 48.8524 54.1183C52.8869 52.0656 55.8626 48.2028 56.7967 43.778C56.9625 42.9791 56.4535 42.1928 55.6493 42.0272H55.6495Z" fill="#4DF189"/>
</g>
<defs>
<clipPath id="clip0_1228_12980">
<rect width="72" height="72" fill="white"/>
</clipPath>
</defs>
</svg>
