<svg width="24" height="24" viewBox="0 0 24 24" fill="none" xmlns="http://www.w3.org/2000/svg">
<g clip-path="url(#clip0_846_5519)">
<path d="M10.6546 0H22.1015C22.5843 0.0375 23.0531 0.239063 23.3953 0.585938C23.7562 0.942188 23.9625 1.43906 23.9812 1.94531V11.7141C23.9343 12.6141 23.2218 13.425 22.3312 13.5656C21.8156 13.6313 21.2906 13.5844 20.7656 13.5984C19.5375 14.7188 18.3046 15.8391 17.0765 16.9594C16.8375 17.1844 16.4718 17.2641 16.1625 17.1422C15.8203 17.0203 15.5718 16.6781 15.5812 16.3125C15.5765 15.4078 15.5812 14.5031 15.5812 13.5984C15.0375 13.5938 14.489 13.6078 13.9453 13.5938C13.7343 13.5891 13.589 13.3969 13.5703 13.2C13.589 12.9844 13.7671 12.7875 13.9921 12.8016C14.6484 12.7969 15.3093 12.7969 15.9656 12.8016C16.1906 12.7875 16.3921 12.9938 16.3781 13.2188C16.3828 14.2641 16.3734 15.3141 16.3828 16.3594C16.4062 16.3734 16.4578 16.3969 16.4859 16.4109C17.7796 15.2531 19.0593 14.0719 20.3484 12.9094C20.4187 12.8484 20.5078 12.8063 20.6015 12.8063C21.1031 12.7922 21.6046 12.8156 22.1062 12.7922C22.7062 12.7453 23.2031 12.1828 23.1796 11.5828C23.1796 8.39531 23.1796 5.20313 23.1796 2.01563C23.1843 1.63125 22.9921 1.24688 22.6734 1.02656C22.4578 0.867188 22.1812 0.796875 21.914 0.801563C18.3234 0.801563 14.7281 0.801563 11.1328 0.801563C10.889 0.80625 10.6406 0.782813 10.4062 0.857813C10.0078 0.984375 9.68901 1.33125 9.60464 1.73906C9.56245 1.93594 9.57651 2.14219 9.57651 2.34375C9.57651 5.41875 9.57651 8.49844 9.57651 11.5734C9.57183 11.8781 9.6937 12.1734 9.89058 12.4078C10.2796 12.1453 10.6406 11.8453 10.9734 11.5172C11.1515 11.3391 11.3906 11.2172 11.6437 11.2031C12.0703 11.1656 12.5015 11.4234 12.675 11.8125C12.7593 11.9859 12.7781 12.1828 12.7734 12.3703C12.7734 12.6469 12.7734 12.9234 12.7734 13.1953C12.7734 13.7391 12.7734 14.2875 12.7734 14.8313C13.3171 14.9484 13.814 15.2906 14.0953 15.7781C14.4421 16.35 14.4656 17.1 14.1562 17.6953C13.889 18.2391 13.3593 18.6328 12.7687 18.7547C12.7687 19.5328 12.7687 20.3109 12.7687 21.0891C12.7734 21.3328 12.7734 21.5953 12.6515 21.8156C12.4031 22.3266 11.7093 22.5563 11.2125 22.2656C11.0765 22.1906 10.964 22.0781 10.8515 21.9656C9.69839 20.8453 8.15151 20.1469 6.54839 20.0156C6.85776 20.7891 7.16714 21.5625 7.47651 22.3359C7.62651 22.7016 7.58433 23.1375 7.35933 23.4609C7.16245 23.7609 6.82495 23.9484 6.4687 23.9906H5.19839C4.75776 23.9438 4.34995 23.6484 4.19058 23.2313C3.75464 22.1484 3.32339 21.0609 2.88745 19.9781C2.12808 19.9031 1.39683 19.5563 0.871826 18.9984C0.417138 18.5203 0.107763 17.8781 0.0233884 17.2031C-0.0703616 16.4625 0.0983883 15.6891 0.510888 15.0656C0.989013 14.325 1.77651 13.7953 2.64839 13.6453C3.00464 13.5797 3.37026 13.6031 3.7312 13.5984C4.52339 13.5938 5.32026 13.6031 6.11714 13.5938C7.18589 13.5797 8.24995 13.3078 9.19683 12.8203C8.99058 12.5391 8.84058 12.2109 8.79839 11.8641C8.76089 11.55 8.78433 11.2359 8.77964 10.9219C8.77964 7.95469 8.77964 4.9875 8.77964 2.02031C8.77495 1.60781 8.90151 1.2 9.13589 0.8625C9.47808 0.360938 10.0546 0.046875 10.6546 0ZM11.4515 12.1688C10.1062 13.4953 8.26401 14.2969 6.37964 14.3859C6.37964 15.9938 6.37964 17.6016 6.37964 19.2094C8.2687 19.2984 10.1109 20.1 11.4562 21.4313C11.5453 21.5156 11.6484 21.6328 11.7843 21.5906C11.9203 21.5578 11.9953 21.4125 11.9812 21.2813C11.9812 18.2813 11.9812 15.2813 11.9812 12.2813C11.9953 12.1453 11.8875 12.0141 11.7515 12.0047C11.6203 11.9813 11.5359 12.0938 11.4515 12.1688ZM2.37651 14.5406C1.57964 14.8125 0.965576 15.5344 0.820263 16.3594C0.679638 17.0719 0.895263 17.8359 1.37339 18.3797C1.8187 18.8906 2.48901 19.1953 3.1687 19.2C3.97495 19.2 4.77651 19.2047 5.58276 19.2C5.58276 17.6016 5.58745 15.9984 5.57808 14.4C4.80464 14.4 4.0312 14.4 3.26245 14.4C2.95776 14.3953 2.65776 14.4375 2.37651 14.5406ZM12.7781 15.6703C12.7781 16.425 12.7734 17.175 12.7781 17.9297C13.2468 17.7609 13.5937 17.2828 13.5796 16.7813C13.575 16.2938 13.2375 15.8297 12.7781 15.6703ZM3.77808 20.0016C4.16714 20.9766 4.5562 21.9516 4.94526 22.9266C5.00151 23.0813 5.15151 23.1984 5.31558 23.1891C5.66245 23.1938 6.00933 23.1891 6.3562 23.1891C6.50151 23.1984 6.63745 23.1234 6.71245 23.0016C6.8062 22.8563 6.75933 22.6781 6.6937 22.5328C6.34683 21.6938 6.03276 20.8359 5.66714 20.0016C5.03901 20.0063 4.4062 20.0016 3.77808 20.0016Z" fill="#1C2436"/>
<path d="M11.4281 2.83124C11.4984 2.80312 11.5734 2.80312 11.6484 2.80312C13.3499 2.80312 15.0562 2.80312 16.7577 2.80312C16.9921 2.78437 17.2031 3.00468 17.1749 3.23906C17.1609 3.44531 16.9687 3.61406 16.7624 3.59999C15.0421 3.60468 13.3218 3.59999 11.5968 3.59999C11.4093 3.60937 11.2265 3.47343 11.1843 3.28593C11.1421 3.10312 11.2499 2.89687 11.4281 2.83124Z" fill="#1C2436"/>
<path d="M11.4843 5.61093C11.6015 5.59218 11.7234 5.59686 11.8406 5.59686C14.9484 5.60155 18.0609 5.59686 21.1687 5.59686C21.3843 5.58749 21.5812 5.77499 21.5765 5.9953C21.5812 6.21561 21.3843 6.4078 21.1687 6.39843C17.9812 6.40311 14.789 6.39843 11.6015 6.39843C11.4 6.41249 11.2031 6.24843 11.1843 6.04686C11.1515 5.85468 11.2921 5.65311 11.4843 5.61093Z" fill="#1C2436"/>
<path d="M11.5218 7.60782C12.0656 7.59375 12.614 7.60313 13.1578 7.60313C13.3687 7.58907 13.5656 7.75782 13.5796 7.96875C13.6031 8.18438 13.4203 8.39532 13.1999 8.39532C12.6703 8.40469 12.1359 8.39532 11.6062 8.4C11.4093 8.41407 11.2171 8.26407 11.189 8.06719C11.1421 7.85625 11.3015 7.63125 11.5218 7.60782Z" fill="#1C2436"/>
<path d="M14.6672 7.6172C14.7234 7.60314 14.7797 7.59845 14.8359 7.60314C16.8844 7.60314 18.9281 7.60314 20.9766 7.60314C21.1219 7.60782 21.2906 7.58439 21.4125 7.68282C21.5813 7.80001 21.6281 8.05782 21.5109 8.22657C21.4266 8.35782 21.2672 8.41876 21.1172 8.40939C19.0266 8.40939 16.9313 8.40939 14.8359 8.40939C14.6625 8.42345 14.475 8.33439 14.4094 8.16564C14.3156 7.94532 14.4422 7.67345 14.6672 7.6172Z" fill="#1C2436"/>
<path d="M11.4281 9.62813C11.5734 9.57657 11.7328 9.60469 11.8875 9.59532C14.4328 9.59532 16.9828 9.59532 19.5281 9.59532C19.7156 9.57657 19.9125 9.69375 19.964 9.87657C20.0484 10.1203 19.8375 10.4063 19.5796 10.3922C16.9218 10.3969 14.264 10.3922 11.6062 10.3922C11.4281 10.4016 11.25 10.2844 11.1984 10.1109C11.1328 9.92344 11.2406 9.69844 11.4281 9.62813Z" fill="#1C2436"/>
<path d="M10.4109 0.857805C10.6453 0.778117 10.8937 0.801555 11.1374 0.801555C14.7328 0.801555 18.3234 0.801555 21.9187 0.801555C22.1859 0.796867 22.4578 0.86718 22.6781 1.02655C22.9968 1.24687 23.189 1.63124 23.1843 2.01562C23.1843 5.20312 23.1843 8.3953 23.1843 11.5828C23.2078 12.1828 22.7109 12.7453 22.1109 12.7922C21.6093 12.8156 21.1078 12.7875 20.6062 12.8062C20.5124 12.8062 20.4234 12.8484 20.3531 12.9094C19.064 14.0719 17.7843 15.2531 16.4906 16.4109C16.4671 16.3969 16.4156 16.3734 16.3874 16.3594C16.3828 15.3141 16.3874 14.2641 16.3828 13.2187C16.3968 12.9937 16.1953 12.7922 15.9703 12.8016C15.314 12.7969 14.6531 12.7969 13.9968 12.8016C13.7718 12.7875 13.5937 12.9844 13.5749 13.2C13.3124 13.2 13.0499 13.2 12.7828 13.2C12.7828 12.9234 12.7828 12.6469 12.7828 12.375C12.7828 12.1828 12.7687 11.9906 12.6843 11.8172C12.5109 11.4281 12.0796 11.1703 11.6531 11.2078C11.3999 11.2219 11.1609 11.3437 10.9828 11.5219C10.6499 11.85 10.2843 12.15 9.89994 12.4125C9.70307 12.1828 9.58119 11.8875 9.58588 11.5781C9.58588 8.50312 9.58588 5.42343 9.58588 2.34843C9.58588 2.14687 9.57651 1.94062 9.61401 1.74374C9.69369 1.33124 10.0124 0.984367 10.4109 0.857805ZM11.4281 2.83124C11.2499 2.90155 11.1421 3.10312 11.189 3.29062C11.2265 3.47812 11.4093 3.61405 11.6015 3.60468C13.3218 3.60468 15.0421 3.60468 16.7671 3.60468C16.9734 3.61405 17.1656 3.44999 17.1796 3.24374C17.2078 3.00937 16.9968 2.78905 16.7624 2.8078C15.0609 2.8078 13.3546 2.8078 11.6531 2.8078C11.5734 2.80312 11.4984 2.80312 11.4281 2.83124ZM11.4843 5.61093C11.2921 5.65312 11.1562 5.84999 11.1843 6.04687C11.2031 6.24843 11.3999 6.41249 11.6015 6.39843C14.789 6.39843 17.9812 6.39843 21.1687 6.39843C21.389 6.4078 21.5859 6.21562 21.5765 5.99531C21.5812 5.77968 21.3843 5.58749 21.1687 5.59687C18.0609 5.59218 14.9484 5.59687 11.8406 5.59687C11.7187 5.60155 11.6015 5.59218 11.4843 5.61093ZM11.5218 7.6078C11.3062 7.63124 11.1421 7.85624 11.189 8.07187C11.2171 8.26874 11.4093 8.41405 11.6062 8.40468C12.1359 8.40468 12.6703 8.40937 13.1999 8.39999C13.4156 8.39999 13.6031 8.18905 13.5796 7.97343C13.5703 7.76249 13.3687 7.58905 13.1578 7.6078C12.6093 7.60312 12.0656 7.59374 11.5218 7.6078ZM14.6671 7.61718C14.4421 7.67343 14.3109 7.9453 14.4093 8.15624C14.4749 8.32499 14.6578 8.41405 14.8359 8.39999C16.9265 8.39999 19.0218 8.39999 21.1171 8.39999C21.2671 8.40937 21.4312 8.35312 21.5109 8.21718C21.6281 8.04843 21.5812 7.79062 21.4124 7.67343C21.2859 7.57499 21.1218 7.59843 20.9765 7.59374C18.9281 7.59374 16.8843 7.59374 14.8359 7.59374C14.7796 7.59843 14.7234 7.60312 14.6671 7.61718ZM11.4281 9.62812C11.2406 9.69843 11.1328 9.92343 11.1984 10.1156C11.2453 10.2891 11.4234 10.4109 11.6062 10.3969C14.264 10.3969 16.9218 10.4016 19.5796 10.3969C19.8374 10.4109 20.0484 10.125 19.964 9.88124C19.9124 9.69374 19.7156 9.58124 19.5281 9.59999C16.9828 9.59999 14.4374 9.59999 11.8874 9.59999C11.7328 9.60468 11.5734 9.58124 11.4281 9.62812Z" fill="#4DF189"/>
<path d="M11.4516 12.1688C11.5359 12.0938 11.6203 11.9812 11.7469 12C11.8828 12.0141 11.9906 12.1406 11.9766 12.2766C11.9812 15.2766 11.9766 18.2766 11.9766 21.2766C11.9906 21.4125 11.9203 21.5578 11.7797 21.5859C11.6391 21.6281 11.5359 21.5156 11.4516 21.4266C10.1109 20.0953 8.26406 19.2938 6.375 19.2047C6.375 17.5969 6.375 15.9891 6.375 14.3812C8.26406 14.2969 10.1063 13.5 11.4516 12.1688Z" fill="white"/>
<path d="M2.37656 14.5406C2.65781 14.4375 2.9625 14.4 3.2625 14.4C4.03594 14.4 4.80938 14.4 5.57813 14.4C5.58281 15.9984 5.57813 17.6016 5.58281 19.2C4.77656 19.2047 3.975 19.2047 3.16875 19.2C2.48906 19.2 1.81875 18.8906 1.37344 18.3797C0.890626 17.8359 0.679689 17.0719 0.820314 16.3594C0.965626 15.5344 1.57969 14.8125 2.37656 14.5406Z" fill="#EBFA9E"/>
<path d="M12.7781 15.6703C13.2375 15.8297 13.575 16.2938 13.5796 16.7813C13.5937 17.2828 13.2515 17.7609 12.7781 17.9297C12.7734 17.1797 12.7781 16.425 12.7781 15.6703Z" fill="#EBFA9E"/>
<path d="M3.77808 20.0015C4.41089 19.9969 5.03901 20.0062 5.67183 19.9969C6.03745 20.8312 6.35151 21.689 6.69839 22.5281C6.76401 22.6734 6.81089 22.8562 6.71714 22.9969C6.64214 23.1187 6.50151 23.1937 6.36089 23.1844C6.01401 23.1844 5.66714 23.189 5.32026 23.1844C5.1562 23.1937 5.00151 23.0719 4.94995 22.9219C4.5562 21.9515 4.16714 20.9765 3.77808 20.0015Z" fill="#EBFA9E"/>
</g>
<defs>
<clipPath id="clip0_846_5519">
<rect width="23.9766" height="24" fill="white"/>
</clipPath>
</defs>
</svg>
