<svg width="121" height="118" viewBox="0 0 121 118" fill="none" xmlns="http://www.w3.org/2000/svg">
<mask id="path-1-inside-1_1202_18409" fill="white">
<path d="M60.3127 118C44.3982 118 29.1355 111.784 17.8823 100.719C6.62902 89.6547 0.307004 74.6478 0.307004 59C0.307005 43.3522 6.62901 28.3454 17.8823 17.2807C29.1355 6.21605 44.3982 -9.55828e-07 60.3127 -2.62293e-06L60.3127 30.7957C52.7049 30.7957 45.4088 33.7672 40.0292 39.0565C34.6498 44.3459 31.6276 51.5197 31.6276 59C31.6276 66.4803 34.6498 73.6541 40.0293 78.9435C45.4087 84.2328 52.7049 87.2044 60.3127 87.2044L60.3127 118Z"/>
</mask>
<path d="M60.3127 118C44.3982 118 29.1355 111.784 17.8823 100.719C6.62902 89.6547 0.307004 74.6478 0.307004 59C0.307005 43.3522 6.62901 28.3454 17.8823 17.2807C29.1355 6.21605 44.3982 -9.55828e-07 60.3127 -2.62293e-06L60.3127 30.7957C52.7049 30.7957 45.4088 33.7672 40.0292 39.0565C34.6498 44.3459 31.6276 51.5197 31.6276 59C31.6276 66.4803 34.6498 73.6541 40.0293 78.9435C45.4087 84.2328 52.7049 87.2044 60.3127 87.2044L60.3127 118Z" fill="#FFEFEB" stroke="#1C2436" stroke-width="1.53247" mask="url(#path-1-inside-1_1202_18409)"/>
<circle cx="57.9664" cy="58.3295" r="16.3782" fill="#D6FFD8" stroke="#2A5339" stroke-width="0.766234"/>
</svg>
