<svg width="92" height="85" viewBox="0 0 92 85" fill="none" xmlns="http://www.w3.org/2000/svg">
<path d="M79.5867 54.4738L79.6971 54.8672L79.5866 54.4738C77.2592 55.1272 76.0765 57.6965 77.1215 59.8653L81.0058 67.9267C82.1334 70.2673 79.9727 72.8647 77.4093 72.1899L67.4078 69.5571C65.1761 68.9697 62.9105 70.4121 62.5371 72.6762L60.9967 82.0229C60.5854 84.5183 57.4451 85.4767 55.6813 83.6241L55.3853 83.9059L55.6813 83.6241L48.6192 76.207C47.0734 74.5836 44.465 74.5836 42.9193 76.2069L35.8572 83.6241L36.1531 83.9059L35.8572 83.6241C34.0933 85.4767 30.953 84.5183 30.5417 82.0229L29.0013 72.6762L28.5981 72.7427L29.0013 72.6762C28.628 70.412 26.3623 68.9697 24.1306 69.5571L24.2346 69.9523L24.1306 69.5571L14.1291 72.1899C11.5657 72.8647 9.40508 70.2673 10.5327 67.9267L14.4169 59.8653C15.4619 57.6965 14.2792 55.1272 11.9515 54.4738L11.8411 54.8672L11.9515 54.4738L2.65944 51.8656C0.0632144 51.1368 -0.408298 47.7157 1.88441 46.3248L9.79967 41.5234L9.58773 41.174L9.79968 41.5234C11.8911 40.2547 12.3025 37.4151 10.6494 35.6169L4.56 28.993C2.76973 27.0456 4.14416 23.9074 6.82931 23.8857L16.8857 23.8048C19.2514 23.7859 21.068 21.7079 20.7287 19.3802C20.7287 19.3802 20.7287 19.3802 20.7287 19.3802L19.4133 10.3516C19.045 7.82389 21.8094 5.97553 24.0575 7.28803C24.0575 7.28804 24.0575 7.28804 24.0575 7.28805L33.0486 12.5383L33.2547 12.1854L33.0486 12.5383C35.0015 13.6786 37.5265 12.9447 38.5417 10.9325L42.996 2.10278C44.1355 -0.156054 47.4029 -0.156054 48.5424 2.10278L52.9968 10.9325C54.0119 12.9447 56.5369 13.6786 58.4898 12.5383L58.2838 12.1854L58.4898 12.5383L67.4809 7.28803C69.7291 5.97551 72.4934 7.82388 72.1251 10.3516L72.5295 10.4105L72.1251 10.3516L70.8097 19.3802C70.4705 21.7079 72.2871 23.7859 74.6528 23.8048L84.7092 23.8857C87.3943 23.9074 88.7687 27.0456 86.9784 28.993L80.889 35.6169C79.2359 37.4151 79.6474 40.2547 81.7388 41.5234L89.6541 46.3248C91.9467 47.7157 91.4752 51.1368 88.879 51.8656L79.5867 54.4738Z" fill="#E7D6FF" stroke="#2A5339" stroke-width="0.817308"/>
</svg>
