<svg width="70" height="70" viewBox="0 0 70 70" fill="none" xmlns="http://www.w3.org/2000/svg">
<circle cx="35" cy="35" r="35" fill="#D6FFD8"/>
<g clip-path="url(#clip0_948_7432)">
<path d="M23.5433 17H33.163C33.4093 17.0547 33.5735 17.2734 33.6009 17.5127C33.5667 17.7314 33.4367 17.9502 33.2109 17.998C32.9646 18.0391 32.7183 18.0117 32.472 18.0186C30.4673 18.0186 25.7191 18.0117 23.7144 18.0254C22.3323 18.0322 21.0119 18.8799 20.4098 20.124C20.1361 20.6777 20.0129 21.2998 20.0266 21.9219C20.0266 28.9902 20.0266 36.0518 20.0266 43.1133C20.0129 44.4873 20.8271 45.8135 22.0518 46.4355C22.3871 46.6064 22.7497 46.7227 23.1192 46.7979C23.1192 39.8252 23.1192 32.8594 23.1192 25.8867C23.1192 24.8477 23.4681 23.8223 24.1044 23.002C25.0007 21.8193 26.4717 21.0947 27.9564 21.1221C31.8289 21.1289 35.7082 21.1084 39.5876 21.1221C39.8202 21.1221 40.0596 21.1289 40.2923 21.1357C40.1349 20.7529 39.9365 20.3838 39.6902 20.0557C38.9513 19.0508 37.8224 18.333 36.5908 18.1143C36.0914 18.0186 35.5851 18.0322 35.0788 18.0322C34.2988 18.0322 33.5188 18.0391 32.7457 18.0254C32.4583 18.0391 32.2462 17.7861 32.2189 17.5195C32.2462 17.2734 32.4104 17.0615 32.6499 17.0068H35.9956C37.1108 17.082 38.2123 17.4375 39.1223 18.0869C40.2444 18.8662 41.0722 20.042 41.4485 21.3545C42.7348 21.7236 43.8979 22.5303 44.6711 23.624C45.3826 24.6152 45.7795 25.832 45.7863 27.0557C45.7863 28.9561 45.7863 30.8564 45.7863 32.7637C46.3952 32.1621 46.9905 31.5605 47.5994 30.959C48.1673 30.3984 49.002 30.125 49.7888 30.2549C50.7946 30.3984 51.6635 31.1982 51.8893 32.1826C52.1082 33.0303 51.8414 33.9668 51.2324 34.5889C49.4193 36.4072 47.5994 38.2188 45.7863 40.0371C45.7863 42.1152 45.7863 44.1865 45.7863 46.2646C45.7795 46.9072 45.8273 47.5635 45.6837 48.1992C45.41 49.5322 44.5342 50.7285 43.3506 51.3916C42.7143 51.7607 41.9891 51.9521 41.257 52.0137H39.1018C38.8623 51.959 38.6913 51.7471 38.6639 51.501C38.6913 51.2686 38.8486 51.0293 39.1018 50.9951C40.176 50.9199 41.3049 51.1387 42.338 50.7354C43.7543 50.2158 44.76 48.7734 44.76 47.2695C44.7669 45.1982 44.76 43.1338 44.76 41.0625C43.8979 41.9238 43.029 42.7852 42.1669 43.6533C41.9412 43.8789 41.7154 44.1045 41.4691 44.3027C41.7496 44.3096 42.0301 44.2822 42.3106 44.3164C42.6185 44.3779 42.7896 44.7607 42.6459 45.0342C42.5569 45.2324 42.338 45.335 42.1259 45.3281C38.3423 45.3281 34.5588 45.3281 30.7752 45.3281C29.4479 45.3281 28.1206 45.3281 26.8001 45.3281C26.5401 45.3486 26.2664 45.1709 26.2322 44.9043C26.1638 44.6035 26.4238 44.2891 26.7317 44.3027C27.9495 44.2959 29.1605 44.3027 30.3784 44.3027C32.5609 44.3027 34.7367 44.3027 36.9192 44.3027C37.0629 43.3047 37.0287 42.2383 37.5213 41.3223C37.8566 40.625 38.4518 40.1191 38.9855 39.5791C40.9149 37.6514 42.8443 35.7236 44.7669 33.7959C44.7669 31.9775 44.7669 30.1592 44.7669 28.334C43.6927 28.334 42.6117 28.3408 41.5375 28.3271C40.3333 28.3066 39.1907 27.4932 38.7802 26.3584C38.5818 25.8662 38.575 25.3262 38.5818 24.7998C38.5818 23.918 38.5818 23.0361 38.5818 22.1543C37.2339 22.1543 35.8929 22.1543 34.5451 22.1543C32.3078 22.1543 30.0705 22.1475 27.8332 22.1543C26.4443 22.168 25.117 23.0361 24.5286 24.2871C24.2617 24.8271 24.1523 25.4287 24.1591 26.0303C24.1591 33.0029 24.1591 39.9756 24.1591 46.9482C24.1454 47.5088 24.207 48.0762 24.4191 48.5957C24.9459 49.9697 26.3485 50.9609 27.8264 50.9814C30.0705 50.9883 32.3078 50.9814 34.5519 50.9883C35.3045 50.9883 38.7939 50.9814 39.5397 50.9883C39.827 50.9746 40.0391 51.2344 40.0665 51.501C40.0391 51.7402 39.8749 51.9453 39.6354 52.0137H27.6622C26.6496 51.9453 25.6643 51.5762 24.8844 50.9268C23.947 50.168 23.3244 49.0469 23.167 47.8574C21.9902 47.7002 20.875 47.0918 20.1156 46.1758C19.3835 45.3008 18.9867 44.1729 19.0003 43.0449C19.0003 35.9561 19.0003 28.8672 19.0003 21.7783C18.9935 20.4453 19.5819 19.1328 20.574 18.2441C21.3813 17.499 22.4555 17.0684 23.5433 17ZM39.6081 22.1475C39.6081 23.2139 39.6081 24.2803 39.6081 25.3467C39.6081 26.4062 40.5796 27.3359 41.6401 27.3018C42.6801 27.3018 43.72 27.3018 44.76 27.3018C44.8148 25.8252 44.1853 24.3418 43.0701 23.3779C42.1327 22.5303 40.8601 22.0928 39.6081 22.1475ZM48.7283 31.3896C48.4067 31.5332 48.1878 31.8203 47.9346 32.0527C48.6599 32.7773 49.392 33.5088 50.1172 34.2334C50.3909 33.9531 50.7124 33.6934 50.8356 33.3105C51.0477 32.7432 50.8903 32.0596 50.4388 31.6494C50.0009 31.2256 49.2825 31.1162 48.7283 31.3896ZM46.4773 33.5156C47.2094 34.2471 47.9415 34.9717 48.6667 35.7031C48.913 35.4639 49.1593 35.2178 49.4057 34.9717C48.6804 34.2334 47.9415 33.5156 47.2231 32.7842C46.9631 33.0098 46.7236 33.2627 46.4773 33.5156ZM39.5602 40.4336C40.2854 41.1582 41.0175 41.876 41.7359 42.6143C42.0096 42.3818 42.249 42.1084 42.509 41.8623C44.3221 40.0439 46.1421 38.2461 47.9483 36.4209C47.2162 35.6963 46.491 34.9648 45.7658 34.2402C43.6858 36.3047 41.6196 38.3623 39.5602 40.4336ZM38.3902 41.8418C38.0276 42.5801 38.0755 43.4209 37.9523 44.2139C38.4313 44.166 38.9102 44.1113 39.396 44.0498C39.9912 43.9746 40.5591 43.7148 41.0175 43.332C40.2923 42.6074 39.567 41.8828 38.8418 41.1582C38.6639 41.3701 38.5065 41.5957 38.3902 41.8418Z" fill="#1C2436"/>
<path d="M26.2191 29.3048C26.2397 29.0519 26.4723 28.8331 26.7254 28.84C27.9501 28.8331 29.1748 28.84 30.3995 28.84C31.9116 28.84 33.4305 28.84 34.9425 28.84C35.2367 28.8194 35.5036 29.0792 35.483 29.3732C35.4762 29.6534 35.2162 29.879 34.9425 29.8585C33.3073 29.8653 31.6721 29.8585 30.0369 29.8585C28.9354 29.8585 27.8338 29.8653 26.7323 29.8517C26.4381 29.8722 26.1781 29.5919 26.2191 29.3048Z" fill="#1C2436"/>
<path d="M26.2115 32.4562C26.1978 32.1759 26.4441 31.923 26.7246 31.9366C27.662 31.9298 28.5993 31.9366 29.5298 31.9366C33.7307 31.9366 37.9316 31.9366 42.1257 31.9366C42.372 31.9161 42.6183 32.0802 42.673 32.3194C42.7551 32.5997 42.543 32.921 42.2488 32.9484C41.9341 32.9757 41.6126 32.9552 41.291 32.962C37.3022 32.962 33.3134 32.962 29.3245 32.962C28.4556 32.962 27.5867 32.9689 26.7178 32.962C26.4578 32.962 26.2115 32.7228 26.2115 32.4562Z" fill="#1C2436"/>
<path d="M26.2111 35.5254C26.2042 35.252 26.4505 35.0059 26.7242 35.0127C27.5247 35.0059 28.3184 35.0127 29.1189 35.0059C32.7656 35.0059 36.4192 35.0059 40.0659 35.0059C40.3327 34.9854 40.5927 35.1768 40.6269 35.4434C40.6817 35.7373 40.4285 36.0381 40.1275 36.0313C36.4534 36.0381 32.7724 36.0313 29.0984 36.0313C28.3047 36.0313 27.5179 36.0381 26.7242 36.0313C26.4505 36.045 26.2042 35.7989 26.2111 35.5254Z" fill="#1C2436"/>
<path d="M26.2115 38.6017C26.2115 38.3351 26.4578 38.0958 26.7246 38.1095C27.5251 38.1026 28.3256 38.1095 29.1261 38.1095C31.7466 38.1095 34.367 38.1095 36.9874 38.1095C37.2201 38.0958 37.4527 38.2462 37.5211 38.4718C37.6306 38.7999 37.3364 39.1622 36.9943 39.128C34.4012 39.128 31.8013 39.128 29.2082 39.128C28.3804 39.128 27.5525 39.1349 26.7246 39.128C26.4441 39.1349 26.1978 38.8819 26.2115 38.6017Z" fill="#1C2436"/>
<path d="M26.226 41.8145C26.1507 41.5137 26.4107 41.1856 26.7254 41.1992C27.6628 41.1924 28.6001 41.1992 29.5306 41.1924C29.9685 41.1992 30.3995 41.1856 30.8374 41.1924C31.0632 41.1856 31.289 41.3428 31.3437 41.5615C31.4327 41.8555 31.2069 42.1905 30.899 42.2041C30.5158 42.2246 30.1327 42.2041 29.7496 42.211C28.7643 42.211 27.7791 42.211 26.787 42.211C26.5339 42.2451 26.2739 42.0742 26.226 41.8145Z" fill="#1C2436"/>
<path d="M33.3075 41.2061C34.0122 41.1719 34.7169 41.1993 35.4148 41.1924C35.6132 41.1787 35.8184 41.2608 35.9211 41.4385C36.0716 41.6709 35.9826 42.0127 35.7432 42.1494C35.6063 42.2383 35.4421 42.2178 35.2848 42.2246C34.6622 42.2178 34.0464 42.2246 33.4238 42.2178C33.1912 42.2246 32.9654 42.0469 32.9243 41.8145C32.8627 41.5547 33.0406 41.2608 33.3075 41.2061Z" fill="#1C2436"/>
<path d="M35.0786 18.0255C35.5849 18.0255 36.0912 18.0118 36.5906 18.1075C37.8221 18.3331 38.9511 19.0441 39.69 20.0489C35.7354 20.0558 31.7808 20.0489 27.8262 20.0558C26.5604 20.0626 25.3152 20.5138 24.3163 21.2862C22.9342 22.3526 22.0721 24.0685 22.0585 25.8116C22.0516 32.6817 22.0653 39.5587 22.0516 46.4288C20.8269 45.8136 20.0196 44.4874 20.0264 43.1134C20.0264 36.0519 20.0264 28.9835 20.0264 21.922C20.0127 21.3067 20.1359 20.6778 20.4164 20.1241C21.0185 18.8868 22.339 18.0392 23.721 18.0323C25.7257 18.0255 27.7372 18.0323 29.7419 18.0255C29.9813 18.0187 34.2986 18.0255 35.0786 18.0255Z" fill="#4DF189"/>
<path d="M24.3174 21.293C25.3095 20.5205 26.5615 20.0693 27.8273 20.0625C31.7819 20.0557 35.7365 20.0625 39.6911 20.0557C39.9374 20.3906 40.1358 20.7598 40.2932 21.1357C40.0606 21.1289 39.8211 21.1221 39.5885 21.1221C35.7091 21.1084 31.8366 21.1289 27.9573 21.1221C26.4726 21.0947 25.0016 21.8193 24.1053 23.002C23.469 23.8223 23.1201 24.8545 23.1201 25.8867C23.1201 32.8594 23.1201 39.8252 23.1201 46.7978C22.7506 46.7227 22.388 46.6064 22.0527 46.4355C22.0596 39.5654 22.0527 32.6885 22.0596 25.8184C22.0664 24.0684 22.9353 22.3525 24.3174 21.293Z" fill="#4DF189"/>
<path d="M24.5212 24.2804C25.1096 23.0294 26.4369 22.1612 27.8258 22.1476C30.0631 22.1407 32.3004 22.1476 34.5377 22.1476C32.6562 24.0138 31.2536 26.3448 30.3915 28.84C29.1668 28.84 27.9421 28.8331 26.7174 28.84C26.4574 28.8331 26.2248 29.045 26.2111 29.3048C26.1769 29.5919 26.4301 29.8722 26.7243 29.8585C27.8258 29.8653 28.9273 29.8585 30.0289 29.8653C29.851 30.5489 29.6594 31.2325 29.5294 31.9298C28.5921 31.9298 27.6616 31.9298 26.7243 31.9298C26.4437 31.923 26.1974 32.1759 26.2111 32.4493C26.2111 32.7228 26.4574 32.9552 26.7311 32.9484C27.6 32.9552 28.4689 32.9484 29.3379 32.9484C29.2558 33.6319 29.1737 34.3224 29.1258 35.006C28.3253 35.006 27.5316 34.9991 26.7311 35.0128C26.4574 35.006 26.2111 35.2452 26.218 35.5255C26.2111 35.7989 26.4574 36.045 26.7311 36.0382C27.5248 36.045 28.3116 36.0382 29.1052 36.0382C29.0847 36.7286 29.0984 37.4122 29.1326 38.1026C28.3321 38.1026 27.5316 38.0958 26.7311 38.1026C26.4643 38.0958 26.218 38.3282 26.218 38.5948C26.1974 38.8751 26.4506 39.128 26.7243 39.1212C27.5521 39.128 28.38 39.1212 29.2079 39.1212C29.3036 39.8116 29.3926 40.5021 29.5363 41.1857C28.5989 41.1857 27.6616 41.1788 26.7311 41.1925C26.4164 41.1788 26.1564 41.5001 26.2316 41.8077C26.2795 42.0675 26.5395 42.2384 26.7995 42.2179C27.7847 42.2179 28.77 42.2179 29.7621 42.2179C29.9468 42.9151 30.1589 43.5987 30.3847 44.2823C29.1668 44.2823 27.949 44.2823 26.7379 44.2823C26.4301 44.2687 26.1701 44.5831 26.2385 44.8839C26.2795 45.1505 26.5464 45.3282 26.8064 45.3077C28.1337 45.3077 29.461 45.3077 30.7815 45.3077C31.3288 46.5314 31.9446 47.7276 32.7314 48.8146C33.2719 49.587 33.8945 50.298 34.5514 50.9747C32.3072 50.9747 30.0699 50.9816 27.8258 50.9679C26.348 50.9474 24.9454 49.963 24.4185 48.5821C24.2064 48.0626 24.1449 47.4952 24.1586 46.9347C24.1586 39.962 24.1586 32.9894 24.1586 26.0167C24.138 25.422 24.2543 24.8204 24.5212 24.2804Z" fill="white"/>
<path d="M39.6072 22.1474C40.8661 22.0927 42.1318 22.5302 43.076 23.371C44.1912 24.3417 44.8207 25.8251 44.766 27.2949C43.726 27.2949 42.686 27.2949 41.6461 27.2949C40.5856 27.329 39.614 26.4062 39.614 25.3398C39.6003 24.2734 39.6072 23.207 39.6072 22.1474Z" fill="#D7D7F9"/>
<path d="M34.5385 22.1475C35.8863 22.1475 37.2274 22.1475 38.5752 22.1475C38.5752 23.0293 38.5752 23.9111 38.5752 24.793C38.5684 25.3193 38.5752 25.8594 38.7736 26.3516C39.1841 27.4795 40.3267 28.2998 41.5309 28.3203C42.6051 28.3271 43.6861 28.3203 44.7603 28.3271C44.7603 30.1455 44.7603 31.9639 44.7603 33.7891C42.8309 35.7168 40.9014 37.6445 38.9789 39.5723C38.4452 40.1123 37.85 40.6182 37.5147 41.3154C37.0221 42.2314 37.0563 43.291 36.9126 44.2959C34.7301 44.2959 32.5544 44.2959 30.3718 44.2959C30.146 43.6123 29.9339 42.9287 29.7492 42.2314C30.1323 42.2246 30.5155 42.2451 30.8986 42.2246C31.2065 42.2109 31.4323 41.8691 31.3433 41.582C31.2886 41.3633 31.0697 41.1992 30.837 41.2129C30.406 41.2061 29.9681 41.2129 29.5302 41.2129C29.3866 40.5293 29.2976 39.8389 29.2018 39.1484C31.7949 39.1484 34.3948 39.1484 36.9879 39.1484C37.33 39.1826 37.631 38.8203 37.5147 38.4922C37.4531 38.2666 37.2205 38.1094 36.981 38.1299C34.3606 38.1299 31.7402 38.1299 29.1197 38.1299C29.0787 37.4395 29.065 36.7559 29.0924 36.0654C32.7665 36.0654 36.4474 36.0654 40.1215 36.0654C40.4225 36.0723 40.6757 35.7715 40.6209 35.4775C40.5867 35.2109 40.3267 35.0195 40.0599 35.04C36.4132 35.04 32.7665 35.04 29.1129 35.04C29.1608 34.3496 29.2429 33.666 29.325 32.9824C33.3138 32.9824 37.3026 32.9824 41.2914 32.9824C41.6062 32.9756 41.9277 32.9961 42.2493 32.9688C42.5435 32.9414 42.7556 32.6201 42.6735 32.3398C42.6188 32.0937 42.3656 31.9365 42.1261 31.957C37.9252 31.957 33.7243 31.957 29.5302 31.957C29.6671 31.2598 29.8518 30.5762 30.0297 29.8926C31.6649 29.8926 33.3001 29.8926 34.9353 29.8926C35.209 29.9131 35.469 29.6807 35.4758 29.4072C35.4964 29.1133 35.2295 28.8535 34.9353 28.874C33.4233 28.8672 31.9044 28.874 30.3923 28.874C31.2612 26.3379 32.6638 24.0137 34.5385 22.1475ZM33.307 41.2061C33.0401 41.2607 32.8622 41.5479 32.9238 41.8145C32.9649 42.0469 33.1906 42.2246 33.4233 42.2178C34.0459 42.2246 34.6617 42.2178 35.2843 42.2246C35.4416 42.2178 35.6058 42.2383 35.7427 42.1494C35.989 42.0195 36.0711 41.6709 35.9206 41.4385C35.8179 41.2676 35.6127 41.1787 35.4143 41.1924C34.7164 41.2061 34.0117 41.1719 33.307 41.2061Z" fill="white"/>
<path d="M42.1681 43.6397C43.0302 42.7783 43.8923 41.9102 44.7612 41.0488C44.7612 43.1201 44.7612 45.1846 44.7612 47.2559C44.7612 48.7666 43.7554 50.2021 42.3391 50.7217C41.306 51.1318 40.1771 50.9063 39.1029 50.9814C38.8498 51.0088 37.0777 50.9609 36.7904 50.9746C36.0378 50.9678 35.2852 50.9746 34.5394 50.9746C33.8826 50.3047 33.26 49.5869 32.7195 48.8145C31.9327 47.7275 31.3169 46.5313 30.7695 45.3076C34.5531 45.3076 38.3366 45.3076 42.1202 45.3076C42.3323 45.3213 42.5512 45.2119 42.6402 45.0137C42.7839 44.7402 42.6128 44.3574 42.3049 44.2959C42.0244 44.2617 41.7439 44.2891 41.4634 44.2822C41.7165 44.0908 41.9423 43.8652 42.1681 43.6397Z" fill="white"/>
<path d="M48.7282 31.3896C49.2824 31.1162 50.0008 31.2256 50.4455 31.6563C50.8971 32.0664 51.0545 32.75 50.8424 33.3174C50.7124 33.7002 50.3976 33.9668 50.124 34.2402C49.3987 33.5156 48.6666 32.7842 47.9414 32.0596C48.1877 31.8203 48.4135 31.5332 48.7282 31.3896Z" fill="#FFF7D6"/>
<path d="M46.4766 33.5156C46.7229 33.2695 46.9623 33.0166 47.2223 32.7773C47.9407 33.5156 48.6796 34.2334 49.4049 34.9648C49.1586 35.2109 48.9191 35.457 48.666 35.6963C47.9407 34.9717 47.2086 34.2402 46.4766 33.5156Z" fill="#FFF7D6"/>
<path d="M39.5605 40.4336C41.62 38.3623 43.693 36.3047 45.7524 34.2402C46.4845 34.9648 47.2029 35.6963 47.935 36.4209C46.1356 38.2461 44.3088 40.0439 42.4957 41.8623C42.2357 42.1084 41.9963 42.3818 41.7226 42.6143C41.0179 41.876 40.2858 41.1582 39.5605 40.4336Z" fill="#E7D6FF"/>
<path d="M38.39 41.8418C38.5063 41.5957 38.6637 41.3701 38.8348 41.1582C39.56 41.8828 40.2852 42.6074 41.0105 43.332C40.5521 43.7148 39.9842 43.9746 39.3889 44.0498C38.91 44.1045 38.4311 44.1592 37.9453 44.2139C38.0753 43.4209 38.0343 42.5801 38.39 41.8418Z" fill="#EBFA9E"/>
</g>
<defs>
<clipPath id="clip0_948_7432">
<rect width="32.971" height="35" fill="white" transform="translate(19 17)"/>
</clipPath>
</defs>
</svg>
