<svg width="231" height="233" viewBox="0 0 231 233" fill="none" xmlns="http://www.w3.org/2000/svg">
<path d="M104.807 223.885L104.807 223.885C102.378 221.161 98.3417 220.581 95.2442 222.51L87.9602 227.046C84.6627 229.099 80.3134 227.822 78.6503 224.313L74.9753 216.558L74.5235 216.773L74.9753 216.558C73.4121 213.262 69.7029 211.568 66.1875 212.546L57.9205 214.846C54.1793 215.887 50.3656 213.436 49.7584 209.6L48.4164 201.124C47.8463 197.52 44.7638 194.85 41.1156 194.799L32.5356 194.677C28.6522 194.621 25.6827 191.195 26.1814 187.344L25.6855 187.28L26.1814 187.344L27.2814 178.834C27.7496 175.214 25.5446 171.784 22.0582 170.706L21.9105 171.184L22.0582 170.706L13.8602 168.172C10.1496 167.025 8.26649 162.901 9.83021 159.346L9.37252 159.145L9.83025 159.346L13.2833 151.491C14.7522 148.15 13.6025 144.237 10.5619 142.221L10.2855 142.638L10.5618 142.221L3.4098 137.48C0.172799 135.334 -0.472556 130.847 2.02903 127.876L7.55502 121.312C9.9057 118.521 9.9057 114.443 7.55494 111.652L2.02905 105.088C-0.472553 102.116 0.172802 97.6293 3.40982 95.4834L10.5618 90.7424L10.2855 90.3256L10.5619 90.7423C13.6025 88.7259 14.7522 84.8131 13.2832 81.4723L9.83026 73.6174L9.37253 73.8186L9.83021 73.6173C8.26649 70.0618 10.1496 65.9381 13.8602 64.7913L22.0582 62.2573C25.5446 61.1795 27.7496 57.7488 27.2814 54.1295L26.1814 45.6195L25.6855 45.6836L26.1814 45.6194C25.6828 41.7679 28.6522 38.3423 32.5357 38.2866L41.1156 38.1646C44.7638 38.1131 47.8464 35.4431 48.4164 31.8387L49.7584 23.3628C50.3657 19.5269 54.1793 17.0764 57.9205 18.1173L66.1874 20.4173C66.1874 20.4173 66.1875 20.4173 66.1875 20.4173C69.7031 21.3966 73.4122 19.7014 74.9753 16.4048L74.5235 16.1906L74.9754 16.4048L78.6503 8.65074C80.3134 5.14078 84.6637 3.86394 87.9602 5.91701L95.2442 10.4531C98.3418 12.3827 102.378 11.8019 104.807 9.07842L104.434 8.74562L104.807 9.07834L110.517 2.67347C113.102 -0.22465 117.635 -0.22465 120.22 2.67347L125.93 9.07834L126.304 8.74563L125.93 9.07842C128.359 11.8019 132.395 12.3827 135.493 10.453L142.777 5.91705C146.074 3.8639 150.424 5.1408 152.087 8.6507L152.539 8.43661L152.087 8.65075L155.762 16.4048L156.214 16.1906L155.762 16.4049C157.325 19.7015 161.034 21.3966 164.55 20.4173C164.55 20.4173 164.55 20.4173 164.55 20.4173L172.817 18.1173C176.558 17.0764 180.371 19.5269 180.979 23.3628L182.321 31.8388C182.891 35.4431 185.973 38.1132 189.621 38.1646L198.201 38.2866C202.085 38.3423 205.054 41.7679 204.556 45.6194L205.052 45.6836L204.556 45.6195L203.456 54.1295C202.987 57.7488 205.192 61.1795 208.679 62.2573L208.827 61.7796L208.679 62.2573L216.877 64.7913C220.587 65.9381 222.471 70.0618 220.907 73.6173L221.365 73.8186L220.907 73.6174L217.454 81.4724C215.985 84.8131 217.135 88.7259 220.175 90.7423L220.452 90.3256L220.175 90.7424L227.327 95.4834C230.564 97.6293 231.21 102.116 228.708 105.088L223.182 111.652C220.831 114.443 220.831 118.521 223.182 121.312L228.708 127.876C231.21 130.847 230.564 135.334 227.327 137.48L220.175 142.221L220.175 142.221C217.135 144.237 215.985 148.15 217.454 151.491L220.907 159.346L220.907 159.346C222.471 162.901 220.587 167.025 216.877 168.172L217.025 168.65L216.877 168.172L208.679 170.706L208.827 171.184L208.679 170.706C205.192 171.784 202.987 175.214 203.456 178.834L204.556 187.344L204.556 187.344C205.054 191.195 202.085 194.621 198.201 194.677L189.622 194.799C189.622 194.799 189.622 194.799 189.622 194.799C185.973 194.85 182.891 197.52 182.321 201.125L180.979 209.6L181.473 209.679L180.979 209.6C180.371 213.436 176.558 215.887 172.817 214.846L164.55 212.546C161.034 211.568 157.325 213.262 155.762 216.558L155.762 216.558L152.087 224.312L152.539 224.527L152.087 224.313C150.424 227.822 146.073 229.099 142.777 227.046L142.513 227.471L142.777 227.046L135.493 222.51C132.395 220.581 128.359 221.161 125.93 223.885L125.93 223.885L120.22 230.29C120.22 230.29 120.22 230.29 120.22 230.29C117.635 233.188 113.102 233.188 110.517 230.29C110.517 230.29 110.517 230.29 110.517 230.29L104.807 223.885Z" fill="#FFF7D6" stroke="#2A5339"/>
</svg>
