<svg width="107" height="85" viewBox="0 0 107 85" fill="none" xmlns="http://www.w3.org/2000/svg">
<path d="M74.4946 35.22C82.7069 35.22 89.3642 27.3947 89.3642 17.7417C89.3642 8.08873 82.7069 0.263428 74.4946 0.263428C66.2823 0.263428 59.625 8.08873 59.625 17.7417C59.625 27.3947 66.2823 35.22 74.4946 35.22Z" fill="#2A5339"/>
<path d="M30.6684 35.22C38.8807 35.22 45.5381 27.3947 45.5381 17.7417C45.5381 8.08873 38.8807 0.263428 30.6684 0.263428C22.4562 0.263428 15.7988 8.08873 15.7988 17.7417C15.7988 27.3947 22.4562 35.22 30.6684 35.22Z" fill="#2A5339"/>
<path fill-rule="evenodd" clip-rule="evenodd" d="M3.27747 38.3506C5.00647 38.3506 6.40747 39.7526 6.40747 41.4816C6.40747 61.0226 26.6095 78.0026 53.1035 78.0026C79.5975 78.0026 99.7985 61.0226 99.7985 41.4816C99.7985 39.7526 101.2 38.3506 102.929 38.3506C104.658 38.3506 106.059 39.7526 106.059 41.4816C106.059 65.7386 81.6455 84.2636 53.1035 84.2636C24.5605 84.2636 0.146484 65.7386 0.146484 41.4816C0.146484 39.7526 1.54847 38.3506 3.27747 38.3506Z" fill="#2A5339"/>
</svg>
