<svg width="60" height="60" viewBox="0 0 60 60" fill="none" xmlns="http://www.w3.org/2000/svg">
<g clip-path="url(#clip0_376_2525)">
<path d="M43.1391 0H57.225C58.643 0.128906 59.85 1.38281 59.85 2.8125C59.8617 5.42578 59.85 8.03906 59.85 10.6523C59.8735 12.0703 58.7016 13.3828 57.2953 13.5117C56.3696 13.5703 55.4438 13.5117 54.5297 13.5352C54.2133 13.5352 53.9672 13.7812 53.7094 13.9219C50.8031 15.7383 47.9086 17.5547 44.9906 19.3711C45.3188 17.4258 45.6586 15.4805 45.9867 13.5352C45.0844 13.5234 44.1821 13.5469 43.2914 13.5234C41.6977 13.5117 40.3617 11.9883 40.5024 10.4062C40.5141 7.86328 40.4906 5.33203 40.5141 2.78906C40.5258 1.38281 41.7328 0.140625 43.1391 0ZM42.4477 2.92969C42.4477 5.50781 42.436 8.07422 42.4477 10.6523C42.436 11.1562 42.893 11.6133 43.3969 11.6016C45.0258 11.6133 46.6547 11.6016 48.2836 11.6016C48.061 12.8789 47.8383 14.168 47.6274 15.4453C49.6781 14.1797 51.7055 12.8789 53.7563 11.625C54.8344 11.5664 55.9242 11.625 57.0141 11.5898C57.5414 11.5781 57.975 11.0625 57.9281 10.5469C57.9281 8.00391 57.9281 5.44922 57.9281 2.90625C57.9516 2.35547 57.436 1.875 56.8852 1.93359C52.3969 1.93359 47.9086 1.93359 43.4203 1.93359C42.8813 1.92188 42.4125 2.41406 42.4477 2.92969Z" fill="#1C2436"/>
<path d="M23.4375 3.6796C28.1719 2.51945 33.2227 2.67179 37.8867 4.1132C37.6992 4.73429 37.5117 5.34367 37.3125 5.96476C32.9297 4.60539 28.1719 4.47648 23.7305 5.60148C19.1484 6.74992 14.9063 9.22257 11.6484 12.6562C8.63672 15.7968 6.48047 19.746 5.44922 23.9648C6.32813 23.4491 7.19531 22.9218 8.0625 22.3944C8.39063 22.9569 8.75391 23.496 9.04688 24.0702C7.13672 25.1718 5.28516 26.3554 3.375 27.4452C2.27344 25.5468 1.125 23.6718 0 21.7851C0.550781 21.4569 1.11328 21.1288 1.65234 20.789C2.26172 21.8085 2.87109 22.828 3.49219 23.8476C4.64062 18.8905 7.21875 14.2734 10.8633 10.6991C14.3203 7.28898 18.7148 4.82804 23.4375 3.6796Z" fill="#1C2436"/>
<path d="M44.3789 3.86719C48.2461 3.86719 52.125 3.86719 55.9922 3.86719C55.9922 4.51172 55.9922 5.15625 55.9922 5.80078C52.125 5.80078 48.2461 5.80078 44.3789 5.80078C44.3789 5.15625 44.3789 4.51172 44.3789 3.86719Z" fill="#1C2436"/>
<path d="M44.3789 7.74609C46.957 7.74609 49.5352 7.74609 52.125 7.74609C52.125 8.39062 52.125 9.03516 52.125 9.67969C49.5469 9.67969 46.9688 9.67969 44.3789 9.67969C44.3789 9.03516 44.3789 8.39062 44.3789 7.74609Z" fill="#1C2436"/>
<path d="M54.0599 7.74609C54.7044 7.74609 55.349 7.74609 55.9935 7.74609C55.9935 8.39062 55.9935 9.03516 55.9935 9.67969C55.349 9.67969 54.7044 9.66797 54.0599 9.67969C54.0482 9.03516 54.0599 8.39062 54.0599 7.74609Z" fill="#1C2436"/>
<path d="M20.7076 13.6406C22.7349 11.4726 25.5591 10.0546 28.5123 9.74996C31.3716 9.43356 34.3248 10.1367 36.7154 11.7187C39.4927 13.5234 41.5084 16.4531 42.1763 19.6992C42.399 20.7304 42.4576 21.7851 42.4459 22.8398C42.4459 26.5195 42.4459 30.1875 42.4459 33.8671C42.4576 35.0742 41.6373 36.2226 40.5005 36.5976C39.563 36.8906 38.5669 36.7031 37.5943 36.7617C36.8091 37.7929 35.8248 38.6718 34.7115 39.3281C34.7115 39.4922 34.7115 39.6562 34.7115 39.8203C36.8795 40.2187 39.0357 40.6054 41.2037 41.0039C43.606 41.4257 45.6802 43.2539 46.4068 45.5742C47.1451 47.8007 47.8834 50.0156 48.6216 52.2421C41.7076 52.2421 34.7818 52.2421 27.856 52.2421C28.3482 52.7343 28.8287 53.2148 29.3209 53.707C27.7271 55.1718 26.1334 56.6367 24.5396 58.0898C23.3443 59.2617 21.6919 59.9296 20.0279 59.9765H19.6763C18.4927 59.9296 17.3091 59.5898 16.2896 58.957C15.3169 58.3593 14.5787 57.4687 13.7584 56.6836C9.83257 52.7578 5.90679 48.832 1.98101 44.9062C0.715386 43.664 -0.0228958 41.8828 0.000541722 40.0781C0.0122605 38.3437 0.715386 36.6328 1.93414 35.4023C3.38726 33.9375 4.84039 32.4843 6.30523 31.0429C8.69586 33.4336 11.0865 35.8242 13.4771 38.2148C12.2349 39.457 10.9927 40.6992 9.75054 41.9414C9.52789 42.1523 9.35211 42.4453 9.37554 42.7734C9.37554 43.1836 9.71539 43.4648 9.98492 43.7343C10.9927 44.707 11.9419 45.7265 12.9732 46.6757C13.2544 45.8437 13.4888 44.9882 13.9459 44.2382C14.8951 42.6093 16.5591 41.4257 18.4107 41.0507C20.6138 40.6406 22.8287 40.2421 25.0318 39.8437C25.0318 39.6796 25.0318 39.5156 25.0318 39.3515C22.6529 37.9687 20.8951 35.5546 20.3794 32.8476C19.2427 32.5781 18.2115 31.8281 17.6959 30.7617C17.356 30.1054 17.2623 29.3437 17.2857 28.6054C17.2974 26.414 17.274 24.2226 17.2974 22.0312C17.3209 18.9375 18.5748 15.8789 20.7076 13.6406ZM24.4224 13.1132C22.0435 14.5195 20.2505 16.8984 19.5591 19.582C19.0201 21.5742 19.2779 23.6601 19.2193 25.6992C19.524 25.5351 19.8521 25.4062 20.1919 25.3007C20.1919 24.9375 20.1919 24.5625 20.2037 24.1992C20.8716 24.2109 21.5396 24.2109 22.2076 24.1523C24.2115 23.9648 26.1451 23.1914 27.7271 21.9492C28.5005 21.3515 29.1685 20.6132 29.8716 19.9336C30.5865 20.6484 31.2779 21.3984 32.0865 22.0078C33.3052 22.9453 34.7232 23.6015 36.2232 23.9414C37.3248 24.1992 38.4615 24.2226 39.5748 24.1992C39.563 24.5625 39.563 24.9375 39.5748 25.3007C39.9029 25.3828 40.2076 25.5234 40.5123 25.6757C40.4537 25.3242 40.4419 24.9726 40.4888 24.6211C40.5123 23.4843 40.4888 22.3476 40.4419 21.2226C40.1959 18.6796 38.9888 16.2539 37.1255 14.5195C35.6373 13.125 33.7388 12.1289 31.7232 11.789C29.2271 11.332 26.5904 11.8125 24.4224 13.1132ZM22.1255 26.0859C22.1255 27.7382 22.1255 29.4023 22.1255 31.0546C22.1373 33.2343 23.1334 35.3671 24.7857 36.7968C26.3443 38.1679 28.4654 38.8711 30.5279 38.6718C32.1685 38.5429 33.7271 37.8398 34.9576 36.7734C33.2584 36.7734 31.5591 36.7734 29.8599 36.7734C29.8599 36.1289 29.8599 35.4843 29.8599 34.8398C32.0865 34.8398 34.313 34.8398 36.5396 34.8398C37.231 33.6679 37.5943 32.3086 37.5943 30.9375C37.5943 29.3203 37.5943 27.7148 37.5943 26.0976C34.7232 25.875 31.9459 24.6445 29.8599 22.6523C27.774 24.6445 24.9966 25.8867 22.1255 26.0859ZM19.2193 29.0507C19.2076 29.7304 19.6177 30.3398 20.1802 30.7031C20.1919 29.5898 20.1919 28.4648 20.1802 27.3515C19.606 27.7265 19.1959 28.3593 19.2193 29.0507ZM39.5396 27.3632C39.5279 28.4765 39.5279 29.5898 39.5396 30.7148C40.0669 30.375 40.4537 29.8125 40.4888 29.1796C40.5709 28.4414 40.149 27.7382 39.5396 27.3632ZM39.3521 32.8359C39.2115 33.5273 39.0005 34.1953 38.731 34.8398C39.0357 34.8398 39.3521 34.8515 39.6568 34.8281C40.0787 34.7929 40.4537 34.4179 40.4888 33.9961C40.524 33.457 40.4888 32.9179 40.5005 32.3789C40.1373 32.5664 39.7505 32.7187 39.3521 32.8359ZM5.25054 34.8281C6.7271 36.3047 8.20367 37.7812 9.69195 39.2695C10.0435 38.9179 10.3951 38.5664 10.7466 38.2148C9.27007 36.7382 7.79351 35.25 6.30523 33.7734C5.95367 34.125 5.6021 34.4765 5.25054 34.8281ZM3.0357 37.0781C2.26226 38.0039 1.87554 39.2226 1.94585 40.4296C2.00445 41.6367 2.55523 42.7851 3.4107 43.6289C7.77007 47.9765 12.1177 52.3359 16.4654 56.6836C17.813 58.0312 19.981 58.4414 21.7271 57.6797C22.5474 57.3632 23.1802 56.7304 23.813 56.1445C22.3248 54.6562 20.8482 53.1796 19.3599 51.6914C18.3052 52.8046 16.3834 52.8632 15.2818 51.7851C13.0435 49.5703 10.8287 47.332 8.60211 45.1171C8.18023 44.7187 7.78179 44.2851 7.59429 43.7343C7.19586 42.6797 7.50054 41.4257 8.29742 40.6406C6.82086 39.164 5.34429 37.6875 3.86773 36.2109C3.58648 36.4804 3.29351 36.7617 3.0357 37.0781ZM26.9185 40.1953C27.8912 41.1914 28.8755 42.164 29.8599 43.1484C30.8326 42.1523 31.8404 41.1914 32.8013 40.1953C30.8912 40.7929 28.8287 40.7812 26.9185 40.1953ZM18.856 42.9257C17.6841 43.1484 16.5943 43.8281 15.8794 44.789C15.1177 45.7968 14.9068 47.0742 14.4732 48.2343C15.188 48.9375 15.8912 49.6523 16.606 50.3554C16.9576 50.707 17.5787 50.707 17.9302 50.3671C19.3365 49.1015 20.7427 47.8359 22.1373 46.5586C23.4029 47.8125 24.6451 49.0664 25.9107 50.3203C31.5943 50.3203 37.2779 50.3203 42.9732 50.3203C43.9576 50.3203 44.9419 50.3203 45.9263 50.3203C45.5396 49.1484 45.1529 47.9882 44.7544 46.8164C44.5552 46.2187 44.3677 45.5976 44.0162 45.0703C43.2896 43.9218 42.0474 43.1132 40.6998 42.9023C39.2935 42.6562 37.899 42.3632 36.481 42.164C35.6724 41.9648 34.8404 41.8593 34.0318 41.6953C32.6373 43.0898 31.231 44.4961 29.8365 45.8906C28.4302 44.4961 27.0357 43.0781 25.6294 41.6953C23.3912 42.1054 21.1177 42.5039 18.856 42.9257ZM20.813 50.3789C22.3013 51.8671 23.7779 53.3437 25.2662 54.832C25.688 54.4453 26.1099 54.0586 26.5318 53.6718C25.0552 52.1953 23.5787 50.707 22.0904 49.2304C21.6568 49.6171 21.2349 49.9921 20.813 50.3789Z" fill="#1C2436"/>
<path d="M53.7187 18.0234C55.6055 19.1602 57.5039 20.2852 59.3906 21.4219C59.0625 21.9727 58.7344 22.5234 58.3945 23.0742C57.4453 22.5117 56.5078 21.9375 55.5586 21.375C57.2695 26.4727 57.4219 32.0859 55.957 37.2656C54.9727 40.8281 53.2383 44.1797 50.918 47.0508C50.4141 46.6406 49.9219 46.2422 49.418 45.832C52.2422 42.3398 54.1055 38.0859 54.7617 33.6328C55.3477 29.6953 54.9727 25.6289 53.6953 21.8555C53.1211 22.793 52.5703 23.7422 51.9961 24.6797C51.4453 24.3516 50.9062 24 50.3437 23.707C51.4336 21.8086 52.5937 19.9219 53.7187 18.0234Z" fill="#1C2436"/>
<path d="M42.4455 2.92977C42.4104 2.40243 42.8791 1.91024 43.4065 1.93368C47.8948 1.92196 52.383 1.93368 56.8713 1.93368C57.4221 1.8868 57.9377 2.35555 57.9143 2.90633C57.926 5.4493 57.9143 8.00399 57.9143 10.547C57.9612 11.0626 57.5393 11.5899 57.0002 11.5899C55.9104 11.6251 54.8205 11.5548 53.7424 11.6251C51.6916 12.879 49.6643 14.1798 47.6135 15.4454C47.8244 14.168 48.0588 12.879 48.2698 11.6016C46.6408 11.6016 45.0119 11.6016 43.383 11.6016C42.8791 11.6134 42.4221 11.168 42.4338 10.6524C42.4338 8.08602 42.4455 5.50789 42.4455 2.92977ZM44.3791 3.86727C44.3791 4.5118 44.3791 5.15633 44.3791 5.80086C48.2463 5.80086 52.1252 5.80086 55.9924 5.80086C55.9924 5.15633 55.9924 4.5118 55.9924 3.86727C52.1135 3.86727 48.2463 3.86727 44.3791 3.86727ZM44.3791 7.74617C44.3791 8.39071 44.3791 9.03524 44.3791 9.67977C46.9573 9.67977 49.5354 9.67977 52.1252 9.67977C52.1252 9.03524 52.1252 8.39071 52.1252 7.74617C49.5354 7.74617 46.9573 7.74617 44.3791 7.74617ZM54.0588 7.74617C54.0588 8.39071 54.0471 9.03524 54.0588 9.69149C54.7033 9.67977 55.3479 9.69149 55.9924 9.69149C55.9924 9.04696 55.9924 8.40242 55.9924 7.75789C55.3479 7.74617 54.7033 7.74617 54.0588 7.74617Z" fill="#4DF189"/>
<path d="M24.4218 13.1133C26.5898 11.8125 29.2265 11.3321 31.7109 11.7774C33.7382 12.1172 35.625 13.1016 37.1132 14.5079C38.9882 16.2422 40.1953 18.668 40.4296 21.211C40.4765 22.3477 40.4882 23.4844 40.4765 24.6094C40.4296 24.961 40.4531 25.3125 40.5 25.6641C40.1953 25.5118 39.8906 25.3829 39.5625 25.2891C39.5625 24.9258 39.5625 24.5508 39.5625 24.1875C38.4375 24.1993 37.3007 24.1875 36.2109 23.9297C34.7109 23.5899 33.2929 22.9336 32.0742 21.9961C31.2656 21.3868 30.5859 20.625 29.8593 19.9219C29.1562 20.6016 28.5 21.3399 27.7148 21.9375C26.1328 23.1797 24.1875 23.9532 22.1953 24.1407C21.5273 24.1993 20.8593 24.1993 20.1914 24.1875C20.1796 24.5508 20.1796 24.9258 20.1796 25.2891C19.8398 25.3946 19.5234 25.5235 19.207 25.6875C19.2656 23.6485 19.0078 21.5625 19.5468 19.5704C20.25 16.8868 22.0429 14.5196 24.4218 13.1133Z" fill="#FFEFEB"/>
<path d="M22.1249 26.0859C24.996 25.875 27.785 24.6445 29.871 22.6523C31.9569 24.6445 34.7343 25.875 37.6054 26.0977C37.6054 27.7148 37.6054 29.3203 37.6054 30.9375C37.6054 32.2969 37.2421 33.6562 36.5507 34.8398C34.3241 34.8398 32.0975 34.8398 29.871 34.8398C29.871 35.4844 29.871 36.1289 29.871 36.7734C31.5702 36.7734 33.2694 36.7734 34.9686 36.7734C33.7264 37.8398 32.1679 38.5547 30.5389 38.6719C28.4764 38.8711 26.3436 38.168 24.7968 36.7969C23.1561 35.3789 22.1483 33.2344 22.1366 31.0547C22.1132 29.4023 22.1132 27.75 22.1249 26.0859Z" fill="#FFF7D6"/>
<path d="M19.2197 29.0508C19.1963 28.3594 19.6064 27.7148 20.1806 27.3516C20.1924 28.4648 20.1924 29.5898 20.1806 30.7031C19.6181 30.3516 19.208 29.7305 19.2197 29.0508Z" fill="#FFF7D6"/>
<path d="M39.5404 27.3633C40.1497 27.7383 40.5599 28.4414 40.4896 29.1797C40.4544 29.8125 40.056 30.375 39.5404 30.7148C39.5286 29.5898 39.5404 28.4766 39.5404 27.3633Z" fill="#FFF7D6"/>
<path d="M26.918 40.1953C28.8281 40.7812 30.8906 40.793 32.8008 40.1953C31.8398 41.2031 30.8438 42.1641 29.8594 43.1484C28.875 42.1641 27.8906 41.1914 26.918 40.1953Z" fill="#FFF7D6"/>
<path d="M5.25 34.8281C5.60156 34.4766 5.95313 34.125 6.29297 33.7734C7.78125 35.25 9.25781 36.7266 10.7344 38.2148C10.3828 38.5664 10.0312 38.918 9.67969 39.2695C8.21484 37.7812 6.72656 36.3047 5.25 34.8281Z" fill="#4DF189"/>
<path d="M3.03624 37.0781C3.29405 36.7617 3.59874 36.4805 3.89171 36.1875C5.36827 37.6641 6.84483 39.1406 8.32139 40.6172C7.52452 41.4023 7.21983 42.6563 7.61827 43.7109C7.80577 44.2617 8.20421 44.707 8.62608 45.0938C10.8526 47.3203 13.0675 49.5469 15.3058 51.7617C16.3956 52.8398 18.3292 52.7812 19.3839 51.668C20.8722 53.1562 22.3605 54.6328 23.837 56.1211C23.2042 56.707 22.5714 57.3398 21.7511 57.6563C20.005 58.418 17.837 58.0195 16.4894 56.6602C12.13 52.3125 7.78233 47.9531 3.43468 43.6055C2.56749 42.7734 2.02843 41.6133 1.96983 40.4062C1.86436 39.2344 2.2628 38.0039 3.03624 37.0781Z" fill="#4DF189"/>
<path d="M20.8125 50.3789C21.2461 49.9922 21.668 49.6055 22.0898 49.2188C23.5664 50.6953 25.0547 52.1836 26.5312 53.6602C26.1094 54.0469 25.6875 54.4336 25.2656 54.8203C23.7773 53.3437 22.2891 51.8672 20.8125 50.3789Z" fill="#4DF189"/>
<path d="M18.8555 42.9258C21.1172 42.5039 23.3789 42.1055 25.6406 41.6836C27.0586 43.0664 28.4414 44.4844 29.8477 45.8789C31.2422 44.4844 32.6484 43.0781 34.043 41.6836C34.8516 41.8477 35.6836 41.9531 36.4922 42.1523C37.5234 42.7852 38.6016 43.3359 39.6445 43.9336C40.3008 44.3203 41.0273 44.625 41.5664 45.1875C42.1523 45.7852 42.5273 46.5703 42.6328 47.3906C42.7617 48.3633 42.8555 49.3477 42.9609 50.3203C37.2773 50.3203 31.5938 50.3203 25.8984 50.3203C24.6445 49.0664 23.3906 47.8125 22.125 46.5586C20.7188 47.8242 19.3242 49.1016 17.918 50.3672C17.5547 50.707 16.9453 50.707 16.5938 50.3555C15.8789 49.6523 15.1758 48.9375 14.4609 48.2344C14.8945 47.0742 15.1055 45.7969 15.8672 44.7891C16.6055 43.8281 17.6836 43.1484 18.8555 42.9258Z" fill="#D6FFD8"/>
<path d="M36.5039 42.1523C37.9102 42.3633 39.3164 42.6562 40.7227 42.8906C42.0703 43.1016 43.3008 43.9102 44.0391 45.0586C44.3906 45.5859 44.5781 46.207 44.7773 46.8047C45.1641 47.9766 45.5508 49.1367 45.9492 50.3086C44.9648 50.3086 43.9805 50.3086 42.9961 50.3086C42.8789 49.3359 42.7852 48.3516 42.668 47.3789C42.5625 46.5586 42.1758 45.7734 41.6016 45.1758C41.0625 44.6133 40.3477 44.2969 39.6797 43.9219C38.6133 43.3359 37.5352 42.7852 36.5039 42.1523Z" fill="#D6FFD8"/>
</g>
<defs>
<clipPath id="clip0_376_2525">
<rect width="59.8594" height="60" fill="white"/>
</clipPath>
</defs>
</svg>
