<svg width="50" height="50" viewBox="0 0 50 50" fill="none" xmlns="http://www.w3.org/2000/svg">
<g clip-path="url(#clip0_338_1047)">
<path d="M11.6336 0.171396C12.7728 -0.141104 14.0328 -0.020136 15.0913 0.524219C16.1901 1.07865 17.0469 2.06656 17.4603 3.22583C18.9623 3.23591 20.4744 3.21575 21.9764 3.23591C23.5389 3.28632 24.9905 4.35486 25.5348 5.81656C25.7667 6.40124 25.8171 7.03632 25.807 7.66132C25.807 9.43551 25.807 11.2097 25.807 12.9839C26.1094 12.9335 26.4119 12.9033 26.7143 12.9033C28.1155 12.9033 29.5268 12.9033 30.928 12.9033C31.3615 11.6734 32.309 10.6452 33.4986 10.1109C34.7586 9.52623 36.2808 9.5464 37.5409 10.1412C38.7002 10.6754 39.6074 11.7037 40.0409 12.9033C41.5429 12.9133 43.055 12.8932 44.557 12.9133C46.1699 12.9738 47.6619 14.1129 48.1659 15.6351C48.4482 16.4012 48.3776 17.2379 48.3877 18.0444C48.3877 20.9375 48.3978 23.8307 48.3877 26.7238C48.3675 28.4577 47.0873 30.0706 45.4139 30.5041C44.6175 30.746 43.7808 30.5948 42.9744 30.6754C41.0086 31.9557 39.0631 33.2762 37.1074 34.5766C37.0973 33.2662 37.1074 31.9557 37.1074 30.6553C35.5248 30.6553 33.9522 30.6553 32.3695 30.6553C32.2586 30.6855 32.0167 30.5847 31.9965 30.7561C31.3816 33.6895 29.6175 36.3508 27.178 38.0847C24.9098 39.7278 22.0469 40.5141 19.2546 40.3024C17.2486 40.1613 15.2828 39.4758 13.5893 38.377C13.1961 38.7601 12.8232 39.1432 12.43 39.5262C12.7022 39.7984 12.9643 40.0605 13.2264 40.3327C10.9078 42.6613 8.5792 44.9799 6.26065 47.2984C5.52477 48.0444 4.4663 48.4577 3.41791 48.377C2.03686 48.3065 0.756622 47.369 0.262671 46.0787C-0.271603 44.7682 0.0408965 43.1653 1.04896 42.1674C3.38767 39.8287 5.72638 37.4799 8.06509 35.1512C8.33727 35.4133 8.59936 35.6855 8.87154 35.9476C9.25461 35.5645 9.64775 35.1815 10.0207 34.7883C8.72033 32.8024 8.01469 30.4133 8.06509 28.0242C8.09533 25.494 8.98243 22.9839 10.5046 20.9678C8.34735 20.9678 6.18001 20.9678 4.02275 20.9678C2.78283 20.9678 1.55299 20.3528 0.817106 19.3549C0.272751 18.6391 -0.00950661 17.7319 0.000574037 16.8347C0.000574037 13.6089 -0.00950661 10.3831 0.000574037 7.16736C0.0207353 5.67543 0.958235 4.24398 2.30904 3.61898C2.8534 3.35688 3.43807 3.22583 4.03283 3.22583C5.47436 3.21575 6.90582 3.22583 8.34735 3.22583C8.86146 1.75406 10.1316 0.574622 11.6336 0.171396ZM12.2486 1.68349C11.6135 1.81454 11.0288 2.1472 10.5752 2.61091C9.50662 3.67946 9.38565 5.5343 10.303 6.7339C11.2002 8.00406 13.0651 8.43752 14.4159 7.6714C15.807 6.96575 16.4925 5.18148 15.928 3.72986C15.424 2.25809 13.7607 1.33067 12.2486 1.68349ZM1.61348 7.15728C1.6034 10.4133 1.61348 13.6795 1.61348 16.9355C1.58324 18.1855 2.67195 19.3246 3.92195 19.3448C6.6034 19.3549 9.28485 19.3448 11.9663 19.3448C12.6316 18.7299 13.3574 18.1956 14.1437 17.742C11.0389 17.7218 7.93404 17.742 4.83928 17.7319C4.84936 16.5424 4.76872 15.3327 5.08122 14.1734C5.68606 11.6936 7.55098 9.57664 9.91993 8.63914C8.77073 7.73188 8.05501 6.31051 8.06509 4.83874C6.68404 4.83874 5.30299 4.82865 3.93203 4.83874C2.71227 4.86898 1.63364 5.93752 1.61348 7.15728ZM17.7425 4.83874C17.7425 6.31051 17.0268 7.73188 15.8776 8.63914C17.309 9.21373 18.5691 10.2016 19.4663 11.4617C20.4441 12.8226 20.9683 14.496 20.9683 16.1694C21.5228 16.2198 22.0873 16.2702 22.6316 16.3811C22.7828 15.3327 23.3574 14.3649 24.1941 13.7198C24.1941 11.7339 24.1941 9.73793 24.1941 7.75204C24.1941 7.28833 24.2143 6.81454 24.0328 6.38107C23.6901 5.47382 22.7526 4.82865 21.7748 4.83874C20.434 4.83874 19.0933 4.83874 17.7425 4.83874ZM12.682 9.67744C12.5107 11.8246 12.3393 13.9718 12.1679 16.1291C12.6619 16.1291 13.1558 16.1291 13.6498 16.1291C13.4885 13.9819 13.2969 11.8347 13.1457 9.69761C12.9844 9.68752 12.8332 9.67744 12.682 9.67744ZM7.78283 12.2178C6.92598 13.3266 6.45219 14.7278 6.45219 16.1291C7.82315 16.1291 9.18404 16.1391 10.555 16.119C10.7062 14.0625 10.8877 12.0061 11.0389 9.94962C9.75864 10.3528 8.59936 11.1391 7.78283 12.2178ZM14.7687 9.94962C14.9199 12.0061 15.1014 14.0625 15.2526 16.119C16.6236 16.1291 17.9844 16.119 19.3554 16.1291C19.3453 14.869 18.9723 13.6089 18.2768 12.5605C17.4502 11.3206 16.1901 10.3831 14.7687 9.94962ZM34.8191 11.3609C33.3675 11.6432 32.2284 13.0343 32.2586 14.5162C32.2284 15.9476 33.2869 17.2883 34.6679 17.6311C36.0389 18.0141 37.6014 17.3387 38.2768 16.0988C38.9925 14.8791 38.7607 13.2158 37.7526 12.2379C37.0167 11.4718 35.8675 11.1391 34.8191 11.3609ZM24.1941 16.8347C26.2203 17.5605 28.0449 18.8307 29.4361 20.4738C30.2728 19.5363 31.3211 18.7903 32.4905 18.3266C31.3615 17.3992 30.6357 15.9879 30.6357 14.5162C29.2546 14.5162 27.8736 14.5061 26.5026 14.5262C25.2828 14.5464 24.2344 15.625 24.1941 16.8347ZM40.3232 14.5162C40.3232 15.9879 39.6074 17.4093 38.4582 18.3166C40.7768 19.2339 42.6215 21.2803 43.2566 23.6895C43.6094 24.8992 43.5389 26.1694 43.5389 27.4093C39.7586 27.4093 35.9885 27.4093 32.2082 27.4093C32.2586 27.9436 32.2586 28.4879 32.2082 29.0222C34.3756 29.0222 36.5328 29.0222 38.7002 29.0222C38.7002 29.869 38.7002 30.7057 38.7002 31.5524C39.9502 30.7258 41.2002 29.8791 42.4603 29.0524C43.2465 28.9617 44.0631 29.1028 44.8494 28.9718C45.9381 28.7601 46.7848 27.7218 46.7748 26.6129C46.7748 23.3468 46.7848 20.0908 46.7748 16.8246C46.7546 15.6149 45.6861 14.5363 44.4663 14.5162C43.0853 14.5061 41.7042 14.5162 40.3232 14.5162ZM18.8111 17.8226C17.4703 17.994 16.1598 18.4375 14.9804 19.1129C12.8534 20.3226 11.1699 22.2984 10.3232 24.6069C9.40582 27.0565 9.4663 29.8589 10.4945 32.2783C11.5026 34.6976 13.4582 36.7137 15.8574 37.7823C18.2264 38.871 21.0187 39.002 23.4885 38.1754C26.0389 37.3287 28.2264 35.4637 29.4663 33.0746C30.6659 30.8065 30.9683 28.0847 30.3232 25.6049C29.6377 22.9839 27.9139 20.6653 25.6054 19.2641C23.5893 18.0242 21.1498 17.5202 18.8111 17.8226ZM35.2526 19.4557C35.0812 21.5726 34.9199 23.6895 34.7486 25.7964C35.2425 25.7964 35.7365 25.7964 36.2304 25.7964C36.059 23.6492 35.8978 21.492 35.7062 19.3448C35.5752 19.4053 35.2627 19.2541 35.2526 19.4557ZM37.3494 19.627C37.5107 21.6835 37.682 23.7399 37.8332 25.7964C39.2042 25.8166 40.5651 25.7964 41.9361 25.8065C41.926 24.6472 41.6135 23.4879 41.0187 22.4899C40.2022 21.1291 38.8715 20.0908 37.3494 19.627ZM30.4139 21.8448C31.18 23.0545 31.7143 24.4153 32.0167 25.8166C32.3897 25.8065 32.7526 25.8166 33.1256 25.8065C33.2768 23.7601 33.4482 21.7037 33.6094 19.6573C32.3594 20.0202 31.2203 20.7964 30.4139 21.8448ZM10.0107 37.0968C10.434 37.5202 10.8574 37.9537 11.2909 38.377C11.6236 38.0444 11.9562 37.7218 12.2788 37.3891C11.8252 36.996 11.4018 36.5625 10.9986 36.1089C10.676 36.4315 10.3433 36.7641 10.0107 37.0968ZM2.2284 43.2662C1.77477 43.6996 1.54291 44.3549 1.62356 44.9698C1.7042 45.746 2.2788 46.4315 3.01469 46.6633C3.74049 46.9153 4.58727 46.7037 5.11146 46.1492C7.05703 44.2037 9.00259 42.2581 10.9482 40.3125C9.99049 39.3448 9.02275 38.3871 8.05501 37.4194C6.11953 39.375 4.17396 41.3206 2.2284 43.2662Z" fill="#1C2436"/>
<path d="M4.03364 8.39724C4.66276 8.39724 5.17276 7.88725 5.17276 7.25813C5.17276 6.62902 4.66276 6.11902 4.03364 6.11902C3.40453 6.11902 2.89453 6.62902 2.89453 7.25813C2.89453 7.88725 3.40453 8.39724 4.03364 8.39724Z" fill="#1C2436"/>
<path d="M4.03364 11.623C4.66276 11.623 5.17276 11.113 5.17276 10.4838C5.17276 9.85473 4.66276 9.34473 4.03364 9.34473C3.40453 9.34473 2.89453 9.85473 2.89453 10.4838C2.89453 11.113 3.40453 11.623 4.03364 11.623Z" fill="#1C2436"/>
<path d="M43.5488 16.129C44.0831 16.129 44.6275 16.129 45.1617 16.129C45.1617 16.6633 45.1617 17.2077 45.1617 17.7419C44.6275 17.7419 44.0831 17.7419 43.5488 17.7419C43.5488 17.1976 43.5488 16.6633 43.5488 16.129Z" fill="#1C2436"/>
<path d="M18.9109 19.4455C20.6952 19.1935 22.5501 19.4859 24.1529 20.3024C26.0884 21.2701 27.6307 22.9738 28.417 24.9899C29.2033 26.9657 29.2335 29.2339 28.4976 31.2399C27.7517 33.3266 26.1791 35.1008 24.2134 36.1089C22.5501 36.9758 20.5944 37.2782 18.7396 36.9758C16.7033 36.6532 14.788 35.5746 13.4472 34.0121C12.1065 32.4697 11.3303 30.4637 11.29 28.4274C11.2396 26.4919 11.8545 24.5363 13.0037 22.9839C14.3948 21.0786 16.5722 19.7681 18.9109 19.4455ZM19.1025 21.0383C16.3101 21.4214 13.8807 23.5786 13.165 26.3004C12.7114 27.9334 12.8626 29.7379 13.5783 31.2701C14.3142 32.8629 15.6448 34.1633 17.2476 34.8589C19.7275 35.9778 22.8222 35.5242 24.8686 33.7298C26.2295 32.5705 27.1368 30.9072 27.3585 29.133C27.5198 27.8629 27.3384 26.5423 26.8343 25.3629C26.1791 23.8205 24.9694 22.5201 23.4876 21.7641C22.1468 21.0786 20.5944 20.8266 19.1025 21.0383Z" fill="#1C2436"/>
<path d="M43.5488 19.3549C44.0831 19.3549 44.6275 19.3549 45.1617 19.3549C45.1617 19.8891 45.1617 20.4335 45.1617 20.9678C44.6275 20.9678 44.0831 20.9678 43.5488 20.9678C43.5488 20.4234 43.5488 19.8891 43.5488 19.3549Z" fill="#1C2436"/>
<path d="M32.511 35.5444C32.7932 35.4839 33.0755 35.4738 33.3577 35.4839C38.1259 35.494 42.9041 35.4738 47.6723 35.494C48.9323 35.5141 50.0211 36.6532 49.9908 37.9032C49.9908 41.129 49.9908 44.3548 49.9908 47.5806C50.0009 48.5383 49.386 49.4556 48.4888 49.8186C48.0049 50.0302 47.4807 50.0101 46.9666 50C42.5311 50 38.0957 50 33.6602 50C33.1461 50 32.6118 50.0302 32.1279 49.8186C31.2408 49.4657 30.6158 48.5383 30.6259 47.5806C30.6259 44.5262 30.6259 41.4718 30.6259 38.4173C30.6259 37.9839 30.6057 37.5403 30.7569 37.127C31.0392 36.3407 31.7146 35.7258 32.511 35.5444ZM32.7932 37.1472C32.4404 37.2681 32.2287 37.6411 32.259 38.0141C32.259 41.2097 32.2489 44.4052 32.259 47.5907C32.2489 48.0544 32.7025 48.4375 33.1561 48.3871C37.9344 48.3871 42.7025 48.3871 47.4807 48.3871C47.9344 48.4375 48.3981 48.0544 48.3779 47.5907C48.388 44.3952 48.3779 41.1996 48.3779 38.004C48.4283 37.5504 48.0452 37.0968 47.5815 37.1069C42.8033 37.0968 38.0352 37.1069 33.2569 37.0968C33.1057 37.0968 32.9444 37.0867 32.7932 37.1472Z" fill="#1C2436"/>
<path d="M33.8711 38.7097C34.4054 38.7097 34.9497 38.7097 35.484 38.7097C35.484 40.8569 35.484 43.0142 35.484 45.1613C36.0183 45.1613 36.5626 45.1613 37.0969 45.1613C37.0969 44.6271 37.0969 44.0827 37.0969 43.5484C37.6312 43.5484 38.1755 43.5484 38.7098 43.5484C38.7098 44.0827 38.7098 44.6271 38.7098 45.1613C39.2441 45.1613 39.7884 45.1613 40.3227 45.1613C40.3227 44.0827 40.3227 43.0142 40.3227 41.9355C40.857 41.9355 41.4013 41.9355 41.9356 41.9355C41.9356 43.0142 41.9356 44.0827 41.9356 45.1613C42.4699 45.1613 43.0142 45.1613 43.5485 45.1613C43.5485 43.5484 43.5485 41.9355 43.5485 40.3226C44.0828 40.3226 44.6271 40.3226 45.1614 40.3226C45.1614 41.9355 45.1614 43.5484 45.1614 45.1613C45.6957 45.1613 46.24 45.1613 46.7743 45.1613C46.7743 45.6956 46.7743 46.24 46.7743 46.7742C42.4699 46.7742 38.1755 46.7742 33.8711 46.7742C33.8711 44.0827 33.8711 41.3912 33.8711 38.7097Z" fill="#1C2436"/>
<path d="M12.247 1.6835C13.7591 1.33067 15.4224 2.25809 15.9265 3.72987C16.491 5.18148 15.8055 6.96575 14.4144 7.6714C13.0535 8.43753 11.1885 8.00406 10.3015 6.7339C9.38411 5.52422 9.50508 3.67946 10.5736 2.61092C11.0172 2.13713 11.6119 1.81454 12.247 1.6835Z" fill="#D6FFD8"/>
<path d="M1.61194 7.15726C1.6321 5.9375 2.70065 4.85887 3.92041 4.83871C5.30146 4.82863 6.68251 4.83871 8.05348 4.83871C8.05348 6.31048 8.7692 7.73185 9.9184 8.63911C7.54944 9.57661 5.68452 11.6935 5.07969 14.1734C4.76719 15.3327 4.84783 16.5423 4.83775 17.7319C7.94259 17.7419 11.0373 17.7218 14.1422 17.7419C13.366 18.1956 12.6301 18.7298 11.9648 19.3448C9.28331 19.3448 6.60186 19.3548 3.92041 19.3448C2.67041 19.3246 1.5817 18.1855 1.61194 16.9355C1.61194 13.6794 1.61194 10.4133 1.61194 7.15726ZM3.22485 6.45161C3.22485 6.98589 3.22485 7.53024 3.22485 8.06452C3.75912 8.06452 4.30348 8.06452 4.83775 8.06452C4.83775 7.53024 4.83775 6.98589 4.83775 6.45161C4.30348 6.45161 3.75912 6.45161 3.22485 6.45161ZM3.22485 9.67742C3.22485 10.2117 3.22485 10.756 3.22485 11.2903C3.75912 11.2903 4.30348 11.2903 4.83775 11.2903C4.83775 10.756 4.83775 10.2117 4.83775 9.67742C4.30348 9.67742 3.75912 9.67742 3.22485 9.67742Z" fill="#FFEFEB"/>
<path d="M17.7419 4.83874C19.0826 4.83874 20.4334 4.83874 21.7741 4.83874C22.752 4.82866 23.6895 5.47382 24.0322 6.39116C24.2136 6.82463 24.1935 7.29842 24.1935 7.76213C24.1935 9.74801 24.1935 11.7339 24.1935 13.7299C23.3568 14.375 22.7822 15.3428 22.631 16.3912C22.0866 16.2803 21.5221 16.2299 20.9677 16.1795C20.9677 14.5061 20.4435 12.8327 19.4657 11.4718C18.5685 10.2117 17.3084 9.22382 15.877 8.64922C17.0362 7.73188 17.752 6.30043 17.7419 4.83874Z" fill="#FFEFEB"/>
<path d="M34.8171 11.3609C35.8655 11.1391 37.0046 11.4718 37.7606 12.2379C38.7687 13.2157 39.0005 14.8891 38.2848 16.0988C37.6094 17.3488 36.0469 18.0141 34.6759 17.631C33.2949 17.2883 32.2364 15.9476 32.2667 14.5161C32.2263 13.0343 33.3655 11.6431 34.8171 11.3609Z" fill="#FFF7D6"/>
<path d="M24.1934 16.8347C24.2337 15.6251 25.2821 14.5464 26.5018 14.5162C27.8829 14.5061 29.2639 14.5162 30.6349 14.5061C30.6248 15.9779 31.3607 17.3892 32.4897 18.3166C31.3204 18.7803 30.272 19.5263 29.4353 20.4638C28.0442 18.8307 26.2196 17.5605 24.1934 16.8347Z" fill="#E7D6FF"/>
<path d="M40.3203 14.5162C41.7014 14.5162 43.0723 14.5061 44.4534 14.5263C45.6731 14.5464 46.7417 15.6251 46.7618 16.8347C46.7719 20.1009 46.7618 23.3569 46.7618 26.623C46.782 27.7319 45.9352 28.7803 44.8364 28.9819C44.0502 29.113 43.2336 28.9718 42.4473 29.0626C41.1872 29.8791 39.9473 30.7259 38.6872 31.5626C38.6872 30.7259 38.6872 29.8791 38.6872 29.0323C36.5199 29.0323 34.3627 29.0323 32.1953 29.0323C32.2457 28.498 32.2457 27.9537 32.1953 27.4194C35.9756 27.4194 39.7457 27.4194 43.526 27.4194C43.5159 26.1795 43.5965 24.9093 43.2437 23.6997C42.5985 21.2904 40.7639 19.244 38.4453 18.3267C39.6147 17.4093 40.3304 15.988 40.3203 14.5162ZM43.5461 16.1291C43.5461 16.6634 43.5461 17.2077 43.5461 17.742C44.0804 17.742 44.6247 17.742 45.159 17.742C45.159 17.2077 45.159 16.6634 45.159 16.1291C44.6247 16.1291 44.0804 16.1291 43.5461 16.1291ZM43.5461 19.3549C43.5461 19.8892 43.5461 20.4335 43.5461 20.9678C44.0804 20.9678 44.6247 20.9678 45.159 20.9678C45.159 20.4335 45.159 19.8892 45.159 19.3549C44.6247 19.3549 44.0804 19.3549 43.5461 19.3549Z" fill="#E7D6FF"/>
<path d="M12.6804 9.67737C12.8317 9.67737 12.9829 9.68745 13.1341 9.68745C13.2954 11.8346 13.4768 13.9818 13.6381 16.1189C13.1442 16.1189 12.6502 16.1189 12.1562 16.1189C12.3377 13.9717 12.5091 11.8245 12.6804 9.67737Z" fill="#E6E9ED"/>
<path d="M18.8108 17.8226C21.1495 17.5202 23.589 18.0242 25.6051 19.2641C27.9136 20.6552 29.6475 22.9738 30.3128 25.5948C30.968 28.0746 30.6555 30.7964 29.4559 33.0645C28.216 35.4436 26.0285 37.3186 23.4781 38.1653C21.0084 39.002 18.216 38.8609 15.8471 37.7722C13.4479 36.7036 11.5023 34.6875 10.4842 32.2682C9.46601 29.8589 9.40553 27.0565 10.3128 24.5968C11.1596 22.2984 12.843 20.3226 14.97 19.1028C16.1596 18.4375 17.47 18.004 18.8108 17.8226ZM18.9116 19.4456C16.5729 19.7682 14.4055 21.0786 13.0144 22.9839C11.8652 24.5464 11.2503 26.4919 11.3007 28.4274C11.341 30.4637 12.1172 32.4798 13.4579 34.0121C14.7987 35.5746 16.714 36.6532 18.7503 36.9758C20.6051 37.2782 22.5507 36.9758 24.2241 36.1089C26.1898 35.1008 27.7624 33.3266 28.5084 31.2399C29.2442 29.2339 29.214 26.9657 28.4277 24.9899C27.6414 22.9738 26.089 21.2702 24.1636 20.3024C22.5507 19.4859 20.6858 19.1835 18.9116 19.4456Z" fill="#E6E9ED"/>
<path d="M35.2521 19.4556C35.2622 19.2439 35.5646 19.3951 35.7057 19.3447C35.8872 21.4919 36.0484 23.6492 36.2299 25.7964C35.7359 25.7964 35.242 25.7964 34.748 25.7964C34.9194 23.6895 35.0807 21.5726 35.2521 19.4556Z" fill="#E6E9ED"/>
<path d="M7.78182 12.2178C8.59835 11.1492 9.75762 10.3529 11.0379 9.95972C10.8766 12.0162 10.7052 14.0726 10.554 16.1291C9.18303 16.1492 7.82214 16.1291 6.45117 16.1392C6.45117 14.7279 6.92496 13.3267 7.78182 12.2178Z" fill="#D6FFD8"/>
<path d="M14.7676 9.94958C16.1889 10.3831 17.449 11.3206 18.2656 12.5605C18.9712 13.6089 19.3442 14.8689 19.3442 16.129C17.9732 16.129 16.6123 16.1391 15.2414 16.1189C15.1002 14.0625 14.9289 12.006 14.7676 9.94958Z" fill="#D6FFD8"/>
<path d="M37.3496 19.6271C38.8617 20.0908 40.2024 21.1291 41.019 22.49C41.6238 23.488 41.9363 24.6372 41.9363 25.8065C40.5653 25.7964 39.2044 25.8166 37.8335 25.7964C37.6823 23.74 37.5109 21.6835 37.3496 19.6271Z" fill="#FFF7D6"/>
<path d="M30.4141 21.8448C31.2205 20.8065 32.3596 20.0202 33.6197 19.6472C33.4584 21.6936 33.287 23.75 33.1358 25.7964C32.7629 25.8065 32.3999 25.7964 32.027 25.8065C31.7145 24.4053 31.1802 23.0545 30.4141 21.8448Z" fill="#FFF7D6"/>
<path d="M32.7928 37.1472C32.944 37.0968 33.1053 37.0968 33.2666 37.0968C38.0448 37.1069 42.8129 37.0968 47.5912 37.1069C48.0549 37.0968 48.4379 37.5404 48.3875 38.0041C48.3875 41.1996 48.3976 44.3952 48.3875 47.5908C48.3976 48.0645 47.944 48.4375 47.4903 48.3871C42.7121 48.3871 37.944 48.3871 33.1657 48.3871C32.7121 48.4375 32.2585 48.0545 32.2686 47.5908C32.2585 44.3952 32.2686 41.1996 32.2686 38.0141C32.2282 37.6412 32.4399 37.2581 32.7928 37.1472ZM33.8714 38.7097C33.8714 41.4012 33.8714 44.0827 33.8714 46.7742C38.1758 46.7742 42.4702 46.7742 46.7746 46.7742C46.7746 46.2399 46.7746 45.6956 46.7746 45.1613C46.2403 45.1613 45.696 45.1613 45.1617 45.1613C45.1617 43.5484 45.1617 41.9355 45.1617 40.3226C44.6274 40.3226 44.0831 40.3226 43.5488 40.3226C43.5488 41.9355 43.5488 43.5484 43.5488 45.1613C43.0145 45.1613 42.4702 45.1613 41.9359 45.1613C41.9359 44.0827 41.9359 43.0141 41.9359 41.9355C41.4016 41.9355 40.8573 41.9355 40.323 41.9355C40.323 43.0141 40.323 44.0827 40.323 45.1613C39.7887 45.1613 39.2444 45.1613 38.7101 45.1613C38.7101 44.627 38.7101 44.0827 38.7101 43.5484C38.1758 43.5484 37.6315 43.5484 37.0972 43.5484C37.0972 44.0827 37.0972 44.627 37.0972 45.1613C36.5629 45.1613 36.0186 45.1613 35.4843 45.1613C35.4843 43.0141 35.4843 40.8569 35.4843 38.7097C34.95 38.7097 34.4057 38.7097 33.8714 38.7097Z" fill="#D6FFD8"/>
<path d="M19.1018 21.0383C20.5938 20.8165 22.1462 21.0686 23.4869 21.7742C24.9789 22.5403 26.1785 23.8407 26.8337 25.373C27.3377 26.5524 27.5192 27.8629 27.3579 29.1432C27.1361 30.9174 26.2289 32.5807 24.868 33.7399C22.8216 35.5343 19.7269 35.9879 17.247 34.869C15.6442 34.1633 14.3135 32.8629 13.5777 31.2803C12.8518 29.7379 12.7107 27.9436 13.1644 26.3105C13.8801 23.5786 16.3095 21.4214 19.1018 21.0383Z" fill="#4DF189"/>
<path d="M10.0098 37.0968C10.3424 36.7641 10.665 36.4315 10.9977 36.1089C11.3908 36.5625 11.8243 36.9859 12.2779 37.3891C11.9452 37.7218 11.6227 38.0545 11.29 38.377C10.8666 37.9436 10.4332 37.5202 10.0098 37.0968Z" fill="#EBFA9E"/>
<path d="M2.22778 43.2661C4.17334 41.3206 6.11891 39.375 8.06447 37.4294C9.03221 38.3972 9.98987 39.3548 10.9576 40.3226C9.01205 42.2682 7.06649 44.2137 5.12092 46.1593C4.58665 46.7137 3.73987 46.9254 3.02415 46.6734C2.28826 46.4415 1.71367 45.746 1.63302 44.9798C1.55237 44.3448 1.78423 43.6996 2.22778 43.2661Z" fill="#EBFA9E"/>
</g>
<defs>
<clipPath id="clip0_338_1047">
<rect width="50" height="50" fill="white"/>
</clipPath>
</defs>
</svg>
