<svg width="40" height="40" viewBox="0 0 40 40" fill="none" xmlns="http://www.w3.org/2000/svg">
<path d="M34.2072 3.37484C33.5438 2.71 32.6614 2.34375 31.7227 2.34375H30.1645V3.90625C30.1645 5.62937 28.7641 7.03125 27.0429 7.03125H12.996C11.2748 7.03125 9.87446 5.62937 9.87446 3.90625V2.34375H8.3111C6.37688 2.34375 4.80156 3.91906 4.79938 5.85547L4.76563 36.4805C4.76453 37.4202 5.12938 38.304 5.79274 38.9689C6.45625 39.6338 7.3386 40 8.27735 40H31.6888C33.623 40 35.1984 38.4247 35.2005 36.4883L35.2344 5.86328C35.2355 4.92352 34.8706 4.03977 34.2072 3.37484ZM20.398 14.0625H28.7146C29.3611 14.0625 29.8852 14.5872 29.8852 15.2344C29.8852 15.8816 29.3611 16.4062 28.7146 16.4062H20.398C19.7515 16.4062 19.2274 15.8816 19.2274 15.2344C19.2274 14.5872 19.7515 14.0625 20.398 14.0625ZM20.398 21.875H28.7146C29.3611 21.875 29.8852 22.3997 29.8852 23.0469C29.8852 23.6941 29.3611 24.2188 28.7146 24.2188H20.398C19.7515 24.2188 19.2274 23.6941 19.2274 23.0469C19.2274 22.3997 19.7515 21.875 20.398 21.875ZM20.398 29.6875H28.7481C29.3945 29.6875 29.9186 30.2122 29.9186 30.8594C29.9186 31.5066 29.3945 32.0312 28.7481 32.0312H20.398C19.7515 32.0312 19.2274 31.5066 19.2274 30.8594C19.2274 30.2122 19.7515 29.6875 20.398 29.6875ZM10.4243 14.1087C10.8815 13.6511 11.6226 13.6511 12.0798 14.1087L12.7163 14.746L15.4158 12.0435C15.873 11.5859 16.6141 11.5858 17.0712 12.0435C17.5283 12.5011 17.5283 13.2431 17.0712 13.7008L13.5439 17.2319C13.3244 17.4516 13.0266 17.5752 12.7162 17.5752C12.4057 17.5752 12.108 17.4517 11.8884 17.2319L10.4242 15.7659C9.96711 15.3084 9.96711 14.5663 10.4243 14.1087ZM10.4243 22.5179C10.8815 22.0602 11.6226 22.0602 12.0798 22.5179L12.7163 23.1551L15.4158 20.4526C15.8729 19.995 16.6141 19.995 17.0712 20.4526C17.5283 20.9102 17.5283 21.6522 17.0712 22.1098L13.5439 25.641C13.3245 25.8608 13.0266 25.9843 12.7162 25.9843C12.4057 25.9843 12.108 25.8609 11.8884 25.641L10.4242 24.1751C9.96711 23.7175 9.96711 22.9755 10.4243 22.5179ZM10.4243 30.3304C10.8815 29.8727 11.6226 29.8727 12.0798 30.3304L12.7163 30.9676L15.4158 28.2651C15.8729 27.8075 16.6141 27.8075 17.0712 28.2651C17.5283 28.7227 17.5283 29.4647 17.0712 29.9223L13.5439 33.4535C13.3245 33.6733 13.0266 33.7968 12.7162 33.7968C12.4057 33.7968 12.108 33.6734 11.8884 33.4535L10.4242 31.9876C9.96711 31.53 9.96711 30.788 10.4243 30.3304Z" fill="#798F07"/>
<path d="M12.2158 3.90625C12.2158 4.33773 12.5652 4.6875 12.9962 4.6875H27.0431C27.4741 4.6875 27.8235 4.33773 27.8235 3.90625V0.78125C27.8235 0.349766 27.4741 0 27.0431 0H12.9962C12.5652 0 12.2158 0.349766 12.2158 0.78125V3.90625Z" fill="#798F07"/>
</svg>
