<svg width="42" height="41" viewBox="0 0 42 41" fill="none" xmlns="http://www.w3.org/2000/svg">
<path d="M1.45929 0.874875C7.65649 -0.31526 14.0832 -0.289757 20.2719 0.942883C20.5525 1.01089 20.8245 0.91738 21.0965 0.874875C26.9707 -0.247252 33.0489 -0.289757 38.94 0.755861C39.3566 0.83237 39.7986 0.874875 40.1727 1.0959C40.6657 1.36793 41.0228 1.91199 41.0058 2.48156C41.0058 9.39284 41.0058 16.3126 41.0058 23.2239C41.0058 23.615 41.0483 24.023 40.8698 24.38C40.6232 24.9326 40.0622 25.3151 39.4671 25.3917C39.0506 25.4512 38.634 25.3492 38.226 25.2811C35.7522 24.8646 33.2529 24.6436 30.7451 24.6181C30.8896 25.2641 31.0341 25.9102 31.1787 26.5563C32.9469 26.3523 34.7151 26.1397 36.4833 25.9442C37.1378 25.8592 37.8179 26.0632 38.311 26.4968C38.7275 26.8538 38.991 27.3554 39.1016 27.8909C39.7391 30.7983 40.3852 33.6971 41.0228 36.6044C41.1758 37.293 40.7252 38.0496 40.0452 38.2451C37.2228 39.1462 34.409 40.0388 31.5867 40.9314C31.0851 41.0674 30.4816 40.9569 30.1245 40.5489C29.8695 40.2598 29.827 39.8603 29.742 39.4948C21.9296 39.4948 14.1172 39.4948 6.30483 39.4948C4.46863 39.5458 2.64092 38.7297 1.45929 37.327C0.609189 36.3324 0.0906302 35.0658 0.0141215 33.7566C-0.0793891 32.4135 0.294653 31.0448 1.04274 29.9397C1.96934 28.5625 3.46551 27.5849 5.1062 27.3129C5.55675 27.2364 6.0158 27.2194 6.47485 27.2194C13.3266 27.2194 20.1784 27.2194 27.0387 27.2194C26.8602 26.4033 26.6731 25.5787 26.4946 24.7626C24.6839 24.9241 22.8732 25.1536 21.088 25.5192C20.799 25.5787 20.5014 25.6382 20.2124 25.5702C14.3637 24.397 8.28556 24.312 2.40289 25.3577C1.97784 25.4342 1.51879 25.4597 1.11075 25.2896C0.481675 25.0516 -0.0113814 24.431 0.00562057 23.7425C0.00562057 16.6527 0.00562057 9.57136 0.00562057 2.48156C-0.0198823 1.66546 0.685698 0.993889 1.45929 0.874875ZM1.70581 2.54957C1.70581 9.60536 1.70581 16.6527 1.70581 23.7085C2.16487 23.7 2.61542 23.5895 3.06597 23.5129C8.55759 22.6458 14.1852 22.7394 19.6514 23.7425C19.6514 16.6782 19.6514 9.60536 19.6514 2.54106C13.7432 1.41894 7.62248 1.41044 1.70581 2.54957ZM21.36 2.54957C21.36 9.61387 21.36 16.6782 21.36 23.751C22.9412 23.4704 24.5309 23.2494 26.1291 23.1049C26.0441 22.6968 25.9336 22.2888 25.8741 21.8723C25.7635 20.9627 26.2736 20.0105 27.0982 19.6195C27.6508 19.3475 28.3308 19.3305 28.8834 19.611C29.4275 19.8745 29.8185 20.4186 29.946 21.0052C30.0905 21.6427 30.2266 22.2888 30.3711 22.9264C33.0574 22.9264 35.7437 23.1559 38.396 23.5895C38.6935 23.6405 38.991 23.7 39.2971 23.7085C39.2971 16.6527 39.2971 9.60536 39.2971 2.54957C33.3974 1.41044 27.2682 1.41894 21.36 2.54957ZM27.5827 21.7872C28.4413 25.7232 29.3169 29.6591 30.184 33.5951C30.2521 33.9436 30.4051 34.3177 30.2351 34.6577C30.0395 35.0913 29.453 35.2783 29.0449 35.0233C28.1693 34.5132 27.3022 33.9861 26.4266 33.4676C26.2056 33.3401 25.9761 33.1615 25.7125 33.1955C25.415 33.2295 25.2025 33.4591 25.0325 33.6971C26.8007 34.7597 28.5774 35.8138 30.3456 36.8765C33.1509 35.9839 35.9477 35.0913 38.753 34.2072C38.311 32.2179 37.8774 30.2372 37.4354 28.248C37.3844 27.8824 37.0358 27.5679 36.6533 27.6529C34.6471 27.8824 32.6323 28.129 30.6176 28.35C30.1755 28.418 29.742 28.0865 29.674 27.6529C29.2149 25.5872 28.7644 23.5214 28.3053 21.4557C28.2713 21.2942 28.1863 21.0902 27.9823 21.1072C27.6763 21.1497 27.4977 21.5067 27.5827 21.7872ZM5.36973 29.0131C4.04358 29.2341 2.85344 30.1097 2.22437 31.2998C1.6038 32.4475 1.5443 33.8671 2.04585 35.0573C2.53041 36.2474 3.55902 37.1995 4.79166 37.582C5.31022 37.7606 5.85428 37.8031 6.39835 37.8031C13.7942 37.8031 21.1985 37.8031 28.5944 37.8031C27.1152 36.919 25.6275 36.0349 24.1484 35.1508C23.7998 34.9467 23.5703 34.5982 23.4258 34.2242C19.8469 34.2242 16.268 34.2242 12.6891 34.2242C12.5105 34.7937 12.196 35.3208 11.7284 35.7033C10.9039 36.4174 9.67122 36.6044 8.6681 36.1709C7.83501 35.8308 7.19744 35.0828 6.95091 34.2242C6.16882 34.2157 5.39523 34.2327 4.61314 34.2242C4.2136 34.2327 3.83105 33.9181 3.77155 33.5271C3.66954 33.0595 4.05208 32.5665 4.52813 32.541C5.34423 32.5155 6.16882 32.541 6.99341 32.5325C7.16343 32.0734 7.40996 31.6484 7.767 31.3083C8.56609 30.5177 9.83274 30.2542 10.8869 30.6623C11.7284 30.9683 12.383 31.6824 12.6721 32.524C16.3785 32.524 20.0934 32.524 23.7998 32.524C24.3099 31.8609 25.1345 31.4273 25.9761 31.5039C26.8347 31.5549 27.4892 32.1754 28.2288 32.5495C27.9738 31.3508 27.7018 30.1522 27.4382 28.9536C20.5184 28.9536 13.5902 28.9536 6.67038 28.9536C6.21983 28.9451 5.79478 28.9366 5.36973 29.0131ZM9.4927 32.2094C8.82962 32.3709 8.38757 33.1275 8.59159 33.7821C8.76161 34.4452 9.5267 34.8787 10.1813 34.6577C10.8188 34.4792 11.2354 33.7481 11.0399 33.1105C10.8784 32.4475 10.1388 32.0139 9.4927 32.2094ZM31.2382 38.3726C31.2977 38.6532 31.3572 38.9252 31.4252 39.2057C34.052 38.3726 36.6788 37.5395 39.3056 36.6979C39.2461 36.4174 39.1866 36.1369 39.1186 35.8648C36.4918 36.7064 33.865 37.5395 31.2382 38.3726Z" fill="#798F07"/>
<path d="M8.39458 6.035C10.8259 5.81398 13.2911 5.94999 15.6799 6.43455C15.8924 6.47705 16.105 6.56206 16.241 6.74058C16.5725 7.11462 16.4705 7.8032 16.0029 8.02423C15.7139 8.17724 15.3739 8.11774 15.0678 8.04973C12.067 7.46316 8.95564 7.49717 5.9633 8.10924C5.52975 8.21975 5.0452 7.93922 4.94318 7.49717C4.81567 7.05512 5.12171 6.55356 5.57226 6.46005C6.50736 6.26453 7.45097 6.12851 8.39458 6.035Z" fill="#798F07"/>
<path d="M26.3976 7.81146C26.7971 7.74345 27.2137 7.81996 27.5792 7.98148C29.934 9.0016 32.2887 10.0132 34.6435 11.0248C35.3236 11.2884 35.8166 11.9599 35.8421 12.691C35.9101 13.4731 35.4256 14.2637 34.703 14.5612C32.3312 15.5983 29.951 16.61 27.5792 17.6386C27.2052 17.8086 26.7716 17.8851 26.3636 17.8086C25.7345 17.6981 25.1734 17.2475 24.9354 16.6525C24.7994 16.3379 24.7824 15.9979 24.7909 15.6664C24.7994 13.6601 24.7824 11.6454 24.7994 9.63067C24.8164 8.74657 25.5305 7.94748 26.3976 7.81146ZM26.6611 9.49465C26.4826 9.52866 26.4911 9.74118 26.4996 9.8857C26.5081 11.9004 26.4911 13.9152 26.5081 15.9214C26.4911 16.1084 26.7206 16.2019 26.8651 16.0999C29.1094 15.1393 31.3536 14.1617 33.5979 13.2011C33.7764 13.1246 33.9719 13.0566 34.1334 12.9375C34.2355 12.759 34.0654 12.6145 33.9124 12.5635C31.5917 11.5689 29.2709 10.5658 26.9501 9.56266C26.8566 9.52866 26.7631 9.46065 26.6611 9.49465Z" fill="#798F07"/>
<path d="M8.65071 9.86874C11.0225 9.67322 13.4198 9.81774 15.749 10.3023C16.2336 10.3788 16.5651 10.9229 16.4121 11.3904C16.2846 11.8325 15.783 12.079 15.341 11.9515C12.3061 11.3309 9.14377 11.3224 6.10892 11.943C5.83689 12.0025 5.53936 12.0025 5.29283 11.8495C4.87628 11.5859 4.80827 10.9314 5.13981 10.5743C5.30133 10.3703 5.56486 10.3108 5.80289 10.2683C6.73799 10.0813 7.6901 9.94525 8.65071 9.86874Z" fill="#798F07"/>
<path d="M9.89696 13.6517C11.8522 13.5922 13.8159 13.7622 15.7286 14.1533C16.2387 14.2298 16.5787 14.8164 16.3747 15.2924C16.2302 15.692 15.7626 15.9215 15.3546 15.811C12.3197 15.1904 9.15737 15.1734 6.12253 15.7855C5.74849 15.879 5.26393 15.828 5.04291 15.4709C4.72837 15.0119 4.9834 14.2893 5.53596 14.1703C6.98113 13.8642 8.43479 13.7027 9.89696 13.6517Z" fill="#798F07"/>
<path d="M8.39529 17.5963C10.8266 17.3753 13.2918 17.5113 15.6806 17.9958C15.8931 18.0383 16.1057 18.1233 16.2502 18.3019C16.5562 18.6504 16.4967 19.2455 16.1227 19.526C15.8676 19.713 15.5276 19.713 15.2386 19.645C12.2632 19.0499 9.16888 19.0499 6.19354 19.6365C5.811 19.747 5.33494 19.7045 5.09691 19.3475C4.74837 18.9054 4.9864 18.1743 5.53896 18.0383C6.46557 17.8258 7.43468 17.6898 8.39529 17.5963Z" fill="#798F07"/>
</svg>
