<svg width="80" height="80" viewBox="0 0 80 80" fill="none" xmlns="http://www.w3.org/2000/svg">
<rect width="80" height="80" rx="4" fill="#D6FFD8"/>
<g clip-path="url(#clip0_2097_16434)">
<path d="M38.3695 18.8379C39.4046 18.3301 40.6741 18.3496 41.6995 18.8672C42.9105 19.4726 43.7406 20.7715 43.7601 22.1191C43.7503 23.1347 43.8773 24.1992 43.4476 25.1562C44.5609 25.9765 45.3812 27.1777 45.6937 28.5156C45.9476 29.5312 45.8402 30.5761 45.8597 31.6015C45.889 32.1386 45.4202 32.6367 44.8831 32.6172C41.6605 32.6269 38.4378 32.6172 35.2152 32.6172C34.8636 32.6367 34.512 32.4902 34.3167 32.1972C34.1019 31.914 34.1507 31.5332 34.1409 31.2011C34.1605 30.3613 34.0824 29.5019 34.2679 28.6718C34.5511 27.2656 35.4007 26.0058 36.5531 25.1562C36.3382 24.6289 36.221 24.0625 36.2308 23.4961C36.2503 22.7148 36.1527 21.9238 36.387 21.1621C36.68 20.1562 37.4222 19.2871 38.3695 18.8379ZM39.3558 20.5273C38.6917 20.7715 38.2034 21.4258 38.1839 22.1289C38.1741 22.6758 38.1741 23.2324 38.1937 23.7793C38.2523 24.6875 39.0921 25.4492 40.0003 25.4297C40.8792 25.4492 41.6995 24.7363 41.7972 23.8574C41.8363 23.3398 41.807 22.8222 41.8167 22.3144C41.8363 21.8066 41.6409 21.2988 41.2796 20.9375C40.7913 20.4492 40.0101 20.2832 39.3558 20.5273ZM37.7054 26.7578C37.2659 27.0605 36.9144 27.4804 36.6409 27.9394C36.1429 28.7597 36.0355 29.7461 36.1136 30.6836C38.7113 30.664 41.2991 30.664 43.8968 30.6836C43.9261 30.0293 43.9456 29.3652 43.7308 28.7402C43.4769 27.9101 42.93 27.1972 42.2366 26.6894C41.9534 26.8261 41.68 27.0019 41.387 27.1191C40.3324 27.539 39.0726 27.4511 38.096 26.8554C37.9788 26.8164 37.8324 26.6504 37.7054 26.7578Z" fill="#1C2436"/>
<path d="M31.2109 16.9531C37.0703 16.9531 42.9297 16.9531 48.7891 16.9531C48.7891 22.6855 48.7891 28.4082 48.7891 34.1406C42.9297 34.1406 37.0703 34.1406 31.2109 34.1406C31.2109 28.4082 31.2109 22.6855 31.2109 16.9531ZM38.3691 18.8379C37.4219 19.2969 36.6797 20.1563 36.3867 21.1719C36.1523 21.9238 36.25 22.7246 36.2305 23.5059C36.2207 24.0723 36.3379 24.6387 36.5527 25.166C35.4004 26.0156 34.5508 27.2754 34.2676 28.6816C34.082 29.5117 34.1602 30.3711 34.1406 31.2109C34.1406 31.543 34.1016 31.9238 34.3164 32.207C34.5117 32.5 34.873 32.6563 35.2148 32.627C38.4375 32.627 41.6602 32.627 44.8828 32.627C45.4199 32.6465 45.8984 32.1484 45.8594 31.6113C45.8398 30.5762 45.9473 29.5313 45.6934 28.5254C45.3809 27.1777 44.5508 25.9766 43.4473 25.166C43.877 24.209 43.7598 23.1445 43.7598 22.1289C43.7402 20.7715 42.9102 19.4727 41.6992 18.877C40.6738 18.3398 39.4043 18.3301 38.3691 18.8379Z" fill="white"/>
<path d="M39.354 20.5273C40.0083 20.2734 40.7896 20.4492 41.2778 20.9473C41.6392 21.2988 41.8345 21.8164 41.8149 22.3242C41.8052 22.8418 41.8345 23.3594 41.7954 23.8672C41.6978 24.7461 40.8774 25.459 39.9985 25.4394C39.0903 25.459 38.2505 24.6973 38.1919 23.789C38.1724 23.2422 38.1821 22.6855 38.1821 22.1387C38.2114 21.4258 38.6997 20.7715 39.354 20.5273Z" fill="#FFF7D6"/>
<path d="M22.5176 25.3516C24.7637 25.3516 27.0098 25.3516 29.2559 25.3516C29.2559 26.9824 29.2559 28.6035 29.2559 30.2344C28.6504 30.2539 28.0254 30.1758 27.4395 30.3613C26.4043 30.6641 25.584 31.582 25.3984 32.6465C25.1836 33.7793 25.7207 35.0098 26.6973 35.6152C27.2246 35.957 27.8496 36.1035 28.4746 36.084C36.1895 36.084 43.9043 36.084 51.6191 36.084C52.4199 36.0937 53.2207 35.8008 53.7773 35.2246C54.4902 34.5313 54.793 33.4473 54.5586 32.4805C54.3633 31.6309 53.7676 30.8887 52.9863 30.5176C52.293 30.1562 51.4922 30.2246 50.7402 30.2246C50.7402 28.5937 50.7402 26.9727 50.7402 25.3418C52.9863 25.3418 55.2324 25.3418 57.4785 25.3418C59.1191 29.6387 60.7012 33.9453 62.332 38.252C62.4297 38.5059 62.5176 38.75 62.5957 39.0137C56.7266 39.0234 50.8574 39.0137 44.9785 39.0137C44.5879 39.0234 44.1387 38.9551 43.8066 39.209C43.543 39.3848 43.4648 39.707 43.3867 39.9902C42.5957 39.9902 41.8047 39.9902 41.0137 39.9902C40.9258 39.7266 40.8672 39.4336 40.6426 39.248C40.291 38.9355 39.7148 38.9355 39.3633 39.248C39.1387 39.4336 39.0703 39.7266 38.9922 39.9902C38.2012 39.9805 37.4102 39.9902 36.6191 39.9902C36.5508 39.4824 36.1699 38.9941 35.623 39.0137C29.5488 38.9941 23.4844 39.0234 17.4102 39.0039C18.2891 36.5625 19.2266 34.1504 20.125 31.7187C20.916 29.6094 21.707 27.4707 22.5176 25.3516Z" fill="#FFEFEB"/>
<path d="M19.4902 46.8359C33.1621 46.8359 46.834 46.8359 60.5059 46.8359C60.5059 50.9375 60.5059 55.0391 60.5059 59.1406C55.6231 59.1406 50.7402 59.1504 45.8574 59.1406C46.8242 56.9336 47.127 54.4531 46.7559 52.0801C46.707 51.7676 46.6191 51.4258 46.3555 51.2207C46.0332 50.9375 45.5742 51.0156 45.1836 50.9375C43.9629 50.7227 42.7813 50.293 41.6777 49.7363C41.3164 49.5605 40.9844 49.3359 40.6816 49.0723C40.4668 48.877 40.1836 48.7598 39.8906 48.7891C39.4609 48.8184 39.1973 49.1992 38.8652 49.4141C38.1426 49.8828 37.332 50.2051 36.5215 50.4883C35.75 50.752 34.959 50.9668 34.1387 51.0156C33.6699 51.0352 33.3184 51.4648 33.2598 51.9141C32.8398 54.3359 33.1426 56.8848 34.1289 59.1406C29.2461 59.1504 24.3633 59.1406 19.4805 59.1406C19.4902 55.0391 19.4902 50.9375 19.4902 46.8359Z" fill="#FFEFEB"/>
<path d="M37.7016 26.7578C37.8286 26.6504 37.9751 26.8164 38.0923 26.8555C39.0688 27.4512 40.3188 27.5391 41.3833 27.1191C41.6763 27.002 41.9497 26.8262 42.2329 26.6895C42.9263 27.1973 43.4731 27.9102 43.727 28.7402C43.9419 29.3652 43.9224 30.0391 43.8931 30.6836C41.2954 30.6641 38.7075 30.6641 36.1099 30.6836C36.0317 29.7461 36.1294 28.75 36.6372 27.9395C36.9009 27.4902 37.2622 27.0605 37.7016 26.7578Z" fill="#E7D6FF"/>
<path d="M27.8109 32.3052C28.2601 32.1001 28.7777 32.2076 29.2562 32.188C29.266 32.8326 29.2562 33.4869 29.2562 34.1314C28.6996 34.1021 28.0355 34.2779 27.596 33.8482C27.1371 33.4283 27.2542 32.5884 27.8109 32.3052Z" fill="#6D91AC"/>
<path d="M50.7422 32.1875C51.2598 32.2168 51.8457 32.0606 52.3047 32.3828C52.793 32.7246 52.8223 33.5157 52.3535 33.8965C51.9043 34.2676 51.2793 34.1016 50.7422 34.1309C50.7422 33.4864 50.7422 32.8418 50.7422 32.1875Z" fill="#6D91AC"/>
<path d="M36.6094 39.9999C37.4004 39.9999 38.1914 39.9902 38.9824 39.9999C39.0703 40.2539 39.1289 40.5468 39.3535 40.7324C39.7051 41.0449 40.2813 41.0449 40.6328 40.7324C40.8574 40.5468 40.916 40.2539 41.0039 39.9999C41.7949 39.9999 42.5859 39.9999 43.377 39.9999C43.4648 40.2831 43.5332 40.6054 43.7969 40.7812C44.1289 41.0351 44.5781 40.9667 44.9688 40.9765C50.9844 40.9765 57.0098 40.9765 63.0352 40.9765C63.0352 42.2753 63.0352 43.5742 63.0352 44.8828C47.6738 44.8828 32.3125 44.8828 16.9414 44.8828C16.9414 43.5839 16.9414 42.2851 16.9414 40.9765C23.1621 40.9667 29.3828 40.9863 35.6035 40.9667C36.1602 40.9863 36.541 40.5078 36.6094 39.9999Z" fill="#FFF7D6"/>
<path d="M35.1079 52.8906C36.8266 52.5586 38.5063 51.9531 40.0005 51.0254C41.4946 51.9531 43.1743 52.5586 44.8931 52.8906C45.1372 55.0488 44.727 57.2852 43.6528 59.1797C42.7837 60.7031 41.4946 61.9629 40.0005 62.8809C38.1938 61.7773 36.6802 60.166 35.8598 58.2031C35.1567 56.5332 34.9028 54.6777 35.1079 52.8906Z" fill="#4DF189"/>
<path d="M30.8672 15H49.1289C49.6855 15.1563 50.2227 15.4883 50.4961 16.0156C50.7793 16.5039 50.7402 17.0898 50.7402 17.6367C50.7402 19.5605 50.7305 21.4746 50.7402 23.3984C53.1523 23.4082 55.5645 23.3984 57.9668 23.3984C58.2988 23.3887 58.6699 23.457 58.8945 23.7402C59.1191 24.043 59.207 24.4141 59.3438 24.7559C60.8574 28.8086 62.3809 32.8516 63.8945 36.9043C64.2656 37.8613 64.5879 38.8281 64.9883 39.7656V46.1133C64.832 46.4355 64.5781 46.7676 64.1973 46.8066C63.6211 46.875 63.0352 46.8164 62.459 46.8359C62.4492 51.2305 62.459 55.625 62.4492 60.0195C62.459 60.3516 62.3418 60.6934 62.0586 60.8887C61.7852 61.1035 61.4141 61.084 61.082 61.0938C55.8086 61.084 50.5352 61.0937 45.2617 61.084C45.0762 61.084 44.8906 61.0938 44.7148 61.1035C43.5625 62.7344 41.9902 64.0332 40.2422 64.9902H39.7441C37.9961 64.0332 36.4238 62.7344 35.2715 61.1035C33.5234 61.0547 31.7754 61.0937 30.0273 61.084C26.3164 61.084 22.6055 61.084 18.8945 61.084C18.5625 61.0742 18.2012 61.0937 17.918 60.8789C17.6348 60.6836 17.5176 60.3418 17.5273 60.0098C17.5176 55.6152 17.5273 51.2207 17.5176 46.8262C16.9414 46.8066 16.3555 46.8652 15.7793 46.7969C15.3984 46.748 15.1445 46.4258 14.9883 46.1035V39.7559C15.1738 39.3262 15.3398 38.8965 15.4961 38.457C17.293 33.6719 19.0801 28.8965 20.877 24.1113C21.0039 23.7012 21.375 23.3887 21.8145 23.3984C24.2852 23.3789 26.7656 23.3984 29.2363 23.3887C29.2461 21.4648 29.2363 19.5508 29.2363 17.627C29.2363 17.0801 29.1875 16.4941 29.4805 16.0059C29.7734 15.4883 30.3105 15.1563 30.8672 15ZM31.209 16.9531C31.209 22.6855 31.209 28.4082 31.209 34.1406C37.0684 34.1406 42.9277 34.1406 48.7871 34.1406C48.7871 28.4082 48.7871 22.6855 48.7871 16.9531C42.9277 16.9531 37.0684 16.9531 31.209 16.9531ZM22.5176 25.3516C21.6973 27.4707 20.916 29.6094 20.1152 31.7383C19.2168 34.1699 18.2793 36.582 17.4004 39.0234C23.4648 39.043 40.2813 39.0234 46.3555 39.0332C46.9023 39.0137 47.2832 39.502 47.3516 40.0098C47.2832 40.5078 46.9023 40.9961 46.3555 40.9766C40.1348 40.9863 23.1719 40.9766 16.9512 40.9863C16.9512 42.2852 16.9512 43.584 16.9512 44.8926C32.3125 44.8926 47.6738 44.8926 63.0449 44.8926C63.0449 43.5938 63.0449 42.2949 63.0449 40.9863C57.0293 40.9863 51.0039 40.9863 44.9785 40.9863C44.5879 40.9766 44.1387 41.0449 43.8066 40.791C43.543 40.6152 43.4746 40.293 43.3867 40.0098C43.4648 39.7266 43.543 39.4043 43.8066 39.2285C44.1387 38.9648 44.5879 39.043 44.9785 39.0332C50.8477 39.0332 56.7266 39.043 62.5957 39.0332C62.5176 38.7793 62.4297 38.5254 62.332 38.2715C60.7012 33.9648 59.1094 29.6484 57.4785 25.3516C55.2324 25.3516 52.9863 25.3516 50.7402 25.3516C50.7402 26.9824 50.7402 28.6035 50.7402 30.2344C51.4922 30.2344 52.293 30.166 52.9863 30.5273C53.7676 30.8984 54.3633 31.6406 54.5586 32.4902C54.8027 33.457 54.4902 34.541 53.7773 35.2344C53.2207 35.8105 52.4102 36.1133 51.6191 36.0938C43.9043 36.0938 36.1895 36.0938 28.4746 36.0938C27.8496 36.1133 27.2148 35.9668 26.6973 35.625C25.7207 35.0098 25.1836 33.7891 25.3984 32.6563C25.5742 31.5918 26.3945 30.6641 27.4395 30.3711C28.0254 30.1855 28.6504 30.2637 29.2559 30.2441C29.2559 28.623 29.2559 26.9922 29.2559 25.3613C27.0098 25.3516 24.7637 25.3516 22.5176 25.3516ZM27.8105 32.3047C27.2441 32.5879 27.127 33.418 27.5859 33.8477C28.0254 34.2773 28.6992 34.1016 29.2461 34.1309C29.2461 33.4863 29.2559 32.832 29.2461 32.1875C28.7773 32.2168 28.2598 32.0996 27.8105 32.3047ZM50.7402 32.1875C50.7402 32.832 50.7402 33.4863 50.7402 34.1309C51.2773 34.1016 51.9023 34.2676 52.3516 33.8965C52.8105 33.5156 52.791 32.7246 52.3027 32.3828C51.8535 32.0703 51.2578 32.2168 50.7402 32.1875ZM19.4902 46.8359C19.4902 50.9375 19.4902 55.0391 19.4902 59.1406C24.373 59.1406 29.2559 59.1406 34.1387 59.1406C33.1523 56.8848 32.8496 54.3457 33.2695 51.9141C33.3184 51.4648 33.6797 51.0352 34.1484 51.0156C34.9688 50.9766 35.7598 50.752 36.5313 50.4883C37.3418 50.2051 38.1523 49.8828 38.875 49.4141C39.2168 49.209 39.4805 48.8184 39.9004 48.7891C40.1934 48.75 40.4766 48.877 40.6914 49.0723C40.9941 49.3359 41.3262 49.5605 41.6875 49.7363C42.791 50.293 43.9727 50.7227 45.1934 50.9375C45.584 51.0156 46.043 50.9375 46.3652 51.2207C46.6289 51.4258 46.7168 51.7578 46.7656 52.0801C47.127 54.4531 46.834 56.9336 45.8574 59.1406C50.7402 59.1504 55.623 59.1406 60.5059 59.1406C60.5059 55.0391 60.5059 50.9375 60.5059 46.8359C46.834 46.8359 33.1621 46.8359 19.4902 46.8359ZM35.1055 52.8906C34.9004 54.6875 35.1543 56.543 35.8574 58.2031C36.6777 60.1562 38.1914 61.7773 39.998 62.8809C41.4922 61.9727 42.7813 60.7129 43.6504 59.1797C44.7246 57.2852 45.1348 55.0391 44.8906 52.8906C43.1719 52.5586 41.4922 51.9531 39.998 51.0254C38.5039 51.9531 36.834 52.5586 35.1055 52.8906Z" fill="#1C2436"/>
</g>
<defs>
<clipPath id="clip0_2097_16434">
<rect width="50" height="50" fill="white" transform="translate(15 15)"/>
</clipPath>
</defs>
</svg>
