<svg width="35" height="50" viewBox="0 0 35 50" fill="none" xmlns="http://www.w3.org/2000/svg">
<g clip-path="url(#clip0_338_876)">
<path d="M10.7546 0H20.6096C20.7367 0.078125 20.8638 0.15625 20.9713 0.263672C21.8024 1.13281 22.6627 1.96289 23.5035 2.8125C23.7382 3.06641 24.0315 3.27148 24.227 3.55469C24.3248 3.85742 24.2759 4.17969 24.2857 4.48242C24.2857 7.09961 24.2759 9.72656 24.2955 12.3438C26.9841 14.1504 28.9003 17.041 29.5065 20.2246C29.8389 21.8262 29.7314 23.4668 29.7509 25.0879C29.7314 26.6211 29.8389 28.1738 29.5261 29.6875C28.871 33.2129 26.6028 36.3867 23.4938 38.1738C23.4938 38.9941 23.4938 39.8145 23.4938 40.6348C24.7647 40.6348 26.0357 40.6543 27.3067 40.6348C28.7341 40.625 30.1713 41.0449 31.3543 41.8652C32.8893 42.9004 33.9843 44.5703 34.3167 46.3965C34.4927 47.2949 34.4242 48.2227 34.434 49.1309C34.4731 49.541 34.1896 49.9023 33.7985 50.0098H33.5345C33.163 49.9316 32.8697 49.6191 32.8599 49.2285C32.8502 48.2422 32.9479 47.2363 32.6742 46.2793C32.2733 44.7559 31.1881 43.4375 29.7607 42.7637C28.9883 42.3828 28.128 42.207 27.2676 42.2168C25.8989 42.207 24.5399 42.2266 23.1711 42.207C22.956 42.1875 22.78 42.2949 22.6138 42.4121C22.0175 42.8223 21.4015 43.2227 20.8051 43.6328C20.3945 43.9258 19.8959 43.6719 19.4657 43.5742C18.7129 43.4082 17.9699 43.1543 17.2073 43.0469C16.4349 43.1738 15.6821 43.418 14.9195 43.584C14.4991 43.6719 14.0102 43.9258 13.6192 43.6328C12.9837 43.1934 12.3286 42.7637 11.6834 42.334C11.5367 42.2168 11.3412 42.207 11.1554 42.207C10.08 42.2168 9.00451 42.207 7.92906 42.207C7.15669 42.207 6.35499 42.1777 5.60217 42.4023C3.90101 42.8516 2.44426 44.209 1.8772 45.8984C1.48613 46.9629 1.59368 48.1152 1.57412 49.2188C1.56435 49.5898 1.2906 49.9023 0.93863 50H0.674656C0.215145 49.9219 -0.0586057 49.4727 5.52498e-05 49.0234C0.00983207 48.0957 -0.0586057 47.1582 0.146708 46.25C0.518227 44.4043 1.68167 42.7441 3.27529 41.7383C4.39962 41.0254 5.71949 40.6543 7.04914 40.6348C8.34946 40.6543 9.64978 40.6445 10.9501 40.6445C10.9501 39.8242 10.9501 39.0039 10.9501 38.1836C9.5129 37.334 8.23214 36.2109 7.22513 34.8828C5.6315 32.7832 4.73204 30.1758 4.70271 27.5391C4.69293 26.2695 4.70271 25 4.70271 23.7305C4.68315 22.4512 4.71248 21.1621 5.01556 19.9121C5.69016 16.8457 7.59664 14.082 10.1973 12.3242C10.1973 8.74023 10.1973 5.14648 10.1973 1.5625C10.1973 1.24023 10.1679 0.908203 10.2071 0.585938C10.2559 0.302734 10.5101 0.117188 10.7546 0ZM11.7616 1.5625C11.7616 6.51367 11.7616 11.4648 11.7616 16.416C15.4083 16.416 19.0649 16.416 22.7116 16.416C22.7116 12.5098 22.7116 8.59375 22.7116 4.6875C21.9295 4.6875 21.1375 4.6875 20.3554 4.6875C19.935 4.72656 19.5341 4.32617 19.5732 3.90625C19.583 3.125 19.5732 2.34375 19.5732 1.5625C16.9726 1.5625 14.3622 1.5625 11.7616 1.5625ZM21.1375 2.66602C21.1375 2.82227 21.1375 2.96875 21.1375 3.125C21.294 3.125 21.4406 3.125 21.5971 3.125C21.4504 2.96875 21.294 2.82227 21.1375 2.66602ZM6.32566 21.5039C6.82428 21.0059 7.33267 20.5176 7.82151 20C8.01705 19.7949 8.21258 19.5508 8.51567 19.5312C8.86763 19.4727 9.15116 19.7363 9.44446 19.8828C11.4976 20.9277 13.7463 21.6211 16.0438 21.8359C17.9112 22.002 19.7883 21.748 21.5775 21.2305C22.9854 20.8203 24.3541 20.2734 25.6251 19.5215C25.8891 19.5215 26.1824 19.541 26.3779 19.7559C26.945 20.3418 27.5218 20.918 28.1084 21.4941C27.8151 18.7207 26.417 16.084 24.2759 14.2969C24.2759 14.9902 24.2759 15.6934 24.2759 16.3867C24.5594 16.4551 24.8625 16.5723 24.9798 16.8652C25.1363 17.1484 25.0189 17.4707 24.8723 17.7344C24.4812 18.0664 23.9533 17.9688 23.4742 17.9785C19.3386 17.9785 15.203 17.9785 11.0576 17.9785C10.6959 17.9688 10.3342 18.0078 9.98219 17.9492C9.50312 17.8418 9.23915 17.2266 9.50312 16.8164C9.63022 16.5527 9.91375 16.4551 10.1777 16.3965C10.1875 15.6934 10.1777 14.9902 10.1777 14.2871C8.02682 16.0645 6.61896 18.7207 6.32566 21.5039ZM8.75031 21.2891C7.92906 22.1191 7.09803 22.9395 6.267 23.7598C6.25722 24.9512 6.25722 26.1426 6.267 27.334C6.25722 29.1309 6.70695 30.9277 7.55754 32.5098C8.79919 34.834 10.911 36.6797 13.3845 37.5977C15.1052 38.2324 16.9922 38.457 18.8009 38.1543C21.6264 37.7832 24.2466 36.1914 25.9575 33.916C27.3458 32.0898 28.128 29.8242 28.1573 27.5293C28.1671 26.2695 28.1573 25.0098 28.1573 23.7598C27.3849 22.9883 26.6126 22.2168 25.8304 21.4453C25.7913 21.4062 25.7131 21.3184 25.674 21.2793C23.2884 22.4902 20.6683 23.2715 17.9894 23.418C14.8022 23.584 11.6051 22.7246 8.75031 21.2891ZM12.5242 38.9453C12.5242 39.6289 12.5242 40.3223 12.5242 41.0059C13.1205 41.3672 13.6583 41.8262 14.2742 42.1191C15.203 41.9141 16.122 41.6699 17.0411 41.4258C17.3441 41.3574 17.6277 41.5039 17.921 41.5723C18.664 41.748 19.4168 41.9531 20.1599 42.1191C20.7758 41.8066 21.3233 41.3672 21.9099 40.9961C21.9099 40.3125 21.9099 39.6289 21.9099 38.9453C18.9378 40.1562 15.4963 40.166 12.5242 38.9453Z" fill="#1C2436"/>
<path d="M13.3152 7.02145C13.2858 6.61129 13.6769 6.22067 14.0875 6.24996C15.3976 6.25973 16.7077 6.24996 18.0178 6.25973C18.4382 6.2402 18.8 6.62106 18.8 7.03121C18.8097 7.45114 18.4382 7.82223 18.0178 7.81246C16.9717 7.82223 15.9353 7.81246 14.8892 7.82223C14.8892 9.38473 14.8892 10.9472 14.8892 12.5097C16.4535 12.5097 18.0178 12.5097 19.5821 12.5097C19.5919 11.9531 19.5625 11.3964 19.5919 10.8398C19.631 10.4297 20.0514 10.1074 20.462 10.1757C20.8335 10.2148 21.1464 10.5566 21.1366 10.9375C21.1464 11.7187 21.1366 12.5 21.1366 13.291C21.1757 13.7207 20.7749 14.1211 20.3447 14.082C18.2622 14.082 16.1798 14.082 14.0973 14.082C13.6671 14.1211 13.2663 13.7207 13.3054 13.291C13.3249 11.1914 13.3249 9.11129 13.3152 7.02145Z" fill="#1C2436"/>
<path d="M19.8082 7.26562C20.1113 6.94336 20.6686 6.96289 20.9521 7.30468C21.2259 7.59765 21.1966 8.0957 20.913 8.36914C19.8767 9.42382 18.8208 10.4492 17.7942 11.5039C17.5889 11.748 17.2369 11.7773 16.9534 11.6992C16.6699 11.582 16.5037 11.3086 16.2788 11.1035C16.0539 10.8496 15.7118 10.6348 15.6726 10.2734C15.5944 9.78515 16.0637 9.3164 16.5428 9.39453C16.8361 9.42382 17.0316 9.6582 17.2272 9.83398C18.0973 8.9746 18.9479 8.11523 19.8082 7.26562Z" fill="#1C2436"/>
<path d="M16.9725 44.5899C17.5201 44.3653 18.1653 44.9219 17.9991 45.5078C17.8916 46.0645 17.129 46.3086 16.7184 45.9082C16.2784 45.5567 16.4348 44.7657 16.9725 44.5899Z" fill="#1C2436"/>
<path d="M16.5029 48.6913C16.3269 48.2519 16.6593 47.7148 17.1286 47.666C17.6272 47.5781 18.1063 48.0468 18.0183 48.5449C17.9792 48.8964 17.6859 49.1406 17.3535 49.2187C17.2753 49.2187 17.1971 49.2187 17.1091 49.2187C16.8549 49.1308 16.5909 48.9746 16.5029 48.6913Z" fill="#1C2436"/>
<path d="M11.7617 1.5625C14.3721 1.5625 16.9728 1.5625 19.5832 1.5625C19.5832 2.34375 19.5832 3.125 19.5832 3.90625C19.5441 4.32617 19.9449 4.72656 20.3653 4.6875C21.1475 4.6875 21.9394 4.6875 22.7215 4.6875C22.7215 8.60352 22.7215 12.5098 22.7215 16.416C19.0748 16.416 15.4182 16.416 11.7715 16.416C11.7617 11.4648 11.7617 6.51367 11.7617 1.5625ZM13.3162 7.02148C13.326 9.10156 13.326 11.1914 13.3162 13.2715C13.2771 13.7012 13.678 14.1016 14.1082 14.0625C16.1906 14.0625 18.2731 14.0625 20.3555 14.0625C20.7857 14.1016 21.1866 13.7012 21.1475 13.2715C21.1475 12.4902 21.1572 11.709 21.1475 10.918C21.1475 10.5371 20.8444 10.1953 20.4729 10.1562C20.0622 10.0879 19.6418 10.4102 19.6027 10.8203C19.5734 11.377 19.6027 11.9336 19.593 12.4902C18.0287 12.4902 16.4644 12.4902 14.9001 12.4902C14.9001 10.9277 14.9001 9.36523 14.9001 7.80273C15.9462 7.79297 16.9825 7.8125 18.0287 7.79297C18.4491 7.80273 18.8206 7.43164 18.8108 7.01172C18.8206 6.60156 18.4491 6.2207 18.0287 6.24023C16.7186 6.23047 15.4085 6.25 14.0984 6.23047C13.678 6.2207 13.2869 6.61133 13.3162 7.02148ZM19.808 7.26562C18.9477 8.11523 18.0971 8.97461 17.2367 9.83398C17.0412 9.64844 16.8359 9.41406 16.5524 9.39453C16.0635 9.31641 15.5942 9.78516 15.6822 10.2734C15.7213 10.6445 16.0537 10.8594 16.2884 11.1035C16.5035 11.3086 16.6795 11.582 16.963 11.6992C17.2465 11.7773 17.5985 11.748 17.8038 11.5039C18.8304 10.4492 19.8863 9.42383 20.9226 8.36914C21.2061 8.0957 21.2355 7.59766 20.9617 7.30469C20.6782 6.96289 20.1111 6.94336 19.808 7.26562Z" fill="#F6F6F9"/>
<path d="M21.1367 2.66602C21.2931 2.82227 21.4496 2.96875 21.5962 3.125C21.4398 3.125 21.2834 3.125 21.1367 3.125C21.1367 2.96875 21.1367 2.82227 21.1367 2.66602Z" fill="#EDEFF2"/>
<path d="M6.32422 21.5039C6.61752 18.7207 8.02539 16.0645 10.1958 14.2773C10.1958 14.9805 10.1958 15.6836 10.1958 16.3867C9.93187 16.4453 9.64834 16.543 9.52124 16.8066C9.26704 17.2266 9.52124 17.8418 10.0003 17.9395C10.3523 17.998 10.714 17.9688 11.0758 17.9688C15.2113 17.9688 19.3469 17.9688 23.4923 17.9688C23.9616 17.959 24.4993 18.0566 24.8904 17.7246C25.1837 18.3008 25.4379 18.8965 25.6432 19.5117C24.382 20.2539 23.0035 20.8008 21.5956 21.2207C19.8065 21.7383 17.9195 21.9922 16.0619 21.8262C13.7644 21.6211 11.5157 20.918 9.46258 19.873C9.16927 19.7266 8.88575 19.4629 8.53378 19.5215C8.2307 19.541 8.03516 19.7949 7.83963 19.9902C7.33123 20.5176 6.82284 21.0059 6.32422 21.5039Z" fill="#656D78"/>
<path d="M24.2754 14.2969C26.4165 16.084 27.8244 18.7207 28.1079 21.4941C27.5213 20.918 26.9445 20.3418 26.3774 19.7559C26.1916 19.541 25.8886 19.5215 25.6246 19.5215C25.4193 18.9062 25.1651 18.3105 24.8718 17.7344C25.0184 17.4707 25.126 17.1484 24.9793 16.8652C24.862 16.5723 24.5589 16.4551 24.2754 16.3867C24.2754 15.6934 24.2754 15 24.2754 14.2969Z" fill="#545C66"/>
<path d="M8.75039 21.2891C11.6052 22.7246 14.8022 23.584 18.009 23.4277C20.6879 23.2812 23.3081 22.5 25.6936 21.2891C25.7327 21.3281 25.8109 21.416 25.85 21.4551C25.8012 23.291 25.8403 25.1172 25.8305 26.9531C25.8696 28.8379 25.5079 30.7422 24.6671 32.4316C23.7578 34.3359 22.3206 35.9668 20.5706 37.1387C20.0035 37.5195 19.3876 37.8027 18.8205 38.1738C17.0118 38.4766 15.1151 38.252 13.4042 37.6172C10.9306 36.6992 8.81883 34.8535 7.57717 32.5293C6.72659 30.9473 6.26708 29.1504 6.28663 27.3535C6.27685 26.1621 6.27685 24.9707 6.28663 23.7793C7.10788 22.9395 7.92914 22.1191 8.75039 21.2891Z" fill="#FFEFEB"/>
<path d="M25.8498 21.4551C26.632 22.2266 27.3946 22.998 28.1767 23.7695C28.1767 25.0293 28.1865 26.2891 28.1767 27.5391C28.1474 29.8242 27.3653 32.0996 25.9769 33.9258C24.2758 36.2012 21.6458 37.793 18.8203 38.1641C19.3874 37.793 20.0131 37.5098 20.5704 37.1289C22.3204 35.9668 23.7576 34.3262 24.6669 32.4219C25.4979 30.7324 25.8596 28.8281 25.8303 26.9434C25.8401 25.1172 25.7912 23.2813 25.8498 21.4551Z" fill="#F2DAD4"/>
<path d="M12.5234 38.9453C15.4956 40.1562 18.937 40.1562 21.9092 38.9453C21.9092 39.6289 21.9092 40.3125 21.9092 40.9961C21.3226 41.3672 20.7751 41.8066 20.1591 42.1191C19.4063 41.9531 18.6633 41.748 17.9202 41.5723C17.6269 41.5039 17.3434 41.3574 17.0403 41.4258C16.1213 41.6699 15.2023 41.9141 14.2735 42.1191C13.6478 41.8262 13.11 41.3672 12.5234 41.0059C12.5234 40.3223 12.5234 39.6289 12.5234 38.9453Z" fill="#E7D6FF"/>
<path d="M5.62211 42.4023C6.37492 42.1777 7.16684 42.2168 7.94899 42.207C9.02444 42.207 10.0999 42.207 11.1753 42.207C11.3611 42.207 11.5469 42.2168 11.7033 42.334C12.3486 42.7637 13.0036 43.1933 13.6391 43.6328C14.0302 43.9258 14.5288 43.6816 14.9394 43.584C15.702 43.4082 16.4548 43.1641 17.2272 43.0469C17.9898 43.1543 18.7328 43.4082 19.4856 43.5742C19.9158 43.6621 20.4144 43.9258 20.8251 43.6328C21.4214 43.2129 22.0374 42.8223 22.6338 42.4121C22.8 42.2949 22.9857 42.1875 23.1911 42.207C24.5598 42.2266 25.9188 42.207 27.2875 42.2168C28.8421 43.0371 29.9859 44.5703 30.3672 46.2793C30.6019 47.2461 30.5139 48.2422 30.5334 49.2285C26.1437 49.2285 21.7539 49.2285 17.3641 49.2285C17.6867 49.1504 17.9898 48.8965 18.0289 48.5547C18.1169 48.0566 17.6378 47.5781 17.1392 47.6758C16.6699 47.7246 16.3473 48.2617 16.5135 48.7012C16.6015 48.9844 16.8654 49.1406 17.1294 49.2285C11.9477 49.2187 6.77577 49.2285 1.59406 49.2285C1.60383 48.1152 1.49629 46.9726 1.89714 45.9082C2.44464 44.209 3.90139 42.8516 5.62211 42.4023ZM16.973 44.5898C16.4255 44.7558 16.2788 45.5469 16.7188 45.9082C17.1294 46.3086 17.892 46.0644 17.9996 45.5078C18.1755 44.9316 17.5303 44.3652 16.973 44.5898Z" fill="#4DF189"/>
<path d="M27.2773 42.2071C28.1377 42.1973 28.9981 42.3731 29.7704 42.7539C31.1881 43.4278 32.2831 44.7559 32.6839 46.2695C32.9479 47.2266 32.8501 48.2324 32.8697 49.2188C32.0875 49.2188 31.3054 49.2188 30.5232 49.2188C30.5037 48.2324 30.5917 47.2363 30.357 46.2695C29.9757 44.5606 28.8319 43.0274 27.2773 42.2071Z" fill="#3EE47B"/>
</g>
<defs>
<clipPath id="clip0_338_876">
<rect width="34.434" height="50" fill="white"/>
</clipPath>
</defs>
</svg>
