<svg width="34" height="40" viewBox="0 0 34 40" fill="none" xmlns="http://www.w3.org/2000/svg">
<path fill-rule="evenodd" clip-rule="evenodd" d="M4.11869 39.0617H5.90494C5.88424 38.9607 5.8733 38.8562 5.8733 38.7492V37.4749C5.8733 36.6155 6.57642 35.9124 7.4358 35.9124H7.60033L7.00338 30.1673C6.87861 28.9668 7.81666 27.9262 9.02377 27.9262H10.9519C12.256 27.0139 13.843 26.4783 15.5553 26.4783C17.2676 26.4783 18.8545 27.0139 20.1587 27.9262H22.0869C23.294 27.9262 24.232 28.9668 24.1073 30.1673L23.5103 35.9124H23.6749C24.5342 35.9124 25.2374 36.6155 25.2374 37.4749V38.7492C25.2374 38.8562 25.2265 38.9607 25.2057 39.0617H26.992C27.4223 39.0617 27.7732 38.7108 27.7732 38.2805V18.0994H30.657C30.9623 18.0994 31.0862 17.7052 30.8359 17.5306L27.9656 15.5282C26.6446 17.6695 24.3178 18.9779 21.7897 18.9779C17.7849 18.9779 14.5381 15.7312 14.5381 11.7264C14.5381 10.034 15.118 8.47704 16.0899 7.24313L15.779 7.02626C15.6421 6.93079 15.4688 6.93079 15.332 7.02626L0.274862 17.5306C0.161112 17.61 0.113925 17.7483 0.155565 17.8806C0.197206 18.013 0.31494 18.0995 0.45369 18.0995H3.33752V38.2805C3.33744 38.7108 3.68838 39.0617 4.11869 39.0617ZM7.4358 37.1623H23.6747C23.8466 37.1623 23.9872 37.303 23.9872 37.4748V38.7491C23.9872 38.921 23.8466 39.0616 23.6747 39.0616H7.4358C7.26385 39.0616 7.1233 38.921 7.1233 38.7491V37.4748C7.1233 37.303 7.26385 37.1623 7.4358 37.1623ZM9.02369 29.1761H22.0868C22.5531 29.1761 22.912 29.5744 22.8638 30.038L22.2535 35.9123H8.85705L8.24666 30.038C8.19845 29.5744 8.55744 29.1761 9.02369 29.1761ZM15.5553 31.8881C16.3951 31.8881 17.076 32.4156 17.076 33.0662C17.076 33.7168 16.3951 34.2442 15.5553 34.2442C14.7153 34.2442 14.0345 33.7168 14.0345 33.0662C14.0345 32.4156 14.7153 31.8881 15.5553 31.8881ZM26.5442 6.1286C26.2017 6.09493 25.9514 5.78993 25.9852 5.44743C26.0188 5.10493 26.3238 4.85462 26.6663 4.88837C27.643 4.98805 28.5314 5.46258 29.1194 6.25461C29.7076 7.04696 29.9056 8.02922 29.7183 8.99368C29.6536 9.33212 29.3267 9.55399 28.9883 9.4893C28.6499 9.42461 28.428 9.09774 28.4927 8.7593C28.6125 8.14274 28.4956 7.50501 28.1184 6.9968C27.741 6.48837 27.1699 6.19243 26.5442 6.1286ZM31.7183 9.1979C31.6536 9.53633 31.3267 9.75821 30.9883 9.69352C30.6499 9.62883 30.428 9.30196 30.4927 8.96352C30.7118 7.83571 30.4931 6.67454 29.8036 5.74586C29.114 4.81688 28.0714 4.27196 26.9277 4.15524C26.5852 4.12149 26.3349 3.81657 26.3686 3.47407C26.4023 3.13157 26.7073 2.88126 27.0498 2.91501C28.5445 3.06751 29.9045 3.7911 30.8046 5.00368C31.7049 6.21641 32.0049 7.72227 31.7183 9.1979ZM27.3087 2.18188C26.9662 2.14688 26.717 1.84079 26.752 1.49829C26.787 1.15579 27.0931 0.906569 27.4356 0.941647C29.4467 1.14696 31.2788 2.12118 32.4899 3.75266C33.7022 5.38587 34.104 7.4154 33.7181 9.40204C33.6534 9.74047 33.3265 9.96235 32.9881 9.89766C32.6496 9.83297 32.4277 9.5061 32.4924 9.16766C32.8108 7.52876 32.4903 5.84399 31.4888 4.49485C30.486 3.14376 28.9721 2.35165 27.3087 2.18188ZM17.1437 15.526C16.4204 14.6427 15.944 13.5494 15.8201 12.3513H17.3054C17.3787 13.327 17.6192 14.268 18.0073 15.1391C17.7062 15.2531 17.4172 15.3821 17.1437 15.526ZM19.2138 14.7755C18.8584 14.0226 18.6343 13.2038 18.5593 12.3513H21.1644V14.5048C20.5005 14.5395 19.8424 14.6298 19.2138 14.7755ZM22.4144 14.5048V12.3513H25.0195C24.9445 13.2038 24.7204 14.0226 24.365 14.7755C23.7363 14.6298 23.0783 14.5395 22.4144 14.5048ZM25.5716 15.1391C25.9596 14.268 26.2001 13.327 26.2735 12.3513H27.7588C27.6349 13.5494 27.1585 14.6427 26.4352 15.526C26.1616 15.3821 25.8727 15.2531 25.5716 15.1391ZM25.4876 16.4534C25.1142 16.746 24.7052 16.9952 24.2682 17.1937C24.526 16.8949 24.7614 16.5791 24.9733 16.2488C25.1499 16.3112 25.3217 16.3795 25.4876 16.4534ZM23.6939 15.91C23.3317 16.4098 22.9027 16.8645 22.4144 17.2609V15.7563C22.8486 15.7814 23.2781 15.8326 23.6939 15.91ZM21.1644 15.7563V17.2609C20.6761 16.8645 20.2471 16.4098 19.8849 15.91C20.3008 15.8327 20.7302 15.7814 21.1644 15.7563ZM18.6056 16.2487C18.8174 16.5791 19.0528 16.8948 19.3106 17.1935C18.8736 16.9951 18.4646 16.7459 18.0913 16.4534C18.2571 16.3795 18.4288 16.3112 18.6056 16.2487ZM21.1644 6.19282V7.69633C20.7308 7.67133 20.302 7.62024 19.8866 7.54297C20.2524 7.03938 20.6824 6.58524 21.1644 6.19282ZM19.2131 8.67704C19.842 8.82282 20.5003 8.91321 21.1644 8.94797V11.1014H18.5575C18.6313 10.2407 18.8591 9.42329 19.2131 8.67704ZM17.3036 11.1013H15.8201C15.9441 9.90329 16.4204 8.80993 17.1437 7.92665C17.4169 8.07047 17.7055 8.19922 18.0062 8.31313C17.6198 9.17633 17.3756 10.1158 17.3036 11.1013ZM18.6068 7.20446C18.4297 7.14188 18.2575 7.07344 18.0912 6.9993C18.466 6.70571 18.8765 6.45579 19.3153 6.25696C19.0577 6.55524 18.8207 6.87188 18.6068 7.20446ZM24.2635 6.25696C24.7023 6.45571 25.1129 6.70563 25.4877 6.9993C25.3213 7.07344 25.1492 7.1418 24.972 7.20446C24.7581 6.8718 24.5211 6.55524 24.2635 6.25696ZM25.5726 8.31313C25.8733 8.19922 26.1619 8.0704 26.4352 7.92657C27.1585 8.80985 27.6348 9.90329 27.7588 11.1013H26.2752C26.2032 10.1158 25.959 9.17633 25.5726 8.31313ZM25.0213 11.1013H22.4144V8.9479C23.0785 8.91313 23.7367 8.82282 24.3656 8.67696C24.7197 9.42329 24.9475 10.2407 25.0213 11.1013ZM23.6921 7.54297C23.2767 7.62024 22.848 7.67133 22.4144 7.69633V6.19282C22.8963 6.58524 23.3263 7.03938 23.6921 7.54297ZM15.5553 17.6513C17.8007 17.6513 19.621 19.4716 19.621 21.717C19.621 23.9625 17.8007 25.7828 15.5553 25.7828C13.3098 25.7828 11.4895 23.9625 11.4895 21.717C11.4895 19.4716 13.3099 17.6513 15.5553 17.6513Z" fill="#741BF2"/>
</svg>
