<svg width="33" height="40" viewBox="0 0 33 40" fill="none" xmlns="http://www.w3.org/2000/svg">
<g clip-path="url(#clip0_1199_13508)">
<path d="M17.0108 8.16409C16.8158 7.78128 16.184 7.78909 15.9968 8.1719C15.4197 9.33597 14.8581 10.5078 14.2809 11.6719C13.0018 11.8594 11.7305 12.0313 10.4513 12.2266C10.0146 12.2813 9.81178 12.8828 10.116 13.1953C11.0363 14.1094 11.9879 15.0078 12.9004 15.9297C12.682 17.211 12.4558 18.4922 12.2375 19.7735C12.1673 20.1875 12.6664 20.5625 13.0486 20.375C14.2029 19.7735 15.3495 19.1485 16.5038 18.5469C17.6504 19.1563 18.8047 19.7735 19.959 20.375C20.3412 20.5625 20.8404 20.1797 20.7624 19.7578C20.544 18.4766 20.3178 17.1953 20.0994 15.9219C21.0276 15.0078 21.9635 14.1016 22.8917 13.1875C23.1179 12.9532 23.0633 12.5391 22.8215 12.336C22.6733 12.1953 22.4627 12.211 22.2755 12.1797C21.09 12.0078 19.9122 11.8438 18.7267 11.6641C18.1495 10.5078 17.5802 9.33597 17.0108 8.16409ZM16.535 9.85159C16.9562 10.7188 17.3774 11.586 17.8063 12.4532C17.9077 12.6797 18.1417 12.7969 18.3757 12.8125C19.3195 12.9453 20.2554 13.0782 21.1992 13.211C20.4894 13.9063 19.7718 14.5938 19.0699 15.2969C18.9295 15.4375 18.8749 15.6485 18.9139 15.8438C19.0777 16.8125 19.2493 17.7813 19.4131 18.75C18.5395 18.2891 17.6738 17.8282 16.8002 17.3672C16.6052 17.25 16.3634 17.2735 16.1762 17.3907C15.3183 17.8438 14.4681 18.2969 13.618 18.75C13.7818 17.7813 13.9534 16.8125 14.1171 15.8438C14.1561 15.6485 14.1016 15.4375 13.9534 15.2969C13.2436 14.6016 12.526 13.9141 11.8241 13.211C12.8146 13.0703 13.8052 12.9297 14.7957 12.7813C14.9751 12.75 15.1311 12.6172 15.2091 12.4532C15.6303 11.586 16.0592 10.7188 16.4804 9.85159C16.4882 9.85159 16.5194 9.85159 16.535 9.85159Z" fill="black"/>
<path d="M23.0702 2.87507C20.5899 1.49226 17.6651 0.921945 14.8495 1.28132C12.6266 1.54695 10.4739 2.3907 8.64879 3.69538C5.42756 5.97663 3.28268 9.71882 2.9785 13.6641C2.70551 16.8282 3.57907 20.0782 5.41197 22.6641C7.30726 25.3829 10.2243 27.3673 13.4533 28.0938C16.9553 28.9219 20.7771 28.2579 23.7956 26.2969C26.3382 24.6719 28.3193 22.1641 29.3099 19.3126C30.121 16.9923 30.2848 14.4454 29.7856 12.0391C29.2007 9.17976 27.672 6.52351 25.4803 4.59382C25.3243 4.44538 25.1215 4.32038 25.0513 4.10163C24.9811 3.91413 25.0435 3.71101 25.1449 3.54695C24.7315 3.23445 24.3025 2.94538 23.8658 2.66413C23.7098 2.92976 23.3432 3.03913 23.0702 2.87507ZM19.0378 4.34382C22.0329 5.05476 24.6535 7.14851 26.0418 9.89851C26.9466 11.6485 27.3444 13.6563 27.1962 15.6251C27.0636 17.5235 26.4006 19.3829 25.3165 20.9454C24.2323 22.5157 22.7348 23.7891 21.0111 24.5938C19.4434 25.3282 17.6885 25.6719 15.957 25.5782C14.0149 25.4844 12.104 24.8438 10.4973 23.7501C8.99977 22.7344 7.76744 21.336 6.95628 19.7188C6.82369 19.4376 6.96408 19.0782 7.24487 18.9454C7.01868 18.4688 6.86269 17.961 6.71449 17.461L6.77689 17.4219C6.47271 17.5313 6.09833 17.3438 6.02033 17.0313C5.73175 15.6485 5.71615 14.211 5.97354 12.8204C6.34792 10.8048 7.31506 8.91413 8.71899 7.42976C9.88892 6.17976 11.363 5.21882 12.9698 4.64851C14.904 3.96101 17.0411 3.84382 19.0378 4.34382Z" fill="#4DF189"/>
<path d="M16.5351 9.85156C16.5195 9.85156 16.4883 9.85156 16.4727 9.85156C16.0515 10.7188 15.6303 11.5859 15.2013 12.4531C15.1233 12.6172 14.9673 12.75 14.788 12.7813C13.7974 12.9297 12.8069 13.0703 11.8163 13.2109C12.5183 13.9063 13.2358 14.5938 13.9456 15.2969C14.086 15.4375 14.1484 15.6484 14.1094 15.8438C13.9456 16.8125 13.774 17.7812 13.6102 18.75C14.4604 18.2969 15.3183 17.8438 16.1685 17.3906C16.3557 17.2734 16.5975 17.25 16.7924 17.3672C17.6582 17.8281 18.5318 18.2891 19.4053 18.75C19.2415 17.7812 19.0699 16.8125 18.9061 15.8438C18.8671 15.6484 18.9217 15.4375 19.0621 15.2969C19.7719 14.5938 20.4894 13.9063 21.1914 13.2109C20.2477 13.0781 19.3117 12.9375 18.368 12.8125C18.134 12.7969 17.9 12.6719 17.7986 12.4531C17.3774 11.5859 16.9484 10.7188 16.5351 9.85156Z" fill="#4DF189"/>
<path d="M6.7614 17.4219C7.03438 17.3204 7.21377 17.0001 7.13578 16.711C6.87059 15.3751 6.88619 13.9844 7.19038 12.6641C7.59595 10.8594 8.5475 9.17975 9.88123 7.8985C11.3242 6.49225 13.2194 5.56256 15.2161 5.29694C16.8384 5.07037 18.5232 5.28131 20.0441 5.89069C21.8926 6.63287 23.4915 7.96881 24.56 9.65631C25.5818 11.2579 26.1121 13.1719 26.0497 15.0704C26.0029 16.9219 25.4024 18.7579 24.3494 20.2735C23.4369 21.5938 22.189 22.6798 20.7616 23.3985C18.3672 24.6173 15.4423 24.7344 12.9543 23.7188C10.8484 22.8907 9.07787 21.2657 8.04053 19.2579C7.91574 18.9532 7.54136 18.7891 7.24497 18.9376C7.01878 18.461 6.86279 17.9532 6.7146 17.4532L6.7614 17.4219ZM22.8207 12.3438C22.6725 12.2032 22.4541 12.2188 22.2748 12.1876C21.0892 12.0157 19.9115 11.8516 18.7259 11.6719C18.1488 10.5001 17.5794 9.32819 17.01 8.16412C16.8151 7.78131 16.1833 7.78912 15.9961 8.17194C15.4189 9.336 14.8574 10.5079 14.2802 11.6719C13.0011 11.8594 11.7219 12.0313 10.4506 12.2266C10.0138 12.2813 9.81103 12.8829 10.1152 13.1954C11.0356 14.1094 11.9871 15.0079 12.8997 15.9297C12.6813 17.211 12.4551 18.4923 12.2367 19.7735C12.1743 20.1876 12.6657 20.5626 13.0401 20.3751C14.1944 19.7735 15.3409 19.1485 16.4953 18.5469C17.6418 19.1563 18.7961 19.7735 19.9505 20.3751C20.3327 20.5626 20.8318 20.1797 20.7538 19.7579C20.5354 18.4766 20.3093 17.1954 20.0909 15.9219C21.019 15.0079 21.955 14.1016 22.8831 13.1954C23.1171 12.961 23.0625 12.5469 22.8207 12.3438Z" fill="#D6FFD8"/>
<path d="M2.41 33.2422C3.70473 30.9922 4.99946 28.7344 6.29419 26.4844C6.41898 26.2656 6.53598 26.0547 6.66857 25.8359C8.44687 27.4297 10.6074 28.5937 12.9238 29.1797C11.8163 31.1328 10.6854 33.0703 9.57781 35.0156C9.40622 35.2969 9.53101 35.6797 9.8118 35.8281C9.53881 36.2734 9.29703 36.7266 9.03184 37.1719C8.79005 37.0312 8.45467 37.0703 8.27528 37.2969C8.13489 37.4922 8.0257 37.7187 7.9009 37.9219C7.78391 37.5625 7.67471 37.2031 7.55772 36.8438C7.23794 35.8359 6.91816 34.8203 6.59837 33.8125C6.49698 33.5156 6.146 33.3594 5.85741 33.4531C4.49249 33.7578 3.12756 34.0469 1.76264 34.3594C1.97323 33.9922 2.19161 33.6172 2.41 33.2422Z" fill="#D6FFD8"/>
<path d="M26.3226 25.8516C26.8296 26.7109 27.3132 27.5859 27.8201 28.4453C27.9761 28.7188 28.3427 28.7656 28.6001 28.6172C28.8653 29.0703 29.1227 29.5234 29.3878 29.9766C29.1227 30.1328 28.9979 30.4922 29.1539 30.7656C29.848 31.9844 30.55 33.1953 31.2441 34.4141C30.8932 34.3359 30.5422 34.2656 30.1912 34.1875C29.1383 33.9609 28.0853 33.7109 27.0246 33.4922C26.7282 33.4453 26.4474 33.6641 26.3772 33.9453C25.956 35.2891 25.5271 36.6328 25.1059 37.9766C24.8953 37.625 24.7003 37.2734 24.4975 36.9141C23.2028 34.6641 21.9081 32.4141 20.6211 30.1641C20.4339 29.8359 20.2467 29.5156 20.0674 29.1875C22.376 28.6094 24.5365 27.4453 26.3226 25.8516Z" fill="#D6FFD8"/>
<path d="M5.77086 14.8124C5.77086 14.6327 5.77867 14.453 5.78646 14.2811H5.79427C5.81766 13.789 5.87226 13.3046 5.96585 12.8202C6.34023 10.8046 7.30738 8.91396 8.71131 7.42958C9.88124 6.17958 11.3554 5.21865 12.9621 4.64833C14.9042 3.96865 17.0413 3.85927 19.0379 4.35927C22.033 5.07021 24.6536 7.16396 26.042 9.91396C26.9467 11.664 27.3445 13.6718 27.1963 15.6405C27.0637 17.539 26.4007 19.3983 25.3166 20.9608C24.2325 22.5311 22.7349 23.8046 21.0112 24.6093C19.4435 25.3436 17.6886 25.6874 15.9571 25.5936C14.015 25.4999 12.1041 24.8671 10.4974 23.7655C9.00769 22.7577 7.78316 21.3671 6.9642 19.7577C6.18424 18.2265 5.77086 16.5468 5.77086 14.8124ZM12.9543 23.7265C15.4423 24.7421 18.3672 24.6249 20.7616 23.4061C22.189 22.6874 23.4369 21.6015 24.3495 20.2811C25.4024 18.7655 26.0108 16.9296 26.0498 15.078C26.1122 13.1796 25.5818 11.2655 24.56 9.66396C23.4915 7.97646 21.8926 6.64052 20.0441 5.89833C18.5232 5.28115 16.8385 5.07802 15.2162 5.30458C13.2195 5.57021 11.3242 6.4999 9.88124 7.90615C8.54751 9.1874 7.59597 10.8671 7.19039 12.6718C6.88621 13.9999 6.87061 15.3905 7.13579 16.7186C7.14359 16.7499 7.15139 16.7811 7.15139 16.8124C7.32298 17.6405 7.61156 18.4374 7.99374 19.1874C8.00934 19.2108 8.01714 19.2265 8.02494 19.2499C8.24333 19.664 8.48512 20.0624 8.7659 20.4452C9.81884 21.8983 11.2774 23.0624 12.9543 23.7265Z" fill="#1C2436"/>
<path d="M0.0777435 34.9453C1.98084 31.625 3.89954 28.3047 5.79483 24.9844C4.6327 23.7344 3.66555 22.2891 2.98699 20.7188C1.51287 17.3672 1.36468 13.4688 2.55021 10.0078C3.89954 5.98438 7.07396 2.63281 11.0049 1.0625C12.6663 0.390625 14.4446 0.046875 16.2307 0H17.0028C19.3349 0.101562 21.6514 0.726562 23.6793 1.875C23.6949 1.88281 23.7105 1.89844 23.7261 1.91406C24.4982 2.35156 25.2392 2.85938 25.9255 3.42969C25.9333 3.42969 25.9333 3.4375 25.9411 3.4375C26.3389 3.76562 26.7133 4.11719 27.0721 4.49219C27.0877 4.50781 27.0955 4.52344 27.1111 4.53125C27.1735 4.59375 27.2359 4.65625 27.2905 4.72656C27.3217 4.76562 27.3607 4.79688 27.3919 4.83594C27.4231 4.86719 27.4464 4.89844 27.4698 4.92969C27.5166 4.98438 27.5634 5.03125 27.6102 5.08594C29.139 6.85156 30.2465 8.97656 30.8003 11.2422C31.7518 15.0156 31.1356 19.1562 29.1078 22.4766C28.5618 23.3906 27.9066 24.2266 27.1891 25.0078C27.6336 25.8047 28.1016 26.5938 28.5462 27.3828L28.554 27.375L30.8237 31.3125L30.8081 31.3203C31.5178 32.5391 32.2198 33.75 32.914 34.9688C33.1713 35.3438 32.797 35.9219 32.3446 35.8516C30.6755 35.4922 29.0142 35.1094 27.3451 34.7578C26.8225 36.3828 26.3155 38.0156 25.7929 39.6406C25.7227 39.8438 25.52 39.9609 25.325 40H25.13C24.9818 39.9453 24.8258 39.8672 24.7556 39.7109C22.7823 36.2891 20.8246 32.8516 18.8435 29.4297C17.2914 29.6719 15.7003 29.6719 14.1404 29.4219C12.947 31.4688 11.7771 33.5234 10.5994 35.5781C10.576 35.6172 10.5526 35.6562 10.5214 35.6875L9.28904 37.8203C9.28124 37.8594 9.26564 37.8984 9.24224 37.9375C8.91466 38.5156 8.57928 39.0938 8.2439 39.6797C8.02551 40.0938 7.32355 40.0156 7.19876 39.5703C6.68398 37.9531 6.17701 36.3281 5.66224 34.7109C3.99313 35.0703 2.33182 35.4453 0.670513 35.8047C0.218136 35.8984 -0.164043 35.3281 0.0777435 34.9453ZM20.614 30.1562C21.9088 32.4062 23.2035 34.6562 24.4904 36.9062C24.6932 37.2578 24.896 37.6172 25.0988 37.9688C25.52 36.625 25.9489 35.2812 26.3701 33.9375C26.4403 33.6562 26.7211 33.4375 27.0175 33.4844C28.0704 33.7031 29.1234 33.9531 30.1841 34.1797C30.5351 34.2578 30.8861 34.3281 31.237 34.4062C30.5429 33.1875 29.8409 31.9766 29.1468 30.7578C29.1312 30.7266 29.1156 30.6953 29.1078 30.6641L27.8598 28.5078C27.8442 28.4844 27.8208 28.4609 27.813 28.4375C27.3061 27.5781 26.8225 26.7031 26.3155 25.8438C24.5372 27.4375 22.3689 28.6016 20.0525 29.1797C20.2396 29.5078 20.4268 29.8281 20.614 30.1562ZM23.7962 26.2969C26.3389 24.6719 28.32 22.1641 29.3105 19.3125C30.1217 16.9922 30.2855 14.4453 29.7863 12.0391C29.2014 9.17969 27.6726 6.52344 25.481 4.59375C25.4186 4.53906 25.3562 4.48438 25.286 4.42188C24.3266 3.60938 23.2581 2.92188 22.1271 2.40625V2.39844C19.8653 1.36719 17.3148 0.960937 14.8423 1.27344C12.6195 1.53906 10.4668 2.38281 8.64168 3.6875C5.42045 5.96875 3.27557 9.71094 2.97139 13.6562C2.6984 16.8203 3.57195 20.0703 5.40485 22.6562C7.30015 25.375 10.2172 27.3594 13.4462 28.0859C16.9638 28.9219 20.7856 28.2656 23.7962 26.2969ZM5.85723 33.4688C6.15361 33.375 6.50459 33.5312 6.59819 33.8281C6.92577 34.8359 7.23775 35.8516 7.55754 36.8594C7.66673 37.2109 7.77592 37.5547 7.89292 37.9062L9.71802 34.7578L9.72582 34.7656C10.7866 32.9062 11.8707 31.0469 12.9236 29.1875C10.6072 28.6016 8.44669 27.4375 6.66838 25.8438C6.53579 26.0547 6.4188 26.2734 6.29401 26.4922C4.99928 28.7422 3.70455 31 2.40982 33.25C2.19923 33.625 1.98084 34 1.76245 34.375C3.12738 34.0625 4.4923 33.7734 5.85723 33.4688Z" fill="#1C2436"/>
</g>
<defs>
<clipPath id="clip0_1199_13508">
<rect width="33" height="40" fill="white" transform="matrix(-1 0 0 1 33 0)"/>
</clipPath>
</defs>
</svg>
